<svg width="708" height="647" viewBox="0 0 708 647" fill="none" xmlns="http://www.w3.org/2000/svg">
<g clip-path="url(#clip0)">
<path d="M130.786 543.068C124.584 545.913 120.25 551.067 114.172 554.176C109.456 556.585 104.106 555.221 101.661 559.909C101.358 560.492 100.34 563.155 100.636 563.739C100.231 564.936 97.9858 565.659 98.1368 568.161C98.7284 569.632 100.503 574.044 103.304 574.626C106.551 575.301 108.782 575.51 111.741 573.994C114.7 572.477 116.369 569.307 117.814 566.312C119.262 563.32 120.833 560.128 123.716 558.47C124.176 558.203 124.703 557.979 125.227 558.072C126.145 558.238 126.603 559.272 126.79 560.187C127.339 562.84 126.903 565.685 125.582 568.059C124.566 569.892 123.071 571.406 121.595 572.899C115.402 579.165 109.205 585.428 103.008 591.697C102.053 592.663 101.049 593.714 100.802 595.051C100.601 596.105 100.909 597.184 101.3 598.181C102.423 601.057 104.468 603.794 107.422 604.713C111.468 605.973 115.887 603.359 118.242 599.829C120.596 596.299 121.431 592.013 122.558 587.925C124.272 581.703 126.772 575.693 129.981 570.081C130.48 578.203 133.126 586.345 131.511 594.324C129.776 602.895 123.454 609.716 117.403 616.055C116.11 617.407 114.722 619.276 115.534 620.953C116.128 622.177 117.725 622.636 119.061 622.347C120.396 622.057 121.531 621.209 122.617 620.373C124.411 622.108 126.363 623.672 128.441 625.046C129.471 625.725 130.728 626.381 131.885 625.942C133.488 625.337 133.699 623.2 133.677 621.488C133.553 610.847 135.008 600.18 137.974 589.945C141.691 600.197 145.823 610.292 150.359 620.203C150.751 621.061 151.302 622.031 152.243 622.131C153.381 622.249 154.174 620.993 154.391 619.873C154.607 618.753 154.582 617.49 155.325 616.62C156.479 615.262 158.638 615.693 160.326 616.24C161.442 609.643 156.559 603.766 152.55 598.432C146.361 590.193 141.574 580.897 138.458 571.07C138.162 570.131 138.058 568.798 138.986 568.467C139.679 568.217 140.371 568.781 140.881 569.305C144.334 572.86 147.439 576.755 150.128 580.92C153.574 586.251 156.603 592.278 162.085 595.495C163.212 596.154 164.663 596.671 165.782 595.991C167.466 594.966 166.865 592.369 165.795 590.723C164.724 589.077 163.316 587.183 164.049 585.358C164.481 584.279 165.571 583.595 166.137 582.578C167.186 580.692 166.165 578.346 164.936 576.582C157.506 565.948 143.145 562.064 135.204 551.801C137.612 551.315 139.93 552.768 141.951 554.151C146.346 557.165 150.736 560.179 155.131 563.193C156.042 563.818 157.173 564.469 158.183 564.013C160.531 562.963 157.937 559.085 159.237 556.871C160.26 555.127 163.248 555.285 164.078 553.441C164.778 551.875 163.356 550.217 161.983 549.196C153.825 543.156 138.413 539.569 130.786 543.068Z" fill="#5085A7"/>
</g>
<path d="M551.684 125.276C565.484 127.099 594.02 123.797 597.714 110.887C599.45 104.82 598.996 98.4213 599.757 92.176C600.517 85.9307 602.926 79.2962 608.52 75.9735C612.431 73.6507 617.27 73.3323 621.841 73.5298C624.176 73.6318 626.598 73.87 628.618 74.9716C633.532 77.6462 634.277 84.4324 632.14 89.4989C630.003 94.5571 625.8 98.5183 622.451 102.944C616.875 110.318 613.581 119.244 613.109 128.297C612.983 130.653 613.58 133.676 615.996 134.12C616.671 134.245 617.365 134.128 618.036 133.971C625.659 132.245 631.536 126.532 636.86 121.007C642.185 115.481 647.814 109.624 655.307 107.442C662.81 105.258 672.59 108.552 674.072 115.884C675.289 121.893 670.622 127.639 665.418 131.262C651.056 141.272 631.205 142.333 617.826 153.53C634.104 155.2 650.745 153.882 666.571 149.675C672.267 148.163 678.019 146.251 683.908 146.573C689.798 146.896 695.97 150.137 697.407 155.602C697.993 157.848 697.735 160.226 697.434 162.533C696.852 167.006 695.902 171.878 692.295 174.801C687.273 178.875 679.782 177.279 673.491 175.614C660.422 172.166 647.148 169.398 633.752 167.335C629.172 166.634 622.809 167.158 622.067 171.554C639.189 179.427 659.358 178.58 677.371 184.401C685.091 186.896 693.504 192.473 692.674 200.265C691.834 208.203 681.359 212.285 673.291 210.39C665.223 208.496 658.89 202.8 652.129 198.219C644.723 193.202 636.432 189.365 627.707 186.916C626.841 186.675 625.896 186.451 625.053 186.763C623.445 187.361 623.231 189.65 624.222 190.989C625.222 192.328 626.942 192.948 628.549 193.521C642.431 198.49 655.539 205.354 667.57 213.607C672.814 217.204 678.102 221.386 680.222 227.231C682.343 233.075 679.888 240.886 673.671 242.71C667.203 244.613 661.043 239.54 656.412 234.886C646.118 224.542 635.825 214.207 625.531 203.863C623.618 206.742 626.115 210.315 628.333 212.943C637.113 223.338 643.525 237.13 639.537 250.045C638.744 252.609 637.186 255.374 634.458 255.955C631.101 256.672 628.241 253.719 626.411 250.964C618.234 238.573 614.87 223.841 612.308 209.348C609.746 194.855 608.044 177.082 602.209 163.511C595.009 146.75 582.769 137.87 569.848 137.672C564.6 137.589 554.137 135.516 556.27 133.203L551.684 125.276Z" fill="#A9BFDE"/>
<path d="M118.366 381.827C117.048 384.603 114.761 387.3 111.717 387.476C110.118 387.565 108.554 386.942 106.95 386.721C101.468 386.033 96.1411 391.456 96.873 397.031C97.605 402.605 104.161 406.547 109.285 404.51C114.311 402.52 117.171 396.217 122.531 395.562C129.564 394.701 136.114 404.254 142.383 400.964C144.581 399.813 145.76 397.37 146.689 395.053C152.366 380.818 153.487 364.705 149.804 349.715C148.726 345.349 146.411 340.311 141.999 339.809C138.702 339.437 135.681 342.001 134.376 345.07C133.07 348.14 133.112 351.609 133.175 354.955C133.241 358.494 133.307 362.033 133.373 365.571C130.594 365.228 129.268 361.983 128.522 359.237C125.251 347.097 122.572 334.789 120.532 322.377C119.853 318.209 119.172 313.886 116.912 310.331C114.652 306.777 110.289 304.172 106.317 305.382C101.632 306.813 99.7034 312.754 100.539 317.671C101.374 322.588 104.158 326.919 106.002 331.551C107.846 336.182 108.655 341.834 105.788 345.833C89.4357 330.901 92.2938 301.415 74.8059 287.835C71.1016 284.963 65.8061 283.083 61.8856 285.583C58.5154 287.724 57.4893 292.484 58.5673 296.41C59.6454 300.336 62.3651 303.563 65.1787 306.472C71.3173 312.813 79.0088 320 77.5985 328.727C73.6113 330.408 68.5846 329.122 65.7935 325.726C62.9943 322.306 61.452 316.56 57.0778 316.497C55.9118 316.475 54.7995 316.938 53.7413 317.448C48.9644 319.753 44.5109 323.656 43.4856 328.934C42.0028 336.494 48.5568 343.998 56.0189 345.593C60.8967 346.633 65.9252 345.717 70.8892 345.976C78.6135 346.378 85.9267 349.565 92.9082 352.971C94.4826 353.733 96.1117 354.579 97.0728 356.033C99.3387 359.456 96.4112 364.422 92.4973 365.47C88.5914 366.54 84.4657 364.915 80.8535 363.008C77.5104 361.254 73.6364 359.179 70.2025 360.694C66.5869 362.273 65.5351 367.327 67.0971 371.033C68.6591 374.739 72.0684 377.273 75.4994 379.282C78.7922 381.222 82.6672 382.895 86.2832 381.796C88.5196 381.123 90.3211 379.488 92.1558 378.022C97.5331 373.773 103.884 370.792 110.573 369.416C112.805 368.953 115.246 368.688 117.305 369.71C119.364 370.731 120.743 373.503 119.556 375.482C119.632 375.443 119.684 379.051 118.366 381.827Z" fill="#A1A59F"/>
<path d="M114.718 556.955C120.063 552.573 123.273 543.589 127.058 536.622C128.076 534.761 129.095 532.74 128.91 530.621C128.638 527.477 125.606 525.052 122.47 524.718C119.334 524.383 116.215 525.78 113.742 527.738C111.269 529.695 109.303 532.197 107.196 534.54C105.858 536.022 103.314 537.426 102.142 535.802C101.781 535.305 101.713 534.648 101.725 534.029C101.77 531.133 103.223 528.443 104.89 526.073C110.631 517.881 119.352 511.629 122.981 502.313C124.338 498.813 124.687 494.339 121.937 491.771C119.71 489.693 116.129 489.668 113.342 490.91C110.554 492.151 108.382 494.41 106.283 496.613C104.392 498.598 102.477 500.618 101.102 502.988C97.9032 508.526 97.8866 515.598 94.0696 520.728C93.4575 521.543 92.6469 522.36 91.6247 522.389C89.9864 522.443 89.0112 520.534 88.8107 518.911C88.2507 514.387 90.3244 509.992 92.4998 505.986C95.6096 500.258 99.0592 494.677 101.394 488.587C103.729 482.497 104.91 475.762 103.295 469.441C103.093 468.654 102.82 467.83 102.21 467.283C101.54 466.69 100.595 466.551 99.7031 466.521C92.7952 466.26 86.5211 471.134 83.1686 477.141C79.8161 483.148 78.8273 490.151 78.0197 496.99C77.6153 500.415 77.141 504.093 74.7952 506.612C73.0184 505.746 72.7919 503.359 72.8331 501.392C73.0908 489.128 74.2419 476.885 76.2898 464.784C76.9207 461.06 77.4894 456.783 75.0322 453.914C72.5182 450.973 67.6092 451.014 64.5082 453.314C61.4072 455.614 59.9268 459.568 59.6299 463.41C59.333 467.252 60.0642 471.093 60.5609 474.923C61.0577 478.754 61.3014 482.721 60.0939 486.381C59.8333 487.174 59.4358 488.006 58.6755 488.351C57.5961 488.833 56.2927 488.028 55.7866 486.958C55.2805 485.889 55.3326 484.655 55.3394 483.482C55.3511 479.36 54.5113 475.11 52.1276 471.734C49.7439 468.358 45.6247 466.029 41.5228 466.548C40.6224 466.659 39.7427 466.904 38.9279 467.307C34.8014 469.364 33.7499 475.073 35.3531 479.401C36.9563 483.73 40.4748 487.006 43.7508 490.261C44.6469 491.155 45.5859 492.158 45.7391 493.408C45.8923 494.658 44.7947 496.105 43.5628 495.779C42.8691 495.597 42.4218 494.957 42.0151 494.37C39.4749 490.739 36.2836 487.561 32.653 485.022C31.7869 484.413 30.8603 483.835 29.8232 483.684C27.1388 483.285 24.8124 486.022 24.6407 488.725C24.4782 491.428 25.8254 493.977 27.2296 496.298C29.4656 500.021 32.0452 503.713 35.7339 506.015C41.452 509.572 48.6725 509.15 55.3976 508.768C57.7251 508.633 60.1049 508.533 62.3273 509.23C64.5497 509.926 66.6088 511.617 67.0861 513.885C67.1866 514.358 67.2094 514.85 67.0396 515.298C66.6419 516.28 65.4292 516.624 64.3721 516.705C57.8105 517.211 51.077 512.66 44.9534 515.073C43.6733 515.577 42.4728 516.419 41.8569 517.637C40.7795 519.745 41.7831 522.475 43.644 523.943C45.5049 525.411 47.9956 525.851 50.3741 525.835C55.1206 525.811 59.7328 524.239 64.4599 523.846C69.1871 523.453 74.5801 524.583 77.1814 528.55C77.6877 529.319 78.0733 530.223 77.9484 531.137C77.7441 532.53 76.358 533.499 74.9655 533.697C73.5731 533.895 72.1707 533.5 70.8135 533.12C67.2617 532.122 63.4651 531.196 59.944 532.269C56.4229 533.342 53.5015 537.206 54.8015 540.65C55.5516 542.624 57.4672 543.958 59.461 544.673C66.9921 547.39 74.9854 542.943 82.8138 541.293C85.1672 540.804 87.989 540.713 89.5618 542.52C91.2182 544.413 90.5228 547.527 88.7855 549.335C87.0471 551.151 84.5704 552.019 82.2282 552.941C79.5982 553.977 76.9623 555.21 75.024 557.264C73.087 559.309 71.967 562.351 72.8848 565.013C73.8651 567.853 76.9985 569.625 80.0059 569.557C83.0226 569.491 86.2063 568.178 87.914 565.71C94.0698 556.772 109.268 561.426 114.718 556.955Z" fill="#3A5751"/>
<path d="M452.912 155.161C456.48 147.395 456.388 138.96 459.623 131.046C462.136 124.908 465.876 118.558 464.37 112.109C464.182 111.307 463.838 110.438 463.081 110.125C462.126 109.732 461.106 110.418 460.105 110.666C457.837 111.223 455.39 108.941 455.779 106.629C452.66 103.89 447.323 106.377 445.751 110.233C444.179 114.089 445.181 118.463 446.255 122.488C447.323 126.512 448.437 130.827 447.052 134.756C446.833 135.386 446.515 136.028 445.942 136.368C444.934 136.96 443.655 136.352 442.73 135.634C440.042 133.562 438.134 130.503 437.45 127.169C436.918 124.598 437.102 121.939 437.285 119.317C438.052 108.308 438.824 97.2992 439.592 86.2847C439.711 84.5875 439.806 82.7686 438.949 81.2974C438.279 80.1328 437.106 79.3579 435.92 78.7297C432.505 76.9145 428.328 75.9833 424.772 77.5222C419.9 79.6276 417.836 85.718 418.482 90.9935C419.128 96.269 421.834 101.023 424.102 105.826C427.554 113.138 430.086 120.888 431.621 128.838C424.515 121.53 415.354 115.954 410.372 107.055C405.023 97.496 405.458 85.8546 406.03 74.8937C406.155 72.5533 405.947 69.6443 403.806 68.7136C402.243 68.0356 400.351 68.9034 399.319 70.2687C398.287 71.6341 397.901 73.3662 397.551 75.0466C394.432 74.863 391.3 74.97 388.204 75.3606C386.672 75.5562 384.942 75.9594 384.202 77.3213C383.173 79.2036 384.718 81.4063 386.136 83.0155C394.942 93.0239 402.27 104.346 407.809 116.491C395.908 109.785 383.741 103.567 371.34 97.8536C370.267 97.3585 368.951 96.8868 367.976 97.5601C366.798 98.3763 367.071 100.216 367.78 101.458C368.489 102.699 369.543 103.877 369.548 105.31C369.561 107.543 367.158 108.895 365.108 109.755C369.434 116.932 378.871 118.531 387.034 120.325C399.641 123.102 411.778 128.025 422.761 134.819C423.809 135.469 424.996 136.651 424.385 137.723C423.931 138.527 422.812 138.555 421.9 138.474C415.718 137.915 409.588 136.749 403.633 134.987C396.007 132.735 388.209 129.481 380.375 130.9C378.767 131.193 376.966 131.886 376.459 133.447C375.697 135.795 378.387 137.771 380.748 138.461C383.109 139.151 385.992 139.801 386.787 142.134C387.258 143.511 386.781 145.051 387.073 146.479C387.617 149.127 390.502 150.523 393.11 151.195C408.85 155.233 425.663 147.201 441.585 150.469C439.694 152.898 436.306 153.409 433.257 153.744C426.621 154.468 419.991 155.188 413.355 155.912C411.98 156.063 410.374 156.367 409.787 157.625C408.414 160.539 414.044 162.106 414.618 165.27C415.069 167.762 412.102 170.051 412.82 172.481C413.432 174.54 416.137 174.954 418.276 174.803C430.956 173.883 448.525 164.71 452.912 155.161Z" fill="#5085A7"/>
<path fill-rule="evenodd" clip-rule="evenodd" d="M384.715 130.959C450.186 112.065 562.034 72.3558 613.993 130.055C650.811 170.941 636.03 379.47 640.838 402.545C651.976 456.008 643.29 576.852 598.535 609.252C554.392 641.209 465.731 654.671 414.52 635.305C366.729 617.231 340.567 593.838 293.65 573.679C246.733 553.52 137.839 593.179 107.103 539.089C76.3314 484.936 106.734 449.514 127.647 391.034C140.419 355.317 94.2992 291.374 94.2895 253.517C94.2776 206.826 94.2738 145.322 187.893 114.116C251.347 92.9645 339.798 143.92 384.715 130.959Z" fill="#F0D9C1"/>
<path d="M126.723 477.701C138.407 469.525 139.993 448.802 136.392 433.94C135.421 429.932 133.515 425.83 129.935 423.828C126.354 421.83 120.901 423.074 119.707 427.018C119.391 428.069 119.392 429.187 119.277 430.277C119.057 432.424 118.391 434.491 117.732 436.542C115.954 442.061 114.18 447.576 112.401 453.095C111.747 455.129 110.854 457.422 108.858 458.147C105.978 459.194 103.083 455.973 102.903 452.885C102.727 449.801 104.205 446.905 105.022 443.927C106.251 439.444 105.98 434.697 105.697 430.05C104.959 417.914 104.222 405.777 103.484 393.64C103.217 389.233 102.838 384.52 100.111 381.067C97.3837 377.613 91.4046 376.475 88.8014 380.019C87.9733 381.147 87.6113 382.551 87.299 383.925C84.4323 396.511 84.1532 409.69 86.486 422.393C87.5586 428.237 89.182 434.125 88.4795 440.022C88.2379 442.06 87.1346 444.536 85.0991 444.429C84.0897 444.378 83.2471 443.656 82.5626 442.907C78.4722 438.426 77.3718 432.024 76.4471 426.006C74.6975 414.616 72.9519 403.222 71.2022 391.833C70.409 386.671 69.5895 381.409 67.2683 376.735C64.9471 372.062 60.8409 367.985 55.7358 367.077C54.6413 366.883 53.4487 366.851 52.4928 367.416C51.2719 368.133 50.7359 369.619 50.4614 371.017C49.6339 375.235 50.3673 379.599 51.2571 383.809C56.7868 409.983 68.4525 434.821 85.0301 455.722C80.5743 454.394 76.0504 453.29 71.4878 452.422C69.1145 451.97 65.5146 452.776 66.0816 455.145C66.2485 455.837 66.7845 456.373 67.3361 456.821C73.5469 461.87 83.1967 460.502 89.4075 465.551C90.4686 466.413 91.454 467.894 90.7347 469.059C90.3588 469.668 89.6327 469.946 88.969 470.21C86.0735 471.353 83.3761 473.003 81.0297 475.064C79.5699 476.346 78.1438 478.33 78.9784 480.091C79.5819 481.366 81.0928 481.861 82.4478 482.216C95.7126 485.662 116.101 485.34 126.844 477.649C126.835 477.645 126.695 477.718 126.723 477.701Z" fill="#E5B7A8"/>
<g clip-path="url(#clip1)">
<path d="M619.248 109.312C603.104 109.386 590.415 91.0953 574.442 93.3049C577.626 99.6325 582.756 104.989 588.973 108.466C592.9 110.673 597.298 112.17 600.729 115.1C604.161 118.03 606.41 123.052 604.324 127.012C602.103 131.254 596.021 132.073 591.586 130.188C587.152 128.303 583.879 124.48 580.497 121.065C575.627 116.157 570.185 111.813 564.296 108.164C560.955 106.094 556.543 104.275 553.336 106.501C549.183 109.41 551.121 115.742 552.653 120.592C554.464 126.273 555.046 132.341 554.385 138.255C554.099 140.747 553.539 143.364 551.87 145.246C548.107 149.473 540.461 147.583 537.162 142.957C533.869 138.312 533.775 132.215 534.207 126.558C534.54 122.168 535.05 117.567 533.304 113.516C531.558 109.465 526.553 106.412 522.621 108.424C516.826 111.39 519.378 120.375 516.392 126.124C513.822 131.069 507.322 132.772 501.777 131.883C494.112 130.665 487.296 125.375 483.801 118.486C480.31 111.579 480.071 103.254 482.675 96.0086C483.004 95.0814 483.413 94.1558 484.133 93.4927C484.738 92.958 485.504 92.6458 486.297 92.4601C490.454 91.4838 494.641 93.5414 498.703 94.8687C502.77 96.1774 508.029 96.4118 510.483 92.9487C512.447 90.1903 511.597 86.2401 509.631 83.4637C507.664 80.6872 504.782 78.7008 502.315 76.3676C495.451 69.91 491.619 60.3829 492.119 51.0214C492.235 48.9421 492.744 46.5903 494.574 45.6075C497.266 44.1788 500.328 46.6913 502.273 49.024C510.626 59.0658 517.746 70.1109 523.413 81.8614C525.804 86.8019 529.383 92.7776 534.871 92.1577C539.505 91.6477 542.149 86.1254 541.328 81.5458C540.507 76.9662 537.356 73.2153 534.391 69.594C530.673 65.0345 527.033 60.2571 524.951 54.7623C522.87 49.2676 522.489 42.8949 525.166 37.6999C527.848 32.4863 534.042 28.9303 539.781 30.3685C547.722 32.3569 550.886 41.9042 551.204 50.0117C551.521 58.1192 550.502 66.9436 555.062 73.6798C556.213 75.3815 558.102 77.0225 560.117 76.5471C560.801 76.392 561.409 75.9975 561.984 75.5743C568.243 70.8015 569.314 61.9314 569.148 54.0834C568.982 46.2354 568.251 37.798 572.351 31.1131C577.488 22.7351 590.235 20.1986 598.29 25.9599C606.344 31.7212 607.97 44.5389 601.6 52.049C598.437 55.7602 593.908 58.0502 590.466 61.5274C587.273 64.7527 585.132 68.9964 584.449 73.4917C584.314 74.3712 584.244 75.3079 584.655 76.095C584.989 76.722 585.575 77.1577 586.171 77.5563C591.558 81.2092 598.074 83.1941 604.577 83.2047C607.647 83.2112 610.757 82.7705 613.803 83.1686C620.29 83.9909 626.077 88.8461 628.012 95.0381C629.184 98.7563 628.904 103.1 626.517 106.164C624.13 109.227 619.248 109.312 619.248 109.312Z" fill="#3A5751"/>
</g>
<g clip-path="url(#clip2)">
<path d="M438.187 62.313C449.139 66.5901 452.227 82.8374 463.707 85.5687C463.455 80.2712 461.593 75.1339 458.43 71.025C456.435 68.4223 453.908 66.1918 452.466 63.2139C451.024 60.236 451.013 56.1063 453.616 53.8843C456.397 51.5006 460.761 52.5567 463.197 55.0695C465.632 57.5824 466.697 61.1448 467.96 64.4496C469.78 69.2021 472.157 73.7125 475.047 77.854C476.686 80.2033 479.126 82.6639 481.967 81.9604C485.654 81.0313 486.248 76.0649 486.67 72.2483C487.153 67.7731 488.584 63.3551 490.812 59.3788C491.755 57.7059 492.922 56.0185 494.618 55.1444C498.438 53.1847 503.046 56.5619 503.888 60.6953C504.72 64.8404 502.948 69.1469 500.954 73.0042C499.408 75.9979 497.678 79.0924 497.641 82.4055C497.604 85.7185 500.074 89.2047 503.342 88.8462C508.158 88.3169 509.133 81.3226 512.885 78.0858C516.113 75.3021 521.026 75.8497 524.513 77.9605C529.337 80.8712 532.36 86.4136 532.653 92.1887C532.938 97.9755 530.595 103.886 526.652 108.276C526.15 108.839 525.595 109.38 524.908 109.652C524.337 109.865 523.725 109.879 523.132 109.797C520.024 109.368 517.808 106.8 515.457 104.779C513.097 102.769 509.607 101.195 506.904 102.969C504.744 104.379 504.13 107.381 504.627 109.858C505.123 112.336 506.476 114.503 507.444 116.803C510.148 123.179 509.877 130.897 506.721 137.337C506.017 138.767 504.964 140.282 503.43 140.481C501.177 140.763 499.86 138.177 499.245 136.017C496.611 126.726 495.114 117.06 494.813 107.288C494.681 103.177 494.055 98.0209 490.153 96.9849C486.862 96.1004 483.41 99.2695 482.588 102.706C481.766 106.142 482.771 109.621 483.689 112.96C484.834 117.159 485.861 121.49 485.617 125.907C485.373 130.324 483.713 134.901 480.338 137.832C476.953 140.774 471.689 141.61 468.237 139.061C463.458 135.536 464.189 127.982 466.413 122.204C468.638 116.425 471.983 110.501 470.922 104.547C470.656 103.044 469.87 101.385 468.363 101.178C467.853 101.104 467.323 101.218 466.806 101.361C461.132 103.034 457.738 108.976 455.489 114.532C453.24 120.088 451.196 126.21 446.408 129.805C440.41 134.311 431.015 132.675 427.296 126.469C423.576 120.263 426.332 110.826 432.905 107.259C436.163 105.501 439.918 105.108 443.295 103.588C446.428 102.18 449.154 99.7735 450.969 96.7996C451.325 96.2182 451.655 95.5793 451.613 94.9161C451.575 94.3863 451.31 93.9231 451.026 93.4834C448.478 89.4737 444.664 86.3325 440.264 84.5813C438.187 83.7534 435.949 83.229 434.006 82.1327C429.862 79.816 427.405 74.8545 427.958 69.9872C428.283 67.0616 429.78 64.086 432.318 62.5749C434.855 61.0638 438.187 62.313 438.187 62.313Z" fill="#F7D29A"/>
</g>
<path d="M85.2097 261.263C88.0662 264.049 81.1576 265.476 77.1766 265.538C74.5676 265.576 72.0464 264.642 69.4554 264.314C66.1542 263.89 62.7258 264.483 59.7656 265.994C57.8713 266.96 55.9668 268.791 56.4271 270.863C56.6589 271.925 57.4851 272.743 58.3044 273.46C61.8588 276.539 66.2 278.7 70.7944 279.699C73.3933 280.272 110.365 295.199 117.097 293.029C117.677 292.838 118.3 292.381 118.617 292.054C127.361 283.043 140.734 264.49 144.953 247.514C146.088 242.927 146.666 237.471 143.418 234.024C140.186 230.577 134.422 230.859 130.322 233.201C126.222 235.543 123.32 239.459 120.252 243.038C117.183 246.617 113.559 250.123 108.935 251.101C114.805 237.398 120.684 223.702 126.562 209.99C128.983 204.334 131.445 198.523 131.705 192.375C131.811 189.765 131.427 186.933 129.631 185.044C126.886 182.149 121.86 182.696 118.728 185.185C115.594 187.658 113.908 191.493 112.382 195.181C106.112 210.268 100.463 225.627 95.4536 241.18C94.2426 241.838 93.1767 240.094 92.9257 238.746C89.7825 221.226 97.5289 203.743 99.4179 186.031C99.9707 180.839 99.4485 174.532 94.8789 171.996C90.1078 169.363 84.0073 172.864 81.119 177.491C74.4241 188.231 78.6851 202.421 75.387 214.639C69.4398 206.191 66.087 195.96 65.8565 185.631C65.7474 180.814 66.2912 175.868 64.8326 171.285C63.374 166.701 59.0588 162.512 54.2988 163.228C50.7984 163.758 48.1015 166.804 46.9511 170.153C45.8177 173.502 45.9155 177.133 46.0325 180.669C46.1528 184.511 46.2743 188.369 47.0756 192.123C48.1661 197.163 50.479 201.842 53.0328 206.318C54.2235 208.409 55.4807 210.479 57.133 212.243C59.0869 214.334 61.5146 215.902 63.6981 217.749C67.3189 220.806 70.279 224.637 72.3195 228.918C73.1479 230.661 73.8356 232.582 73.4866 234.471C73.1376 236.359 71.3716 238.105 69.4683 237.791C68.3878 237.608 67.5144 236.844 66.6939 236.11C63.5278 233.26 60.3696 230.401 57.2036 227.551C56.0938 226.549 54.9401 225.523 53.5197 225.075C49.3012 223.737 45.2874 228.142 44.3543 232.461C43.0811 238.422 45.385 245 50.0942 248.867C59.4112 256.479 76.6039 252.874 85.2097 261.263Z" fill="#F7D29A"/>
<defs>
<clipPath id="clip0">
<rect width="86.2271" height="81.4199" fill="white" transform="matrix(-0.624617 -0.780931 0.781387 -0.624047 131.859 639.782)"/>
</clipPath>
<clipPath id="clip1">
<rect width="132.369" height="145.157" fill="white" transform="translate(645.699 37.5693) rotate(105)"/>
</clipPath>
<clipPath id="clip2">
<rect width="101.491" height="105.294" fill="white" transform="translate(398.69 105.604) rotate(-52.5816)"/>
</clipPath>
</defs>
</svg>
