<?xml version="1.0" encoding="utf-8"?>
<!-- Generator: Adobe Illustrator 25.0.1, SVG Export Plug-In . SVG Version: 6.00 Build 0)  -->
<svg version="1.1" id="Layer_1" xmlns="http://www.w3.org/2000/svg" xmlns:xlink="http://www.w3.org/1999/xlink" x="0px" y="0px"
	 viewBox="0 0 708 647" style="enable-background:new 0 0 708 647;" xml:space="preserve">
<style type="text/css">
	.st0{clip-path:url(#SVGID_2_);}
	.st1{fill:#5085A7;}
	.st2{fill:#A9BFDE;}
	.st3{fill:#A1A59F;}
	.st4{fill:#3A5751;}
	.st5{fill-rule:evenodd;clip-rule:evenodd;fill:#F0D9C1;}
	.st6{fill:#E5B7A8;}
	.st7{clip-path:url(#SVGID_4_);}
	.st8{clip-path:url(#SVGID_6_);}
	.st9{fill:#F7D29A;}
</style>
<g>
	<defs>
		
			<rect id="SVGID_1_" x="88.8" y="533.1" transform="matrix(0.7809 -0.6246 0.6246 0.7809 -331.5298 207.1464)" width="81.4" height="86.2"/>
	</defs>
	<clipPath id="SVGID_2_">
		<use xlink:href="#SVGID_1_"  style="overflow:visible;"/>
	</clipPath>
	<g class="st0">
		<path class="st1" d="M123.6,538.6c-6.2,2.8-10.5,8-16.6,11.1c-4.7,2.4-10.1,1-12.5,5.7c-0.3,0.6-1.3,3.2-1,3.8
			c-0.4,1.2-2.7,1.9-2.5,4.4c0.6,1.5,2.4,5.9,5.2,6.5c3.2,0.7,5.5,0.9,8.4-0.6c3-1.5,4.6-4.7,6.1-7.7c1.4-3,3-6.2,5.9-7.8
			c0.5-0.3,1-0.5,1.5-0.4c0.9,0.2,1.4,1.2,1.6,2.1c0.5,2.7,0.1,5.5-1.2,7.9c-1,1.8-2.5,3.3-4,4.8c-6.2,6.3-12.4,12.5-18.6,18.8
			c-1,1-2,2-2.2,3.4c-0.2,1.1,0.1,2.1,0.5,3.1c1.1,2.9,3.2,5.6,6.1,6.5c4,1.3,8.5-1.4,10.8-4.9c2.4-3.5,3.2-7.8,4.3-11.9
			c1.7-6.2,4.2-12.2,7.4-17.8c0.5,8.1,3.1,16.3,1.5,24.2c-1.7,8.6-8.1,15.4-14.1,21.7c-1.3,1.4-2.7,3.2-1.9,4.9
			c0.6,1.2,2.2,1.7,3.5,1.4c1.3-0.3,2.5-1.1,3.6-2c1.8,1.7,3.7,3.3,5.8,4.7c1,0.7,2.3,1.3,3.4,0.9c1.6-0.6,1.8-2.7,1.8-4.5
			c-0.1-10.6,1.3-21.3,4.3-31.5c3.7,10.3,7.8,20.3,12.4,30.3c0.4,0.9,0.9,1.8,1.9,1.9c1.1,0.1,1.9-1.1,2.1-2.3
			c0.2-1.1,0.2-2.4,0.9-3.3c1.2-1.4,3.3-0.9,5-0.4c1.1-6.6-3.8-12.5-7.8-17.8c-6.2-8.2-11-17.5-14.1-27.4c-0.3-0.9-0.4-2.3,0.5-2.6
			c0.7-0.2,1.4,0.3,1.9,0.8c3.5,3.6,6.6,7.5,9.2,11.6c3.4,5.3,6.5,11.4,12,14.6c1.1,0.7,2.6,1.2,3.7,0.5c1.7-1,1.1-3.6,0-5.3
			c-1.1-1.6-2.5-3.5-1.7-5.4c0.4-1.1,1.5-1.8,2.1-2.8c1-1.9,0-4.2-1.2-6c-7.4-10.6-21.8-14.5-29.7-24.8c2.4-0.5,4.7,1,6.7,2.3
			c4.4,3,8.8,6,13.2,9c0.9,0.6,2,1.3,3.1,0.8c2.3-1-0.2-4.9,1.1-7.1c1-1.7,4-1.6,4.8-3.4c0.7-1.6-0.7-3.2-2.1-4.2
			C146.6,538.7,131.2,535.1,123.6,538.6z"/>
	</g>
</g>
<path class="st2" d="M544.5,120.8c13.8,1.8,42.3-1.5,46-14.4c1.7-6.1,1.3-12.5,2-18.7c0.8-6.2,3.2-12.9,8.8-16.2
	c3.9-2.3,8.8-2.6,13.3-2.4c2.3,0.1,4.8,0.3,6.8,1.4c4.9,2.7,5.7,9.5,3.5,14.5c-2.1,5.1-6.3,9-9.7,13.4c-5.6,7.4-8.9,16.3-9.3,25.4
	c-0.1,2.4,0.5,5.4,2.9,5.8c0.7,0.1,1.4,0,2-0.1c7.6-1.7,13.5-7.4,18.8-13c5.3-5.5,11-11.4,18.4-13.6c7.5-2.2,17.3,1.1,18.8,8.4
	c1.2,6-3.5,11.8-8.7,15.4c-14.4,10-34.2,11.1-47.6,22.3c16.3,1.7,32.9,0.4,48.7-3.9c5.7-1.5,11.4-3.4,17.3-3.1
	c5.9,0.3,12.1,3.6,13.5,9c0.6,2.2,0.3,4.6,0,6.9c-0.6,4.5-1.5,9.3-5.1,12.3c-5,4.1-12.5,2.5-18.8,0.8c-13.1-3.4-26.3-6.2-39.7-8.3
	c-4.6-0.7-10.9-0.2-11.7,4.2c17.1,7.9,37.3,7,55.3,12.8c7.7,2.5,16.1,8.1,15.3,15.9c-0.8,7.9-11.3,12-19.4,10.1
	c-8.1-1.9-14.4-7.6-21.2-12.2c-7.4-5-15.7-8.9-24.4-11.3c-0.9-0.2-1.8-0.5-2.7-0.2c-1.6,0.6-1.8,2.9-0.8,4.2c1,1.3,2.7,2,4.3,2.5
	c13.9,5,27,11.8,39,20.1c5.2,3.6,10.5,7.8,12.7,13.6c2.1,5.8-0.3,13.7-6.6,15.5c-6.5,1.9-12.6-3.2-17.3-7.8
	c-10.3-10.3-20.6-20.7-30.9-31c-1.9,2.9,0.6,6.5,2.8,9.1c8.8,10.4,15.2,24.2,11.2,37.1c-0.8,2.6-2.4,5.3-5.1,5.9
	c-3.4,0.7-6.2-2.2-8-5c-8.2-12.4-11.5-27.1-14.1-41.6c-2.6-14.5-4.3-32.3-10.1-45.8c-7.2-16.8-19.4-25.6-32.4-25.8
	c-5.2-0.1-15.7-2.2-13.6-4.5L544.5,120.8z"/>
<path class="st3" d="M111.2,377.3c-1.3,2.8-3.6,5.5-6.6,5.6c-1.6,0.1-3.2-0.5-4.8-0.8c-5.5-0.7-10.8,4.7-10.1,10.3
	c0.7,5.6,7.3,9.5,12.4,7.5c5-2,7.9-8.3,13.2-8.9c7-0.9,13.6,8.7,19.9,5.4c2.2-1.2,3.4-3.6,4.3-5.9c5.7-14.2,6.8-30.3,3.1-45.3
	c-1.1-4.4-3.4-9.4-7.8-9.9c-3.3-0.4-6.3,2.2-7.6,5.3c-1.3,3.1-1.3,6.5-1.2,9.9c0.1,3.5,0.1,7.1,0.2,10.6c-2.8-0.3-4.1-3.6-4.9-6.3
	c-3.3-12.1-6-24.4-8-36.9c-0.7-4.2-1.4-8.5-3.6-12c-2.3-3.6-6.6-6.2-10.6-4.9c-4.7,1.4-6.6,7.4-5.8,12.3c0.8,4.9,3.6,9.2,5.5,13.9
	c1.8,4.6,2.7,10.3-0.2,14.3c-16.4-14.9-13.5-44.4-31-58c-3.7-2.9-9-4.8-12.9-2.3c-3.4,2.1-4.4,6.9-3.3,10.8
	c1.1,3.9,3.8,7.2,6.6,10.1c6.1,6.3,13.8,13.5,12.4,22.3c-4,1.7-9,0.4-11.8-3c-2.8-3.4-4.3-9.2-8.7-9.2c-1.2,0-2.3,0.4-3.3,1
	c-4.8,2.3-9.2,6.2-10.3,11.5c-1.5,7.6,5.1,15.1,12.5,16.7c4.9,1,9.9,0.1,14.9,0.4c7.7,0.4,15,3.6,22,7c1.6,0.8,3.2,1.6,4.2,3.1
	c2.3,3.4-0.7,8.4-4.6,9.4c-3.9,1.1-8-0.6-11.6-2.5c-3.3-1.8-7.2-3.8-10.7-2.3c-3.6,1.6-4.7,6.6-3.1,10.3c1.6,3.7,5,6.2,8.4,8.2
	c3.3,1.9,7.2,3.6,10.8,2.5c2.2-0.7,4-2.3,5.9-3.8c5.4-4.2,11.7-7.2,18.4-8.6c2.2-0.5,4.7-0.7,6.7,0.3c2.1,1,3.4,3.8,2.3,5.8
	C112.4,370.9,112.5,374.6,111.2,377.3z"/>
<path class="st4" d="M107.5,552.5c5.3-4.4,8.6-13.4,12.3-20.3c1-1.9,2-3.9,1.9-6c-0.3-3.1-3.3-5.6-6.4-5.9c-3.1-0.3-6.3,1.1-8.7,3
	c-2.5,2-4.4,4.5-6.5,6.8c-1.3,1.5-3.9,2.9-5.1,1.3c-0.4-0.5-0.4-1.2-0.4-1.8c0-2.9,1.5-5.6,3.2-8c5.7-8.2,14.5-14.4,18.1-23.8
	c1.4-3.5,1.7-8-1-10.5c-2.2-2.1-5.8-2.1-8.6-0.9c-2.8,1.2-5,3.5-7.1,5.7c-1.9,2-3.8,4-5.2,6.4c-3.2,5.5-3.2,12.6-7,17.7
	c-0.6,0.8-1.4,1.6-2.4,1.7c-1.6,0.1-2.6-1.9-2.8-3.5c-0.6-4.5,1.5-8.9,3.7-12.9c3.1-5.7,6.6-11.3,8.9-17.4
	c2.3-6.1,3.5-12.8,1.9-19.1c-0.2-0.8-0.5-1.6-1.1-2.2c-0.7-0.6-1.6-0.7-2.5-0.8c-6.9-0.3-13.2,4.6-16.5,10.6c-3.4,6-4.3,13-5.1,19.8
	c-0.4,3.4-0.9,7.1-3.2,9.6c-1.8-0.9-2-3.3-2-5.2c0.3-12.3,1.4-24.5,3.5-36.6c0.6-3.7,1.2-8-1.3-10.9c-2.5-2.9-7.4-2.9-10.5-0.6
	c-3.1,2.3-4.6,6.3-4.9,10.1c-0.3,3.8,0.4,7.7,0.9,11.5c0.5,3.8,0.7,7.8-0.5,11.5c-0.3,0.8-0.7,1.6-1.4,2c-1.1,0.5-2.4-0.3-2.9-1.4
	c-0.5-1.1-0.5-2.3-0.4-3.5c0-4.1-0.8-8.4-3.2-11.7c-2.4-3.4-6.5-5.7-10.6-5.2c-0.9,0.1-1.8,0.4-2.6,0.8c-4.1,2.1-5.2,7.8-3.6,12.1
	c1.6,4.3,5.1,7.6,8.4,10.9c0.9,0.9,1.8,1.9,2,3.1c0.2,1.2-0.9,2.7-2.2,2.4c-0.7-0.2-1.1-0.8-1.5-1.4c-2.5-3.6-5.7-6.8-9.4-9.3
	c-0.9-0.6-1.8-1.2-2.8-1.3c-2.7-0.4-5,2.3-5.2,5c-0.2,2.7,1.2,5.3,2.6,7.6c2.2,3.7,4.8,7.4,8.5,9.7c5.7,3.6,12.9,3.1,19.7,2.8
	c2.3-0.1,4.7-0.2,6.9,0.5c2.2,0.7,4.3,2.4,4.8,4.7c0.1,0.5,0.1,1,0,1.4c-0.4,1-1.6,1.3-2.7,1.4c-6.6,0.5-13.3-4-19.4-1.6
	c-1.3,0.5-2.5,1.3-3.1,2.6c-1.1,2.1-0.1,4.8,1.8,6.3s4.4,1.9,6.7,1.9c4.7,0,9.4-1.6,14.1-2C62,519,67.4,520.1,70,524
	c0.5,0.8,0.9,1.7,0.8,2.6c-0.2,1.4-1.6,2.4-3,2.6c-1.4,0.2-2.8-0.2-4.2-0.6c-3.6-1-7.3-1.9-10.9-0.9s-6.4,4.9-5.1,8.4
	c0.8,2,2.7,3.3,4.7,4c7.5,2.7,15.5-1.7,23.4-3.4c2.4-0.5,5.2-0.6,6.7,1.2c1.7,1.9,1,5-0.8,6.8c-1.7,1.8-4.2,2.7-6.6,3.6
	c-2.6,1-5.3,2.3-7.2,4.3c-1.9,2-3.1,5.1-2.1,7.7c1,2.8,4.1,4.6,7.1,4.5c3-0.1,6.2-1.4,7.9-3.8C86.9,552.3,102.1,556.9,107.5,552.5z"
	/>
<path class="st1" d="M445.7,150.7c3.6-7.8,3.5-16.2,6.7-24.1c2.5-6.1,6.3-12.5,4.7-18.9c-0.2-0.8-0.5-1.7-1.3-2c-1-0.4-2,0.3-3,0.5
	c-2.3,0.6-4.7-1.7-4.3-4c-3.1-2.7-8.5-0.3-10,3.6c-1.6,3.9-0.6,8.2,0.5,12.3c1.1,4,2.2,8.3,0.8,12.3c-0.2,0.6-0.5,1.3-1.1,1.6
	c-1,0.6-2.3,0-3.2-0.7c-2.7-2.1-4.6-5.1-5.3-8.5c-0.5-2.6-0.3-5.2-0.2-7.9c0.8-11,1.5-22,2.3-33c0.1-1.7,0.2-3.5-0.6-5
	c-0.7-1.2-1.8-1.9-3-2.6c-3.4-1.8-7.6-2.7-11.1-1.2c-4.9,2.1-6.9,8.2-6.3,13.5s3.4,10,5.6,14.8c3.5,7.3,6,15.1,7.5,23
	c-7.1-7.3-16.3-12.9-21.2-21.8c-5.3-9.6-4.9-21.2-4.3-32.2c0.1-2.3-0.1-5.2-2.2-6.2c-1.6-0.7-3.5,0.2-4.5,1.6
	c-1,1.4-1.4,3.1-1.8,4.8c-3.1-0.2-6.3-0.1-9.3,0.3c-1.5,0.2-3.3,0.6-4,2c-1,1.9,0.5,4.1,1.9,5.7c8.8,10,16.1,21.3,21.7,33.5
	c-11.9-6.7-24.1-12.9-36.5-18.6c-1.1-0.5-2.4-1-3.4-0.3c-1.2,0.8-0.9,2.7-0.2,3.9c0.7,1.2,1.8,2.4,1.8,3.9c0,2.2-2.4,3.6-4.4,4.4
	c4.3,7.2,13.8,8.8,21.9,10.6c12.6,2.8,24.7,7.7,35.7,14.5c1,0.6,2.2,1.8,1.6,2.9c-0.5,0.8-1.6,0.8-2.5,0.8
	c-6.2-0.6-12.3-1.7-18.3-3.5c-7.6-2.3-15.4-5.5-23.3-4.1c-1.6,0.3-3.4,1-3.9,2.5c-0.8,2.3,1.9,4.3,4.3,5c2.4,0.7,5.2,1.3,6,3.7
	c0.5,1.4,0,2.9,0.3,4.3c0.5,2.6,3.4,4,6,4.7c15.7,4,32.6-4,48.5-0.7c-1.9,2.4-5.3,2.9-8.3,3.3c-6.6,0.7-13.3,1.4-19.9,2.2
	c-1.4,0.2-3,0.5-3.6,1.7c-1.4,2.9,4.3,4.5,4.8,7.6c0.5,2.5-2.5,4.8-1.8,7.2c0.6,2.1,3.3,2.5,5.5,2.3
	C423.8,169.4,441.3,160.2,445.7,150.7z"/>
<path class="st5" d="M377.5,126.5c65.5-18.9,177.3-58.6,229.3-0.9c36.8,40.9,22,249.4,26.8,272.5c11.1,53.5,2.5,174.3-42.3,206.7
	c-44.1,32-132.8,45.4-184,26.1c-47.8-18.1-74-41.5-120.9-61.6s-155.8,19.5-186.5-34.6c-30.8-54.2-0.4-89.6,20.5-148.1
	c12.8-35.7-33.3-99.7-33.4-137.5c0-46.7,0-108.2,93.6-139.4C244.2,88.5,332.6,139.4,377.5,126.5z"/>
<path class="st6" d="M119.5,473.2c11.7-8.2,13.3-28.9,9.7-43.8c-1-4-2.9-8.1-6.5-10.1c-3.6-2-9-0.8-10.2,3.2
	c-0.3,1.1-0.3,2.2-0.4,3.3c-0.2,2.1-0.9,4.2-1.5,6.3c-1.8,5.5-3.6,11-5.3,16.6c-0.7,2-1.5,4.3-3.5,5.1c-2.9,1-5.8-2.2-6-5.3
	c-0.2-3.1,1.3-6,2.1-9c1.2-4.5,1-9.2,0.7-13.9c-0.7-12.1-1.5-24.3-2.2-36.4c-0.3-4.4-0.6-9.1-3.4-12.6c-2.7-3.5-8.7-4.6-11.3-1
	c-0.8,1.1-1.2,2.5-1.5,3.9c-2.9,12.6-3.1,25.8-0.8,38.5c1.1,5.8,2.7,11.7,2,17.6c-0.2,2-1.3,4.5-3.4,4.4c-1-0.1-1.9-0.8-2.5-1.5
	c-4.1-4.5-5.2-10.9-6.1-16.9c-1.7-11.4-3.5-22.8-5.2-34.2c-0.8-5.2-1.6-10.4-3.9-15.1c-2.3-4.7-6.4-8.8-11.5-9.7
	c-1.1-0.2-2.3-0.2-3.2,0.3c-1.2,0.7-1.8,2.2-2,3.6c-0.8,4.2-0.1,8.6,0.8,12.8c5.5,26.2,17.2,51,33.8,71.9c-4.5-1.3-9-2.4-13.5-3.3
	c-2.4-0.5-6,0.4-5.4,2.7c0.2,0.7,0.7,1.2,1.3,1.7c6.2,5,15.9,3.7,22.1,8.7c1.1,0.9,2,2.3,1.3,3.5c-0.4,0.6-1.1,0.9-1.8,1.2
	c-2.9,1.1-5.6,2.8-7.9,4.9c-1.5,1.3-2.9,3.3-2.1,5c0.6,1.3,2.1,1.8,3.5,2.1c13.3,3.4,33.7,3.1,44.4-4.6
	C119.6,473.1,119.5,473.2,119.5,473.2z"/>
<g>
	<defs>
		
			<rect id="SVGID_3_" x="485.1" y="5.6" transform="matrix(0.2588 -0.9659 0.9659 0.2588 333.0427 590.4573)" width="132.4" height="145.2"/>
	</defs>
	<clipPath id="SVGID_4_">
		<use xlink:href="#SVGID_3_"  style="overflow:visible;"/>
	</clipPath>
	<g class="st7">
		<path class="st4" d="M612.1,104.8c-16.1,0.1-28.8-18.2-44.8-16c3.2,6.3,8.3,11.7,14.5,15.2c3.9,2.2,8.3,3.7,11.8,6.6
			c3.4,2.9,5.7,8,3.6,11.9c-2.2,4.2-8.3,5.1-12.7,3.2c-4.4-1.9-7.7-5.7-11.1-9.1c-4.9-4.9-10.3-9.3-16.2-12.9
			c-3.3-2.1-7.8-3.9-11-1.7c-4.2,2.9-2.2,9.2-0.7,14.1c1.8,5.7,2.4,11.7,1.7,17.7c-0.3,2.5-0.8,5.1-2.5,7
			c-3.8,4.2-11.4,2.3-14.7-2.3c-3.3-4.6-3.4-10.7-3-16.4c0.3-4.4,0.8-9-0.9-13c-1.7-4.1-6.8-7.1-10.7-5.1c-5.8,3-3.2,12-6.2,17.7
			c-2.6,4.9-9.1,6.6-14.6,5.8c-7.7-1.2-14.5-6.5-18-13.4c-3.5-6.9-3.7-15.2-1.1-22.5c0.3-0.9,0.7-1.9,1.5-2.5c0.6-0.5,1.4-0.8,2.2-1
			c4.2-1,8.3,1.1,12.4,2.4c4.1,1.3,9.3,1.5,11.8-1.9c2-2.8,1.1-6.7-0.9-9.5c-2-2.8-4.8-4.8-7.3-7.1c-6.9-6.5-10.7-16-10.2-25.3
			c0.1-2.1,0.6-4.4,2.5-5.4c2.7-1.4,5.8,1.1,7.7,3.4c8.4,10,15.5,21.1,21.1,32.8c2.4,4.9,6,10.9,11.5,10.3c4.6-0.5,7.3-6,6.5-10.6
			s-4-8.3-6.9-12c-3.7-4.6-7.4-9.3-9.4-14.8c-2.1-5.5-2.5-11.9,0.2-17.1c2.7-5.2,8.9-8.8,14.6-7.3c7.9,2,11.1,11.5,11.4,19.6
			c0.3,8.1-0.7,16.9,3.9,23.7c1.2,1.7,3,3.3,5.1,2.9c0.7-0.2,1.3-0.5,1.9-1c6.3-4.8,7.3-13.6,7.2-21.5s-0.9-16.3,3.2-23
			c5.1-8.4,17.9-10.9,25.9-5.2c8.1,5.8,9.7,18.6,3.3,26.1c-3.2,3.7-7.7,6-11.1,9.5c-3.2,3.2-5.3,7.5-6,12c-0.1,0.9-0.2,1.8,0.2,2.6
			c0.3,0.6,0.9,1.1,1.5,1.5c5.4,3.7,11.9,5.6,18.4,5.6c3.1,0,6.2-0.4,9.2,0c6.5,0.8,12.3,5.7,14.2,11.9c1.2,3.7,0.9,8.1-1.5,11.1
			C616.9,104.7,612.1,104.8,612.1,104.8z"/>
	</g>
</g>
<g>
	<defs>
		
			<rect id="SVGID_5_" x="413.4" y="40.1" transform="matrix(0.6076 -0.7942 0.7942 0.6076 108.4199 405.0412)" width="101.5" height="105.3"/>
	</defs>
	<clipPath id="SVGID_6_">
		<use xlink:href="#SVGID_5_"  style="overflow:visible;"/>
	</clipPath>
	<g class="st8">
		<path class="st9" d="M431,57.8c11,4.3,14,20.5,25.5,23.3c-0.3-5.3-2.1-10.4-5.3-14.5c-2-2.6-4.5-4.8-6-7.8c-1.4-3-1.5-7.1,1.1-9.3
			c2.8-2.4,7.1-1.3,9.6,1.2c2.4,2.5,3.5,6.1,4.8,9.4c1.8,4.8,4.2,9.3,7.1,13.4c1.6,2.3,4.1,4.8,6.9,4.1c3.7-0.9,4.3-5.9,4.7-9.7
			c0.5-4.5,1.9-8.9,4.1-12.9c0.9-1.7,2.1-3.4,3.8-4.2c3.8-2,8.4,1.4,9.3,5.6c0.8,4.1-0.9,8.5-2.9,12.3c-1.5,3-3.3,6.1-3.3,9.4
			c0,3.3,2.4,6.8,5.7,6.4c4.8-0.5,5.8-7.5,9.5-10.8c3.2-2.8,8.1-2.2,11.6-0.1c4.8,2.9,7.8,8.5,8.1,14.2c0.3,5.8-2.1,11.7-6,16.1
			c-0.5,0.6-1.1,1.1-1.7,1.4c-0.6,0.2-1.2,0.2-1.8,0.1c-3.1-0.4-5.3-3-7.7-5c-2.4-2-5.8-3.6-8.6-1.8c-2.2,1.4-2.8,4.4-2.3,6.9
			c0.5,2.5,1.8,4.6,2.8,6.9c2.7,6.4,2.4,14.1-0.7,20.5c-0.7,1.4-1.8,2.9-3.3,3.1c-2.3,0.3-3.6-2.3-4.2-4.5c-2.6-9.3-4.1-19-4.4-28.7
			c-0.1-4.1-0.8-9.3-4.7-10.3c-3.3-0.9-6.7,2.3-7.6,5.7c-0.8,3.4,0.2,6.9,1.1,10.3c1.1,4.2,2.2,8.5,1.9,12.9
			c-0.2,4.4-1.9,9-5.3,11.9c-3.4,2.9-8.6,3.8-12.1,1.2c-4.8-3.5-4-11.1-1.8-16.9c2.2-5.8,5.6-11.7,4.5-17.7
			c-0.3-1.5-1.1-3.2-2.6-3.4c-0.5-0.1-1,0-1.6,0.2c-5.7,1.7-9.1,7.6-11.3,13.2c-2.2,5.6-4.3,11.7-9.1,15.3c-6,4.5-15.4,2.9-19.1-3.3
			c-3.7-6.2-1-15.6,5.6-19.2c3.3-1.8,7-2.2,10.4-3.7c3.1-1.4,5.9-3.8,7.7-6.8c0.4-0.6,0.7-1.2,0.6-1.9c0-0.5-0.3-1-0.6-1.4
			c-2.5-4-6.4-7.2-10.8-8.9c-2.1-0.8-4.3-1.4-6.3-2.4c-4.1-2.3-6.6-7.3-6-12.1c0.3-2.9,1.8-5.9,4.4-7.4
			C427.7,56.6,431,57.8,431,57.8z"/>
	</g>
</g>
<path class="st9" d="M78,256.8c2.9,2.8-4.1,4.2-8,4.3c-2.6,0-5.1-0.9-7.7-1.2c-3.3-0.4-6.7,0.2-9.7,1.7c-1.9,1-3.8,2.8-3.3,4.9
	c0.2,1.1,1.1,1.9,1.9,2.6c3.6,3.1,7.9,5.2,12.5,6.2c2.6,0.6,39.6,15.5,46.3,13.3c0.6-0.2,1.2-0.6,1.5-1c8.7-9,22.1-27.6,26.3-44.5
	c1.1-4.6,1.7-10-1.5-13.5c-3.2-3.4-9-3.2-13.1-0.8c-4.1,2.3-7,6.3-10.1,9.8c-3.1,3.6-6.7,7.1-11.3,8.1c5.9-13.7,11.7-27.4,17.6-41.1
	c2.4-5.7,4.9-11.5,5.1-17.6c0.1-2.6-0.3-5.4-2.1-7.3c-2.7-2.9-7.8-2.3-10.9,0.1c-3.1,2.5-4.8,6.3-6.3,10
	c-6.3,15.1-11.9,30.4-16.9,46c-1.2,0.7-2.3-1.1-2.5-2.4c-3.1-17.5,4.6-35,6.5-52.7c0.6-5.2,0-11.5-4.5-14
	c-4.8-2.6-10.9,0.9-13.8,5.5c-6.7,10.7-2.4,24.9-5.7,37.1c-5.9-8.4-9.3-18.7-9.5-29c-0.1-4.8,0.4-9.8-1-14.3
	c-1.5-4.6-5.8-8.8-10.5-8.1c-3.5,0.5-6.2,3.6-7.3,6.9c-1.1,3.3-1,7-0.9,10.5c0.1,3.8,0.2,7.7,1,11.5c1.1,5,3.4,9.7,6,14.2
	c1.2,2.1,2.4,4.2,4.1,5.9c2,2.1,4.4,3.7,6.6,5.5c3.6,3.1,6.6,6.9,8.6,11.2c0.8,1.7,1.5,3.7,1.2,5.6c-0.3,1.9-2.1,3.6-4,3.3
	c-1.1-0.2-2-0.9-2.8-1.7c-3.2-2.9-6.3-5.7-9.5-8.6c-1.1-1-2.3-2-3.7-2.5c-4.2-1.3-8.2,3.1-9.2,7.4c-1.3,6,1,12.5,5.7,16.4
	C52.2,252,69.4,248.4,78,256.8z"/>
</svg>
