<svg width="686" height="819" viewBox="0 0 686 819" fill="none" xmlns="http://www.w3.org/2000/svg">
<g clip-path="url(#clip0)">
<path d="M109.89 224.201C112.319 223.83 114.566 222.336 115.826 220.227C117.166 217.997 117.421 215.239 118.659 212.961C120.941 208.745 126.764 206.916 131.052 209.115C135.34 211.313 137.318 217.184 135.205 221.484C133.923 224.076 131.516 225.891 129.79 228.208C127.521 231.248 126.526 235.04 125.571 238.718C124.442 243.058 123.495 248.234 126.487 251.621C121.379 253.022 116.259 254.43 111.157 255.842C108.913 256.455 106.657 257.075 104.338 257.245C102.244 257.391 100.133 257.168 98.0586 256.879C94.7693 256.41 91.449 255.732 88.5295 254.109C85.61 252.486 83.1466 249.78 82.4976 246.497C81.489 241.342 86.0469 235.918 91.2596 236.05C93.2543 236.097 95.2294 236.839 97.2157 236.664C99.202 236.488 101.321 234.825 100.879 232.864C100.487 231.117 98.4421 230.385 96.7204 229.953C92.5947 228.92 88.2588 227.887 84.1548 228.921C82.2117 229.405 80.4085 230.34 78.5866 231.164C73.1413 233.595 67.3299 235.053 61.541 236.498C60.1612 236.839 58.77 237.187 57.3488 237.067C55.5521 236.92 53.8764 236.021 52.5265 234.827C49.7627 232.355 48.3046 228.477 48.752 224.804C49.1994 221.131 51.5647 217.762 54.8397 216.098C58.6009 214.185 63.057 214.541 67.2972 214.628C71.5261 214.721 76.1567 214.339 79.2054 211.426C73.8149 206.615 66.4571 204.094 59.306 204.611C49.5736 205.312 40.8216 211.276 31.0806 211.937C28.7836 212.094 26.2209 211.844 24.5968 210.201C23.167 208.765 22.7867 206.572 22.856 204.559C23.0778 197.373 28.4851 190.715 35.4465 189.064C43.2517 187.183 51.2845 191.211 59.3528 191.425C60.7568 188.004 58.4256 183.992 59.3931 180.413C60.5577 176.083 65.7129 174.503 70.0835 173.619C70.7584 173.487 71.4737 173.348 72.1308 173.575C72.9728 173.863 73.5089 174.662 73.983 175.405C75.3265 177.498 76.7028 179.647 77.2099 182.087C77.5715 183.805 77.4872 185.584 77.5596 187.349C77.9161 195.354 81.91 203.156 88.1932 208.134C90.1252 209.659 93.0315 210.895 94.8544 209.266C96.6115 207.705 95.8715 204.733 94.5018 202.776C93.1386 200.831 91.2479 199.039 90.9501 196.677C90.5321 193.351 93.4935 190.625 96.44 189.121C99.6699 187.484 103.553 186.562 106.925 187.954C109.89 189.187 111.932 191.969 113.418 194.83C114.605 197.119 115.573 199.733 114.967 202.222C114.57 203.848 113.555 205.238 112.659 206.651C110.346 210.293 108.735 214.396 107.94 218.664C107.682 220.194 109.89 224.201 109.89 224.201Z" fill="#A9BFDE"/>
</g>
<path d="M427.134 104.473C429.356 106.003 432.291 107.053 434.719 105.865C435.991 105.239 436.929 104.089 438.072 103.227C442.006 100.329 448.472 102.123 450.324 106.66C452.177 111.196 448.825 117.023 443.984 117.703C439.24 118.377 434.298 114.847 429.875 116.675C424.071 119.074 423.157 129.144 416.889 129.374C414.693 129.455 412.723 128.118 411.001 126.767C400.442 118.455 392.588 106.745 388.93 93.8026C387.868 90.0303 387.471 85.213 390.66 82.9194C393.045 81.2084 396.489 81.8388 398.828 83.5958C401.168 85.3527 402.64 87.997 404.043 90.5565C405.527 93.2637 407.011 95.9709 408.495 98.678C410.492 97.2126 410.108 94.1822 409.493 91.7802C406.753 81.1726 403.483 70.6955 399.675 60.4159C398.391 56.9668 397.042 53.3996 397.245 49.729C397.449 46.0583 399.688 42.1947 403.28 41.3879C407.518 40.4396 411.584 44.0997 413.072 48.1834C414.559 52.2671 414.289 56.7527 414.874 61.058C415.459 65.3633 417.285 69.9915 421.234 71.7755C427.384 53.3819 412.387 32.3038 420 14.4414C421.615 10.661 424.888 6.94179 429 7.13394C432.531 7.29276 435.388 10.4503 436.258 13.8894C437.129 17.3284 436.428 20.9502 435.518 24.3723C433.528 31.8335 430.706 40.6092 435.581 46.6028C439.389 46.1463 442.712 42.9927 443.394 39.2116C444.073 35.4096 442.771 30.3913 446.121 28.4472C447.012 27.9242 448.072 27.7928 449.11 27.7197C453.799 27.3928 458.93 28.4153 462.011 31.9651C466.435 37.0445 464.63 45.5668 459.559 50.0095C456.244 52.9122 451.964 54.3996 448.243 56.7485C442.453 60.4028 438.189 65.9866 434.275 71.5921C433.39 72.8515 432.499 74.1987 432.387 75.7159C432.123 79.2894 436.537 81.7787 440.014 80.874C443.494 79.9903 445.975 76.9711 447.937 73.9614C449.757 71.1839 451.849 67.9333 455.157 67.591C458.634 67.2177 461.638 70.5866 462.04 74.0692C462.441 77.5517 460.908 80.9484 459.13 83.9566C457.429 86.8529 455.162 89.7998 451.893 90.5359C449.875 90.9968 447.774 90.5403 445.722 90.2267C439.727 89.3426 433.53 89.8405 427.768 91.7002C425.843 92.3173 423.844 93.176 422.697 94.8417C421.55 96.5074 421.688 99.2039 423.463 100.187C423.387 100.19 424.912 102.944 427.134 104.473Z" fill="#5085A7"/>
<path d="M126.903 396.862C133.429 392.535 147.698 392.241 146.995 389.292C146.552 387.432 137.525 379.339 137.714 374.409C132.07 362.144 142.145 349.725 144.224 342.158C143.98 341.282 143.551 340.334 142.663 339.999C141.544 339.579 140.386 340.34 139.234 340.622C136.626 341.256 133.713 338.782 134.085 336.247C130.378 333.28 124.282 336.057 122.593 340.296C120.904 344.535 122.215 349.313 123.597 353.709C124.972 358.104 126.41 362.817 124.942 367.133C124.709 367.825 124.363 368.532 123.711 368.909C122.563 369.568 121.061 368.915 119.965 368.139C116.78 365.898 114.465 362.569 113.558 358.925C112.853 356.116 112.976 353.202 113.098 350.329C113.608 338.267 114.125 326.206 114.636 314.138C114.716 312.278 114.764 310.286 113.721 308.684C112.905 307.416 111.519 306.579 110.124 305.904C106.105 303.951 101.236 302.975 97.1688 304.697C91.5971 307.052 89.4161 313.742 90.3454 319.511C91.2747 325.281 94.5726 330.458 97.3637 335.694C101.614 343.664 104.813 352.124 106.863 360.813C98.3812 352.885 87.5778 346.873 81.5023 337.181C74.9776 326.77 75.0828 314.019 75.3693 302.012C75.4331 299.448 75.0922 296.265 72.5805 295.268C70.7468 294.542 68.5847 295.512 67.4359 297.017C66.2872 298.523 65.8998 300.423 65.5526 302.267C61.9327 302.098 58.3083 302.247 54.7359 302.707C52.968 302.937 50.9777 303.396 50.1673 304.895C49.0398 306.967 50.9051 309.362 52.6037 311.11C63.1474 321.977 72.0239 334.298 78.857 347.539C64.8416 340.32 50.5336 333.637 35.9727 327.509C34.7132 326.978 33.173 326.475 32.0661 327.222C30.7302 328.128 31.1088 330.14 31.9727 331.492C32.8365 332.843 34.0988 334.123 34.1535 335.692C34.2446 338.137 31.5079 339.642 29.163 340.604C34.4203 348.418 45.4058 350.071 54.9242 351.952C69.6222 354.862 83.85 360.127 96.8052 367.452C98.0422 368.153 99.4573 369.435 98.7865 370.616C98.2881 371.5 96.9932 371.543 95.9336 371.463C88.7538 370.915 81.6126 369.701 74.6549 367.834C65.743 365.446 56.5985 361.964 47.5734 363.599C45.7201 363.936 43.6577 364.714 43.1239 366.427C42.3218 369.006 45.5061 371.143 48.2649 371.874C51.0236 372.605 54.3854 373.287 55.3854 375.833C55.9784 377.336 55.4792 379.026 55.8663 380.588C56.5871 383.481 59.9769 384.979 63.0213 385.689C81.3919 389.948 100.592 380.98 119.147 384.394C117.041 387.073 113.133 387.667 109.614 388.066C101.951 388.927 94.2959 389.784 86.6336 390.645C85.046 390.824 83.1967 391.174 82.5592 392.557C81.0691 395.762 87.645 397.42 88.4178 400.878C89.0261 403.602 85.6681 406.139 86.5826 408.792C87.3629 411.04 90.5104 411.465 92.9822 411.278C107.638 410.139 117.033 403.407 126.903 396.862Z" fill="#E67D0A"/>
<path d="M258.582 729.069C258.125 727.792 256.439 727.213 255.258 727.55C254.08 727.91 253.306 728.9 252.586 729.862C250.883 732.118 249.171 734.384 247.469 736.641C246.057 738.51 244.215 740.545 241.674 740.075C238.604 739.507 236.838 735.444 237.505 732.584C238.173 729.724 240.408 727.754 242.251 725.598C244.084 723.452 245.662 720.621 244.754 717.579C243.859 714.571 240.712 711.937 240.895 708.983C252.913 712.407 263.779 704.383 275.903 706.231C278.55 706.643 281.757 708.086 282.323 710.724C282.853 713.181 280.734 714.939 278.665 715.947C276.534 716.995 274.271 717.788 271.888 718.317C270.037 718.722 267.879 719.169 267.314 720.963C266.787 722.671 268.168 724.831 269.939 725.782C271.71 726.733 273.694 726.748 275.516 726.54C279.939 726.019 284.032 724.287 287.259 721.566C289.323 719.816 291.056 717.673 293.317 716.159C295.883 714.46 299.062 713.618 301.408 711.657C303.39 709.988 305.033 707.406 307.859 707.567C310.508 707.713 312.86 710.516 313.328 713.179C313.809 715.854 312.867 718.337 311.725 720.539C310.507 722.889 308.961 725.158 306.611 726.377C304.536 727.44 302.034 727.604 299.707 728.149C295.936 729.054 292.573 731.044 290.13 733.872C290.315 735.903 292.992 736.96 295.006 737.066C304.041 737.57 311.019 731.749 318.429 727.735C322.994 725.265 327.943 723.425 333.155 722.259C335.462 721.735 338.337 721.534 340.216 723.413C342.579 725.796 341.461 729.395 340.022 731.894C338.269 734.9 336.096 737.916 332.652 738.902C330.562 739.499 328.176 739.307 326.177 740.077C324.179 740.848 322.678 743.264 323.984 745.33C325.317 747.442 328.241 747.433 330.474 747.102C335.807 746.323 341.162 745.545 346.494 744.766C350.469 744.187 354.917 743.713 358.616 746.182C359.154 746.535 359.653 746.952 360.017 747.479C361.149 749.165 360.317 751.226 359.064 752.454C354.894 756.529 347.536 755.672 342.204 758.258C341.201 758.731 340.234 759.385 339.785 760.412C338.52 763.291 341.895 766.829 345.054 768.512C348.214 770.195 352.034 771.698 353.361 774.973C354.492 777.744 353.111 780.691 350.786 781.956C348.461 783.22 345.451 783.123 342.601 782.528C339.785 781.948 336.837 780.825 334.722 778.628C332.328 776.132 331.414 772.757 329.929 769.713C327.239 764.213 322.604 759.742 318.093 755.436C316.006 753.452 313.631 751.323 310.967 751.12C310.187 751.057 309.296 751.274 309.099 752C308.989 752.424 309.15 752.913 309.32 753.37C310.506 756.423 312.421 759.302 314.839 761.678C315.68 762.499 316.623 763.339 316.974 764.408C317.224 765.171 317.13 765.939 317.035 766.684C316.885 767.846 316.734 769.009 316.572 770.159C316.408 771.431 316.145 772.85 315.05 773.415C314.348 773.78 313.456 773.709 312.624 773.553C309.058 772.879 305.569 770.683 303.252 767.628C298.844 761.846 298.752 753.651 293.311 748.806C292.154 747.771 290.469 746.927 289.303 747.587C288.603 747.974 288.293 748.813 288.262 749.663C288.177 752.326 290.442 754.879 290.947 757.578C291.591 761.053 289.258 763.868 286.806 765.887C285.538 766.937 284.101 767.941 282.333 767.998C278.962 768.093 275.835 764.596 274.974 761.193C274.114 757.789 274.844 754.458 275.278 751.18C275.713 747.903 275.785 744.242 273.854 741.162C273.066 739.903 271.912 738.769 270.545 738.304C268.05 737.451 265.679 739.099 264.803 741.3C263.927 743.501 264.159 746.111 264.262 748.634C264.429 752.514 263.954 756.94 260.682 758.55C257.518 760.124 252.802 757.951 250.782 754.454C248.762 750.958 249.197 746.716 251.228 743.866C252.911 741.509 255.504 740 257.402 737.837C259.322 735.676 260.484 732.346 258.854 729.423" fill="#E29387"/>
<path d="M361.828 93.7107C363.354 87.8822 360.99 81.6835 357.28 76.9494C353.57 72.2152 348.613 68.6146 344.008 64.7114C341.833 62.8668 339.552 60.5415 339.745 57.7131C339.982 54.2147 344.307 51.963 347.758 52.8487C351.208 53.7345 353.63 56.8286 354.886 60.0942C353.627 53.5658 350.905 47.3254 346.969 41.9456C345.601 40.0745 344.07 38.2916 342.207 36.8876C339.935 35.1769 337.192 34.0531 335.187 32.0478C333.179 30.0435 332.145 26.6108 333.995 24.4199C335.274 22.9063 337.45 22.5128 339.44 22.3737C341.503 22.2261 343.833 22.3376 345.23 23.8182C345.585 24.1915 345.898 24.6652 346.403 24.7901C347.193 24.9837 347.932 24.1387 347.953 23.3376C347.974 22.5365 347.529 21.8119 347.13 21.116C345.197 17.7494 344.275 13.0862 347.036 10.276C349.355 7.91869 353.454 8.03212 356.211 9.82105C358.968 11.61 360.598 14.6562 361.675 17.7243C364.178 24.867 364.25 32.5982 364.589 40.1648C364.682 42.2437 364.821 44.3958 365.82 46.221C366.356 47.2 367.246 48.11 368.379 48.2079C369.049 48.2664 369.929 48.2164 370.287 47.652C371.067 46.4059 370.611 44.1492 370.569 41.7071C370.527 39.265 371.999 35.1498 374.22 34.0192C377.225 32.4892 379.708 32.2886 381.808 34.0677C383.909 35.8467 384.003 38.8397 384.844 41.4394C385.444 43.2934 387.1 63.6659 382.556 70.8311C377.802 78.3236 369.91 93.177 361.733 93.8811" fill="#FAD2C9"/>
<path d="M435.919 266.762C435.792 268.112 433.948 268.674 433.181 267.612C420.069 249.346 392.772 241.86 382.998 221.354C380.872 216.901 379.723 211.577 382.03 206.742C383.464 203.738 386.378 201.359 389.716 200.555C394.169 199.482 396.412 201.758 398.521 203.951C406.042 211.753 413.559 219.549 421.087 227.347C426.443 224.367 424.782 217 422.054 212.282C414.611 199.376 405.161 187.627 394.065 177.475C389.712 173.5 384.985 169.604 383.551 163.654C382.63 159.832 383.612 155.515 386.793 152.557C394.05 145.809 405.435 151.849 411.481 158.572C417.74 165.53 423.217 173.134 427.808 181.241C428.174 165.35 428.094 148.143 417.823 136.511C411.416 129.248 401.558 124.92 396.499 116.701C390.94 107.664 392.48 94.0203 404.289 87.1797C406.223 86.0634 408.352 85.2513 410.523 84.8744C421.638 82.932 428.478 90.7618 431.025 99.232C432.959 105.65 432.922 112.593 433.789 119.312C435.237 130.525 439.27 141.199 445.535 150.415C453.299 142.66 458.277 132.517 459.313 122.345C459.955 116.004 459.255 109.241 465.895 104.218C470.115 101.025 475.717 100.139 480.433 101.669C491.27 105.176 493.914 117.086 490.761 127.163C488.155 135.494 482.268 142.812 476.115 149.552C470.299 155.918 464.112 161.989 457.589 167.727C453.118 171.659 448.333 175.628 446.851 181.424C446.076 184.447 446.754 187.619 448.99 189.602C454.859 194.812 464.528 188.22 470.737 182.417C477.12 176.455 488.522 170.877 492.578 178.222C493.56 180.002 493.673 182.165 493.19 184.254C489.572 199.923 473.413 213.168 456.641 213.937C453.385 214.089 450.133 215.703 448.567 218.528C444.403 226.033 455.31 228.735 462.037 225.797C469.055 222.733 474.833 217.145 482.776 215.962C484.652 215.687 486.569 215.78 488.275 216.351C497.186 219.303 494.908 229.921 489.099 235.884C485.939 239.127 481.905 241.618 477.571 242.996C471.359 244.974 464.868 244.656 458.478 245.087C452.091 245.525 445.172 246.992 440.51 251.52C437.534 254.436 436.371 261.842 435.919 266.762Z" fill="#EA9188"/>
<path d="M171.856 656.738C173.053 662.533 176.227 668.509 181.364 670.967C186.501 673.424 193.328 670.467 193.456 664.677C193.515 662.364 192.566 660.059 191.556 657.908C183.529 640.708 169.966 626.101 153.944 617.443C149.52 615.041 143.713 613.279 140.549 616.763C137.403 620.22 139.268 626.709 142.84 630.426C146.4 634.149 151.133 636.093 155.285 638.968C156.52 639.828 157.803 640.873 158.28 642.349C158.977 644.467 157.657 646.689 155.831 647.468C154.004 648.247 151.842 647.916 149.813 647.359C136.002 643.59 124.776 630.595 110.916 627.185C107.263 626.284 102.641 626.653 101.47 630.256C99.9778 634.814 105.209 639.155 109.526 641.472C116.689 645.331 123.871 649.197 131.034 653.057C133.546 654.402 136.592 657.336 135.15 659.655C134.772 660.253 134.145 660.61 133.522 660.912C126.758 664.083 118.379 661.707 111.246 657.938C104.113 654.169 97.4928 649.03 90.0524 646.209C84.0764 643.936 77.6899 643.26 71.7091 644.256C70.321 644.494 68.87 644.851 67.9416 645.925C66.8095 647.208 66.6908 649.253 67.0937 651.101C68.6871 658.396 76.6305 662.259 83.4772 663.559C90.3168 664.844 97.8435 665.163 103.297 670.18C96.9405 674.511 88.6139 674.849 80.7379 673.515C72.8619 672.181 65.153 669.322 57.3017 667.642C53.5908 666.841 49.006 666.734 47.3336 670.12C46.804 671.182 46.6798 672.458 46.8273 673.716C47.603 680.237 54.9712 683.798 61.0469 684.475C67.1227 685.151 73.8142 684.722 78.787 688.985C76.1591 697.216 63.7025 699.092 63.8497 708.059C63.9671 714.935 72.4116 719.472 78.4738 717.785C84.5236 716.104 88.6217 710.649 92.7351 705.8C100.237 696.965 108.976 689.357 118.651 683.272C120.757 681.945 124.305 681.214 125.315 683.822C125.673 684.762 125.477 685.776 125.172 686.669C123.625 691.028 119.519 693.432 116.737 696.931C113.947 700.416 113.039 706.87 116.98 709.607C118.888 710.929 121.267 710.833 123.287 710.218C129.604 708.33 133.762 702.264 136.552 695.987C139.341 689.71 141.188 682.81 144.941 677.197C146.543 674.796 149.807 672.63 152.031 674.843C154.068 676.871 152.844 680.221 151.583 682.589C150.206 685.156 148.93 687.918 148.933 690.989C148.936 694.06 150.604 697.525 153.386 698.609C154.786 699.155 156.283 699.037 157.622 698.613C164.141 696.482 166.218 687.936 166.23 680.432C166.242 672.928 165.202 664.769 168.743 658.651L171.856 656.738Z" fill="#3A5751"/>
<path d="M551.408 391.158C560.207 384.669 581.014 375.743 588.321 382.52C591.756 385.705 593.809 389.946 596.64 393.621C599.47 397.296 603.576 400.581 608.644 400.532C612.187 400.497 615.626 398.83 618.691 396.939C620.256 395.972 621.83 394.885 622.81 393.404C625.194 389.806 623.197 385.206 619.857 382.812C616.52 380.423 612.171 379.53 608.236 378.011C601.683 375.479 596.124 371.079 592.453 365.509C591.496 364.06 590.788 361.908 592.282 360.693C592.699 360.353 593.219 360.159 593.738 359.999C599.607 358.152 605.753 359.511 611.45 360.966C617.147 362.42 623.176 363.968 629.126 362.46C635.083 360.949 640.578 355.078 638.886 349.846C637.5 345.557 632.173 343.708 627.261 343.416C613.703 342.604 599.686 349.598 586.364 347.651C596.92 340.302 608.829 334.71 621.246 331.27C625.715 330.03 630.369 329.023 634.293 326.543C638.21 324.066 641.255 319.619 640.221 315.591C639.793 313.938 638.737 312.526 637.678 311.176C635.625 308.558 633.172 305.829 629.616 305.365C624.662 304.716 620.111 308.625 616.408 312.113C608.713 319.353 600.625 326.24 592.192 332.726C589.308 334.94 584.746 337.066 582.612 334.559C591.454 322.941 605.611 315.688 615.823 305.03C620.2 300.462 623.913 293.668 620.464 289.037C616.952 284.317 608.254 285.77 603.416 290.091C598.576 294.406 596.337 300.477 593.39 306.001C590.161 312.05 585.889 317.691 580.805 322.618C580.3 323.106 579.734 323.613 579.04 323.741C577.715 323.982 576.722 322.61 576.907 321.376C577.099 320.139 578.05 319.08 578.941 318.095C586.633 309.575 593.093 300.149 598.301 290.257C600.57 285.945 602.654 281.245 601.949 276.711C601.244 272.178 596.672 268.163 591.731 269.405C586.588 270.695 584.235 276.298 582.776 281.045C579.534 291.595 576.289 302.139 573.047 312.689C570.67 311.598 571.063 308.363 571.614 305.836C573.798 295.839 573.101 284.598 565.59 277.931C564.098 276.608 562.007 275.452 559.92 276.137C557.35 276.979 556.479 279.96 556.241 282.418C555.209 293.45 558.345 304.112 561.943 314.312C565.542 324.511 570.944 336.463 571.955 347.342C573.209 360.774 568.09 371.146 559.294 376.264C555.722 378.343 541.074 384.476 543.393 385.122L551.408 391.158Z" fill="#E67D0A"/>
<path d="M478.219 656.087C483.241 666.793 488.24 677.494 493.263 688.2C495.883 693.809 499.324 700.088 505.294 701.376C511.332 702.679 517.175 697.761 519.052 691.889C520.93 686.018 519.816 679.566 518.428 673.49C513.936 653.756 506.767 634.602 497.202 616.693C486.214 617.847 479.296 628.687 469.816 634.216C457.91 641.15 442.654 639.294 429.773 644.233C413.56 650.455 403.464 666.294 394.433 681.202C387.677 692.351 380.922 703.5 374.175 714.663C371.599 718.874 368.974 723.276 368.58 728.239C368.072 734.503 371.559 741.029 377.08 744.133C382.592 747.222 389.809 746.709 394.66 742.892C398.846 739.589 401.05 734.394 403.083 729.41C410.756 710.681 418.425 691.976 426.099 673.247C427.895 668.872 432.229 663.613 436.213 666.335C439.367 668.49 438.27 673.319 436.84 676.783C427.772 698.912 420.016 721.61 413.636 744.736C412.01 750.641 410.467 756.789 411.593 762.877C412.72 768.965 417.304 774.934 423.376 775.582C429.817 776.267 435.41 770.76 437.426 764.6C439.443 758.44 438.854 751.705 438.852 745.16C438.843 727.704 443.265 710.384 451.585 695.328C466.325 712.274 453.737 740.377 465.027 759.811C466.788 762.835 469.652 765.813 473.073 765.638C477.449 765.395 479.698 760.329 480.378 755.95C482.868 739.85 476.798 723.618 472.543 707.724C468.288 691.831 466.17 673.615 475.346 660.373L478.219 656.087Z" fill="#5085A7"/>
<path d="M466.598 247.034C465.679 247.63 465.966 249.162 467.014 249.314C485.01 251.879 500.586 268.642 518.94 267.977C522.926 267.835 527.171 266.666 529.774 263.205C531.39 261.053 532.005 258.074 531.333 255.381C530.437 251.789 527.966 251.033 525.605 250.342C517.2 247.87 508.801 245.398 500.396 242.92C500.529 237.966 506.429 236.401 510.831 236.592C522.865 237.099 534.82 239.476 546.247 243.631C550.725 245.264 555.286 247.194 560.086 245.996C563.17 245.226 565.896 242.908 566.827 239.521C568.948 231.796 560.36 225.896 553.28 224.078C545.953 222.195 538.454 221.114 530.926 220.856C542.179 214.649 554.541 208.27 566.719 211.28C574.322 213.154 581.111 218.601 588.894 219.152C597.45 219.756 606.652 213.548 607.138 202.526C607.214 200.722 607 198.893 606.458 197.196C603.692 188.503 595.522 186.53 588.499 187.873C583.175 188.888 578.213 191.511 573.073 193.403C564.495 196.56 555.336 197.663 546.388 196.62C549.041 188.155 554.449 180.792 561.352 176.245C565.656 173.412 570.765 171.385 571.881 164.747C572.591 160.527 571.13 156.181 568.27 153.373C561.702 146.919 552.177 149.478 546.135 155.508C541.138 160.493 538.096 167.449 535.567 174.38C533.18 180.93 531.143 187.635 529.471 194.456C528.326 199.132 527.271 204.046 523.671 207.277C521.794 208.962 519.268 209.663 517.01 208.802C511.08 206.545 512.188 197.149 514.024 190.529C515.91 183.724 515.642 173.465 508.861 173.306C507.218 173.268 505.626 173.996 504.308 175.124C494.433 183.578 490.984 200.114 496.707 212.422C497.816 214.812 497.876 217.747 496.437 219.926C492.615 225.718 486.599 218.912 486.189 212.991C485.759 206.815 487.603 200.584 485.479 194.448C484.975 193.001 484.191 191.662 483.143 190.653C477.694 185.371 470.937 190.975 468.836 197.37C467.693 200.847 467.418 204.67 468.051 208.292C468.957 213.484 471.613 218.017 473.695 222.758C475.77 227.499 477.306 233.007 475.806 238.042C474.829 241.266 469.956 244.87 466.598 247.034Z" fill="#3A5751"/>
<path d="M132.576 317.387C134.375 311.67 133.875 305.549 133.345 299.614C132.906 294.62 132.451 289.587 131.062 284.774C129.356 278.871 126.283 273.467 122.908 268.348C121.523 266.252 119.67 263.972 117.137 264.03C115.35 264.081 113.783 265.37 112.898 266.927C112.013 268.483 111.697 270.277 111.402 272.031C110.594 276.681 109.799 281.333 108.99 285.983C104.32 282.608 99.7301 278.91 96.5693 274.1C90.3572 264.663 90.304 252.079 83.8064 242.827C83.21 241.98 82.5579 241.161 81.7075 240.576C78.972 238.691 74.8671 239.927 72.8638 242.62C70.8748 245.314 70.6721 248.965 71.4424 252.204C74.0648 263.18 86.3212 270.599 86.6367 281.906C71.9077 273.934 64.2096 257.677 54.0923 244.38C51.7771 241.33 49.1645 238.309 45.6434 236.761C43.0919 235.648 39.5889 235.637 37.9971 237.952C36.9402 239.483 37.0915 241.514 37.3627 243.343C38.0265 247.845 39.2045 252.334 41.5078 256.237C43.9787 260.42 47.6408 263.741 51.0634 267.188C57.2337 273.405 62.8107 280.221 67.678 287.495C57.5581 284.794 48.1247 279.675 40.3801 272.686C38.4874 270.976 36.5648 269.087 34.0705 268.486C31.3294 267.827 28.2181 269.028 26.6015 271.361C24.9849 273.694 24.9822 277.009 26.5827 279.311C29.0995 282.931 34.1812 283.321 38.5215 284.229C42.6698 285.102 46.601 286.739 50.5036 288.372C57.3083 291.214 64.107 294.047 70.9117 296.888C71.8309 297.271 72.7967 297.684 73.4105 298.468C74.0326 299.246 74.1677 300.507 73.4214 301.193C73.0265 301.559 72.4715 301.689 71.9414 301.801C68.2083 302.588 63.9863 303.092 60.9058 300.894C59.6832 300.027 58.6088 298.737 57.1081 298.604C55.3824 298.46 53.8617 300.055 53.537 301.767C53.2062 303.471 53.7862 305.2 54.4627 306.782C55.8421 309.964 57.7705 313.009 60.6044 315.01C63.4383 317.012 67.2804 317.832 70.5108 316.482C72.7372 315.553 74.4456 313.745 76.3755 312.291C78.3054 310.836 80.7911 309.705 83.0662 310.441C84.1232 310.786 85.2888 311.505 86.2524 310.924C87.1994 310.355 87.1375 309.002 86.9585 307.924C86.5087 305.243 86.0731 302.565 85.6233 299.884C90.4964 299.885 93.863 304.507 96.3858 308.639C96.9024 309.482 97.4422 310.408 97.379 311.399C97.305 312.55 96.4379 313.488 95.626 314.311C93.7918 316.174 91.8431 318.159 91.2551 320.694C90.6732 323.238 92.1798 326.402 94.778 326.536C96.433 326.619 97.8988 325.505 99.2536 324.536C108.429 317.94 120.4 315.377 131.399 317.659L132.576 317.387Z" fill="#FAD2C9"/>
<path d="M234.532 209.313C231.507 199.358 228.5 189.409 225.475 179.453C223.9 174.239 221.694 168.338 216.657 166.464C211.563 164.569 205.856 168.116 203.481 172.993C201.107 177.869 201.264 183.628 201.708 189.094C203.134 206.845 206.965 224.428 213.039 241.228C222.753 241.607 230.143 233.038 239.094 229.417C250.336 224.878 263.388 228.416 275.227 225.737C290.13 222.36 300.916 209.839 310.658 197.994C317.946 189.136 325.233 180.277 332.514 171.406C335.287 168.063 338.128 164.561 339.096 160.288C340.327 154.897 338.112 148.775 333.695 145.377C329.284 141.992 322.935 141.53 318.23 144.243C314.168 146.593 311.595 150.839 309.197 154.923C300.156 170.266 291.122 185.59 282.081 200.933C279.966 204.517 275.53 208.551 272.403 205.679C269.927 203.405 271.491 199.338 273.173 196.501C283.856 178.372 293.468 159.583 301.937 140.247C304.096 135.31 306.215 130.15 306.001 124.707C305.786 119.263 302.546 113.488 297.34 112.159C291.817 110.752 286.253 114.843 283.721 119.953C281.19 125.063 280.853 131.003 280.031 136.702C277.841 151.905 271.808 166.431 262.667 178.495C251.965 161.881 266.467 138.993 259.082 120.648C257.93 117.792 255.811 114.839 252.809 114.56C248.968 114.221 246.371 118.349 245.228 122.077C241.032 135.783 244.274 150.683 245.978 165.06C247.681 179.437 247.232 195.567 237.573 205.943L234.532 209.313Z" fill="#F7D29A"/>
<g clip-path="url(#clip1)">
<path d="M146.663 525.92C150.968 519.879 152.721 512.483 154.369 505.294C155.764 499.247 157.155 493.149 157.361 486.952C157.612 479.35 156.063 471.813 154.049 464.495C153.221 461.499 151.913 458.105 148.908 457.204C146.786 456.581 144.448 457.498 142.811 458.992C141.173 460.486 140.114 462.477 139.096 464.428C136.365 469.592 133.649 474.764 130.918 479.928C126.711 474.168 122.724 468.058 120.845 461.186C117.144 447.701 121.897 432.868 117.789 419.491C117.412 418.265 116.957 417.052 116.18 416.038C113.682 412.772 108.376 412.657 104.988 415.059C101.616 417.47 99.9797 421.69 99.6469 425.797C98.5334 439.72 110.121 453.143 106.165 466.575C91.8786 451.554 89.0387 429.471 82.2185 409.947C80.6604 405.471 78.7412 400.915 75.1887 397.746C72.6113 395.46 68.4921 394.106 65.7326 396.221C63.9024 397.62 63.3033 400.068 62.9225 402.325C61.9812 407.878 61.6497 413.613 62.8674 419.088C64.175 424.958 67.2148 430.269 69.9245 435.635C74.8084 445.315 78.7646 455.472 81.7101 465.898C70.8315 458.846 61.6865 449.209 55.245 438.019C53.6714 435.282 52.1314 432.322 49.4252 430.661C46.4507 428.836 42.3291 429.058 39.5333 431.186C36.7376 433.313 35.4656 437.215 36.4685 440.537C38.0457 445.762 43.8783 448.165 48.6396 450.895C53.1885 453.511 57.1894 456.942 61.1582 460.358C68.0807 466.306 74.9993 472.243 81.9218 478.191C82.8571 478.995 83.8363 479.85 84.2587 481.007C84.6932 482.161 84.3694 483.698 83.2284 484.22C82.6236 484.499 81.9205 484.44 81.2537 484.369C76.5581 483.867 71.3956 482.844 68.6109 479.078C67.5033 477.59 66.7323 475.66 65.0168 474.929C63.0406 474.099 60.6403 475.394 59.6027 477.286C58.5612 479.165 58.5824 481.422 58.7733 483.543C59.179 487.817 60.2838 492.138 62.8537 495.579C65.4235 499.02 69.632 501.456 73.9514 501.102C76.9276 500.861 79.6305 499.386 82.4588 498.413C85.2871 497.44 88.646 497.059 91.0422 498.796C92.1543 499.607 93.2511 500.9 94.6078 500.585C95.9404 500.277 96.3852 498.661 96.5871 497.323C97.0835 493.996 97.596 490.676 98.0924 487.349C103.828 489.215 106.022 495.943 107.411 501.772C107.696 502.962 107.977 504.259 107.523 505.402C106.996 506.728 105.616 507.501 104.345 508.159C101.473 509.649 98.42 511.24 96.7577 513.999C95.0992 516.771 95.6615 521.072 98.6686 522.224C100.585 522.955 102.737 522.205 104.702 521.583C118.028 517.33 133.099 518.894 145.172 525.79L146.663 525.92Z" fill="#A1A59F"/>
</g>
<path d="M185.127 314.431C185.972 315.13 187.347 314.397 187.178 313.351C184.232 295.414 195.557 275.53 189.422 258.22C188.092 254.458 185.705 250.759 181.623 249.313C179.085 248.416 176.059 248.722 173.692 250.17C170.533 252.102 170.552 254.686 170.6 257.145C170.761 265.905 170.92 274.658 171.074 283.42C166.309 284.778 163.047 279.617 161.909 275.361C158.787 263.728 157.472 251.609 158.012 239.463C158.228 234.701 158.703 229.772 156.121 225.551C154.463 222.84 151.434 220.933 147.924 221.061C139.918 221.352 136.863 231.313 137.25 238.613C137.649 246.168 138.865 253.646 140.875 260.905C131.581 252.03 121.791 242.147 121.012 229.626C120.523 221.812 123.685 213.702 121.878 206.112C119.89 197.768 111.21 190.849 100.549 193.689C98.8051 194.156 97.1237 194.909 95.6675 195.934C88.2028 201.178 88.7689 209.564 92.1547 215.863C94.718 220.637 98.7077 224.585 102.054 228.921C107.636 236.16 111.433 244.567 113.119 253.417C104.248 253.422 95.6032 250.469 89.1963 245.246C85.2044 241.989 81.7385 237.722 75.0712 238.646C70.8333 239.234 67.1242 241.93 65.303 245.501C61.113 253.701 66.4094 262.02 73.973 265.978C80.2256 269.251 87.7738 270.069 95.1446 270.405C102.108 270.72 109.116 270.653 116.125 270.204C120.929 269.896 125.933 269.43 130.094 271.895C132.265 273.181 133.69 275.382 133.546 277.794C133.169 284.127 123.873 285.886 117.007 286.118C109.949 286.358 100.243 289.688 102.123 296.205C102.579 297.784 103.751 299.085 105.221 300.004C116.247 306.892 133.056 305.227 143.083 296.078C145.032 294.305 147.813 293.368 150.324 294.088C156.994 295.998 152.304 303.777 146.779 305.943C141.015 308.203 134.517 308.312 129.3 312.177C128.071 313.092 127.028 314.241 126.379 315.543C122.973 322.324 130.345 327.092 137.075 327.18C140.735 327.228 144.465 326.345 147.73 324.656C152.413 322.235 155.941 318.343 159.841 314.936C163.742 311.535 168.536 308.419 173.79 308.342C177.158 308.308 182.057 311.876 185.127 314.431Z" fill="#3A5751"/>
<g filter="url(#filter0_d)">
<path fill-rule="evenodd" clip-rule="evenodd" d="M122.533 467.116C132.177 427.466 99.9721 365.313 111.817 299.945C123.661 234.578 190.745 196.105 239.337 206.716C306.16 221.309 321.671 240.931 350.64 261.068C354.05 263.439 358.617 263.001 361.808 260.343C392.319 234.928 455.712 205.242 502.25 211.969C549.251 224.096 622.27 307.342 584.764 383.426C558.065 437.585 588.704 459.15 584.959 508.869C584.847 510.356 585.091 511.921 585.655 513.301C632.396 627.697 528.73 683.91 421.14 672.968C385.936 669.387 385.695 664.125 346.128 684.755C274.41 728.78 113.673 699.758 91.0862 605.457C68.4997 511.156 112.888 506.765 122.533 467.116Z" fill="#F0D9C1"/>
</g>
<path d="M183.82 248.536C203.807 245.003 216.044 220.799 218.324 200.86C218.939 195.484 218.319 189.484 214.383 185.114C210.445 180.749 202.365 179.286 198.813 183.408C197.87 184.506 197.328 185.86 196.64 187.116C195.297 189.593 193.38 191.731 191.481 193.854C186.363 199.562 181.253 205.268 176.135 210.977C174.25 213.081 171.913 215.369 168.824 215.16C164.368 214.858 161.964 209.387 163.216 205.553C164.473 201.727 167.905 199.027 170.472 195.871C174.333 191.116 176.266 185.226 178.135 179.452C183.018 164.368 187.9 149.285 192.782 134.202C194.556 128.726 196.325 122.819 194.264 117.157C192.202 111.495 184.558 106.864 179.269 109.735C177.586 110.649 176.408 112.15 175.312 113.642C165.271 127.308 158.489 143.097 155.518 159.733C154.151 167.386 153.517 175.392 149.69 182.145C148.37 184.478 145.655 186.873 142.917 185.636C141.558 185.024 140.753 183.692 140.178 182.414C136.747 174.768 138.348 166.424 140.002 158.641C143.134 143.911 146.274 129.178 149.406 114.448C150.826 107.772 152.258 100.961 151.345 94.0441C150.432 87.1275 146.783 79.9611 140.226 76.0841C138.819 75.2545 137.2 74.5661 135.615 74.7305C133.594 74.9323 132.138 76.4381 131.082 77.9809C127.9 82.6327 126.786 88.3105 125.961 93.8883C120.832 128.559 124.763 164.954 137.338 199.259C131.875 195.228 126.21 191.43 120.377 187.897C117.343 186.059 112.016 185.075 111.643 188.249C111.536 189.177 112.01 190.117 112.549 190.959C118.611 200.447 132.504 204.043 138.566 213.531C139.602 215.152 140.234 217.48 138.682 218.497C137.871 219.03 136.741 218.97 135.703 218.928C131.178 218.735 126.68 219.263 122.462 220.48C119.838 221.236 116.92 222.86 117.209 225.444C117.417 227.315 119.248 228.736 120.933 229.903C137.444 241.29 165.549 251.995 184.01 248.539C184.001 248.529 183.772 248.541 183.82 248.536Z" fill="#E5B7A8"/>
<g clip-path="url(#clip2)">
<path d="M350.494 287.261C363.509 282.562 376.002 276.344 387.631 268.756C393.194 265.133 398.819 260.889 401.46 254.851C404.133 248.816 402.579 240.591 396.601 238.064C391.271 235.785 384.969 238.812 380.393 242.596C375.817 246.379 371.752 251.15 366.232 253.261C364.017 254.112 360.971 254.188 359.957 252.121C358.88 249.909 361.036 247.461 363 245.829C375.72 235.332 388.93 225.414 402.533 216.101C406.887 213.13 411.897 208.611 410.272 203.738C409.13 200.304 404.882 198.784 401.246 199.445C397.609 200.106 394.47 202.362 391.462 204.565C383.06 210.73 374.676 216.881 366.275 223.046C369.975 210.209 377.215 197.984 388.048 189.906C396.188 183.848 412.091 179.343 413.368 169.434C415.441 165.052 412.592 159.521 410.087 156.767C407.182 153.573 402.229 152.85 397.962 154.015C393.696 155.18 389.989 157.944 386.699 160.924C378.867 167.971 372.471 176.614 368.04 186.123C366.413 176.909 370.835 167.493 376.348 159.681C381.861 151.869 388.602 144.78 392.735 136.204C397.979 125.469 398.582 112.751 394.429 101.868C393.708 100.008 392.831 98.1375 391.311 96.8952C388.095 94.3051 382.984 95.3042 379.792 98.0877C376.6 100.871 374.963 105.009 373.761 109.035C371.258 117.424 370.159 126.189 370.544 134.835C370.835 141.289 371.287 149.112 365.853 152.853C363.762 148.262 362.912 143.161 361.247 138.379C359.613 133.6 356.877 128.872 352.342 126.63C347.807 124.388 341.176 125.707 338.938 130.382C336.402 135.677 340.384 141.395 343.774 145.996C354.372 160.373 360.896 180.551 351.644 196.435C342.108 194.56 344.988 177.419 336.06 173.695C329.763 171.07 322.589 178.27 322.636 185.129C322.683 191.988 327.384 197.723 332.148 202.525C337.921 208.348 344.351 214.013 347.209 221.732C348.429 225.016 348.93 228.766 347.578 232.095C346.212 235.407 342.614 238.023 339.139 237.383C335.941 236.793 333.868 233.89 331.54 231.656C328.654 228.901 324.812 226.924 320.739 227.103C316.665 227.282 312.515 229.938 311.387 233.845C309.707 239.666 314.692 244.905 319.21 248.723C326.14 254.561 333.039 260.397 339.969 266.236C339.983 266.252 348.008 278.489 350.494 287.261Z" fill="#A9BFDE"/>
</g>
<path d="M283.047 238.681C281.142 238.868 279.231 238.382 277.312 238.386C272.335 238.403 268.027 241.684 264.139 244.8C263.652 245.186 263.125 245.654 263.069 246.271C263.022 246.792 263.304 247.281 263.602 247.714C265.725 250.916 268.642 254.043 272.456 254.505C275.22 254.843 277.924 253.725 280.599 252.96C285.846 251.455 291.467 251.253 296.804 252.407C298.269 252.717 299.788 253.128 301.226 252.73C302.245 252.447 303.104 251.785 303.892 251.088C307.257 248.089 309.661 244.123 313.063 241.154C316.866 237.82 321.741 235.91 325.513 232.536C329.284 229.163 331.738 223.275 328.931 219.076C327.809 217.389 326.02 216.28 324.293 215.226C320.042 212.621 315.061 209.908 310.313 211.449C306.268 212.759 303.719 216.845 302.518 220.932C301.959 222.837 301.6 224.85 300.513 226.515C299.425 228.18 297.308 229.39 295.449 228.689C293.375 227.911 292.712 225.294 292.675 223.078C292.58 217.272 294.821 211.46 298.787 207.206C301.298 204.518 304.425 202.465 307.117 199.951C311.548 195.807 314.736 190.36 316.192 184.475C316.321 183.968 316.43 183.426 316.35 182.908C316.181 181.892 315.329 181.169 314.525 180.531C312.962 179.29 311.323 178 309.372 177.571C304.964 176.584 300.74 180.322 298.981 184.496C297.222 188.669 297.095 193.333 295.776 197.667C294.458 202 291.308 206.366 286.805 206.762C282.873 202.517 284.629 195.664 287.134 190.433C289.275 185.962 291.789 181.658 294.66 177.613C296.217 175.415 297.93 173.153 298.314 170.482C298.717 167.718 297.618 164.956 296.286 162.499C295.614 161.268 294.846 160.028 293.707 159.192C290.596 156.919 285.891 158.633 283.637 161.761C281.383 164.888 280.935 168.931 280.56 172.769C280.102 177.413 279.643 182.058 279.195 186.707C279.09 187.743 278.97 188.836 278.389 189.707C276.963 191.816 273.531 191.398 271.721 189.622C269.911 187.845 269.207 185.259 268.328 182.88C266.71 178.518 264.226 174.486 261.071 171.067C259.232 169.088 256.799 167.19 254.129 167.579C250.234 168.152 248.656 173.372 250.135 177.024C251.615 180.676 254.983 183.123 257.937 185.725C260.002 187.548 261.933 189.521 263.697 191.629C265.768 194.099 267.474 198.2 264.906 200.167C262.89 201.716 260.019 200.417 257.86 199.105C255.486 197.664 253.101 196.219 250.726 194.779C248.958 193.705 247.133 192.616 245.101 192.224C243.069 191.833 240.746 192.287 239.413 193.885C238.23 195.302 238.05 197.338 238.39 199.155C239.296 204.163 243.609 208.06 248.425 209.671C253.245 211.272 258.506 210.923 263.509 209.984C266.142 209.488 268.849 208.839 271.488 209.332C274.127 209.825 276.701 211.879 276.79 214.562C276.873 217.154 274.609 219.329 272.143 220.106C269.677 220.884 267.022 220.635 264.43 220.544C261.588 220.447 258.679 220.57 256.035 221.615C253.39 222.661 251.033 224.766 250.299 227.51C249.541 230.331 250.729 233.565 253.122 235.229C255.851 237.117 259.572 236.877 262.672 235.696C265.773 234.515 268.499 232.536 271.456 231.021C274.414 229.506 277.832 228.452 281.027 229.338C284.222 230.224 286.858 233.646 285.892 236.822C285.867 236.823 284.953 238.495 283.047 238.681Z" fill="#BF9585"/>
<path d="M569.934 469.556C563.093 466.089 548.905 467.259 549.355 464.373C549.639 462.554 557.92 453.916 557.319 449.231C561.891 436.956 550.848 426.131 548.149 419.122C548.319 418.261 548.665 417.314 549.518 416.904C550.593 416.389 551.807 416.998 552.974 417.15C555.616 417.49 558.3 414.834 557.718 412.453C561.148 409.246 567.433 411.277 569.465 415.149C571.497 419.022 570.597 423.714 569.594 428.048C568.598 432.381 567.566 437.024 569.386 440.993C569.675 441.629 570.078 442.268 570.757 442.562C571.951 443.075 573.388 442.299 574.41 441.447C577.384 438.986 579.402 435.574 579.997 432.005C580.46 429.254 580.094 426.487 579.732 423.758C578.213 412.301 576.688 400.846 575.168 389.384C574.932 387.619 574.718 385.722 575.618 384.088C576.322 382.795 577.628 381.856 578.955 381.07C582.78 378.799 587.532 377.373 591.714 378.603C597.442 380.285 600.168 386.446 599.73 392.045C599.292 397.644 596.453 402.918 594.122 408.197C590.572 416.232 588.107 424.628 586.801 433.127C594.555 424.701 604.774 417.869 609.991 408.005C615.594 397.409 614.419 385.255 613.127 373.828C612.849 371.388 612.92 368.317 615.329 367.111C617.088 366.232 619.316 366.937 620.583 368.257C621.849 369.577 622.393 371.351 622.893 373.074C626.472 372.546 630.082 372.32 633.667 372.396C635.441 372.436 637.455 372.672 638.385 374.02C639.678 375.882 638.028 378.357 636.488 380.196C626.934 391.636 619.157 404.292 613.486 417.618C626.792 409.308 640.434 401.479 654.373 394.154C655.579 393.519 657.065 392.883 658.227 393.484C659.629 394.212 659.422 396.17 658.678 397.548C657.934 398.925 656.788 400.274 656.865 401.776C656.98 404.118 659.823 405.276 662.231 405.956C657.669 413.946 646.903 416.638 637.613 419.399C623.267 423.667 609.587 430.136 597.342 438.44C596.173 439.235 594.876 440.602 595.64 441.659C596.209 442.453 597.498 442.362 598.543 442.178C605.624 440.927 612.611 439.043 619.361 436.555C628.006 433.372 636.791 429.121 645.887 429.765C647.755 429.898 649.867 430.431 650.541 432.011C651.553 434.39 648.572 436.752 645.895 437.73C643.218 438.708 639.938 439.7 639.159 442.23C638.697 443.725 639.334 445.287 639.081 446.815C638.608 449.649 635.369 451.423 632.407 452.409C614.529 458.338 594.719 451.731 576.586 456.873C578.902 459.214 582.831 459.385 586.358 459.408C594.036 459.452 601.707 459.491 609.385 459.535C610.976 459.545 612.841 459.69 613.59 460.945C615.338 463.852 608.949 466.101 608.473 469.48C608.097 472.14 611.644 474.219 610.958 476.843C610.373 479.067 607.284 479.793 604.815 479.866C590.171 480.267 580.281 474.798 569.934 469.556Z" fill="#E5B7A8"/>
<path d="M489.939 236.241C478.521 235.184 471.216 220.832 459.724 221.361C461.4 226.243 464.539 230.543 468.617 233.534C471.192 235.43 474.164 236.836 476.323 239.231C478.483 241.627 479.615 245.482 477.781 248.257C475.825 251.23 471.452 251.415 468.489 249.72C465.525 248.026 463.56 244.983 461.48 242.234C458.484 238.283 455.033 234.706 451.202 231.612C449.028 229.857 446.075 228.213 443.606 229.633C440.406 231.49 441.2 236.289 441.842 239.969C442.605 244.28 442.465 248.792 441.46 253.104C441.031 254.921 440.397 256.81 439.046 258.082C436.002 260.938 430.769 259.019 428.858 255.383C426.953 251.734 427.441 247.235 428.261 243.095C428.896 239.883 429.675 236.528 428.809 233.423C427.943 230.317 424.683 227.723 421.721 228.935C417.355 230.721 418.342 237.518 415.708 241.549C413.442 245.016 408.693 245.823 404.854 244.787C399.547 243.361 395.211 238.994 393.366 233.677C391.528 228.347 392.116 222.195 394.615 217.036C394.932 216.375 395.305 215.721 395.874 215.282C396.35 214.93 396.92 214.752 397.498 214.67C400.525 214.237 403.298 216.041 406.048 217.299C408.804 218.543 412.499 219.078 414.549 216.695C416.188 214.798 415.947 211.828 414.809 209.647C413.671 207.466 411.815 205.803 410.284 203.914C406.019 198.683 404.177 191.399 405.382 184.535C405.653 183.01 406.227 181.312 407.609 180.714C409.642 179.847 411.578 181.909 412.74 183.762C417.731 191.737 421.76 200.366 424.696 209.415C425.937 213.22 427.924 217.87 431.859 217.791C435.181 217.735 437.552 213.847 437.388 210.416C437.225 206.985 435.338 204.004 433.571 201.131C431.358 197.515 429.22 193.744 428.248 189.552C427.277 185.359 427.587 180.637 429.952 176.993C432.322 173.336 437.023 171.142 440.949 172.597C446.381 174.609 447.749 181.862 447.236 187.858C446.723 193.855 445.201 200.287 447.811 205.565C448.47 206.898 449.656 208.238 451.124 208.026C451.621 207.959 452.087 207.71 452.532 207.438C457.39 204.351 458.954 197.889 459.55 192.094C460.146 186.299 460.397 180.032 463.903 175.388C468.296 169.568 477.537 168.576 482.706 173.376C487.875 178.176 487.858 187.733 482.673 192.829C480.1 195.346 476.69 196.722 473.941 199.047C471.391 201.204 469.491 204.184 468.6 207.45C468.425 208.088 468.29 208.774 468.509 209.382C468.688 209.867 469.063 210.229 469.448 210.563C472.923 213.626 477.348 215.537 481.944 215.993C484.113 216.209 486.352 216.098 488.468 216.601C492.978 217.654 496.627 221.63 497.432 226.326C497.923 229.147 497.329 232.329 495.363 234.422C493.398 236.515 489.939 236.241 489.939 236.241Z" fill="#F7D29A"/>
<path d="M131.242 734.065C129.305 729.239 131.152 720.19 129.095 720.15C127.798 720.125 121.136 724.493 117.892 723.566C108.948 725.117 102.15 716.726 97.4271 714.175C96.8107 714.185 96.1205 714.301 95.7712 714.806C95.3322 715.443 95.6718 716.298 95.694 717.071C95.741 718.82 93.683 720.252 92.0542 719.602C89.5555 721.455 90.5257 725.756 93.0962 727.515C95.6667 729.275 99.0246 729.231 102.139 729.08C105.251 728.933 108.584 728.797 111.238 730.431C111.663 730.691 112.083 731.025 112.24 731.499C112.513 732.33 111.865 733.171 111.193 733.735C109.25 735.377 106.71 736.292 104.163 736.267C102.198 736.251 100.283 735.697 98.3941 735.149C90.4644 732.851 82.5362 730.549 74.6029 728.249C73.3807 727.894 72.0655 727.537 70.8535 727.932C69.8952 728.24 69.142 728.977 68.4942 729.746C66.6238 731.961 65.2791 734.873 65.8394 737.721C66.6048 741.622 70.731 744.094 74.6918 744.453C78.6527 744.812 82.5592 743.58 86.4327 742.677C92.3285 741.302 98.3988 740.67 104.457 740.8C97.9834 744.852 92.449 750.682 85.1494 752.926C77.3084 755.336 68.8637 753.181 60.9385 751.033C59.2467 750.572 57.0862 750.266 56.0653 751.687C55.3211 752.725 55.655 754.248 56.4895 755.219C57.324 756.19 58.5294 756.746 59.7028 757.267C59.0728 759.523 58.6532 761.834 58.447 764.163C58.3466 765.316 58.3665 766.647 59.2449 767.403C60.4579 768.454 62.3144 767.67 63.7167 766.885C72.4357 762.014 81.8801 758.433 91.6426 756.292C84.8474 763.951 78.3661 771.882 72.2168 780.063C71.6842 780.771 71.1302 781.66 71.4675 782.481C71.8773 783.472 73.2664 783.563 74.2867 783.239C75.3071 782.916 76.3366 782.329 77.3854 782.552C79.0206 782.895 79.6274 784.868 79.9301 786.505C85.8671 784.468 88.5355 777.809 91.1456 772.113C95.1794 763.318 100.709 755.205 107.423 748.233C108.065 747.567 109.118 746.885 109.805 747.501C110.32 747.961 110.164 748.784 109.959 749.44C108.568 753.879 106.741 758.185 104.506 762.268C101.647 767.499 98.0278 772.697 97.8209 778.658C97.7795 779.883 98.0003 781.311 99.0608 781.929C100.657 782.857 102.53 781.199 103.41 779.578C104.29 777.958 105.223 775.949 107.056 775.735C108.138 775.607 109.188 776.199 110.279 776.211C112.302 776.23 113.781 774.337 114.687 772.533C120.142 761.642 116.94 748.061 121.86 736.915C123.336 738.682 123.171 741.245 122.932 743.53C122.407 748.505 121.88 753.475 121.354 758.449C121.246 759.48 121.213 760.704 122.04 761.333C123.953 762.798 125.994 758.921 128.399 759.001C130.293 759.063 131.496 761.597 133.387 761.455C134.99 761.331 135.723 759.415 135.952 757.825C137.294 748.393 134.172 741.364 131.242 734.065Z" fill="#E67D0A"/>
<path d="M142.501 631.505C130.982 624.625 104.537 616.235 96.4825 625.456C92.6972 629.789 90.7241 635.248 87.7347 640.108C84.7453 644.969 80.1547 649.508 73.9784 650.073C69.6598 650.467 65.2654 648.845 61.2985 646.901C59.2725 645.907 57.2212 644.768 55.8439 643.071C52.4934 638.948 54.3529 633.055 58.1213 629.704C61.8874 626.361 67.0716 624.727 71.6736 622.377C79.3374 618.462 85.5595 612.375 89.336 605.084C90.3217 603.188 90.9156 600.459 88.945 599.151C88.395 598.786 87.7385 598.612 87.0865 598.479C79.7099 596.936 72.3963 599.363 65.6404 601.851C58.8844 604.339 51.7361 606.982 44.3039 605.866C36.8636 604.746 29.442 598.217 30.8525 591.586C32.0065 586.15 38.2627 583.224 44.2064 582.259C60.6135 579.589 78.5511 586.445 94.5289 582.413C80.7626 574.693 65.5666 569.299 50.0193 566.607C44.4244 565.637 38.6318 564.975 33.546 562.415C28.4684 559.857 24.2084 554.774 24.9663 549.703C25.2814 547.62 26.3918 545.756 27.5138 543.969C29.6876 540.502 32.3354 536.85 36.6072 535.841C42.5575 534.434 48.5854 538.67 53.5278 542.495C63.7982 550.433 74.5024 557.889 85.5762 564.81C89.3638 567.173 95.182 569.22 97.4687 565.878C85.2578 552.708 67.119 545.551 53.3588 533.729C47.4618 528.661 42.096 520.78 45.7199 514.67C49.4082 508.443 60.1802 509.153 66.6074 513.86C73.037 518.559 76.5187 525.736 80.7939 532.152C85.4775 539.18 91.3814 545.577 98.1843 550.998C98.86 551.534 99.6116 552.087 100.472 552.158C102.116 552.29 103.154 550.484 102.775 548.992C102.388 547.498 101.099 546.315 99.8907 545.216C89.4655 535.706 80.4273 524.933 72.8569 513.433C69.557 508.42 66.4352 502.907 66.7298 497.255C67.0243 491.604 72.0915 486.111 78.2629 487.026C84.685 487.975 88.2471 494.563 90.6138 500.21C95.8734 512.76 101.135 525.303 106.395 537.854C109.154 536.221 108.273 532.298 107.287 529.264C103.385 517.262 102.835 503.377 111.152 494.267C112.804 492.458 115.207 490.782 117.833 491.365C121.066 492.082 122.498 495.634 123.093 498.621C125.722 512.037 123.23 525.511 120.117 538.475C117.003 551.439 111.913 566.777 112.034 580.255C112.179 596.898 119.702 608.998 131.048 614.195C135.655 616.307 154.254 622.028 151.51 623.107L142.501 631.505Z" fill="#E98F87"/>
<path d="M271.681 701.825C273.022 701.616 273.473 699.741 272.366 699.039C253.325 687.051 244.207 660.249 223.127 651.728C218.549 649.875 213.16 649.05 208.466 651.645C205.549 653.258 203.346 656.312 202.743 659.693C201.937 664.203 204.347 666.306 206.665 668.278C214.913 675.316 223.155 682.351 231.4 689.396C228.742 694.924 221.281 693.711 216.402 691.272C203.057 684.62 190.749 675.895 179.938 665.429C175.703 661.323 171.526 656.839 165.494 655.766C161.619 655.078 157.364 656.319 154.598 659.674C148.289 667.328 155.008 678.33 162.089 683.961C169.418 689.789 177.346 694.798 185.723 698.893C169.863 700.218 152.662 701.177 140.421 691.626C132.778 685.667 127.863 676.086 119.344 671.531C109.98 666.526 96.4365 668.889 90.3077 681.092C89.308 683.091 88.624 685.266 88.3774 687.456C87.1024 698.672 95.3376 705.027 103.956 707.059C110.485 708.602 117.422 708.146 124.189 708.605C135.483 709.375 146.393 712.756 155.978 718.454C148.694 726.675 138.854 732.258 128.75 733.907C122.452 734.931 115.65 734.64 111.028 741.574C108.091 745.981 107.541 751.628 109.352 756.244C113.507 766.852 125.568 768.773 135.45 765.015C143.621 761.91 150.581 755.59 156.949 749.039C162.963 742.848 168.659 736.304 174.002 729.444C177.664 724.742 181.344 719.725 187.048 717.895C190.023 716.939 193.233 717.424 195.35 719.537C200.908 725.082 194.899 735.134 189.472 741.684C183.896 748.417 179.005 760.139 186.589 763.745C188.427 764.617 190.595 764.6 192.654 763.992C208.096 759.432 220.366 742.498 220.128 725.705C220.086 722.446 221.503 719.101 224.233 717.366C231.484 712.756 234.839 723.482 232.305 730.377C229.663 737.569 224.425 743.676 223.719 751.678C223.556 753.568 223.764 755.476 224.437 757.145C227.922 765.864 238.397 762.948 244.008 756.787C247.061 753.436 249.307 749.258 250.425 744.848C252.03 738.525 251.322 732.064 251.37 725.658C251.425 719.254 252.477 712.258 256.723 707.329C259.459 704.181 266.791 702.572 271.681 701.825Z" fill="#F7D29A"/>
<path d="M582.203 273.475C582.882 272.714 578.605 273.509 577.274 274.7C575.747 276.048 575.794 278.524 574.504 280.102C572.034 283.123 567.172 281.897 563.766 279.99C560.632 278.233 557.589 275.966 556.007 272.747C553.673 267.999 555.018 262.369 555.532 257.104C556.081 251.614 555.654 246.038 554.308 240.688C553.299 236.715 551.793 232.846 551.214 228.786C550.635 224.727 551.15 220.273 553.786 217.121C557.593 212.565 565.023 212.279 569.96 215.579C574.879 218.882 577.428 224.948 577.743 230.876C578.058 236.803 576.424 242.649 574.498 248.259C577.286 248.749 579.432 245.88 580.643 243.311C588.266 226.947 587.297 208.035 585.847 190.033C585.323 183.472 585.417 175.533 591.024 172.068C596.852 168.478 604.905 172.944 607.631 179.219C610.357 185.494 609.357 192.681 608.436 199.452C607.485 206.465 606.665 213.5 605.993 220.553C605.68 223.767 606.779 228.402 609.967 227.874C611.127 227.681 612.054 226.751 612.674 225.751C614.883 222.253 614.65 217.838 614.505 213.709C613.995 200.724 614.84 187.679 617.022 174.865C618.229 167.717 620.011 160.339 624.677 154.797C629.342 149.255 637.699 146.199 644.075 149.634C650.366 153.016 652.475 161.336 651.145 168.351C649.815 175.367 645.864 181.545 642.622 187.892C638.295 196.363 635.146 205.374 632.01 214.364C631.652 215.408 631.378 216.791 632.288 217.416C632.83 217.788 633.578 217.677 634.216 217.485C640.397 215.629 643.234 208.732 646.214 203.007C649.194 197.283 655.034 191.309 661.127 193.442C664.99 194.787 667.086 198.854 668.792 202.584C670.149 205.551 671.548 208.689 671.244 211.937C670.761 216.816 666.623 220.461 662.541 223.156C652.561 229.746 641.05 233.988 629.176 235.416C625.113 235.906 620.826 236.144 617.408 238.387C613.991 240.63 612.075 245.769 614.728 248.87C617.79 252.466 623.584 250.579 627.774 248.399C631.965 246.22 637.683 244.243 640.864 247.738C643.112 250.217 642.549 254.178 640.98 257.122C636.963 264.579 626.859 268.008 619.145 264.559C615.153 262.759 612.017 259.524 608.307 257.186C604.598 254.848 599.622 253.524 595.945 255.884C591.705 258.599 591.784 265.919 596.083 268.527C599.407 270.544 603.731 269.72 607.343 271.144C611.154 272.646 613.725 276.813 613.373 280.902C613.022 284.991 609.712 288.632 605.703 289.415C600.818 290.377 595.999 287.409 592.503 283.883C589.008 280.357 586.162 276.095 582.081 273.271" fill="#A1A59F"/>
<path d="M581.29 157.907C577.331 153.879 575.13 148.527 573.033 143.318C571.262 138.938 569.488 134.518 568.593 129.883C567.496 124.197 567.762 118.344 568.402 112.602C568.667 110.25 569.246 107.542 571.398 106.505C572.919 105.783 574.786 106.194 576.196 107.122C577.606 108.049 578.639 109.42 579.638 110.765C582.308 114.323 584.968 117.887 587.638 121.444C590.114 116.611 592.382 111.541 592.975 106.149C594.148 95.5673 588.803 84.9812 590.294 74.4318C590.432 73.4652 590.629 72.4984 591.092 71.643C592.581 68.8892 596.556 68.1691 599.391 69.5712C602.215 70.9811 603.949 73.959 604.689 77.0079C607.189 87.3441 600.078 98.821 604.657 108.448C613.606 95.4478 613.105 78.504 615.902 63.0086C616.539 59.4567 617.439 55.8021 619.732 52.9949C621.397 50.9679 624.332 49.458 626.66 50.7193C628.203 51.5523 628.946 53.3217 629.502 54.9733C630.872 59.0363 631.806 63.3093 631.545 67.5719C631.262 72.1415 629.61 76.4979 628.214 80.8569C625.697 88.7183 623.935 96.8287 622.964 105.019C630.303 98.418 636.029 90.0803 639.536 80.8966C640.393 78.6507 641.197 76.2412 643.034 74.6688C645.053 72.9418 648.178 72.6167 650.535 73.8827C652.891 75.1487 654.313 77.9304 653.956 80.5484C653.394 84.6652 649.295 87.1687 646.04 89.7903C642.932 92.2999 640.333 95.3579 637.757 98.4001C633.262 103.7 628.768 108.99 624.273 114.289C623.666 115.005 623.031 115.764 622.852 116.685C622.663 117.605 623.09 118.722 624.01 118.978C624.498 119.116 625.02 118.987 625.513 118.854C628.984 117.916 632.744 116.531 634.388 113.366C635.043 112.115 635.392 110.572 636.595 109.818C637.982 108.957 639.942 109.645 640.948 110.943C641.955 112.232 642.209 113.931 642.318 115.549C642.524 118.812 642.209 122.193 640.687 125.087C639.166 127.981 636.292 130.315 633.002 130.565C630.735 130.739 628.526 129.953 626.284 129.559C624.041 129.164 621.469 129.279 619.875 130.872C619.136 131.614 618.465 132.717 617.407 132.642C616.369 132.57 615.841 131.408 615.53 130.426C614.759 127.983 613.978 125.548 613.207 123.105C609.117 125.193 608.27 130.514 607.922 135.064C607.85 135.992 607.793 137.001 608.271 137.806C608.826 138.74 609.956 139.157 610.99 139.5C613.327 140.278 615.813 141.109 617.392 142.986C618.97 144.872 619.061 148.173 616.938 149.399C615.584 150.177 613.876 149.87 612.324 149.637C601.796 148.029 590.65 151.005 582.395 157.632L581.29 157.907Z" fill="#FAD2C9"/>
<path d="M266.712 124.763C266.636 119.81 263.432 115.359 259.494 112.351C255.557 109.343 250.889 107.493 246.431 105.33C244.326 104.308 242.032 102.924 241.566 100.633C240.99 97.799 243.886 95.1193 246.781 95.1168C249.676 95.1143 252.248 97.0808 253.943 99.4233C251.534 94.4839 248.042 90.0738 243.786 86.598C242.306 85.389 240.718 84.2836 238.953 83.5479C236.801 82.6519 234.408 82.3197 232.4 81.1344C230.39 79.9506 228.832 77.4298 229.803 75.306C230.475 73.8387 232.093 73.0791 233.621 72.5603C235.205 72.0196 237.054 71.6305 238.471 72.5228C238.83 72.7472 239.179 73.06 239.601 73.0559C240.262 73.0481 240.657 72.2238 240.499 71.5816C240.34 70.9395 239.834 70.454 239.369 69.9818C237.122 67.6979 235.382 64.1745 236.931 61.371C238.233 59.0186 241.468 58.2682 244.018 59.127C246.567 59.9858 248.508 62.0768 250.02 64.2985C253.539 69.4717 255.28 75.6122 257.196 81.5667C257.722 83.2027 258.301 84.8875 259.481 86.1358C260.114 86.8053 261.01 87.3472 261.919 87.1928C262.456 87.102 263.134 86.8817 263.292 86.3589C263.631 85.2067 262.782 83.5037 262.216 81.5681C261.65 79.6325 261.905 76.0544 263.399 74.6986C265.419 72.8642 267.319 72.1954 269.352 73.181C271.385 74.1666 272.112 76.53 273.337 78.4272C274.211 79.7804 279.951 95.66 277.955 102.297C275.866 109.237 272.925 122.68 266.674 124.918" fill="#FAD2C9"/>
<path d="M333.673 126.231C330.239 127.318 326.216 132.287 325.288 131.204C324.703 130.522 324.103 125.039 322.178 123.712C319.066 118.248 311.586 118.305 308.141 116.902C307.875 116.568 307.633 116.148 307.749 115.739C307.896 115.224 308.503 115.029 308.926 114.701C309.881 113.957 309.74 112.227 308.675 111.642C308.564 109.491 311.291 108.118 313.364 108.718C315.438 109.318 316.894 111.133 318.185 112.864C319.478 114.593 320.874 116.435 322.916 117.135C323.243 117.248 323.606 117.325 323.928 117.201C324.493 116.981 324.657 116.264 324.663 115.657C324.685 113.896 324.054 112.136 322.919 110.785C322.045 109.742 320.904 108.962 319.779 108.193C315.057 104.964 310.333 101.738 305.608 98.5085C304.88 98.0113 304.11 97.4649 303.787 96.6431C303.529 95.9956 303.591 95.2686 303.717 94.584C304.077 92.6097 305.041 90.6098 306.811 89.6567C309.233 88.3501 312.373 89.4687 314.31 91.4284C316.247 93.388 317.309 96.0185 318.533 98.4866C320.396 102.244 322.733 105.767 325.472 108.949C324.785 103.705 325.463 98.1818 323.447 93.2919C321.281 88.0397 316.408 84.4731 311.767 81.181C310.776 80.4789 309.66 79.4587 309.97 78.2878C310.197 77.4334 311.158 76.942 312.045 76.9609C312.932 76.9798 313.76 77.3798 314.556 77.7779C315.484 76.4488 316.535 75.208 317.689 74.0732C318.261 73.5124 318.981 72.9376 319.773 73.0744C320.869 73.2608 321.267 74.5982 321.466 75.6933C322.703 82.4972 324.95 89.1217 328.107 95.2828C329.207 88.2811 330.591 81.3273 332.255 74.4408C332.399 73.8449 332.63 73.1575 333.218 72.9769C333.928 72.76 334.589 73.4627 334.865 74.1505C335.142 74.8383 335.282 75.6467 335.863 76.1095C336.767 76.8328 338.089 76.2894 339.097 75.7312C340.625 79.8009 338.241 84.1568 336.346 88.0579C333.421 94.0834 331.521 100.608 330.752 107.265C330.679 107.901 330.778 108.764 331.41 108.86C331.883 108.934 332.254 108.487 332.514 108.09C334.275 105.393 335.771 102.522 336.97 99.5313C338.506 95.7016 339.69 91.4803 342.786 88.7475C343.422 88.1868 344.283 87.6765 345.08 87.9718C346.28 88.4167 346.218 90.1478 345.74 91.3311C345.261 92.5143 344.599 93.8971 345.292 94.9707C345.7 95.6054 346.479 95.9065 346.966 96.4847C347.868 97.5576 347.508 99.1811 346.943 100.459C343.524 108.166 334.853 112.428 331.062 119.962C332.657 119.973 333.955 118.758 335.071 117.625C337.499 115.156 339.923 112.688 342.351 110.219C342.855 109.707 343.495 109.152 344.195 109.317C345.821 109.695 344.648 112.492 345.75 113.743C346.618 114.728 348.502 114.256 349.26 115.33C349.9 116.241 349.198 117.476 348.45 118.298C343.999 123.164 338.865 124.587 333.673 126.231Z" fill="#3A5751"/>
<g clip-path="url(#clip3)">
<path d="M576.072 555.869C573.031 556.817 569.566 556.353 566.9 554.612C564.072 552.775 562.208 549.707 559.472 547.757C554.42 544.142 546.598 545.319 542.852 550.316C539.106 555.313 540.137 563.274 545.041 567.084C548.006 569.375 551.841 570.121 555.167 571.84C559.538 574.092 562.85 577.944 566.052 581.686C569.832 586.1 573.875 591.591 572.314 597.236C579.06 595.967 585.823 594.698 592.569 593.446C595.531 592.885 598.51 592.325 601.309 591.206C603.83 590.187 606.163 588.728 608.415 587.213C611.98 584.799 615.463 582.122 617.941 578.573C620.42 575.025 621.753 570.473 620.644 566.28C618.891 559.703 610.5 555.974 604.504 559.089C602.207 560.277 600.328 562.263 597.914 563.187C595.501 564.11 592.088 563.376 591.489 560.841C590.954 558.584 592.92 556.57 594.679 555.088C598.898 551.542 603.362 547.876 608.73 546.749C611.269 546.209 613.9 546.274 616.49 546.199C624.214 545.937 631.811 544.335 639.375 542.73C641.177 542.344 642.995 541.959 644.582 541.011C646.591 539.82 648.032 537.82 648.927 535.663C650.742 531.214 650.238 525.868 647.63 521.844C645.022 517.819 640.354 515.238 635.594 515.161C630.126 515.069 625.138 518.015 620.248 520.524C615.375 523.035 609.764 525.22 604.558 523.558C608.104 514.893 615.243 507.777 623.866 504.317C635.602 499.606 649.184 501.581 660.906 496.818C663.671 495.697 666.514 493.949 667.473 491.114C668.322 488.629 667.519 485.858 666.295 483.552C661.955 475.308 651.875 470.624 642.828 472.654C632.668 474.897 625.599 484.152 616.322 488.984C612.744 485.797 613.18 479.8 610.02 476.18C606.204 471.798 599.302 472.886 593.709 474.338C592.848 474.568 591.935 474.812 591.299 475.45C590.482 476.264 590.311 477.499 590.181 478.633C589.804 481.834 589.422 485.12 590.217 488.25C590.772 490.457 591.881 492.481 592.799 494.577C596.93 504.105 596.71 515.461 592.218 524.829C590.834 527.703 588.151 530.794 585.102 529.932C582.169 529.111 581.343 525.229 581.827 522.172C582.31 519.132 583.495 515.971 582.499 513.049C581.097 508.938 576.099 507.445 571.813 507.366C567.12 507.294 562.073 508.426 558.936 511.963C556.183 515.083 555.385 519.484 555.279 523.66C555.197 527.001 555.554 530.595 557.673 533.151C559.06 534.819 561.031 535.862 562.878 536.999C567.641 539.928 571.848 543.791 575.198 548.312C576.368 549.947 576.072 555.869 576.072 555.869Z" fill="#3A5751"/>
</g>
<g clip-path="url(#clip4)">
<path d="M401.474 709.262C385.035 709.337 372.115 690.713 355.85 692.963C359.092 699.406 364.317 704.86 370.647 708.4C374.645 710.647 379.123 712.172 382.618 715.155C386.112 718.139 388.401 723.252 386.278 727.285C384.017 731.604 377.823 732.438 373.308 730.518C368.792 728.599 365.46 724.706 362.016 721.229C357.058 716.232 351.516 711.808 345.519 708.093C342.117 705.986 337.625 704.133 334.359 706.4C330.131 709.362 332.104 715.809 333.664 720.747C335.508 726.532 336.101 732.711 335.428 738.733C335.137 741.27 334.566 743.935 332.867 745.851C329.035 750.155 321.249 748.231 317.891 743.521C314.537 738.791 314.442 732.583 314.882 726.823C315.221 722.353 315.74 717.667 313.962 713.543C312.185 709.418 307.088 706.309 303.084 708.358C297.184 711.378 299.782 720.527 296.742 726.381C294.125 731.416 287.506 733.149 281.86 732.245C274.055 731.004 267.115 725.618 263.556 718.604C260.002 711.57 259.759 703.093 262.41 695.716C262.745 694.772 263.161 693.829 263.894 693.154C264.51 692.61 265.29 692.292 266.098 692.102C270.331 691.108 274.594 693.204 278.73 694.555C282.871 695.888 288.226 696.126 290.724 692.6C292.724 689.791 291.86 685.769 289.857 682.942C287.854 680.115 284.92 678.092 282.408 675.716C275.419 669.141 271.517 659.44 272.026 649.908C272.144 647.791 272.663 645.396 274.526 644.395C277.267 642.941 280.384 645.499 282.365 647.874C290.871 658.099 298.121 669.346 303.891 681.31C306.325 686.341 309.97 692.426 315.557 691.795C320.276 691.275 322.969 685.652 322.133 680.989C321.297 676.326 318.088 672.507 315.069 668.819C311.283 664.177 307.577 659.312 305.457 653.717C303.337 648.122 302.95 641.633 305.676 636.343C308.407 631.035 314.713 627.414 320.557 628.878C328.643 630.903 331.865 640.624 332.188 648.88C332.512 657.135 331.474 666.121 336.117 672.98C337.289 674.712 339.213 676.383 341.264 675.899C341.961 675.741 342.58 675.34 343.166 674.909C349.538 670.049 350.629 661.017 350.46 653.026C350.291 645.035 349.547 636.443 353.722 629.636C358.952 621.106 371.932 618.523 380.133 624.389C388.335 630.256 389.99 643.307 383.504 650.954C380.283 654.733 375.672 657.065 372.167 660.606C368.915 663.89 366.735 668.211 366.04 672.788C365.903 673.684 365.831 674.637 366.25 675.439C366.59 676.077 367.187 676.521 367.794 676.927C373.279 680.646 379.914 682.667 386.535 682.678C389.662 682.685 392.828 682.236 395.93 682.642C402.535 683.479 408.427 688.423 410.398 694.728C411.591 698.514 411.306 702.937 408.875 706.056C406.445 709.175 401.474 709.262 401.474 709.262Z" fill="#A9BFDE"/>
</g>
<path d="M203.067 164.855C201.895 164.044 201.042 162.849 199.95 161.928C197.114 159.544 193.088 159.336 189.38 159.236C188.917 159.221 188.393 159.233 188.064 159.557C187.787 159.83 187.712 160.244 187.673 160.633C187.339 163.474 187.492 166.654 189.437 168.752C190.845 170.273 192.92 170.939 194.808 171.79C198.513 173.46 201.804 176.048 204.282 179.271C204.966 180.152 205.631 181.116 206.639 181.582C207.354 181.911 208.161 181.949 208.944 181.931C212.299 181.846 215.573 180.749 218.934 180.698C222.699 180.633 226.388 181.892 230.154 181.79C233.92 181.687 238.146 179.522 238.571 175.786C238.745 174.288 238.262 172.796 237.788 171.366C236.625 167.842 235.1 163.904 231.66 162.496C228.731 161.294 225.318 162.39 222.67 164.135C221.435 164.948 220.263 165.92 218.844 166.343C217.425 166.766 215.64 166.434 214.921 165.142C214.117 163.702 214.999 161.896 216.044 160.62C218.783 157.275 222.852 155.05 227.152 154.541C229.872 154.221 232.636 154.558 235.375 154.425C239.886 154.201 244.318 152.64 247.976 149.996C248.293 149.77 248.616 149.514 248.82 149.182C249.212 148.523 249.076 147.702 248.926 146.953C248.635 145.496 248.324 143.974 247.422 142.792C245.392 140.111 241.193 140.203 238.186 141.729C235.179 143.254 232.864 145.843 230.03 147.671C227.196 149.5 223.306 150.465 220.557 148.525C220.365 144.221 224.659 141.171 228.598 139.404C231.965 137.893 235.465 136.657 239.042 135.739C240.984 135.239 243.045 134.778 244.549 133.445C246.107 132.068 246.811 129.97 247.236 127.933C247.446 126.91 247.606 125.836 247.361 124.813C246.687 122.025 243.189 120.736 240.403 121.429C237.618 122.122 235.419 124.204 233.36 126.204C230.865 128.623 228.37 131.041 225.879 133.468C225.321 134.006 224.728 134.569 223.978 134.785C222.153 135.297 220.404 133.409 220.23 131.529C220.056 129.648 220.9 127.84 221.545 126.066C222.724 122.808 223.252 119.323 223.104 115.863C223.011 113.853 222.541 111.604 220.837 110.541C218.348 108.993 214.94 111.2 214.024 113.987C213.108 116.774 213.845 119.784 214.272 122.684C214.569 124.713 214.717 126.763 214.706 128.81C214.694 131.209 213.691 134.361 211.285 134.242C209.395 134.153 208.388 132.034 207.793 130.25C207.136 128.289 206.476 126.321 205.819 124.36C205.331 122.899 204.818 121.403 203.852 120.203C202.886 119.003 201.347 118.143 199.821 118.41C198.467 118.646 197.386 119.716 196.704 120.913C194.811 124.194 195.387 128.484 197.348 131.715C199.317 134.943 202.475 137.277 205.769 139.149C207.504 140.134 209.354 141.067 210.617 142.617C211.879 144.167 212.354 146.571 211.114 148.139C209.914 149.652 207.581 149.798 205.806 149.054C204.031 148.31 202.642 146.891 201.213 145.593C199.645 144.171 197.933 142.841 195.927 142.163C193.921 141.485 191.569 141.548 189.832 142.754C188.045 143.992 187.164 146.401 187.724 148.498C188.366 150.883 190.596 152.537 192.925 153.357C195.255 154.178 197.756 154.364 200.166 154.926C202.575 155.488 205.024 156.533 206.414 158.573C207.803 160.614 207.655 163.827 205.578 165.167C205.564 165.155 204.24 165.665 203.067 164.855Z" fill="#5085A7"/>
<g clip-path="url(#clip5)">
<path d="M472.856 684.825C471.644 671.591 472.007 658.221 473.954 645.075C474.88 638.79 476.335 632.208 480.635 627.542C484.92 622.849 492.921 621.008 497.666 625.263C501.922 629.046 501.836 635.746 500.357 641.23C498.877 646.714 496.302 652.134 496.711 657.794C496.872 660.066 498.07 662.764 500.34 662.848C502.767 662.93 504.058 660.088 504.7 657.731C508.795 642.496 512.169 627.058 514.838 611.511C515.683 606.539 517.64 600.388 522.673 599.914C526.219 599.578 529.344 602.708 530.266 606.152C531.188 609.597 530.476 613.226 529.758 616.72C527.74 626.483 525.728 636.226 523.71 645.989C533.649 637.747 541.568 626.641 544.286 614.002C546.317 604.51 543.73 588.82 552.058 583.842C555.114 580.318 561.245 580.661 564.749 581.783C568.813 583.085 571.521 587.144 572.254 591.337C572.987 595.53 572.057 599.854 570.761 603.898C567.718 613.506 562.65 622.476 555.991 630.062C564.906 627.9 571.486 620.358 576.178 612.484C580.87 604.611 584.405 595.943 590.354 588.981C597.772 580.206 608.893 574.724 620.351 574.125C622.315 574.032 624.352 574.072 626.095 574.92C629.748 576.73 630.981 581.598 629.82 585.479C628.659 589.36 625.64 592.406 622.54 595.028C616.08 600.488 608.7 604.864 600.809 607.895C594.917 610.152 587.734 612.803 586.649 619.022C591.624 619.066 596.539 617.825 601.507 617.422C606.46 616.992 611.826 617.548 615.717 620.649C619.608 623.75 621.187 630.074 617.938 633.857C614.259 638.141 607.489 636.878 601.965 635.699C584.701 632.011 563.945 634.153 553.59 648.446C559.234 656.072 573.362 646.873 580.406 653.246C585.373 657.742 581.919 666.833 575.767 669.463C569.614 672.092 562.53 670.206 556.255 667.903C548.647 665.112 540.907 661.682 532.816 662.184C529.372 662.394 525.81 663.416 523.396 665.897C521.003 668.384 520.16 672.556 522.178 675.351C524.036 677.924 527.494 678.609 530.46 679.78C534.124 681.236 537.489 683.833 539.024 687.472C540.559 691.111 539.909 695.782 536.886 698.292C532.38 702.032 525.621 699.703 520.328 697.231C512.225 693.432 504.137 689.66 496.034 685.861C496.013 685.855 481.733 683.587 472.856 684.825Z" fill="#BF9585"/>
</g>
<path d="M603.076 669.604C602.214 668.588 601.553 667.197 602.017 665.946C602.262 665.289 602.781 664.772 603.148 664.168C604.378 662.091 603.177 659.002 600.856 658.316C598.535 657.629 595.837 659.565 595.742 661.977C595.645 664.342 597.624 666.596 596.944 668.86C596.052 671.83 591.148 672.777 591.345 675.868C591.414 676.952 592.168 677.854 592.917 678.633C597.523 683.411 603.666 686.693 610.207 687.851C612.113 688.186 614.5 688.144 615.469 686.463C616.192 685.207 615.712 683.545 614.733 682.483C613.754 681.42 612.382 680.827 611.055 680.264C609.652 679.668 608.248 679.073 606.844 678.477C607.466 677.424 608.974 677.462 610.185 677.646C615.533 678.469 620.843 679.558 626.083 680.922C627.841 681.382 629.661 681.869 631.454 681.588C633.248 681.306 635.036 680.015 635.255 678.21C635.512 676.081 633.512 674.263 631.432 673.734C629.352 673.205 627.161 673.559 625.016 673.485C622.872 673.41 620.507 672.741 619.435 670.888C628.171 666.958 639.27 673.286 647.671 668.663C649.449 667.683 651.115 665.89 650.818 663.879C650.565 662.152 648.873 660.904 647.14 660.646C645.407 660.388 643.661 660.911 642.025 661.528C638.456 662.874 634.283 664.694 631.097 662.595C631.133 660.701 632.519 658.912 634.343 658.39C636.178 657.869 638.709 658.261 639.498 656.518C639.711 656.055 639.724 655.527 639.708 655.013C639.637 652.693 638.881 650.222 636.985 648.883C634.27 646.96 630.171 648.268 628.239 650.98C626.976 652.752 626.456 654.929 625.486 656.873C623.976 659.899 621.443 662.271 618.881 664.471C618.306 664.968 617.688 665.472 616.948 665.602C615.205 665.909 613.764 663.862 614.037 662.109C614.299 660.355 615.66 658.987 617.042 657.874C618.317 656.842 619.811 655.654 619.816 654.011C619.828 652.284 618.024 650.974 616.293 650.949C614.562 650.924 612.968 651.845 611.578 652.867C610.238 653.846 608.902 655.106 608.702 656.748C608.575 657.763 608.903 658.773 609.159 659.766C609.889 662.668 609.951 665.738 609.321 668.661C609.113 669.638 608.79 670.663 608.028 671.309C607.266 671.954 605.934 672.02 605.363 671.197C605.366 671.234 603.937 670.62 603.076 669.604Z" fill="#A1A59F"/>
<g clip-path="url(#clip6)">
<path d="M195.696 86.1184C194.512 87.447 193.782 89.0883 193.07 90.7121C192.527 91.9539 191.993 93.4215 192.705 94.5764C193.809 96.3653 196.684 95.6706 198.313 94.3246C200.832 92.2405 202.337 89.2533 204.42 86.761C206.503 84.2688 209.725 82.1586 212.93 82.9315C213.5 83.0704 214.078 83.3223 214.417 83.7912C214.719 84.2167 214.79 84.7638 214.817 85.2848C215.102 90.4864 212.405 95.6532 208.185 98.8488C203.966 102.044 198.393 103.33 193.079 102.757C188.503 102.262 183.491 99.7433 182.761 95.3145C182.637 94.5677 182.646 93.7775 182.316 93.0915C181.987 92.4055 181.186 91.841 180.456 92.1102C180.002 92.2752 179.717 92.7007 179.441 93.0828C177.794 95.3493 175.284 97.0079 172.515 97.6591C170.014 98.2496 166.916 97.7807 165.643 95.5924C164.993 94.4722 164.94 93.1175 165.109 91.841C165.536 88.5759 167.744 85.2327 171.073 84.7203C172.382 84.5206 173.744 84.7725 175.026 84.4685C176.308 84.1646 177.563 82.9489 177.162 81.7245C175.293 80.2656 173.423 78.8067 171.554 77.3565C170.824 76.7834 170.041 76.1408 169.836 75.2464C169.738 74.7861 169.8 74.3085 169.934 73.8657C170.459 72.1463 172.097 70.8177 173.922 70.6266C175.747 70.4356 177.643 71.4081 178.524 72.9799C179.201 74.1956 179.29 75.6632 180.029 76.8442C180.767 78.0252 182.708 78.7025 183.545 77.5823C183.83 77.2002 183.901 76.7139 183.945 76.245C184.417 71.7295 183.465 67.2052 182.548 62.7591C181.631 58.313 180.75 53.7628 181.355 49.2646C181.96 44.7664 184.328 40.2508 188.45 38.1494C191.432 36.6297 194.921 36.5168 198.277 36.4387C198.936 36.4213 199.675 36.4387 200.12 36.9163C200.369 37.1855 200.476 37.5415 200.565 37.8975C201.678 42.5954 200.093 47.4583 198.536 52.0434C196.453 58.1567 194.378 64.2614 192.295 70.3748C191.45 72.867 190.586 75.394 190.364 78.0078C190.328 78.4073 190.31 78.8328 190.506 79.1801C190.853 79.8053 191.743 79.9617 192.42 79.7098C193.097 79.458 193.613 78.9196 194.094 78.3899C198.242 73.8917 202.426 69.3327 205.363 64.0009C207.384 60.3364 208.782 56.3592 210.865 52.7294C212.948 49.0996 215.93 45.7129 219.945 44.3061C221.307 43.8285 222.82 43.5941 224.218 43.9675C225.615 44.3409 226.87 45.4177 227.137 46.8157C227.44 48.3788 226.488 49.8898 225.588 51.2184C221.503 57.2102 217.417 63.202 213.339 69.2025C212.814 69.9666 212.298 71.0174 212.885 71.7381C213.411 72.3894 214.479 72.2592 215.244 71.8858C216.01 71.5124 216.722 70.9479 217.577 70.9132C218.983 70.8611 220.043 72.4328 219.784 73.7788C219.526 75.1248 218.325 76.1408 217.016 76.6531C215.707 77.1655 214.283 77.2523 212.885 77.452C207.767 78.1902 202.889 80.4566 199.061 83.8693L195.696 86.1184Z" fill="#E98F87"/>
</g>
<g clip-path="url(#clip7)">
<path d="M285.579 62.5334C284.311 62.7044 283.022 62.4262 281.74 62.4752C278.415 62.6074 275.617 64.9043 273.094 67.0805C272.778 67.35 272.438 67.6755 272.415 68.0894C272.396 68.4383 272.597 68.7583 272.806 69.0403C274.303 71.1285 276.327 73.1472 278.887 73.3634C280.742 73.5222 282.522 72.7096 284.29 72.1329C287.76 71.0003 291.51 70.729 295.104 71.3701C296.091 71.5418 297.115 71.7796 298.067 71.4791C298.741 71.2653 299.299 70.8019 299.808 70.3173C301.984 68.2315 303.494 65.5234 305.695 63.4567C308.155 61.1372 311.365 59.7423 313.804 57.3967C316.242 55.0511 317.739 51.0579 315.761 48.3204C314.971 47.2206 313.749 46.5227 312.569 45.8601C309.665 44.2232 306.271 42.5311 303.136 43.6763C300.465 44.6497 298.861 47.4413 298.158 50.2011C297.831 51.4877 297.64 52.8419 296.954 53.9807C296.268 55.1195 294.882 55.979 293.623 55.556C292.219 55.0863 291.712 53.3538 291.634 51.8743C291.429 47.9971 292.786 44.0593 295.332 41.1211C296.945 39.2636 298.984 37.8162 300.722 36.0713C303.582 33.1947 305.58 29.4779 306.41 25.5106C306.484 25.1689 306.543 24.8041 306.477 24.4598C306.339 23.7851 305.753 23.3223 305.2 22.9157C304.126 22.1245 302.999 21.3021 301.685 21.0629C298.716 20.5108 295.984 23.111 294.911 25.9421C293.837 28.7732 293.865 31.8926 293.089 34.8201C292.313 37.7476 290.315 40.7413 287.316 41.1152C284.585 38.374 285.592 33.7525 287.139 30.1966C288.461 27.1576 290.037 24.2209 291.856 21.4483C292.843 19.9419 293.933 18.389 294.125 16.5948C294.327 14.7386 293.526 12.9197 292.576 11.3101C292.097 10.5038 291.554 9.69412 290.773 9.16339C288.639 7.72018 285.537 8.97957 284.107 11.1239C282.676 13.2683 282.475 15.9805 282.318 18.554C282.124 21.6683 281.931 24.7825 281.744 27.8999C281.699 28.5947 281.646 29.3275 281.278 29.9238C280.377 31.3676 278.074 31.1717 276.821 30.0287C275.568 28.8857 275.035 27.175 274.39 25.6069C273.203 22.7311 271.446 20.0976 269.255 17.89C267.978 16.6119 266.306 15.4029 264.531 15.7275C261.944 16.2053 261.015 19.7311 262.093 22.1354C263.17 24.5397 265.48 26.0927 267.516 27.7595C268.941 28.9273 270.278 30.1987 271.509 31.5646C272.952 33.1646 274.192 35.8636 272.523 37.2398C271.214 38.3237 269.264 37.5254 267.79 36.7014C266.168 35.7966 264.54 34.8888 262.918 33.9841C261.711 33.3093 260.465 32.6264 259.098 32.4139C257.731 32.2014 256.189 32.5611 255.338 33.6612C254.582 34.6366 254.511 36.0014 254.782 37.2078C255.509 40.5314 258.486 43.0307 261.742 43.9902C265.002 44.9427 268.509 44.5823 271.828 43.833C273.576 43.4382 275.369 42.9387 277.144 43.2041C278.919 43.4695 280.688 44.779 280.813 46.5697C280.932 48.2994 279.471 49.8076 277.843 50.3869C276.214 50.9662 274.434 50.8648 272.7 50.8666C270.799 50.8706 268.858 51.0234 267.117 51.7862C265.375 52.549 263.851 54.0129 263.427 55.864C262.989 57.767 263.862 59.8993 265.501 60.9531C267.37 62.1481 269.851 61.8978 271.893 61.0334C273.936 60.1691 275.71 58.7804 277.649 57.6965C279.588 56.6126 281.846 55.8252 284.003 56.3395C286.159 56.8537 288.004 59.0766 287.435 61.2221C287.418 61.223 286.848 62.3624 285.579 62.5334Z" fill="#A9C1DD"/>
</g>
<path d="M101.546 161.835C97.2249 166.762 95.0782 178.846 92.8234 177.826C91.4019 177.184 86.1671 168.355 82.2154 167.809C73.2047 161.259 61.9635 168.043 55.6584 168.728C54.9935 168.394 54.2962 167.894 54.1484 167.092C53.9637 166.081 54.7256 165.205 55.1043 164.267C55.9586 162.142 54.3793 159.312 52.3104 159.265C50.4448 155.691 53.4742 150.907 57.0762 150.079C60.6782 149.25 64.3079 151.048 67.6235 152.851C70.9392 154.649 74.4996 156.545 78.134 155.915C78.7158 155.816 79.3254 155.623 79.7133 155.123C80.3921 154.242 80.0735 152.872 79.6025 151.83C78.2448 148.802 75.9035 146.359 73.1235 145.066C70.9808 144.066 68.6441 143.753 66.3397 143.446C56.6652 142.154 46.9906 140.867 37.3114 139.574C35.8198 139.376 34.2266 139.131 33.0906 138.016C32.1901 137.141 31.7098 135.844 31.3588 134.562C30.3429 130.867 30.2182 126.59 32.1347 123.38C34.7577 118.982 40.3777 118.086 44.8479 119.701C49.318 121.316 52.9985 124.86 56.7945 127.981C62.5715 132.733 68.8796 136.662 75.5248 139.647C70.3481 131.305 67.0094 121.264 60.1055 114.715C52.6891 107.68 42.5204 105.945 32.9197 104.47C30.8693 104.158 28.3803 103.413 27.9231 101.136C27.5906 99.4735 28.6527 97.7749 30.0058 97.0141C31.3588 96.2534 32.9243 96.196 34.439 96.1648C34.79 93.0645 35.3949 90.0058 36.24 87.0358C36.6602 85.5664 37.2929 83.9407 38.5952 83.4665C40.3962 82.8048 42.054 84.7327 43.2177 86.4261C50.4587 96.9412 59.0803 106.247 68.7087 113.949C64.8389 101.005 61.4355 87.8903 58.5077 74.6397C58.2537 73.4934 58.0598 72.1126 58.8033 71.2789C59.7038 70.2732 61.2554 70.8829 62.2159 71.8104C63.1765 72.7379 64.0262 73.9936 65.2684 74.2646C67.2033 74.6918 68.7688 72.5815 69.8494 70.7266C75.3678 76.3123 75.2108 85.8842 75.4325 94.2421C75.7788 107.149 78.0647 119.993 82.1608 132.05C82.5533 133.202 83.3846 134.588 84.4144 134.187C85.1856 133.89 85.3934 132.795 85.4719 131.884C85.9983 125.704 85.9891 119.461 85.4349 113.282C84.7284 105.367 83.1814 97.0975 85.6935 89.6619C86.2108 88.1352 87.1066 86.4939 88.5428 86.2855C90.704 85.9728 91.9786 88.9846 92.191 91.4335C92.4034 93.8825 92.4958 96.8369 94.3891 98.051C95.5067 98.7701 96.9198 98.5877 98.1112 99.14C100.319 100.167 101.057 103.262 101.214 105.95C102.143 122.171 92.4265 137.204 92.6574 153.461C95.0726 152.054 96.0701 148.818 96.8597 145.884C98.573 139.496 100.282 133.113 101.995 126.725C102.35 125.402 102.877 123.88 104.064 123.536C106.816 122.728 107.255 128.554 109.905 129.705C111.993 130.612 114.463 128.121 116.454 129.278C118.139 130.263 118.056 132.999 117.576 135.072C114.703 147.364 108.082 154.384 101.546 161.835Z" fill="#E67D0A"/>
<g clip-path="url(#clip8)">
<path d="M553.13 85.1354C553.377 86.7572 554.375 88.2567 555.783 89.0982C557.272 89.9929 559.113 90.1632 560.634 90.9897C563.448 92.5128 564.669 96.3999 563.201 99.2627C561.733 102.125 557.814 103.445 554.943 102.035C553.213 101.179 552.002 99.5726 550.455 98.4203C548.425 96.9052 545.894 96.2411 543.439 95.6034C540.541 94.8498 537.086 94.2178 534.825 96.2151C533.889 92.8049 532.95 89.3872 532.007 85.9814C531.598 84.483 531.184 82.9772 531.07 81.4287C530.973 80.0313 531.122 78.6219 531.315 77.237C531.628 75.0411 532.081 72.8246 533.164 70.8755C534.248 68.9265 536.054 67.282 538.246 66.8488C541.687 66.1755 545.308 69.2182 545.22 72.6981C545.188 74.0297 544.693 75.3483 544.81 76.6743C544.927 78.0003 546.038 79.4146 547.347 79.1199C548.513 78.8579 549.001 77.493 549.29 76.3437C549.98 73.5894 550.669 70.6948 549.979 67.9551C549.656 66.6579 549.032 65.4542 548.481 64.2378C546.859 60.6027 545.885 56.7231 544.921 52.8586C544.693 51.9374 544.461 51.0087 544.541 50.0599C544.639 48.8605 545.239 47.7418 546.036 46.8406C547.686 44.9956 550.275 44.0222 552.727 44.3209C555.18 44.6196 557.429 46.1986 558.539 48.3849C559.816 50.8958 559.578 53.8706 559.521 56.7013C559.459 59.5244 559.713 62.6157 561.658 64.6509C564.87 61.0523 566.553 56.1404 566.208 51.3665C565.74 44.8693 561.758 39.0267 561.317 32.5238C561.212 30.9904 561.379 29.2796 562.476 28.1953C563.434 27.2409 564.899 26.9869 566.243 27.0332C571.04 27.1813 575.484 30.7911 576.587 35.4384C577.842 40.649 575.153 46.0115 575.01 51.3977C577.294 52.335 579.972 50.7788 582.362 51.4247C585.252 52.2021 586.307 55.6436 586.897 58.5613C586.985 59.0119 587.079 59.4894 586.927 59.9281C586.734 60.4902 586.201 60.8481 585.705 61.1646C584.308 62.0615 582.873 62.9803 581.245 63.3188C580.097 63.5602 578.91 63.5039 577.732 63.5522C572.388 63.7902 567.179 66.4565 563.856 70.651C562.838 71.9408 562.013 73.881 563.1 75.0979C564.142 76.2709 566.127 75.7769 567.433 74.8625C568.731 73.9525 569.927 72.6903 571.505 72.4915C573.724 72.2125 575.545 74.1894 576.549 76.1564C577.642 78.3127 578.257 80.9051 577.327 83.1562C576.504 85.1353 574.647 86.4984 572.737 87.4906C571.209 88.2828 569.464 88.9291 567.803 88.525C566.717 88.2594 565.789 87.5821 564.846 86.9837C562.414 85.4398 559.676 84.364 556.826 83.8335C555.805 83.6613 553.13 85.1354 553.13 85.1354Z" fill="#E5B7A8"/>
</g>
<path d="M496.277 90.9511C498.939 90.8405 501.841 91.6686 503.343 93.8709C504.845 96.0732 504.085 99.744 501.531 100.498C500.511 100.803 499.414 100.618 498.38 100.384C490.118 98.5387 482.557 93.6939 477.434 86.9431C476.014 85.0809 474.766 82.4695 476.054 80.516C477.332 78.5742 480.356 78.7049 482.289 79.9964C484.224 81.2812 485.466 83.3488 487.074 85.0228C487.554 85.52 488.12 86.0187 488.812 86.074C489.806 86.1597 490.684 85.2528 490.882 84.2721C491.08 83.2915 490.759 82.2804 490.349 81.3609C487.568 75.1006 480.91 71.1985 478.284 64.8713C477.591 63.2038 477.383 60.9143 478.884 59.9143C480.782 58.6447 483.126 60.6677 484.499 62.4886C486.784 65.508 489.075 68.5361 491.36 71.5555C492.159 72.6151 493.703 73.7445 494.614 72.767C494.848 72.5117 494.955 72.1646 495.039 71.8256C495.899 68.1598 494.172 64.3722 491.929 61.3568C489.686 58.3414 486.877 55.7385 485.029 52.4603C483.541 49.8281 482.728 46.8056 482.688 43.7805C482.681 43.0776 482.723 42.3298 483.123 41.7504C483.6 41.0469 484.496 40.7449 485.347 40.7199C488.706 40.6223 491.056 44.0205 492.183 47.192C493.303 50.3618 494.05 53.981 496.71 56.0312C498.117 52.4252 497.596 48.3389 496.371 44.6712C495.147 41.0036 493.26 37.5994 491.884 33.9852C491.23 32.2777 490.814 30.0627 492.179 28.8454C492.607 28.4612 493.161 28.2484 493.731 28.1696C496.681 27.7674 498.851 30.9221 499.639 33.7935C500.428 36.6649 500.777 39.9677 503.064 41.8747C506.498 39.6141 506.326 33.3372 510.309 32.3371C513.363 31.5724 516.052 35.1336 515.793 38.2809C515.536 41.4214 513.449 44.0646 511.633 46.6428C508.325 51.3439 505.66 56.4992 503.743 61.9275C503.326 63.1094 503.288 64.9208 504.524 65.1002C504.969 65.1616 505.402 64.9452 505.773 64.6905C507.579 63.4177 508.313 61.1351 509.638 59.3651C510.957 57.5933 513.742 56.3806 515.271 57.9686C516.01 58.7376 516.159 59.9052 516.049 60.9601C515.722 64.2552 513.37 67.0008 510.815 69.1063C508.26 71.2118 505.353 72.934 503.17 75.4283C502.235 76.4934 501.539 78.3381 502.698 79.1546C503.76 79.9018 505.145 78.9067 506.092 78.0111C507.118 77.0355 508.238 76.0852 509.599 75.7196C510.959 75.354 512.627 75.7505 513.331 76.9728C513.686 77.5882 513.754 78.3293 513.674 79.0308C513.255 82.4531 509.638 84.4837 506.316 85.3863C502.994 86.2888 499.297 86.7584 496.873 89.2098L496.277 90.9511Z" fill="#A1A59F"/>
<path d="M502.254 154.91C501.391 154.575 500.438 155.335 500.172 156.225C499.918 157.126 500.158 158.081 500.403 158.99C500.974 161.129 501.546 163.28 502.117 165.419C502.589 167.193 502.987 169.311 501.767 170.651C500.295 172.27 497.431 171.396 496.141 169.602C494.852 167.809 494.638 165.48 494.175 163.302C493.714 161.135 492.786 158.794 490.799 157.885C488.836 156.984 486.219 157.651 484.695 156.111C491.109 150.356 490.909 139.78 496.514 133.198C497.742 131.765 499.739 130.485 501.377 131.41C502.905 132.271 503.048 134.426 502.806 136.189C502.561 138.009 502.129 139.787 501.509 141.512C501.024 142.849 500.446 144.395 501.199 145.61C501.92 146.76 503.61 146.953 504.796 146.32C505.982 145.687 506.745 144.471 507.325 143.247C508.725 140.269 509.346 136.909 509.104 133.605C508.943 131.487 508.446 129.383 508.488 127.258C508.546 124.855 509.3 122.488 509.134 120.095C508.986 118.067 508.217 115.806 509.378 114.141C510.463 112.579 512.87 112.483 514.485 113.481C516.111 114.477 517.093 116.257 517.847 118.024C518.652 119.911 519.289 121.96 519.053 123.998C518.838 125.791 517.977 127.413 517.386 129.11C516.441 131.873 516.237 134.907 516.835 137.78C518.001 138.647 519.588 137.507 520.411 136.317C524.117 130.989 523.627 123.875 524.277 117.367C524.68 113.36 525.567 109.42 526.919 105.643C527.513 103.968 528.497 102.098 530.225 101.847C532.408 101.542 533.926 103.97 534.727 106.064C535.683 108.597 536.484 111.393 535.708 113.993C535.236 115.57 534.226 116.949 533.882 118.553C533.538 120.157 534.271 122.25 535.882 122.442C537.529 122.641 538.635 120.834 539.305 119.297C540.911 115.633 542.526 111.956 544.132 108.292C545.331 105.562 546.765 102.59 549.503 101.502C549.898 101.341 550.312 101.235 550.735 101.266C552.075 101.382 552.871 102.89 553.058 104.256C553.671 108.796 550.413 112.919 549.782 117.455C549.656 118.302 549.641 119.214 550.025 119.987C551.098 122.157 554.29 121.786 556.398 120.651C558.507 119.516 560.77 117.887 563.041 118.651C564.966 119.293 566.031 121.568 565.83 123.612C565.629 125.656 564.433 127.465 563.029 128.935C561.646 130.391 559.919 131.666 557.93 131.908C555.673 132.178 553.505 131.111 551.299 130.556C547.309 129.558 543.135 130.256 539.097 130.957C537.233 131.285 535.182 131.721 534.06 133.265C533.73 133.716 533.508 134.37 533.825 134.842C534.012 135.114 534.337 135.251 534.648 135.368C536.746 136.111 539.027 136.321 541.228 135.979C541.991 135.856 542.802 135.681 543.513 135.981C544.019 136.195 544.398 136.624 544.764 137.043C545.334 137.697 545.904 138.351 546.463 139.007C547.087 139.723 547.753 140.57 547.642 141.519C547.572 142.128 547.194 142.643 546.794 143.081C545.075 144.954 542.564 146.044 540.035 145.996C535.241 145.921 530.784 142.019 526.102 143.033C525.104 143.247 524.008 143.878 523.921 144.915C523.863 145.534 524.199 146.13 524.646 146.56C526.05 147.899 528.288 147.735 529.937 148.728C532.056 150.01 532.689 152.808 532.846 155.295C532.931 156.584 532.927 157.955 532.286 159.073C531.056 161.197 527.981 161.436 525.817 160.322C523.654 159.208 522.133 157.149 520.53 155.298C518.927 153.446 516.979 151.633 514.583 151.336C513.604 151.213 512.553 151.377 511.784 151.996C510.375 153.121 510.363 155.38 511.218 156.983C512.073 158.586 513.57 159.704 514.97 160.86C517.127 162.631 519.335 165.062 518.96 167.857C518.607 170.568 515.642 172.426 512.987 171.982C510.333 171.538 508.21 169.221 507.444 166.592C506.811 164.416 506.983 162.088 506.537 159.873C506.1 157.645 504.745 155.32 502.549 154.913" fill="#E67D0A"/>
<path d="M494.112 721.933C501.857 725.871 511.33 724.46 519.155 720.71C526.98 716.96 533.593 711.11 540.524 705.847C543.799 703.361 547.784 700.875 551.713 702.017C556.572 703.428 558.406 710.193 556.088 714.765C553.77 719.336 548.656 721.784 543.663 722.54C553.258 722.784 562.9 720.885 571.706 717.016C574.768 715.671 577.756 714.071 580.313 711.888C583.43 709.225 585.864 705.721 589.313 703.524C592.762 701.321 597.922 700.927 600.438 704.2C602.176 706.461 602.056 709.638 601.636 712.473C601.204 715.416 600.325 718.653 597.804 720.158C597.168 720.541 596.403 720.835 596.07 721.505C595.553 722.554 596.515 723.852 597.638 724.129C598.761 724.405 599.92 724.003 601.025 723.657C606.371 721.981 613.232 722.122 616.339 726.863C618.944 730.845 617.514 736.565 614.137 739.885C610.76 743.204 605.96 744.554 601.3 745.121C590.453 746.436 579.53 744.155 568.756 742.3C565.795 741.791 562.718 741.323 559.835 742.163C558.288 742.614 556.729 743.584 556.24 745.144C555.95 746.066 555.748 747.317 556.433 747.994C557.948 749.473 561.271 749.528 564.728 750.221C568.184 750.914 573.53 754.247 574.436 757.715C575.662 762.404 575.175 765.951 572.016 768.352C568.856 770.753 564.607 769.964 560.681 770.344C557.881 770.615 528.642 766.665 519.948 758.078C510.857 749.098 492.359 733.444 493.901 721.747" fill="#FAD2C9"/>
<defs>
<filter id="filter0_d" x="80.7573" y="201.967" width="520.415" height="507.907" filterUnits="userSpaceOnUse" color-interpolation-filters="sRGB">
<feFlood flood-opacity="0" result="BackgroundImageFix"/>
<feColorMatrix in="SourceAlpha" type="matrix" values="0 0 0 0 0 0 0 0 0 0 0 0 0 0 0 0 0 0 127 0"/>
<feMorphology radius="2" operator="dilate" in="SourceAlpha" result="effect1_dropShadow"/>
<feOffset dy="1"/>
<feGaussianBlur stdDeviation="1"/>
<feColorMatrix type="matrix" values="0 0 0 0 0.203837 0 0 0 0 0.225675 0 0 0 0 0.245833 0 0 0 0.18 0"/>
<feBlend mode="normal" in2="BackgroundImageFix" result="effect1_dropShadow"/>
<feBlend mode="normal" in="SourceGraphic" in2="effect1_dropShadow" result="shape"/>
</filter>
<clipPath id="clip0">
<rect width="94.2839" height="100.367" fill="white" transform="matrix(-0.866025 0.5 0.5 0.866025 99.3276 151.409)"/>
</clipPath>
<clipPath id="clip1">
<rect width="104.182" height="177.265" fill="white" transform="translate(17.1456 382.001) rotate(-18.2682)"/>
</clipPath>
<clipPath id="clip2">
<rect width="138.368" height="154.175" fill="white" transform="matrix(0.645545 0.763722 -0.763687 0.645587 385.642 90.0156)"/>
</clipPath>
<clipPath id="clip3">
<rect width="122.188" height="130.071" fill="white" transform="translate(547.028 465.077) rotate(4.00448)"/>
</clipPath>
<clipPath id="clip4">
<rect width="134.784" height="147.804" fill="white" transform="translate(428.408 636.21) rotate(105)"/>
</clipPath>
<clipPath id="clip5">
<rect width="136.779" height="147.474" fill="white" transform="matrix(-0.962472 -0.271382 -0.271382 0.962472 634.601 577.207)"/>
</clipPath>
<clipPath id="clip6">
<rect width="62.153" height="66.4394" fill="white" transform="translate(165.027 36.4346)"/>
</clipPath>
<clipPath id="clip7">
<rect width="63.9634" height="63.9634" fill="white" transform="translate(244.326 58.6553) rotate(-66.4929)"/>
</clipPath>
<clipPath id="clip8">
<rect width="62.9421" height="67.0029" fill="white" transform="matrix(-0.5 -0.866026 -0.866026 0.5 601.724 78.085)"/>
</clipPath>
</defs>
</svg>
