<svg width="745" height="621" viewBox="0 0 745 621" fill="none" xmlns="http://www.w3.org/2000/svg">
<g clip-path="url(#clip0)">
<path d="M557.596 245.357C555.68 246.014 554.026 247.235 552.4 248.449C551.157 249.378 549.794 250.536 549.821 252.081C549.865 254.474 553.06 255.392 555.419 254.967C559.067 254.306 562.248 252.182 565.707 250.872C569.167 249.563 573.514 249.27 576.185 251.829C576.658 252.285 577.076 252.859 577.135 253.513C577.185 254.105 576.939 254.688 576.665 255.22C573.949 260.543 568.354 264.165 562.413 264.978C556.472 265.791 550.315 263.951 545.478 260.411C541.315 257.361 537.891 252.059 539.73 247.254C540.038 246.443 540.502 245.664 540.576 244.799C540.651 243.933 540.197 242.925 539.332 242.784C538.796 242.694 538.274 242.957 537.786 243.182C534.881 244.512 531.486 244.755 528.419 243.853C525.648 243.041 522.906 240.843 522.927 237.959C522.94 236.484 523.668 235.109 524.567 233.936C526.861 230.934 530.931 228.849 534.462 230.202C535.85 230.735 537.029 231.747 538.45 232.162C539.871 232.577 541.791 232.072 542.106 230.632C541.128 228.139 540.15 225.645 539.167 223.16C538.787 222.183 538.395 221.107 538.711 220.105C538.88 219.593 539.216 219.154 539.6 218.789C541.1 217.376 543.457 216.972 545.341 217.803C547.225 218.634 548.509 220.659 548.462 222.713C548.42 224.298 547.662 225.804 547.701 227.39C547.739 228.975 549.236 230.733 550.694 230.089C551.191 229.869 551.54 229.426 551.853 228.985C554.91 224.766 556.587 219.742 558.254 214.816C559.921 209.889 561.683 204.879 564.859 200.752C568.036 196.625 572.936 193.466 578.153 193.684C581.926 193.843 585.384 195.682 588.691 197.481C589.342 197.832 590.05 198.262 590.208 198.985C590.295 199.392 590.194 199.805 590.076 200.208C588.455 205.494 584.116 209.436 579.963 213.117C574.421 218.021 568.892 222.922 563.349 227.826C561.093 229.827 558.799 231.853 557.079 234.324C556.814 234.7 556.552 235.113 556.543 235.567C556.52 236.382 557.296 237.035 558.099 237.163C558.901 237.291 559.713 237.046 560.485 236.788C567.106 234.642 573.797 232.456 579.721 228.805C583.794 226.297 587.441 223.13 591.555 220.691C595.669 218.252 600.517 216.558 605.229 217.406C606.828 217.693 608.434 218.306 609.578 219.459C610.722 220.611 611.323 222.381 610.778 223.919C610.173 225.64 608.377 226.607 606.739 227.423C599.319 231.087 591.899 234.751 584.482 238.428C583.532 238.893 582.425 239.648 582.582 240.692C582.718 241.632 583.831 242.1 584.79 242.157C585.75 242.215 586.767 242.052 587.617 242.496C589.015 243.23 589.14 245.383 588.115 246.575C587.089 247.767 585.336 248.104 583.769 247.881C582.202 247.658 580.768 246.947 579.294 246.364C573.893 244.235 567.846 243.758 562.161 245.005L557.596 245.357Z" fill="#E98F87"/>
</g>
<g clip-path="url(#clip1)" filter="url(#filter0_d)">
<path d="M199.243 264.157C192.127 254.484 185.034 244.811 177.918 235.137C174.201 230.068 169.532 224.491 163.315 224.376C157.028 224.258 152.155 230.293 151.431 236.502C150.706 242.712 153.084 248.915 155.661 254.691C164.017 273.451 174.934 291.112 188.001 307.066C198.751 303.772 203.538 291.634 211.924 284.28C222.459 275.055 238.064 273.923 249.964 266.493C264.941 257.135 271.922 239.401 278.022 222.803C282.585 210.389 287.148 197.975 291.7 185.549C293.448 180.855 295.208 175.962 294.628 170.946C293.907 164.613 289.144 158.8 283.02 156.79C276.908 154.791 269.8 156.712 265.702 161.457C262.167 165.562 260.984 171.161 259.93 176.519C255.935 196.654 251.941 216.767 247.947 236.902C247.01 241.607 243.712 247.686 239.198 245.756C235.624 244.227 235.774 239.207 236.523 235.481C241.244 211.689 244.542 187.587 246.383 163.327C246.849 157.134 247.186 150.714 244.867 144.876C242.548 139.037 236.798 133.993 230.605 134.533C224.037 135.11 219.528 141.682 218.722 148.206C217.915 154.73 219.823 161.318 221.108 167.83C224.539 185.199 223.517 203.298 218.157 219.906C200.109 205.921 207.176 175.496 192.087 158.362C189.735 155.696 186.291 153.292 182.907 154.134C178.583 155.231 177.329 160.711 177.508 165.202C178.177 181.709 187.423 196.677 194.79 211.662C202.156 226.648 207.844 244.361 201.272 259.331L199.243 264.157Z" fill="#5085A7"/>
</g>
<path d="M492.344 245.929C492.025 245.033 490.752 248.883 491.13 250.504C491.548 252.356 493.6 253.427 494.314 255.189C495.679 258.56 492.486 261.982 489.39 263.909C486.538 265.682 483.31 267.152 479.959 267.001C475.015 266.779 471.002 263.157 466.916 260.377C462.661 257.468 457.897 255.318 452.904 254.019C449.192 253.062 445.342 252.558 441.752 251.211C438.162 249.865 434.742 247.448 433.343 243.882C431.32 238.73 434.429 232.532 439.356 229.979C444.279 227.441 450.4 228.078 455.403 230.478C460.405 232.877 464.464 236.832 468.198 240.92C469.854 238.862 468.467 235.823 466.905 233.683C456.917 220.12 440.971 212.435 425.557 205.55C419.94 203.038 413.472 199.402 413.154 193.269C412.832 186.899 420.118 182.323 426.491 182.909C432.863 183.495 438.307 187.533 443.445 191.32C448.768 195.241 454.168 199.064 459.649 202.774C462.144 204.47 466.44 205.651 467.442 202.81C467.805 201.775 467.459 200.601 466.919 199.646C465.044 196.274 461.319 194.486 457.867 192.753C446.99 187.35 436.672 180.812 427.146 173.286C421.828 169.096 416.579 164.333 414.133 158.038C411.688 151.743 412.943 143.546 418.628 139.877C424.233 136.255 432.004 138.261 437.159 142.492C442.314 146.723 445.602 152.719 449.349 158.213C454.348 165.545 460.321 172.156 466.282 178.748C466.976 179.507 467.987 180.352 468.909 179.888C469.458 179.612 469.704 178.952 469.833 178.344C471.093 172.464 466.713 167.054 463.36 162.054C460.007 157.054 457.736 149.606 462.227 145.585C465.068 143.032 469.346 143.143 473.172 143.421C476.217 143.642 479.419 143.906 481.946 145.611C485.729 148.192 486.857 153.206 487.229 157.748C488.143 168.855 486.442 180.159 482.27 190.499C480.843 194.037 479.109 197.646 479.411 201.443C479.713 205.24 483.065 209.108 486.802 208.332C491.129 207.442 492.188 201.863 492.286 197.463C492.384 193.063 493.337 187.506 497.634 186.474C500.679 185.749 503.673 187.984 505.382 190.586C509.689 197.209 507.954 207 501.655 211.755C498.382 214.21 494.318 215.321 490.732 217.304C487.146 219.286 483.82 222.757 484.102 226.819C484.42 231.499 490.458 234.715 494.531 232.373C497.682 230.562 498.951 226.66 501.745 224.348C504.691 221.908 509.265 221.676 512.46 223.796C515.655 225.916 517.152 230.251 515.99 233.877C514.58 238.299 509.978 240.905 505.513 242.18C501.049 243.455 496.273 243.869 492.121 245.937" fill="#A9BFDE"/>
<g clip-path="url(#clip2)">
<path d="M496.727 135.455C495.854 136.251 494.518 136.141 493.352 135.942C491.69 135.665 490.05 135.296 488.432 134.847C486.727 134.37 485.022 133.803 483.247 133.787C481.478 133.777 479.587 134.424 478.631 135.91C477.283 137.994 478.271 140.853 479.922 142.701C482.15 145.181 485.398 146.564 488.69 147.13C491.976 147.703 495.348 147.535 498.683 147.365C499.871 147.302 501.08 147.238 502.181 146.786C503.506 146.242 504.535 145.182 505.522 144.146C508.248 141.302 510.974 138.468 513.699 135.624C515.201 134.058 516.732 132.459 517.644 130.491C517.839 130.07 518.011 129.629 518.053 129.163C518.139 128.344 517.83 127.526 517.384 126.828C515.861 124.42 512.11 123.396 510.021 125.346C509.069 126.242 508.62 127.534 508.096 128.73C507.526 130.035 506.812 131.284 505.982 132.449C505.715 132.815 505.375 133.208 504.925 133.201C504.557 133.196 504.257 132.91 504.022 132.631C501.464 129.606 501.989 124.93 503.931 121.481C505.874 118.033 508.975 115.401 511.592 112.43C512.815 111.04 514.017 109.29 513.608 107.488C513.184 105.612 511.03 104.485 509.116 104.739C507.208 104.998 505.592 106.341 504.487 107.916C503.381 109.491 502.685 111.309 501.851 113.044C501.365 114.061 500.337 115.233 499.325 114.727C498.626 114.378 498.508 113.438 498.591 112.667C498.83 110.423 500 108.392 501.142 106.437C503.651 102.163 506.155 97.8845 508.659 93.6162C509.417 92.3167 510.199 90.9679 510.321 89.4655C510.437 87.9687 509.688 86.2875 508.251 85.8379C507.098 85.4784 505.819 86.0042 504.96 86.8413C504.1 87.6783 503.566 88.7946 503.058 89.8829C502.163 91.7863 501.274 93.684 500.38 95.5874C500.066 96.2547 499.487 97.049 498.779 96.8236C498.393 96.7021 498.172 96.305 497.991 95.9429C497.321 94.6031 496.645 93.2689 495.98 91.9341C495.249 90.4807 494.45 88.946 493.055 88.1002C491.659 87.2544 489.491 87.4536 488.785 88.9204C488.471 89.5771 488.504 90.3415 488.621 91.0585C488.87 92.5982 489.495 94.0789 490.413 95.346C491.353 96.6331 492.589 97.6796 493.6 98.9094C494.612 100.139 495.432 101.662 495.299 103.245C495.162 104.833 493.76 106.367 492.173 106.176C491.689 106.119 491.244 105.915 490.814 105.685C488.905 104.645 487.36 102.961 486.492 100.973C486.079 100.023 485.817 99.0055 485.305 98.1089C484.151 96.0784 481.713 94.8508 479.39 95.144C478.955 95.2009 478.518 95.3059 478.158 95.5501C476.955 96.3537 477.109 98.1808 477.729 99.4863C479.176 102.522 482.178 104.441 484.835 106.507C487.488 108.579 489.911 110.941 492.039 113.544C493.648 115.505 495.153 117.867 494.838 120.376C494.701 121.501 494.084 122.665 493.017 123.056C491.495 123.617 489.92 122.441 488.744 121.327C485.59 118.337 482.516 115.075 480.967 111.024C480.501 109.795 480.157 108.474 479.307 107.458C478.458 106.443 476.886 105.873 475.797 106.617C475.021 107.146 474.737 108.152 474.62 109.085C474.302 111.62 474.797 114.253 476.022 116.497C477.587 119.355 480.21 121.472 482.758 123.502C486.264 126.291 489.765 129.086 493.271 131.876C494.409 132.784 495.546 133.693 496.688 134.596L496.727 135.455Z" fill="#F7D29A"/>
</g>
<g clip-path="url(#clip3)">
<path d="M425.146 132.657C430.676 129.909 434.859 125.174 438.883 120.549C442.275 116.662 445.684 112.737 448.26 108.277C451.419 102.806 453.228 96.6802 454.61 90.5345C455.173 88.0166 455.539 85.0204 453.682 83.1892C452.365 81.9056 450.287 81.6666 448.498 82.1226C446.709 82.5786 445.151 83.6247 443.639 84.6573C439.61 87.3762 435.589 90.1071 431.56 92.8259C430.72 86.9669 430.178 80.9366 431.484 75.1695C434.038 63.8477 443.337 54.8331 445.55 43.4317C445.751 42.3867 445.892 41.3206 445.717 40.2747C445.157 36.9084 441.301 34.7565 437.868 35.1961C434.445 35.6478 431.591 38.1019 429.739 40.9815C423.473 50.7477 426.744 65.0979 418.579 73.3963C413.949 56.8237 420.5 39.5388 423.122 22.5769C423.728 18.6903 424.098 14.6048 422.725 10.8985C421.724 8.21887 419.224 5.62161 416.367 6.09605C414.474 6.40727 413.076 7.96735 411.913 9.47242C409.048 13.1737 406.56 17.2463 405.313 21.7323C403.979 26.542 404.137 31.6175 404.03 36.6054C403.835 45.6001 402.77 54.5837 400.858 63.3693C395.616 53.9633 392.66 43.3396 392.301 32.6307C392.214 30.0123 392.24 27.2436 390.899 24.9717C389.425 22.4758 386.307 21.0323 383.419 21.5014C380.53 21.9704 378.068 24.3329 377.506 27.1579C376.622 31.6001 379.971 35.6339 382.405 39.4899C384.727 43.1787 386.327 47.252 387.91 51.3011C390.674 58.3571 393.44 65.4027 396.204 72.4587C396.577 73.4116 396.963 74.4195 396.821 75.4324C396.689 76.4471 395.85 77.4466 394.806 77.3845C394.252 77.3533 393.758 77.036 393.295 76.724C390.038 74.5264 386.641 71.7651 386.067 67.9202C385.835 66.3987 386.022 64.6845 385.047 63.4804C383.918 62.1019 381.646 62.1155 380.143 63.0967C378.642 64.0677 377.774 65.7292 377.085 67.3576C375.711 70.647 374.833 74.2435 375.377 77.7658C375.921 81.288 378.063 84.7131 381.378 86.1374C383.661 87.1206 386.226 87.0936 388.687 87.4828C391.148 87.872 393.767 88.9021 394.85 91.1088C395.351 92.1364 395.652 93.5108 396.773 93.8084C397.873 94.1025 398.833 93.0918 399.504 92.1906C401.171 89.9462 402.847 87.7138 404.514 85.4694C408.003 89.0719 406.984 94.8564 405.724 99.6683C405.469 100.651 405.168 101.711 404.387 102.371C403.48 103.137 402.163 103.166 400.971 103.152C398.276 103.125 395.408 103.1 393.106 104.474C390.802 105.858 389.532 109.229 391.293 111.245C392.417 112.527 394.292 112.816 395.982 113.126C407.446 115.204 417.919 122.223 424.101 131.981L425.146 132.657Z" fill="#FAD2C9"/>
</g>
<path d="M287.723 239C286.659 239.687 286.991 241.452 288.204 241.628C309.025 244.584 327.047 263.904 348.283 263.137C352.896 262.974 357.807 261.627 360.818 257.638C362.689 255.157 363.4 251.724 362.622 248.621C361.585 244.48 358.726 243.609 355.995 242.812C346.27 239.964 336.552 237.115 326.827 234.259C326.981 228.55 333.808 226.746 338.901 226.965C352.825 227.549 366.657 230.289 379.878 235.078C385.059 236.96 390.336 239.185 395.89 237.804C399.458 236.917 402.613 234.245 403.689 230.342C406.144 221.438 396.208 214.638 388.016 212.542C379.537 210.372 370.861 209.127 362.151 208.829C375.171 201.676 389.474 194.323 403.565 197.792C412.361 199.953 420.216 206.231 429.222 206.865C439.121 207.562 449.769 200.407 450.33 187.703C450.419 185.625 450.171 183.516 449.544 181.56C446.344 171.541 436.891 169.267 428.764 170.815C422.605 171.984 416.864 175.008 410.917 177.189C400.992 180.827 390.395 182.098 380.041 180.896C383.111 171.14 389.368 162.654 397.355 157.413C402.334 154.149 408.246 151.812 409.538 144.161C410.358 139.298 408.669 134.289 405.359 131.053C397.76 123.614 386.74 126.564 379.749 133.514C373.967 139.258 370.447 147.276 367.521 155.264C364.759 162.813 362.403 170.541 360.468 178.403C359.142 183.791 357.922 189.455 353.758 193.179C351.586 195.121 348.662 195.929 346.05 194.937C339.189 192.335 340.471 181.506 342.596 173.876C344.777 166.033 344.467 154.21 336.621 154.026C334.72 153.983 332.878 154.821 331.354 156.121C319.927 165.865 315.937 184.924 322.559 199.109C323.842 201.864 323.912 205.245 322.246 207.758C317.825 214.433 310.864 206.589 310.389 199.765C309.892 192.647 312.025 185.465 309.568 178.393C308.984 176.725 308.078 175.182 306.866 174.019C300.561 167.931 292.742 174.39 290.312 181.76C288.989 185.768 288.671 190.175 289.403 194.348C290.452 200.333 293.525 205.557 295.933 211.021C298.334 216.486 300.112 222.834 298.376 228.637C297.245 232.352 291.607 236.506 287.723 239Z" fill="#3A5751"/>
<g clip-path="url(#clip4)">
<path d="M624.317 209.88C622.36 210.154 620.093 209.882 618.892 208.315C618.263 207.492 618.025 206.435 617.559 205.5C615.93 202.326 611.107 201.388 608.408 203.745C605.709 206.101 605.998 210.997 608.946 213.02C611.834 215.006 616.227 214.314 618.527 216.949C621.544 220.408 618.846 227.278 622.877 229.471C624.289 230.241 626.018 230.01 627.588 229.69C637.227 227.708 646.206 222.628 652.839 215.374C654.77 213.258 656.607 210.244 655.269 207.708C654.266 205.813 651.803 205.102 649.695 205.485C647.588 205.869 645.757 207.115 644.001 208.328C642.142 209.61 640.284 210.893 638.425 212.176C637.597 210.569 638.84 208.716 640.029 207.349C645.297 201.32 650.869 195.549 656.729 190.082C658.699 188.25 660.751 186.362 661.819 183.9C662.887 181.438 662.685 178.186 660.596 176.489C658.13 174.488 654.268 175.55 651.957 177.73C649.645 179.91 648.354 182.926 646.561 185.545C644.769 188.164 642.057 190.589 638.886 190.465C640.878 176.456 657.603 167.59 658.463 153.451C658.643 150.457 657.715 146.962 654.959 145.747C652.593 144.699 649.688 145.828 647.992 147.789C646.296 149.749 645.569 152.341 645.046 154.872C643.907 160.39 642.882 167.037 637.727 169.359C635.382 167.819 634.237 164.677 635.027 161.988C635.828 159.285 638.323 156.435 636.765 154.073C636.352 153.442 635.701 153.01 635.045 152.624C632.08 150.882 628.383 149.876 625.203 151.188C620.642 153.06 619.035 159.21 620.902 163.763C622.124 166.739 624.441 169.105 626.11 171.851C628.707 176.124 629.673 181.159 630.402 186.093C630.57 187.204 630.712 188.373 630.289 189.4C629.292 191.818 625.585 192.003 623.604 190.279C621.613 188.568 620.976 185.788 620.676 183.184C620.392 180.778 620.086 177.975 618.031 176.672C615.875 175.295 612.804 176.514 611.401 178.656C609.998 180.798 609.891 183.514 610.071 186.057C610.237 188.502 610.757 191.164 612.658 192.711C613.83 193.67 615.355 194.057 616.803 194.521C621.02 195.899 624.916 198.245 628.082 201.338C629.142 202.368 630.171 203.58 630.376 205.041C630.582 206.502 629.609 208.217 628.125 208.28C628.173 208.307 626.273 209.607 624.317 209.88Z" fill="#F7D29A"/>
</g>
<path d="M529.345 201.621C528.826 202.139 529.074 203.07 529.637 203.546C530.21 204.016 530.981 204.146 531.719 204.257C533.456 204.524 535.201 204.793 536.938 205.06C538.377 205.281 540.044 205.666 540.628 206.975C541.335 208.555 539.786 210.35 538.072 210.714C536.357 211.077 534.596 210.492 532.866 210.135C531.144 209.781 529.147 209.708 527.853 210.858C526.572 211.992 526.222 214.099 524.617 214.713C522.48 208.241 514.732 205.026 511.736 198.878C511.087 197.533 510.794 195.681 511.988 194.789C513.101 193.957 514.713 194.538 515.916 195.273C517.161 196.029 518.315 196.906 519.371 197.904C520.188 198.679 521.127 199.589 522.25 199.43C523.316 199.274 523.995 198.111 523.914 197.052C523.832 195.992 523.192 195.054 522.487 194.245C520.77 192.285 518.526 190.768 516.048 189.894C514.457 189.337 512.77 189.029 511.239 188.323C509.511 187.517 508.032 186.22 506.24 185.58C504.719 185.042 502.831 184.88 501.991 183.511C501.202 182.229 501.9 180.457 503.14 179.605C504.382 178.744 505.989 178.599 507.514 178.614C509.142 178.631 510.834 178.821 512.24 179.639C513.474 180.364 514.378 181.504 515.423 182.47C517.129 184.032 519.269 185.144 521.547 185.624C522.549 185.055 522.227 183.544 521.625 182.57C518.935 178.195 513.61 176.29 509.088 173.751C506.304 172.187 503.724 170.293 501.411 168.114C500.383 167.152 499.338 165.845 499.707 164.515C500.181 162.837 502.43 162.51 504.207 162.596C506.352 162.709 508.64 163.017 510.282 164.405C511.277 165.248 511.957 166.417 513.013 167.176C514.069 167.934 515.824 168.068 516.477 166.963C517.147 165.835 516.186 164.46 515.284 163.486C513.133 161.16 510.976 158.822 508.826 156.496C507.224 154.761 505.523 152.778 505.605 150.451C505.614 150.114 505.669 149.78 505.826 149.484C506.338 148.55 507.688 148.454 508.74 148.752C512.235 149.751 514.191 153.419 517.286 155.317C517.862 155.677 518.52 155.978 519.204 155.946C521.123 155.859 521.872 153.43 521.72 151.543C521.567 149.657 521.105 147.501 522.385 146.1C523.465 144.91 525.458 144.862 526.879 145.657C528.301 146.452 529.233 147.892 529.854 149.376C530.471 150.84 530.847 152.494 530.389 154.011C529.865 155.731 528.398 156.961 527.291 158.382C525.293 160.953 524.468 164.196 523.69 167.341C523.334 168.795 522.996 170.418 523.761 171.721C523.983 172.103 524.388 172.472 524.832 172.392C525.089 172.343 525.293 172.152 525.476 171.963C526.686 170.681 527.566 169.096 528.019 167.394C528.173 166.803 528.305 166.16 528.75 165.741C529.067 165.443 529.499 165.305 529.92 165.173C530.577 164.968 531.235 164.763 531.889 164.567C532.608 164.343 533.437 164.13 534.091 164.512C534.511 164.756 534.765 165.193 534.956 165.622C535.768 167.461 535.759 169.625 534.918 171.441C533.334 174.887 529.077 176.874 528.32 180.585C528.157 181.375 528.266 182.369 528.992 182.762C529.424 183 529.964 182.947 530.419 182.76C531.84 182.169 532.435 180.496 533.682 179.619C535.29 178.491 537.525 178.923 539.382 179.599C540.346 179.947 541.341 180.386 541.949 181.205C543.1 182.77 542.293 185.072 540.793 186.284C539.294 187.496 537.313 187.943 535.456 188.515C533.599 189.087 531.66 189.921 530.68 191.561C530.279 192.231 530.063 193.043 530.267 193.797C530.635 195.174 532.273 195.9 533.71 195.791C535.148 195.682 536.438 194.953 537.724 194.307C539.699 193.308 542.17 192.483 544.082 193.642C545.939 194.759 546.344 197.495 545.174 199.276C544.005 201.056 541.644 201.857 539.489 201.576C537.706 201.342 536.069 200.479 534.317 200.098C532.559 199.706 530.437 199.948 529.441 201.409" fill="#E29387"/>
<path d="M567.484 174.08C566.34 173.921 565.276 173.234 564.671 172.254C564.028 171.218 563.892 169.928 563.296 168.869C562.199 166.909 559.452 166.087 557.449 167.141C555.447 168.196 554.552 170.956 555.571 172.957C556.188 174.163 557.33 174.998 558.155 176.072C559.24 177.483 559.73 179.252 560.2 180.968C560.756 182.993 561.232 185.411 559.846 187.014C562.255 187.64 564.669 188.269 567.075 188.9C568.134 189.174 569.198 189.451 570.289 189.517C571.273 189.573 572.264 189.456 573.238 189.308C574.781 189.07 576.337 188.733 577.7 187.956C579.062 187.179 580.204 185.897 580.49 184.357C580.933 181.937 578.759 179.425 576.31 179.517C575.373 179.551 574.449 179.91 573.514 179.84C572.58 179.769 571.574 179.003 571.77 178.082C571.944 177.262 572.901 176.908 573.708 176.695C575.64 176.187 577.672 175.678 579.607 176.138C580.523 176.353 581.376 176.78 582.237 177.156C584.811 178.261 587.551 178.91 590.28 179.552C590.93 179.704 591.586 179.859 592.253 179.794C593.097 179.715 593.879 179.284 594.507 178.717C595.791 177.544 596.453 175.719 596.221 174.002C595.989 172.285 594.858 170.722 593.309 169.963C591.53 169.089 589.438 169.282 587.445 169.348C585.458 169.416 583.28 169.265 581.83 167.918C584.335 165.635 587.778 164.411 591.142 164.611C595.72 164.882 599.869 167.623 604.451 167.875C605.531 167.935 606.734 167.803 607.488 167.024C608.151 166.344 608.317 165.314 608.272 164.372C608.126 161.01 605.545 157.925 602.264 157.192C598.584 156.358 594.833 158.291 591.042 158.438C590.362 156.845 591.434 154.953 590.958 153.283C590.385 151.263 587.953 150.554 585.894 150.166C585.576 150.108 585.239 150.047 584.931 150.157C584.537 150.297 584.29 150.674 584.072 151.024C583.453 152.012 582.818 153.027 582.595 154.171C582.435 154.978 582.485 155.811 582.461 156.637C582.341 160.387 580.51 164.063 577.586 166.43C576.687 167.156 575.329 167.751 574.462 166.999C573.627 166.279 573.958 164.883 574.59 163.959C575.219 163.041 576.097 162.191 576.223 161.083C576.4 159.524 574.992 158.264 573.598 157.578C572.071 156.83 570.24 156.422 568.664 157.093C567.278 157.688 566.334 159.002 565.653 160.35C565.108 161.429 564.669 162.658 564.968 163.82C565.165 164.579 565.65 165.224 566.079 165.88C567.188 167.571 567.969 169.483 568.368 171.476C568.498 172.191 567.484 174.08 567.484 174.08Z" fill="#E67D0A"/>
<g clip-path="url(#clip5)">
<path d="M335.94 86.1974C337.834 92.8497 331.423 100.107 334.217 106.453C336.574 104.44 338.288 101.731 339.068 98.7813C339.565 96.9173 339.702 94.9374 340.568 93.1977C341.434 91.458 343.336 89.9751 345.282 90.3976C347.364 90.8449 348.419 93.2639 348.119 95.3019C347.819 97.3398 346.55 99.1127 345.47 100.886C343.919 103.437 342.676 106.163 341.785 108.996C341.279 110.603 341.005 112.624 342.333 113.701C344.065 115.093 346.567 113.594 348.479 112.426C350.716 111.05 353.261 110.139 355.884 109.758C356.989 109.601 358.181 109.543 359.183 110.023C361.437 111.108 361.506 114.472 359.895 116.344C358.275 118.216 355.661 118.929 353.175 119.376C351.247 119.724 349.207 120.022 347.664 121.19C346.122 122.359 345.385 124.761 346.704 126.161C348.65 128.224 352.224 126.178 355.044 126.774C357.469 127.288 358.952 129.781 359.209 132.167C359.569 135.464 358.078 138.861 355.515 141.065C352.944 143.268 349.387 144.287 345.967 144.014C345.53 143.981 345.085 143.914 344.716 143.691C344.416 143.5 344.193 143.219 344.022 142.912C343.122 141.305 343.525 139.35 343.628 137.527C343.722 135.705 343.216 133.509 341.442 132.88C340.028 132.374 338.425 133.161 337.457 134.28C336.488 135.398 335.966 136.806 335.246 138.082C333.257 141.628 329.598 144.262 325.509 145.091C324.601 145.273 323.53 145.323 322.895 144.677C321.97 143.724 322.698 142.183 323.478 141.123C326.838 136.566 330.772 132.407 335.177 128.771C337.028 127.238 339.188 125.101 338.288 122.905C337.534 121.05 334.851 120.569 332.974 121.414C331.097 122.259 329.846 123.974 328.629 125.598C327.095 127.636 325.458 129.665 323.332 131.132C321.207 132.598 318.507 133.46 315.962 132.929C313.408 132.399 311.162 130.237 311.119 127.71C311.059 124.214 314.805 121.853 318.259 120.826C321.713 119.799 325.629 119.244 328.003 116.617C328.603 115.955 329.092 114.994 328.655 114.215C328.509 113.95 328.269 113.743 328.021 113.552C325.244 111.498 321.301 112.036 317.942 112.972C314.582 113.909 311.034 115.143 307.683 114.19C303.483 112.997 300.92 108.018 302.472 104.058C304.023 100.099 309.354 98.0109 313.322 99.8086C315.285 100.703 316.793 102.319 318.687 103.354C320.444 104.315 322.518 104.729 324.532 104.514C324.927 104.473 325.338 104.398 325.629 104.141C325.861 103.934 325.981 103.644 326.084 103.354C327.035 100.728 327.138 97.8203 326.392 95.1362C326.041 93.8687 325.492 92.6343 325.312 91.3337C324.918 88.5667 326.341 85.6424 328.783 84.1595C330.249 83.2647 332.152 82.9002 333.746 83.5464C335.34 84.1926 335.94 86.1974 335.94 86.1974Z" fill="#F7D29A"/>
</g>
<g clip-path="url(#clip6)">
<path d="M557.883 157.849C556.31 152.146 558.513 145.984 562.046 141.23C565.579 136.477 570.343 132.809 574.759 128.852C576.845 126.982 579.026 124.636 578.795 121.855C578.51 118.416 574.271 116.304 570.931 117.261C567.59 118.218 565.283 121.324 564.113 124.571C565.236 118.111 567.785 111.898 571.529 106.503C572.83 104.627 574.291 102.834 576.08 101.405C578.262 99.6647 580.911 98.4907 582.829 96.4667C584.751 94.4435 585.703 91.0374 583.87 88.9249C582.603 87.4656 580.482 87.1313 578.546 87.0431C576.538 86.9481 574.274 87.1151 572.939 88.6075C572.6 88.9838 572.303 89.458 571.814 89.5934C571.049 89.8034 570.317 88.9894 570.285 88.2009C570.252 87.4124 570.673 86.6879 571.051 85.9927C572.877 82.6297 573.702 78.0144 570.975 75.3144C568.684 73.0495 564.701 73.2616 562.049 75.091C559.396 76.9204 557.859 79.9605 556.859 83.0085C554.536 90.1045 554.586 97.7205 554.373 105.181C554.315 107.231 554.213 109.354 553.27 111.176C552.764 112.153 551.913 113.071 550.813 113.195C550.163 113.269 549.306 113.242 548.949 112.695C548.172 111.486 548.58 109.253 548.584 106.846C548.587 104.44 547.093 100.423 544.915 99.3642C541.971 97.9309 539.554 97.7942 537.54 99.5978C535.526 101.401 535.48 104.351 534.702 106.932C534.148 108.773 532.853 128.878 537.381 135.823C542.118 143.086 550.019 157.522 557.978 158.015" fill="#5085A7"/>
</g>
<g filter="url(#filter1_d)">
<path fill-rule="evenodd" clip-rule="evenodd" d="M147.122 387.855C145.23 363.216 165.783 309.118 181.239 288.483C195.294 269.72 228.411 275.634 245.317 258.779C265.292 238.863 265.286 222.231 293.873 213.603C322.103 205.083 355.581 213.689 380.848 227.642C405.04 241.001 444.087 209.576 476.933 213.603C508.164 220.439 552.582 249.833 559.135 283.699C565.733 317.795 532.527 353.157 529.281 382.105C526.441 407.427 547.417 433.812 543.132 458.978C538.346 487.084 507.647 530.471 476.933 539.464C440.371 550.17 408.033 508.411 369.675 505.102C346.282 503.084 326.723 528.447 303.649 524.515C280.672 520.6 227.309 526.436 208.909 513.738C190.377 500.948 192.289 462.999 176.142 447.921C156.668 429.736 149.033 412.756 147.122 387.855Z" fill="#F0D9C1"/>
</g>
<g clip-path="url(#clip7)">
<path d="M595.34 402.016C593.565 399.086 590.556 396.665 586.991 396.853C583.426 397.041 579.814 400.835 580.783 404.172C581.165 405.507 582.159 406.526 583.161 407.439C591.148 414.751 602.029 418.876 613.327 418.853C616.449 418.853 620.295 418.062 621.587 415.1C622.873 412.159 620.567 409.041 617.725 408.029C614.889 407.009 611.662 407.365 608.62 407.012C607.714 406.904 606.746 406.706 606.189 406.012C605.383 405.022 605.782 403.349 606.751 402.341C607.72 401.333 609.093 400.853 610.427 400.543C619.498 398.42 628.668 402.349 637.704 400.007C640.086 399.39 642.827 397.752 642.887 395.338C642.969 392.282 639.006 391.427 635.965 391.442C630.915 391.459 625.853 391.478 620.804 391.494C619.035 391.504 616.654 390.776 617.11 389.009C617.232 388.552 617.548 388.155 617.872 387.791C621.408 383.894 626.927 382.657 631.942 382.599C636.956 382.54 641.907 383.419 646.937 382.726C650.979 382.173 654.98 380.584 658.434 378.168C659.234 377.604 660.05 376.952 660.42 376.054C660.876 374.973 660.578 373.772 659.999 372.845C657.712 369.183 652.188 369.439 647.794 370.815C643.407 372.197 638.777 374.342 634.557 373.171C637.635 368.74 642.632 365.975 647.658 364.3C652.683 362.625 657.883 361.87 662.956 360.4C665.356 359.709 668.16 358.352 668.564 355.907C668.693 355.139 668.538 354.375 668.221 353.703C666.57 350.231 661.45 350.48 657.637 351.973C653.824 353.466 649.837 355.779 646.045 354.888C646.153 349.39 653.381 344.471 651.669 339.411C650.355 335.532 644.404 335.559 641.027 338.393C637.656 341.22 636.153 345.593 634.531 349.626C631.571 356.975 627.639 364.007 622.862 370.463C621.823 371.869 619.799 373.382 618.714 372.21C618.327 371.785 618.263 371.147 618.286 370.544C618.438 367.584 620.497 364.946 621.555 362.094C622.619 359.247 622.004 355.292 619.114 354.951C617.717 354.788 616.289 355.579 615.173 356.553C611.677 359.58 610.248 364.32 609.688 368.756C609.129 373.192 609.255 377.692 607.99 382.048C607.451 383.91 605.86 386.152 604.109 385.579C602.505 385.054 602.643 382.768 602.981 381.031C603.352 379.144 603.628 377.176 603.071 375.429C602.514 373.681 600.874 372.224 598.988 372.466C598.038 372.589 597.151 373.118 596.414 373.773C592.839 377.002 593.123 382.51 594.473 386.786C595.822 391.063 597.93 395.386 596.885 399.964L595.34 402.016Z" fill="#5085A7"/>
</g>
<g filter="url(#filter2_d)">
<path d="M492.037 439.981C484.105 426.843 477.751 412.778 473.167 398.153C470.97 391.163 469.177 383.6 471.324 376.604C473.441 369.588 480.88 363.675 487.986 365.72C494.341 367.52 497.626 374.522 498.84 380.956C500.055 387.391 500.092 394.307 503.369 399.98C504.681 402.259 507.294 404.462 509.71 403.413C512.288 402.286 512.207 398.688 511.692 395.919C508.302 378.051 504.055 360.332 499.017 342.852C497.397 337.266 496.346 329.9 501.369 326.891C504.908 324.768 509.753 326.456 512.451 329.572C515.15 332.687 516.233 336.812 517.242 340.8C520.048 351.947 522.851 363.071 525.657 374.219C531.9 360.689 534.588 345.196 531.065 330.712C528.408 319.839 517.802 304.839 524.005 295.505C525.425 290.317 532.009 287.607 536.238 287.02C541.144 286.34 546.02 289.201 548.897 293.188C551.775 297.175 552.981 302.132 553.662 306.979C555.318 318.478 554.536 330.328 551.393 341.536C559.627 334.831 562.709 323.709 563.65 313.186C564.592 302.663 563.923 291.895 566.638 281.69C569.976 268.867 578.844 257.613 590.525 251.26C592.531 250.183 594.682 249.205 596.931 249.214C601.663 249.266 605.404 253.705 606.144 258.316C606.884 262.927 605.261 267.599 603.341 271.872C599.334 280.773 593.821 289.009 587.095 296.102C582.071 301.393 575.895 307.738 577.892 314.739C583.117 312.297 587.631 308.549 592.624 305.646C597.587 302.723 603.478 300.617 609.108 301.891C614.738 303.166 619.575 308.943 618.082 314.496C616.392 320.785 608.677 322.859 602.307 324.398C582.396 329.202 561.77 341.806 558.141 361.827C567.883 366.924 578.024 350.306 588.599 353.401C596.057 355.586 597.023 366.754 591.914 372.562C586.805 378.369 578.447 379.953 570.725 380.699C561.363 381.606 551.543 381.915 543.335 386.483C539.839 388.423 536.63 391.265 535.355 395.049C534.104 398.829 535.324 403.582 538.842 405.476C542.08 407.219 546.042 406.201 549.732 405.933C554.297 405.613 559.124 406.627 562.561 409.638C565.999 412.65 567.673 417.826 565.775 421.944C562.946 428.081 554.706 429.043 547.926 429.123C537.54 429.23 527.182 429.357 516.795 429.465C516.771 429.469 500.696 434.256 492.037 439.981Z" fill="#BF9585"/>
</g>
<g clip-path="url(#clip8)">
<path d="M547.359 477.353C554.648 473.259 563.836 474.192 571.54 477.429C579.244 480.666 585.873 485.961 592.781 490.68C596.046 492.909 599.995 495.108 603.73 493.847C608.349 492.289 609.818 485.754 607.384 481.493C604.949 477.232 599.915 475.12 595.071 474.615C604.304 473.965 613.678 475.357 622.331 478.664C625.341 479.814 628.29 481.211 630.85 483.182C633.969 485.588 636.469 488.825 639.888 490.771C643.308 492.723 648.297 492.874 650.577 489.642C652.151 487.408 651.896 484.382 651.366 481.695C650.822 478.906 649.832 475.856 647.337 474.53C646.707 474.192 645.957 473.945 645.607 473.319C645.063 472.341 645.932 471.06 647.002 470.748C648.072 470.435 649.207 470.768 650.287 471.05C655.511 472.417 662.115 471.983 664.899 467.324C667.234 463.411 665.604 458.016 662.205 454.995C658.805 451.975 654.121 450.896 649.607 450.558C639.099 449.776 628.675 452.429 618.377 454.668C615.548 455.283 612.603 455.863 609.788 455.187C608.279 454.824 606.734 453.967 606.194 452.499C605.874 451.632 605.624 450.447 606.254 449.771C607.649 448.294 610.848 448.097 614.148 447.286C617.447 446.474 622.451 443.06 623.171 439.712C624.146 435.184 623.521 431.82 620.372 429.667C617.222 427.514 613.163 428.452 609.364 428.261C606.654 428.124 578.659 433.167 570.66 441.739C562.296 450.704 545.164 466.447 547.164 477.54" fill="#FAD2C9"/>
</g>
<g clip-path="url(#clip9)">
<path d="M67.0969 411.824C65.3106 406.462 60.2838 402.722 54.9515 400.804C49.6191 398.885 43.8884 398.478 38.2792 397.658C35.6295 397.27 32.6505 396.553 31.3541 394.221C29.7499 391.336 31.9892 387.425 35.1485 386.426C38.3079 385.428 41.7912 386.683 44.447 388.648C40.1186 384.103 34.7903 380.507 28.9501 378.189C26.9193 377.382 24.8061 376.726 22.6265 376.532C19.969 376.298 17.2431 376.759 14.6443 376.16C12.0432 375.564 9.4755 373.357 9.80538 370.713C10.0337 368.886 11.5389 367.503 13.028 366.413C14.5705 365.28 16.4553 364.221 18.3085 364.704C18.7778 364.825 19.2658 365.045 19.7258 364.895C20.4441 364.66 20.5916 363.627 20.1981 362.983C19.8046 362.339 19.0847 361.985 18.4153 361.631C15.1767 359.919 12.0665 356.684 12.7932 353.101C13.4055 350.094 16.6783 348.166 19.7561 348.223C22.8339 348.281 25.6713 349.888 28.0861 351.785C33.705 356.203 37.7179 362.284 41.8564 368.103C42.9935 369.702 44.2043 371.336 45.9216 372.288C46.843 372.799 48.007 373.08 48.9455 372.6C49.5006 372.316 50.1653 371.843 50.1575 371.22C50.1316 369.85 48.6187 368.29 47.3358 366.378C46.0529 364.467 45.1008 360.487 46.2647 358.498C47.8381 355.808 49.6824 354.427 52.2401 354.8C54.7979 355.173 56.404 357.494 58.3941 359.137C59.8132 360.308 71.5388 375.61 71.642 383.516C71.749 391.785 73.162 407.422 67.1096 412.006" fill="#5085A7"/>
</g>
<g filter="url(#filter3_d)">
<path d="M181.193 465.4C171.199 457.929 147.566 447.652 139.266 455.455C135.365 459.122 133.032 464.005 129.817 468.236C126.602 472.467 121.939 476.25 116.183 476.193C112.158 476.153 108.252 474.234 104.771 472.056C102.993 470.943 101.206 469.691 100.093 467.987C97.3846 463.844 99.653 458.547 103.446 455.791C107.237 453.041 112.176 452.012 116.646 450.263C124.089 447.349 130.403 442.283 134.573 435.869C135.66 434.201 136.464 431.724 134.767 430.324C134.293 429.933 133.703 429.709 133.113 429.526C126.446 427.398 119.466 428.964 112.995 430.638C106.524 432.313 99.676 434.094 92.9177 432.358C86.1522 430.619 79.9101 423.859 81.8329 417.835C83.407 412.897 89.4577 410.769 95.0362 410.432C110.436 409.497 126.358 417.55 141.489 415.309C129.499 406.846 115.972 400.409 101.868 396.448C96.7927 395.021 91.5058 393.861 87.0492 391.006C82.5999 388.153 79.1419 383.033 80.3162 378.396C80.802 376.492 82.0017 374.866 83.2049 373.313C85.5365 370.298 88.3231 367.157 92.362 366.622C97.9881 365.875 103.158 370.375 107.364 374.391C116.105 382.727 125.291 390.656 134.869 398.124C138.145 400.674 143.326 403.121 145.75 400.235C135.707 386.858 119.628 378.507 108.028 366.237C103.057 360.977 98.8394 353.155 102.757 347.823C106.746 342.389 116.626 344.061 122.12 349.036C127.617 354.004 130.161 360.995 133.508 367.354C137.176 374.319 142.029 380.814 147.803 386.486C148.377 387.048 149.019 387.632 149.807 387.779C151.313 388.056 152.44 386.477 152.23 385.056C152.012 383.632 150.932 382.413 149.92 381.279C141.183 371.469 133.845 360.616 127.931 349.227C125.353 344.263 122.986 338.851 123.787 333.631C124.587 328.412 129.78 323.789 135.393 325.219C141.234 326.704 143.907 333.156 145.564 338.621C149.247 350.768 152.932 362.908 156.615 375.055C159.315 373.799 158.868 370.074 158.242 367.164C155.761 355.655 156.553 342.711 165.085 335.035C166.779 333.512 169.155 332.182 171.525 332.97C174.444 333.939 175.434 337.372 175.703 340.201C176.876 352.904 173.314 365.18 169.227 376.923C165.139 388.666 159.004 402.427 157.855 414.952C156.431 430.418 162.245 442.359 172.236 448.252C176.293 450.646 192.931 457.707 190.297 458.45L181.193 465.4Z" fill="#E98F87"/>
<g clip-path="url(#clip10)">
<path d="M77.1005 455.188C77.8786 456.544 78.3483 458.292 77.5545 459.642C77.1361 460.35 76.4319 460.84 75.8836 461.462C74.0369 463.606 74.7736 467.432 77.2982 468.713C79.8228 469.995 83.3274 468.322 83.9399 465.551C84.544 462.836 82.7394 459.812 83.9932 457.336C85.6382 454.086 91.4721 454.02 91.8904 450.402C92.0378 449.134 91.3586 447.933 90.6604 446.873C86.3618 440.379 79.986 435.293 72.709 432.58C70.5879 431.792 67.8354 431.34 66.3704 433.081C65.2773 434.383 65.4825 436.406 66.3861 437.841C67.2897 439.276 68.7433 440.25 70.1514 441.18C71.6406 442.163 73.1298 443.147 74.6191 444.131C73.685 445.219 71.9595 444.858 70.6061 444.391C64.6302 442.317 58.7537 439.942 53.0152 437.265C51.0902 436.363 49.1001 435.418 46.9796 435.367C44.8591 435.316 42.5346 436.434 41.9064 438.476C41.1672 440.886 43.0865 443.408 45.3674 444.457C47.6482 445.507 50.2405 445.556 52.69 446.093C55.1395 446.63 57.718 447.9 58.5636 450.268C47.7033 452.982 36.2653 443.331 25.6436 446.916C23.3955 447.677 21.1067 449.401 21.0294 451.79C20.9593 453.842 22.6449 455.641 24.5831 456.303C26.5213 456.965 28.6364 456.726 30.6463 456.357C35.0287 455.548 40.2051 454.318 43.4296 457.416C42.993 459.599 41.0272 461.378 38.8214 461.599C36.6036 461.817 33.7767 460.832 32.5054 462.683C32.164 463.174 32.0399 463.782 31.9504 464.379C31.5482 467.078 31.9017 470.096 33.8027 472.043C36.5219 474.838 41.5061 474.185 44.2931 471.454C46.1142 469.668 47.1653 467.258 48.6863 465.213C51.0527 462.029 54.4592 459.817 57.8621 457.809C58.6269 457.355 59.4425 456.901 60.3202 456.906C62.3877 456.917 63.6177 459.587 62.9385 461.558C62.2711 463.532 60.4213 464.83 58.6005 465.827C56.9198 466.753 54.9546 467.814 54.6065 469.714C54.2329 471.71 56.0332 473.604 58.018 473.996C60.0027 474.389 62.0263 473.657 63.8378 472.766C65.5814 471.915 67.3799 470.738 67.9527 468.88C68.31 467.733 68.1434 466.496 68.0569 465.293C67.8224 461.782 68.3919 458.217 69.7249 454.967C70.1678 453.881 70.7531 452.763 71.7635 452.176C72.774 451.589 74.3186 451.793 74.803 452.865C74.8083 452.822 76.3224 453.831 77.1005 455.188Z" fill="#BF9585"/>
</g>
</g>
<path d="M107.052 513.346C106.877 514.645 106.251 515.843 105.951 517.123C105.179 520.444 106.697 523.831 108.17 526.911C108.352 527.297 108.582 527.721 108.987 527.856C109.327 527.969 109.699 527.857 110.036 527.727C112.514 526.813 115.066 525.359 115.976 522.888C116.637 521.099 116.314 519.12 116.223 517.217C116.042 513.482 116.792 509.704 118.404 506.326C118.842 505.398 119.356 504.45 119.317 503.428C119.288 502.705 118.98 502.028 118.637 501.394C117.16 498.679 114.884 496.455 113.431 493.721C111.799 490.663 111.288 487.113 109.624 484.069C107.959 481.026 104.405 478.467 101.153 479.679C99.8471 480.163 98.8229 481.182 97.8452 482.168C95.4329 484.594 92.8325 487.489 93.1168 490.897C93.3568 493.799 95.69 496.139 98.2365 497.58C99.4237 498.252 100.715 498.807 101.658 499.793C102.601 500.779 103.078 502.381 102.316 503.51C101.469 504.771 99.6124 504.803 98.1238 504.48C94.2226 503.632 90.6851 501.227 88.4627 497.916C87.0583 495.82 86.1766 493.413 84.9178 491.224C82.8415 487.62 79.6977 484.64 75.988 482.747C75.6692 482.581 75.3235 482.424 74.9641 482.396C74.2575 482.35 73.6391 482.804 73.0855 483.24C72.0091 484.087 70.8873 484.978 70.2931 486.211C68.9389 488.996 70.776 492.398 73.2924 494.225C75.8088 496.052 78.9104 496.868 81.6034 498.427C84.2964 499.986 86.7229 502.771 86.2791 505.835C82.8186 507.79 78.5081 505.545 75.4012 503.055C72.746 500.927 70.2612 498.575 68.0055 496.027C66.7794 494.644 65.5352 493.147 63.8076 492.472C62.0214 491.77 59.9997 492.07 58.145 492.573C57.2153 492.828 56.2646 493.146 55.526 493.773C53.5149 495.491 53.9215 498.897 55.6599 500.89C57.3983 502.884 60.0338 503.816 62.5436 504.668C65.58 505.702 68.6164 506.736 71.6577 507.764C72.3346 507.996 73.047 508.247 73.5387 508.772C74.7259 510.053 73.9059 512.276 72.4319 513.204C70.9579 514.132 69.1164 514.196 67.3858 514.409C64.2109 514.804 61.1215 515.827 58.3367 517.395C56.7221 518.31 55.0688 519.635 54.9087 521.477C54.6796 524.163 57.9246 526.034 60.602 525.62C63.2793 525.206 65.4472 523.344 67.6536 521.783C69.1989 520.692 70.8234 519.714 72.5124 518.868C74.4915 517.875 77.5052 517.381 78.417 519.401C79.1365 520.988 77.8151 522.698 76.5972 523.932C75.2593 525.29 73.9165 526.653 72.5786 528.011C71.5813 529.021 70.5656 530.067 69.9835 531.36C69.4014 532.653 69.3395 534.274 70.1992 535.413C70.9614 536.424 72.2958 536.863 73.566 536.921C77.0602 537.102 80.3477 534.838 82.184 531.88C84.0141 528.917 84.6093 525.355 84.7678 521.872C84.8509 520.039 84.8425 518.132 85.588 516.45C86.3335 514.768 88.1129 513.374 89.923 513.735C91.6708 514.086 92.77 515.937 92.9023 517.703C93.0345 519.469 92.4503 521.2 91.981 522.914C91.4686 524.793 91.093 526.752 91.3766 528.679C91.6601 530.606 92.6981 532.508 94.419 533.428C96.1877 534.375 98.5395 534.091 100.03 532.756C101.723 531.233 102.149 528.714 101.846 526.462C101.544 524.21 100.648 522.082 100.1 519.872C99.5515 517.663 99.3839 515.219 100.48 513.227C101.576 511.236 104.281 510.015 106.255 511.157C106.251 511.174 107.227 512.046 107.052 513.346Z" fill="#A9C1DD"/>
<path d="M195.057 329.977C221.515 325.277 237.778 293.427 240.851 267.212C241.681 260.144 240.878 252.259 235.682 246.526C230.483 240.799 219.795 238.898 215.083 244.326C213.831 245.773 213.111 247.554 212.197 249.206C210.413 252.466 207.869 255.283 205.351 258.078C198.562 265.596 191.783 273.11 184.994 280.628C182.494 283.4 179.394 286.413 175.308 286.147C169.413 285.763 166.246 278.578 167.915 273.535C169.589 268.503 174.138 264.944 177.543 260.788C182.666 254.527 185.242 246.779 187.731 239.184C194.235 219.344 200.739 199.504 207.243 179.664C209.606 172.461 211.963 164.691 209.252 157.254C206.54 149.818 196.439 143.753 189.43 147.541C187.201 148.747 185.638 150.724 184.184 152.688C170.857 170.679 161.837 191.453 157.859 213.329C156.028 223.392 155.166 233.917 150.083 242.803C148.328 245.874 144.729 249.03 141.109 247.411C139.313 246.611 138.252 244.863 137.495 243.184C132.976 233.143 135.118 222.171 137.33 211.936C141.517 192.565 145.714 173.191 149.9 153.82C151.797 145.041 153.712 136.083 152.524 126.994C151.336 117.905 146.528 108.495 137.862 103.418C136.003 102.331 133.862 101.431 131.764 101.651C129.089 101.922 127.157 103.906 125.756 105.937C121.531 112.06 120.041 119.526 118.934 126.86C112.047 172.448 117.145 220.276 133.688 265.334C126.47 260.051 118.984 255.075 111.275 250.447C107.266 248.039 100.22 246.761 99.7174 250.934C99.5731 252.154 100.198 253.388 100.909 254.493C108.904 266.948 127.277 271.637 135.272 284.091C136.638 286.218 137.467 289.276 135.412 290.618C134.336 291.32 132.841 291.245 131.468 291.193C125.481 290.952 119.526 291.658 113.942 293.27C110.468 294.272 106.601 296.414 106.977 299.809C107.247 302.268 109.665 304.132 111.892 305.66C133.708 320.582 170.869 334.575 195.308 329.98C195.296 329.967 194.993 329.983 195.057 329.977Z" fill="#E5B7A8"/>
<path d="M89.0101 211.898C93.2197 210.698 100.642 213.03 100.852 211.312C100.985 210.23 97.8984 204.279 98.9539 201.647C98.4246 194.031 106.038 189.076 108.582 185.348C108.626 184.832 108.589 184.244 108.196 183.908C107.7 183.486 106.954 183.695 106.305 183.647C104.836 183.534 103.813 181.688 104.497 180.383C103.161 178.132 99.4742 178.569 97.7788 180.566C96.0835 182.563 95.8314 185.375 95.6901 187.992C95.5458 190.608 95.3723 193.407 93.7754 195.484C93.5208 195.817 93.2048 196.139 92.7949 196.229C92.0746 196.386 91.4259 195.77 91.0112 195.16C89.8027 193.392 89.2548 191.188 89.4947 189.06C89.6771 187.418 90.3066 185.865 90.928 184.333C93.5356 177.901 96.1462 171.471 98.7554 165.036C99.1581 164.045 99.5698 162.976 99.3431 161.928C99.1681 161.099 98.6153 160.405 98.0267 159.797C96.3319 158.04 94.0081 156.662 91.5743 156.883C88.2406 157.184 85.8147 160.42 85.1732 163.701C84.5316 166.982 85.2277 170.357 85.6507 173.675C86.2956 178.725 86.3026 183.857 85.6722 188.912C82.835 183.145 78.427 178.01 77.1746 171.71C75.8302 164.943 78.3626 158.068 80.844 151.627C81.3752 150.252 81.8178 148.472 80.7151 147.494C79.9098 146.782 78.6053 146.928 77.7198 147.542C76.8342 148.155 76.2649 149.115 75.7274 150.051C73.8918 149.328 71.992 148.776 70.0587 148.401C69.1015 148.217 67.9849 148.118 67.2753 148.787C66.2907 149.71 66.7879 151.33 67.3251 152.572C70.6553 160.287 72.8426 168.497 73.7963 176.848C67.9651 170.499 61.8786 164.389 55.5537 158.534C55.0068 158.027 54.3095 157.487 53.593 157.697C52.7274 157.954 52.5318 159.108 52.715 159.989C52.8982 160.871 53.3011 161.783 53.0244 162.641C52.5962 163.978 50.8912 164.314 49.4939 164.425C50.6888 169.567 56.0379 172.378 60.5854 175.056C67.6065 179.195 73.9269 184.525 79.1904 190.746C79.6927 191.341 80.1739 192.281 79.5983 192.802C79.1692 193.193 78.4925 192.99 77.9611 192.762C74.3616 191.213 70.9115 189.31 67.6831 187.086C63.5471 184.24 59.5038 180.761 54.5277 180.07C53.5055 179.929 52.2898 179.989 51.6813 180.822C50.7661 182.076 51.9945 183.787 53.2763 184.664C54.5582 185.541 56.1609 186.496 56.1823 188.047C56.1963 188.963 55.6101 189.79 55.5065 190.701C55.3162 192.391 56.7747 193.793 58.2082 194.708C66.8628 200.217 78.5157 198.72 87.43 203.804C85.8222 204.885 83.6896 204.524 81.7955 204.125C77.6732 203.254 73.5552 202.38 69.4329 201.509C68.5786 201.328 67.5561 201.195 66.9583 201.831C65.5662 203.304 68.6383 205.348 68.365 207.352C68.1497 208.931 65.9234 209.716 65.8798 211.31C65.8457 212.662 67.3876 213.441 68.6998 213.771C76.4861 215.714 82.6436 213.714 89.0101 211.898Z" fill="#E67D0A"/>
<g clip-path="url(#clip11)">
<path d="M197.205 121.11C196.348 122.069 195.819 123.255 195.304 124.428C194.91 125.326 194.524 126.386 195.039 127.22C195.839 128.513 197.92 128.011 199.1 127.038C200.924 125.533 202.013 123.374 203.521 121.574C205.029 119.773 207.362 118.249 209.683 118.807C210.095 118.908 210.514 119.089 210.759 119.428C210.978 119.736 211.03 120.131 211.049 120.507C211.255 124.265 209.302 127.998 206.247 130.307C203.192 132.616 199.158 133.544 195.31 133.13C191.997 132.772 188.369 130.953 187.84 127.753C187.75 127.214 187.756 126.643 187.518 126.147C187.279 125.652 186.699 125.244 186.171 125.438C185.842 125.558 185.636 125.865 185.436 126.141C184.244 127.779 182.426 128.977 180.422 129.447C178.611 129.874 176.368 129.535 175.446 127.954C174.976 127.145 174.937 126.166 175.059 125.244C175.369 122.885 176.967 120.47 179.378 120.1C180.325 119.955 181.311 120.137 182.239 119.918C183.167 119.698 184.076 118.82 183.786 117.935C182.433 116.881 181.079 115.827 179.726 114.779C179.197 114.365 178.63 113.901 178.482 113.255C178.411 112.922 178.456 112.577 178.553 112.257C178.933 111.015 180.119 110.055 181.44 109.917C182.761 109.779 184.134 110.482 184.772 111.617C185.262 112.496 185.327 113.556 185.861 114.409C186.396 115.263 187.801 115.752 188.407 114.943C188.614 114.667 188.665 114.315 188.697 113.976C189.039 110.714 188.349 107.445 187.685 104.233C187.022 101.021 186.384 97.7338 186.822 94.484C187.26 91.2343 188.974 87.9719 191.959 86.4537C194.118 85.3558 196.644 85.2743 199.074 85.2178C199.551 85.2052 200.086 85.2178 200.408 85.5629C200.589 85.7573 200.666 86.0146 200.73 86.2718C201.536 89.6658 200.389 93.1791 199.261 96.4916C197.753 100.908 196.251 105.319 194.743 109.735C194.131 111.536 193.505 113.362 193.344 115.25C193.319 115.539 193.306 115.846 193.447 116.097C193.699 116.549 194.343 116.662 194.833 116.48C195.323 116.298 195.697 115.909 196.045 115.526C199.048 112.276 202.077 108.983 204.204 105.13C205.667 102.483 206.679 99.6096 208.187 96.9872C209.696 94.3648 211.855 91.9181 214.762 90.9018C215.748 90.5567 216.843 90.3873 217.855 90.6571C218.867 90.9269 219.776 91.7048 219.969 92.7149C220.188 93.8441 219.499 94.9357 218.848 95.8956C215.889 100.224 212.931 104.553 209.979 108.888C209.599 109.441 209.225 110.2 209.651 110.72C210.031 111.191 210.804 111.097 211.358 110.827C211.913 110.557 212.428 110.149 213.047 110.124C214.065 110.087 214.832 111.222 214.645 112.195C214.459 113.167 213.588 113.901 212.641 114.271C211.694 114.641 210.662 114.704 209.651 114.848C205.945 115.382 202.413 117.019 199.641 119.485L197.205 121.11Z" fill="#E98F87"/>
</g>
<g clip-path="url(#clip12)">
<path d="M73.509 325.718C71.8656 327.622 69.465 329.261 66.9956 328.762C65.7 328.498 64.5828 327.681 63.3489 327.173C59.1167 325.486 53.7073 328.63 53.1058 333.159C52.5043 337.688 56.9024 342.153 61.4291 341.626C65.8672 341.115 69.4926 336.765 73.9138 337.371C79.7148 338.166 82.9139 347.035 88.6216 345.764C90.6223 345.32 92.0836 343.649 93.319 342.024C100.883 332.036 105.207 319.622 105.454 307.084C105.522 303.431 104.745 298.992 101.328 297.675C98.7728 296.694 95.8147 298.075 94.1188 300.211C92.4229 302.348 91.7182 305.08 91.0564 307.72C90.3561 310.512 89.6558 313.304 88.9555 316.096C86.809 315.245 86.4402 312.421 86.4285 310.109C86.3994 299.894 86.8781 289.672 87.8891 279.502C88.2342 276.088 88.6103 272.552 87.561 269.289C86.5118 266.026 83.5811 263.068 80.1507 263.188C76.1041 263.332 73.2995 267.592 72.9205 271.626C72.5416 275.661 73.8435 279.643 74.3309 283.665C74.8182 287.686 74.2623 292.292 71.1209 294.832C61.2364 279.69 69.7937 257.141 58.7142 242.823C56.3664 239.794 52.5364 237.211 48.8728 238.354C45.7251 239.33 43.8926 242.852 43.9184 246.159C43.9441 249.467 45.43 252.568 47.0584 255.441C50.6126 261.702 55.2271 268.953 52.2437 275.508C48.7009 275.995 44.9594 273.934 43.4526 270.684C41.9443 267.414 41.935 262.58 38.4543 261.617C37.5278 261.355 36.5406 261.486 35.5869 261.665C31.2806 262.476 26.8928 264.608 24.9509 268.537C22.1577 274.162 25.796 281.424 31.4174 284.235C35.0924 286.072 39.304 286.405 43.214 287.646C49.2985 289.577 54.462 293.608 59.3141 297.742C60.4095 298.669 61.5308 299.674 61.9891 301.017C63.0706 304.178 59.6755 307.464 56.3263 307.468C52.9785 307.491 50.0288 305.353 47.5491 303.101C45.252 301.024 42.599 298.585 39.5336 299.057C36.3096 299.54 34.3941 303.287 34.8532 306.523C35.3123 309.759 37.4963 312.462 39.8096 314.756C42.027 316.967 44.7663 319.091 47.8886 318.984C49.8181 318.924 51.6051 318.017 53.3825 317.25C58.5819 315.039 64.2889 314.027 69.925 314.346C71.8067 314.449 73.813 314.752 75.2401 315.984C76.6672 317.216 77.1788 319.681 75.8101 320.986C75.8788 320.971 75.1524 323.815 73.509 325.718Z" fill="#A1A59F"/>
</g>
<path d="M405.455 515.454C406.712 515.257 407.139 513.514 406.103 512.864C388.286 501.765 379.802 476.877 360.066 469.005C355.78 467.292 350.731 466.538 346.327 468.96C343.59 470.466 341.518 473.308 340.945 476.452C340.18 480.645 342.434 482.594 344.601 484.422C352.316 490.945 360.023 497.464 367.734 503.993C365.231 509.136 358.241 508.026 353.674 505.77C341.183 499.617 329.669 491.536 319.561 481.833C315.602 478.027 311.697 473.868 306.047 472.885C302.417 472.254 298.426 473.417 295.826 476.541C289.897 483.668 296.169 493.877 302.792 499.095C309.647 504.495 317.066 509.133 324.907 512.92C310.041 514.186 293.919 515.116 282.469 506.266C275.32 500.746 270.735 491.852 262.762 487.638C253.998 483.008 241.3 485.233 235.529 496.588C234.588 498.448 233.942 500.47 233.706 502.506C232.486 512.932 240.189 518.821 248.261 520.69C254.377 522.11 260.878 521.671 267.219 522.082C277.801 522.772 288.017 525.89 296.988 531.165C290.143 538.821 280.909 544.032 271.437 545.586C265.532 546.552 259.158 546.296 254.812 552.75C252.049 556.852 251.52 562.101 253.208 566.387C257.078 576.237 268.376 577.995 277.645 574.481C285.31 571.577 291.847 565.689 297.828 559.586C303.478 553.82 308.831 547.725 313.854 541.338C317.297 536.961 320.756 532.29 326.106 530.576C328.896 529.681 331.904 530.125 333.882 532.084C339.079 537.225 333.425 546.58 328.324 552.679C323.083 558.949 318.474 569.853 325.572 573.187C327.293 573.994 329.325 573.973 331.256 573.404C345.738 569.132 357.274 553.367 357.089 537.762C357.057 534.732 358.392 531.621 360.955 530.003C367.761 525.702 370.88 535.663 368.49 542.076C365.998 548.766 361.075 554.453 360.396 561.891C360.239 563.648 360.429 565.421 361.057 566.97C364.303 575.065 374.125 572.332 379.398 566.594C382.266 563.474 384.381 559.585 385.439 555.485C386.957 549.605 386.308 543.602 386.368 537.648C386.433 531.697 387.435 525.193 391.425 520.603C393.996 517.672 400.871 516.16 405.455 515.454Z" fill="#A9BFDE"/>
<g clip-path="url(#clip13)">
<path d="M140.653 458.217C154.83 463.693 158.827 484.493 173.687 487.989C173.361 481.208 170.951 474.631 166.857 469.37C164.275 466.039 161.003 463.183 159.137 459.371C157.271 455.558 157.256 450.271 160.626 447.427C164.225 444.375 169.875 445.727 173.027 448.944C176.18 452.161 177.559 456.722 179.193 460.953C181.549 467.037 184.626 472.811 188.367 478.113C190.489 481.121 193.647 484.271 197.325 483.37C202.098 482.181 202.866 475.823 203.412 470.937C204.038 465.207 205.891 459.551 208.774 454.461C209.995 452.319 211.505 450.159 213.701 449.04C218.646 446.531 224.611 450.855 225.7 456.146C226.777 461.453 224.484 466.966 221.902 471.904C219.901 475.737 217.661 479.698 217.614 483.94C217.566 488.181 220.763 492.644 224.993 492.185C231.227 491.508 232.49 482.554 237.347 478.41C241.525 474.846 247.885 475.547 252.399 478.249C258.643 481.976 262.555 489.071 262.936 496.464C263.304 503.873 260.271 511.44 255.167 517.06C254.518 517.78 253.799 518.472 252.91 518.821C252.171 519.094 251.378 519.112 250.611 519.007C246.587 518.458 243.719 515.17 240.676 512.583C237.621 510.01 233.104 507.994 229.604 510.265C226.808 512.071 226.014 515.914 226.656 519.085C227.299 522.257 229.05 525.032 230.304 527.976C233.804 536.138 233.452 546.019 229.367 554.264C228.456 556.094 227.094 558.033 225.107 558.289C222.191 558.649 220.487 555.339 219.691 552.574C216.281 540.679 214.342 528.304 213.953 515.795C213.782 510.532 212.972 503.931 207.922 502.605C203.661 501.472 199.193 505.529 198.128 509.929C197.064 514.328 198.365 518.782 199.554 523.055C201.036 528.431 202.365 533.976 202.049 539.63C201.734 545.285 199.585 551.145 195.215 554.897C190.834 558.663 184.021 559.734 179.551 556.471C173.366 551.958 174.311 542.288 177.191 534.89C180.071 527.491 184.401 519.908 183.028 512.286C182.682 510.361 181.666 508.237 179.714 507.973C179.054 507.878 178.368 508.024 177.699 508.207C170.355 510.349 165.961 517.956 163.05 525.069C160.138 532.182 157.493 540.019 151.295 544.621C143.53 550.39 131.37 548.295 126.555 540.35C121.74 532.406 125.308 520.324 133.815 515.758C138.033 513.507 142.895 513.003 147.265 511.058C151.32 509.255 154.85 506.175 157.199 502.367C157.66 501.623 158.087 500.805 158.032 499.956C157.984 499.278 157.64 498.685 157.273 498.122C153.975 492.989 149.037 488.967 143.342 486.725C140.653 485.666 137.756 484.994 135.241 483.591C129.877 480.625 126.696 474.273 127.412 468.042C127.833 464.297 129.771 460.487 133.056 458.553C136.341 456.618 140.653 458.217 140.653 458.217Z" fill="#F7D29A"/>
</g>
<g filter="url(#filter4_d)">
<g clip-path="url(#clip14)">
<path d="M566.888 524.637C546.069 524.731 529.705 501.402 509.106 504.22C513.212 512.291 519.829 519.123 527.846 523.558C532.91 526.372 538.581 528.282 543.007 532.019C547.432 535.756 550.332 542.162 547.643 547.213C544.779 552.623 536.935 553.668 531.216 551.263C525.497 548.859 521.276 543.983 516.915 539.628C510.635 533.368 503.617 527.826 496.021 523.173C491.713 520.533 486.023 518.213 481.887 521.052C476.532 524.762 479.031 532.838 481.006 539.024C483.342 546.27 484.093 554.01 483.241 561.554C482.872 564.731 482.149 568.069 479.997 570.469C475.144 575.861 465.283 573.451 461.029 567.55C456.782 561.626 456.662 553.85 457.218 546.634C457.648 541.035 458.305 535.166 456.054 529.999C453.803 524.832 447.348 520.938 442.276 523.504C434.804 527.287 438.095 538.748 434.244 546.081C430.929 552.388 422.547 554.559 415.396 553.426C405.511 551.872 396.721 545.125 392.214 536.339C387.712 527.529 387.404 516.91 390.762 507.669C391.186 506.486 391.713 505.306 392.642 504.46C393.422 503.778 394.41 503.38 395.433 503.143C400.794 501.897 406.194 504.522 411.432 506.215C416.677 507.884 423.458 508.183 426.623 503.766C429.156 500.248 428.061 495.209 425.524 491.668C422.988 488.127 419.272 485.593 416.09 482.617C407.239 474.381 402.296 462.229 402.941 450.289C403.09 447.637 403.747 444.637 406.107 443.383C409.578 441.561 413.527 444.766 416.035 447.741C426.808 460.549 435.991 474.637 443.298 489.624C446.382 495.926 450.998 503.548 458.074 502.757C464.051 502.106 467.461 495.063 466.402 489.222C465.343 483.381 461.279 478.596 457.455 473.978C452.66 468.162 447.967 462.069 445.282 455.06C442.597 448.052 442.106 439.924 445.559 433.297C449.018 426.648 457.005 422.112 464.406 423.946C474.647 426.483 478.728 438.66 479.137 449.001C479.547 459.342 478.233 470.597 484.114 479.189C485.597 481.359 488.034 483.452 490.632 482.846C491.515 482.648 492.298 482.145 493.04 481.605C501.112 475.518 502.493 464.204 502.279 454.194C502.065 444.184 501.122 433.423 506.41 424.896C513.034 414.21 529.473 410.975 539.861 418.323C550.248 425.672 552.344 442.02 544.13 451.599C540.051 456.333 534.21 459.254 529.771 463.689C525.653 467.803 522.892 473.215 522.012 478.949C521.837 480.071 521.747 481.265 522.277 482.269C522.708 483.069 523.464 483.625 524.232 484.133C531.179 488.793 539.582 491.324 547.969 491.338C551.928 491.346 555.939 490.784 559.867 491.292C568.232 492.34 575.695 498.533 578.191 506.431C579.703 511.173 579.341 516.714 576.263 520.621C573.184 524.528 566.888 524.637 566.888 524.637Z" fill="#3A5751"/>
</g>
</g>
<g clip-path="url(#clip15)">
<path d="M271.083 135.77C266.835 135.594 262.205 136.91 259.809 140.41C257.413 143.91 258.626 149.744 262.7 150.943C264.327 151.427 266.077 151.133 267.727 150.761C280.91 147.828 292.972 140.129 301.146 129.4C303.412 126.44 305.403 122.29 303.348 119.185C301.309 116.099 296.485 116.307 293.4 118.359C290.313 120.401 288.331 123.687 285.766 126.348C285.001 127.138 284.097 127.93 282.993 128.018C281.407 128.154 280.006 126.713 279.691 125.155C279.375 123.596 279.887 121.989 280.541 120.528C284.977 110.578 295.601 104.377 299.79 94.3209C300.895 91.6708 301.229 88.032 298.833 86.4427C295.804 84.4251 292.065 87.6402 289.875 90.5341C286.228 95.3329 282.574 100.145 278.927 104.944C277.654 106.628 275.19 108.423 273.736 106.87C273.362 106.464 273.191 105.912 273.058 105.373C271.686 99.5474 274.44 93.5277 278.02 88.7354C281.599 83.943 286.08 79.8061 289.029 74.5961C291.402 70.4128 292.699 65.6091 292.764 60.8013C292.775 59.6842 292.708 58.4957 292.069 57.5749C291.308 56.4569 289.878 55.9769 288.521 55.9371C283.162 55.7821 279.413 61.1828 277.615 66.2233C275.828 71.261 274.636 77.013 270.391 80.2714C268.147 74.5403 268.979 68.046 270.932 62.217C272.886 56.388 275.897 50.9778 278.092 45.2337C279.134 42.52 279.799 38.9996 277.621 37.065C276.939 36.4544 276.054 36.1162 275.145 35.9911C270.439 35.3518 266.977 40.3656 265.718 44.9291C264.46 49.4926 263.904 54.7417 260.253 57.7724C254.775 54.1798 255.05 44.2038 248.695 42.6144C243.822 41.3991 239.532 47.0589 239.945 52.0608C240.356 57.052 243.684 61.2529 246.582 65.3504C251.86 72.8218 256.113 81.0151 259.17 89.6423C259.836 91.5208 259.897 94.3996 257.925 94.6847C257.215 94.7823 256.524 94.4383 255.932 94.0335C253.051 92.0107 251.88 88.383 249.765 85.5699C247.661 82.754 243.218 80.8267 240.778 83.3505C239.599 84.5727 239.361 86.4282 239.536 88.1048C240.059 93.3418 243.81 97.7053 247.887 101.052C251.964 104.398 256.602 107.135 260.085 111.099C261.576 112.792 262.687 115.724 260.838 117.021C259.143 118.209 256.934 116.627 255.423 115.204C253.786 113.653 251.998 112.143 249.828 111.562C247.658 110.981 244.996 111.611 243.873 113.554C243.307 114.532 243.198 115.71 243.325 116.825C243.994 122.264 249.765 125.491 255.066 126.925C260.366 128.36 266.264 129.106 270.131 133.002L271.083 135.77Z" fill="#A1A59F"/>
</g>
<path d="M659.659 325.249C652.33 325.648 641.129 333.377 640.121 330.78C639.486 329.143 642.216 318.063 639.476 314.482C637.392 302.168 623.058 298.494 617.467 293.994C617.196 293.202 617.029 292.255 617.541 291.51C618.185 290.572 619.483 290.496 620.522 290.066C622.875 289.087 623.829 285.615 622.207 283.926C623.516 279.643 629.697 278.324 633.234 280.553C636.771 282.782 638.271 287.085 639.514 291.141C640.762 295.193 642.128 299.519 645.536 301.928C646.08 302.315 646.72 302.651 647.423 302.57C648.658 302.424 649.478 301.099 649.918 299.908C651.204 296.458 651.245 292.679 650.03 289.449C649.097 286.957 647.469 284.847 645.863 282.766C639.122 274.031 632.376 265.3 625.631 256.562C624.591 255.216 623.506 253.753 623.47 251.974C623.435 250.571 624.068 249.174 624.792 247.892C626.876 244.193 630.132 240.751 634.186 239.773C639.739 238.431 644.947 242.218 647.263 247.05C649.579 251.881 649.75 257.589 650.344 263.059C651.247 271.386 653.221 279.493 656.206 287.132C658.601 276.48 663.801 265.967 663.406 255.336C662.979 243.917 656.189 234.441 649.65 225.623C648.251 223.741 646.841 221.172 648.26 219.027C649.298 217.463 651.482 216.984 653.163 217.469C654.845 217.955 656.145 219.161 657.383 220.346C660.097 218.203 662.981 216.296 665.989 214.65C667.478 213.837 669.261 213.072 670.677 213.741C672.64 214.662 672.456 217.493 672.06 219.745C669.616 233.744 669.226 247.901 670.903 261.607C677.955 248.403 685.515 235.436 693.563 222.744C694.259 221.645 695.187 220.411 696.437 220.353C697.948 220.286 698.713 222.002 698.756 223.494C698.798 224.985 698.494 226.645 699.277 227.849C700.493 229.728 703.403 229.329 705.725 228.742C705.766 237.513 698.131 244.868 691.752 251.576C681.905 261.939 673.661 273.801 667.485 286.494C666.897 287.707 666.476 289.454 667.616 289.963C668.467 290.347 669.492 289.658 670.27 289.008C675.54 284.599 680.43 279.713 684.834 274.442C690.477 267.692 695.724 259.995 703.571 256.191C705.183 255.41 707.189 254.843 708.504 255.827C710.481 257.309 709.14 260.68 707.39 262.763C705.639 264.847 703.395 267.229 703.96 269.69C704.292 271.144 705.568 272.13 706.089 273.513C707.054 276.077 705.218 279.086 703.234 281.313C691.253 294.729 671.672 298.718 659.103 311.607C662.143 312.436 665.481 310.704 668.415 309.042C674.8 305.418 681.177 301.794 687.562 298.17C688.886 297.42 690.501 296.651 691.722 297.33C694.562 298.897 690.344 303.799 691.565 306.816C692.527 309.191 696.462 309.217 697.15 311.711C697.728 313.826 695.515 315.898 693.504 317.135C681.558 324.447 670.743 324.645 659.659 325.249Z" fill="#A1A59F"/>
<defs>
<filter id="filter0_d" x="104.271" y="100.744" width="223.717" height="221.992" filterUnits="userSpaceOnUse" color-interpolation-filters="sRGB">
<feFlood flood-opacity="0" result="BackgroundImageFix"/>
<feColorMatrix in="SourceAlpha" type="matrix" values="0 0 0 0 0 0 0 0 0 0 0 0 0 0 0 0 0 0 127 0"/>
<feMorphology radius="2" operator="dilate" in="SourceAlpha" result="effect1_dropShadow"/>
<feOffset dy="1"/>
<feGaussianBlur stdDeviation="1"/>
<feColorMatrix type="matrix" values="0 0 0 0 0.203837 0 0 0 0 0.225675 0 0 0 0 0.245833 0 0 0 0.18 0"/>
<feBlend mode="normal" in2="BackgroundImageFix" result="effect1_dropShadow"/>
<feBlend mode="normal" in="SourceGraphic" in2="effect1_dropShadow" result="shape"/>
</filter>
<filter id="filter1_d" x="143" y="207.215" width="421" height="339" filterUnits="userSpaceOnUse" color-interpolation-filters="sRGB">
<feFlood flood-opacity="0" result="BackgroundImageFix"/>
<feColorMatrix in="SourceAlpha" type="matrix" values="0 0 0 0 0 0 0 0 0 0 0 0 0 0 0 0 0 0 127 0"/>
<feMorphology radius="2" operator="dilate" in="SourceAlpha" result="effect1_dropShadow"/>
<feOffset dy="1"/>
<feGaussianBlur stdDeviation="1"/>
<feColorMatrix type="matrix" values="0 0 0 0 0.203837 0 0 0 0 0.225675 0 0 0 0 0.245833 0 0 0 0.18 0"/>
<feBlend mode="normal" in2="BackgroundImageFix" result="effect1_dropShadow"/>
<feBlend mode="normal" in="SourceGraphic" in2="effect1_dropShadow" result="shape"/>
</filter>
<filter id="filter2_d" x="466.358" y="246.214" width="155.999" height="198.767" filterUnits="userSpaceOnUse" color-interpolation-filters="sRGB">
<feFlood flood-opacity="0" result="BackgroundImageFix"/>
<feColorMatrix in="SourceAlpha" type="matrix" values="0 0 0 0 0 0 0 0 0 0 0 0 0 0 0 0 0 0 127 0"/>
<feMorphology radius="2" operator="dilate" in="SourceAlpha" result="effect1_dropShadow"/>
<feOffset dy="1"/>
<feGaussianBlur stdDeviation="1"/>
<feColorMatrix type="matrix" values="0 0 0 0 0.203837 0 0 0 0 0.225675 0 0 0 0 0.245833 0 0 0 0.18 0"/>
<feBlend mode="normal" in2="BackgroundImageFix" result="effect1_dropShadow"/>
<feBlend mode="normal" in="SourceGraphic" in2="effect1_dropShadow" result="shape"/>
</filter>
<filter id="filter3_d" x="15.5" y="303.215" width="221.5" height="204" filterUnits="userSpaceOnUse" color-interpolation-filters="sRGB">
<feFlood flood-opacity="0" result="BackgroundImageFix"/>
<feColorMatrix in="SourceAlpha" type="matrix" values="0 0 0 0 0 0 0 0 0 0 0 0 0 0 0 0 0 0 127 0"/>
<feMorphology radius="2" operator="dilate" in="SourceAlpha" result="effect1_dropShadow"/>
<feOffset dy="1"/>
<feGaussianBlur stdDeviation="1"/>
<feColorMatrix type="matrix" values="0 0 0 0 0.203837 0 0 0 0 0.225675 0 0 0 0 0.245833 0 0 0 0.18 0"/>
<feBlend mode="normal" in2="BackgroundImageFix" result="effect1_dropShadow"/>
<feBlend mode="normal" in="SourceGraphic" in2="effect1_dropShadow" result="shape"/>
</filter>
<filter id="filter4_d" x="372" y="382.214" width="233" height="219.001" filterUnits="userSpaceOnUse" color-interpolation-filters="sRGB">
<feFlood flood-opacity="0" result="BackgroundImageFix"/>
<feColorMatrix in="SourceAlpha" type="matrix" values="0 0 0 0 0 0 0 0 0 0 0 0 0 0 0 0 0 0 127 0"/>
<feMorphology radius="2" operator="dilate" in="SourceAlpha" result="effect1_dropShadow"/>
<feOffset dy="1"/>
<feGaussianBlur stdDeviation="1"/>
<feColorMatrix type="matrix" values="0 0 0 0 0.203837 0 0 0 0 0.225675 0 0 0 0 0.245833 0 0 0 0.18 0"/>
<feBlend mode="normal" in2="BackgroundImageFix" result="effect1_dropShadow"/>
<feBlend mode="normal" in="SourceGraphic" in2="effect1_dropShadow" result="shape"/>
</filter>
<clipPath id="clip0">
<rect width="69.7049" height="76.2355" fill="white" transform="matrix(0.866866 0.498542 -0.501459 0.865181 556.375 178.895)"/>
</clipPath>
<clipPath id="clip1">
<rect width="129.054" height="174.826" fill="white" transform="matrix(0.698711 0.715405 -0.718116 0.695924 233.816 103.744)"/>
</clipPath>
<clipPath id="clip2">
<rect width="61.6357" height="53.2899" fill="white" transform="matrix(0.666645 -0.745376 0.747946 0.66376 455.361 120.995)"/>
</clipPath>
<clipPath id="clip3">
<rect width="86.7814" height="123.52" fill="white" transform="matrix(0.985686 0.16859 -0.169868 0.985467 382.187 0)"/>
</clipPath>
<clipPath id="clip4">
<rect width="59.3444" height="80.102" fill="white" transform="matrix(0.990358 -0.138529 0.13959 0.990209 598.699 152.895)"/>
</clipPath>
<clipPath id="clip5">
<rect width="59" height="62" fill="white" transform="translate(302 83.2148)"/>
</clipPath>
<clipPath id="clip6">
<rect width="46.6777" height="84.3123" fill="white" transform="matrix(-0.971222 -0.238175 0.239929 -0.97079 569.403 160.94)"/>
</clipPath>
<clipPath id="clip7">
<rect width="50.3108" height="96.7759" fill="white" transform="matrix(0.767827 0.640657 -0.650409 0.759585 636.95 326.354)"/>
</clipPath>
<clipPath id="clip8">
<rect width="66" height="119" fill="white" transform="translate(547 494.215) rotate(-90)"/>
</clipPath>
<clipPath id="clip9">
<rect width="44.4197" height="80.7079" fill="white" transform="matrix(0.676505 -0.736438 -0.73848 -0.674275 59.6012 420.347)"/>
</clipPath>
<clipPath id="clip10">
<rect width="46.9839" height="63.4492" fill="white" transform="matrix(-0.497566 -0.867426 0.864613 -0.502438 42.8776 491.018)"/>
</clipPath>
<clipPath id="clip11">
<rect width="45" height="48" fill="white" transform="translate(175 85.2148)"/>
</clipPath>
<clipPath id="clip12">
<rect width="75.5534" height="102.363" fill="white" transform="translate(1 292.402) rotate(-49.1929)"/>
</clipPath>
<clipPath id="clip13">
<rect width="130.465" height="135.747" fill="white" transform="matrix(0.611871 -0.790958 0.797449 0.603387 89.5255 513.638)"/>
</clipPath>
<clipPath id="clip14">
<rect width="168.96" height="187.06" fill="white" transform="matrix(-0.261494 0.965205 -0.966632 -0.256168 601 433.133)"/>
</clipPath>
<clipPath id="clip15">
<rect width="62.7169" height="110.13" fill="white" transform="matrix(0.966177 -0.257881 0.25976 0.965673 224.819 48.2852)"/>
</clipPath>
</defs>
</svg>
