<svg id="Layer_1" data-name="Layer 1" xmlns="http://www.w3.org/2000/svg" xmlns:xlink="http://www.w3.org/1999/xlink" viewBox="0 0 652.22 779.31"><defs><style>.cls-1{fill:none;}.cls-2{clip-path:url(#clip-path);}.cls-3{fill:#a9bfde;}.cls-4{fill:#5085a7;}.cls-5{fill:#1a7bbd;}.cls-6{fill:#519e8a;}.cls-7{fill:#ea9288;}.cls-8{fill:#3a5751;}.cls-9{fill:#141a41;}.cls-10{fill:#d8ddef;}.cls-11{fill:#f0d9c1;fill-rule:evenodd;}.cls-12{fill:#ed6341;}.cls-13{clip-path:url(#clip-path-2);}.cls-14{clip-path:url(#clip-path-3);}.cls-15{clip-path:url(#clip-path-4);}.cls-16{fill:#a9c1dd;}</style><clipPath id="clip-path" transform="translate(-19.32 -7.19)"><rect class="cls-1" x="36.52" y="168.26" width="94.3" height="100.4" transform="translate(-98.02 71.11) rotate(-30)"/></clipPath><clipPath id="clip-path-2" transform="translate(-19.32 -7.19)"><rect class="cls-1" x="294.28" y="123.44" width="154.19" height="138.39" transform="translate(-36.61 285.25) rotate(-40.21)"/></clipPath><clipPath id="clip-path-3" transform="translate(-19.32 -7.19)"><rect class="cls-1" x="272.19" y="608.26" width="134.8" height="147.8" transform="translate(-407.22 833.63) rotate(-75)"/></clipPath><clipPath id="clip-path-4" transform="translate(-19.32 -7.19)"><rect class="cls-1" x="254.43" y="10.1" width="64" height="64" transform="translate(133.56 287.96) rotate(-66.49)"/></clipPath></defs><g class="cls-2"><path class="cls-3" d="M109.9,224.2a8.53,8.53,0,0,0,5.9-4c1.3-2.2,1.6-5,2.8-7.3a9.62,9.62,0,0,1,12.4-3.8,9.75,9.75,0,0,1,4.2,12.4c-1.3,2.6-3.7,4.4-5.4,6.7-2.3,3-3.3,6.8-4.2,10.5-1.1,4.3-2.1,9.5.9,12.9l-15.3,4.2a39.08,39.08,0,0,1-6.8,1.4,33.35,33.35,0,0,1-6.3-.4c-3.3-.5-6.6-1.1-9.5-2.8s-5.4-4.3-6-7.6c-1-5.2,3.5-10.6,8.8-10.4,2,0,4,.8,6,.6s4.1-1.8,3.7-3.8c-.4-1.7-2.4-2.5-4.2-2.9-4.1-1-8.5-2.1-12.6-1a43.26,43.26,0,0,0-5.6,2.2,101.44,101.44,0,0,1-17,5.3,15.23,15.23,0,0,1-4.2.6,7.92,7.92,0,0,1-4.8-2.2,11.8,11.8,0,0,1-3.8-10,11.34,11.34,0,0,1,6.1-8.7c3.8-1.9,8.2-1.6,12.5-1.5s8.9-.3,11.9-3.2a27.39,27.39,0,0,0-19.9-6.8c-9.7.7-18.5,6.7-28.2,7.3-2.3.2-4.9-.1-6.5-1.7a7.39,7.39,0,0,1-1.7-5.6,16.85,16.85,0,0,1,12.6-15.5c7.8-1.9,15.8,2.1,23.9,2.4,1.4-3.4-.9-7.4,0-11,1.2-4.3,6.3-5.9,10.7-6.8a3.4,3.4,0,0,1,2,0,4.69,4.69,0,0,1,1.9,1.8c1.3,2.1,2.7,4.2,3.2,6.7a23.27,23.27,0,0,1,.3,5.3,29,29,0,0,0,10.6,20.8c1.9,1.5,4.8,2.8,6.7,1.1s1-4.5-.4-6.5-3.3-3.7-3.6-6.1c-.4-3.3,2.5-6.1,5.5-7.6,3.2-1.6,7.1-2.6,10.5-1.2,3,1.2,5,4,6.5,6.9,1.2,2.3,2.2,4.9,1.5,7.4a15.44,15.44,0,0,1-2.3,4.4,33.82,33.82,0,0,0-4.7,12C107.7,220.2,109.9,224.2,109.9,224.2Z" transform="translate(-19.32 -7.19)"/></g><path class="cls-4" d="M427.1,104.5c2.2,1.5,5.2,2.6,7.6,1.4,1.3-.6,2.2-1.8,3.4-2.6,3.9-2.9,10.4-1.1,12.3,3.4s-1.5,10.4-6.3,11-9.7-2.9-14.1-1c-5.8,2.4-6.7,12.5-13,12.7-2.2.1-4.2-1.3-5.9-2.6a64.55,64.55,0,0,1-22.1-33c-1.1-3.8-1.5-8.6,1.7-10.9,2.4-1.7,5.8-1.1,8.2.7s3.8,4.4,5.2,7l4.5,8.1c2-1.5,1.6-4.5,1-6.9a316.75,316.75,0,0,0-9.8-31.4c-1.3-3.4-2.6-7-2.4-10.7s2.4-7.5,6-8.3c4.2-.9,8.3,2.7,9.8,6.8s1.2,8.6,1.8,12.9,2.4,8.9,6.4,10.7c6.1-18.4-8.8-39.5-1.2-57.3,1.6-3.8,4.9-7.5,9-7.3,3.5.2,6.4,3.3,7.3,6.8s.2,7.1-.7,10.5c-2,7.5-4.8,16.2.1,22.2a9.36,9.36,0,0,0,7.8-7.4c.7-3.8-.6-8.8,2.7-10.8a6.3,6.3,0,0,1,3-.7c4.7-.3,9.8.7,12.9,4.2,4.4,5.1,2.6,13.6-2.5,18-3.3,2.9-7.6,4.4-11.3,6.7-5.8,3.7-10.1,9.2-14,14.8a8.55,8.55,0,0,0-1.9,4.1c-.3,3.6,4.1,6.1,7.6,5.2s6-3.9,7.9-6.9c1.8-2.8,3.9-6,7.2-6.4,3.5-.4,6.5,3,6.9,6.5s-1.1,6.9-2.9,9.9-4,5.8-7.2,6.6c-2,.5-4.1,0-6.2-.3a39.27,39.27,0,0,0-18,1.5,10,10,0,0,0-5.1,3.1c-1.1,1.7-1,4.4.8,5.3C423.4,100.2,424.9,102.9,427.1,104.5Z" transform="translate(-19.32 -7.19)"/><path class="cls-5" d="M126.9,396.9c6.5-4.3,20.8-4.6,20.1-7.6-.4-1.9-9.5-10-9.3-14.9-5.6-12.3,4.4-24.7,6.5-32.3a3,3,0,0,0-1.6-2.2c-1.1-.4-2.3.3-3.4.6-2.6.6-5.5-1.8-5.1-4.4-3.7-3-9.8-.2-11.5,4s-.4,9,1,13.4,2.8,9.1,1.3,13.4a3.22,3.22,0,0,1-1.2,1.8c-1.1.7-2.7,0-3.7-.8a16.08,16.08,0,0,1-6.4-9.2,30.9,30.9,0,0,1-.5-8.6c.5-12.1,1-24.1,1.5-36.2.1-1.9.1-3.9-.9-5.5a8.39,8.39,0,0,0-3.6-2.8c-4-2-8.9-2.9-13-1.2-5.6,2.4-7.8,9-6.8,14.8s4.2,10.9,7,16.2a104.57,104.57,0,0,1,9.5,25.1c-8.5-7.9-19.3-13.9-25.4-23.6-6.4-10.1-6.3-22.9-6-34.9.1-2.6-.3-5.7-2.8-6.7a4.61,4.61,0,0,0-5.1,1.7,13.58,13.58,0,0,0-1.9,5.2,65,65,0,0,0-10.8.4c-1.8.2-3.8.7-4.6,2.2-1.1,2.1.7,4.5,2.4,6.2a161.15,161.15,0,0,1,26.3,36.5q-21-10.8-42.9-20c-1.3-.5-2.8-1-3.9-.3-1.3.9-1,2.9-.1,4.3s2.1,2.6,2.2,4.2c.1,2.4-2.6,4-5,4.9,5.3,7.8,16.2,9.5,25.8,11.3a141.94,141.94,0,0,1,41.9,15.5c1.2.7,2.7,2,2,3.2-.5.9-1.8.9-2.9.8a118.52,118.52,0,0,1-21.3-3.6c-8.9-2.4-18.1-5.9-27.1-4.2-1.9.3-3.9,1.1-4.4,2.8-.8,2.6,2.4,4.7,5.1,5.4s6.1,1.4,7.1,4c.6,1.5.1,3.2.5,4.8.7,2.9,4.1,4.4,7.2,5.1,18.4,4.3,37.6-4.7,56.1-1.3-2.1,2.7-6,3.3-9.5,3.7-7.7.9-15.3,1.7-23,2.6-1.6.2-3.4.5-4.1,1.9-1.5,3.2,5.1,4.9,5.9,8.3.6,2.7-2.7,5.3-1.8,7.9.8,2.2,3.9,2.7,6.4,2.5C107.6,410.1,117,403.4,126.9,396.9Z" transform="translate(-19.32 -7.19)"/><path class="cls-6" d="M258.6,729.1a2.73,2.73,0,0,0-3.3-1.5,6.08,6.08,0,0,0-2.7,2.3c-1.7,2.3-3.4,4.5-5.1,6.8-1.4,1.9-3.3,3.9-5.8,3.4-3.1-.6-4.8-4.6-4.2-7.5s2.9-4.8,4.7-7,3.4-5,2.5-8-4-5.6-3.9-8.6c12,3.4,22.9-4.6,35-2.8,2.6.4,5.9,1.9,6.4,4.5s-1.6,4.2-3.7,5.2a36.42,36.42,0,0,1-6.8,2.4c-1.9.4-4,.9-4.6,2.6s.9,3.9,2.6,4.8a9.88,9.88,0,0,0,5.6.8,22.1,22.1,0,0,0,11.7-5c2.1-1.8,3.8-3.9,6.1-5.4,2.6-1.7,5.7-2.5,8.1-4.5,2-1.7,3.6-4.3,6.5-4.1,2.6.1,5,2.9,5.5,5.6s-.5,5.2-1.6,7.4-2.8,4.6-5.1,5.8c-2.1,1.1-4.6,1.2-6.9,1.8a18.51,18.51,0,0,0-9.6,5.7c.2,2,2.9,3.1,4.9,3.2,9,.5,16-5.3,23.4-9.3a57.78,57.78,0,0,1,14.7-5.5c2.3-.5,5.2-.7,7.1,1.2,2.4,2.4,1.2,6-.2,8.5-1.8,3-3.9,6-7.4,7-2.1.6-4.5.4-6.5,1.2s-3.5,3.2-2.2,5.3,4.3,2.1,6.5,1.8c5.3-.8,10.7-1.6,16-2.3,4-.6,8.4-1.1,12.1,1.4a8.64,8.64,0,0,1,1.4,1.3c1.1,1.7.3,3.7-1,5-4.2,4.1-11.5,3.2-16.9,5.8a4.33,4.33,0,0,0-2.4,2.2c-1.3,2.9,2.1,6.4,5.3,8.1s7,3.2,8.3,6.5a5.6,5.6,0,0,1-2.6,7c-2.3,1.3-5.3,1.2-8.2.6a15.16,15.16,0,0,1-7.9-3.9c-2.4-2.5-3.3-5.9-4.8-8.9-2.7-5.5-7.3-10-11.8-14.3-2.1-2-4.5-4.1-7.1-4.3a1.68,1.68,0,0,0-1.9.9,3.64,3.64,0,0,0,.2,1.4,24.09,24.09,0,0,0,5.5,8.3,7.63,7.63,0,0,1,2.1,2.7,6,6,0,0,1,.1,2.3c-.1,1.2-.3,2.3-.5,3.5s-.4,2.7-1.5,3.3a3.3,3.3,0,0,1-2.4.1,16.05,16.05,0,0,1-9.4-5.9c-4.4-5.8-4.5-14-9.9-18.8-1.2-1-2.8-1.9-4-1.2a2.28,2.28,0,0,0-1,2.1c-.1,2.7,2.2,5.2,2.7,7.9.6,3.5-1.7,6.3-4.1,8.3-1.3,1-2.7,2.1-4.5,2.1-3.4.1-6.5-3.4-7.4-6.8s-.1-6.7.3-10,.5-6.9-1.4-10a6.64,6.64,0,0,0-3.3-2.9,4.57,4.57,0,0,0-5.7,3c-.9,2.2-.6,4.8-.5,7.3.2,3.9-.3,8.3-3.6,9.9s-7.9-.6-9.9-4.1a10.08,10.08,0,0,1,.4-10.6c1.7-2.4,4.3-3.9,6.2-6s3.1-5.5,1.5-8.4" transform="translate(-19.32 -7.19)"/><path class="cls-7" d="M361.8,93.7c1.5-5.8-.8-12-4.5-16.8s-8.7-8.3-13.3-12.2c-2.2-1.8-4.5-4.2-4.3-7,.2-3.5,4.6-5.8,8-4.9s5.9,4,7.1,7.2a46,46,0,0,0-7.9-18.1,23.27,23.27,0,0,0-4.8-5.1c-2.3-1.7-5-2.8-7-4.8s-3-5.4-1.2-7.6c1.3-1.5,3.5-1.9,5.4-2,2.1-.1,4.4,0,5.8,1.4a3.78,3.78,0,0,0,1.2,1c.8.2,1.5-.7,1.5-1.5a4.53,4.53,0,0,0-.8-2.2c-1.9-3.4-2.9-8-.1-10.8,2.3-2.4,6.4-2.2,9.2-.5s4.4,4.8,5.5,7.9c2.5,7.1,2.6,14.9,2.9,22.4a14.15,14.15,0,0,0,1.2,6.1,3.36,3.36,0,0,0,2.6,2,1.89,1.89,0,0,0,1.9-.6c.8-1.2.3-3.5.3-5.9s1.4-6.6,3.7-7.7c3-1.5,5.5-1.7,7.6,0s2.2,4.8,3,7.4c.6,1.9,2.3,22.2-2.3,29.4-4.8,7.5-12.6,22.3-20.8,23.1" transform="translate(-19.32 -7.19)"/><path class="cls-6" d="M435.9,266.8a1.56,1.56,0,0,1-2.7.9c-13.1-18.3-40.4-25.8-50.2-46.3-2.1-4.5-3.3-9.8-1-14.6a11.53,11.53,0,0,1,7.7-6.2c4.5-1.1,6.7,1.2,8.8,3.4,7.5,7.8,15,15.6,22.6,23.4,5.4-3,3.7-10.3,1-15.1a144.25,144.25,0,0,0-28-34.8c-4.4-4-9.1-7.9-10.5-13.8a11.7,11.7,0,0,1,3.2-11.1c7.3-6.7,18.6-.7,24.7,6a129.1,129.1,0,0,1,16.3,22.7c.4-15.9.3-33.1-10-44.7-6.4-7.3-16.3-11.6-21.3-19.8a21.07,21.07,0,0,1,7.8-29.5,20.22,20.22,0,0,1,6.2-2.3c11.1-1.9,18,5.9,20.5,14.4,1.9,6.4,1.9,13.4,2.8,20.1a71.79,71.79,0,0,0,11.7,31.1,47.5,47.5,0,0,0,13.8-28.1c.6-6.3-.1-13.1,6.6-18.1a15.89,15.89,0,0,1,14.5-2.5c10.8,3.5,13.5,15.4,10.3,25.5-2.6,8.3-8.5,15.6-14.6,22.4A244.55,244.55,0,0,1,457.6,168c-4.5,3.9-9.3,7.9-10.7,13.7a8.16,8.16,0,0,0,2.1,8.2c5.9,5.2,15.5-1.4,21.7-7.2,6.4-6,17.8-11.5,21.8-4.2a8.24,8.24,0,0,1,.6,6c-3.6,15.7-19.8,28.9-36.5,29.7a9.91,9.91,0,0,0-8.1,4.6c-4.2,7.5,6.7,10.2,13.5,7.3,7-3.1,12.8-8.7,20.7-9.8a11.28,11.28,0,0,1,5.5.4c8.9,3,6.6,13.6.8,19.5a29.26,29.26,0,0,1-11.5,7.1c-6.2,2-12.7,1.7-19.1,2.1s-13.3,1.9-18,6.4C437.5,254.4,436.4,261.8,435.9,266.8Z" transform="translate(-19.32 -7.19)"/><path class="cls-8" d="M171.9,656.7c1.2,5.8,4.4,11.8,9.5,14.2s12-.5,12.1-6.3c.1-2.3-.9-4.6-1.9-6.8A89.59,89.59,0,0,0,154,617.3c-4.4-2.4-10.2-4.2-13.4-.7s-1.3,9.9,2.3,13.7,8.3,5.7,12.4,8.5a7.61,7.61,0,0,1,3,3.4,4.29,4.29,0,0,1-2.4,5.1c-1.8.8-4,.4-6-.1-13.8-3.8-25-16.8-38.9-20.2-3.7-.9-8.3-.5-9.4,3.1-1.5,4.6,3.7,8.9,8.1,11.2,7.2,3.9,14.3,7.7,21.5,11.6,2.5,1.3,5.6,4.3,4.1,6.6a4,4,0,0,1-1.6,1.3c-6.8,3.2-15.1.8-22.3-3s-13.8-8.9-21.2-11.7a36.22,36.22,0,0,0-18.3-2,6,6,0,0,0-3.8,1.7,5.82,5.82,0,0,0-.8,5.2c1.6,7.3,9.5,11.2,16.4,12.5s14.4,1.6,19.8,6.6c-6.4,4.3-14.7,4.7-22.6,3.3s-15.6-4.2-23.4-5.9c-3.7-.8-8.3-.9-10,2.5a6.24,6.24,0,0,0-.5,3.6c.8,6.5,8.1,10.1,14.2,10.8s12.8.2,17.7,4.5C76.3,697.1,63.8,699,64,708c.1,6.9,8.6,11.4,14.6,9.7s10.1-7.1,14.3-12a113.36,113.36,0,0,1,25.9-22.5c2.1-1.3,5.7-2.1,6.7.6a3.85,3.85,0,0,1-.1,2.8c-1.5,4.4-5.7,6.8-8.4,10.3s-3.7,9.9.2,12.7a7.38,7.38,0,0,0,6.3.6c6.3-1.9,10.5-8,13.3-14.2s4.6-13.2,8.4-18.8c1.6-2.4,4.9-4.6,7.1-2.4,2,2,.8,5.4-.4,7.7-1.4,2.6-2.7,5.3-2.6,8.4s1.7,6.5,4.5,7.6a6.7,6.7,0,0,0,4.2,0c6.5-2.1,8.6-10.7,8.6-18.2s-1-15.7,2.5-21.8Z" transform="translate(-19.32 -7.19)"/><path class="cls-6" d="M551.4,391.2c8.8-6.5,29.6-15.4,36.9-8.6,3.4,3.2,5.5,7.4,8.3,11.1s6.9,7,12,6.9c3.5,0,7-1.7,10-3.6a14.08,14.08,0,0,0,4.1-3.5c2.4-3.6.4-8.2-3-10.6s-7.7-3.3-11.6-4.8a32.77,32.77,0,0,1-15.8-12.5c-1-1.4-1.7-3.6-.2-4.8a5.23,5.23,0,0,1,1.5-.7c5.9-1.8,12-.5,17.7,1s11.7,3,17.7,1.5,11.5-7.4,9.8-12.6c-1.4-4.3-6.7-6.1-11.6-6.4-13.6-.8-27.6,6.2-40.9,4.2a118.67,118.67,0,0,1,34.9-16.4c4.5-1.2,9.1-2.2,13-4.7s7-6.9,5.9-11a12,12,0,0,0-2.5-4.4c-2.1-2.6-4.5-5.3-8.1-5.8-5-.6-9.5,3.3-13.2,6.7-7.7,7.2-15.8,14.1-24.2,20.6-2.9,2.2-7.4,4.3-9.6,1.8,8.8-11.6,23-18.9,33.2-29.5,4.4-4.6,8.1-11.4,4.6-16s-12.2-3.3-17,1.1-7.1,10.4-10,15.9a66.86,66.86,0,0,1-12.6,16.6,3.41,3.41,0,0,1-1.8,1.1,2,2,0,0,1-2.1-2.4,7.19,7.19,0,0,1,2-3.3,134.88,134.88,0,0,0,19.4-27.8c2.3-4.3,4.4-9,3.6-13.5s-5.3-8.5-10.2-7.3c-5.1,1.3-7.5,6.9-9,11.6-3.2,10.5-6.5,21.1-9.7,31.6-2.4-1.1-2-4.3-1.4-6.9,2.2-10,1.5-21.2-6-27.9-1.5-1.3-3.6-2.5-5.7-1.8-2.6.8-3.4,3.8-3.7,6.3-1,11,2.1,21.7,5.7,31.9s9,22.2,10,33c1.3,13.4-3.9,23.8-12.7,28.9-3.6,2.1-18.2,8.2-15.9,8.9Z" transform="translate(-19.32 -7.19)"/><path class="cls-9" d="M478.2,656.1l15,32.1c2.6,5.6,6.1,11.9,12,13.2s11.9-3.6,13.8-9.5.8-12.3-.6-18.4a231.57,231.57,0,0,0-21.2-56.8c-11,1.2-17.9,12-27.4,17.5-11.9,6.9-27.2,5.1-40,10-16.2,6.2-26.3,22.1-35.3,37-6.8,11.1-13.5,22.3-20.3,33.5-2.6,4.2-5.2,8.6-5.6,13.6a17.21,17.21,0,0,0,8.5,15.9,16.28,16.28,0,0,0,17.6-1.2c4.2-3.3,6.4-8.5,8.4-13.5,7.7-18.7,15.3-37.4,23-56.2,1.8-4.4,6.1-9.6,10.1-6.9,3.2,2.2,2.1,7,.6,10.4a591.75,591.75,0,0,0-23.2,68c-1.6,5.9-3.2,12.1-2,18.1s5.7,12.1,11.8,12.7c6.4.7,12-4.8,14-11s1.4-12.9,1.4-19.4a103.28,103.28,0,0,1,12.7-49.8c14.7,16.9,2.2,45,13.4,64.5,1.8,3,4.6,6,8,5.8,4.4-.2,6.6-5.3,7.3-9.7,2.5-16.1-3.6-32.3-7.8-48.2s-6.4-34.1,2.8-47.4Z" transform="translate(-19.32 -7.19)"/><path class="cls-9" d="M466.6,247a1.3,1.3,0,0,0,.4,2.3c18,2.6,33.6,19.3,51.9,18.7,4-.1,8.2-1.3,10.8-4.8a9.79,9.79,0,0,0,1.6-7.8c-.9-3.6-3.4-4.3-5.7-5-8.4-2.5-16.8-4.9-25.2-7.4.1-5,6-6.5,10.4-6.3a119.67,119.67,0,0,1,35.4,7c4.5,1.6,9,3.6,13.8,2.4a9.18,9.18,0,0,0,6.7-6.5c2.1-7.7-6.5-13.6-13.5-15.4a99.24,99.24,0,0,0-22.4-3.2c11.3-6.2,23.6-12.6,35.8-9.6,7.6,1.9,14.4,7.3,22.2,7.9A17,17,0,0,0,607,202.7a13.61,13.61,0,0,0-.7-5.3c-2.8-8.7-10.9-10.7-18-9.3-5.3,1-10.3,3.6-15.4,5.5a56.64,56.64,0,0,1-26.7,3.2,38.59,38.59,0,0,1,15-20.4c4.3-2.8,9.4-4.9,10.5-11.5a13.37,13.37,0,0,0-3.6-11.4c-6.6-6.5-16.1-3.9-22.1,2.1-5,5-8,11.9-10.6,18.9a194.44,194.44,0,0,0-6.1,20.1c-1.1,4.7-2.2,9.6-5.8,12.8a6.48,6.48,0,0,1-6.7,1.5c-5.9-2.3-4.8-11.7-3-18.3,1.9-6.8,1.6-17.1-5.2-17.2a7.61,7.61,0,0,0-4.6,1.8c-9.9,8.5-13.3,25-7.6,37.3a7.69,7.69,0,0,1-.3,7.5c-3.8,5.8-9.8-1-10.2-6.9-.4-6.2,1.4-12.4-.7-18.5a10.48,10.48,0,0,0-2.3-3.8c-5.4-5.3-12.2.3-14.3,6.7a23.7,23.7,0,0,0-.8,10.9c.9,5.2,3.6,9.7,5.6,14.5s3.6,10.2,2.1,15.3C474.8,241.3,470,244.9,466.6,247Z" transform="translate(-19.32 -7.19)"/><path class="cls-9" d="M132.6,317.4c1.8-5.7,1.3-11.8.8-17.8a73.58,73.58,0,0,0-2.3-14.8c-1.7-5.9-4.8-11.3-8.2-16.4-1.4-2.1-3.2-4.4-5.8-4.3a5.16,5.16,0,0,0-4.2,2.9,15.71,15.71,0,0,0-1.5,5.1c-.8,4.6-1.6,9.3-2.4,14-4.7-3.4-9.3-7.1-12.4-11.9-6.2-9.4-6.3-22-12.8-31.3a9.14,9.14,0,0,0-2.1-2.3c-2.7-1.9-6.8-.6-8.8,2s-2.2,6.3-1.4,9.6c2.6,11,14.9,18.4,15.2,29.7-14.7-8-22.4-24.2-32.5-37.5-2.3-3.1-4.9-6.1-8.4-7.6-2.6-1.1-6.1-1.1-7.6,1.2-1.1,1.5-.9,3.6-.6,5.4a36.11,36.11,0,0,0,4.1,12.9c2.5,4.2,6.1,7.5,9.6,11a134.94,134.94,0,0,1,16.6,20.3,66.2,66.2,0,0,1-27.3-14.8c-1.9-1.7-3.8-3.6-6.3-4.2a7.17,7.17,0,0,0-7.5,2.9,7.27,7.27,0,0,0,0,8c2.5,3.6,7.6,4,11.9,4.9a73.86,73.86,0,0,1,12,4.1c6.8,2.8,13.6,5.7,20.4,8.5a6,6,0,0,1,2.5,1.6,2,2,0,0,1,0,2.7,2.53,2.53,0,0,1-1.5.6c-3.7.8-8,1.3-11-.9-1.2-.9-2.3-2.2-3.8-2.3-1.7-.1-3.2,1.5-3.6,3.2a8.77,8.77,0,0,0,.9,5,19.27,19.27,0,0,0,6.1,8.2,10.68,10.68,0,0,0,9.9,1.5c2.2-.9,3.9-2.7,5.9-4.2s4.4-2.6,6.7-1.8c1.1.3,2.2,1.1,3.2.5s.9-1.9.7-3c-.4-2.7-.9-5.4-1.3-8,4.9,0,8.2,4.6,10.8,8.8a4.78,4.78,0,0,1,1,2.8,4.53,4.53,0,0,1-1.8,2.9c-1.8,1.9-3.8,3.8-4.4,6.4s.9,5.7,3.5,5.8c1.7.1,3.1-1,4.5-2a41.28,41.28,0,0,1,32.1-6.9Z" transform="translate(-19.32 -7.19)"/><path class="cls-9" d="M234.5,209.3c-3-10-6-19.9-9.1-29.9-1.6-5.2-3.8-11.1-8.8-13s-10.8,1.7-13.2,6.5-2.2,10.6-1.8,16.1a202.13,202.13,0,0,0,11.3,52.1c9.7.4,17.1-8.2,26.1-11.8,11.2-4.5,24.3-1,36.1-3.7,14.9-3.4,25.7-15.9,35.4-27.7,7.3-8.9,14.6-17.7,21.9-26.6,2.8-3.3,5.6-6.8,6.6-11.1a15.19,15.19,0,0,0-5.4-14.9,14.33,14.33,0,0,0-15.5-1.1c-4.1,2.4-6.6,6.6-9,10.7-9,15.3-18.1,30.7-27.1,46-2.1,3.6-6.6,7.6-9.7,4.7-2.5-2.3-.9-6.3.8-9.2a523.1,523.1,0,0,0,28.8-56.3c2.2-4.9,4.3-10.1,4.1-15.5s-3.5-11.2-8.7-12.5c-5.5-1.4-11.1,2.7-13.6,7.8s-2.9,11.1-3.7,16.7a90.71,90.71,0,0,1-17.4,41.8c-10.7-16.6,3.8-39.5-3.6-57.8-1.2-2.9-3.3-5.8-6.3-6.1-3.8-.3-6.4,3.8-7.6,7.5-4.2,13.7-1,28.6.8,43s1.3,30.5-8.4,40.9Z" transform="translate(-19.32 -7.19)"/><path class="cls-10" d="M146.7,525.9c4.3-6,6.1-13.4,7.7-20.6,1.4-6,2.8-12.1,3-18.3.3-7.6-1.3-15.1-3.3-22.5-.8-3-2.1-6.4-5.1-7.3a6.66,6.66,0,0,0-6.1,1.8,19.94,19.94,0,0,0-3.7,5.4c-2.7,5.2-5.4,10.3-8.2,15.5-4.2-5.8-8.2-11.9-10.1-18.7-3.7-13.5,1.1-28.3-3.1-41.7a12.25,12.25,0,0,0-1.6-3.5c-2.5-3.3-7.8-3.4-11.2-1s-5,6.6-5.3,10.7c-1.1,13.9,10.5,27.3,6.5,40.8-14.3-15-17.1-37.1-23.9-56.6-1.6-4.5-3.5-9-7-12.2-2.6-2.3-6.7-3.6-9.5-1.5-1.8,1.4-2.4,3.8-2.8,6.1-.9,5.6-1.3,11.3-.1,16.8,1.3,5.9,4.3,11.2,7.1,16.5a171.41,171.41,0,0,1,11.8,30.3A83.2,83.2,0,0,1,55.3,438c-1.6-2.7-3.1-5.7-5.8-7.4a9.12,9.12,0,0,0-9.9.5,8.88,8.88,0,0,0-3.1,9.4c1.6,5.2,7.4,7.6,12.2,10.4a80.81,80.81,0,0,1,12.5,9.5c6.9,5.9,13.8,11.9,20.8,17.8a7.69,7.69,0,0,1,2.3,2.8,2.59,2.59,0,0,1-1,3.2,3.38,3.38,0,0,1-2,.1c-4.7-.5-9.9-1.5-12.6-5.3-1.1-1.5-1.9-3.4-3.6-4.1-2-.8-4.4.5-5.4,2.4a11.17,11.17,0,0,0-.8,6.3c.4,4.3,1.5,8.6,4.1,12s6.8,5.9,11.1,5.5c3-.2,5.7-1.7,8.5-2.7s6.2-1.4,8.6.4c1.1.8,2.2,2.1,3.6,1.8s1.8-1.9,2-3.3c.5-3.3,1-6.6,1.5-10,5.7,1.9,7.9,8.6,9.3,14.4a5.57,5.57,0,0,1,.1,3.6c-.5,1.3-1.9,2.1-3.2,2.8-2.9,1.5-5.9,3.1-7.6,5.8s-1.1,7.1,1.9,8.2c1.9.7,4.1,0,6-.6a51.17,51.17,0,0,1,40.5,4.2Z" transform="translate(-19.32 -7.19)"/><path class="cls-8" d="M185.1,314.4a1.31,1.31,0,0,0,2.1-1.1c-2.9-17.9,8.4-37.8,2.2-55.1-1.3-3.8-3.7-7.5-7.8-8.9a9.21,9.21,0,0,0-7.9.9c-3.2,1.9-3.1,4.5-3.1,7,.2,8.8.3,17.5.5,26.3-4.8,1.4-8-3.8-9.2-8.1a120.33,120.33,0,0,1-3.9-35.9c.2-4.8.7-9.7-1.9-13.9a9.4,9.4,0,0,0-8.2-4.5c-8,.3-11.1,10.3-10.7,17.6a104.82,104.82,0,0,0,3.6,22.3c-9.3-8.9-19.1-18.8-19.9-31.3-.5-7.8,2.7-15.9.9-23.5a17.05,17.05,0,0,0-21.3-12.4,18,18,0,0,0-4.9,2.2c-7.5,5.2-6.9,13.6-3.5,19.9,2.6,4.8,6.6,8.7,9.9,13.1a57.49,57.49,0,0,1,11.1,24.5,37.62,37.62,0,0,1-23.9-8.2c-4-3.3-7.5-7.5-14.1-6.6a13.38,13.38,0,0,0-9.8,6.9c-4.2,8.2,1.1,16.5,8.7,20.5,6.3,3.3,13.8,4.1,21.2,4.4,7,.3,14,.2,21-.2,4.8-.3,9.8-.8,14,1.7a6.65,6.65,0,0,1,3.5,5.9c-.4,6.3-9.7,8.1-16.5,8.3-7.1.2-16.8,3.6-14.9,10.1a6.81,6.81,0,0,0,3.1,3.8c11,6.9,27.8,5.2,37.9-3.9a7.73,7.73,0,0,1,7.2-2c6.7,1.9,2,9.7-3.5,11.9-5.8,2.3-12.3,2.4-17.5,6.2a9.43,9.43,0,0,0-2.9,3.4c-3.4,6.8,4,11.5,10.7,11.6a23.37,23.37,0,0,0,10.7-2.5c4.7-2.4,8.2-6.3,12.1-9.7s8.7-6.5,13.9-6.6C177.2,308.3,182.1,311.9,185.1,314.4Z" transform="translate(-19.32 -7.19)"/><path class="cls-11" d="M122.5,467.1c9.6-39.6-22.6-101.8-10.7-167.2s78.9-103.8,127.5-93.2c66.8,14.6,82.3,34.2,111.3,54.4a9.33,9.33,0,0,0,11.2-.7c30.5-25.4,93.9-55.1,140.4-48.4,47,12.1,120,95.4,82.5,171.5-26.7,54.2,3.9,75.7.2,125.4a9.29,9.29,0,0,0,.7,4.4C632.3,627.7,528.7,683.9,421.1,673c-35.2-3.6-35.4-8.8-75,11.8-71.7,44-232.5,15-255-79.3S112.9,506.8,122.5,467.1Z" transform="translate(-19.32 -7.19)"/><path class="cls-12" d="M183.8,248.5c20-3.5,32.2-27.7,34.5-47.7.6-5.4,0-11.4-3.9-15.7s-12-5.8-15.6-1.7a27.74,27.74,0,0,0-2.2,3.7,33.47,33.47,0,0,1-5.2,6.7l-15.3,17.1c-1.9,2.1-4.2,4.4-7.3,4.2-4.5-.3-6.9-5.8-5.6-9.6s4.7-6.5,7.3-9.7c3.9-4.8,5.8-10.6,7.7-16.4,4.9-15.1,9.8-30.2,14.6-45.2,1.8-5.5,3.5-11.4,1.5-17s-9.7-10.3-15-7.4a12.42,12.42,0,0,0-4,3.9,112.17,112.17,0,0,0-19.8,46.1c-1.4,7.7-2,15.7-5.8,22.4-1.3,2.3-4,4.7-6.8,3.5a5.34,5.34,0,0,1-2.7-3.2c-3.4-7.6-1.8-16-.2-23.8,3.1-14.7,6.3-29.5,9.4-44.2,1.4-6.7,2.9-13.5,1.9-20.4s-4.6-14.1-11.1-18a8.56,8.56,0,0,0-4.6-1.4,6.36,6.36,0,0,0-4.5,3.3c-3.2,4.7-4.3,10.3-5.1,15.9-5.1,34.7-1.2,71.1,11.4,105.4-5.5-4-11.1-7.8-17-11.4-3-1.8-8.4-2.8-8.7.4a4.6,4.6,0,0,0,.9,2.7c6.1,9.5,20,13.1,26,22.6,1,1.6,1.7,3.9.1,5a4.92,4.92,0,0,1-3,.4,38.92,38.92,0,0,0-13.2,1.6c-2.6.8-5.5,2.4-5.3,5,.2,1.9,2,3.3,3.7,4.5,16.5,11.4,44.6,22.1,63.1,18.6A.2.2,0,0,0,183.8,248.5Z" transform="translate(-19.32 -7.19)"/><g class="cls-13"><path class="cls-3" d="M350.5,287.3a178.52,178.52,0,0,0,37.1-18.5c5.6-3.6,11.2-7.9,13.8-13.9s1.1-14.3-4.9-16.8c-5.3-2.3-11.6.7-16.2,4.5s-8.6,8.6-14.2,10.7c-2.2.9-5.3.9-6.3-1.1-1.1-2.2,1.1-4.7,3-6.3q19.05-15.75,39.5-29.7c4.4-3,9.4-7.5,7.7-12.4-1.1-3.4-5.4-5-9-4.3s-6.8,2.9-9.8,5.1c-8.4,6.2-16.8,12.3-25.2,18.5,3.7-12.8,10.9-25.1,21.8-33.1,8.1-6.1,24-10.6,25.3-20.5,2.1-4.4-.8-9.9-3.3-12.7-2.9-3.2-7.9-3.9-12.1-2.8s-8,3.9-11.3,6.9a80.06,80.06,0,0,0-18.7,25.2c-1.6-9.2,2.8-18.6,8.3-26.4s12.3-14.9,16.4-23.5a44,44,0,0,0,1.7-34.3,11.77,11.77,0,0,0-3.1-5c-3.2-2.6-8.3-1.6-11.5,1.2s-4.8,6.9-6,10.9a78.16,78.16,0,0,0-3.2,25.8c.3,6.5.7,14.3-4.7,18-2.1-4.6-2.9-9.7-4.6-14.5s-4.4-9.5-8.9-11.7-11.2-.9-13.4,3.8c-2.5,5.3,1.4,11,4.8,15.6,10.6,14.4,17.1,34.6,7.9,50.4-9.5-1.9-6.7-19-15.6-22.7-6.3-2.6-13.5,4.6-13.4,11.4s4.7,12.6,9.5,17.4c5.8,5.8,12.2,11.5,15.1,19.2,1.2,3.3,1.7,7,.4,10.4s-5,5.9-8.4,5.3c-3.2-.6-5.3-3.5-7.6-5.7a15.22,15.22,0,0,0-10.8-4.6c-4.1.2-8.2,2.8-9.4,6.7-1.7,5.8,3.3,11.1,7.8,14.9,6.9,5.8,13.8,11.7,20.8,17.5C340,266.3,348,278.5,350.5,287.3Z" transform="translate(-19.32 -7.19)"/></g><path class="cls-5" d="M283,238.7c-1.9.2-3.8-.3-5.7-.3-5,0-9.3,3.3-13.2,6.4a2.7,2.7,0,0,0-1.1,1.5,2.39,2.39,0,0,0,.5,1.4c2.1,3.2,5,6.3,8.9,6.8,2.8.3,5.5-.8,8.1-1.5a34.16,34.16,0,0,1,16.2-.6,9.5,9.5,0,0,0,4.4.3,7.44,7.44,0,0,0,2.7-1.6c3.4-3,5.8-7,9.2-9.9,3.8-3.3,8.7-5.2,12.5-8.6s6.2-9.3,3.4-13.5a14.49,14.49,0,0,0-4.6-3.9c-4.3-2.6-9.2-5.3-14-3.8-4,1.3-6.6,5.4-7.8,9.5-.6,1.9-.9,3.9-2,5.6s-3.2,2.9-5.1,2.2c-2.1-.8-2.7-3.4-2.8-5.6a23,23,0,0,1,6.1-15.9c2.5-2.7,5.6-4.7,8.3-7.3a32.2,32.2,0,0,0,9.1-15.5,7.77,7.77,0,0,0,.2-1.6,4.67,4.67,0,0,0-1.8-2.4,15.05,15.05,0,0,0-5.2-3c-4.4-1-8.6,2.8-10.4,6.9s-1.9,8.8-3.2,13.2-4.5,8.7-9,9.1c-3.9-4.2-2.2-11.1.3-16.3a85.79,85.79,0,0,1,7.5-12.8c1.6-2.2,3.3-4.5,3.7-7.1.4-2.8-.7-5.5-2-8a9.31,9.31,0,0,0-2.6-3.3c-3.1-2.3-7.8-.6-10.1,2.6s-2.7,7.2-3.1,11c-.5,4.6-.9,9.3-1.4,13.9a6.41,6.41,0,0,1-.8,3c-1.4,2.1-4.9,1.7-6.7-.1s-2.5-4.4-3.4-6.7a34.37,34.37,0,0,0-7.3-11.8c-1.8-2-4.3-3.9-6.9-3.5-3.9.6-5.5,5.8-4,9.4s4.8,6.1,7.8,8.7a53.86,53.86,0,0,1,5.8,5.9c2.1,2.5,3.8,6.6,1.2,8.5-2,1.5-4.9.2-7-1.1-2.4-1.4-4.8-2.9-7.1-4.3A17.8,17.8,0,0,0,245,192a6,6,0,0,0-5.7,1.7,6.2,6.2,0,0,0-1,5.3c.9,5,5.2,8.9,10,10.5s10.1,1.3,15.1.3c2.6-.5,5.3-1.1,8-.7s5.2,2.5,5.3,5.2-2.2,4.8-4.6,5.5-5.1.5-7.7.4a19.9,19.9,0,0,0-8.4,1.1,9.28,9.28,0,0,0-5.7,5.9,7.19,7.19,0,0,0,2.8,7.7c2.7,1.9,6.4,1.6,9.6.5s5.8-3.2,8.8-4.7,6.4-2.6,9.6-1.7,5.8,4.3,4.9,7.5A3.76,3.76,0,0,1,283,238.7Z" transform="translate(-19.32 -7.19)"/><path class="cls-10" d="M569.9,469.6c-6.8-3.5-21-2.3-20.6-5.2.3-1.8,8.6-10.5,8-15.1,4.6-12.3-6.5-23.1-9.2-30.1a2.8,2.8,0,0,1,1.4-2.2c1.1-.5,2.3.1,3.5.2,2.6.3,5.3-2.3,4.7-4.7,3.4-3.2,9.7-1.2,11.7,2.7s1.1,8.6.1,12.9-2,9-.2,12.9a3.11,3.11,0,0,0,1.4,1.6c1.2.5,2.6-.3,3.7-1.1a16,16,0,0,0,5.6-9.4,25,25,0,0,0-.3-8.2c-1.5-11.5-3-22.9-4.6-34.4-.2-1.8-.5-3.7.4-5.3a8.71,8.71,0,0,1,3.3-3c3.8-2.3,8.6-3.7,12.8-2.5,5.7,1.7,8.5,7.8,8,13.4s-3.3,10.9-5.6,16.2a100.09,100.09,0,0,0-7.3,24.9c7.8-8.4,18-15.3,23.2-25.1,5.6-10.6,4.4-22.8,3.1-34.2-.3-2.4-.2-5.5,2.2-6.7a4.75,4.75,0,0,1,5.3,1.1,10.73,10.73,0,0,1,2.3,4.8,65.32,65.32,0,0,1,10.8-.7c1.8,0,3.8.3,4.7,1.6,1.3,1.9-.4,4.3-1.9,6.2a149.64,149.64,0,0,0-23,37.4q20-12.45,40.9-23.5c1.2-.6,2.7-1.3,3.9-.7,1.4.7,1.2,2.7.5,4.1s-1.9,2.7-1.8,4.2c.1,2.3,3,3.5,5.4,4.2-4.6,8-15.3,10.7-24.6,13.4a148.84,148.84,0,0,0-40.3,19c-1.2.8-2.5,2.2-1.7,3.2.6.8,1.9.7,2.9.5a122.72,122.72,0,0,0,20.8-5.6c8.6-3.2,17.4-7.4,26.5-6.8,1.9.1,4,.7,4.7,2.2,1,2.4-2,4.7-4.6,5.7s-6,2-6.7,4.5c-.5,1.5.2,3.1-.1,4.6-.5,2.8-3.7,4.6-6.7,5.6-17.9,5.9-37.7-.7-55.8,4.5,2.3,2.3,6.2,2.5,9.8,2.5,7.7,0,15.3.1,23,.1,1.6,0,3.5.2,4.2,1.4,1.7,2.9-4.6,5.2-5.1,8.5-.4,2.7,3.2,4.7,2.5,7.4-.6,2.2-3.7,3-6.1,3C590.2,480.3,580.3,474.8,569.9,469.6Z" transform="translate(-19.32 -7.19)"/><path class="cls-12" d="M489.9,236.2c-11.4-1.1-18.7-15.4-30.2-14.9a25.43,25.43,0,0,0,8.9,12.2c2.6,1.9,5.5,3.3,7.7,5.7s3.3,6.3,1.5,9c-2,3-6.3,3.2-9.3,1.5s-4.9-4.7-7-7.5a57.45,57.45,0,0,0-10.3-10.6c-2.2-1.8-5.1-3.4-7.6-2-3.2,1.9-2.4,6.7-1.8,10.3a32.16,32.16,0,0,1-.4,13.1,10.17,10.17,0,0,1-2.4,5c-3,2.9-8.3.9-10.2-2.7s-1.4-8.1-.6-12.3c.6-3.2,1.4-6.6.5-9.7s-4.1-5.7-7.1-4.5c-4.4,1.8-3.4,8.6-6,12.6-2.3,3.5-7,4.3-10.9,3.2-5.3-1.4-9.6-5.8-11.5-11.1a22.75,22.75,0,0,1,1.2-16.6,4.63,4.63,0,0,1,1.3-1.8,3.14,3.14,0,0,1,1.6-.6c3-.4,5.8,1.4,8.6,2.6s6.5,1.8,8.5-.6c1.6-1.9,1.4-4.9.3-7s-3-3.8-4.5-5.7a24.29,24.29,0,0,1-4.9-19.4c.3-1.5.8-3.2,2.2-3.8,2-.9,4,1.2,5.1,3a118.17,118.17,0,0,1,12,25.7c1.2,3.8,3.2,8.5,7.2,8.4,3.3-.1,5.7-3.9,5.5-7.4s-2-6.4-3.8-9.3c-2.2-3.6-4.4-7.4-5.3-11.6s-.7-8.9,1.7-12.6,7.1-5.9,11-4.4c5.4,2,6.8,9.3,6.3,15.3s-2,12.4.6,17.7c.7,1.3,1.8,2.7,3.3,2.5a3.51,3.51,0,0,0,1.4-.6c4.9-3.1,6.4-9.5,7-15.3s.8-12.1,4.4-16.7c4.4-5.8,13.6-6.8,18.8-2s5.2,14.4,0,19.5c-2.6,2.5-6,3.9-8.7,6.2a16,16,0,0,0-5.3,8.4,3.1,3.1,0,0,0-.1,1.9,5.38,5.38,0,0,0,.9,1.2,21.75,21.75,0,0,0,12.5,5.4,46.18,46.18,0,0,1,6.5.6,12.28,12.28,0,0,1,9,9.7,9.48,9.48,0,0,1-2.1,8.1C493.4,236.5,489.9,236.2,489.9,236.2Z" transform="translate(-19.32 -7.19)"/><path class="cls-9" d="M131.2,734.1c-1.9-4.8-.1-13.9-2.1-13.9-1.3,0-8,4.3-11.2,3.4-8.9,1.6-15.7-6.8-20.5-9.4a2.11,2.11,0,0,0-1.7.6c-.4.6-.1,1.5-.1,2.3a2.76,2.76,0,0,1-3.6,2.5c-2.5,1.9-1.5,6.2,1,7.9s5.9,1.7,9,1.6,6.4-.3,9.1,1.4a2.66,2.66,0,0,1,1,1.1c.3.8-.4,1.7-1,2.2a10.55,10.55,0,0,1-7,2.5,22.88,22.88,0,0,1-5.8-1.1l-23.8-6.9a5.91,5.91,0,0,0-3.7-.3,5.28,5.28,0,0,0-2.4,1.8c-1.9,2.2-3.2,5.1-2.7,8,.8,3.9,4.9,6.4,8.9,6.7s7.9-.9,11.7-1.8a73,73,0,0,1,18-1.9c-6.5,4.1-12,9.9-19.3,12.1-7.8,2.4-16.3.3-24.2-1.9-1.7-.5-3.9-.8-4.9.7a3,3,0,0,0,.4,3.5,7.58,7.58,0,0,0,3.2,2,55.79,55.79,0,0,0-1.3,6.9c-.1,1.2-.1,2.5.8,3.2,1.2,1.1,3.1.3,4.5-.5a100.44,100.44,0,0,1,27.9-10.6C84.6,763.9,78.1,771.8,72,780c-.5.7-1.1,1.6-.7,2.4.4,1,1.8,1.1,2.8.8s2-.9,3.1-.7c1.6.3,2.2,2.3,2.5,4,5.9-2,8.6-8.7,11.2-14.4a86.58,86.58,0,0,1,16.3-23.9c.6-.7,1.7-1.3,2.4-.7a1.85,1.85,0,0,1,.2,1.9,68.61,68.61,0,0,1-5.5,12.8c-2.9,5.2-6.5,10.4-6.7,16.4,0,1.2.2,2.7,1.2,3.3,1.6.9,3.5-.7,4.3-2.4s1.8-3.6,3.6-3.8c1.1-.1,2.1.5,3.2.5,2,0,3.5-1.9,4.4-3.7,5.5-10.9,2.3-24.5,7.2-35.6,1.5,1.8,1.3,4.3,1.1,6.6-.5,5-1.1,9.9-1.6,14.9-.1,1-.1,2.3.7,2.9,1.9,1.5,4-2.4,6.4-2.3,1.9.1,3.1,2.6,5,2.5,1.6-.1,2.3-2,2.6-3.6C137.3,748.4,134.2,741.4,131.2,734.1Z" transform="translate(-19.32 -7.19)"/><path class="cls-6" d="M136.9,648.2c-11.5-6.9-38-15.3-46-6-3.8,4.3-5.8,9.8-8.7,14.7s-7.6,9.4-13.8,10c-4.3.4-8.7-1.2-12.7-3.2a16.42,16.42,0,0,1-5.5-3.8c-3.4-4.1-1.5-10,2.3-13.4s9-5,13.6-7.3a40.55,40.55,0,0,0,17.7-17.3c1-1.9,1.6-4.6-.4-5.9a6.19,6.19,0,0,0-1.9-.7c-7.4-1.5-14.7.9-21.4,3.4s-13.9,5.1-21.3,4-14.9-7.6-13.5-14.3c1.2-5.4,7.4-8.4,13.4-9.3,16.4-2.7,34.3,4.2,50.3.2a141.75,141.75,0,0,0-44.5-15.8c-5.6-1-11.4-1.6-16.5-4.2s-9.3-7.6-8.6-12.7a15.3,15.3,0,0,1,2.5-5.7c2.2-3.5,4.8-7.1,9.1-8.1,6-1.4,12,2.8,16.9,6.7,10.3,7.9,21,15.4,32,22.3,3.8,2.4,9.6,4.4,11.9,1.1-12.2-13.2-30.3-20.3-44.1-32.1-5.9-5.1-11.3-12.9-7.6-19.1s14.5-5.5,20.9-.8,9.9,11.9,14.2,18.3A83.72,83.72,0,0,0,92.6,568a5.1,5.1,0,0,0,2.3,1.2,2.5,2.5,0,0,0,2.3-3.2c-.4-1.5-1.7-2.7-2.9-3.8a166.15,166.15,0,0,1-27-31.8c-3.3-5-6.4-10.5-6.1-16.2s5.4-11.1,11.5-10.2c6.4.9,10,7.5,12.4,13.2,5.3,12.5,10.5,25.1,15.8,37.6,2.8-1.6,1.9-5.6.9-8.6-3.9-12-4.5-25.9,3.9-35,1.7-1.8,4.1-3.5,6.7-2.9,3.2.7,4.7,4.3,5.3,7.3,2.6,13.4.1,26.9-3,39.9s-8.2,28.3-8.1,41.8c.1,16.6,7.7,28.7,19,33.9,4.6,2.1,23.2,7.8,20.5,8.9Z" transform="translate(-19.32 -7.19)"/><path class="cls-12" d="M265.6,701.6a1.59,1.59,0,0,0,.7-2.8c-19-12-28.2-38.8-49.2-47.3-4.6-1.9-10-2.7-14.7-.1a11.78,11.78,0,0,0-5.7,8c-.8,4.5,1.6,6.6,3.9,8.6l24.7,21.1c-2.7,5.5-10.1,4.3-15,1.9a150,150,0,0,1-36.5-25.8c-4.2-4.1-8.4-8.6-14.4-9.7a11.57,11.57,0,0,0-10.9,3.9c-6.3,7.7.4,18.7,7.5,24.3a132.09,132.09,0,0,0,23.6,14.9c-15.9,1.3-33.1,2.3-45.3-7.3-7.6-6-12.6-15.5-21.1-20.1a21.13,21.13,0,0,0-29,9.6,18.19,18.19,0,0,0-1.9,6.4c-1.3,11.2,7,17.6,15.6,19.6,6.5,1.5,13.5,1.1,20.2,1.5a73.5,73.5,0,0,1,31.8,9.8,47.75,47.75,0,0,1-27.2,15.5c-6.3,1-13.1.7-17.7,7.7a16.43,16.43,0,0,0-1.7,14.7c4.2,10.6,16.2,12.5,26.1,8.8,8.2-3.1,15.1-9.4,21.5-16A247.37,247.37,0,0,0,168,729.2c3.7-4.7,7.3-9.7,13-11.5a8,8,0,0,1,8.3,1.6c5.6,5.5-.5,15.6-5.9,22.1-5.6,6.7-10.5,18.5-2.9,22.1a8,8,0,0,0,6.1.2c15.4-4.6,27.7-21.5,27.5-38.3a9.71,9.71,0,0,1,4.1-8.3c7.3-4.6,10.6,6.1,8.1,13-2.6,7.2-7.9,13.3-8.6,21.3a11.33,11.33,0,0,0,.7,5.5c3.5,8.7,14,5.8,19.6-.4a27.65,27.65,0,0,0,6.4-11.9c1.6-6.3.9-12.8.9-19.2s1.1-13.4,5.4-18.3C253.4,704,260.7,702.4,265.6,701.6Z" transform="translate(-19.32 -7.19)"/><path class="cls-12" d="M582.2,273.5c.7-.8-3.6,0-4.9,1.2-1.5,1.3-1.5,3.8-2.8,5.4-2.5,3-7.3,1.8-10.7-.1-3.1-1.8-6.2-4-7.8-7.2-2.3-4.7-1-10.4-.5-15.6a50.14,50.14,0,0,0-1.2-16.4c-1-4-2.5-7.8-3.1-11.9s-.1-8.5,2.6-11.7c3.8-4.6,11.2-4.8,16.2-1.5s7.5,9.4,7.8,15.3-1.3,11.8-3.2,17.4c2.8.5,4.9-2.4,6.1-4.9,7.6-16.4,6.7-35.3,5.2-53.3-.5-6.6-.4-14.5,5.2-18,5.8-3.6,13.9.9,16.6,7.2s1.7,13.5.8,20.2c-1,7-1.8,14-2.4,21.1-.3,3.2.8,7.8,4,7.3a4.09,4.09,0,0,0,2.7-2.1c2.2-3.5,2-7.9,1.8-12a186.63,186.63,0,0,1,2.5-38.8c1.2-7.1,3-14.5,7.7-20.1s13-8.6,19.4-5.2,8.4,11.7,7.1,18.7-5.3,13.2-8.5,19.5c-4.3,8.5-7.5,17.5-10.6,26.5-.4,1-.6,2.4.3,3.1a2.11,2.11,0,0,0,1.9.1c6.2-1.9,9-8.8,12-14.5s8.8-11.7,14.9-9.6c3.9,1.3,6,5.4,7.7,9.1,1.4,3,2.8,6.1,2.5,9.4-.5,4.9-4.6,8.5-8.7,11.2a78.61,78.61,0,0,1-33.4,12.3c-4.1.5-8.4.7-11.8,3s-5.3,7.4-2.7,10.5c3.1,3.6,8.9,1.7,13-.5s9.9-4.2,13.1-.7c2.2,2.5,1.7,6.4.1,9.4-4,7.5-14.1,10.9-21.8,7.4-4-1.8-7.1-5-10.8-7.4s-8.7-3.7-12.4-1.3c-4.2,2.7-4.2,10,.1,12.6,3.3,2,7.6,1.2,11.3,2.6a9.58,9.58,0,0,1-1.7,18.3c-4.9,1-9.7-2-13.2-5.5s-6.3-7.8-10.4-10.6" transform="translate(-19.32 -7.19)"/><path class="cls-5" d="M581.3,157.9c-4-4-6.2-9.4-8.3-14.6a72.44,72.44,0,0,1-4.4-13.4c-1.1-5.7-.8-11.5-.2-17.3.3-2.4.8-5.1,3-6.1a5.17,5.17,0,0,1,4.8.6,14.56,14.56,0,0,1,3.4,3.6c2.7,3.6,5.3,7.1,8,10.7,2.5-4.8,4.7-9.9,5.3-15.3,1.2-10.6-4.2-21.2-2.7-31.7a6.94,6.94,0,0,1,.8-2.8c1.5-2.8,5.5-3.5,8.3-2.1s4.6,4.4,5.3,7.4c2.5,10.3-4.6,21.8,0,31.4,8.9-13,8.4-29.9,11.2-45.4.6-3.6,1.5-7.2,3.8-10,1.7-2,4.6-3.5,6.9-2.3,1.5.8,2.3,2.6,2.8,4.3a32,32,0,0,1,2,12.6c-.3,4.6-1.9,8.9-3.3,13.3a125.8,125.8,0,0,0-5.2,24.2,62.86,62.86,0,0,0,16.6-24.1c.9-2.2,1.7-4.7,3.5-6.2a6.83,6.83,0,0,1,7.5-.8,6.6,6.6,0,0,1,3.4,6.7c-.6,4.1-4.7,6.6-7.9,9.2a67.48,67.48,0,0,0-8.3,8.6l-13.5,15.9a5.85,5.85,0,0,0-1.4,2.4,1.92,1.92,0,0,0,1.2,2.3,3.81,3.81,0,0,0,1.5-.1c3.5-.9,7.2-2.3,8.9-5.5.7-1.3,1-2.8,2.2-3.5,1.4-.9,3.3-.2,4.4,1.1a8.3,8.3,0,0,1,1.4,4.6,18.08,18.08,0,0,1-1.6,9.5,10,10,0,0,1-7.7,5.5c-2.3.2-4.5-.6-6.7-1s-4.8-.3-6.4,1.3c-.7.7-1.4,1.8-2.5,1.8s-1.6-1.2-1.9-2.2c-.8-2.4-1.6-4.9-2.3-7.3-4.1,2.1-4.9,7.4-5.3,12a4.94,4.94,0,0,0,.3,2.7,4.84,4.84,0,0,0,2.7,1.7c2.3.8,4.8,1.6,6.4,3.5s1.7,5.2-.5,6.4c-1.4.8-3.1.5-4.6.2a39.1,39.1,0,0,0-29.9,8Z" transform="translate(-19.32 -7.19)"/><path class="cls-12" d="M266.7,124.8c-.1-5-3.3-9.4-7.2-12.4s-8.6-4.9-13.1-7c-2.1-1-4.4-2.4-4.9-4.7-.6-2.8,2.3-5.5,5.2-5.5s5.5,2,7.2,4.3a38.3,38.3,0,0,0-10.2-12.8,24.57,24.57,0,0,0-4.8-3.1c-2.2-.9-4.5-1.2-6.6-2.4s-3.6-3.7-2.6-5.8c.7-1.5,2.3-2.2,3.8-2.7s3.4-.9,4.8,0c.4.2.7.5,1.1.5a1.11,1.11,0,0,0,.9-1.5,5.72,5.72,0,0,0-1.1-1.6c-2.2-2.3-4-5.8-2.4-8.6,1.3-2.4,4.5-3.1,7.1-2.2a12.59,12.59,0,0,1,6,5.2c3.5,5.2,5.3,11.3,7.2,17.3a11.74,11.74,0,0,0,2.3,4.6,2.89,2.89,0,0,0,2.4,1.1c.5-.1,1.2-.3,1.4-.8.3-1.2-.5-2.9-1.1-4.8s-.3-5.5,1.2-6.9c2-1.8,3.9-2.5,6-1.5s2.8,3.3,4,5.2c.9,1.4,6.6,17.2,4.6,23.9-2.1,6.9-5,20.4-11.3,22.6" transform="translate(-19.32 -7.19)"/><path class="cls-8" d="M333.7,126.2c-3.4,1.1-7.5,6.1-8.4,5-.6-.7-1.2-6.2-3.1-7.5-3.1-5.5-10.6-5.4-14-6.8a1.37,1.37,0,0,1-.4-1.2c.1-.5.8-.7,1.2-1a1.93,1.93,0,0,0-.3-3.1c-.1-2.2,2.6-3.5,4.7-2.9s3.5,2.4,4.8,4.1,2.7,3.6,4.7,4.3a1.73,1.73,0,0,0,1,.1c.6-.2.7-.9.7-1.5a7.88,7.88,0,0,0-1.7-4.9,19.42,19.42,0,0,0-3.1-2.6c-4.7-3.2-9.4-6.5-14.2-9.7a4.14,4.14,0,0,1-1.8-1.9,3.72,3.72,0,0,1-.1-2.1c.4-2,1.3-4,3.1-4.9,2.4-1.3,5.6-.2,7.5,1.8s3,4.6,4.2,7.1a52.91,52.91,0,0,0,6.9,10.5c-.7-5.2,0-10.8-2-15.7-2.2-5.3-7-8.8-11.7-12.1-1-.7-2.1-1.7-1.8-2.9A2,2,0,0,1,312,77a5.66,5.66,0,0,1,2.5.8,27.62,27.62,0,0,1,3.1-3.7,2.64,2.64,0,0,1,2.1-1c1.1.2,1.5,1.5,1.7,2.6A71.94,71.94,0,0,0,328,95.3c1.1-7,2.5-14,4.1-20.8a1.82,1.82,0,0,1,1-1.5c.7-.2,1.4.5,1.6,1.2a4.72,4.72,0,0,0,1,2c.9.7,2.2.2,3.2-.4,1.5,4.1-.9,8.4-2.8,12.3a61.46,61.46,0,0,0-5.6,19.2c-.1.6,0,1.5.7,1.6.5.1.8-.4,1.1-.8a47,47,0,0,0,4.5-8.6c1.5-3.8,2.7-8.1,5.8-10.8a2.33,2.33,0,0,1,2.3-.8c1.2.4,1.1,2.2.7,3.4s-1.1,2.6-.4,3.6c.4.6,1.2.9,1.7,1.5.9,1.1.5,2.7,0,4-3.4,7.7-12.1,12-15.9,19.5,1.6,0,2.9-1.2,4-2.3,2.4-2.5,4.9-4.9,7.3-7.4.5-.5,1.1-1.1,1.8-.9,1.6.4.5,3.2,1.6,4.4.9,1,2.8.5,3.5,1.6.6.9-.1,2.1-.8,3C344,123.2,338.9,124.6,333.7,126.2Z" transform="translate(-19.32 -7.19)"/><path class="cls-12" d="M576.1,555.9a11.11,11.11,0,0,1-9.2-1.3c-2.8-1.8-4.7-4.9-7.4-6.9a12.43,12.43,0,0,0-16.6,2.6c-3.7,5-2.7,13,2.2,16.8,3,2.3,6.8,3,10.1,4.8,4.4,2.3,7.7,6.1,10.9,9.8,3.8,4.4,7.8,9.9,6.3,15.6,6.7-1.3,13.5-2.5,20.3-3.8a50.39,50.39,0,0,0,8.7-2.2,38.09,38.09,0,0,0,7.1-4,35.52,35.52,0,0,0,9.5-8.6c2.5-3.5,3.8-8.1,2.7-12.3-1.8-6.6-10.1-10.3-16.1-7.2-2.3,1.2-4.2,3.2-6.6,4.1s-5.8.2-6.4-2.3c-.5-2.3,1.4-4.3,3.2-5.8,4.2-3.5,8.7-7.2,14.1-8.3a50.26,50.26,0,0,1,7.8-.6c7.7-.3,15.3-1.9,22.9-3.5a18.67,18.67,0,0,0,5.2-1.7,10.64,10.64,0,0,0,4.3-5.3,15.32,15.32,0,0,0-1.3-13.8,15,15,0,0,0-12-6.7c-5.5-.1-10.5,2.9-15.3,5.4s-10.5,4.7-15.7,3a35,35,0,0,1,19.3-19.2c11.7-4.7,25.3-2.7,37-7.5,2.8-1.1,5.6-2.9,6.6-5.7.8-2.5,0-5.3-1.2-7.6A22,22,0,0,0,643,472.8c-10.2,2.2-17.2,11.5-26.5,16.3-3.6-3.2-3.1-9.2-6.3-12.8-3.8-4.4-10.7-3.3-16.3-1.8a4.84,4.84,0,0,0-2.4,1.1,5,5,0,0,0-1.1,3.2c-.4,3.2-.8,6.5,0,9.6a49.14,49.14,0,0,0,2.6,6.3,37.21,37.21,0,0,1-.6,30.3c-1.4,2.9-4.1,6-7.1,5.1s-3.8-4.7-3.3-7.8,1.7-6.2.7-9.1c-1.4-4.1-6.4-5.6-10.7-5.7-4.7-.1-9.7,1.1-12.9,4.6-2.8,3.1-3.6,7.5-3.7,11.7-.1,3.3.3,6.9,2.4,9.5,1.4,1.7,3.4,2.7,5.2,3.8a42.81,42.81,0,0,1,12.3,11.3C576.4,549.9,576.1,555.9,576.1,555.9Z" transform="translate(-19.32 -7.19)"/><g class="cls-14"><path class="cls-3" d="M401.5,709.3c-16.4.1-29.4-18.5-45.6-16.3a36.62,36.62,0,0,0,14.8,15.4c4,2.2,8.5,3.8,12,6.8s5.8,8.1,3.7,12.1c-2.3,4.3-8.5,5.2-13,3.2s-7.8-5.8-11.3-9.3a90.53,90.53,0,0,0-16.5-13.1c-3.4-2.1-7.9-4-11.2-1.7-4.2,3-2.3,9.4-.7,14.3a45.75,45.75,0,0,1,1.8,18c-.3,2.5-.9,5.2-2.6,7.1-3.8,4.3-11.6,2.4-15-2.3s-3.4-10.9-3-16.7c.3-4.5.9-9.2-.9-13.3s-6.9-7.2-10.9-5.2c-5.9,3-3.3,12.2-6.3,18-2.6,5-9.2,6.8-14.9,5.9a25.54,25.54,0,0,1-18.3-13.6,28.94,28.94,0,0,1-1.1-22.9,6.81,6.81,0,0,1,1.5-2.6,5.7,5.7,0,0,1,2.2-1.1c4.2-1,8.5,1.1,12.6,2.5s9.5,1.6,12-2c2-2.8,1.1-6.8-.9-9.7s-4.9-4.9-7.4-7.2a33.59,33.59,0,0,1-10.4-25.8c.1-2.1.6-4.5,2.5-5.5,2.7-1.5,5.9,1.1,7.8,3.5a161.23,161.23,0,0,1,21.5,33.4c2.4,5,6.1,11.1,11.7,10.5,4.7-.5,7.4-6.1,6.6-10.8s-4-8.5-7.1-12.2c-3.8-4.6-7.5-9.5-9.6-15.1s-2.5-12.1.2-17.4,9-8.9,14.9-7.5c8.1,2,11.3,11.7,11.6,20s-.7,17.2,3.9,24.1c1.2,1.7,3.1,3.4,5.1,2.9a6.92,6.92,0,0,0,1.9-1c6.4-4.9,7.5-13.9,7.3-21.9s-.9-16.6,3.3-23.4c5.2-8.5,18.2-11.1,26.4-5.2s9.9,18.9,3.4,26.6c-3.2,3.8-7.8,6.1-11.3,9.7a21.88,21.88,0,0,0-6.1,12.2,5,5,0,0,0,.2,2.7,4.31,4.31,0,0,0,1.5,1.5,34.65,34.65,0,0,0,18.7,5.8c3.1,0,6.3-.4,9.4,0a17.93,17.93,0,0,1,14.5,12.1c1.2,3.8.9,8.2-1.5,11.3S401.5,709.3,401.5,709.3Z" transform="translate(-19.32 -7.19)"/></g><path class="cls-4" d="M203.1,164.9c-1.2-.8-2-2-3.1-2.9-2.8-2.4-6.9-2.6-10.6-2.7a1.81,1.81,0,0,0-1.3.3,1.5,1.5,0,0,0-.4,1.1c-.3,2.8-.2,6,1.8,8.1,1.4,1.5,3.5,2.2,5.4,3a25.78,25.78,0,0,1,9.5,7.5,6.62,6.62,0,0,0,2.4,2.3,4.45,4.45,0,0,0,2.3.3c3.4-.1,6.6-1.2,10-1.2,3.8-.1,7.5,1.2,11.2,1.1s8-2.3,8.4-6a9.57,9.57,0,0,0-.8-4.4c-1.2-3.5-2.7-7.5-6.1-8.9-2.9-1.2-6.3-.1-9,1.6a14.48,14.48,0,0,1-3.8,2.2c-1.4.4-3.2.1-3.9-1.2s.1-3.2,1.1-4.5a17.19,17.19,0,0,1,11.1-6.1c2.7-.3,5.5,0,8.2-.1a24,24,0,0,0,12.6-4.4,3,3,0,0,0,.8-.8,2.81,2.81,0,0,0,.1-2.2,10.08,10.08,0,0,0-1.5-4.2c-2-2.7-6.2-2.6-9.2-1.1s-5.3,4.1-8.2,5.9-6.7,2.8-9.5.9c-.2-4.3,4.1-7.4,8-9.1a80.59,80.59,0,0,1,10.4-3.7c1.9-.5,4-1,5.5-2.3a9.58,9.58,0,0,0,2.7-5.5,6.51,6.51,0,0,0,.1-3.1c-.7-2.8-4.2-4.1-7-3.4s-5,2.8-7,4.8c-2.5,2.4-5,4.8-7.5,7.3a5.86,5.86,0,0,1-1.9,1.3c-1.8.5-3.6-1.4-3.7-3.3s.7-3.7,1.3-5.5a27.26,27.26,0,0,0,1.6-10.2c-.1-2-.6-4.3-2.3-5.3-2.5-1.5-5.9.7-6.8,3.4s-.2,5.8.2,8.7a41.67,41.67,0,0,1,.4,6.1c0,2.4-1,5.6-3.4,5.4-1.9-.1-2.9-2.2-3.5-4-.7-2-1.3-3.9-2-5.9a12.54,12.54,0,0,0-2-4.2,4.37,4.37,0,0,0-4-1.8,4.57,4.57,0,0,0-3.1,2.5c-1.9,3.3-1.3,7.6.6,10.8a22.23,22.23,0,0,0,8.4,7.4c1.7,1,3.6,1.9,4.8,3.5s1.7,4,.5,5.5a4.51,4.51,0,0,1-5.3.9,17.52,17.52,0,0,1-4.6-3.5,15,15,0,0,0-5.3-3.4,6.88,6.88,0,0,0-6.1.6,5.28,5.28,0,0,0-2.1,5.7c.6,2.4,2.9,4,5.2,4.9s4.8,1,7.2,1.6,4.9,1.6,6.2,3.6,1.2,5.3-.8,6.6C205.6,165.2,204.2,165.7,203.1,164.9Z" transform="translate(-19.32 -7.19)"/><path class="cls-5" d="M472.9,684.8A171.1,171.1,0,0,1,474,645c.9-6.3,2.4-12.9,6.7-17.5s12.3-6.5,17-2.3c4.3,3.8,4.2,10.5,2.7,16s-4.1,10.9-3.6,16.6c.2,2.3,1.4,5,3.6,5.1,2.4.1,3.7-2.8,4.4-5.1,4.1-15.2,7.5-30.7,10.1-46.2.8-5,2.8-11.1,7.8-11.6,3.5-.3,6.7,2.8,7.6,6.2s.2,7.1-.5,10.6c-2,9.8-4,19.5-6,29.3,9.9-8.2,17.9-19.3,20.6-32,2-9.5-.6-25.2,7.8-30.2,3.1-3.5,9.2-3.2,12.7-2.1,4.1,1.3,6.8,5.4,7.5,9.6s-.2,8.5-1.5,12.6a72.56,72.56,0,0,1-14.8,26.2c8.9-2.2,15.5-9.7,20.2-17.6s8.2-16.5,14.2-23.5a42.51,42.51,0,0,1,30-14.9,10.89,10.89,0,0,1,5.7.8c3.7,1.8,4.9,6.7,3.7,10.6s-4.2,6.9-7.3,9.5A77,77,0,0,1,600.9,608c-5.9,2.3-13.1,4.9-14.2,11.1,5,0,9.9-1.2,14.9-1.6s10.3.1,14.2,3.2,5.5,9.4,2.2,13.2c-3.7,4.3-10.4,3-16,1.8-17.3-3.7-38-1.5-48.4,12.7,5.6,7.6,19.8-1.6,26.8,4.8,5,4.5,1.5,13.6-4.6,16.2s-13.2.7-19.5-1.6c-7.6-2.8-15.3-6.2-23.4-5.7-3.4.2-7,1.2-9.4,3.7s-3.2,6.7-1.2,9.5c1.9,2.6,5.3,3.3,8.3,4.4a15.53,15.53,0,0,1,8.6,7.7c1.5,3.6.9,8.3-2.1,10.8-4.5,3.7-11.3,1.4-16.6-1.1l-24.3-11.4C496,685.9,481.7,683.6,472.9,684.8Z" transform="translate(-19.32 -7.19)"/><path class="cls-7" d="M603.1,669.6a4,4,0,0,1-1.1-3.7,10.81,10.81,0,0,1,1.1-1.8,4.25,4.25,0,0,0-2.3-5.9,4.14,4.14,0,0,0-5.1,3.7c-.1,2.4,1.9,4.6,1.2,6.9-.9,3-5.8,3.9-5.6,7a4.72,4.72,0,0,0,1.6,2.8,31.22,31.22,0,0,0,17.3,9.2c1.9.3,4.3.3,5.3-1.4a3.71,3.71,0,0,0-.7-4,9.36,9.36,0,0,0-3.7-2.2l-4.2-1.8c.6-1.1,2.1-1,3.3-.8a144.73,144.73,0,0,1,15.9,3.3,14.37,14.37,0,0,0,5.4.7c1.8-.3,3.6-1.6,3.8-3.4.3-2.1-1.7-3.9-3.8-4.5s-4.3-.2-6.4-.2-4.5-.7-5.6-2.6c8.7-3.9,19.8,2.4,28.2-2.2,1.8-1,3.4-2.8,3.1-4.8a4.17,4.17,0,0,0-3.7-3.2,10.06,10.06,0,0,0-5.1.9c-3.6,1.3-7.7,3.2-10.9,1.1a4.5,4.5,0,0,1,3.2-4.2c1.8-.5,4.4-.1,5.2-1.9a3.89,3.89,0,0,0,.2-1.5c-.1-2.3-.8-4.8-2.7-6.1-2.7-1.9-6.8-.6-8.7,2.1-1.3,1.8-1.8,3.9-2.8,5.9a25.18,25.18,0,0,1-6.6,7.6,4.12,4.12,0,0,1-1.9,1.1c-1.7.3-3.2-1.7-2.9-3.5a7.06,7.06,0,0,1,3-4.2c1.3-1,2.8-2.2,2.8-3.9s-1.8-3-3.5-3.1a8.43,8.43,0,0,0-4.7,1.9c-1.3,1-2.7,2.2-2.9,3.9a7.89,7.89,0,0,0,.5,3,20.57,20.57,0,0,1,.2,8.9,4.07,4.07,0,0,1-1.3,2.6,2,2,0,0,1-2.7-.1A5.8,5.8,0,0,1,603.1,669.6Z" transform="translate(-19.32 -7.19)"/><path class="cls-9" d="M195.7,86.1a16.08,16.08,0,0,0-2.6,4.6c-.5,1.2-1.1,2.7-.4,3.9,1.1,1.8,4,1.1,5.6-.3,2.5-2.1,4-5.1,6.1-7.6s5.3-4.6,8.5-3.8a2.37,2.37,0,0,1,1.5.9,2.6,2.6,0,0,1,.4,1.5,16.4,16.4,0,0,1-6.6,13.6,21.24,21.24,0,0,1-15.1,3.9c-4.6-.5-9.6-3-10.3-7.4a8.51,8.51,0,0,0-.4-2.2,1.58,1.58,0,0,0-1.9-1c-.5.2-.7.6-1,1a12.17,12.17,0,0,1-6.9,4.6c-2.5.6-5.6.1-6.9-2.1a5.5,5.5,0,0,1-.5-3.8c.4-3.3,2.6-6.6,6-7.1,1.3-.2,2.7.1,4-.3s2.5-1.5,2.1-2.7l-5.6-4.4a4.32,4.32,0,0,1-1.7-2.1,3.33,3.33,0,0,1,.1-1.4,4.78,4.78,0,0,1,4-3.2,4.84,4.84,0,0,1,4.6,2.4c.7,1.2.8,2.7,1.5,3.9s2.7,1.9,3.5.7a2.2,2.2,0,0,0,.4-1.3c.5-4.5-.5-9-1.4-13.5s-1.8-9-1.2-13.5,3-9,7.1-11.1c3-1.5,6.5-1.6,9.8-1.7.7,0,1.4,0,1.8.5a1.78,1.78,0,0,1,.4,1c1.1,4.7-.5,9.6-2,14.1-2.1,6.1-4.2,12.2-6.2,18.3a33.85,33.85,0,0,0-1.9,7.6,2.46,2.46,0,0,0,.1,1.2,1.5,1.5,0,0,0,1.9.5,5.5,5.5,0,0,0,1.7-1.3c4.1-4.5,8.3-9.1,11.3-14.4,2-3.7,3.4-7.6,5.5-11.3s5.1-7,9.1-8.4a7.07,7.07,0,0,1,4.3-.3,3.93,3.93,0,0,1,2.9,2.8c.3,1.6-.6,3.1-1.5,4.4-4.1,6-8.2,12-12.2,18-.5.8-1,1.8-.5,2.5s1.6.5,2.4.1a7.66,7.66,0,0,1,2.3-1,2.38,2.38,0,0,1,2.2,2.9,4.49,4.49,0,0,1-2.8,2.9,18.61,18.61,0,0,1-4.1.8,26.3,26.3,0,0,0-13.8,6.4Z" transform="translate(-19.32 -7.19)"/><g class="cls-15"><path class="cls-16" d="M285.6,62.5a23.81,23.81,0,0,1-3.8-.1c-3.3.1-6.1,2.4-8.6,4.6-.3.3-.7.6-.7,1a2.11,2.11,0,0,0,.4,1c1.5,2.1,3.5,4.1,6.1,4.3,1.9.2,3.6-.7,5.4-1.2a23.28,23.28,0,0,1,10.8-.8,6.1,6.1,0,0,0,3,.1,4.07,4.07,0,0,0,1.7-1.2c2.2-2.1,3.7-4.8,5.9-6.9,2.5-2.3,5.7-3.7,8.1-6.1s3.9-6.3,2-9.1a9.89,9.89,0,0,0-3.2-2.5c-2.9-1.6-6.3-3.3-9.4-2.2-2.7,1-4.3,3.8-5,6.5a12.94,12.94,0,0,1-1.2,3.8c-.7,1.1-2.1,2-3.3,1.6-1.4-.5-1.9-2.2-2-3.7a15.8,15.8,0,0,1,3.7-10.8c1.6-1.9,3.7-3.3,5.4-5a20.81,20.81,0,0,0,5.7-10.6,3.75,3.75,0,0,0,.1-1.1c-.1-.7-.7-1.1-1.3-1.5a10,10,0,0,0-3.5-1.9c-3-.6-5.7,2-6.8,4.9s-1,6-1.8,8.9-2.8,5.9-5.8,6.3c-2.7-2.7-1.7-7.4-.2-10.9a56.06,56.06,0,0,1,4.7-8.7,11.63,11.63,0,0,0,2.3-4.9,9.08,9.08,0,0,0-1.5-5.3A6.11,6.11,0,0,0,291,8.9c-2.1-1.4-5.2-.2-6.7,2s-1.6,4.9-1.8,7.4l-.6,9.3a3.51,3.51,0,0,1-.5,2c-.9,1.4-3.2,1.2-4.5.1s-1.8-2.9-2.4-4.4a23.53,23.53,0,0,0-5.1-7.7c-1.3-1.3-2.9-2.5-4.7-2.2-2.6.5-3.5,4-2.4,6.4s3.4,4,5.4,5.6a35.94,35.94,0,0,1,4,3.8c1.4,1.6,2.7,4.3,1,5.7-1.3,1.1-3.3.3-4.7-.5-1.6-.9-3.2-1.8-4.9-2.7a11.43,11.43,0,0,0-3.8-1.6,4.07,4.07,0,0,0-3.8,1.2,4.31,4.31,0,0,0-.6,3.5c.7,3.3,3.7,5.8,7,6.8a19.24,19.24,0,0,0,10.1-.2,13.55,13.55,0,0,1,5.3-.6,4.26,4.26,0,0,1,3.7,3.4,4.12,4.12,0,0,1-3,3.8,14.54,14.54,0,0,1-5.1.5,15.3,15.3,0,0,0-5.6.9,6.29,6.29,0,0,0-3.7,4.1,4.93,4.93,0,0,0,2.1,5.1c1.9,1.2,4.4.9,6.4.1s3.8-2.3,5.8-3.3a9.1,9.1,0,0,1,6.4-1.4c2.2.5,4,2.7,3.4,4.9C287.4,61.2,286.8,62.4,285.6,62.5Z" transform="translate(-19.32 -7.19)"/></g><path class="cls-6" d="M101.5,161.8c-4.3,4.9-6.5,17-8.7,16-1.4-.6-6.7-9.5-10.6-10-9-6.6-20.3.2-26.6.9a2.2,2.2,0,0,1-1.5-1.6c-.2-1,.6-1.9,1-2.8.9-2.1-.7-5-2.8-5-1.9-3.6,1.2-8.4,4.8-9.2s7.2,1,10.5,2.8,6.9,3.7,10.5,3.1a2.47,2.47,0,0,0,1.6-.8c.7-.9.4-2.3-.1-3.3a13.89,13.89,0,0,0-6.5-6.8,22.5,22.5,0,0,0-6.8-1.6l-29-3.9c-1.5-.2-3.1-.4-4.2-1.6a7.2,7.2,0,0,1-1.7-3.5c-1-3.7-1.1-8,.8-11.2,2.6-4.4,8.2-5.3,12.7-3.7s8.2,5.2,11.9,8.3a83.52,83.52,0,0,0,18.7,11.7c-5.2-8.3-8.5-18.4-15.4-24.9-7.4-7-17.6-8.8-27.2-10.2-2.1-.3-4.5-1.1-5-3.3A4,4,0,0,1,30,97.1a8.43,8.43,0,0,1,4.4-.8,66.59,66.59,0,0,1,1.8-9.1c.4-1.5,1.1-3.1,2.4-3.6,1.8-.7,3.5,1.3,4.6,3a128.65,128.65,0,0,0,25.5,27.5C64.8,101.2,61.4,88,58.5,74.8a4,4,0,0,1,.3-3.4c.9-1,2.5-.4,3.4.5s1.8,2.2,3.1,2.5c1.9.4,3.5-1.7,4.6-3.5,5.5,5.6,5.4,15.2,5.6,23.5a126.73,126.73,0,0,0,6.7,37.8c.4,1.2,1.2,2.5,2.3,2.1.8-.3,1-1.4,1.1-2.3a115.51,115.51,0,0,0,0-18.6c-.7-7.9-2.3-16.2.3-23.6.5-1.5,1.4-3.2,2.8-3.4,2.2-.3,3.4,2.7,3.6,5.1s.3,5.4,2.2,6.6c1.1.7,2.5.5,3.7,1.1,2.2,1,2.9,4.1,3.1,6.8.9,16.2-8.8,31.3-8.6,47.5,2.4-1.4,3.4-4.6,4.2-7.6l5.1-19.2c.4-1.3.9-2.8,2.1-3.2,2.8-.8,3.2,5,5.8,6.2,2.1.9,4.6-1.6,6.5-.4,1.7,1,1.6,3.7,1.1,5.8C114.7,147.4,108.1,154.4,101.5,161.8Z" transform="translate(-19.32 -7.19)"/><path class="cls-10" d="M553.1,85.1a5.56,5.56,0,0,0,2.7,4c1.5.9,3.3,1.1,4.9,1.9a6.24,6.24,0,0,1-5.7,11.1c-1.7-.9-2.9-2.5-4.5-3.6a19.44,19.44,0,0,0-7-2.8c-2.9-.8-6.4-1.4-8.6.6-.9-3.4-1.9-6.8-2.8-10.2a23.41,23.41,0,0,1-.9-4.6,29.54,29.54,0,0,1,.2-4.2,20.37,20.37,0,0,1,1.8-6.4,7.88,7.88,0,0,1,5.1-4,6.12,6.12,0,0,1,7,5.8c0,1.3-.5,2.7-.4,4s1.2,2.7,2.5,2.4,1.7-1.6,1.9-2.8c.7-2.8,1.4-5.6.7-8.4a16.9,16.9,0,0,0-1.5-3.7,72,72,0,0,1-3.6-11.4,8.63,8.63,0,0,1-.4-2.8,5.61,5.61,0,0,1,1.5-3.2,7.9,7.9,0,0,1,6.7-2.5,7.57,7.57,0,0,1,5.8,4.1c1.3,2.5,1,5.5,1,8.3s.2,5.9,2.1,7.9a18,18,0,0,0,4.5-13.3c-.5-6.5-4.5-12.3-4.9-18.8a5.49,5.49,0,0,1,1.2-4.3,5.13,5.13,0,0,1,3.8-1.2,11.2,11.2,0,0,1,10.3,8.4c1.3,5.2-1.4,10.6-1.6,16,2.3.9,5-.6,7.4,0,2.9.8,3.9,4.2,4.5,7.1a2.23,2.23,0,0,1,0,1.4,2.34,2.34,0,0,1-1.2,1.2,14.5,14.5,0,0,1-4.5,2.2,20,20,0,0,1-3.5.2,19,19,0,0,0-13.9,7.1c-1,1.3-1.8,3.2-.8,4.4s3,.7,4.3-.2,2.5-2.2,4.1-2.4c2.2-.3,4,1.7,5,3.7,1.1,2.2,1.7,4.7.8,7-.8,2-2.7,3.3-4.6,4.3a7.19,7.19,0,0,1-4.9,1,12,12,0,0,1-3-1.5,25.33,25.33,0,0,0-8-3.2A15.65,15.65,0,0,0,553.1,85.1Z" transform="translate(-19.32 -7.19)"/><path class="cls-12" d="M496.3,91c2.7-.1,5.6.7,7.1,2.9s.7,5.9-1.8,6.6a7,7,0,0,1-3.2-.1A36.21,36.21,0,0,1,477.5,87c-1.4-1.9-2.7-4.5-1.4-6.4s4.3-1.8,6.2-.5,3.2,3.4,4.8,5a3.16,3.16,0,0,0,1.7,1.1,2.13,2.13,0,0,0,2.1-1.8,4.86,4.86,0,0,0-.5-2.9c-2.8-6.3-9.4-10.2-12.1-16.5-.7-1.7-.9-4,.6-5,1.9-1.3,4.2.8,5.6,2.6,2.3,3,4.6,6,6.9,9.1.8,1.1,2.3,2.2,3.3,1.2a3.55,3.55,0,0,0,.4-.9c.9-3.7-.9-7.5-3.1-10.5s-5.1-5.6-6.9-8.9a17.68,17.68,0,0,1-2.3-8.7,3.29,3.29,0,0,1,.4-2,2.7,2.7,0,0,1,2.2-1c3.4-.1,5.7,3.3,6.8,6.5s1.9,6.8,4.5,8.8c1.4-3.6.9-7.7-.3-11.4s-3.1-7.1-4.5-10.7c-.7-1.7-1.1-3.9.3-5.1a2.93,2.93,0,0,1,1.6-.7c3-.4,5.1,2.8,5.9,5.6s1.1,6.2,3.4,8.1c3.4-2.3,3.3-8.5,7.2-9.5,3.1-.8,5.7,2.8,5.5,5.9s-2.3,5.8-4.2,8.4a63.44,63.44,0,0,0-7.9,15.3c-.4,1.2-.5,3,.8,3.2a1.75,1.75,0,0,0,1.2-.4c1.8-1.3,2.5-3.6,3.9-5.3s4.1-3,5.6-1.4a3.94,3.94,0,0,1,.8,3c-.3,3.3-2.7,6-5.2,8.1s-5.5,3.8-7.6,6.3c-.9,1.1-1.6,2.9-.5,3.7s2.4-.2,3.4-1.1a8.24,8.24,0,0,1,3.5-2.3,3.14,3.14,0,0,1,3.7,1.3,3,3,0,0,1,.3,2.1c-.4,3.4-4,5.5-7.4,6.4s-7,1.4-9.4,3.8Z" transform="translate(-19.32 -7.19)"/><path class="cls-10" d="M502.3,154.9a1.77,1.77,0,0,0-2.1,1.3,5.36,5.36,0,0,0,.2,2.8c.6,2.1,1.1,4.3,1.7,6.4.5,1.8.9,3.9-.4,5.2-1.5,1.6-4.3.7-5.6-1s-1.5-4.1-2-6.3-1.4-4.5-3.4-5.4-4.6-.2-6.1-1.8c6.4-5.8,6.2-16.3,11.8-22.9,1.2-1.4,3.2-2.7,4.9-1.8,1.5.9,1.7,3,1.4,4.8a24.15,24.15,0,0,1-1.3,5.3c-.5,1.3-1.1,2.9-.3,4.1a2.87,2.87,0,0,0,3.6.7,6,6,0,0,0,2.5-3.1,19.84,19.84,0,0,0,1.8-9.6,44.76,44.76,0,0,1-.6-6.3c.1-2.4.8-4.8.6-7.2-.1-2-.9-4.3.2-6s3.5-1.7,5.1-.7a10.2,10.2,0,0,1,3.4,4.5,12.43,12.43,0,0,1,1.2,6c-.2,1.8-1.1,3.4-1.7,5.1a18.32,18.32,0,0,0-.6,8.7c1.2.9,2.8-.3,3.6-1.5,3.7-5.3,3.2-12.4,3.9-19a52.11,52.11,0,0,1,2.6-11.7c.6-1.7,1.6-3.5,3.3-3.8,2.2-.3,3.7,2.1,4.5,4.2,1,2.5,1.8,5.3,1,7.9-.5,1.6-1.5,3-1.8,4.6s.4,3.7,2,3.9,2.8-1.6,3.4-3.1c1.6-3.7,3.2-7.3,4.8-11,1.2-2.7,2.6-5.7,5.4-6.8a1.72,1.72,0,0,1,1.2-.2c1.3.1,2.1,1.6,2.3,3,.6,4.5-2.6,8.7-3.3,13.2a5.23,5.23,0,0,0,.2,2.5c1.1,2.2,4.3,1.8,6.4.7s4.4-2.8,6.6-2c1.9.6,3,2.9,2.8,5a10.91,10.91,0,0,1-7.9,8.3c-2.3.3-4.4-.8-6.6-1.4-4-1-8.2-.3-12.2.4-1.9.3-3.9.8-5,2.3-.3.5-.6,1.1-.2,1.6a1.37,1.37,0,0,0,.8.5,13.46,13.46,0,0,0,6.6.6,4.48,4.48,0,0,1,2.3,0,3.34,3.34,0,0,1,1.3,1.1l1.7,2a3.7,3.7,0,0,1,1.2,2.5,3.46,3.46,0,0,1-.8,1.6,8.72,8.72,0,0,1-6.8,2.9c-4.8-.1-9.3-4-13.9-3-1,.2-2.1.8-2.2,1.9a2,2,0,0,0,.7,1.6c1.4,1.3,3.6,1.2,5.3,2.2,2.1,1.3,2.8,4.1,2.9,6.6a6.16,6.16,0,0,1-.6,3.8c-1.2,2.1-4.3,2.4-6.5,1.2s-3.7-3.2-5.3-5-3.6-3.7-5.9-4a3.52,3.52,0,0,0-2.8.7c-1.4,1.1-1.4,3.4-.6,5a15.63,15.63,0,0,0,3.8,3.9c2.2,1.8,4.4,4.2,4,7a5.21,5.21,0,0,1-6,4.1c-2.7-.4-4.8-2.8-5.5-5.4-.6-2.2-.5-4.5-.9-6.7s-1.8-4.6-4-5" transform="translate(-19.32 -7.19)"/><path class="cls-6" d="M494.1,721.9c7.7,3.9,17.2,2.5,25-1.2s14.4-9.6,21.4-14.9c3.3-2.5,7.3-5,11.2-3.8,4.9,1.4,6.7,8.2,4.4,12.7s-7.4,7-12.4,7.8a67.3,67.3,0,0,0,28-5.5,32.57,32.57,0,0,0,8.6-5.1c3.1-2.7,5.6-6.2,9-8.4s8.6-2.6,11.1.7c1.7,2.3,1.6,5.4,1.2,8.3s-1.3,6.2-3.8,7.7c-.6.4-1.4.7-1.7,1.3-.5,1,.4,2.3,1.6,2.6a5.81,5.81,0,0,0,3.4-.5c5.3-1.7,12.2-1.5,15.3,3.2,2.6,4,1.2,9.7-2.2,13s-8.2,4.7-12.8,5.2c-10.8,1.3-21.8-1-32.5-2.8-3-.5-6-1-8.9-.1-1.5.5-3.1,1.4-3.6,3-.3.9-.5,2.2.2,2.9,1.5,1.5,4.8,1.5,8.3,2.2s8.8,4,9.7,7.5c1.2,4.7.7,8.2-2.4,10.6s-7.4,1.6-11.3,2c-2.8.3-32-3.7-40.7-12.3-9.1-9-27.6-24.6-26-36.3" transform="translate(-19.32 -7.19)"/></svg>