<svg width="691" height="622" viewBox="0 0 691 622" fill="none" xmlns="http://www.w3.org/2000/svg">
<g filter="url(#filter0_d)">
<path d="M342 423C455.771 423 548 328.98 548 213C548 97.0202 455.771 3 342 3C228.229 3 136 97.0202 136 213C136 328.98 228.229 423 342 423Z" fill="#ED6340"/>
</g>
<g filter="url(#filter1_d)">
<g clip-path="url(#clip0)">
<path d="M445.791 455.241C446.456 452.319 448.066 449.252 450.943 448.396C452.454 447.951 454.086 448.185 455.668 448.03C461.064 447.439 464.999 441.107 463.1 436.005C461.201 430.903 454.077 428.664 449.609 431.749C445.225 434.768 443.842 441.372 438.851 443.206C432.302 445.612 423.978 438.069 418.683 442.597C416.826 444.183 416.223 446.758 415.831 449.158C413.456 463.896 415.847 479.376 422.595 492.706C424.566 496.588 427.865 500.824 432.197 500.3C435.434 499.904 437.775 496.797 438.365 493.601C438.955 490.405 438.169 487.136 437.389 483.988C436.565 480.659 435.742 477.33 434.918 474.001C437.652 473.696 439.619 476.462 440.923 478.887C446.665 489.619 451.875 500.642 456.497 511.909C458.043 515.694 459.624 519.625 462.552 522.472C465.48 525.319 470.217 526.792 473.76 524.749C477.937 522.335 478.507 516.284 476.65 511.828C474.793 507.371 471.197 503.908 468.436 499.949C465.675 495.99 463.685 490.833 465.571 486.404C484.436 496.811 488.038 525.321 507.7 534.192C511.864 536.067 517.338 536.644 520.554 533.393C523.32 530.607 523.28 525.877 521.404 522.411C519.527 518.945 516.23 516.512 512.911 514.4C505.671 509.799 496.762 504.75 496.236 496.184C499.692 493.691 504.781 493.769 508.183 496.346C511.598 498.943 514.31 504.024 518.511 503.092C519.633 502.849 520.598 502.159 521.502 501.438C525.579 498.177 529.004 493.481 528.851 488.261C528.646 480.781 520.758 475.174 513.271 475.358C508.377 475.48 503.76 477.485 498.952 478.364C491.47 479.734 483.783 478.379 476.367 476.742C474.696 476.379 472.954 475.948 471.722 474.792C468.817 472.07 470.552 466.714 474.074 464.838C477.583 462.942 481.882 463.543 485.751 464.526C489.328 465.427 493.483 466.51 496.445 464.3C499.567 461.99 499.488 456.976 497.196 453.827C494.904 450.679 491.095 449.057 487.378 447.936C483.809 446.848 479.739 446.145 476.514 448.003C474.517 449.145 473.144 451.099 471.702 452.899C467.468 458.132 462.028 462.388 455.92 465.203C453.882 466.147 451.602 466.95 449.412 466.451C447.221 465.952 445.305 463.645 446.015 461.506C445.951 461.56 445.126 458.162 445.791 455.241Z" fill="#A1A59F"/>
</g>
<g clip-path="url(#clip1)">
<path d="M124.463 495.666C123.421 496.855 122.779 498.323 122.152 499.776C121.675 500.887 121.205 502.2 121.831 503.233C122.802 504.833 125.332 504.212 126.765 503.007C128.982 501.143 130.306 498.471 132.138 496.241C133.971 494.011 136.806 492.123 139.626 492.815C140.127 492.939 140.636 493.164 140.934 493.584C141.2 493.965 141.263 494.454 141.286 494.92C141.537 499.574 139.164 504.196 135.451 507.055C131.739 509.914 126.836 511.064 122.16 510.551C118.134 510.108 113.725 507.855 113.083 503.893C112.973 503.225 112.981 502.518 112.691 501.904C112.401 501.291 111.696 500.786 111.054 501.026C110.655 501.174 110.404 501.555 110.161 501.897C108.712 503.924 106.504 505.408 104.068 505.991C101.867 506.519 99.1417 506.099 98.0217 504.142C97.4499 503.14 97.4029 501.928 97.5517 500.786C97.9277 497.865 99.87 494.874 102.799 494.415C103.951 494.237 105.149 494.462 106.277 494.19C107.405 493.918 108.509 492.83 108.156 491.735C106.512 490.43 104.867 489.125 103.222 487.827C102.58 487.315 101.891 486.74 101.711 485.94C101.624 485.528 101.679 485.1 101.797 484.704C102.259 483.166 103.7 481.977 105.306 481.807C106.911 481.636 108.579 482.506 109.355 483.912C109.95 484.999 110.028 486.312 110.678 487.369C111.328 488.426 113.036 489.031 113.772 488.029C114.023 487.687 114.085 487.252 114.124 486.833C114.54 482.793 113.702 478.746 112.895 474.768C112.088 470.79 111.313 466.72 111.845 462.695C112.378 458.671 114.461 454.631 118.087 452.751C120.711 451.392 123.781 451.291 126.734 451.221C127.314 451.205 127.964 451.221 128.355 451.648C128.575 451.889 128.669 452.208 128.747 452.526C129.726 456.729 128.332 461.079 126.961 465.181C125.129 470.651 123.304 476.112 121.471 481.581C120.727 483.811 119.967 486.072 119.771 488.41C119.74 488.767 119.724 489.148 119.897 489.459C120.202 490.018 120.985 490.158 121.581 489.933C122.176 489.707 122.63 489.226 123.053 488.752C126.703 484.728 130.384 480.649 132.968 475.879C134.746 472.601 135.976 469.042 137.809 465.795C139.641 462.548 142.265 459.518 145.797 458.259C146.996 457.832 148.327 457.622 149.557 457.956C150.786 458.291 151.891 459.254 152.126 460.505C152.392 461.903 151.554 463.255 150.763 464.443C147.168 469.804 143.573 475.164 139.986 480.532C139.524 481.216 139.07 482.156 139.587 482.801C140.049 483.384 140.989 483.267 141.662 482.933C142.336 482.599 142.962 482.094 143.714 482.063C144.952 482.016 145.884 483.422 145.656 484.627C145.429 485.831 144.372 486.74 143.221 487.198C142.069 487.656 140.816 487.734 139.587 487.913C135.083 488.573 130.791 490.601 127.423 493.654L124.463 495.666Z" fill="#E98F87"/>
</g>
<g clip-path="url(#clip2)">
<path d="M310.69 525.521C312.477 525.796 314.112 526.688 315.868 527.134C320.426 528.284 325.135 526.291 329.422 524.351C329.958 524.113 330.549 523.808 330.745 523.256C330.911 522.791 330.767 522.277 330.596 521.812C329.403 518.384 327.467 514.84 324.086 513.524C321.637 512.568 318.901 512.957 316.274 513.032C311.121 513.179 305.932 512.048 301.319 509.742C300.051 509.115 298.758 508.384 297.349 508.41C296.351 508.431 295.409 508.836 294.526 509.289C290.744 511.244 287.616 514.31 283.809 516.23C279.549 518.389 274.641 518.995 270.4 521.198C266.16 523.401 262.536 528.213 264.121 532.712C264.752 534.518 266.129 535.952 267.462 537.321C270.742 540.699 274.663 544.348 279.368 544.05C283.376 543.799 286.664 540.658 288.72 537.2C289.678 535.588 290.478 533.83 291.862 532.561C293.247 531.293 295.468 530.682 297.004 531.758C298.719 532.956 298.713 535.506 298.228 537.541C296.955 542.876 293.543 547.668 288.919 550.631C285.992 552.503 282.651 553.648 279.599 555.318C274.575 558.072 270.382 562.308 267.672 567.351C267.435 567.785 267.209 568.255 267.161 568.748C267.078 569.717 267.687 570.578 268.274 571.35C269.413 572.851 270.61 574.416 272.295 575.265C276.097 577.2 280.837 574.769 283.423 571.363C286.01 567.957 287.218 563.72 289.439 560.064C291.661 556.408 295.565 553.151 299.777 553.843C302.38 558.648 299.169 564.507 295.652 568.706C292.647 572.294 289.338 575.643 285.765 578.672C283.826 580.318 281.728 581.986 280.751 584.34C279.736 586.774 280.094 589.559 280.738 592.119C281.064 593.403 281.476 594.717 282.322 595.748C284.636 598.556 289.342 598.09 292.137 595.756C294.932 593.423 296.288 589.829 297.53 586.406C299.037 582.264 300.544 578.122 302.043 573.974C302.382 573.05 302.747 572.079 303.483 571.418C305.281 569.822 308.323 571.008 309.563 573.057C310.804 575.107 310.842 577.637 311.089 580.019C311.548 584.39 312.875 588.66 314.961 592.526C316.18 594.768 317.962 597.074 320.496 597.344C324.193 597.731 326.86 593.326 326.361 589.638C325.863 585.95 323.354 582.923 321.262 579.851C319.799 577.699 318.495 575.442 317.374 573.1C316.058 570.355 315.458 566.204 318.268 565.006C320.475 564.061 322.797 565.922 324.465 567.627C326.3 569.501 328.144 571.382 329.979 573.256C331.345 574.653 332.76 576.076 334.527 576.91C336.294 577.744 338.526 577.873 340.119 576.723C341.534 575.704 342.175 573.884 342.29 572.141C342.633 567.347 339.6 562.772 335.572 560.17C331.537 557.577 326.642 556.664 321.845 556.352C319.32 556.188 316.691 556.148 314.392 555.079C312.093 554.01 310.22 551.529 310.766 549.053C311.297 546.662 313.879 545.203 316.316 545.069C318.754 544.935 321.126 545.784 323.476 546.475C326.052 547.229 328.742 547.798 331.407 547.461C334.071 547.123 336.721 545.749 338.035 543.411C339.389 541.008 339.06 537.77 337.259 535.687C335.206 533.322 331.745 532.669 328.632 533.024C325.519 533.378 322.561 534.551 319.501 535.244C316.44 535.937 313.066 536.101 310.351 534.542C307.635 532.984 306.025 529.235 307.652 526.556C307.675 526.561 308.903 525.246 310.69 525.521Z" fill="#F7D29A"/>
</g>
<path d="M369.344 483.733C363.703 487.053 352.1 486.456 352.436 489.025C352.648 490.645 359.33 498.116 358.785 502.329C362.39 513.174 353.226 523.216 350.937 529.576C351.066 530.342 351.339 531.179 352.033 531.519C352.907 531.946 353.908 531.362 354.864 531.189C357.032 530.801 359.199 533.094 358.696 535.244C361.468 538.007 366.636 535.99 368.344 532.458C370.051 528.927 369.367 524.754 368.596 520.905C367.829 517.058 367.037 512.934 368.572 509.323C368.816 508.744 369.153 508.159 369.712 507.874C370.695 507.378 371.863 508.027 372.69 508.757C375.097 510.866 376.711 513.857 377.158 517.033C377.506 519.482 377.175 521.971 376.847 524.426C375.474 534.731 374.096 545.035 372.722 555.345C372.509 556.933 372.312 558.638 373.031 560.072C373.592 561.208 374.651 562.007 375.729 562.668C378.835 564.58 382.709 565.707 386.147 564.473C390.856 562.786 393.158 557.184 392.862 552.185C392.567 547.186 390.302 542.554 388.453 537.901C385.638 530.82 383.714 523.381 382.741 515.813C388.994 523.111 397.284 528.905 401.444 537.57C405.911 546.879 404.812 557.799 403.625 568.07C403.369 570.263 403.393 573.01 405.352 574.014C406.782 574.745 408.614 574.043 409.666 572.821C410.718 571.6 411.183 569.994 411.612 568.435C414.536 568.795 417.489 568.883 420.425 568.701C421.878 568.609 423.53 568.334 424.307 567.098C425.387 565.39 424.063 563.226 422.824 561.628C415.131 551.689 408.907 540.604 404.414 528.853C415.214 535.872 426.295 542.449 437.625 548.565C438.604 549.095 439.814 549.618 440.772 549.043C441.928 548.347 441.781 546.6 441.187 545.391C440.594 544.181 439.671 543.01 439.752 541.662C439.872 539.562 442.213 538.435 444.192 537.75C440.547 530.741 431.763 528.672 424.188 526.495C412.491 523.127 401.363 517.769 391.431 510.723C390.483 510.048 389.437 508.866 390.075 507.894C390.55 507.166 391.604 507.206 392.458 507.338C398.241 508.234 403.94 509.699 409.438 511.713C416.481 514.289 423.625 517.816 431.079 516.952C432.61 516.773 434.346 516.229 434.915 514.793C435.771 512.631 433.357 510.611 431.176 509.82C428.996 509.03 426.321 508.245 425.712 506.005C425.351 504.681 425.89 503.263 425.7 501.902C425.345 499.38 422.713 497.894 420.299 497.105C405.729 492.364 389.434 498.906 374.647 494.877C376.569 492.708 379.788 492.431 382.676 492.298C388.962 492.016 395.243 491.737 401.53 491.455C402.833 491.396 404.362 491.206 404.989 490.059C406.453 487.401 401.248 485.59 400.896 482.58C400.619 480.211 403.546 478.237 403.015 475.909C402.56 473.936 400.039 473.384 398.019 473.398C386.034 473.502 377.874 478.712 369.344 483.733Z" fill="#E67D0A"/>
<g clip-path="url(#clip3)">
<path d="M247.442 514.922C248.494 515.363 249.538 516.167 249.67 517.302C249.738 517.898 249.544 518.494 249.498 519.098C249.366 521.159 251.482 523.049 253.519 522.672C255.556 522.294 256.863 519.77 255.999 517.892C255.154 516.051 252.769 515.1 252.409 513.109C251.935 510.496 255.309 507.869 253.958 505.587C253.485 504.787 252.559 504.392 251.685 504.088C246.315 502.232 240.355 502.114 234.915 503.771C233.331 504.255 231.527 505.215 231.439 506.873C231.376 508.113 232.387 509.194 233.547 509.625C234.706 510.055 235.983 509.975 237.214 509.889C238.517 509.798 239.819 509.707 241.121 509.616C241.056 510.661 239.89 511.218 238.895 511.548C234.496 512.997 230.022 514.228 225.495 515.223C223.975 515.554 222.397 515.89 221.138 516.801C219.879 517.712 219.016 519.392 219.55 520.854C220.181 522.578 222.412 523.188 224.205 522.784C225.998 522.38 227.531 521.258 229.197 520.483C230.862 519.707 232.925 519.299 234.462 520.296C229.325 526.687 218.4 526.169 213.786 532.959C212.81 534.398 212.235 536.412 213.243 537.831C214.107 539.051 215.883 539.345 217.305 538.869C218.727 538.393 219.856 537.316 220.865 536.21C223.064 533.797 225.541 530.788 228.787 531.152C229.495 532.611 229.132 534.514 227.943 535.62C226.746 536.73 224.663 537.414 224.738 539.05C224.755 539.487 224.951 539.894 225.162 540.28C226.117 542.022 227.653 543.614 229.62 543.899C232.438 544.312 235.057 541.722 235.478 538.903C235.753 537.06 235.304 535.198 235.29 533.337C235.266 530.443 236.278 527.65 237.377 524.977C237.623 524.374 237.899 523.749 238.413 523.363C239.624 522.452 241.518 523.453 241.991 524.897C242.472 526.337 241.965 527.909 241.342 529.295C240.77 530.577 240.092 532.064 240.726 533.319C241.388 534.641 243.273 534.94 244.604 534.287C245.934 533.634 246.792 532.312 247.456 530.992C248.097 529.725 248.627 528.245 248.142 526.914C247.845 526.091 247.203 525.448 246.622 524.79C244.937 522.859 243.698 520.541 243.043 518.067C242.823 517.241 242.671 516.333 243.002 515.545C243.332 514.756 244.323 514.189 245.078 514.596C245.062 514.568 246.39 514.481 247.442 514.922Z" fill="#A0AFCC"/>
</g>
<path d="M76.6459 131.387C76.6984 132.174 77.5763 132.723 78.3138 132.686C79.054 132.635 79.6646 132.174 80.2398 131.721C81.5962 130.661 82.9603 129.597 84.3168 128.537C85.4416 127.659 86.842 126.743 88.2318 127.343C89.9107 128.067 90.258 130.608 89.399 132.146C88.5399 133.685 86.9234 134.512 85.502 135.497C84.0884 136.477 82.7082 137.88 82.7295 139.729C82.7485 141.556 84.1298 143.465 83.5346 145.12C77.1615 141.602 69.5584 144.742 62.8631 142.105C61.4024 141.524 59.7895 140.284 59.8991 138.711C60.0001 137.244 61.5146 136.523 62.8759 136.22C64.2802 135.903 65.7182 135.748 67.1822 135.76C68.3181 135.771 69.6381 135.799 70.2613 134.853C70.8487 133.951 70.4088 132.543 69.5434 131.77C68.6779 130.998 67.5346 130.73 66.4478 130.61C63.8077 130.327 61.1574 130.776 58.8436 131.901C57.3618 132.626 56.0061 133.618 54.4503 134.183C52.6868 134.813 50.712 134.876 49.0325 135.683C47.6117 136.373 46.2356 137.626 44.6298 137.165C43.1247 136.735 42.2305 134.834 42.4007 133.259C42.566 131.675 43.5209 130.386 44.5446 129.284C45.6372 128.107 46.9056 127.02 48.4646 126.635C49.8388 126.302 51.3106 126.535 52.7445 126.53C55.0722 126.509 57.3438 125.818 59.2226 124.53C59.4519 123.351 58.0809 122.4 56.9356 122.076C51.801 120.607 46.8082 123.004 41.8645 124.316C38.8193 125.123 35.6571 125.522 32.4538 125.503C31.0352 125.499 29.3415 125.237 28.5674 123.923C27.5976 122.259 28.839 120.359 30.0836 119.127C31.5934 117.647 33.3474 116.217 35.4994 116.107C36.8052 116.041 38.1514 116.462 39.4331 116.286C40.7148 116.109 41.9816 114.932 41.5688 113.587C41.1488 112.212 39.4588 111.834 38.1144 111.73C34.906 111.475 31.685 111.217 28.4766 110.963C26.0854 110.771 23.438 110.459 21.7106 108.572C21.4584 108.3 21.2394 107.998 21.1168 107.651C20.742 106.544 21.5633 105.481 22.4902 104.947C25.5731 103.176 29.6805 104.626 33.1873 103.853C33.8451 103.716 34.5115 103.47 34.9411 102.945C36.1478 101.474 34.7847 99.0207 33.2387 97.6508C31.6928 96.2809 29.7352 94.9265 29.5114 92.8913C29.3171 91.1676 30.6023 89.6731 32.1541 89.2582C33.7058 88.8434 35.4279 89.2926 36.9756 90.0034C38.5057 90.7019 40.0224 91.726 40.8801 93.2517C41.8493 94.984 41.8181 97.022 42.1719 98.9467C42.815 102.426 44.7515 105.574 46.6438 108.612C47.5204 110.013 48.5397 111.534 50.0445 111.998C50.4849 112.136 51.0353 112.129 51.269 111.742C51.4026 111.516 51.3905 111.216 51.3682 110.934C51.1883 109.044 50.559 107.156 49.5564 105.489C49.2064 104.912 48.8011 104.311 48.775 103.657C48.7571 103.191 48.9382 102.767 49.1166 102.356C49.3959 101.715 49.6752 101.074 49.9594 100.441C50.2645 99.7392 50.6511 98.9669 51.3775 98.7886C51.8432 98.6732 52.3464 98.8306 52.8013 99.0278C54.7489 99.8774 56.4 101.583 57.2322 103.623C58.8205 107.486 57.5176 112.157 59.8573 115.623C60.3546 116.363 61.188 117.063 61.9703 116.841C62.4386 116.712 62.7562 116.276 62.9151 115.796C63.4052 114.294 62.5195 112.546 62.6749 110.946C62.8779 108.886 64.6912 107.591 66.4416 106.764C67.3472 106.333 68.3433 105.95 69.3737 106.149C71.3362 106.536 72.5636 108.933 72.497 110.98C72.4304 113.028 71.4576 114.826 70.664 116.633C69.8703 118.439 69.2229 120.511 69.8283 122.514C70.0748 123.334 70.5538 124.129 71.2661 124.572C72.5654 125.384 74.2077 124.757 75.0777 123.62C75.9477 122.484 76.2461 120.969 76.6044 119.521C77.1499 117.294 78.1573 114.84 80.3131 114.353C82.4007 113.872 84.7646 115.724 85.3523 117.976C85.9399 120.228 84.9866 122.583 83.3419 123.937C81.9797 125.057 80.2325 125.576 78.7785 126.557C77.3118 127.535 76.0897 129.276 76.5474 131.151" fill="#A9BFDE"/>
<path d="M166.762 278.234C174.365 271.909 178.945 258.934 184.337 248.875C185.788 246.187 187.24 243.268 186.982 240.208C186.602 235.666 182.3 232.161 177.845 231.676C173.391 231.191 168.957 233.205 165.439 236.031C161.921 238.857 159.122 242.469 156.123 245.851C154.219 247.992 150.601 250.017 148.94 247.67C148.428 246.952 148.333 246.003 148.351 245.11C148.422 240.926 150.492 237.043 152.865 233.62C161.04 221.792 173.444 212.768 178.62 199.314C180.556 194.26 181.061 187.798 177.16 184.087C174 181.083 168.913 181.045 164.949 182.836C160.985 184.627 157.895 187.888 154.909 191.069C152.217 193.934 149.492 196.85 147.534 200.273C142.977 208.27 142.938 218.484 137.504 225.892C136.632 227.067 135.479 228.247 134.026 228.289C131.699 228.365 130.317 225.607 130.036 223.263C129.25 216.728 132.206 210.382 135.305 204.597C139.736 196.326 144.649 188.266 147.98 179.472C151.311 170.677 153.003 160.95 150.722 151.818C150.436 150.682 150.05 149.491 149.185 148.7C148.234 147.843 146.893 147.641 145.625 147.598C135.811 147.216 126.887 154.25 122.111 162.924C117.334 171.598 115.914 181.714 114.752 191.592C114.17 196.537 113.488 201.85 110.15 205.486C107.627 204.235 107.311 200.787 107.373 197.946C107.766 180.232 109.428 162.548 112.364 145.071C113.269 139.692 114.086 133.515 110.601 129.37C107.036 125.119 100.061 125.174 95.6502 128.494C91.2394 131.815 89.1275 137.525 88.6974 143.073C88.2672 148.622 89.2976 154.172 89.9951 159.704C90.6925 165.237 91.0301 170.968 89.3066 176.253C88.9346 177.399 88.368 178.601 87.2871 179.098C85.7525 179.794 83.9024 178.63 83.1857 177.084C82.4689 175.539 82.5457 173.757 82.5579 172.063C82.5835 166.108 81.3995 159.969 78.0202 155.091C74.6408 150.213 68.7935 146.846 62.9646 147.593C61.685 147.752 60.4347 148.105 59.2761 148.687C53.4089 151.654 51.9026 159.899 54.171 166.153C56.4393 172.406 61.4311 177.141 66.0785 181.845C67.3497 183.137 68.6815 184.586 68.8965 186.392C69.1115 188.198 67.5488 190.288 65.7993 189.816C64.8142 189.552 64.18 188.628 63.6034 187.779C60.0024 182.533 55.4751 177.94 50.3225 174.269C49.0932 173.39 47.7781 172.553 46.3049 172.334C42.4918 171.756 39.1807 175.708 38.9308 179.612C38.6941 183.516 40.6026 187.199 42.5926 190.552C45.7614 195.932 49.4182 201.267 54.654 204.595C62.7703 209.737 73.03 209.133 82.5856 208.586C85.8928 208.393 89.2741 208.25 92.4301 209.258C95.5861 210.266 98.508 212.71 99.181 215.987C99.3228 216.67 99.3541 217.38 99.1119 218.027C98.5448 219.446 96.8211 219.941 95.3191 220.057C85.9955 220.783 76.4385 214.205 67.7332 217.685C65.9132 218.412 64.2059 219.628 63.3281 221.386C61.7928 224.43 63.2127 228.374 65.8534 230.496C68.4942 232.618 72.0319 233.255 75.4112 233.234C82.155 233.203 88.7112 230.936 95.4283 230.372C102.145 229.808 109.805 231.444 113.492 237.176C114.21 238.288 114.756 239.594 114.576 240.914C114.283 242.925 112.312 244.324 110.333 244.609C108.354 244.894 106.362 244.323 104.435 243.773C99.391 242.329 93.9988 240.988 88.9938 242.535C83.9888 244.082 79.8299 249.66 81.6693 254.636C82.7308 257.489 85.4495 259.417 88.2807 260.451C98.9747 264.382 110.341 257.964 121.467 255.586C124.812 254.882 128.821 254.753 131.052 257.364C133.401 260.099 132.406 264.598 129.934 267.207C127.46 269.83 123.939 271.081 120.61 272.412C116.871 273.906 113.123 275.684 110.365 278.65C107.608 281.602 106.01 285.995 107.309 289.842C108.695 293.944 113.143 296.505 117.416 296.41C121.702 296.317 126.228 294.423 128.66 290.859C137.425 277.954 159.009 284.688 166.762 278.234Z" fill="#3A5751"/>
<path d="M472.229 418.223C471.767 423.449 474.802 430.308 476.49 436.273C476.937 437.87 477.467 439.561 478.667 440.709C480.446 442.416 483.269 442.327 485.055 440.963C486.841 439.598 487.715 437.228 487.965 434.85C488.215 432.473 487.922 430.029 487.783 427.608C487.697 426.074 488.273 423.986 489.722 424.354C490.167 424.465 490.544 424.816 490.86 425.184C492.348 426.904 493.003 429.202 493.383 431.42C494.704 439.075 493.482 447.078 496.474 454.34C497.602 457.066 499.755 459.86 502.507 459.995C504.736 460.104 506.588 458.337 507.374 456.222C508.16 454.108 508.097 451.704 508.027 449.369C507.964 447.265 507.896 445.129 507.366 443.057C506.122 438.221 502.444 434.07 501.73 429.166C501.62 428.384 501.61 427.502 502.12 426.976C502.934 426.129 504.431 426.762 505.38 427.613C508.027 429.984 509.253 433.59 510.223 437.019C511.612 441.922 512.749 446.908 514.725 451.637C516.7 456.366 519.605 460.899 523.731 463.798C524.245 464.158 524.815 464.505 525.414 464.522C526.068 464.536 526.626 464.147 527.099 463.72C530.786 460.436 531.469 454.459 530.059 449.272C528.65 444.085 525.506 439.49 522.355 435.083C520.778 432.876 519.104 430.485 518.996 427.842C520.36 427.465 521.721 428.75 522.726 429.923C528.988 437.235 534.78 444.979 540.038 453.086C541.655 455.582 543.593 458.37 546.351 458.827C549.177 459.299 551.679 456.832 552.073 453.941C552.467 451.051 551.166 447.998 549.315 445.6C547.465 443.202 545.086 441.316 542.834 439.32C540.581 437.323 538.387 435.121 537.1 432.376C536.82 431.782 536.59 431.097 536.801 430.516C537.105 429.697 538.194 429.52 539.012 429.894C539.83 430.269 540.446 431.017 541.054 431.708C543.198 434.128 545.845 436.2 548.831 436.991C551.816 437.782 555.147 437.096 556.984 434.751C557.389 434.238 557.714 433.657 557.922 433.015C558.97 429.757 556.534 425.89 553.453 424.152C550.373 422.415 546.856 422.247 543.475 421.97C542.549 421.893 541.543 421.773 540.813 421.117C540.082 420.461 539.891 419.066 540.695 418.644C541.146 418.406 541.71 418.558 542.225 418.7C545.423 419.562 548.721 419.836 551.91 419.516C552.673 419.441 553.45 419.319 554.062 418.892C555.65 417.789 555.418 415.028 554.097 413.36C552.771 411.696 550.75 410.873 548.818 410.213C545.727 409.144 542.477 408.266 539.381 408.753C534.587 409.515 531.097 413.355 527.84 416.926C526.714 418.163 525.544 419.406 524.038 420.104C522.533 420.802 520.593 420.837 519.165 419.745C518.867 419.518 518.599 419.242 518.452 418.895C518.144 418.122 518.589 417.317 519.09 416.743C522.198 413.181 528.031 412.496 529.92 408.035C530.315 407.103 530.493 406.012 530.174 404.993C529.629 403.222 527.69 402.122 525.968 402.188C524.246 402.255 522.737 403.236 521.523 404.429C519.096 406.806 517.546 410.022 515.321 412.604C513.096 415.187 509.736 417.209 506.331 416.18C505.669 415.981 505 415.644 504.587 415.046C503.966 414.129 504.173 412.871 504.786 412.062C505.398 411.253 506.325 410.787 507.22 410.334C509.566 409.151 512 407.804 513.25 405.423C514.5 403.043 513.987 399.325 511.523 397.955C510.108 397.172 508.428 397.344 507.03 397.917C501.743 400.073 499.954 406.656 496.792 411.519C495.837 412.976 494.435 414.434 492.684 414.158C490.846 413.874 489.579 411.704 489.53 409.78C489.476 407.851 490.296 406.11 491.019 404.404C491.83 402.489 492.542 400.455 492.467 398.287C492.396 396.125 491.386 393.787 489.526 392.684C487.541 391.508 485.008 392.03 483.497 393.566C481.981 395.106 481.03 397.459 481.439 399.755C482.936 408.053 472.699 412.891 472.229 418.223Z" fill="#3A5751"/>
<path d="M513.114 264.202C513.793 263.06 514.434 268.716 513.473 270.84C512.395 273.27 509.332 274.164 507.88 276.386C505.101 280.639 508.448 286.249 512.081 289.776C515.427 293.021 519.365 295.955 523.921 296.694C530.641 297.786 537.054 293.936 543.332 291.266C549.873 288.465 556.889 286.852 563.976 286.476C569.241 286.208 574.567 286.602 579.777 285.764C584.987 284.925 590.268 282.567 593.145 278.055C597.306 271.538 594.846 262.132 588.922 257.227C582.999 252.344 574.577 251.491 567.171 253.38C559.765 255.268 553.197 259.563 547.028 264.133C545.372 260.833 548.087 257.043 550.786 254.54C568.019 238.702 591.636 232.633 614.314 227.515C622.579 225.645 632.303 222.47 634.441 214.122C636.649 205.448 628.112 197.093 619.366 196.099C610.621 195.105 602.164 199.122 594.188 202.881C585.927 206.772 577.589 210.507 569.173 214.063C565.34 215.692 559.225 216.102 558.668 211.91C558.467 210.384 559.26 208.867 560.254 207.705C563.718 203.595 569.234 202.187 574.366 200.779C590.521 196.418 606.239 190.337 621.166 182.673C629.496 178.411 637.893 173.341 642.94 165.37C647.988 157.4 648.582 145.768 641.948 139.114C635.409 132.546 624.384 133.111 616.262 137.476C608.141 141.841 602.041 149.162 595.464 155.662C586.689 164.337 576.802 171.747 566.936 179.132C565.789 179.981 564.192 180.857 563.08 179.958C562.417 179.424 562.271 178.445 562.266 177.573C562.208 169.126 569.614 162.921 575.524 156.989C581.433 151.056 586.567 141.451 581.64 134.649C578.525 130.334 572.732 129.278 567.502 128.58C563.34 128.024 558.953 127.482 555.075 129.113C549.261 131.596 546.345 138.176 544.577 144.321C540.251 159.344 539.391 175.377 542.129 190.783C543.064 196.054 544.394 201.509 542.929 206.648C541.465 211.787 535.872 216.162 531.056 214.038C525.476 211.592 525.604 203.617 526.698 197.535C527.792 191.454 528.059 183.538 522.559 180.904C518.66 179.047 514.005 181.276 510.978 184.373C503.331 192.269 502.939 206.23 510.098 214.553C513.821 218.854 518.985 221.532 523.262 225.272C527.54 229.013 531.051 234.728 529.54 240.237C527.807 246.587 518.778 249.306 513.945 244.933C510.208 241.55 509.585 235.824 506.467 231.853C503.18 227.663 497.084 226.052 492.19 228.066C487.296 230.08 484.072 235.622 484.626 240.94C485.293 247.421 490.765 252.308 496.422 255.323C502.08 258.338 508.396 260.258 513.412 264.276" fill="#A9BFDE"/>
<g clip-path="url(#clip4)">
<path d="M196.046 323.449C193.599 314.773 187.815 308.082 185.005 299.516C182.827 292.87 181.475 285.21 175.921 281.083C175.23 280.57 174.37 280.112 173.561 280.383C172.543 280.726 172.203 281.978 171.582 282.866C170.172 284.875 166.698 284.734 165.439 282.614C161.126 282.57 158.604 288.238 159.977 292.409C161.35 296.579 165.102 299.391 168.673 301.874C172.24 304.361 176.04 307.048 177.61 311.148C177.863 311.803 178.048 312.537 177.826 313.203C177.433 314.372 176.013 314.766 174.799 314.829C171.277 315.022 167.701 313.887 164.904 311.689C162.744 309.997 161.089 307.74 159.457 305.515C152.606 296.171 145.759 286.825 138.905 277.477C137.849 276.036 136.692 274.514 135.021 273.926C133.704 273.455 132.254 273.643 130.895 273.957C126.974 274.857 123.052 276.988 121.291 280.671C118.877 285.714 121.376 292.012 125.458 295.791C129.539 299.57 134.891 301.511 139.931 303.796C147.604 307.271 154.847 311.733 161.441 317.041C150.892 316.085 139.896 317.932 129.944 314.239C119.254 310.27 111.714 300.649 104.741 291.478C103.254 289.519 101.12 287.333 98.8031 288.062C97.1123 288.596 96.2087 290.595 96.3199 292.399C96.4312 294.204 97.3002 295.856 98.1627 297.443C95.58 299.445 93.184 301.688 91.009 304.134C89.9342 305.346 88.8437 306.861 89.1829 308.461C89.6466 310.677 92.3559 311.376 94.5637 311.687C108.281 313.634 121.723 317.651 134.313 323.56C120.394 326.39 106.594 329.794 92.9513 333.763C91.7707 334.105 90.4144 334.634 90.1016 335.845C89.7264 337.31 91.1873 338.596 92.5865 339.101C93.9857 339.606 95.6151 339.823 96.5893 340.968C98.1115 342.747 97.1336 345.485 96.1002 347.585C104.37 350.352 112.889 345.13 120.539 340.943C132.354 334.481 145.253 330.061 158.509 327.934C159.775 327.732 161.511 327.861 161.756 329.14C161.942 330.097 161.08 330.89 160.306 331.454C155.056 335.265 149.434 338.555 143.549 341.247C136.013 344.697 127.664 347.465 122.452 353.998C121.383 355.341 120.433 357.137 121.09 358.735C122.079 361.14 125.538 360.869 127.867 359.795C130.195 358.721 132.907 357.255 135.112 358.576C136.416 359.354 137.083 360.915 138.281 361.858C140.502 363.603 143.721 362.733 146.232 361.475C161.371 353.864 169.181 335.849 183.943 327.497C184.097 330.743 181.773 333.487 179.598 335.856C174.858 341.008 170.121 346.152 165.381 351.304C164.399 352.372 163.34 353.721 163.729 355.133C164.621 358.412 170.119 355.788 172.714 357.927C174.757 359.611 173.969 363.488 176.18 364.939C178.057 366.165 180.469 364.633 182.053 363.04C191.422 353.566 199.056 334.118 196.046 323.449Z" fill="#5085A7"/>
</g>
<g clip-path="url(#clip5)">
<path d="M74.8104 294.041C76.7667 292.218 79.5068 290.967 82.0622 291.693C84.6177 292.42 86.3926 295.759 84.9318 298.009C84.3512 298.911 83.3968 299.483 82.4598 299.976C74.9856 303.937 66.1234 305.116 57.8944 303.229C55.6194 302.712 52.995 301.503 52.7232 299.149C52.4511 296.812 54.8369 294.94 57.137 294.679C59.4341 294.412 61.7055 295.204 64.0026 295.452C64.6868 295.524 65.4375 295.541 65.9999 295.133C66.8118 294.55 66.8986 293.275 66.4205 292.386C65.9424 291.497 65.0501 290.923 64.1483 290.478C58.0176 287.442 50.4462 288.763 44.3905 285.574C42.7938 284.735 41.1668 283.097 41.6689 281.343C42.3002 279.121 45.3814 279.159 47.5944 279.674C51.2704 280.522 54.9557 281.374 58.6318 282.222C59.9188 282.522 61.8185 282.39 61.8855 281.038C61.9003 280.688 61.7595 280.349 61.6058 280.031C59.91 276.631 56.1673 274.823 52.5259 273.95C48.8846 273.077 45.0775 272.893 41.5685 271.559C38.7482 270.49 36.1912 268.679 34.2208 266.362C33.7652 265.822 33.3175 265.215 33.251 264.505C33.1632 263.649 33.6517 262.83 34.2834 262.256C36.7781 259.989 40.7461 261.089 43.6373 262.811C46.5223 264.536 49.4116 266.852 52.7518 266.705C51.5105 262.994 48.494 260.168 45.2101 258.125C41.9262 256.083 38.3072 254.676 34.9423 252.774C33.3501 251.877 31.6129 250.433 31.8717 248.6C31.9509 248.023 32.2368 247.496 32.6198 247.064C34.6079 244.828 38.2827 245.856 40.7242 247.566C43.1657 249.276 45.5486 251.607 48.5132 251.592C49.678 247.601 45.5226 242.85 47.9139 239.477C49.7491 236.892 54.0793 237.897 55.9 240.504C57.7177 243.105 57.8241 246.514 58.0944 249.696C58.5896 255.496 59.8655 261.229 61.8869 266.684C62.3267 267.873 63.4591 269.301 64.5151 268.633C64.8935 268.391 65.0844 267.94 65.2037 267.501C65.7623 265.337 64.8579 263.09 64.7322 260.854C64.6003 258.621 65.943 255.864 68.1256 256.097C69.1812 256.211 70.0431 257.018 70.636 257.907C72.4994 260.673 72.4693 264.334 71.8738 267.633C71.2784 270.931 70.1694 274.161 70.1063 277.518C70.0777 278.953 70.7302 280.836 72.1362 280.713C73.4239 280.599 73.8402 278.924 73.987 277.613C74.1427 276.188 74.3863 274.72 75.1876 273.55C75.989 272.379 77.5134 271.598 78.833 272.085C79.4975 272.331 80.0247 272.861 80.4137 273.456C82.2887 276.381 80.8367 280.314 78.886 283.18C76.9354 286.047 74.4221 288.822 74.1481 292.303L74.8104 294.041Z" fill="#EA9188"/>
</g>
<g clip-path="url(#clip6)">
<path d="M502.555 289.205C508.623 295.789 516.77 299.058 523.111 305.375C528.029 310.279 532.667 316.468 539.46 317.561C540.304 317.697 541.275 317.705 541.874 317.089C542.626 316.311 542.366 315.039 542.521 313.96C542.875 311.518 546.03 310.031 548.1 311.333C551.958 309.37 551.66 303.156 548.569 300.082C545.477 297.007 540.878 296.247 536.586 295.695C532.297 295.139 527.711 294.512 524.476 291.592C523.957 291.127 523.463 290.56 523.362 289.864C523.187 288.641 524.274 287.631 525.327 287.012C528.375 285.205 532.065 284.555 535.54 285.212C538.22 285.715 540.705 286.955 543.155 288.178C553.441 293.311 563.725 298.449 574.016 303.586C575.601 304.378 577.313 305.195 579.064 304.943C580.447 304.75 581.652 303.91 582.721 302.999C585.807 300.379 588.341 296.661 588.257 292.567C588.144 286.959 583.096 282.514 577.77 281.046C572.443 279.579 566.81 280.335 561.301 280.642C552.915 281.111 544.469 280.505 536.221 278.842C546.037 274.795 554.994 268.047 565.506 266.713C576.798 265.282 587.822 270.343 598.138 275.266C600.34 276.32 603.219 277.274 604.954 275.549C606.219 274.289 606.127 272.091 605.219 270.537C604.311 268.983 602.796 267.916 601.318 266.905C602.718 263.924 603.844 260.816 604.683 257.63C605.096 256.052 605.387 254.198 604.368 252.931C602.961 251.175 600.237 251.81 598.133 252.558C585.053 257.194 571.291 259.86 557.438 260.447C568.556 251.467 579.309 242.031 589.67 232.166C590.567 231.313 591.536 230.213 591.272 228.99C590.949 227.512 589.072 227.046 587.601 227.246C586.129 227.446 584.582 228.01 583.202 227.444C581.049 226.567 580.692 223.677 580.67 221.328C572.07 222.705 566.831 231.306 561.901 238.584C554.285 249.82 544.789 259.74 533.947 267.787C532.91 268.555 531.308 269.246 530.516 268.221C529.922 267.457 530.333 266.35 530.769 265.49C533.732 259.661 537.259 254.124 541.289 248.996C546.448 242.427 552.637 236.089 554.345 227.855C554.695 226.164 554.735 224.125 553.433 223.007C551.474 221.327 548.518 223.173 546.928 225.21C545.338 227.247 543.581 229.81 541.027 229.659C539.517 229.572 538.224 228.493 536.736 228.21C533.976 227.688 531.502 229.957 529.832 232.242C519.773 246.042 520.9 265.699 511.51 279.984C509.917 277.167 510.755 273.646 511.628 270.529C513.536 263.744 515.445 256.967 517.353 250.182C517.747 248.776 518.085 247.083 517.106 246.007C514.842 243.503 511.125 248.391 507.858 247.693C505.285 247.143 504.247 243.327 501.629 243.062C499.409 242.843 497.949 245.326 497.255 247.479C493.166 260.258 495.093 281.109 502.555 289.205Z" fill="#E5B7A8"/>
</g>
<g clip-path="url(#clip7)">
<path d="M581.204 338.827C588.471 335.556 593.021 327.904 594.978 320.066C596.934 312.229 596.72 304.032 597.1 295.952C597.281 292.135 597.876 287.805 600.966 285.644C604.787 282.971 610.573 285.617 612.405 289.968C614.237 294.32 612.956 299.44 610.567 303.481C616.34 296.711 620.649 288.649 623.095 280.036C623.947 277.041 624.577 273.949 624.549 270.826C624.513 267.019 623.493 263.21 623.976 259.436C624.455 255.659 627.195 251.71 630.945 251.817C633.536 251.891 635.679 253.84 637.41 255.807C639.208 257.843 640.951 260.375 640.528 263.074C640.423 263.757 640.181 264.481 640.454 265.114C640.882 266.102 642.349 266.17 643.198 265.523C644.046 264.876 644.444 263.805 644.848 262.805C646.802 257.97 650.907 253.11 656.026 253.652C660.322 254.11 663.473 258.496 663.814 262.876C664.155 267.256 662.292 271.507 659.966 275.196C654.547 283.783 646.578 290.315 638.993 296.99C636.909 298.824 634.786 300.768 633.687 303.338C633.098 304.717 632.863 306.409 633.665 307.676C634.138 308.426 634.892 309.305 635.764 309.209C637.679 308.985 639.658 306.622 642.16 304.538C644.662 302.454 650.107 300.557 653.053 301.939C657.037 303.806 659.224 306.237 659.052 309.921C658.88 313.606 655.849 316.205 653.82 319.257C652.374 321.433 632.545 340.183 621.483 341.411C609.914 342.694 588.202 346.841 580.951 338.87" fill="#5085A7"/>
</g>
<path d="M372.07 376.575C363.421 389.533 352.528 419.895 363.461 430.12C368.599 434.925 375.151 437.696 380.95 441.611C386.748 445.525 392.114 451.294 392.624 458.594C392.98 463.699 390.894 468.725 388.431 473.223C387.171 475.52 385.735 477.834 383.643 479.311C378.56 482.904 371.479 480.231 367.529 475.526C363.588 470.826 361.756 464.602 359.041 459.002C354.517 449.675 347.324 441.862 338.606 436.822C336.339 435.507 333.053 434.583 331.415 436.788C330.957 437.404 330.728 438.161 330.55 438.915C328.475 447.451 331.208 456.242 334.03 464.383C336.853 472.524 339.852 481.139 338.292 489.775C336.729 498.421 328.619 506.595 320.633 504.388C314.087 502.581 310.72 494.99 309.72 487.93C306.947 468.438 315.747 447.941 311.314 428.84C301.585 444.367 294.632 461.767 290.939 479.803C289.609 486.293 288.646 493.042 285.405 498.802C282.164 504.563 275.896 509.134 269.78 507.823C267.268 507.28 265.043 505.821 262.912 504.355C258.777 501.514 254.431 498.101 253.33 493C251.793 485.895 257.089 479.167 261.856 473.68C271.75 462.277 281.073 450.325 289.76 437.893C292.725 433.641 295.365 426.978 291.385 424.015C275.105 437.263 265.935 457.972 251.242 473.151C244.944 479.656 235.255 485.303 227.962 480.54C220.529 475.691 221.69 463.099 227.566 455.941C233.443 448.783 242.217 445.287 250.102 440.798C258.737 435.881 266.646 429.479 273.396 421.939C274.064 421.19 274.755 420.353 274.865 419.348C275.071 417.428 272.914 416.059 271.097 416.381C269.278 416.711 267.811 418.127 266.447 419.455C254.645 430.909 241.354 440.63 227.224 448.566C221.065 452.025 214.306 455.234 207.474 454.419C200.642 453.603 194.136 447.196 195.417 440.024C196.745 432.56 204.817 428.924 211.718 426.613C227.054 421.478 242.382 416.339 257.718 411.204C255.819 407.829 251.047 408.538 247.348 409.443C232.713 413.03 215.893 412.523 205.1 401.998C202.958 399.908 200.997 396.947 201.776 393.911C202.733 390.174 207.072 388.786 210.704 388.336C227.014 386.362 243.252 390.408 258.854 395.14C274.457 399.873 292.877 407.125 309.192 408.102C329.339 409.314 344.193 401.484 350.8 388.589C353.485 383.354 360.727 373.877 361.956 377.189L372.07 376.575Z" fill="#A9BFDE"/>
<g clip-path="url(#clip8)">
<path d="M471.755 335.086C468.097 338.048 467.454 329.664 467.967 324.946C468.306 321.854 469.762 319.012 470.524 315.997C471.502 312.156 471.317 308.012 469.995 304.285C469.151 301.9 467.302 299.374 464.826 299.608C463.558 299.724 462.486 300.578 461.532 301.44C457.431 305.184 454.281 309.995 452.444 315.28C451.396 318.268 428.612 359.764 430.145 368.05C430.282 368.766 430.722 369.57 431.055 369.995C440.244 381.683 459.844 400.275 478.957 407.803C484.121 409.832 490.379 411.331 494.862 408.005C499.344 404.699 499.863 397.839 497.743 392.639C495.624 387.439 491.499 383.422 487.789 379.257C484.08 375.093 480.537 370.282 480.08 364.667C495.146 373.659 510.201 382.661 525.276 391.663C531.494 395.373 537.887 399.153 544.994 400.38C548.013 400.896 551.361 400.865 553.821 399.023C557.59 396.21 557.693 390.184 555.259 386.107C552.846 382.031 548.636 379.463 544.573 377.106C527.958 367.435 510.936 358.456 493.593 350.206C493.007 348.675 495.19 347.675 496.794 347.58C517.621 346.482 536.804 358.259 557.114 363.141C563.068 364.572 570.476 364.897 574.095 359.872C577.857 354.623 574.683 346.884 569.73 342.776C558.23 333.251 541.11 336.169 527.393 330.441C538.086 324.67 550.471 322.235 562.512 323.507C568.127 324.098 573.796 325.481 579.338 324.441C584.879 323.401 590.383 318.924 590.251 313.187C590.149 308.968 587.005 305.323 583.281 303.461C579.555 301.62 575.32 301.192 571.192 300.802C566.71 300.37 562.207 299.936 557.726 300.323C551.707 300.859 545.929 302.895 540.35 305.246C537.744 306.341 535.154 307.519 532.861 309.209C530.143 311.208 527.963 313.845 525.495 316.151C521.41 319.976 516.523 322.904 511.246 324.678C509.099 325.397 506.765 325.923 504.621 325.228C502.477 324.532 500.707 322.183 501.352 319.978C501.723 318.728 502.739 317.809 503.713 316.948C507.491 313.63 511.278 310.322 515.056 307.004C516.385 305.841 517.746 304.63 518.476 303.017C520.652 298.228 516.121 292.821 511.238 291.072C504.497 288.675 496.511 290.416 491.325 295.407C481.107 305.289 482.771 326.162 471.755 335.086Z" fill="#F6AC81"/>
</g>
<path d="M172.922 438.173C170.348 437.254 167.212 436.994 165.185 438.797C164.123 439.746 163.53 441.122 162.659 442.269C159.641 446.148 152.878 446.083 149.834 442.113C146.791 438.144 148.44 431.541 152.947 429.602C157.362 427.696 163.124 429.866 166.911 426.909C171.879 423.029 169.997 412.898 176.012 411.028C178.119 410.371 180.397 411.168 182.438 412.042C194.961 417.435 205.796 426.874 212.9 438.626C214.966 442.052 216.676 446.679 214.214 449.769C212.372 452.075 208.859 452.36 206.107 451.249C203.356 450.137 201.201 447.927 199.138 445.781C196.955 443.512 194.772 441.242 192.588 438.973C191.055 440.936 192.26 443.812 193.516 446.01C199.09 455.709 205.14 465.141 211.658 474.238C213.851 477.288 216.14 480.437 216.951 484.096C217.763 487.755 216.654 492.137 213.392 493.872C209.543 495.916 204.595 493.389 202.03 489.768C199.465 486.148 198.495 481.671 196.744 477.596C194.993 473.521 191.95 469.455 187.631 468.739C186.723 488.419 207.059 505.185 204.586 524.727C204.06 528.864 201.907 533.376 197.868 534.267C194.4 535.038 190.762 532.686 188.973 529.537C187.183 526.388 186.867 522.647 186.81 519.047C186.688 511.196 187.012 501.836 180.638 497.229C177.071 498.677 174.715 502.647 175.093 506.539C175.481 510.452 178.122 515.039 175.408 517.828C174.688 518.575 173.696 518.982 172.71 519.327C168.253 520.879 162.996 521.221 159.033 518.543C153.347 514.716 152.755 505.872 156.451 500.177C158.868 496.456 162.609 493.872 165.571 490.588C170.181 485.479 172.782 478.876 175.036 472.343C175.548 470.873 176.041 469.316 175.733 467.797C175.007 464.218 170.042 462.932 166.92 464.733C163.788 466.514 162.212 470.131 161.137 473.602C160.135 476.808 159.001 480.549 155.887 481.754C152.618 483.033 148.779 480.513 147.433 477.198C146.086 473.883 146.639 470.144 147.537 466.723C148.39 463.432 149.778 459.942 152.745 458.361C154.576 457.379 156.738 457.276 158.814 457.045C164.87 456.34 170.742 454.224 175.818 450.885C177.515 449.774 179.218 448.406 179.872 446.469C180.526 444.532 179.651 441.919 177.66 441.419C177.733 441.397 175.497 439.092 172.922 438.173Z" fill="#A1A59F"/>
<g clip-path="url(#clip9)">
<path d="M572.328 385.863C571.495 383.3 569.704 380.847 567.125 380.211C564.547 379.576 561.395 381.609 561.59 384.298C561.665 385.374 562.223 386.347 562.804 387.243C567.427 394.413 574.596 399.844 582.683 402.284C584.916 402.964 587.787 403.212 589.153 401.293C590.512 399.388 589.328 396.57 587.446 395.199C585.569 393.825 583.207 393.388 581.083 392.463C580.451 392.186 579.788 391.828 579.493 391.192C579.064 390.281 579.6 389.125 580.444 388.586C581.288 388.048 582.342 387.99 583.342 388.05C590.149 388.446 596.123 393.36 602.938 393.585C604.735 393.645 606.94 393.024 607.344 391.244C607.859 388.991 605.151 387.494 602.973 386.844C599.358 385.758 595.733 384.671 592.118 383.585C590.851 383.208 589.256 382.148 589.846 380.935C590.002 380.622 590.287 380.396 590.573 380.196C593.685 378.07 597.819 378.351 601.416 379.399C605.012 380.446 608.423 382.176 612.126 382.755C615.1 383.223 618.2 382.913 621.032 381.87C621.688 381.624 622.37 381.317 622.769 380.731C623.256 380.027 623.223 379.07 622.947 378.255C621.857 375.037 617.867 374.026 614.517 374.092C611.172 374.165 607.539 374.751 604.694 372.963C607.558 370.341 611.547 369.373 615.393 369.222C619.239 369.071 623.072 369.641 626.921 369.652C628.741 369.661 630.95 369.263 631.604 367.534C631.811 366.992 631.815 366.39 631.688 365.823C631.026 362.883 627.325 361.955 624.374 362.235C621.423 362.514 618.224 363.365 615.644 361.879C616.543 357.818 622.449 355.736 621.98 351.604C621.619 348.436 617.357 347.162 614.518 348.533C611.683 349.9 609.955 352.822 608.192 355.465C604.977 360.281 601.113 364.651 596.732 368.408C595.778 369.226 594.104 369.91 593.503 368.803C593.289 368.403 593.339 367.915 593.445 367.472C593.996 365.307 595.864 363.794 597.046 361.905C598.232 360.022 598.383 356.95 596.367 356.068C595.391 355.643 594.251 355.92 593.307 356.401C590.354 357.89 588.624 361.1 587.561 364.274C586.498 367.448 585.916 370.819 584.361 373.779C583.697 375.046 582.224 376.365 581.056 375.559C579.987 374.82 580.427 373.152 580.928 371.934C581.476 370.613 581.968 369.212 581.83 367.792C581.692 366.372 580.737 364.933 579.351 364.703C578.653 364.587 577.939 364.788 577.314 365.114C574.274 366.735 573.654 370.889 573.982 374.36C574.309 377.83 575.171 381.501 573.74 384.675L572.328 385.863Z" fill="#EA9188"/>
</g>
<path d="M118.574 430.623C117.405 426.908 119.242 420.241 117.73 420.099C116.778 420.009 111.647 422.914 109.31 422.045C102.649 422.718 98.0928 416.073 94.7538 413.908C94.2999 413.883 93.7861 413.931 93.5025 414.29C93.1459 414.743 93.3505 415.401 93.326 415.98C93.2682 417.291 91.6788 418.25 90.5151 417.676C88.5793 418.925 89.0657 422.195 90.8634 423.65C92.661 425.106 95.1331 425.256 97.4317 425.312C99.729 425.371 102.187 425.451 104.053 426.817C104.352 427.035 104.643 427.308 104.733 427.67C104.89 428.307 104.369 428.901 103.845 429.286C102.33 430.409 100.413 430.955 98.5405 430.798C97.0964 430.679 95.7169 430.16 94.3567 429.648C88.6457 427.498 82.9359 425.345 77.2223 423.194C76.3421 422.861 75.3936 422.523 74.4812 422.753C73.7602 422.931 73.1672 423.441 72.6501 423.981C71.1573 425.536 70.0144 427.641 70.276 429.801C70.6329 432.76 73.5372 434.834 76.4315 435.317C79.3258 435.801 82.2642 435.092 85.161 434.628C89.5702 433.92 94.0684 433.777 98.5177 434.204C93.5419 436.882 89.1632 440.942 83.6755 442.224C77.7809 443.6 71.6836 441.529 65.9679 439.491C64.7478 439.055 63.1749 438.708 62.3489 439.716C61.7467 440.451 61.9118 441.608 62.4743 442.38C63.0367 443.152 63.894 443.633 64.7295 444.087C64.1469 445.74 63.7162 447.445 63.4414 449.176C63.3067 450.033 63.251 451.029 63.8571 451.643C64.6938 452.495 66.1007 452.009 67.1736 451.498C73.844 448.329 80.9799 446.165 88.2735 445.094C82.8708 450.453 77.6846 456.032 72.7292 461.817C72.3002 462.317 71.8456 462.952 72.0504 463.584C72.2994 464.348 73.3164 464.491 74.0839 464.305C74.8515 464.118 75.6397 463.735 76.3994 463.959C77.584 464.304 77.9261 465.813 78.0622 467.054C82.5366 465.854 84.8512 461.018 87.072 456.9C90.5037 450.541 94.9997 444.774 100.306 439.924C100.814 439.461 101.624 439.008 102.097 439.507C102.452 439.878 102.293 440.486 102.108 440.965C100.85 444.21 99.2786 447.331 97.4192 450.263C95.0396 454.02 92.1031 457.711 91.6359 462.158C91.5408 463.072 91.6277 464.152 92.3751 464.671C93.5 465.453 94.9654 464.314 95.6983 463.15C96.4311 461.986 97.2239 460.534 98.5828 460.474C99.3855 460.437 100.127 460.937 100.929 461.005C102.415 461.129 103.603 459.794 104.365 458.494C108.953 450.645 107.315 440.313 111.523 432.244C112.515 433.646 112.259 435.554 111.962 437.25C111.313 440.943 110.662 444.631 110.013 448.323C109.879 449.088 109.79 450.002 110.365 450.517C111.695 451.717 113.401 448.928 115.166 449.118C116.555 449.268 117.306 451.229 118.705 451.225C119.89 451.22 120.53 449.827 120.783 448.65C122.269 441.668 120.344 436.241 118.574 430.623Z" fill="#E67D0A"/>
<path d="M274.962 395.034C288.18 379.406 283.102 349.833 272.937 330.322C270.196 325.06 266.135 320.001 260.505 318.481C254.876 316.967 247.805 320.661 247.544 326.609C247.477 328.193 247.871 329.758 248.093 331.325C248.543 334.408 248.35 337.54 248.163 340.646C247.649 349.008 247.139 357.363 246.624 365.725C246.436 368.806 246.011 372.335 243.517 374.065C239.919 376.56 234.805 373.09 233.476 368.832C232.153 364.579 233.172 359.995 233.254 355.535C233.375 348.821 231.338 342.273 229.321 335.871C224.053 319.148 218.784 302.425 213.516 285.702C211.605 279.629 209.431 273.169 204.467 269.312C199.503 265.455 190.873 266.003 188.532 271.897C187.787 273.772 187.781 275.866 187.832 277.902C188.296 296.544 192.53 315.089 200.192 332.033C203.717 339.829 208.015 347.488 209.114 355.995C209.495 358.933 208.845 362.794 206.005 363.373C204.597 363.663 203.185 362.954 201.98 362.151C194.779 357.345 191.021 348.777 187.639 340.686C181.24 325.371 174.845 310.049 168.445 294.734C165.544 287.794 162.572 280.722 157.74 275.012C152.907 269.302 145.826 265.067 138.48 265.624C136.906 265.745 135.252 266.126 134.135 267.261C132.705 268.7 132.488 270.972 132.6 273.028C132.939 279.228 135.478 285.073 138.178 290.648C154.961 325.301 179.723 355.887 209.867 379.204C203.268 378.941 196.654 379.016 190.069 379.435C186.644 379.652 181.971 382.07 183.581 385.183C184.053 386.091 184.979 386.649 185.895 387.078C196.214 391.921 209.018 386.551 219.337 391.393C221.1 392.22 222.975 393.94 222.393 395.827C222.089 396.815 221.187 397.464 220.366 398.071C216.781 400.708 213.645 403.983 211.138 407.709C209.578 410.026 208.31 413.314 210.075 415.478C211.353 417.047 213.606 417.2 215.596 417.21C235.063 417.283 263.016 409.53 275.109 394.918C275.096 394.916 274.928 395.068 274.962 395.034Z" fill="#E5B7A8"/>
<g clip-path="url(#clip10)">
<path d="M461.822 431.95C445.505 432.4 433.093 412.434 416.901 415.246C419.976 422.181 425.041 427.996 431.246 431.705C435.164 434.059 439.575 435.616 442.977 438.783C446.379 441.949 448.539 447.46 446.343 451.893C444.003 456.642 437.838 457.688 433.399 455.701C428.959 453.715 425.738 449.556 422.397 445.852C417.586 440.528 412.184 435.84 406.314 431.934C402.984 429.719 398.566 427.805 395.275 430.344C391.013 433.66 392.829 440.628 394.268 445.964C395.971 452.214 396.424 458.921 395.623 465.486C395.278 468.252 394.652 471.163 392.924 473.285C389.026 478.052 381.341 476.135 378.112 471.087C374.888 466.018 374.93 459.268 375.494 452.993C375.929 448.124 376.547 443.016 374.874 438.57C373.201 434.123 368.211 430.857 364.192 433.175C358.269 436.592 360.647 446.484 357.5 452.92C354.792 458.455 348.184 460.488 342.601 459.631C334.882 458.458 328.113 452.755 324.735 445.206C321.363 437.636 321.309 428.421 324.103 420.338C324.456 419.304 324.89 418.269 325.632 417.518C326.256 416.912 327.037 416.549 327.842 416.325C332.065 415.149 336.251 417.332 340.326 418.709C344.407 420.066 349.715 420.205 352.273 416.314C354.32 413.214 353.55 408.859 351.625 405.829C349.7 402.799 346.833 400.665 344.392 398.137C337.6 391.143 333.941 380.679 334.657 370.3C334.82 367.995 335.388 365.379 337.259 364.248C340.012 362.605 343.049 365.317 344.963 367.856C353.179 378.786 360.127 390.856 365.589 403.739C367.895 409.156 371.378 415.692 376.937 414.88C381.632 414.21 384.428 408.033 383.701 402.98C382.974 397.927 379.874 393.845 376.959 389.903C373.304 384.938 369.733 379.73 367.753 373.693C365.772 367.655 365.531 360.606 368.353 354.792C371.18 348.957 377.519 344.877 383.287 346.338C391.267 348.359 394.251 358.86 394.389 367.832C394.528 376.803 393.3 386.599 397.757 393.955C398.882 395.813 400.754 397.588 402.801 397.015C403.496 396.828 404.119 396.377 404.71 395.895C411.142 390.466 412.424 380.618 412.432 371.931C412.441 363.243 411.891 353.916 416.185 346.419C421.564 337.023 434.504 333.923 442.514 340.119C450.524 346.315 451.879 360.473 445.273 368.936C441.993 373.118 437.365 375.758 433.809 379.688C430.509 383.333 428.25 388.081 427.459 393.075C427.303 394.052 427.211 395.091 427.609 395.954C427.933 396.64 428.515 397.109 429.108 397.537C434.47 401.46 441.01 403.509 447.582 403.372C450.685 403.309 453.838 402.75 456.907 403.121C463.443 403.884 469.183 409.128 470.999 415.942C472.1 420.033 471.719 424.85 469.238 428.297C466.757 431.744 461.822 431.95 461.822 431.95Z" fill="#3A5751"/>
</g>
<path d="M546.088 469.935C549.731 469.434 553.379 470.389 556.912 471.344C559.885 472.142 562.881 472.954 565.645 474.319C569.037 475.993 571.984 478.455 574.727 481.073C575.85 482.147 577.036 483.528 576.737 485.08C576.52 486.173 575.578 487.001 574.545 487.381C573.512 487.76 572.395 487.765 571.304 487.76C568.409 487.766 565.514 487.762 562.619 487.767C564.173 490.997 565.931 494.212 568.51 496.665C573.569 501.485 581.17 502.85 586.087 507.826C586.537 508.283 586.965 508.771 587.23 509.356C588.085 511.238 586.91 513.632 585.074 514.579C583.238 515.517 581.01 515.256 579.132 514.439C572.77 511.664 569.561 503.34 562.758 501.949C566.045 511.853 575.072 518.309 582.058 525.939C583.661 527.686 585.215 529.613 585.784 531.943C586.191 533.63 585.834 535.786 584.269 536.52C583.233 537.008 582.021 536.7 580.944 536.34C578.292 535.455 575.7 534.255 573.581 532.425C571.309 530.463 569.682 527.858 567.955 525.388C564.838 520.935 561.298 516.783 557.407 513.019C557.987 519.53 560.1 525.874 563.52 531.378C564.356 532.723 565.299 534.106 565.402 535.703C565.515 537.459 564.466 539.246 562.888 539.993C561.309 540.741 559.305 540.392 558.079 539.163C556.153 537.232 556.446 534.065 556.348 531.299C556.252 528.655 555.671 526.064 555.09 523.49C554.08 519.004 553.075 514.522 552.065 510.036C551.929 509.43 551.78 508.792 551.37 508.331C550.965 507.866 550.216 507.65 549.724 508.036C549.462 508.24 549.325 508.568 549.203 508.882C548.338 511.095 547.594 513.639 548.603 515.766C549 516.61 549.668 517.407 549.592 518.345C549.5 519.421 548.377 520.188 547.308 520.207C546.244 520.23 545.259 519.69 544.373 519.106C542.593 517.921 540.953 516.413 540.038 514.457C539.123 512.502 539.026 510.052 540.179 508.208C540.972 506.937 542.243 506.078 543.323 505.044C544.403 504.011 545.345 502.602 545.137 501.125C545.038 500.438 544.724 499.645 545.176 499.114C545.619 498.591 546.43 498.773 547.063 498.997C548.637 499.557 550.211 500.109 551.785 500.669C552.291 497.672 549.847 495.111 547.612 493.122C547.156 492.715 546.652 492.285 546.046 492.219C545.343 492.143 544.686 492.577 544.104 492.989C542.787 493.92 541.384 494.909 539.791 495.002C538.192 495.091 536.436 493.829 536.625 492.217C536.747 491.19 537.573 490.406 538.3 489.676C543.242 484.73 546.037 477.638 545.801 470.631L546.088 469.935Z" fill="#FAD2C9"/>
<path d="M170.915 398.998C166.274 407.686 160.552 415.649 153.889 422.663C150.707 426.02 147.059 429.286 142.343 429.926C137.626 430.59 131.659 427.612 130.314 422.586C129.094 418.099 131.899 414.059 135.113 411.475C138.327 408.89 142.228 406.907 144.284 403.248C145.112 401.78 145.438 399.521 143.993 398.307C142.447 397.013 140.439 398.084 139.054 399.191C130.135 406.378 121.603 414.059 113.485 422.167C110.894 424.764 107.096 427.51 103.623 425.22C101.175 423.607 100.424 420.097 101.236 417.525C102.049 414.954 104.002 413.106 105.903 411.345C111.224 406.428 116.532 401.521 121.853 396.605C111.996 396.534 102.281 399.244 95.3247 405.555C90.107 410.3 85.3542 421.189 77.8863 419.954C74.4497 420.536 70.597 417.185 68.7747 414.705C66.6614 411.828 66.5631 407.966 67.8059 405.035C69.0488 402.104 71.4292 399.945 73.9326 398.144C79.8572 393.848 86.8389 390.978 94.2896 389.767C87.5947 386.516 80.2139 387.74 73.9269 390.134C67.6399 392.529 61.7807 396 55.0486 397.194C46.6161 398.741 37.1225 396.383 29.4123 390.875C28.0956 389.925 26.7849 388.856 25.9974 387.446C24.3598 384.471 25.5542 380.872 27.9031 379.101C30.252 377.331 33.4681 377.021 36.5632 377.012C43.012 376.995 49.6153 378.11 55.9989 380.308C60.7634 381.951 66.5301 384.017 69.7886 380.783C66.5658 378.206 62.8546 376.444 59.4531 374.143C56.0504 371.866 52.783 368.777 51.5209 364.893C50.2588 361.008 51.8249 356.344 55.4932 355.704C59.6482 354.979 63.5397 359.218 66.6543 362.768C76.3873 373.864 90.7869 383.197 103.397 379.792C102.849 372.251 89.8716 370.617 87.8982 363.123C86.5072 357.836 92.4874 354.066 97.5743 355.616C102.661 357.167 106.502 361.947 109.644 366.568C113.455 372.168 117.09 378.225 122.566 382.066C124.896 383.704 127.635 384.906 130.226 384.631C132.806 384.342 135.066 382.231 134.899 379.493C134.744 376.973 132.772 374.783 131.321 372.549C129.531 369.784 128.405 366.476 128.898 363.471C129.392 360.467 131.731 357.952 134.731 357.972C139.201 358.002 142.648 362.885 145.081 367.105C148.801 373.574 152.522 380.019 156.241 386.487C156.252 386.502 164.624 395.203 170.915 398.998Z" fill="#BF9585"/>
<g clip-path="url(#clip11)">
<path d="M586.965 438.952C584.975 439.883 583.437 441.746 582.908 443.896C582.342 446.172 582.847 448.634 582.382 450.925C581.528 455.163 577.006 458.214 572.744 457.378C568.482 456.541 565.241 451.933 565.927 447.663C566.348 445.088 567.939 442.907 568.814 440.459C569.965 437.246 569.824 433.699 569.679 430.261C569.51 426.205 568.964 421.467 565.503 419.272C569.525 416.772 573.554 414.264 577.567 411.756C579.334 410.66 581.11 409.556 583.058 408.826C584.818 408.174 586.691 407.838 588.549 407.57C591.498 407.152 594.529 406.91 597.464 407.589C600.399 408.268 603.226 410.003 604.646 412.695C606.866 416.924 604.374 422.784 599.861 423.976C598.134 424.435 596.243 424.286 594.582 424.936C592.921 425.587 591.538 427.565 592.432 429.159C593.228 430.579 595.177 430.703 596.77 430.647C600.586 430.511 604.583 430.322 607.838 428.393C609.38 427.485 610.684 426.22 612.033 425.046C616.073 421.567 620.684 418.842 625.278 416.133C626.374 415.49 627.478 414.839 628.731 414.587C630.313 414.264 631.989 414.626 633.463 415.325C636.486 416.781 638.758 419.788 639.338 423.094C639.918 426.4 638.771 429.923 636.393 432.191C633.664 434.798 629.742 435.605 626.076 436.594C622.418 437.573 618.539 439.067 616.685 442.365C622.58 445.196 629.564 445.542 635.572 443.3C643.751 440.249 649.704 432.868 657.901 429.85C659.833 429.137 662.101 428.712 663.927 429.733C665.533 430.623 666.436 432.435 666.905 434.203C668.601 440.507 665.704 447.653 660.156 450.835C653.944 454.427 645.984 452.939 638.995 454.777C638.687 458.104 641.744 461.007 641.852 464.362C641.989 468.419 637.974 471.086 634.451 472.951C633.905 473.235 633.328 473.536 632.703 473.503C631.904 473.464 631.234 472.904 630.631 472.376C628.927 470.894 627.18 469.369 626.104 467.376C625.342 465.972 624.947 464.404 624.422 462.888C622.013 456.017 616.533 450.234 609.827 447.481C607.766 446.64 604.944 446.294 603.806 448.167C602.706 449.965 604.122 452.365 605.813 453.722C607.495 455.071 609.59 456.155 610.466 458.135C611.699 460.922 609.87 464.035 607.734 466.082C605.388 468.316 602.294 470.091 599.031 469.726C596.16 469.398 593.675 467.491 591.646 465.376C590.026 463.683 588.508 461.653 588.374 459.337C588.289 457.823 588.795 456.36 589.195 454.906C590.225 451.159 590.532 447.188 590.094 443.277C589.914 441.882 586.965 438.952 586.965 438.952Z" fill="#E67D0A"/>
</g>
<g clip-path="url(#clip12)">
<path d="M607.231 95.503C605.053 95.7943 602.753 95.0577 601.146 93.5345C599.44 91.9249 598.535 89.5804 596.906 87.9037C593.898 84.7981 588.444 84.6745 585.309 87.681C582.175 90.6874 581.937 96.3162 584.821 99.5385C586.567 101.478 589.084 102.454 591.143 104.041C593.848 106.123 595.645 109.183 597.38 112.155C599.429 115.66 601.53 119.942 599.804 123.658C604.538 123.589 609.284 123.523 614.015 123.466C616.095 123.433 618.185 123.403 620.219 122.965C622.053 122.562 623.81 121.833 625.519 121.055C628.226 119.813 630.908 118.38 633.011 116.223C635.113 114.066 636.555 111.078 636.295 108.046C635.879 103.287 630.616 99.7027 626.174 101.138C624.473 101.684 622.962 102.832 621.213 103.182C619.464 103.531 617.231 102.615 617.122 100.79C617.025 99.1646 618.598 98.0076 619.968 97.1938C623.254 95.247 626.719 93.247 630.5 93.1112C632.289 93.0424 634.069 93.4026 635.838 93.6614C641.118 94.4061 646.47 94.2087 651.8 94.0056C653.069 93.9545 654.35 93.9062 655.54 93.4412C657.046 92.8583 658.261 91.6485 659.123 90.2639C660.881 87.4049 661.168 83.6477 659.87 80.5521C658.572 77.4565 655.703 75.1121 652.478 74.4883C648.773 73.7688 645.036 75.2084 641.417 76.3574C637.809 77.5093 633.739 78.3481 630.396 76.5745C633.828 71.0076 639.517 66.9426 645.785 65.5834C654.315 63.7325 663.313 66.7266 671.84 64.8381C673.852 64.3942 675.99 63.5265 676.975 61.6805C677.846 60.0641 677.626 58.0515 677.066 56.3105C675.088 50.0894 668.789 45.6417 662.402 45.9613C655.233 46.2943 649.338 51.8471 642.465 54.0764C640.408 51.4432 641.411 47.3484 639.69 44.4669C637.613 40.979 632.794 40.9037 628.822 41.2377C628.21 41.2936 627.561 41.3526 627.053 41.7178C626.402 42.1825 626.14 43.0157 625.918 43.7849C625.285 45.9534 624.639 48.1798 624.81 50.439C624.927 52.032 625.442 53.5647 625.819 55.1243C627.505 62.2077 626.017 70.0347 621.861 75.974C620.582 77.7957 618.394 79.6113 616.424 78.6495C614.527 77.7308 614.423 74.9467 615.112 72.891C615.798 70.8469 616.976 68.8027 616.644 66.6633C616.175 63.6525 612.954 62.0202 610.051 61.4524C606.87 60.8398 603.307 61.0178 600.758 63.0877C598.52 64.9151 597.459 67.8627 596.895 70.7377C596.445 73.0383 596.264 75.5662 597.403 77.5878C598.15 78.9075 599.367 79.8651 600.488 80.8726C603.379 83.4689 605.783 86.6447 607.528 90.1723C608.13 91.4437 607.231 95.503 607.231 95.503Z" fill="#E67D0A"/>
</g>
<g clip-path="url(#clip13)">
<path d="M71.4973 344.238C70.9321 345.011 70.1142 345.562 69.4763 346.279C67.8245 348.141 67.6129 350.84 67.4796 353.329C67.461 353.639 67.46 353.991 67.6716 354.218C67.8499 354.409 68.1266 354.466 68.387 354.5C70.289 354.775 72.4269 354.729 73.87 353.46C74.917 352.542 75.4011 351.161 76.0065 349.909C77.1938 347.45 78.9911 345.287 81.1994 343.681C81.8034 343.237 82.4625 342.808 82.7937 342.139C83.0274 341.665 83.0667 341.124 83.0693 340.598C83.072 338.343 82.3938 336.126 82.4197 333.868C82.4436 331.339 83.3552 328.884 83.3538 326.354C83.3523 323.823 81.9741 320.946 79.4729 320.594C78.4701 320.45 77.4602 320.748 76.4915 321.041C74.1038 321.759 71.4323 322.712 70.4252 324.997C69.5661 326.942 70.2405 329.253 71.3648 331.063C71.889 331.906 72.5204 332.711 72.7791 333.671C73.0377 334.631 72.7832 335.824 71.9027 336.284C70.9214 336.798 69.7243 336.174 68.8859 335.449C66.6889 333.55 65.2678 330.778 65.003 327.881C64.8367 326.049 65.113 324.199 65.0723 322.358C65.003 319.324 64.0338 316.32 62.3242 313.817C62.1783 313.6 62.0122 313.379 61.7923 313.236C61.3571 312.961 60.8035 313.037 60.2976 313.125C59.3143 313.294 58.2869 313.475 57.4769 314.06C55.6403 315.375 55.6272 318.196 56.5976 320.243C57.568 322.289 59.265 323.89 60.4419 325.826C61.6189 327.761 62.1977 330.391 60.8452 332.202C57.9519 332.254 55.981 329.316 54.8646 326.639C53.9106 324.351 53.1434 321.979 52.591 319.561C52.29 318.248 52.0174 316.855 51.149 315.822C50.2525 314.751 48.8563 314.241 47.4958 313.919C46.8129 313.759 46.0945 313.633 45.4036 313.779C43.5194 314.182 42.591 316.508 43.0064 318.39C43.4217 320.273 44.7803 321.787 46.0867 323.206C47.6661 324.924 49.2455 326.642 50.8301 328.359C51.1814 328.743 51.549 329.152 51.6803 329.659C51.9918 330.893 50.6925 332.034 49.4269 332.117C48.1612 332.2 46.9624 331.601 45.7824 331.136C43.6161 330.286 41.2851 329.869 38.959 329.907C37.6079 329.933 36.0895 330.208 35.3447 331.334C34.2613 332.977 35.6819 335.305 37.5369 335.97C39.3919 336.635 41.4266 336.194 43.381 335.959C44.749 335.796 46.128 335.734 47.5023 335.778C49.1134 335.829 51.2114 336.559 51.089 338.172C50.9952 339.44 49.5541 340.078 48.3457 340.446C47.0173 340.852 45.6836 341.26 44.3553 341.665C43.3655 341.967 42.3518 342.285 41.5287 342.912C40.7056 343.539 40.1008 344.557 40.2527 345.586C40.387 346.5 41.0862 347.245 41.8775 347.724C44.047 349.054 46.9375 348.744 49.1426 347.485C51.3455 346.221 52.9686 344.142 54.2849 341.964C54.9775 340.817 55.6372 339.591 56.7005 338.771C57.7637 337.951 59.3867 337.675 60.4173 338.536C61.4116 339.368 61.4682 340.938 60.9366 342.116C60.4051 343.295 59.4277 344.203 58.5301 345.139C57.5471 346.166 56.6238 347.292 56.1327 348.627C55.6415 349.961 55.6413 351.542 56.4201 352.73C57.2195 353.952 58.8215 354.587 60.2397 354.248C61.8526 353.86 63.0031 352.392 63.5956 350.843C64.1881 349.293 64.3581 347.617 64.7785 346.009C65.199 344.401 65.9446 342.775 67.3395 341.879C68.7343 340.982 70.8891 341.139 71.7518 342.558C71.7434 342.567 72.0625 343.465 71.4973 344.238Z" fill="#F6AC81"/>
</g>
<path d="M48.8098 223.738C46.9863 225.28 44.6532 226.026 42.3838 226.731C40.4754 227.328 38.5501 227.925 36.5591 228.139C34.1168 228.4 31.6439 228.075 29.2285 227.594C28.2393 227.396 27.1083 227.051 26.7321 226.096C26.4706 225.421 26.6993 224.64 27.1338 224.072C27.5683 223.504 28.1795 223.113 28.779 222.736C30.365 221.726 31.9539 220.72 33.5398 219.71C31.5636 218.479 29.4808 217.328 27.2127 216.88C22.7617 215.997 18.118 217.893 13.69 216.875C13.2843 216.781 12.8803 216.663 12.5312 216.434C11.4075 215.699 11.2187 213.978 11.896 212.819C12.5763 211.666 13.8893 211.034 15.2034 210.829C19.6578 210.137 24.3145 213.585 28.5293 211.981C23.2806 207.694 16.0839 207.294 9.59762 205.54C8.11072 205.139 6.58793 204.623 5.46514 203.544C4.65469 202.76 4.10064 201.454 4.70341 200.506C5.10168 199.878 5.8734 199.626 6.58975 199.448C8.35208 199.011 10.1907 198.767 11.9898 199.033C13.9185 199.319 15.7167 200.181 17.5235 200.935C20.7821 202.293 24.1683 203.338 27.6118 204.048C25.0284 200.68 21.6619 197.936 17.8718 196.107C16.9449 195.661 15.9471 195.23 15.3344 194.39C14.6614 193.466 14.6152 192.121 15.2207 191.162C15.8263 190.203 17.0471 189.697 18.1463 189.944C19.8749 190.333 20.8161 192.172 21.832 193.655C22.8048 195.072 24.0249 196.291 25.239 197.5C27.3538 199.609 29.4645 201.717 31.5792 203.826C31.8648 204.111 32.1683 204.409 32.5534 204.519C32.9377 204.633 33.4235 204.491 33.5592 204.108C33.6318 203.905 33.5926 203.677 33.5507 203.462C33.2547 201.948 32.7775 200.294 31.4841 199.478C30.9731 199.154 30.3293 198.949 30.0447 198.409C29.7207 197.786 30.0694 196.975 30.6492 196.593C31.225 196.21 31.9527 196.163 32.6417 196.175C34.0305 196.206 35.4546 196.462 36.6367 197.216C37.8188 197.97 38.7243 199.28 38.7338 200.692C38.7412 201.665 38.3433 202.579 38.1106 203.521C37.8778 204.464 37.8512 205.564 38.4795 206.302C38.7726 206.644 39.2205 206.97 39.1576 207.419C39.0967 207.859 38.5886 208.042 38.1634 208.139C37.1054 208.379 36.0503 208.625 34.9923 208.865C35.7576 210.685 37.9884 211.239 39.9065 211.552C40.2981 211.616 40.7241 211.677 41.0793 211.502C41.4914 211.3 41.7011 210.833 41.8767 210.404C42.2749 209.435 42.7001 208.405 43.5417 207.8C44.3873 207.195 45.7895 207.276 46.2467 208.226C46.5369 208.831 46.3568 209.548 46.2125 210.202C45.223 214.634 46.158 219.496 48.7252 223.257L48.8098 223.738Z" fill="#FAD2C9"/>
<path d="M260.196 375.54C272.316 380.55 277.522 397.082 290.018 400.573C289.121 395.232 286.536 389.947 282.694 385.611C280.269 382.866 277.325 380.46 275.442 377.373C273.559 374.286 273.056 370.134 275.552 368.07C278.216 365.854 282.969 367.199 285.849 369.883C288.73 372.567 290.284 376.217 292.015 379.621C294.51 384.516 297.567 389.204 301.124 393.555C303.141 396.023 306.02 398.654 308.949 398.132C312.747 397.437 312.785 392.484 312.779 388.675C312.759 384.208 313.751 379.86 315.639 376.008C316.44 374.388 317.477 372.768 319.171 371.999C322.988 370.278 328.275 373.971 329.659 378.181C331.034 382.401 329.668 386.615 328.013 390.363C326.729 393.271 325.264 396.269 325.619 399.597C325.973 402.925 329.007 406.589 332.429 406.441C337.472 406.222 337.674 399.255 341.267 396.245C344.358 393.657 349.632 394.526 353.58 396.874C359.04 400.113 362.904 405.881 363.902 411.705C364.892 417.54 363.111 423.329 359.453 427.485C358.988 428.018 358.464 428.526 357.768 428.755C357.188 428.932 356.54 428.906 355.902 428.785C352.556 428.152 349.901 425.427 347.168 423.243C344.427 421.07 340.54 419.26 337.885 420.868C335.763 422.146 335.47 425.123 336.29 427.645C337.111 430.167 338.803 432.434 340.104 434.809C343.729 441.393 344.359 449.133 341.779 455.402C341.203 456.793 340.267 458.247 338.664 458.348C336.31 458.485 334.606 455.801 333.697 453.59C329.799 444.079 327.061 434.266 325.58 424.424C324.951 420.284 323.675 415.06 319.415 413.765C315.82 412.663 312.537 415.624 312.074 419.025C311.612 422.425 313.091 425.988 314.461 429.403C316.175 433.698 317.779 438.118 318.046 442.542C318.312 446.966 317.097 451.459 313.867 454.185C310.628 456.923 305.148 457.422 301.184 454.636C295.699 450.781 295.574 443.237 297.245 437.572C298.916 431.908 301.758 426.171 299.926 420.118C299.464 418.589 298.434 416.871 296.811 416.565C296.262 416.457 295.713 416.538 295.182 416.648C289.366 417.961 286.474 423.714 284.751 429.152C283.027 434.591 281.589 440.611 276.94 443.914C271.117 448.054 260.963 445.799 256.281 439.319C251.599 432.84 253.398 423.533 259.942 420.375C263.187 418.819 267.122 418.668 270.521 417.36C273.675 416.147 276.28 413.906 277.85 411.034C278.158 410.473 278.431 409.852 278.308 409.183C278.205 408.648 277.869 408.165 277.516 407.705C274.338 403.509 269.92 400.104 265.047 398.058C262.746 397.091 260.311 396.418 258.121 395.19C253.452 392.593 250.257 387.446 250.264 382.589C250.26 379.67 251.494 376.776 254.005 375.422C256.515 374.068 260.196 375.54 260.196 375.54Z" fill="#F7D29A"/>
</g>
<defs>
<filter id="filter0_d" x="132" y="0" width="420" height="428" filterUnits="userSpaceOnUse" color-interpolation-filters="sRGB">
<feFlood flood-opacity="0" result="BackgroundImageFix"/>
<feColorMatrix in="SourceAlpha" type="matrix" values="0 0 0 0 0 0 0 0 0 0 0 0 0 0 0 0 0 0 127 0"/>
<feMorphology radius="2" operator="dilate" in="SourceAlpha" result="effect1_dropShadow"/>
<feOffset dy="1"/>
<feGaussianBlur stdDeviation="1"/>
<feColorMatrix type="matrix" values="0 0 0 0 0.203837 0 0 0 0 0.225675 0 0 0 0 0.245833 0 0 0 0.18 0"/>
<feBlend mode="normal" in2="BackgroundImageFix" result="effect1_dropShadow"/>
<feBlend mode="normal" in="SourceGraphic" in2="effect1_dropShadow" result="shape"/>
</filter>
<filter id="filter1_d" x="0.448853" y="26.2349" width="689.798" height="595.295" filterUnits="userSpaceOnUse" color-interpolation-filters="sRGB">
<feFlood flood-opacity="0" result="BackgroundImageFix"/>
<feColorMatrix in="SourceAlpha" type="matrix" values="0 0 0 0 0 0 0 0 0 0 0 0 0 0 0 0 0 0 127 0"/>
<feMorphology radius="2" operator="dilate" in="SourceAlpha" result="effect1_dropShadow"/>
<feOffset dy="1"/>
<feGaussianBlur stdDeviation="1"/>
<feColorMatrix type="matrix" values="0 0 0 0 0.203837 0 0 0 0 0.225675 0 0 0 0 0.245833 0 0 0 0.18 0"/>
<feBlend mode="normal" in2="BackgroundImageFix" result="effect1_dropShadow"/>
<feBlend mode="normal" in="SourceGraphic" in2="effect1_dropShadow" result="shape"/>
</filter>
<clipPath id="clip0">
<rect width="90.0219" height="121.965" fill="white" transform="translate(540.711 449.76) rotate(102.825)"/>
</clipPath>
<clipPath id="clip1">
<rect width="54.6836" height="59.4387" fill="white" transform="translate(97.4796 451.217)"/>
</clipPath>
<clipPath id="clip2">
<rect width="90.3469" height="90.3469" fill="white" transform="translate(365.028 547.266) rotate(129.946)"/>
</clipPath>
<clipPath id="clip3">
<rect width="34.2614" height="46.4187" fill="white" transform="translate(243.276 550.866) rotate(-157.262)"/>
</clipPath>
<clipPath id="clip4">
<rect width="103.493" height="107.257" fill="white" transform="matrix(0.862221 -0.506533 0.493496 0.869748 71.4114 304.073)"/>
</clipPath>
<clipPath id="clip5">
<rect width="39.2612" height="69.9485" fill="white" transform="matrix(-0.902697 0.430278 0.418184 0.908363 61.594 232.483)"/>
</clipPath>
<clipPath id="clip6">
<rect width="104.317" height="106.411" fill="white" transform="matrix(-0.535866 0.844303 -0.835707 -0.549175 618.856 259.6)"/>
</clipPath>
<clipPath id="clip7">
<rect width="62.8865" height="114.533" fill="white" transform="matrix(0.794204 0.607651 0.594304 -0.80424 568.234 329.35)"/>
</clipPath>
<clipPath id="clip8">
<rect width="134.34" height="159.62" fill="white" transform="matrix(0.657543 0.753417 -0.741956 0.670449 529.379 240.132)"/>
</clipPath>
<clipPath id="clip9">
<rect width="39.591" height="69.3691" fill="white" transform="matrix(0.576533 0.817074 -0.807468 0.589912 613.397 338.703)"/>
</clipPath>
<clipPath id="clip10">
<rect width="147.237" height="145.992" fill="white" transform="matrix(-0.25465 0.967033 -0.964783 -0.263046 490.166 351.89)"/>
</clipPath>
<clipPath id="clip11">
<rect width="84.3619" height="91.1978" fill="white" transform="matrix(0.684884 -0.728652 -0.723098 -0.690745 615.159 499.601)"/>
</clipPath>
<clipPath id="clip12">
<rect width="84.3619" height="91.1978" fill="white" transform="matrix(0.96999 0.243143 -0.235303 0.971922 598.19 29.2349)"/>
</clipPath>
<clipPath id="clip13">
<rect width="47.843" height="47.843" fill="white" transform="translate(48.0267 364.481) rotate(-112.636)"/>
</clipPath>
</defs>
</svg>
