<?xml version="1.0" encoding="utf-8"?>
<!-- Generator: Adobe Illustrator 25.0.1, SVG Export Plug-In . SVG Version: 6.00 Build 0)  -->
<svg version="1.1" id="Layer_1" xmlns="http://www.w3.org/2000/svg" xmlns:xlink="http://www.w3.org/1999/xlink" x="0px" y="0px"
	 viewBox="0 0 687 617" style="enable-background:new 0 0 687 617;" xml:space="preserve">
<style type="text/css">
	.st0{fill:url(#SVGID_3_);}
	.st1{fill:#ED6340;}
	.st2{clip-path:url(#SVGID_5_);}
	.st3{fill:#A1A59F;}
	.st4{clip-path:url(#SVGID_7_);}
	.st5{fill:#E98F87;}
	.st6{clip-path:url(#SVGID_9_);}
	.st7{fill:#F7D29A;}
	.st8{fill:#E67D0A;}
	.st9{clip-path:url(#SVGID_11_);}
	.st10{fill:#A0AFCC;}
	.st11{fill:#A9BFDE;}
	.st12{fill:#3A5751;}
	.st13{clip-path:url(#SVGID_13_);}
	.st14{fill:#5085A7;}
	.st15{clip-path:url(#SVGID_15_);}
	.st16{fill:#EA9188;}
	.st17{clip-path:url(#SVGID_17_);}
	.st18{fill:#E5B7A8;}
	.st19{clip-path:url(#SVGID_19_);}
	.st20{clip-path:url(#SVGID_21_);}
	.st21{fill:#F6AC81;}
	.st22{clip-path:url(#SVGID_23_);}
	.st23{clip-path:url(#SVGID_25_);}
	.st24{fill:#FAD2C9;}
	.st25{fill:#BF9585;}
	.st26{clip-path:url(#SVGID_27_);}
	.st27{clip-path:url(#SVGID_29_);}
	.st28{clip-path:url(#SVGID_31_);}
</style>
<g>
	<defs>
		<path id="SVGID_1_" d="M344.8,423c113.8,0,206-94,206-210S458.6,3,344.8,3s-206,94-206,210S231,423,344.8,423z"/>
	</defs>
	<clipPath id="SVGID_2_">
		<use xlink:href="#SVGID_1_"  style="overflow:visible;"/>
	</clipPath>
	<g transform="matrix(1 0 0 1 0 -9.536743e-07)" style="clip-path:url(#SVGID_2_);">
		
			<image style="overflow:visible;" width="2400" height="1602" xlink:href="../../Creative Cloud Files/JN/2538 3312.jpg"  transform="matrix(0.2846 0 0 0.2846 3.2641 -14.9513)">
		</image>
	</g>
</g>
<g>
	<linearGradient id="SVGID_3_" gradientUnits="userSpaceOnUse" x1="345" y1="2" x2="345" y2="422">
		<stop  offset="0" style="stop-color:#FFFFFF;stop-opacity:0"/>
		<stop  offset="9.864965e-02" style="stop-color:#FEF9F8;stop-opacity:0.1061"/>
		<stop  offset="0.2458" style="stop-color:#FCE8E3;stop-opacity:0.2644"/>
		<stop  offset="0.4234" style="stop-color:#F9CDC2;stop-opacity:0.4554"/>
		<stop  offset="0.6246" style="stop-color:#F5A794;stop-opacity:0.6719"/>
		<stop  offset="0.8429" style="stop-color:#EF7859;stop-opacity:0.9068"/>
		<stop  offset="0.9296" style="stop-color:#ED6340"/>
	</linearGradient>
	<path class="st0" d="M345,422c113.8,0,206-94,206-210S458.8,2,345,2S139,96,139,212S231.2,422,345,422z"/>
</g>
<g>
	<path class="st1" d="M929.8,201.2c113.8,0,206-94,206-210s-92.2-210-206-210s-206,94-206,210S816,201.2,929.8,201.2z"/>
</g>
<g>
	<g>
		<defs>
			
				<rect id="SVGID_4_" x="426.3" y="419.2" transform="matrix(0.222 -0.975 0.975 0.222 -101.523 833.078)" width="90" height="122"/>
		</defs>
		<clipPath id="SVGID_5_">
			<use xlink:href="#SVGID_4_"  style="overflow:visible;"/>
		</clipPath>
		<g class="st2">
			<path class="st3" d="M445.8,455.2c0.7-2.9,2.3-6,5.2-6.8c1.5-0.4,3.1-0.2,4.7-0.4c5.4-0.6,9.3-6.9,7.4-12s-9-7.3-13.5-4.3
				c-4.4,3-5.8,9.6-10.8,11.5c-6.5,2.4-14.9-5.1-20.2-0.6c-1.9,1.6-2.5,4.2-2.9,6.6c-2.4,14.7,0,30.2,6.8,43.5
				c2,3.9,5.3,8.1,9.6,7.6c3.2-0.4,5.6-3.5,6.2-6.7s-0.2-6.5-1-9.6c-0.8-3.3-1.6-6.7-2.5-10c2.7-0.3,4.7,2.5,6,4.9
				c5.7,10.7,11,21.8,15.6,33c1.5,3.8,3.1,7.7,6.1,10.6s7.7,4.3,11.2,2.3c4.2-2.4,4.7-8.5,2.9-12.9c-1.9-4.5-5.5-7.9-8.2-11.9
				c-2.8-4-4.8-9.1-2.9-13.5c18.9,10.4,22.5,38.9,42.1,47.8c4.2,1.9,9.6,2.5,12.9-0.8c2.8-2.8,2.7-7.5,0.8-11s-5.2-5.9-8.5-8
				c-7.2-4.6-16.1-9.7-16.7-18.2c3.5-2.5,8.5-2.4,11.9,0.2s6.1,7.7,10.3,6.7c1.1-0.2,2.1-0.9,3-1.7c4.1-3.3,7.5-8,7.3-13.2
				c-0.2-7.5-8.1-13.1-15.6-12.9c-4.9,0.1-9.5,2.1-14.3,3c-7.5,1.4-15.2,0-22.6-1.6c-1.7-0.4-3.4-0.8-4.6-2c-2.9-2.7-1.2-8.1,2.4-10
				c3.5-1.9,7.8-1.3,11.7-0.3c3.6,0.9,7.7,2,10.7-0.2c3.1-2.3,3-7.3,0.8-10.5c-2.3-3.1-6.1-4.8-9.8-5.9c-3.6-1.1-7.6-1.8-10.9,0.1
				c-2,1.1-3.4,3.1-4.8,4.9c-4.2,5.2-9.7,9.5-15.8,12.3c-2,0.9-4.3,1.7-6.5,1.2s-4.1-2.8-3.4-4.9C446,461.6,445.1,458.2,445.8,455.2
				z"/>
		</g>
	</g>
</g>
<g>
	<g>
		<defs>
			<rect id="SVGID_6_" x="97.5" y="451.2" width="54.7" height="59.4"/>
		</defs>
		<clipPath id="SVGID_7_">
			<use xlink:href="#SVGID_6_"  style="overflow:visible;"/>
		</clipPath>
		<g class="st4">
			<path class="st5" d="M124.5,495.7c-1,1.2-1.7,2.7-2.3,4.1c-0.5,1.1-0.9,2.4-0.3,3.5c1,1.6,3.5,1,4.9-0.2c2.2-1.9,3.5-4.5,5.4-6.8
				c1.8-2.2,4.7-4.1,7.5-3.4c0.5,0.1,1,0.4,1.3,0.8s0.3,0.9,0.4,1.3c0.3,4.7-2.1,9.3-5.8,12.1c-3.7,2.9-8.6,4-13.3,3.5
				c-4-0.4-8.4-2.7-9.1-6.7c-0.1-0.7-0.1-1.4-0.4-2s-1-1.1-1.6-0.9c-0.4,0.1-0.7,0.5-0.9,0.9c-1.4,2-3.7,3.5-6.1,4.1
				c-2.2,0.5-4.9,0.1-6-1.8c-0.6-1-0.6-2.2-0.5-3.4c0.4-2.9,2.3-5.9,5.2-6.4c1.2-0.2,2.3,0,3.5-0.2c1.1-0.3,2.2-1.4,1.9-2.5
				c-1.6-1.3-3.3-2.6-4.9-3.9c-0.6-0.5-1.3-1.1-1.5-1.9c-0.1-0.4,0-0.8,0.1-1.2c0.5-1.5,1.9-2.7,3.5-2.9c1.6-0.2,3.3,0.7,4,2.1
				c0.6,1.1,0.7,2.4,1.3,3.5c0.7,1.1,2.4,1.7,3.1,0.7c0.3-0.3,0.3-0.8,0.4-1.2c0.4-4-0.4-8.1-1.2-12.1c-0.8-4-1.6-8-1-12.1
				c0.5-4,2.6-8.1,6.2-9.9c2.6-1.4,5.7-1.5,8.6-1.5c0.6,0,1.2,0,1.6,0.4c0.2,0.2,0.3,0.6,0.4,0.9c1,4.2-0.4,8.6-1.8,12.7
				c-1.8,5.5-3.7,10.9-5.5,16.4c-0.7,2.2-1.5,4.5-1.7,6.8c0,0.4,0,0.7,0.1,1c0.3,0.6,1.1,0.7,1.7,0.5s1-0.7,1.5-1.2
				c3.7-4,7.3-8.1,9.9-12.9c1.8-3.3,3-6.8,4.8-10.1c1.8-3.2,4.5-6.3,8-7.5c1.2-0.4,2.5-0.6,3.8-0.3c1.2,0.3,2.3,1.3,2.6,2.5
				c0.3,1.4-0.6,2.8-1.4,3.9c-3.6,5.4-7.2,10.7-10.8,16.1c-0.5,0.7-0.9,1.6-0.4,2.3c0.5,0.6,1.4,0.5,2.1,0.1
				c0.7-0.3,1.3-0.8,2.1-0.9c1.2,0,2.2,1.4,1.9,2.6c-0.2,1.2-1.3,2.1-2.4,2.6c-1.2,0.5-2.4,0.5-3.6,0.7c-4.5,0.7-8.8,2.7-12.2,5.7
				L124.5,495.7z"/>
		</g>
	</g>
</g>
<g>
	<g>
		<defs>
			
				<rect id="SVGID_8_" x="256.2" y="507.8" transform="matrix(0.6421 -0.7666 0.7666 0.6421 -316.047 428.8796)" width="90.3" height="90.3"/>
		</defs>
		<clipPath id="SVGID_9_">
			<use xlink:href="#SVGID_8_"  style="overflow:visible;"/>
		</clipPath>
		<g class="st6">
			<path class="st7" d="M310.7,525.5c1.8,0.3,3.4,1.2,5.2,1.6c4.6,1.1,9.3-0.8,13.6-2.8c0.5-0.2,1.1-0.5,1.3-1.1
				c0.2-0.5,0-1-0.1-1.4c-1.2-3.4-3.1-7-6.5-8.3c-2.4-1-5.2-0.6-7.8-0.5c-5.2,0.1-10.3-1-15-3.3c-1.3-0.6-2.6-1.4-4-1.3
				c-1,0-1.9,0.4-2.8,0.9c-3.8,2-6.9,5-10.7,6.9c-4.3,2.2-9.2,2.8-13.4,5c-4.2,2.2-7.9,7-6.3,11.5c0.6,1.8,2,3.2,3.3,4.6
				c3.3,3.4,7.2,7,11.9,6.7c4-0.3,7.3-3.4,9.4-6.8c1-1.6,1.8-3.4,3.1-4.6c1.4-1.3,3.6-1.9,5.1-0.8c1.7,1.2,1.7,3.7,1.2,5.8
				c-1.3,5.3-4.7,10.1-9.3,13.1c-2.9,1.9-6.3,3-9.3,4.7c-5,2.8-9.2,7-11.9,12c-0.2,0.4-0.5,0.9-0.5,1.4c-0.1,1,0.5,1.8,1.1,2.6
				c1.1,1.5,2.3,3.1,4,3.9c3.8,1.9,8.5-0.5,11.1-3.9s3.8-7.6,6-11.3s6.1-6.9,10.3-6.2c2.6,4.8-0.6,10.7-4.1,14.9
				c-3,3.6-6.3,6.9-9.9,10c-1.9,1.6-4,3.3-5,5.7s-0.7,5.2,0,7.8c0.3,1.3,0.7,2.6,1.6,3.6c2.3,2.8,7,2.3,9.8,0s4.2-5.9,5.4-9.4
				c1.5-4.1,3-8.3,4.5-12.4c0.3-0.9,0.7-1.9,1.4-2.6c1.8-1.6,4.8-0.4,6.1,1.6c1.2,2,1.3,4.6,1.5,7c0.5,4.4,1.8,8.6,3.9,12.5
				c1.2,2.2,3,4.5,5.5,4.8c3.7,0.4,6.4-4,5.9-7.7s-3-6.7-5.1-9.8c-1.5-2.2-2.8-4.4-3.9-6.8c-1.3-2.7-1.9-6.9,0.9-8.1
				c2.2-0.9,4.5,0.9,6.2,2.6c1.8,1.9,3.7,3.8,5.5,5.6c1.4,1.4,2.8,2.8,4.5,3.7c1.8,0.8,4,1,5.6-0.2c1.4-1,2.1-2.8,2.2-4.6
				c0.3-4.8-2.7-9.4-6.7-12s-8.9-3.5-13.7-3.8c-2.5-0.2-5.2-0.2-7.5-1.3s-4.2-3.5-3.6-6c0.5-2.4,3.1-3.8,5.6-4
				c2.4-0.1,4.8,0.7,7.2,1.4c2.6,0.8,5.3,1.3,7.9,1c2.7-0.3,5.3-1.7,6.6-4c1.4-2.4,1-5.6-0.8-7.7c-2.1-2.4-5.5-3-8.6-2.7
				c-3.1,0.4-6.1,1.5-9.1,2.2c-3.1,0.7-6.4,0.9-9.1-0.7c-2.7-1.6-4.3-5.3-2.7-8C307.7,526.6,308.9,525.2,310.7,525.5z"/>
		</g>
	</g>
</g>
<path class="st8" d="M369.3,483.7c-5.6,3.3-17.2,2.7-16.9,5.3c0.2,1.6,6.9,9.1,6.3,13.3c3.6,10.8-5.6,20.9-7.8,27.2
	c0.1,0.8,0.4,1.6,1.1,1.9c0.9,0.4,1.9-0.2,2.8-0.3c2.2-0.4,4.3,1.9,3.8,4.1c2.8,2.8,7.9,0.7,9.6-2.8s1-7.7,0.3-11.6
	c-0.8-3.8-1.6-8,0-11.6c0.2-0.6,0.6-1.2,1.1-1.4c1-0.5,2.2,0.2,3,0.9c2.4,2.1,4,5.1,4.5,8.3c0.3,2.4,0,4.9-0.3,7.4
	c-1.4,10.3-2.8,20.6-4.1,30.9c-0.2,1.6-0.4,3.3,0.3,4.7c0.6,1.1,1.6,1.9,2.7,2.6c3.1,1.9,7,3,10.4,1.8c4.7-1.7,7-7.3,6.7-12.3
	s-2.6-9.6-4.4-14.3c-2.8-7.1-4.7-14.5-5.7-22.1c6.3,7.3,14.5,13.1,18.7,21.8c4.5,9.3,3.4,20.2,2.2,30.5c-0.3,2.2-0.2,4.9,1.7,5.9
	c1.4,0.7,3.3,0,4.3-1.2c1.1-1.2,1.5-2.8,1.9-4.4c2.9,0.4,5.9,0.4,8.8,0.3c1.5-0.1,3.1-0.4,3.9-1.6c1.1-1.7-0.2-3.9-1.5-5.5
	c-7.7-9.9-13.9-21-18.4-32.8c10.8,7,21.9,13.6,33.2,19.7c1,0.5,2.2,1.1,3.1,0.5c1.2-0.7,1-2.4,0.4-3.7c-0.6-1.2-1.5-2.4-1.4-3.7
	c0.1-2.1,2.5-3.2,4.4-3.9c-3.6-7-12.4-9.1-20-11.3c-11.7-3.4-22.8-8.7-32.8-15.8c-0.9-0.7-2-1.9-1.4-2.8c0.5-0.7,1.5-0.7,2.4-0.6
	c5.8,0.9,11.5,2.4,17,4.4c7,2.6,14.2,6.1,21.6,5.2c1.5-0.2,3.3-0.7,3.8-2.2c0.9-2.2-1.6-4.2-3.7-5c-2.2-0.8-4.9-1.6-5.5-3.8
	c-0.4-1.3,0.2-2.7,0-4.1c-0.4-2.5-3-4-5.4-4.8c-14.6-4.7-30.9,1.8-45.7-2.2c1.9-2.2,5.1-2.4,8-2.6c6.3-0.3,12.6-0.6,18.9-0.8
	c1.3-0.1,2.8-0.2,3.5-1.4c1.5-2.7-3.7-4.5-4.1-7.5c-0.3-2.4,2.6-4.3,2.1-6.7c-0.5-2-3-2.5-5-2.5C386,473.5,377.9,478.7,369.3,483.7z
	"/>
<g>
	<g>
		<defs>
			
				<rect id="SVGID_10_" x="213.2" y="505.7" transform="matrix(0.3865 -0.9223 0.9223 0.3865 -337.1809 538.856)" width="46.4" height="34.3"/>
		</defs>
		<clipPath id="SVGID_11_">
			<use xlink:href="#SVGID_10_"  style="overflow:visible;"/>
		</clipPath>
		<g class="st9">
			<path class="st10" d="M247.4,514.9c1.1,0.4,2.1,1.2,2.2,2.4c0.1,0.6-0.1,1.2-0.2,1.8c-0.1,2.1,2,4,4,3.6s3.3-2.9,2.5-4.8
				c-0.8-1.8-3.2-2.8-3.6-4.8c-0.5-2.6,2.9-5.2,1.5-7.5c-0.5-0.8-1.4-1.2-2.3-1.5c-5.4-1.9-11.3-2-16.8-0.3
				c-1.6,0.5-3.4,1.4-3.5,3.1c-0.1,1.2,0.9,2.3,2.1,2.8c1.2,0.4,2.4,0.4,3.7,0.3s2.6-0.2,3.9-0.3c-0.1,1-1.2,1.6-2.2,1.9
				c-4.4,1.4-8.9,2.7-13.4,3.7c-1.5,0.3-3.1,0.7-4.4,1.6s-2.1,2.6-1.6,4.1c0.6,1.7,2.9,2.3,4.7,1.9s3.3-1.5,5-2.3s3.7-1.2,5.3-0.2
				c-5.1,6.4-16.1,5.9-20.7,12.7c-1,1.4-1.6,3.5-0.5,4.9c0.9,1.2,2.6,1.5,4.1,1c1.4-0.5,2.6-1.6,3.6-2.7c2.2-2.4,4.7-5.4,7.9-5.1
				c0.7,1.5,0.3,3.4-0.8,4.5c-1.2,1.1-3.3,1.8-3.2,3.4c0,0.4,0.2,0.8,0.4,1.2c1,1.7,2.5,3.3,4.5,3.6c2.8,0.4,5.4-2.2,5.9-5
				c0.3-1.8-0.2-3.7-0.2-5.6c0-2.9,1-5.7,2.1-8.4c0.2-0.6,0.5-1.2,1-1.6c1.2-0.9,3.1,0.1,3.6,1.5s0,3-0.6,4.4
				c-0.6,1.3-1.2,2.8-0.6,4c0.7,1.3,2.5,1.6,3.9,1c1.3-0.7,2.2-2,2.9-3.3c0.6-1.3,1.2-2.7,0.7-4.1c-0.3-0.8-0.9-1.5-1.5-2.1
				c-1.7-1.9-2.9-4.2-3.6-6.7c-0.2-0.8-0.4-1.7,0-2.5c0.3-0.8,1.3-1.4,2.1-0.9C245.1,514.6,246.4,514.5,247.4,514.9z"/>
		</g>
	</g>
</g>
<path class="st11" d="M76.6,131.4c0.1,0.8,0.9,1.3,1.7,1.3c0.7-0.1,1.4-0.5,1.9-1c1.4-1.1,2.7-2.1,4.1-3.2c1.1-0.9,2.5-1.8,3.9-1.2
	c1.7,0.7,2,3.3,1.2,4.8c-0.9,1.5-2.5,2.4-3.9,3.4s-2.8,2.4-2.8,4.2s1.4,3.7,0.8,5.4c-6.4-3.5-14-0.4-20.7-3c-1.5-0.6-3.1-1.8-3-3.4
	c0.1-1.5,1.6-2.2,3-2.5c1.4-0.3,2.8-0.5,4.3-0.5c1.1,0,2.5,0,3.1-0.9s0.1-2.3-0.7-3.1c-0.9-0.8-2-1-3.1-1.2
	c-2.6-0.3-5.3,0.2-7.6,1.3c-1.5,0.7-2.8,1.7-4.4,2.3c-1.8,0.6-3.7,0.7-5.4,1.5c-1.4,0.7-2.8,1.9-4.4,1.5c-1.5-0.4-2.4-2.3-2.2-3.9
	c0.2-1.6,1.1-2.9,2.1-4c1.1-1.2,2.4-2.3,3.9-2.6c1.4-0.3,2.8-0.1,4.3-0.1c2.3,0,4.6-0.7,6.5-2c0.2-1.2-1.1-2.1-2.3-2.5
	c-5.1-1.5-10.1,0.9-15.1,2.2c-3,0.8-6.2,1.2-9.4,1.2c-1.4,0-3.1-0.3-3.9-1.6c-1-1.7,0.3-3.6,1.5-4.8c1.5-1.5,3.3-2.9,5.4-3
	c1.3-0.1,2.7,0.4,3.9,0.2c1.3-0.2,2.5-1.4,2.1-2.7c-0.4-1.4-2.1-1.8-3.5-1.9c-3.2-0.3-6.4-0.5-9.6-0.8c-2.4-0.2-5-0.5-6.8-2.4
	c-0.3-0.3-0.5-0.6-0.6-0.9c-0.4-1.1,0.4-2.2,1.4-2.7c3.1-1.8,7.2-0.3,10.7-1.1c0.7-0.1,1.3-0.4,1.8-0.9c1.2-1.5-0.2-3.9-1.7-5.3
	s-3.5-2.7-3.7-4.8c-0.2-1.7,1.1-3.2,2.6-3.6c1.6-0.4,3.3,0,4.8,0.7s3,1.7,3.9,3.2c1,1.7,0.9,3.8,1.3,5.7c0.6,3.5,2.6,6.6,4.5,9.7
	c0.9,1.4,1.9,2.9,3.4,3.4c0.4,0.1,1,0.1,1.2-0.3c0.1-0.2,0.1-0.5,0.1-0.8c-0.2-1.9-0.8-3.8-1.8-5.4c-0.3-0.6-0.8-1.2-0.8-1.8
	c0-0.5,0.2-0.9,0.3-1.3c0.3-0.6,0.6-1.3,0.8-1.9c0.3-0.7,0.7-1.5,1.4-1.7c0.5-0.1,1,0,1.4,0.2c1.9,0.8,3.6,2.6,4.4,4.6
	c1.6,3.9,0.3,8.5,2.6,12c0.5,0.7,1.3,1.4,2.1,1.2c0.5-0.1,0.8-0.6,0.9-1c0.5-1.5-0.4-3.2-0.2-4.9c0.2-2.1,2-3.4,3.8-4.2
	c0.9-0.4,1.9-0.8,2.9-0.6c2,0.4,3.2,2.8,3.1,4.8s-1,3.8-1.8,5.7c-0.8,1.8-1.4,3.9-0.8,5.9c0.2,0.8,0.7,1.6,1.4,2.1
	c1.3,0.8,2.9,0.2,3.8-1c0.9-1.1,1.2-2.7,1.5-4.1c0.5-2.2,1.6-4.7,3.7-5.2s4.5,1.4,5,3.6c0.6,2.3-0.4,4.6-2,6
	c-1.4,1.1-3.1,1.6-4.6,2.6s-2.7,2.7-2.2,4.6"/>
<path class="st12" d="M166.8,278.2c7.6-6.3,12.2-19.3,17.6-29.4c1.5-2.7,2.9-5.6,2.6-8.7c-0.4-4.5-4.7-8-9.1-8.5
	c-4.5-0.5-8.9,1.5-12.4,4.4c-3.5,2.8-6.3,6.4-9.3,9.8c-1.9,2.1-5.5,4.2-7.2,1.8c-0.5-0.7-0.6-1.7-0.6-2.6c0.1-4.2,2.1-8.1,4.5-11.5
	c8.2-11.8,20.6-20.9,25.8-34.3c1.9-5.1,2.4-11.5-1.5-15.2c-3.2-3-8.2-3-12.2-1.3c-4,1.8-7.1,5.1-10,8.2c-2.7,2.9-5.4,5.8-7.4,9.2
	c-4.6,8-4.6,18.2-10,25.6c-0.9,1.2-2,2.4-3.5,2.4c-2.3,0.1-3.7-2.7-4-5c-0.8-6.5,2.2-12.9,5.3-18.7c4.4-8.3,9.3-16.3,12.7-25.1
	c3.3-8.8,5-18.5,2.7-27.7c-0.3-1.1-0.7-2.3-1.5-3.1c-1-0.9-2.3-1.1-3.6-1.1c-9.8-0.4-18.7,6.7-23.5,15.3c-4.8,8.7-6.2,18.8-7.4,28.7
	c-0.6,4.9-1.3,10.3-4.6,13.9c-2.5-1.3-2.8-4.7-2.8-7.5c0.4-17.7,2.1-35.4,5-52.9c0.9-5.4,1.7-11.6-1.8-15.7
	c-3.6-4.3-10.5-4.2-15-0.9c-4.4,3.3-6.5,9-7,14.6c-0.4,5.5,0.6,11.1,1.3,16.6c0.7,5.5,1,11.3-0.7,16.5c-0.4,1.1-0.9,2.3-2,2.8
	c-1.5,0.7-3.4-0.5-4.1-2s-0.6-3.3-0.6-5c0-6-1.2-12.1-4.5-17c-3.4-4.9-9.2-8.2-15.1-7.5c-1.3,0.2-2.5,0.5-3.7,1.1
	c-5.9,3-7.4,11.2-5.1,17.5c2.3,6.3,7.3,11,11.9,15.7c1.3,1.3,2.6,2.7,2.8,4.5c0.2,1.8-1.3,3.9-3.1,3.4c-1-0.3-1.6-1.2-2.2-2
	c-3.6-5.2-8.1-9.8-13.3-13.5c-1.2-0.9-2.5-1.7-4-1.9c-3.8-0.6-7.1,3.4-7.4,7.3c-0.2,3.9,1.7,7.6,3.7,10.9c3.2,5.4,6.8,10.7,12.1,14
	c8.1,5.1,18.4,4.5,27.9,4c3.3-0.2,6.7-0.3,9.8,0.7c3.2,1,6.1,3.5,6.8,6.7c0.1,0.7,0.2,1.4-0.1,2c-0.6,1.4-2.3,1.9-3.8,2
	c-9.3,0.7-18.9-5.9-27.6-2.4c-1.8,0.7-3.5,1.9-4.4,3.7c-1.5,3-0.1,7,2.5,9.1s6.2,2.8,9.6,2.7c6.7,0,13.3-2.3,20-2.9
	c6.7-0.6,14.4,1.1,18.1,6.8c0.7,1.1,1.3,2.4,1.1,3.7c-0.3,2-2.3,3.4-4.2,3.7c-2,0.3-4-0.3-5.9-0.8c-5-1.4-10.4-2.8-15.4-1.2
	c-5,1.5-9.2,7.1-7.3,12.1c1.1,2.9,3.8,4.8,6.6,5.8c10.7,3.9,22.1-2.5,33.2-4.9c3.3-0.7,7.4-0.8,9.6,1.8c2.3,2.7,1.4,7.2-1.1,9.8
	c-2.5,2.6-6,3.9-9.3,5.2c-3.7,1.5-7.5,3.3-10.2,6.2c-2.8,3-4.4,7.3-3.1,11.2c1.4,4.1,5.8,6.7,10.1,6.6c4.3-0.1,8.8-2,11.2-5.6
	C137.4,278,159,284.7,166.8,278.2z"/>
<path class="st12" d="M472.2,418.2c-0.5,5.2,2.6,12.1,4.3,18.1c0.4,1.6,1,3.3,2.2,4.4c1.8,1.7,4.6,1.6,6.4,0.3
	c1.8-1.4,2.7-3.7,2.9-6.1c0.2-2.4,0-4.8-0.2-7.2c-0.1-1.5,0.5-3.6,1.9-3.3c0.4,0.1,0.8,0.5,1.1,0.8c1.5,1.7,2.1,4,2.5,6.2
	c1.3,7.7,0.1,15.7,3.1,22.9c1.1,2.7,3.3,5.5,6,5.7c2.2,0.1,4.1-1.7,4.9-3.8c0.8-2.1,0.7-4.5,0.7-6.9c-0.1-2.1-0.1-4.2-0.7-6.3
	c-1.2-4.8-4.9-9-5.6-13.9c-0.1-0.8-0.1-1.7,0.4-2.2c0.8-0.8,2.3-0.2,3.3,0.6c2.6,2.4,3.9,6,4.8,9.4c1.4,4.9,2.5,9.9,4.5,14.6
	s4.9,9.3,9,12.2c0.5,0.4,1.1,0.7,1.7,0.7c0.7,0,1.2-0.4,1.7-0.8c3.7-3.3,4.4-9.3,3-14.4c-1.4-5.2-4.6-9.8-7.7-14.2
	c-1.6-2.2-3.3-4.6-3.4-7.2c1.4-0.4,2.7,0.9,3.7,2.1c6.3,7.3,12.1,15.1,17.3,23.2c1.6,2.5,3.6,5.3,6.3,5.7c2.8,0.5,5.3-2,5.7-4.9
	s-0.9-5.9-2.8-8.3c-1.8-2.4-4.2-4.3-6.5-6.3s-4.4-4.2-5.7-6.9c-0.3-0.6-0.5-1.3-0.3-1.9c0.3-0.8,1.4-1,2.2-0.6s1.4,1.1,2,1.8
	c2.1,2.4,4.8,4.5,7.8,5.3s6.3,0.1,8.2-2.2c0.4-0.5,0.7-1.1,0.9-1.7c1-3.3-1.4-7.1-4.5-8.9c-3.1-1.7-6.6-1.9-10-2.2
	c-0.9-0.1-1.9-0.2-2.7-0.9c-0.7-0.7-0.9-2-0.1-2.5c0.5-0.2,1-0.1,1.5,0.1c3.2,0.9,6.5,1.1,9.7,0.8c0.8-0.1,1.5-0.2,2.2-0.6
	c1.6-1.1,1.4-3.9,0-5.5c-1.3-1.7-3.3-2.5-5.3-3.1c-3.1-1.1-6.3-1.9-9.4-1.5c-4.8,0.8-8.3,4.6-11.5,8.2c-1.1,1.2-2.3,2.5-3.8,3.2
	s-3.4,0.7-4.9-0.4c-0.3-0.2-0.6-0.5-0.7-0.9c-0.3-0.8,0.1-1.6,0.6-2.2c3.1-3.6,8.9-4.2,10.8-8.7c0.4-0.9,0.6-2,0.3-3
	c-0.5-1.8-2.5-2.9-4.2-2.8s-3.2,1-4.4,2.2c-2.4,2.4-4,5.6-6.2,8.2s-5.6,4.6-9,3.6c-0.7-0.2-1.3-0.5-1.7-1.1c-0.6-0.9-0.4-2.2,0.2-3
	s1.5-1.3,2.4-1.7c2.3-1.2,4.8-2.5,6-4.9c1.2-2.4,0.7-6.1-1.7-7.5c-1.4-0.8-3.1-0.6-4.5,0c-5.3,2.2-7.1,8.7-10.2,13.6
	c-1,1.5-2.4,2.9-4.1,2.6c-1.8-0.3-3.1-2.5-3.2-4.4s0.8-3.7,1.5-5.4c0.8-1.9,1.5-3.9,1.4-6.1s-1.1-4.5-2.9-5.6c-2-1.2-4.5-0.7-6,0.9
	c-1.5,1.5-2.5,3.9-2.1,6.2C482.9,408.1,472.7,412.9,472.2,418.2z"/>
<path class="st11" d="M513.1,264.2c0.7-1.1,1.3,4.5,0.4,6.6c-1.1,2.4-4.1,3.3-5.6,5.5c-2.8,4.3,0.6,9.9,4.2,13.4
	c3.3,3.2,7.3,6.2,11.8,6.9c6.7,1.1,13.1-2.8,19.4-5.4c6.5-2.8,13.6-4.4,20.6-4.8c5.3-0.3,10.6,0.1,15.8-0.7
	c5.2-0.8,10.5-3.2,13.4-7.7c4.2-6.5,1.7-15.9-4.2-20.8s-14.3-5.7-21.8-3.8c-7.4,1.9-14,6.2-20.1,10.8c-1.7-3.3,1.1-7.1,3.8-9.6
	c17.2-15.8,40.8-21.9,63.5-27c8.3-1.9,18-5,20.1-13.4c2.2-8.7-6.3-17-15.1-18c-8.7-1-17.2,3-25.2,6.8c-8.3,3.9-16.6,7.6-25,11.2
	c-3.8,1.6-9.9,2-10.5-2.2c-0.2-1.5,0.6-3,1.6-4.2c3.5-4.1,9-5.5,14.1-6.9c16.2-4.4,31.9-10.4,46.8-18.1c8.3-4.3,16.7-9.3,21.8-17.3
	c5-8,5.6-19.6-1-26.3c-6.5-6.6-17.6-6-25.7-1.6c-8.1,4.4-14.2,11.7-20.8,18.2c-8.8,8.7-18.7,16.1-28.5,23.5
	c-1.1,0.8-2.7,1.7-3.9,0.8c-0.7-0.5-0.8-1.5-0.8-2.4c-0.1-8.4,7.3-14.7,13.3-20.6c5.9-5.9,11-15.5,6.1-22.3
	c-3.1-4.3-8.9-5.4-14.1-6.1c-4.2-0.6-8.5-1.1-12.4,0.5c-5.8,2.5-8.7,9.1-10.5,15.2c-4.3,15-5.2,31.1-2.4,46.5
	c0.9,5.3,2.3,10.7,0.8,15.9c-1.5,5.1-7.1,9.5-11.9,7.4c-5.6-2.4-5.5-10.4-4.4-16.5s1.4-14-4.1-16.6c-3.9-1.9-8.6,0.4-11.6,3.5
	c-7.6,7.9-8,21.9-0.9,30.2c3.7,4.3,8.9,7,13.2,10.7s7.8,9.5,6.3,15c-1.7,6.4-10.8,9.1-15.6,4.7c-3.7-3.4-4.4-9.1-7.5-13.1
	c-3.3-4.2-9.4-5.8-14.3-3.8s-8.1,7.6-7.6,12.9c0.7,6.5,6.1,11.4,11.8,14.4c5.7,3,12,4.9,17,9"/>
<g>
	<g>
		<defs>
			<polygon id="SVGID_12_" points="71.4,304.1 160.6,251.6 213.6,344.9 124.3,397.4 			"/>
		</defs>
		<clipPath id="SVGID_13_">
			<use xlink:href="#SVGID_12_"  style="overflow:visible;"/>
		</clipPath>
		<g class="st13">
			<path class="st14" d="M196,323.4c-2.4-8.7-8.2-15.4-11-23.9c-2.2-6.6-3.5-14.3-9.1-18.4c-0.7-0.5-1.6-1-2.4-0.7
				c-1,0.3-1.4,1.6-2,2.5c-1.4,2-4.9,1.9-6.1-0.3c-4.3,0-6.8,5.6-5.5,9.8c1.4,4.2,5.1,7,8.7,9.5c3.6,2.5,7.4,5.2,8.9,9.3
				c0.3,0.7,0.4,1.4,0.2,2.1c-0.4,1.2-1.8,1.6-3,1.6c-3.5,0.2-7.1-0.9-9.9-3.1c-2.2-1.7-3.8-3.9-5.4-6.2c-6.9-9.3-13.7-18.7-20.6-28
				c-1.1-1.4-2.2-3-3.9-3.6c-1.3-0.5-2.8-0.3-4.1,0c-3.9,0.9-7.8,3-9.6,6.7c-2.4,5,0.1,11.3,4.2,15.1c4.1,3.8,9.4,5.7,14.5,8
				c7.7,3.5,14.9,7.9,21.5,13.2c-10.5-1-21.5,0.9-31.5-2.8c-10.7-4-18.2-13.6-25.2-22.8c-1.5-2-3.6-4.1-5.9-3.4
				c-1.7,0.5-2.6,2.5-2.5,4.3s1,3.5,1.8,5c-2.6,2-5,4.2-7.2,6.7c-1.1,1.2-2.2,2.7-1.8,4.3c0.5,2.2,3.2,2.9,5.4,3.2
				c13.7,1.9,27.2,6,39.7,11.9c-13.9,2.8-27.7,6.2-41.4,10.2c-1.2,0.3-2.5,0.9-2.8,2.1c-0.4,1.5,1.1,2.8,2.5,3.3s3,0.7,4,1.9
				c1.5,1.8,0.5,4.5-0.5,6.6c8.3,2.8,16.8-2.5,24.4-6.6c11.8-6.5,24.7-10.9,38-13c1.3-0.2,3-0.1,3.2,1.2c0.2,1-0.7,1.8-1.4,2.3
				c-5.2,3.8-10.9,7.1-16.8,9.8c-7.5,3.5-15.9,6.2-21.1,12.8c-1.1,1.3-2,3.1-1.4,4.7c1,2.4,4.4,2.1,6.8,1.1c2.3-1.1,5-2.5,7.2-1.2
				c1.3,0.8,2,2.3,3.2,3.3c2.2,1.7,5.4,0.9,8-0.4c15.1-7.6,22.9-25.6,37.7-34c0.2,3.2-2.2,6-4.3,8.4c-4.7,5.2-9.5,10.3-14.2,15.4
				c-1,1.1-2,2.4-1.7,3.8c0.9,3.3,6.4,0.7,9,2.8c2,1.7,1.3,5.6,3.5,7c1.9,1.2,4.3-0.3,5.9-1.9C191.4,353.6,199.1,334.1,196,323.4z"
				/>
		</g>
	</g>
</g>
<g>
	<g>
		<defs>
			<polygon id="SVGID_14_" points="61.6,232.5 26.2,249.4 55.4,312.9 90.8,296 			"/>
		</defs>
		<clipPath id="SVGID_15_">
			<use xlink:href="#SVGID_14_"  style="overflow:visible;"/>
		</clipPath>
		<g class="st15">
			<path class="st16" d="M74.8,294c2-1.8,4.7-3.1,7.3-2.3c2.6,0.7,4.3,4.1,2.9,6.3c-0.6,0.9-1.5,1.5-2.5,2c-7.5,4-16.3,5.1-24.6,3.3
				c-2.3-0.5-4.9-1.7-5.2-4.1c-0.3-2.3,2.1-4.2,4.4-4.5c2.3-0.3,4.6,0.5,6.9,0.8c0.7,0.1,1.4,0.1,2-0.3c0.8-0.6,0.9-1.9,0.4-2.7
				c-0.5-0.9-1.4-1.5-2.3-1.9c-6.1-3-13.7-1.7-19.8-4.9c-1.6-0.8-3.2-2.5-2.7-4.2c0.6-2.2,3.7-2.2,5.9-1.7c3.7,0.8,7.4,1.7,11,2.5
				c1.3,0.3,3.2,0.2,3.3-1.2c0-0.3-0.1-0.7-0.3-1c-1.7-3.4-5.4-5.2-9.1-6.1c-3.6-0.9-7.4-1.1-11-2.4c-2.8-1.1-5.4-2.9-7.3-5.2
				c-0.5-0.5-0.9-1.1-1-1.9c-0.1-0.9,0.4-1.7,1-2.2c2.5-2.3,6.5-1.2,9.4,0.6c2.9,1.7,5.8,4,9.1,3.9c-1.2-3.7-4.3-6.5-7.5-8.6
				c-3.3-2-6.9-3.4-10.3-5.4c-1.6-0.9-3.3-2.3-3.1-4.2c0.1-0.6,0.4-1.1,0.7-1.5c2-2.2,5.7-1.2,8.1,0.5s4.8,4,7.8,4
				c1.2-4-3-8.7-0.6-12.1c1.8-2.6,6.2-1.6,8,1s1.9,6,2.2,9.2c0.5,5.8,1.8,11.5,3.8,17c0.4,1.2,1.6,2.6,2.6,1.9
				c0.4-0.2,0.6-0.7,0.7-1.1c0.6-2.2-0.3-4.4-0.5-6.6c-0.1-2.2,1.2-5,3.4-4.8c1.1,0.1,1.9,0.9,2.5,1.8c1.9,2.8,1.8,6.4,1.2,9.7
				c-0.6,3.3-1.7,6.5-1.8,9.9c0,1.4,0.6,3.3,2,3.2c1.3-0.1,1.7-1.8,1.9-3.1c0.2-1.4,0.4-2.9,1.2-4.1c0.8-1.2,2.3-2,3.6-1.5
				c0.7,0.2,1.2,0.8,1.6,1.4c1.9,2.9,0.4,6.9-1.5,9.7c-2,2.9-4.5,5.6-4.7,9.1L74.8,294z"/>
		</g>
	</g>
</g>
<g>
	<g>
		<defs>
			<polygon id="SVGID_16_" points="618.9,259.6 563,347.7 474,289.2 529.9,201.2 			"/>
		</defs>
		<clipPath id="SVGID_17_">
			<use xlink:href="#SVGID_16_"  style="overflow:visible;"/>
		</clipPath>
		<g class="st17">
			<path class="st18" d="M502.6,289.2c6.1,6.6,14.2,9.9,20.6,16.2c4.9,4.9,9.6,11.1,16.3,12.2c0.8,0.1,1.8,0.1,2.4-0.5
				c0.8-0.8,0.5-2,0.6-3.1c0.4-2.4,3.5-3.9,5.6-2.6c3.9-2,3.6-8.2,0.5-11.3c-3.1-3.1-7.7-3.8-12-4.4s-8.9-1.2-12.1-4.1
				c-0.5-0.5-1-1-1.1-1.7c-0.2-1.2,0.9-2.2,2-2.9c3-1.8,6.7-2.5,10.2-1.8c2.7,0.5,5.2,1.7,7.6,3c10.3,5.1,20.6,10.3,30.9,15.4
				c1.6,0.8,3.3,1.6,5,1.4c1.4-0.2,2.6-1,3.7-1.9c3.1-2.6,5.6-6.3,5.5-10.4c-0.1-5.6-5.2-10.1-10.5-11.5c-5.3-1.5-11-0.7-16.5-0.4
				c-8.4,0.5-16.8-0.1-25.1-1.8c9.8-4,18.8-10.8,29.3-12.1c11.3-1.4,22.3,3.6,32.6,8.6c2.2,1.1,5.1,2,6.8,0.3c1.3-1.3,1.2-3.5,0.3-5
				c-0.9-1.6-2.4-2.6-3.9-3.6c1.4-3,2.5-6.1,3.4-9.3c0.4-1.6,0.7-3.4-0.3-4.7c-1.4-1.8-4.1-1.1-6.2-0.4c-13.1,4.6-26.8,7.3-40.7,7.9
				c11.1-9,21.9-18.4,32.2-28.3c0.9-0.9,1.9-2,1.6-3.2c-0.3-1.5-2.2-1.9-3.7-1.7s-3,0.8-4.4,0.2c-2.2-0.9-2.5-3.8-2.5-6.1
				c-8.6,1.4-13.8,10-18.8,17.3c-7.6,11.2-17.1,21.2-28,29.2c-1,0.8-2.6,1.5-3.4,0.4c-0.6-0.8-0.2-1.9,0.3-2.7
				c3-5.8,6.5-11.4,10.5-16.5c5.2-6.6,11.3-12.9,13.1-21.1c0.4-1.7,0.4-3.7-0.9-4.8c-2-1.7-4.9,0.2-6.5,2.2s-3.3,4.6-5.9,4.4
				c-1.5-0.1-2.8-1.2-4.3-1.4c-2.8-0.5-5.2,1.7-6.9,4c-10.1,13.8-8.9,33.5-18.3,47.7c-1.6-2.8-0.8-6.3,0.1-9.5
				c1.9-6.8,3.8-13.6,5.7-20.3c0.4-1.4,0.7-3.1-0.2-4.2c-2.3-2.5-6,2.4-9.2,1.7c-2.6-0.6-3.6-4.4-6.2-4.6c-2.2-0.2-3.7,2.3-4.4,4.4
				C493.2,260.3,495.1,281.1,502.6,289.2z"/>
		</g>
	</g>
</g>
<g>
	<g>
		<defs>
			<polygon id="SVGID_18_" points="568.2,329.4 618.2,367.6 686.2,275.5 636.3,237.2 			"/>
		</defs>
		<clipPath id="SVGID_19_">
			<use xlink:href="#SVGID_18_"  style="overflow:visible;"/>
		</clipPath>
		<g class="st19">
			<path class="st14" d="M581.2,338.8c7.3-3.3,11.8-10.9,13.8-18.8c2-7.8,1.7-16,2.1-24.1c0.2-3.8,0.8-8.1,3.9-10.3
				c3.8-2.7,9.6,0,11.4,4.3c1.8,4.4,0.6,9.5-1.8,13.5c5.8-6.8,10.1-14.8,12.5-23.4c0.9-3,1.5-6.1,1.5-9.2c0-3.8-1.1-7.6-0.6-11.4
				c0.5-3.8,3.2-7.7,7-7.6c2.6,0.1,4.7,2,6.5,4s3.5,4.6,3.1,7.3c-0.1,0.7-0.3,1.4-0.1,2c0.4,1,1.9,1.1,2.7,0.4
				c0.8-0.6,1.2-1.7,1.7-2.7c2-4.8,6.1-9.7,11.2-9.2c4.3,0.5,7.4,4.8,7.8,9.2s-1.5,8.6-3.8,12.3c-5.4,8.6-13.4,15.1-21,21.8
				c-2.1,1.8-4.2,3.8-5.3,6.3c-0.6,1.4-0.8,3.1,0,4.3c0.5,0.8,1.2,1.6,2.1,1.5c1.9-0.2,3.9-2.6,6.4-4.7s7.9-4,10.9-2.6
				c4,1.9,6.2,4.3,6,8S656,316,654,319c-1.4,2.2-21.3,20.9-32.3,22.2c-11.6,1.3-33.3,5.4-40.5-2.5"/>
		</g>
	</g>
</g>
<path class="st11" d="M372.1,376.6c-8.6,13-19.5,43.3-8.6,53.5c5.1,4.8,11.7,7.6,17.5,11.5s11.2,9.7,11.7,17
	c0.4,5.1-1.7,10.1-4.2,14.6c-1.3,2.3-2.7,4.6-4.8,6.1c-5.1,3.6-12.2,0.9-16.1-3.8c-3.9-4.7-5.8-10.9-8.5-16.5
	c-4.5-9.3-11.7-17.1-20.4-22.2c-2.3-1.3-5.6-2.2-7.2,0c-0.5,0.6-0.7,1.4-0.9,2.1c-2.1,8.5,0.7,17.3,3.5,25.5
	c2.8,8.1,5.8,16.8,4.3,25.4c-1.6,8.6-9.7,16.8-17.7,14.6c-6.5-1.8-9.9-9.4-10.9-16.5c-2.8-19.5,6-40,1.6-59.1
	c-9.7,15.5-16.7,32.9-20.4,51c-1.3,6.5-2.3,13.2-5.5,19s-9.5,10.3-15.6,9c-2.5-0.5-4.7-2-6.9-3.5c-4.1-2.8-8.5-6.3-9.6-11.4
	c-1.5-7.1,3.8-13.8,8.5-19.3c9.9-11.4,19.2-23.4,27.9-35.8c3-4.3,5.6-10.9,1.6-13.9c-16.3,13.2-25.5,34-40.1,49.1
	c-6.3,6.5-16,12.2-23.3,7.4c-7.4-4.8-6.3-17.4-0.4-24.6c5.9-7.2,14.7-10.7,22.5-15.1c8.6-4.9,16.5-11.3,23.3-18.9
	c0.7-0.7,1.4-1.6,1.5-2.6c0.2-1.9-2-3.3-3.8-3s-3.3,1.7-4.6,3.1c-11.8,11.5-25.1,21.2-39.2,29.1c-6.2,3.5-12.9,6.7-19.8,5.9
	s-13.3-7.2-12.1-14.4c1.3-7.5,9.4-11.1,16.3-13.4c15.3-5.1,30.7-10.3,46-15.4c-1.9-3.4-6.7-2.7-10.4-1.8
	c-14.6,3.6-31.5,3.1-42.2-7.4c-2.1-2.1-4.1-5.1-3.3-8.1c1-3.7,5.3-5.1,8.9-5.6c16.3-2,32.5,2.1,48.2,6.8c15.6,4.7,34,12,50.3,13
	c20.1,1.2,35-6.6,41.6-19.5c2.7-5.2,9.9-14.7,11.2-11.4L372.1,376.6z"/>
<g>
	<g>
		<defs>
			<polygon id="SVGID_20_" points="529.4,240.1 617.7,341.3 499.3,448.4 410.9,347.1 			"/>
		</defs>
		<clipPath id="SVGID_21_">
			<use xlink:href="#SVGID_20_"  style="overflow:visible;"/>
		</clipPath>
		<g class="st20">
			<path class="st21" d="M471.8,335.1c-3.7,3-4.3-5.4-3.8-10.1c0.3-3.1,1.8-5.9,2.6-8.9c1-3.8,0.8-8-0.5-11.7
				c-0.8-2.4-2.7-4.9-5.2-4.7c-1.3,0.1-2.3,1-3.3,1.8c-4.1,3.7-7.3,8.6-9.1,13.8c-1,3-23.8,44.5-22.3,52.8c0.1,0.7,0.6,1.5,0.9,1.9
				c9.2,11.7,28.8,30.3,47.9,37.8c5.2,2,11.4,3.5,15.9,0.2s5-10.2,2.9-15.4c-2.1-5.2-6.2-9.2-10-13.4c-3.7-4.2-7.3-9-7.7-14.6
				c15.1,9,30.1,18,45.2,27c6.2,3.7,12.6,7.5,19.7,8.7c3,0.5,6.4,0.5,8.8-1.4c3.8-2.8,3.9-8.8,1.4-12.9c-2.4-4.1-6.6-6.6-10.7-9
				c-16.6-9.7-33.6-18.6-51-26.9c-0.6-1.5,1.6-2.5,3.2-2.6c20.8-1.1,40,10.7,60.3,15.6c6,1.4,13.4,1.8,17-3.3
				c3.8-5.2,0.6-13-4.4-17.1c-11.5-9.5-28.6-6.6-42.3-12.3c10.7-5.8,23.1-8.2,35.1-6.9c5.6,0.6,11.3,2,16.8,0.9
				c5.5-1,11-5.5,10.9-11.3c-0.1-4.2-3.2-7.9-7-9.7c-3.7-1.8-8-2.3-12.1-2.7c-4.5-0.4-9-0.9-13.5-0.5c-6,0.5-11.8,2.6-17.4,4.9
				c-2.6,1.1-5.2,2.3-7.5,4c-2.7,2-4.9,4.6-7.4,6.9c-4.1,3.8-9,6.8-14.2,8.5c-2.1,0.7-4.5,1.2-6.6,0.5s-3.9-3-3.3-5.2
				c0.4-1.2,1.4-2.2,2.4-3c3.8-3.3,7.6-6.6,11.3-9.9c1.3-1.2,2.7-2.4,3.4-4c2.2-4.8-2.4-10.2-7.2-11.9c-6.7-2.4-14.7-0.7-19.9,4.3
				C481.1,305.3,482.8,326.2,471.8,335.1z"/>
		</g>
	</g>
</g>
<path class="st3" d="M172.9,438.2c-2.6-0.9-5.7-1.2-7.7,0.6c-1.1,0.9-1.7,2.3-2.5,3.5c-3,3.9-9.8,3.8-12.8-0.2s-1.4-10.6,3.1-12.5
	c4.4-1.9,10.2,0.3,14-2.7c5-3.9,3.1-14,9.1-15.9c2.1-0.7,4.4,0.1,6.4,1c12.5,5.4,23.4,14.8,30.5,26.6c2.1,3.4,3.8,8.1,1.3,11.1
	c-1.8,2.3-5.4,2.6-8.1,1.5c-2.8-1.1-4.9-3.3-7-5.5c-2.2-2.3-4.4-4.5-6.6-6.8c-1.5,2-0.3,4.8,0.9,7c5.6,9.7,11.6,19.1,18.1,28.2
	c2.2,3.1,4.5,6.2,5.3,9.9c0.8,3.7-0.3,8-3.6,9.8c-3.8,2-8.8-0.5-11.4-4.1c-2.6-3.6-3.5-8.1-5.3-12.2s-4.8-8.1-9.1-8.9
	c-0.9,19.7,19.4,36.4,17,56c-0.5,4.1-2.7,8.6-6.7,9.5c-3.5,0.8-7.1-1.6-8.9-4.7c-1.8-3.1-2.1-6.9-2.2-10.5
	c-0.1-7.9,0.2-17.2-6.2-21.8c-3.6,1.4-5.9,5.4-5.5,9.3s3,8.5,0.3,11.3c-0.7,0.7-1.7,1.2-2.7,1.5c-4.5,1.6-9.7,1.9-13.7-0.8
	c-5.7-3.8-6.3-12.7-2.6-18.4c2.4-3.7,6.2-6.3,9.1-9.6c4.6-5.1,7.2-11.7,9.5-18.2c0.5-1.5,1-3,0.7-4.5c-0.7-3.6-5.7-4.9-8.8-3.1
	s-4.7,5.4-5.8,8.9c-1,3.2-2.1,6.9-5.2,8.2c-3.3,1.3-7.1-1.2-8.5-4.6c-1.3-3.3-0.8-7.1,0.1-10.5c0.9-3.3,2.2-6.8,5.2-8.4
	c1.8-1,4-1.1,6.1-1.3c6.1-0.7,11.9-2.8,17-6.2c1.7-1.1,3.4-2.5,4.1-4.4c0.7-1.9-0.2-4.5-2.2-5C177.7,441.4,175.5,439.1,172.9,438.2z
	"/>
<g>
	<g>
		<defs>
			<polygon id="SVGID_22_" points="613.4,338.7 636.2,371.1 580.2,412 557.4,379.6 			"/>
		</defs>
		<clipPath id="SVGID_23_">
			<use xlink:href="#SVGID_22_"  style="overflow:visible;"/>
		</clipPath>
		<g class="st22">
			<path class="st16" d="M572.3,385.9c-0.8-2.6-2.6-5-5.2-5.7c-2.6-0.6-5.7,1.4-5.5,4.1c0.1,1.1,0.6,2,1.2,2.9
				c4.6,7.2,11.8,12.6,19.9,15c2.2,0.7,5.1,0.9,6.5-1s0.2-4.7-1.7-6.1s-4.2-1.8-6.4-2.7c-0.6-0.3-1.3-0.6-1.6-1.3
				c-0.4-0.9,0.1-2.1,1-2.6c0.8-0.5,1.9-0.6,2.9-0.5c6.8,0.4,12.8,5.3,19.6,5.5c1.8,0.1,4-0.6,4.4-2.3c0.5-2.3-2.2-3.8-4.4-4.4
				c-3.6-1.1-7.2-2.2-10.9-3.3c-1.3-0.4-2.9-1.4-2.3-2.6c0.2-0.3,0.4-0.5,0.7-0.7c3.1-2.1,7.2-1.8,10.8-0.8s7,2.8,10.7,3.4
				c3,0.5,6.1,0.2,8.9-0.9c0.7-0.2,1.3-0.6,1.7-1.1c0.5-0.7,0.5-1.7,0.2-2.5c-1.1-3.2-5.1-4.2-8.4-4.2c-3.3,0.1-7,0.7-9.8-1.1
				c2.9-2.6,6.9-3.6,10.7-3.7c3.8-0.2,7.7,0.4,11.5,0.4c1.8,0,4-0.4,4.7-2.1c0.2-0.5,0.2-1.1,0.1-1.7c-0.7-2.9-4.4-3.9-7.3-3.6
				c-3,0.3-6.2,1.1-8.7-0.4c0.9-4.1,6.8-6.1,6.3-10.3c-0.4-3.2-4.6-4.4-7.5-3.1c-2.8,1.4-4.6,4.3-6.3,6.9
				c-3.2,4.8-7.1,9.2-11.5,12.9c-1,0.8-2.6,1.5-3.2,0.4c-0.2-0.4-0.2-0.9-0.1-1.3c0.6-2.2,2.4-3.7,3.6-5.6c1.2-1.9,1.3-5-0.7-5.8
				c-1-0.4-2.1-0.1-3.1,0.3c-3,1.5-4.7,4.7-5.7,7.9c-1.1,3.2-1.6,6.5-3.2,9.5c-0.7,1.3-2.1,2.6-3.3,1.8c-1.1-0.7-0.6-2.4-0.1-3.6
				c0.5-1.3,1-2.7,0.9-4.1s-1.1-2.9-2.5-3.1c-0.7-0.1-1.4,0.1-2,0.4c-3,1.6-3.7,5.8-3.3,9.2c0.3,3.5,1.2,7.1-0.2,10.3L572.3,385.9z"
				/>
		</g>
	</g>
</g>
<path class="st8" d="M118.6,430.6c-1.2-3.7,0.7-10.4-0.8-10.5c-1-0.1-6.1,2.8-8.4,1.9c-6.7,0.7-11.2-6-14.6-8.1c-0.5,0-1,0-1.3,0.4
	c-0.4,0.5-0.2,1.1-0.2,1.7c-0.1,1.3-1.6,2.3-2.8,1.7c-1.9,1.2-1.4,4.5,0.3,6c1.8,1.5,4.3,1.6,6.6,1.7c2.3,0.1,4.8,0.1,6.6,1.5
	c0.3,0.2,0.6,0.5,0.7,0.9c0.2,0.6-0.4,1.2-0.9,1.6c-1.5,1.1-3.4,1.7-5.3,1.5c-1.4-0.1-2.8-0.6-4.2-1.1c-5.7-2.1-11.4-4.3-17.1-6.5
	c-0.9-0.3-1.8-0.7-2.7-0.4c-0.7,0.2-1.3,0.7-1.8,1.2c-1.5,1.6-2.6,3.7-2.4,5.8c0.4,3,3.3,5,6.2,5.5c2.9,0.5,5.8-0.2,8.7-0.7
	c4.4-0.7,8.9-0.9,13.4-0.4c-5,2.7-9.4,6.7-14.8,8c-5.9,1.4-12-0.7-17.7-2.7c-1.2-0.4-2.8-0.8-3.6,0.2c-0.6,0.7-0.4,1.9,0.1,2.7
	c0.6,0.8,1.4,1.3,2.3,1.7c-0.6,1.7-1,3.4-1.3,5.1c-0.1,0.9-0.2,1.9,0.4,2.5c0.8,0.9,2.2,0.4,3.3-0.1c6.7-3.2,13.8-5.3,21.1-6.4
	c-5.4,5.4-10.6,10.9-15.5,16.7c-0.4,0.5-0.9,1.1-0.7,1.8c0.2,0.8,1.3,0.9,2,0.7c0.8-0.2,1.6-0.6,2.3-0.3c1.2,0.3,1.5,1.9,1.7,3.1
	c4.5-1.2,6.8-6,9-10.2c3.4-6.4,7.9-12.1,13.2-17c0.5-0.5,1.3-0.9,1.8-0.4c0.4,0.4,0.2,1,0,1.5c-1.3,3.2-2.8,6.4-4.7,9.3
	c-2.4,3.8-5.3,7.4-5.8,11.9c-0.1,0.9,0,2,0.7,2.5c1.1,0.8,2.6-0.4,3.3-1.5c0.7-1.2,1.5-2.6,2.9-2.7c0.8,0,1.5,0.5,2.3,0.5
	c1.5,0.1,2.7-1.2,3.4-2.5c4.6-7.8,3-18.2,7.2-26.2c1,1.4,0.7,3.3,0.4,5c-0.6,3.7-1.3,7.4-1.9,11.1c-0.1,0.8-0.2,1.7,0.4,2.2
	c1.3,1.2,3-1.6,4.8-1.4c1.4,0.1,2.1,2.1,3.5,2.1c1.2,0,1.8-1.4,2.1-2.6C122.3,441.7,120.3,436.2,118.6,430.6z"/>
<path class="st18" d="M275,395c13.2-15.6,8.1-45.2-2-64.7c-2.7-5.3-6.8-10.3-12.4-11.8s-12.7,2.2-13,8.1c-0.1,1.6,0.3,3.1,0.5,4.7
	c0.4,3.1,0.3,6.2,0.1,9.3c-0.5,8.4-1,16.7-1.5,25.1c-0.2,3.1-0.6,6.6-3.1,8.3c-3.6,2.5-8.7-1-10-5.2c-1.3-4.3-0.3-8.8-0.2-13.3
	c0.1-6.7-1.9-13.3-3.9-19.7c-5.3-16.7-10.5-33.4-15.8-50.2c-1.9-6.1-4.1-12.5-9-16.4c-5-3.9-13.6-3.3-15.9,2.6c-0.7,1.9-0.8,4-0.7,6
	c0.5,18.6,4.7,37.2,12.4,54.1c3.5,7.8,7.8,15.5,8.9,24c0.4,2.9-0.3,6.8-3.1,7.4c-1.4,0.3-2.8-0.4-4-1.2c-7.2-4.8-11-13.4-14.3-21.5
	c-6.4-15.3-12.8-30.6-19.2-46c-2.9-6.9-5.9-14-10.7-19.7s-11.9-9.9-19.3-9.4c-1.6,0.1-3.2,0.5-4.3,1.6c-1.4,1.4-1.6,3.7-1.5,5.8
	c0.3,6.2,2.9,12,5.6,17.6c16.8,34.7,41.5,65.2,71.7,88.6c-6.6-0.3-13.2-0.2-19.8,0.2c-3.4,0.2-8.1,2.6-6.5,5.7
	c0.5,0.9,1.4,1.5,2.3,1.9c10.3,4.8,23.1-0.5,33.4,4.3c1.8,0.8,3.6,2.5,3.1,4.4c-0.3,1-1.2,1.6-2,2.2c-3.6,2.6-6.7,5.9-9.2,9.6
	c-1.6,2.3-2.8,5.6-1.1,7.8c1.3,1.6,3.5,1.7,5.5,1.7c19.5,0.1,47.4-7.7,59.5-22.3C275.1,394.9,274.9,395.1,275,395z"/>
<g>
	<g>
		<defs>
			<polygon id="SVGID_24_" points="490.2,351.9 452.7,494.3 311.8,455.9 349.3,313.5 			"/>
		</defs>
		<clipPath id="SVGID_25_">
			<use xlink:href="#SVGID_24_"  style="overflow:visible;"/>
		</clipPath>
		<g class="st23">
			<path class="st12" d="M461.8,431.9c-16.3,0.5-28.7-19.5-44.9-16.7c3.1,6.9,8.1,12.7,14.3,16.5c3.9,2.4,8.3,3.9,11.7,7.1
				c3.4,3.2,5.6,8.7,3.4,13.1c-2.3,4.7-8.5,5.8-12.9,3.8s-7.7-6.1-11-9.8c-4.8-5.3-10.2-10-16.1-13.9c-3.3-2.2-7.7-4.1-11-1.6
				c-4.3,3.3-2.4,10.3-1,15.6c1.7,6.2,2.2,13,1.4,19.5c-0.3,2.8-1,5.7-2.7,7.8c-3.9,4.8-11.6,2.9-14.8-2.2
				c-3.2-5.1-3.2-11.8-2.6-18.1c0.4-4.9,1.1-10-0.6-14.4s-6.7-7.7-10.7-5.4c-5.9,3.4-3.5,13.3-6.7,19.7c-2.7,5.5-9.3,7.6-14.9,6.7
				c-7.7-1.2-14.5-6.9-17.9-14.4c-3.4-7.6-3.4-16.8-0.6-24.9c0.4-1,0.8-2.1,1.5-2.8c0.6-0.6,1.4-1,2.2-1.2c4.2-1.2,8.4,1,12.5,2.4
				s9.4,1.5,11.9-2.4c2-3.1,1.3-7.5-0.6-10.5s-4.8-5.2-7.2-7.7c-6.8-7-10.5-17.5-9.7-27.8c0.2-2.3,0.7-4.9,2.6-6.1
				c2.8-1.6,5.8,1.1,7.7,3.6c8.2,10.9,15.2,23,20.6,35.9c2.3,5.4,5.8,12,11.3,11.1c4.7-0.7,7.5-6.8,6.8-11.9s-3.8-9.1-6.7-13.1
				c-3.7-5-7.2-10.2-9.2-16.2s-2.2-13.1,0.6-18.9c2.8-5.8,9.2-9.9,14.9-8.5c8,2,11,12.5,11.1,21.5s-1.1,18.8,3.4,26.1
				c1.1,1.9,3,3.6,5,3.1c0.7-0.2,1.3-0.6,1.9-1.1c6.4-5.4,7.7-15.3,7.7-24s-0.5-18,3.8-25.5c5.4-9.4,18.3-12.5,26.3-6.3
				s9.4,20.4,2.8,28.8c-3.3,4.2-7.9,6.8-11.5,10.8c-3.3,3.6-5.6,8.4-6.3,13.4c-0.2,1-0.2,2,0.1,2.9c0.3,0.7,0.9,1.2,1.5,1.6
				c5.4,3.9,11.9,6,18.5,5.8c3.1-0.1,6.3-0.6,9.3-0.3c6.5,0.8,12.3,6,14.1,12.8c1.1,4.1,0.7,8.9-1.8,12.4
				C466.8,431.7,461.8,431.9,461.8,431.9z"/>
		</g>
	</g>
</g>
<path class="st24" d="M546.1,469.9c3.6-0.5,7.3,0.5,10.8,1.4c3,0.8,6,1.6,8.7,3c3.4,1.7,6.3,4.1,9.1,6.8c1.1,1.1,2.3,2.5,2,4
	c-0.2,1.1-1.2,1.9-2.2,2.3s-2.1,0.4-3.2,0.4c-2.9,0-5.8,0-8.7,0c1.6,3.2,3.3,6.4,5.9,8.9c5.1,4.8,12.7,6.2,17.6,11.2
	c0.5,0.5,0.9,0.9,1.1,1.5c0.9,1.9-0.3,4.3-2.2,5.2c-1.8,0.9-4.1,0.7-5.9-0.1c-6.4-2.8-9.6-11.1-16.4-12.5c3.3,9.9,12.3,16.4,19.3,24
	c1.6,1.7,3.2,3.7,3.7,6c0.4,1.7,0,3.8-1.5,4.6c-1,0.5-2.2,0.2-3.3-0.2c-2.7-0.9-5.2-2.1-7.4-3.9c-2.3-2-3.9-4.6-5.6-7
	c-3.1-4.5-6.7-8.6-10.5-12.4c0.6,6.5,2.7,12.9,6.1,18.4c0.8,1.3,1.8,2.7,1.9,4.3c0.1,1.8-0.9,3.5-2.5,4.3c-1.6,0.7-3.6,0.4-4.8-0.8
	c-1.9-1.9-1.6-5.1-1.7-7.9c-0.1-2.6-0.7-5.2-1.3-7.8c-1-4.5-2-9-3-13.5c-0.1-0.6-0.3-1.2-0.7-1.7s-1.2-0.7-1.6-0.3
	c-0.3,0.2-0.4,0.5-0.5,0.8c-0.9,2.2-1.6,4.8-0.6,6.9c0.4,0.8,1.1,1.6,1,2.6c-0.1,1.1-1.2,1.8-2.3,1.9c-1.1,0-2-0.5-2.9-1.1
	c-1.8-1.2-3.4-2.7-4.3-4.6c-0.9-2-1-4.4,0.1-6.2c0.8-1.3,2.1-2.1,3.1-3.2c1.1-1,2-2.4,1.8-3.9c-0.1-0.7-0.4-1.5,0-2s1.3-0.3,1.9-0.1
	c1.6,0.6,3.1,1.1,4.7,1.7c0.5-3-1.9-5.6-4.2-7.5c-0.5-0.4-1-0.8-1.6-0.9c-0.7-0.1-1.4,0.4-1.9,0.8c-1.3,0.9-2.7,1.9-4.3,2
	s-3.4-1.2-3.2-2.8c0.1-1,0.9-1.8,1.7-2.5c4.9-4.9,7.7-12,7.5-19L546.1,469.9z"/>
<path class="st25" d="M170.9,399c-4.6,8.7-10.4,16.7-17,23.7c-3.2,3.4-6.8,6.6-11.5,7.3c-4.7,0.7-10.7-2.3-12-7.3
	c-1.2-4.5,1.6-8.5,4.8-11.1s7.1-4.6,9.2-8.2c0.8-1.5,1.2-3.7-0.3-4.9c-1.5-1.3-3.6-0.2-4.9,0.9c-8.9,7.2-17.5,14.9-25.6,23
	c-2.6,2.6-6.4,5.3-9.9,3.1c-2.4-1.6-3.2-5.1-2.4-7.7c0.8-2.6,2.8-4.4,4.7-6.2c5.3-4.9,10.6-9.8,15.9-14.7c-9.9-0.1-19.6,2.6-26.5,9
	c-5.2,4.7-10,15.6-17.4,14.4c-3.4,0.6-7.3-2.8-9.1-5.2c-2.1-2.9-2.2-6.7-1-9.7c1.2-2.9,3.6-5.1,6.1-6.9c5.9-4.3,12.9-7.2,20.4-8.4
	c-6.7-3.3-14.1-2-20.4,0.4s-12.1,5.9-18.9,7.1c-8.4,1.5-17.9-0.8-25.6-6.3c-1.3-0.9-2.6-2-3.4-3.4c-1.6-3-0.4-6.6,1.9-8.3
	c2.3-1.8,5.6-2.1,8.7-2.1c6.4,0,13.1,1.1,19.4,3.3c4.8,1.6,10.5,3.7,13.8,0.5c-3.2-2.6-6.9-4.3-10.3-6.6c-3.4-2.3-6.7-5.4-7.9-9.2
	c-1.3-3.9,0.3-8.5,4-9.2c4.2-0.7,8,3.5,11.2,7.1c9.7,11.1,24.1,20.4,36.7,17c-0.5-7.5-13.5-9.2-15.5-16.7c-1.4-5.3,4.6-9.1,9.7-7.5
	c5.1,1.5,8.9,6.3,12.1,11c3.8,5.6,7.4,11.7,12.9,15.5c2.3,1.6,5.1,2.8,7.7,2.6c2.6-0.3,4.8-2.4,4.7-5.1c-0.2-2.5-2.1-4.7-3.6-6.9
	c-1.8-2.8-2.9-6.1-2.4-9.1s2.8-5.5,5.8-5.5c4.5,0,7.9,4.9,10.3,9.1c3.7,6.5,7.4,12.9,11.2,19.4C156.3,386.5,164.6,395.2,170.9,399z"
	/>
<g>
	<g>
		<defs>
			<polygon id="SVGID_26_" points="615.2,499.6 672.9,438.1 607,375.1 549.2,436.6 			"/>
		</defs>
		<clipPath id="SVGID_27_">
			<use xlink:href="#SVGID_26_"  style="overflow:visible;"/>
		</clipPath>
		<g class="st26">
			<path class="st8" d="M587,439c-2,0.9-3.5,2.8-4.1,4.9c-0.6,2.3-0.1,4.7-0.5,7c-0.9,4.2-5.4,7.3-9.6,6.5c-4.3-0.8-7.5-5.4-6.8-9.7
				c0.4-2.6,2-4.8,2.9-7.2c1.2-3.2,1-6.8,0.9-10.2c-0.2-4.1-0.7-8.8-4.2-11c4-2.5,8.1-5,12.1-7.5c1.8-1.1,3.5-2.2,5.5-2.9
				c1.8-0.7,3.6-1,5.5-1.3c2.9-0.4,6-0.7,8.9,0s5.8,2.4,7.2,5.1c2.2,4.2-0.3,10.1-4.8,11.3c-1.7,0.5-3.6,0.3-5.3,1s-3,2.6-2.1,4.2
				c0.8,1.4,2.7,1.5,4.3,1.5c3.8-0.1,7.8-0.3,11.1-2.3c1.5-0.9,2.8-2.2,4.2-3.3c4-3.5,8.7-6.2,13.2-8.9c1.1-0.6,2.2-1.3,3.5-1.5
				c1.6-0.3,3.3,0,4.7,0.7c3,1.5,5.3,4.5,5.9,7.8c0.6,3.3-0.6,6.8-2.9,9.1c-2.7,2.6-6.7,3.4-10.3,4.4c-3.7,1-7.5,2.5-9.4,5.8
				c5.9,2.8,12.9,3.2,18.9,0.9c8.2-3.1,14.1-10.4,22.3-13.4c1.9-0.7,4.2-1.1,6-0.1c1.6,0.9,2.5,2.7,3,4.5c1.7,6.3-1.2,13.4-6.7,16.6
				c-6.2,3.6-14.2,2.1-21.2,3.9c-0.3,3.3,2.7,6.2,2.9,9.6c0.1,4.1-3.9,6.7-7.4,8.6c-0.5,0.3-1.1,0.6-1.7,0.6c-0.8,0-1.5-0.6-2.1-1.1
				c-1.7-1.5-3.5-3-4.5-5c-0.8-1.4-1.2-3-1.7-4.5c-2.4-6.9-7.9-12.7-14.6-15.4c-2.1-0.8-4.9-1.2-6,0.7c-1.1,1.8,0.3,4.2,2,5.6
				c1.7,1.3,3.8,2.4,4.7,4.4c1.2,2.8-0.6,5.9-2.7,7.9c-2.3,2.2-5.4,4-8.7,3.6c-2.9-0.3-5.4-2.2-7.4-4.4c-1.6-1.7-3.1-3.7-3.3-6
				c-0.1-1.5,0.4-3,0.8-4.4c1-3.7,1.3-7.7,0.9-11.6C589.9,441.9,587,439,587,439z"/>
		</g>
	</g>
</g>
<g>
	<g>
		<defs>
			<polygon id="SVGID_28_" points="598.2,29.2 680,49.7 658.6,138.4 576.7,117.9 			"/>
		</defs>
		<clipPath id="SVGID_29_">
			<use xlink:href="#SVGID_28_"  style="overflow:visible;"/>
		</clipPath>
		<g class="st27">
			<path class="st8" d="M607.2,95.5c-2.2,0.3-4.5-0.4-6.1-2c-1.7-1.6-2.6-4-4.2-5.6c-3-3.1-8.5-3.2-11.6-0.2s-3.4,8.6-0.5,11.9
				c1.7,1.9,4.3,2.9,6.3,4.5c2.7,2.1,4.5,5.1,6.2,8.1c2,3.5,4.2,7.8,2.4,11.5c4.7-0.1,9.5-0.1,14.2-0.2c2.1,0,4.2-0.1,6.2-0.5
				c1.8-0.4,3.6-1.1,5.3-1.9c2.7-1.2,5.4-2.7,7.5-4.8c2.1-2.2,3.5-5.1,3.3-8.2c-0.4-4.8-5.7-8.3-10.1-6.9c-1.7,0.5-3.2,1.7-5,2
				c-1.7,0.3-4-0.6-4.1-2.4c-0.1-1.6,1.5-2.8,2.8-3.6c3.3-1.9,6.8-3.9,10.5-4.1c1.8-0.1,3.6,0.3,5.3,0.6c5.3,0.7,10.6,0.5,16,0.3
				c1.3-0.1,2.5-0.1,3.7-0.6c1.5-0.6,2.7-1.8,3.6-3.2c1.8-2.9,2-6.6,0.7-9.7s-4.2-5.4-7.4-6.1c-3.7-0.7-7.4,0.7-11.1,1.9
				c-3.6,1.2-7.7,2-11,0.2c3.4-5.6,9.1-9.6,15.4-11c8.5-1.9,17.5,1.1,26.1-0.7c2-0.4,4.1-1.3,5.1-3.2c0.9-1.6,0.7-3.6,0.1-5.4
				c-2-6.2-8.3-10.7-14.7-10.3c-7.2,0.3-13.1,5.9-19.9,8.1c-2.1-2.6-1.1-6.7-2.8-9.6c-2.1-3.5-6.9-3.6-10.9-3.2
				c-0.6,0.1-1.3,0.1-1.8,0.5c-0.7,0.5-0.9,1.3-1.1,2.1c-0.6,2.2-1.3,4.4-1.1,6.7c0.1,1.6,0.6,3.1,1,4.7c1.7,7.1,0.2,14.9-4,20.8
				c-1.3,1.8-3.5,3.6-5.4,2.7s-2-3.7-1.3-5.8c0.7-2,1.9-4.1,1.5-6.2c-0.5-3-3.7-4.6-6.6-5.2c-3.2-0.6-6.7-0.4-9.3,1.6
				c-2.2,1.8-3.3,4.8-3.9,7.7c-0.5,2.3-0.6,4.8,0.5,6.8c0.7,1.3,2,2.3,3.1,3.3c2.9,2.6,5.3,5.8,7,9.3
				C608.1,91.4,607.2,95.5,607.2,95.5z"/>
		</g>
	</g>
</g>
<g>
	<g>
		<defs>
			
				<rect id="SVGID_30_" x="37" y="309.3" transform="matrix(0.923 -0.3849 0.3849 0.923 -123.5545 49.1131)" width="47.8" height="47.8"/>
		</defs>
		<clipPath id="SVGID_31_">
			<use xlink:href="#SVGID_30_"  style="overflow:visible;"/>
		</clipPath>
		<g class="st28">
			<path class="st21" d="M71.5,344.2c-0.6,0.8-1.4,1.3-2,2c-1.7,1.9-1.9,4.6-2,7c0,0.3,0,0.7,0.2,0.9c0.2,0.2,0.5,0.2,0.7,0.3
				c1.9,0.3,4,0.2,5.5-1c1-0.9,1.5-2.3,2.1-3.6c1.2-2.5,3-4.6,5.2-6.2c0.6-0.4,1.3-0.9,1.6-1.5c0.2-0.5,0.3-1,0.3-1.5
				c0-2.3-0.7-4.5-0.6-6.7c0-2.5,0.9-5,0.9-7.5s-1.4-5.4-3.9-5.8c-1-0.1-2,0.2-3,0.4c-2.4,0.7-5.1,1.7-6.1,4
				c-0.9,1.9-0.2,4.3,0.9,6.1c0.5,0.8,1.2,1.6,1.4,2.6c0.3,1,0,2.2-0.9,2.6c-1,0.5-2.2-0.1-3-0.8c-2.2-1.9-3.6-4.7-3.9-7.6
				c-0.2-1.8,0.1-3.7,0.1-5.5c-0.1-3-1-6-2.7-8.5c-0.1-0.2-0.3-0.4-0.5-0.6c-0.4-0.3-1-0.2-1.5-0.1c-1,0.2-2,0.4-2.8,0.9
				c-1.8,1.3-1.8,4.1-0.9,6.2c1,2,2.7,3.6,3.8,5.6c1.2,1.9,1.8,4.6,0.4,6.4c-2.9,0.1-4.9-2.9-6-5.6c-1-2.3-1.7-4.7-2.3-7.1
				c-0.3-1.3-0.6-2.7-1.4-3.7c-0.9-1.1-2.3-1.6-3.7-1.9c-0.7-0.2-1.4-0.3-2.1-0.1c-1.9,0.4-2.8,2.7-2.4,4.6c0.4,1.9,1.8,3.4,3.1,4.8
				c1.6,1.7,3.2,3.4,4.7,5.2c0.4,0.4,0.7,0.8,0.9,1.3c0.3,1.2-1,2.4-2.3,2.5s-2.5-0.5-3.6-1c-2.2-0.9-4.5-1.3-6.8-1.2
				c-1.4,0-2.9,0.3-3.6,1.4c-1.1,1.6,0.3,4,2.2,4.6s3.9,0.2,5.8,0c1.4-0.2,2.7-0.2,4.1-0.2c1.6,0.1,3.7,0.8,3.6,2.4
				c-0.1,1.3-1.5,1.9-2.7,2.3c-1.3,0.4-2.7,0.8-4,1.2c-1,0.3-2,0.6-2.8,1.2s-1.4,1.6-1.3,2.7c0.1,0.9,0.8,1.7,1.6,2.1
				c2.2,1.3,5.1,1,7.3-0.2c2.2-1.3,3.8-3.3,5.1-5.5c0.7-1.1,1.4-2.4,2.4-3.2c1.1-0.8,2.7-1.1,3.7-0.2c1,0.8,1.1,2.4,0.5,3.6
				c-0.5,1.2-1.5,2.1-2.4,3c-1,1-1.9,2.2-2.4,3.5s-0.5,2.9,0.3,4.1s2.4,1.9,3.8,1.5c1.6-0.4,2.8-1.9,3.4-3.4
				c0.6-1.6,0.8-3.2,1.2-4.8c0.4-1.6,1.2-3.2,2.6-4.1s3.5-0.7,4.4,0.7C71.7,342.6,72.1,343.5,71.5,344.2z"/>
		</g>
	</g>
</g>
<path class="st24" d="M48.8,223.7c-1.8,1.5-4.2,2.3-6.4,3c-1.9,0.6-3.8,1.2-5.8,1.4c-2.4,0.3-4.9-0.1-7.3-0.5
	c-1-0.2-2.1-0.5-2.5-1.5c-0.3-0.7,0-1.5,0.4-2c0.4-0.6,1-1,1.6-1.3c1.6-1,3.2-2,4.8-3c-2-1.2-4.1-2.4-6.3-2.8c-4.5-0.9-9.1,1-13.5,0
	c-0.4-0.1-0.8-0.2-1.2-0.4c-1.1-0.7-1.3-2.5-0.6-3.6c0.7-1.2,2-1.8,3.3-2c4.5-0.7,9.1,2.8,13.3,1.2c-5.2-4.3-12.4-4.7-18.9-6.4
	c-1.5-0.4-3-0.9-4.1-2c-0.8-0.8-1.4-2.1-0.8-3c0.4-0.6,1.2-0.9,1.9-1.1c1.8-0.4,3.6-0.7,5.4-0.4c1.9,0.3,3.7,1.1,5.5,1.9
	c3.3,1.4,6.6,2.4,10.1,3.1c-2.6-3.4-5.9-6.1-9.7-7.9c-0.9-0.4-1.9-0.9-2.5-1.7c-0.7-0.9-0.7-2.3-0.1-3.2c0.6-1,1.8-1.5,2.9-1.2
	c1.7,0.4,2.7,2.2,3.7,3.7c1,1.4,2.2,2.6,3.4,3.8c2.1,2.1,4.2,4.2,6.3,6.3c0.3,0.3,0.6,0.6,1,0.7c0.4,0.1,0.9,0,1-0.4
	c0.1-0.2,0-0.4,0-0.6c-0.3-1.5-0.8-3.2-2.1-4c-0.5-0.3-1.2-0.5-1.4-1.1c-0.3-0.6,0-1.4,0.6-1.8c0.6-0.4,1.3-0.4,2-0.4
	c1.4,0,2.8,0.3,4,1c1.2,0.8,2.1,2.1,2.1,3.5c0,1-0.4,1.9-0.6,2.8c-0.2,0.9-0.3,2,0.4,2.8c0.3,0.3,0.7,0.7,0.7,1.1
	c-0.1,0.4-0.6,0.6-1,0.7c-1.1,0.2-2.1,0.5-3.2,0.7c0.8,1.8,3,2.4,4.9,2.7c0.4,0.1,0.8,0.1,1.2,0c0.4-0.2,0.6-0.7,0.8-1.1
	c0.4-1,0.8-2,1.7-2.6c0.8-0.6,2.2-0.5,2.7,0.4c0.3,0.6,0.1,1.3,0,2c-1,4.4-0.1,9.3,2.5,13.1L48.8,223.7z"/>
<path class="st7" d="M260.2,375.5c12.1,5,17.3,21.5,29.8,25c-0.9-5.3-3.5-10.6-7.3-15c-2.4-2.7-5.4-5.2-7.3-8.2
	c-1.9-3.1-2.4-7.2,0.1-9.3c2.7-2.2,7.4-0.9,10.3,1.8c2.9,2.7,4.4,6.3,6.2,9.7c2.5,4.9,5.6,9.6,9.1,13.9c2,2.5,4.9,5.1,7.8,4.6
	c3.8-0.7,3.8-5.6,3.8-9.5c0-4.5,1-8.8,2.9-12.7c0.8-1.6,1.8-3.2,3.5-4c3.8-1.7,9.1,2,10.5,6.2s0,8.4-1.6,12.2
	c-1.3,2.9-2.7,5.9-2.4,9.2c0.4,3.3,3.4,7,6.8,6.8c5-0.2,5.2-7.2,8.8-10.2c3.1-2.6,8.4-1.7,12.3,0.6c5.5,3.2,9.3,9,10.3,14.8
	s-0.8,11.6-4.4,15.8c-0.5,0.5-1,1-1.7,1.3c-0.6,0.2-1.2,0.2-1.9,0c-3.3-0.6-6-3.4-8.7-5.5c-2.7-2.2-6.6-4-9.3-2.4
	c-2.1,1.3-2.4,4.3-1.6,6.8s2.5,4.8,3.8,7.2c3.6,6.6,4.3,14.3,1.7,20.6c-0.6,1.4-1.5,2.8-3.1,2.9c-2.4,0.1-4.1-2.5-5-4.8
	c-3.9-9.5-6.6-19.3-8.1-29.2c-0.6-4.1-1.9-9.4-6.2-10.7c-3.6-1.1-6.9,1.9-7.3,5.3c-0.5,3.4,1,7,2.4,10.4c1.7,4.3,3.3,8.7,3.6,13.1
	c0.3,4.4-0.9,8.9-4.2,11.6c-3.2,2.7-8.7,3.2-12.7,0.5c-5.5-3.9-5.6-11.4-3.9-17.1s4.5-11.4,2.7-17.5c-0.5-1.5-1.5-3.2-3.1-3.6
	c-0.5-0.1-1.1,0-1.6,0.1c-5.8,1.3-8.7,7.1-10.4,12.5c-1.7,5.4-3.2,11.5-7.8,14.8c-5.8,4.1-16,1.9-20.7-4.6
	c-4.7-6.5-2.9-15.8,3.7-18.9c3.2-1.6,7.2-1.7,10.6-3c3.2-1.2,5.8-3.5,7.3-6.3c0.3-0.6,0.6-1.2,0.5-1.9c-0.1-0.5-0.4-1-0.8-1.5
	c-3.2-4.2-7.6-7.6-12.5-9.6c-2.3-1-4.7-1.6-6.9-2.9c-4.7-2.6-7.9-7.7-7.9-12.6c0-2.9,1.2-5.8,3.7-7.2
	C256.5,374.1,260.2,375.5,260.2,375.5z"/>
</svg>
