<svg width="79" height="46" viewBox="0 0 79 46" fill="none" xmlns="http://www.w3.org/2000/svg">
<path d="M50.0611 18.9702C50.0611 29.4468 41.3905 37.9403 30.6953 37.9403C27.9378 37.9403 25.3146 37.375 22.9413 36.3577C22.932 33.8334 22.4089 29.7885 21.7084 27.5967C20.7208 24.5055 18.5836 21.7802 15.7906 20.0464C15.1055 19.6217 14.3478 19.2453 13.5377 19.2347C12.7276 19.2256 11.8635 19.6791 11.6443 20.4424C11.2138 21.9464 13.2692 22.9426 13.8803 24.3846C13.9636 24.5811 14.0176 24.8093 13.9235 25.0013C13.6781 25.5016 12.9004 25.1842 12.4884 24.8018C12.3804 24.702 12.2724 24.5992 12.1644 24.4965C11.6212 22.7491 11.3296 20.8929 11.3296 18.9702C11.3296 8.4935 20.0002 0 30.6953 0C41.3905 0 50.0611 8.4935 50.0611 18.9702Z" fill="#A9C1DD"/>
<path d="M54.3819 12.5461C56.7305 13.1281 61.7162 13.0812 62.5896 10.8683C63 9.82831 63.0386 8.68858 63.284 7.59874C63.5293 6.5089 64.0663 5.38128 65.0925 4.89909C65.81 4.56201 66.651 4.59677 67.4364 4.7177C67.8376 4.77967 68.2512 4.86734 68.5798 5.10012C69.3792 5.66545 69.3838 6.87924 68.9224 7.73478C68.461 8.58882 67.6632 9.21007 67.0043 9.92958C65.9072 11.1283 65.1758 12.6444 64.9289 14.236C64.8641 14.6502 64.9119 15.1959 65.3208 15.3198C65.435 15.3546 65.5569 15.347 65.6757 15.3319C67.0229 15.1702 68.1416 14.2708 69.1616 13.3941C70.1816 12.5174 71.2602 11.5878 72.5934 11.3429C73.9282 11.098 75.5561 11.8644 75.6781 13.1885C75.7784 14.2738 74.8679 15.2019 73.9035 15.7446C71.2417 17.2441 67.7959 17.0581 65.2823 18.7859C68.0614 19.3875 70.9577 19.4676 73.7662 19.0217C74.7769 18.8614 75.8046 18.6317 76.8153 18.7995C77.8245 18.9672 78.8321 19.6565 78.9803 20.6496C79.0404 21.0577 78.9525 21.4734 78.8584 21.8755C78.6763 22.6555 78.4232 23.4989 77.7473 23.9479C76.806 24.5736 75.5423 24.1504 74.4868 23.7377C72.2941 22.8822 70.0535 22.143 67.779 21.5263C67.0013 21.3162 65.8933 21.289 65.685 22.0523C68.4965 23.7665 71.9932 23.9962 74.996 25.3642C76.2829 25.9507 77.6331 27.0949 77.3477 28.4569C77.0576 29.8445 75.175 30.369 73.8171 29.8823C72.4592 29.3955 71.47 28.2694 70.3868 27.3323C69.2002 26.3059 67.8392 25.4715 66.3779 24.8744C66.2328 24.8155 66.0739 24.7581 65.9226 24.7974C65.6341 24.8729 65.5554 25.2735 65.702 25.529C65.8501 25.7844 66.1356 25.9265 66.4025 26.058C68.7079 27.1977 70.8451 28.6579 72.7709 30.3433C73.6103 31.0779 74.4467 31.9168 74.7059 32.99C74.9651 34.0633 74.3988 35.398 73.2924 35.6035C72.1413 35.8182 71.1707 34.8054 70.4562 33.8955C68.8684 31.873 67.2806 29.852 65.6927 27.8296C65.31 28.3027 65.6757 28.9814 66.0106 29.4877C67.3361 31.4906 68.191 34.0497 67.2667 36.2581C67.083 36.6964 66.7636 37.1559 66.2822 37.2073C65.6896 37.2708 65.2499 36.6949 64.9844 36.1734C63.7993 33.829 63.4876 31.1611 63.3102 28.5506C63.1327 25.9401 63.1636 22.7658 62.4044 20.2566C61.4677 17.1579 59.5173 15.3576 57.2906 15.0795C56.3863 14.9661 52.8897 15.0326 53.3002 14.6638L54.3819 12.5461Z" fill="#4185A8"/>
<path d="M22.9413 36.3578C17.7951 34.1539 13.817 29.8203 12.1644 24.4965C12.2724 24.5993 12.3804 24.7021 12.4884 24.8019C12.9004 25.1843 13.6781 25.5017 13.9235 25.0014C14.0176 24.8094 13.9636 24.5812 13.8803 24.3847C13.2692 22.9426 11.2138 21.9465 11.6443 20.4425C11.8635 19.6792 12.7276 19.2257 13.5377 19.2348C14.3478 19.2453 15.1055 19.6217 15.7906 20.0465C18.5836 21.7802 20.7208 24.5056 21.7084 27.5967C22.4089 29.7885 22.932 33.8335 22.9413 36.3578Z" fill="#ED6340"/>
<path d="M22.3612 38.7671C22.5865 37.898 18.2303 34.757 16.6533 34.0994C14.4297 33.1743 12.7477 33.3829 10.3529 33.0776C9.94394 33.0262 9.51033 32.9627 9.19863 32.6982C8.50578 32.1057 8.94556 30.8783 9.77111 30.4822C10.5982 30.0847 11.5781 30.257 12.4808 30.4369C10.5164 28.5792 7.70492 27.6163 4.98754 27.8703C4.13421 27.9504 3.27008 28.1423 2.43064 27.97C1.59274 27.7992 0.774902 27.1115 0.839712 26.274C0.919952 25.2628 2.10813 24.767 3.10497 24.4889C3.2315 23.8631 2.63895 23.3174 2.04641 23.0514C1.45386 22.7853 0.770273 22.6297 0.345923 22.1444C-0.292916 21.4083 0.0110725 20.1839 0.78416 19.5854C1.55879 18.9868 2.63278 18.9036 3.60647 19.0578C6.99973 19.5899 9.373 22.4392 11.8558 24.7988C13.5085 30.1225 17.4866 34.4562 22.6328 36.66C22.6374 37.6985 22.5541 38.4784 22.3612 38.7671Z" fill="#ED6340"/>
<path d="M30.2557 36.6616C30.2557 39.4837 29.3931 41.745 27.6664 43.447C25.9396 45.149 23.6482 46 20.7919 46C18.5976 46 16.7058 45.4408 15.118 44.3207C13.5286 43.2006 12.3805 41.6331 11.6722 39.6182L14.9637 38.3424C15.5346 39.8207 16.3123 40.9287 17.2953 41.6679C18.2782 42.407 19.4556 42.7759 20.8274 42.7759C22.5649 42.7759 23.9707 42.2105 25.0447 41.0799C26.1186 39.9492 26.6556 38.4543 26.6556 36.5966V12.7471H30.2557V36.6616Z" fill="#2B2A2E"/>
<path d="M31.6599 12.8921H36.1241L53.0255 34.9232V12.8921H57.3153V42.6065H53.328L35.9497 19.8544V42.608H31.6599V12.8921Z" fill="#2B2A2E"/>
</svg>
