<svg width="725" height="681" viewBox="0 0 725 681" fill="none" xmlns="http://www.w3.org/2000/svg">
<path d="M537.038 170.616C553.703 172.818 588.166 168.83 592.627 153.239C594.723 145.912 594.176 138.185 595.094 130.642C596.013 123.1 598.922 115.088 605.677 111.075C610.401 108.27 616.245 107.885 621.765 108.124C624.586 108.247 627.51 108.534 629.95 109.865C635.885 113.095 636.784 121.29 634.203 127.409C631.622 133.518 626.546 138.302 622.501 143.647C615.767 152.552 611.79 163.332 611.22 174.265C611.067 177.11 611.788 180.761 614.706 181.297C615.521 181.448 616.359 181.307 617.17 181.117C626.375 179.033 633.473 172.134 639.904 165.461C646.334 158.788 653.133 151.714 662.182 149.078C671.242 146.441 683.054 150.419 684.844 159.274C686.313 166.531 680.678 173.471 674.393 177.846C657.047 189.935 633.074 191.216 616.917 204.738C636.575 206.755 656.672 205.164 675.785 200.083C682.663 198.257 689.61 195.948 696.723 196.337C703.836 196.726 711.29 200.641 713.025 207.241C713.733 209.953 713.421 212.826 713.057 215.611C712.355 221.014 711.207 226.897 706.852 230.428C700.786 235.348 691.74 233.419 684.142 231.409C668.359 227.245 652.328 223.902 636.15 221.411C630.619 220.564 622.934 221.196 622.038 226.506C642.716 236.014 667.073 234.991 688.828 242.021C698.151 245.035 708.311 251.77 707.309 261.179C706.294 270.766 693.644 275.696 683.9 273.408C674.157 271.12 666.509 264.241 658.344 258.709C649.4 252.65 639.387 248.016 628.849 245.059C627.804 244.767 626.663 244.496 625.645 244.873C623.702 245.596 623.444 248.36 624.641 249.977C625.848 251.594 627.925 252.344 629.866 253.035C646.631 259.036 662.462 267.326 676.991 277.292C683.324 281.636 689.711 286.687 692.271 293.746C694.832 300.804 691.868 310.237 684.36 312.44C676.549 314.738 669.109 308.612 663.516 302.991C651.084 290.499 638.653 278.017 626.221 265.525C623.912 269.002 626.927 273.317 629.606 276.491C640.209 289.044 647.953 305.701 643.136 321.299C642.179 324.395 640.297 327.734 637.003 328.436C632.948 329.301 629.494 325.735 627.285 322.407C617.409 307.444 613.346 289.652 610.252 272.149C607.158 254.647 605.103 233.182 598.056 216.792C589.361 196.55 574.579 185.826 558.974 185.587C552.636 185.487 540 182.984 542.576 180.19L537.038 170.616Z" fill="#A9BFDE"/>
<path d="M115.114 351.964C113.523 355.316 110.761 358.574 107.084 358.786C105.154 358.893 103.264 358.141 101.328 357.875C94.7076 357.043 88.2738 363.593 89.1578 370.325C90.0417 377.057 97.9594 381.818 104.148 379.358C110.218 376.954 113.671 369.343 120.145 368.551C128.638 367.512 136.548 379.048 144.12 375.076C146.774 373.685 148.198 370.736 149.32 367.937C156.176 350.745 157.53 331.286 153.082 313.183C151.78 307.91 148.984 301.826 143.656 301.219C139.673 300.771 136.026 303.867 134.449 307.573C132.872 311.28 132.923 315.47 132.999 319.511C133.079 323.785 133.159 328.059 133.238 332.332C129.882 331.917 128.281 327.999 127.38 324.683C123.43 310.021 120.194 295.157 117.73 280.167C116.911 275.133 116.088 269.913 113.359 265.62C110.629 261.327 105.36 258.181 100.563 259.643C94.905 261.371 92.5759 268.546 93.5848 274.484C94.5936 280.422 97.9555 285.653 100.182 291.246C102.409 296.84 103.387 303.665 99.9241 308.495C80.1758 290.462 83.6275 254.852 62.5077 238.451C58.034 234.983 51.6387 232.713 46.9041 235.732C42.8339 238.318 41.5946 244.066 42.8966 248.807C44.1985 253.549 47.4831 257.446 50.881 260.959C58.2945 268.616 67.5834 277.297 65.8803 287.836C61.0649 289.867 54.9943 288.313 51.6235 284.211C48.243 280.082 46.3803 273.142 41.0978 273.067C39.6896 273.039 38.3463 273.599 37.0683 274.215C31.2993 276.999 25.9209 281.712 24.6827 288.085C22.8919 297.216 30.807 306.279 39.8189 308.204C45.7098 309.46 51.7826 308.354 57.7775 308.667C67.1061 309.153 75.938 313.002 84.3695 317.115C86.2709 318.035 88.2383 319.057 89.399 320.813C92.1355 324.947 88.6001 330.945 83.8733 332.21C79.1561 333.502 74.1737 331.54 69.8112 329.237C65.7739 327.118 61.0953 324.613 56.9483 326.443C52.5817 328.349 51.3114 334.452 53.1979 338.928C55.0843 343.404 59.2016 346.464 63.3452 348.89C67.3218 351.233 72.0016 353.254 76.3686 351.926C79.0694 351.114 81.2451 349.139 83.4609 347.369C89.9549 342.237 97.6243 338.637 105.703 336.976C108.399 336.416 111.347 336.097 113.833 337.33C116.319 338.563 117.985 341.911 116.552 344.301C116.643 344.254 116.706 348.612 115.114 351.964Z" fill="#A1A59F"/>
<path d="M542.241 172.226C547.147 178.978 557.753 183.482 565.885 188.536C568.058 189.894 570.423 191.265 572.99 191.192C576.799 191.085 579.937 187.6 580.561 183.843C581.185 180.086 579.721 176.228 577.535 173.108C575.349 169.989 572.472 167.442 569.796 164.737C568.102 163.019 566.589 159.853 568.63 158.555C569.255 158.154 570.051 158.118 570.796 158.177C574.285 158.435 577.425 160.376 580.166 162.553C589.638 170.052 596.561 181.007 607.537 186.039C611.661 187.921 617.03 188.657 620.319 185.522C622.982 182.984 623.264 178.669 621.964 175.22C620.664 171.771 618.093 168.994 615.585 166.309C613.325 163.888 611.025 161.437 608.264 159.613C601.813 155.366 593.288 154.848 587.372 149.884C586.433 149.089 585.505 148.054 585.542 146.82C585.592 144.841 587.963 143.799 589.933 143.672C595.427 143.316 600.579 146.125 605.256 149.03C611.942 153.183 618.428 157.735 625.606 160.98C632.784 164.224 640.82 166.122 648.555 164.62C649.518 164.432 650.531 164.161 651.234 163.464C651.996 162.698 652.23 161.569 652.328 160.496C653.13 152.186 647.696 144.278 640.69 139.813C633.684 135.348 625.31 133.662 617.122 132.207C613.022 131.478 608.621 130.647 605.749 127.641C606.918 125.56 609.811 125.455 612.18 125.643C626.948 126.818 641.628 129.069 656.073 132.39C660.518 133.413 665.634 134.4 669.266 131.64C672.989 128.816 673.286 122.895 670.731 118.994C668.176 115.094 663.514 113.03 658.903 112.401C654.292 111.773 649.609 112.384 644.956 112.713C640.303 113.042 635.503 113.056 631.176 111.342C630.238 110.972 629.263 110.434 628.901 109.493C628.395 108.158 629.458 106.643 630.783 106.109C632.108 105.574 633.592 105.724 635.006 105.814C639.975 106.119 645.158 105.406 649.396 102.77C653.634 100.134 656.732 95.3319 656.395 90.35C656.325 89.2566 656.092 88.1788 655.663 87.168C653.474 82.0481 646.665 80.3781 641.334 82.006C636.003 83.6339 631.805 87.645 627.65 91.3653C626.509 92.3827 625.234 93.444 623.716 93.5407C622.198 93.6373 620.53 92.2119 621.01 90.7497C621.279 89.9263 622.081 89.4321 622.818 88.9831C627.374 86.1765 631.431 82.5528 634.748 78.3547C635.542 77.3532 636.305 76.277 636.56 75.0372C637.23 71.8289 634.094 68.8313 630.848 68.4338C627.6 68.0475 624.433 69.4921 621.536 71.0215C616.889 73.455 612.256 76.3048 609.22 80.5898C604.529 87.233 604.529 95.968 604.516 104.103C604.515 106.919 604.468 109.795 603.472 112.425C602.475 115.055 600.292 117.419 597.523 117.834C596.946 117.922 596.352 117.915 595.823 117.679C594.667 117.13 594.339 115.644 594.315 114.364C594.167 106.417 600.128 98.6196 597.651 91.0669C597.134 89.488 596.202 87.9814 594.778 87.1529C592.313 85.7055 588.95 86.7231 587.049 88.8632C585.148 91.0033 584.443 93.9751 584.294 96.8438C583.989 102.568 585.559 108.239 585.699 113.966C585.84 119.693 584.098 126.115 579.132 128.972C578.169 129.528 577.052 129.93 575.958 129.715C574.294 129.37 573.223 127.631 573.083 125.938C572.942 124.245 573.517 122.582 574.07 120.973C575.524 116.761 576.907 112.249 575.862 107.928C574.817 103.607 570.365 99.8132 566.121 101.138C563.687 101.903 561.944 104.118 560.942 106.472C557.135 115.36 561.934 125.31 563.372 134.865C563.796 137.737 563.706 141.145 561.417 142.914C559.018 144.778 555.312 143.72 553.256 141.498C551.188 139.274 550.316 136.227 549.369 133.338C548.306 130.094 547.005 126.829 544.665 124.348C542.336 121.868 538.748 120.304 535.473 121.223C531.98 122.205 529.624 125.857 529.493 129.488C529.36 133.13 530.719 137.061 533.575 139.293C543.916 147.345 537.235 165.341 542.241 172.226Z" fill="#3A5751"/>
<path d="M219.618 542.553C211.944 540.659 202.427 530.349 200.549 532.851C199.364 534.429 198.828 546.522 194.801 549.701C188.76 562.11 172.368 563.047 165.022 566.608C164.488 567.378 164.016 568.332 164.329 569.211C164.724 570.318 166.081 570.658 167.053 571.316C169.252 572.811 169.188 576.621 166.939 578.053C167.001 582.779 173.168 585.4 177.624 583.791C182.079 582.182 185.011 578.002 187.593 574.026C190.179 570.056 192.976 565.825 197.35 564.002C198.049 563.709 198.834 563.488 199.557 563.714C200.826 564.115 201.287 565.661 201.385 566.99C201.683 570.844 200.552 574.789 198.257 577.909C196.49 580.318 194.103 582.188 191.748 584.032C181.863 591.773 171.975 599.509 162.085 607.253C160.56 608.445 158.951 609.751 158.361 611.597C157.888 613.051 158.127 614.635 158.5 616.117C159.568 620.39 161.964 624.633 165.974 626.469C171.465 628.988 178.182 626.092 182.147 621.525C186.111 616.959 188.065 611.046 190.396 605.467C193.943 596.974 198.561 588.926 204.109 581.569C203.349 593.15 205.618 605.152 201.895 616.148C197.895 627.958 187.729 636.461 178.033 644.33C175.961 646.008 173.662 648.401 174.507 650.921C175.125 652.761 177.299 653.7 179.239 653.533C181.179 653.366 182.936 652.372 184.622 651.388C186.844 654.167 189.321 656.736 192.01 659.057C193.342 660.204 195.001 661.361 196.715 660.949C199.09 660.386 199.773 657.4 200.052 654.973C201.798 639.896 205.779 625.068 211.819 611.126C215.222 626.305 219.24 641.339 223.862 656.186C224.261 657.47 224.865 658.943 226.177 659.255C227.763 659.63 229.111 657.997 229.619 656.451C230.127 654.906 230.319 653.115 231.526 652.019C233.403 650.307 236.376 651.309 238.664 652.389C241.432 643.259 235.592 634.057 230.888 625.781C223.628 612.999 218.54 598.978 215.911 584.508C215.662 583.126 215.756 581.221 217.127 580.921C218.152 580.692 219.029 581.617 219.655 582.451C223.893 588.107 227.579 594.183 230.627 600.564C234.535 608.733 237.728 617.811 244.895 623.357C246.369 624.495 248.327 625.491 250.031 624.731C252.595 623.586 252.215 619.803 250.999 617.28C249.783 614.756 248.136 611.821 249.501 609.372C250.306 607.923 251.969 607.154 252.954 605.818C254.776 603.34 253.757 599.836 252.338 597.116C243.757 580.722 224.161 572.617 214.791 556.654C218.283 556.404 221.296 558.881 223.902 561.205C229.57 566.268 235.23 571.329 240.898 576.392C242.073 577.441 243.554 578.568 245.064 578.107C248.572 577.047 245.606 571.089 247.842 568.192C249.603 565.912 253.797 566.678 255.303 564.219C256.576 562.131 254.865 559.527 253.108 557.833C242.669 547.806 231.224 545.418 219.618 542.553Z" fill="#E67D0A"/>
<path d="M110.66 430.869C105.83 427.233 99.9858 426.028 95.0038 422.599C91.1397 419.938 87.3156 416.396 82.6298 416.467C82.047 416.476 81.3942 416.584 81.0633 417.061C80.6475 417.661 80.9676 418.47 80.9876 419.2C81.03 420.853 79.0824 422.202 77.5432 421.585C75.1783 423.331 76.0906 427.396 78.519 429.064C80.9473 430.731 84.1223 430.696 87.067 430.559C90.0103 430.426 93.1616 430.304 95.6685 431.853C96.0705 432.1 96.4669 432.416 96.6147 432.863C96.8721 433.65 96.258 434.443 95.6224 434.975C93.7836 436.523 91.3805 437.382 88.9721 437.354C87.1147 437.335 85.3043 436.807 83.5192 436.286C76.0242 434.1 68.5307 431.91 61.0323 429.722C59.8771 429.384 58.634 429.045 57.4876 429.416C56.5811 429.704 55.868 430.399 55.2547 431.125C53.4836 433.214 52.2087 435.963 52.735 438.654C53.4541 442.341 57.3526 444.685 61.0972 445.032C64.8418 445.378 68.5369 444.222 72.2006 443.376C77.7767 442.088 83.5171 441.502 89.2453 441.637C83.1193 445.453 77.8796 450.951 70.975 453.058C63.5582 455.32 55.5763 453.267 48.0854 451.223C46.4862 450.785 44.4438 450.491 43.4769 451.832C42.772 452.811 43.0859 454.25 43.8737 455.17C44.6616 456.089 45.8007 456.616 46.9096 457.111C46.3112 459.241 45.9118 461.424 45.714 463.624C45.6177 464.713 45.6349 465.97 46.4646 466.687C47.6103 467.682 49.3665 466.945 50.6933 466.205C58.9431 461.62 67.8773 458.255 77.1104 456.25C70.6763 463.473 64.5388 470.954 58.7147 478.673C58.2103 479.34 57.6854 480.179 58.0034 480.955C58.3897 481.893 59.703 481.981 60.6681 481.677C61.6333 481.374 62.6074 480.821 63.5988 481.034C65.1445 481.361 65.7159 483.226 66.0002 484.773C71.6161 482.861 74.1471 476.574 76.6217 471.197C80.4462 462.895 85.6843 455.24 92.0404 448.665C92.6484 448.038 93.6449 447.395 94.2938 447.979C94.7806 448.414 94.6313 449.192 94.4371 449.81C93.1167 454.002 91.3837 458.067 89.2661 461.921C86.5562 466.858 83.1282 471.762 82.9255 477.394C82.885 478.551 83.0921 479.901 84.094 480.486C85.602 481.367 87.3751 479.803 88.2091 478.274C89.043 476.744 89.9281 474.848 91.6606 474.649C92.684 474.531 93.6761 475.092 94.7078 475.105C96.6202 475.127 98.0212 473.341 98.8805 471.639C104.051 461.359 101.039 448.521 105.705 437.999C107.098 439.672 106.939 442.093 106.71 444.252C106.208 448.951 105.703 453.645 105.201 458.345C105.097 459.319 105.065 460.475 105.845 461.07C107.653 462.458 109.587 458.8 111.861 458.879C113.652 458.942 114.786 461.338 116.574 461.207C118.09 461.093 118.785 459.285 119.004 457.783C120.284 448.873 116.598 435.341 110.66 430.869Z" fill="#5085A7"/>
<path d="M596.063 448.275C592.696 453.642 592.194 462.688 590.735 470.029C590.339 471.993 589.981 474.103 590.641 475.997C591.618 478.81 594.702 480.264 597.373 479.777C600.043 479.289 602.285 477.22 603.859 474.8C605.434 472.38 606.46 469.59 607.639 466.91C608.39 465.213 610.156 463.282 611.512 464.474C611.929 464.838 612.143 465.423 612.281 465.993C612.936 468.659 612.38 471.491 611.57 474.085C608.788 483.045 603.08 490.981 602.311 500.437C602.027 503.987 602.81 508.175 605.696 509.832C608.033 511.173 610.996 510.289 613.002 508.446C615.008 506.603 616.261 503.983 617.467 501.433C618.555 499.135 619.654 496.8 620.222 494.28C621.539 488.395 619.861 481.911 621.787 476.243C622.097 475.342 622.571 474.388 623.409 474.103C624.749 473.638 626.012 475.141 626.565 476.577C628.11 480.581 627.449 485.133 626.61 489.355C625.412 495.391 623.898 501.378 623.426 507.55C622.955 513.721 623.59 520.192 626.437 525.575C626.793 526.245 627.215 526.931 627.85 527.278C628.545 527.652 629.359 527.54 630.103 527.341C635.871 525.832 639.888 519.778 641.22 513.425C642.552 507.072 641.693 500.404 640.724 493.932C640.239 490.692 639.75 487.202 641.085 484.3C642.76 484.643 643.518 486.773 643.955 488.586C646.676 499.889 648.655 511.4 649.858 523.007C650.228 526.579 650.782 530.642 653.498 532.648C656.278 534.708 660.324 533.428 662.335 530.535C664.346 527.642 664.623 523.644 663.949 520.048C663.275 516.453 661.752 513.118 660.425 509.734C659.098 506.35 657.948 502.776 658.069 499.117C658.095 498.324 658.224 497.461 658.77 496.952C659.546 496.237 660.815 496.645 661.489 497.497C662.163 498.349 662.415 499.493 662.69 500.569C663.667 504.35 665.378 508.032 668.154 510.522C670.931 513.012 674.891 514.103 678.155 512.589C678.872 512.26 679.54 511.813 680.117 511.237C683.033 508.307 682.536 502.81 680.176 499.25C677.816 495.689 674.126 493.578 670.641 491.424C669.687 490.832 668.671 490.151 668.246 489.044C667.82 487.937 668.38 486.333 669.476 486.32C670.093 486.312 670.615 486.784 671.092 487.22C674.058 489.903 677.455 492.008 681.061 493.416C681.922 493.754 682.826 494.05 683.719 493.925C686.032 493.611 687.299 490.514 686.794 487.994C686.281 485.476 684.559 483.482 682.844 481.71C680.106 478.864 677.092 476.134 673.494 474.958C667.919 473.146 662.056 475.361 656.592 477.413C654.702 478.127 652.76 478.821 650.758 478.745C648.755 478.669 646.65 477.641 645.713 475.683C645.517 475.275 645.38 474.831 645.413 474.377C645.507 473.376 646.426 472.755 647.28 472.413C652.579 470.288 659.23 472.753 663.711 468.992C664.648 468.207 665.438 467.131 665.655 465.859C666.041 463.655 664.559 461.407 662.67 460.533C660.782 459.659 658.619 459.886 656.659 460.503C652.744 461.727 649.31 464.335 645.499 465.891C641.688 467.448 636.963 467.778 633.865 464.801C633.263 464.224 632.728 463.494 632.613 462.624C632.448 461.297 633.361 460.058 634.464 459.524C635.567 458.99 636.82 458.997 638.032 459.001C641.205 459.016 644.562 458.904 647.214 457.029C649.866 455.155 651.355 450.875 649.457 448.048C648.365 446.429 646.463 445.691 644.645 445.541C637.774 444.957 632.236 451.056 626.164 454.55C624.337 455.594 622.028 456.391 620.296 455.134C618.475 453.819 618.305 450.789 619.307 448.693C620.308 446.588 622.147 445.166 623.861 443.728C625.785 442.113 627.668 440.316 628.777 437.943C629.888 435.579 630.085 432.508 628.69 430.3C627.201 427.946 624.189 427.116 621.721 427.939C619.245 428.763 616.929 430.772 616.109 433.467C613.163 443.215 599.495 442.798 596.063 448.275Z" fill="#3A5751"/>
<path d="M102.906 243.062C106.356 246.427 98.0127 248.15 93.2049 248.225C90.054 248.271 87.0092 247.142 83.8801 246.747C79.8933 246.234 75.7529 246.951 72.1779 248.776C69.8902 249.942 67.5902 252.154 68.1461 254.656C68.4261 255.938 69.4238 256.926 70.4133 257.792C74.7059 261.51 79.9487 264.12 85.4973 265.327C88.6359 266.019 133.286 284.046 141.416 281.425C142.117 281.194 142.869 280.642 143.252 280.248C153.811 269.366 169.962 246.959 175.057 226.457C176.429 220.918 177.126 214.328 173.203 210.166C169.301 206.002 162.34 206.343 157.388 209.172C152.436 212.001 148.931 216.73 145.226 221.052C141.52 225.374 137.143 229.609 131.559 230.79C138.648 214.24 145.748 197.701 152.847 181.14C155.771 174.31 158.744 167.292 159.058 159.868C159.186 156.715 158.722 153.295 156.553 151.013C153.238 147.517 147.169 148.177 143.386 151.184C139.601 154.17 137.565 158.801 135.722 163.256C128.15 181.476 121.327 200.024 115.278 218.808C113.815 219.602 112.528 217.497 112.225 215.868C108.429 194.709 117.784 173.596 120.065 152.206C120.733 145.935 120.102 138.318 114.584 135.255C108.822 132.076 101.454 136.304 97.9662 141.892C89.8808 154.862 95.0267 171.999 91.0436 186.754C83.8613 176.553 79.8122 164.197 79.5339 151.722C79.4021 145.904 80.0588 139.932 78.2973 134.397C76.5357 128.862 71.3243 123.802 65.5758 124.666C61.3484 125.307 58.0914 128.985 56.7021 133.03C55.3332 137.074 55.4514 141.459 55.5927 145.73C55.738 150.369 55.8847 155.029 56.8524 159.562C58.1695 165.649 60.9627 171.3 64.0468 176.706C65.4849 179.231 67.0032 181.731 68.9986 183.861C71.3583 186.387 74.2902 188.28 76.9272 190.511C81.3 194.203 84.8748 198.829 87.3391 204C88.3395 206.104 89.17 208.424 88.7486 210.705C88.3272 212.986 86.1944 215.094 83.8958 214.715C82.5909 214.495 81.5361 213.572 80.5452 212.685C76.7216 209.244 72.9074 205.791 69.0838 202.349C67.7436 201.138 66.3503 199.9 64.6349 199.359C59.5403 197.742 54.6929 203.062 53.5659 208.278C52.0284 215.477 54.8107 223.422 60.4979 228.091C71.75 237.284 92.5134 232.931 102.906 243.062Z" fill="#F7D29A"/>
<path d="M188.879 214.07C203.631 204.39 206.363 178.846 202.46 160.356C201.409 155.369 199.205 150.233 194.851 147.63C190.498 145.033 183.707 146.373 182.085 151.203C181.655 152.489 181.615 153.871 181.431 155.213C181.08 157.857 180.179 160.388 179.289 162.897C176.885 169.652 174.486 176.401 172.081 183.155C171.197 185.644 170.007 188.445 167.512 189.269C163.912 190.457 160.451 186.374 160.343 182.553C160.24 178.737 162.175 175.211 163.297 171.563C164.983 166.069 164.823 160.194 164.647 154.444C164.185 139.423 163.724 124.403 163.262 109.382C163.096 103.928 162.802 98.0926 159.557 93.7274C156.313 89.3622 148.961 87.7407 145.611 92.0256C144.545 93.389 144.045 95.1106 143.608 96.7969C139.595 112.242 138.761 128.513 141.174 144.29C142.283 151.549 144.072 158.881 142.984 166.142C142.61 168.65 141.153 171.67 138.64 171.464C137.394 171.364 136.379 170.442 135.56 169.492C130.668 163.809 129.545 155.86 128.625 148.392C126.884 134.258 125.149 120.119 123.408 105.985C122.619 99.5798 121.801 93.049 119.104 87.1918C116.407 81.3345 111.48 76.1497 105.201 74.8434C103.854 74.565 102.381 74.4818 101.178 75.1464C99.6412 75.987 98.9232 77.8034 98.5317 79.5217C97.3518 84.7024 98.0967 90.1198 99.0408 95.3537C104.907 127.888 118.411 158.994 138.136 185.413C132.675 183.612 127.121 182.084 121.511 180.847C118.593 180.203 114.111 181.07 114.724 184.016C114.905 184.877 115.548 185.559 116.214 186.132C123.707 192.594 135.691 191.252 143.184 197.714C144.464 198.817 145.628 200.682 144.695 202.095C144.207 202.835 143.299 203.151 142.469 203.453C138.845 204.761 135.448 206.702 132.47 209.164C130.617 210.695 128.78 213.095 129.747 215.299C130.446 216.897 132.296 217.563 133.958 218.05C150.234 222.786 175.459 223.123 189.03 214.01C189.02 214.004 188.843 214.09 188.879 214.07Z" fill="#E5B7A8"/>
<path d="M580.978 513.514C581.212 514.633 577.505 511.47 576.879 509.57C576.15 507.408 577.58 505.031 577.21 502.778C576.502 498.465 571.098 496.937 566.726 496.884C562.701 496.836 558.481 497.334 555.146 499.575C550.227 502.877 548.384 509.093 545.94 514.49C543.404 520.126 539.872 525.298 535.575 529.738C532.375 533.03 528.751 535.942 525.919 539.558C523.088 543.174 521.097 547.784 521.894 552.317C523.042 558.867 530.094 563.3 536.729 562.858C543.351 562.402 549.216 557.94 552.835 552.364C556.455 546.787 558.136 540.2 559.403 533.678C562.383 534.762 562.862 538.747 562.601 541.916C560.853 562.06 549.339 579.873 537.869 596.533C533.692 602.607 529.345 610.365 532.85 616.862C536.5 623.605 546.812 623.773 552.966 619.208C559.119 614.642 562.167 607.108 565.059 600.022C568.055 592.684 571.192 585.398 574.483 578.178C575.976 574.883 579.634 570.999 582.433 573.294C583.451 574.131 583.83 575.551 583.874 576.869C584.062 581.498 581.368 585.652 578.918 589.579C571.164 601.895 564.692 615.029 559.646 628.685C556.822 636.296 554.427 644.453 555.857 652.44C557.287 660.427 563.69 668.065 571.798 668.298C579.795 668.532 586.492 661.637 589.124 654.085C591.755 646.533 591.374 638.328 591.776 630.355C592.311 619.715 594.292 609.209 596.274 598.73C596.51 597.518 597.018 596.022 598.25 595.925C598.984 595.866 599.648 596.392 600.16 596.936C605.122 602.192 604.019 610.473 603.712 617.694C603.404 624.916 605.733 633.979 612.839 635.316C617.34 636.171 621.647 633.395 625.388 630.73C628.365 628.609 631.477 626.346 632.997 623.023C635.256 618.019 633.277 612.167 630.821 607.269C624.819 595.293 616.019 584.741 605.292 576.715C601.623 573.968 597.595 571.34 595.532 567.252C593.469 563.165 594.483 557.106 598.791 555.579C603.773 553.801 608.342 558.873 611.19 563.331C614.039 567.789 618.484 572.905 623.525 571.292C627.092 570.143 628.76 565.984 628.883 562.249C629.153 552.767 621.263 543.789 611.848 542.824C606.967 542.338 602.115 543.725 597.208 543.919C592.301 544.114 586.731 542.617 584.482 538.27C581.884 533.265 586.053 526.205 591.683 526.077C596.037 525.978 599.773 529.196 604.075 529.833C608.613 530.507 613.438 527.9 615.383 523.735C617.328 519.571 616.151 514.186 612.698 511.185C608.494 507.52 602.157 507.706 596.793 509.173C591.43 510.641 586.285 513.186 580.745 513.645" fill="#A9BFDE"/>
<g clip-path="url(#clip0)">
<path d="M497.982 127.647C508.875 130.003 519.591 127.506 530.58 129.396C539.105 130.866 544.759 137.898 552.549 134.158C553.517 133.693 557.458 131.204 557.644 130.151C559.347 128.98 562.989 130.235 565.244 126.812C565.913 124.306 567.918 116.791 564.829 113.283C561.248 109.216 558.536 106.754 553.182 105.839C547.829 104.923 542.541 107.435 537.717 109.939C532.893 112.436 527.711 115.074 522.318 114.418C521.455 114.316 520.547 114.093 519.953 113.458C518.915 112.34 519.33 110.538 519.984 109.157C521.866 105.145 525.225 101.849 529.278 100.036C532.403 98.6326 535.841 98.1175 539.232 97.6107C553.468 95.4809 567.705 93.3579 581.948 91.2278C584.143 90.9011 586.486 90.5085 588.118 89.0017C589.413 87.8183 590.07 86.1037 590.536 84.4154C591.887 79.5493 591.898 73.9628 588.937 69.8635C584.885 64.2468 576.548 63.3356 570.011 65.648C563.475 67.9604 558.182 72.7516 552.703 76.9976C544.363 83.462 535.206 88.8769 525.512 93.0769C532.82 81.9565 537.344 68.7044 547.275 59.843C557.943 50.326 572.891 47.5957 587.011 45.2314C590.026 44.7294 593.672 43.6431 594.255 40.6516C594.679 38.468 593.041 36.3007 591.012 35.3704C588.983 34.44 586.669 34.4371 584.43 34.4659C583.786 30.4374 582.769 26.4751 581.4 22.6393C580.72 20.7416 579.72 18.6499 577.777 18.0911C575.09 17.3104 572.72 19.9016 571.07 22.1642C560.802 36.2139 548.446 48.75 534.537 59.2387C539.728 42.176 544.223 24.9105 548.01 7.48999C548.338 5.98288 548.569 4.17263 547.437 3.11915C546.066 1.84856 543.799 2.71509 542.418 3.96913C541.037 5.22317 539.833 6.90038 538.01 7.31086C535.169 7.95706 532.772 5.27592 531.1 2.9056C523.176 10.4458 523.796 22.9257 523.808 33.839C523.82 50.6924 520.964 67.5532 515.403 83.4707C514.87 84.9909 513.699 86.8372 512.162 86.3611C511.011 86.009 510.659 84.5911 510.506 83.4051C509.478 75.3674 509.239 67.2236 509.807 59.1363C510.529 48.7784 512.479 37.9197 508.467 28.335C507.642 26.367 506.252 24.2669 504.122 24.061C500.918 23.7523 499.157 27.7398 498.943 30.9444C498.728 34.1489 498.712 38.0074 495.965 39.6781C494.343 40.6674 492.249 40.4944 490.512 41.2696C487.293 42.71 486.327 46.7817 486.204 50.2964C485.491 71.4997 500.451 90.6646 500.769 111.883C497.145 110.159 495.54 105.983 494.255 102.193C491.466 93.9376 488.683 85.6891 485.894 77.4339C485.315 75.7237 484.476 73.763 482.709 73.3688C478.611 72.4415 478.2 80.0613 474.331 81.6852C471.285 82.9637 467.536 79.8279 464.643 81.4283C462.193 82.7904 462.427 86.3553 463.22 89.0387C467.961 104.942 484.586 124.749 497.982 127.647Z" fill="#5085A7"/>
</g>
<path d="M130.203 454.238C121.682 454.942 112.101 461.825 103.352 466.253C101.007 467.432 98.5492 468.772 97.2494 471.056C95.3181 474.445 96.7028 479.04 99.6621 481.581C102.621 484.123 106.779 484.892 110.673 484.637C114.568 484.382 118.328 483.219 122.119 482.315C124.524 481.747 128.102 482.106 128.154 484.58C128.173 485.339 127.781 486.055 127.334 486.675C125.253 489.59 121.884 491.305 118.521 492.545C106.919 496.846 93.6434 497.081 83.4025 504.008C79.5617 506.615 76.064 510.92 77.0612 515.462C77.8697 519.139 81.4994 521.678 85.2112 522.373C88.9229 523.068 92.722 522.295 96.4069 521.528C99.7283 520.837 103.098 520.128 106.163 518.682C113.312 515.295 118.296 508.115 125.788 505.577C126.984 505.179 128.383 504.917 129.445 505.605C131.152 506.7 130.804 509.327 129.868 511.117C127.261 516.112 122.061 519.125 117.031 521.672C109.84 525.314 102.405 528.569 95.749 533.123C89.0926 537.677 83.1584 543.697 80.3632 551.26C80.0166 552.202 79.716 553.232 79.9526 554.217C80.2188 555.29 81.0828 556.095 81.971 556.751C88.8238 561.866 98.6381 561.315 106.273 557.559C113.907 553.804 119.834 547.375 125.461 540.987C128.279 537.789 131.345 534.381 135.504 533.466C136.706 535.594 135.26 538.18 133.836 540.152C124.959 552.443 115.186 564.087 104.599 574.956C101.34 578.3 97.7569 582.25 98.2447 586.893C98.739 591.649 103.768 595.055 108.543 594.892C113.317 594.73 117.603 591.748 120.604 588.049C123.605 584.351 125.559 579.931 127.743 575.686C129.928 571.442 132.466 567.237 136.267 564.362C137.09 563.738 138.08 563.171 139.096 563.354C140.534 563.622 141.297 565.356 141.061 566.799C140.825 568.242 139.905 569.46 139.074 570.648C136.166 574.832 134.036 579.744 134.093 584.851C134.149 589.958 136.709 595.218 141.252 597.57C142.247 598.09 143.315 598.458 144.428 598.62C150.076 599.425 155.158 594.358 156.565 588.83C157.973 583.303 156.69 577.5 155.64 571.89C155.355 570.352 155.103 568.673 155.825 567.294C156.547 565.915 158.682 565.213 159.708 566.41C160.286 567.082 160.293 568.047 160.295 568.93C160.331 574.405 161.35 579.878 163.264 585.01C163.719 586.236 164.256 587.475 165.206 588.357C167.661 590.647 171.953 589.497 174.026 586.869C176.091 584.234 176.509 580.696 176.709 577.35C177.047 571.993 177.013 566.427 174.873 561.496C171.547 553.864 163.896 549.224 156.778 544.891C154.312 543.395 151.817 541.826 150.043 539.557C148.269 537.288 147.359 534.123 148.466 531.481C148.696 530.929 149.018 530.414 149.506 530.077C150.601 529.357 152.078 529.859 153.211 530.519C160.251 534.611 163.913 543.966 171.845 545.812C173.503 546.198 175.317 546.184 176.8 545.378C179.378 543.991 180.274 540.51 179.409 537.71C178.545 534.911 176.317 532.715 173.883 531.061C169.032 527.753 163.229 526.114 158.138 523.195C153.047 520.275 148.348 515.34 148.485 509.479C148.509 508.342 148.752 507.152 149.521 506.31C150.707 505.037 152.8 505.024 154.358 505.801C155.915 506.577 157.066 507.963 158.182 509.302C161.098 512.811 164.315 516.418 168.655 517.799C172.995 519.18 178.685 517.301 179.781 512.886C180.404 510.351 179.39 507.65 177.861 505.523C172.099 497.472 160.832 496.383 151.699 492.566C148.959 491.411 146.02 489.522 145.688 486.58C145.33 483.492 148.226 480.813 151.266 480.194C154.313 479.567 157.445 480.424 160.478 481.13C163.885 481.923 167.436 482.52 170.853 481.792C174.263 481.072 177.54 478.765 178.476 475.412C179.472 471.836 177.525 467.835 174.414 465.792C171.295 463.741 167.13 462.841 163.656 464.153C151.108 468.92 138.896 453.517 130.203 454.238Z" fill="#3A5751"/>
<g clip-path="url(#clip1)">
<path d="M600.99 426.723C600.535 423.501 598.918 420.208 595.984 418.913C593.049 417.618 588.876 419.378 588.546 422.618C588.409 423.912 588.87 425.187 589.374 426.374C593.374 435.868 600.765 443.827 609.875 448.42C612.389 449.695 615.751 450.591 617.778 448.594C619.793 446.612 618.973 443.012 617.021 440.989C615.076 438.962 612.358 437.947 610.025 436.404C609.331 435.942 608.617 435.378 608.399 434.56C608.079 433.386 608.959 432.123 610.075 431.659C611.191 431.195 612.457 431.347 613.634 431.627C621.648 433.521 627.727 440.615 635.786 442.307C637.91 442.754 640.663 442.476 641.516 440.443C642.599 437.871 639.692 435.525 637.236 434.296C633.163 432.249 629.079 430.198 625.006 428.15C623.577 427.437 621.902 425.843 622.858 424.524C623.108 424.184 623.495 423.975 623.877 423.796C628.023 421.918 632.881 423.117 636.94 425.114C640.999 427.112 644.695 429.883 648.978 431.346C652.417 432.524 656.17 432.803 659.756 432.154C660.589 432 661.464 431.777 662.061 431.162C662.787 430.427 662.947 429.282 662.79 428.255C662.166 424.2 657.631 422.163 653.633 421.542C649.639 420.928 645.195 420.867 642.185 418.145C646.14 415.625 651.086 415.308 655.693 415.932C660.299 416.556 664.739 418.035 669.315 418.853C671.478 419.244 674.189 419.233 675.328 417.313C675.688 416.711 675.818 415.996 675.785 415.294C675.612 411.66 671.405 409.782 667.836 409.498C664.267 409.214 660.285 409.557 657.527 407.25C659.445 402.607 666.904 401.365 667.211 396.352C667.443 392.509 662.641 390.103 658.976 391.14C655.319 392.173 652.653 395.288 650.004 398.063C645.173 403.12 639.663 407.509 633.666 411.062C632.361 411.836 630.227 412.3 629.743 410.857C629.573 410.337 629.733 409.767 629.953 409.263C631.061 406.802 633.598 405.393 635.399 403.394C637.204 401.402 638.026 397.779 635.812 396.309C634.74 395.599 633.326 395.69 632.103 396.065C628.279 397.218 625.55 400.675 623.622 404.228C621.695 407.782 620.298 411.669 617.829 414.866C616.775 416.233 614.747 417.495 613.526 416.292C612.409 415.189 613.281 413.297 614.132 411.953C615.06 410.497 615.937 408.932 616.07 407.215C616.203 405.497 615.367 403.586 613.767 403.023C612.961 402.739 612.07 402.828 611.258 403.086C607.304 404.379 605.698 409.19 605.362 413.386C605.026 417.583 605.283 422.129 602.918 425.605L600.99 426.723Z" fill="#EA9188"/>
</g>
<path fill-rule="evenodd" clip-rule="evenodd" d="M88.1606 363.213C85.6647 325.473 112.786 242.609 133.183 211.003C151.73 182.262 195.432 191.32 217.74 165.503C244.1 134.998 244.092 109.523 281.816 96.3075C319.068 83.2573 363.246 96.4384 396.588 117.81C428.513 138.273 480.039 90.1384 523.384 96.3075C564.597 106.777 623.211 151.801 631.859 203.675C640.565 255.9 596.746 310.064 592.462 354.405C588.716 393.192 616.395 433.606 610.74 472.153C604.425 515.204 563.914 581.66 523.384 595.435C475.136 611.834 432.462 547.871 381.844 542.802C350.975 539.711 325.165 578.561 294.716 572.538C264.395 566.54 193.976 575.48 169.696 556.03C145.24 536.44 147.764 478.312 126.456 455.218C100.758 427.363 90.683 401.354 88.1606 363.213Z" fill="#F0D9C1"/>
<defs>
<clipPath id="clip0">
<rect width="141.016" height="133.007" fill="white" transform="translate(591.378) rotate(88.22)"/>
</clipPath>
<clipPath id="clip1">
<rect width="47.8135" height="83.7759" fill="white" transform="matrix(0.426407 0.904531 -0.897386 0.441247 659.698 379.213)"/>
</clipPath>
</defs>
</svg>
