<?xml version="1.0" encoding="utf-8"?>
<!-- Generator: Adobe Illustrator 25.0.1, SVG Export Plug-In . SVG Version: 6.00 Build 0)  -->
<svg version="1.1" id="Layer_1" xmlns="http://www.w3.org/2000/svg" xmlns:xlink="http://www.w3.org/1999/xlink" x="0px" y="0px"
	 viewBox="0 0 66 97" style="enable-background:new 0 0 66 97;" xml:space="preserve">
<style type="text/css">
	.st0{clip-path:url(#SVGID_2_);}
	.st1{fill:#2B2A2E;}
</style>
<g>
	<defs>
		<rect id="SVGID_1_" y="0.1" width="66" height="96"/>
	</defs>
	<clipPath id="SVGID_2_">
		<use xlink:href="#SVGID_1_"  style="overflow:visible;"/>
	</clipPath>
	<g class="st0">
		<path class="st1" d="M3.9,72.9c-2.2,3.4-3.3,7.4-3.7,11.4c-0.2,1.9-0.3,3.9,0.4,5.7c1.5,4.5,7,6.6,11.7,6
			c4.7-0.7,8.8-3.5,12.5-6.3C39.5,78.2,52,64,64.5,50c0.6-0.7,1.2-1.4,1.4-2.2c0.4-1.4-0.3-2.8-0.9-4c-9.6-18-25.3-32.6-44-40.9
			c-3.6-1.6-7.5-3-11.5-2.6c-3.9,0.4-7.9,3.1-8.5,7c-0.4,2.5,0.6,5,1.8,7.2C9.1,27.8,19.4,39.2,32,47C31.9,47,9.9,63.8,3.9,72.9z"/>
	</g>
</g>
</svg>
