<svg width="66" height="97" viewBox="0 0 66 97" fill="none" xmlns="http://www.w3.org/2000/svg">
<g clip-path="url(#clip0)">
<path d="M3.89209 72.8765C1.66967 76.2668 0.587698 80.2945 0.149063 84.3223C-0.0556335 86.2348 -0.143361 88.2052 0.499971 90.0307C2.04982 94.4932 7.45965 96.6664 12.1677 95.9999C16.8757 95.3335 20.9404 92.5227 24.6834 89.654C39.5093 78.1503 52.025 64.0386 64.453 50.0138C65.0379 49.3474 65.652 48.6519 65.8859 47.7826C66.266 46.4207 65.5935 45.0009 64.9501 43.7549C55.3879 25.7893 39.6262 11.127 20.9111 2.81068C17.2851 1.18799 13.3666 -0.202896 9.41889 0.202782C5.47117 0.608459 1.49421 3.33227 0.909364 7.24413C0.529214 9.73614 1.5527 12.2281 2.66391 14.4883C9.09723 27.7597 19.3905 39.1765 31.994 47.0002C31.9355 46.9713 9.88677 63.7778 3.89209 72.8765Z" fill="#2B2A2E"/>
</g>
<defs>
<clipPath id="clip0">
<rect width="96" height="66" fill="white" transform="translate(0 96.1172) rotate(-90)"/>
</clipPath>
</defs>
</svg>
