<svg width="67" height="95" viewBox="0 0 67 95" fill="none" xmlns="http://www.w3.org/2000/svg">
<g clip-path="url(#clip0)">
<path d="M63.049 71.3607C65.3051 74.6803 66.4034 78.6242 66.8487 82.5681C67.0565 84.4407 67.1456 86.3701 66.4925 88.1576C64.9192 92.527 59.4274 94.655 54.648 94.0024C49.8687 93.3498 45.7424 90.5976 41.9426 87.7887C26.8921 76.5246 14.1868 62.7069 1.57047 48.9743C0.976768 48.3218 0.353371 47.6408 0.115883 46.7896C-0.270027 45.4561 0.41275 44.0658 1.06583 42.8458C10.773 25.2544 26.7734 10.8977 45.7721 2.75459C49.4531 1.1657 53.4309 -0.196205 57.4384 0.201019C61.446 0.598244 65.4832 3.2653 66.0769 7.09567C66.4628 9.53576 65.4238 11.9758 64.2958 14.1889C57.765 27.1838 47.3157 38.3628 34.5213 46.0235C34.5807 45.9952 56.9635 62.4515 63.049 71.3607Z" fill="#2B2A2E"/>
</g>
<defs>
<clipPath id="clip0">
<rect width="94" height="67" fill="white" transform="matrix(0 -1 -1 0 67 94.1172)"/>
</clipPath>
</defs>
</svg>
