<?xml version="1.0" encoding="utf-8"?>
<!-- Generator: Adobe Illustrator 25.0.1, SVG Export Plug-In . SVG Version: 6.00 Build 0)  -->
<svg version="1.1" id="Layer_1" xmlns="http://www.w3.org/2000/svg" xmlns:xlink="http://www.w3.org/1999/xlink" x="0px" y="0px"
	 viewBox="0 0 67 95" style="enable-background:new 0 0 67 95;" xml:space="preserve">
<style type="text/css">
	.st0{clip-path:url(#SVGID_2_);}
	.st1{fill:#2B2A2E;}
</style>
<g>
	<defs>
		<rect id="SVGID_1_" y="0.1" width="67" height="94"/>
	</defs>
	<clipPath id="SVGID_2_">
		<use xlink:href="#SVGID_1_"  style="overflow:visible;"/>
	</clipPath>
	<g class="st0">
		<path class="st1" d="M63,71.4c2.3,3.3,3.4,7.3,3.8,11.2c0.2,1.9,0.3,3.8-0.4,5.6c-1.6,4.4-7.1,6.5-11.8,5.8
			c-4.8-0.7-8.9-3.4-12.7-6.2C26.9,76.5,14.2,62.7,1.6,49c-0.6-0.7-1.2-1.3-1.5-2.2c-0.4-1.3,0.3-2.7,0.9-3.9
			c9.7-17.6,25.7-31.9,44.7-40.1c3.7-1.6,7.7-3,11.7-2.6c4,0.4,8,3.1,8.6,6.9c0.4,2.4-0.7,4.9-1.8,7.1c-6.5,13-17,24.2-29.8,31.8
			C34.6,46,57,62.5,63,71.4z"/>
	</g>
</g>
</svg>
