<svg width="605" height="570" viewBox="0 0 605 570" fill="none" xmlns="http://www.w3.org/2000/svg">
<g filter="url(#filter0_d)">
<path d="M448.684 142.276C462.484 144.099 491.02 140.797 494.714 127.887C496.45 121.82 495.996 115.421 496.757 109.176C497.517 102.931 499.926 96.2962 505.52 92.9735C509.431 90.6507 514.27 90.3323 518.841 90.5298C521.176 90.6318 523.598 90.87 525.618 91.9716C530.532 94.6462 531.277 101.432 529.14 106.499C527.003 111.557 522.8 115.518 519.451 119.944C513.875 127.318 510.581 136.244 510.109 145.297C509.983 147.653 510.58 150.676 512.996 151.12C513.671 151.245 514.365 151.128 515.036 150.971C522.659 149.245 528.536 143.532 533.86 138.007C539.185 132.481 544.814 126.624 552.307 124.442C559.81 122.258 569.59 125.552 571.072 132.884C572.289 138.893 567.622 144.639 562.418 148.262C548.056 158.272 528.205 159.333 514.826 170.53C531.104 172.2 547.745 170.882 563.571 166.675C569.267 165.163 575.019 163.251 580.908 163.573C586.798 163.896 592.97 167.137 594.407 172.602C594.993 174.848 594.735 177.226 594.434 179.533C593.852 184.006 592.902 188.878 589.295 191.801C584.273 195.875 576.782 194.279 570.491 192.614C557.422 189.166 544.148 186.398 530.752 184.335C526.172 183.634 519.809 184.158 519.067 188.554C536.189 196.427 556.358 195.58 574.371 201.401C582.091 203.896 590.504 209.473 589.674 217.265C588.834 225.203 578.359 229.285 570.291 227.39C562.223 225.496 555.89 219.8 549.129 215.219C541.723 210.202 533.432 206.365 524.707 203.916C523.841 203.675 522.896 203.451 522.053 203.763C520.445 204.361 520.231 206.65 521.222 207.989C522.222 209.328 523.942 209.948 525.549 210.521C539.431 215.49 552.539 222.354 564.57 230.607C569.814 234.204 575.102 238.386 577.222 244.231C579.343 250.075 576.888 257.886 570.671 259.71C564.203 261.613 558.043 256.54 553.412 251.886C543.118 241.542 532.825 231.207 522.531 220.863C520.618 223.742 523.115 227.315 525.333 229.943C534.113 240.338 540.525 254.13 536.537 267.045C535.744 269.609 534.186 272.374 531.458 272.955C528.101 273.672 525.241 270.719 523.411 267.964C515.234 255.573 511.87 240.841 509.308 226.348C506.746 211.855 505.044 194.082 499.209 180.511C492.009 163.75 479.769 154.87 466.848 154.672C461.6 154.589 451.137 152.516 453.27 150.203L448.684 142.276Z" fill="#A9BFDE"/>
</g>
<g filter="url(#filter1_d)">
<path d="M99.3182 292.438C98.0003 295.214 95.7135 297.911 92.6689 298.087C91.0704 298.175 89.506 297.553 87.9024 297.332C82.4209 296.644 77.0935 302.067 77.8254 307.642C78.5574 313.216 85.1135 317.158 90.2377 315.121C95.2636 313.131 98.1233 306.828 103.484 306.172C110.517 305.312 117.066 314.864 123.336 311.575C125.534 310.424 126.712 307.981 127.642 305.664C133.319 291.429 134.44 275.316 130.756 260.326C129.679 255.96 127.363 250.922 122.951 250.419C119.654 250.048 116.634 252.612 115.328 255.681C114.023 258.75 114.065 262.22 114.127 265.566C114.193 269.105 114.259 272.643 114.325 276.182C111.547 275.838 110.221 272.594 109.474 269.848C106.204 257.707 103.525 245.4 101.484 232.988C100.806 228.82 100.125 224.497 97.8644 220.942C95.604 217.388 91.2412 214.783 87.269 215.993C82.5843 217.424 80.6558 223.365 81.4911 228.282C82.3265 233.199 85.1102 237.53 86.9541 242.162C88.7981 246.793 89.6074 252.444 86.7402 256.444C70.3881 241.512 73.2462 212.026 55.7583 198.446C52.054 195.574 46.7585 193.694 42.838 196.194C39.4678 198.335 38.4416 203.095 39.5197 207.021C40.5977 210.947 43.3175 214.174 46.1311 217.083C52.2696 223.423 59.9612 230.611 58.5509 239.338C54.5636 241.019 49.537 239.733 46.7458 236.337C43.9467 232.917 42.4044 227.171 38.0302 227.108C36.8642 227.086 35.7519 227.549 34.6937 228.059C29.9168 230.364 25.4633 234.267 24.438 239.544C22.9552 247.105 29.5092 254.609 36.9713 256.203C41.8491 257.244 46.8776 256.328 51.8416 256.587C59.5659 256.989 66.8791 260.176 73.8606 263.582C75.435 264.344 77.0641 265.19 78.0252 266.644C80.2911 270.067 77.3636 275.033 73.4497 276.08C69.5437 277.151 65.4181 275.526 61.8059 273.619C58.4628 271.865 54.5888 269.79 51.1549 271.305C47.5393 272.884 46.4875 277.937 48.0495 281.644C49.6115 285.35 53.0208 287.884 56.4518 289.893C59.7446 291.833 63.6196 293.506 67.2356 292.406C69.472 291.734 71.2735 290.099 73.1082 288.633C78.4855 284.384 84.836 281.403 91.5253 280.027C93.7575 279.563 96.1987 279.299 98.2574 280.32C100.316 281.342 101.695 284.114 100.509 286.093C100.584 286.054 100.636 289.662 99.3182 292.438Z" fill="#A1A59F"/>
</g>
<g filter="url(#filter2_d)">
<path d="M452.993 143.609C457.055 149.2 465.837 152.929 472.57 157.114C474.37 158.238 476.328 159.374 478.453 159.313C481.608 159.225 484.206 156.339 484.723 153.228C485.239 150.117 484.027 146.922 482.217 144.339C480.407 141.756 478.024 139.647 475.809 137.407C474.407 135.985 473.154 133.363 474.843 132.289C475.361 131.957 476.02 131.927 476.637 131.975C479.526 132.19 482.126 133.797 484.396 135.599C492.238 141.808 497.971 150.879 507.059 155.046C510.474 156.605 514.92 157.214 517.644 154.618C519.849 152.516 520.082 148.943 519.006 146.088C517.929 143.232 515.8 140.932 513.724 138.709C511.853 136.705 509.948 134.675 507.662 133.165C502.32 129.648 495.261 129.219 490.362 125.109C489.585 124.45 488.817 123.594 488.847 122.571C488.889 120.933 490.852 120.071 492.483 119.965C497.032 119.67 501.298 121.997 505.171 124.402C510.708 127.841 516.078 131.61 522.021 134.296C527.965 136.983 534.619 138.555 541.024 137.311C541.821 137.155 542.66 136.93 543.242 136.353C543.873 135.719 544.067 134.785 544.148 133.896C544.812 127.015 540.313 120.467 534.512 116.77C528.71 113.072 521.776 111.677 514.996 110.471C511.601 109.868 507.957 109.18 505.579 106.691C506.547 104.968 508.943 104.881 510.905 105.037C523.132 106.01 535.288 107.873 547.249 110.624C550.93 111.471 555.166 112.288 558.173 110.002C561.256 107.664 561.502 102.761 559.386 99.5312C557.271 96.3012 553.41 94.5927 549.592 94.0722C545.774 93.5517 541.897 94.0574 538.044 94.3298C534.191 94.6023 530.217 94.6141 526.634 93.1951C525.857 92.8887 525.049 92.4433 524.749 91.6642C524.331 90.5585 525.211 89.3043 526.308 88.8614C527.406 88.4186 528.634 88.5426 529.805 88.6179C533.919 88.87 538.211 88.2796 541.72 86.0969C545.229 83.9143 547.795 79.938 547.516 75.8128C547.458 74.9074 547.265 74.015 546.91 73.178C545.097 68.9386 539.459 67.5558 535.045 68.9038C530.63 70.2517 527.154 73.573 523.714 76.6536C522.769 77.496 521.713 78.3748 520.456 78.4548C519.199 78.5348 517.818 77.3546 518.216 76.1438C518.438 75.462 519.103 75.0528 519.713 74.681C523.485 72.357 526.845 69.3565 529.591 65.8803C530.249 65.0511 530.881 64.1599 531.092 63.1334C531.647 60.4768 529.05 57.9947 526.362 57.6656C523.673 57.3457 521.05 58.5418 518.651 59.8082C514.803 61.8232 510.967 64.1829 508.454 67.7311C504.569 73.2319 504.569 80.4647 504.558 87.2006C504.557 89.5321 504.519 91.9137 503.693 94.0916C502.868 96.2696 501.06 98.2266 498.768 98.5707C498.29 98.6434 497.798 98.6375 497.36 98.4419C496.403 97.9875 496.131 96.7568 496.112 95.6969C495.989 89.1169 500.925 82.6603 498.874 76.4065C498.445 75.0991 497.674 73.8515 496.495 73.1656C494.453 71.9671 491.669 72.8096 490.095 74.5817C488.521 76.3538 487.937 78.8146 487.814 81.1899C487.561 85.9298 488.861 90.6258 488.977 95.3679C489.094 100.11 487.651 105.428 483.539 107.793C482.742 108.254 481.817 108.586 480.912 108.408C479.534 108.123 478.647 106.682 478.53 105.281C478.414 103.879 478.89 102.502 479.348 101.17C480.552 97.682 481.697 93.9458 480.832 90.3681C479.967 86.7905 476.28 83.6486 472.766 84.7455C470.751 85.3791 469.307 87.2136 468.477 89.1623C465.325 96.522 469.299 104.761 470.49 112.673C470.84 115.05 470.767 117.873 468.871 119.337C466.885 120.881 463.816 120.005 462.113 118.165C460.401 116.323 459.679 113.8 458.895 111.408C458.014 108.722 456.938 106.019 455 103.964C453.071 101.911 450.1 100.616 447.389 101.376C444.496 102.189 442.545 105.214 442.437 108.22C442.327 111.236 443.452 114.491 445.817 116.339C454.38 123.006 448.847 137.907 452.993 143.609Z" fill="#3A5751"/>
</g>
<g filter="url(#filter3_d)">
<path d="M182.035 445.987C175.68 444.418 167.8 435.881 166.244 437.953C165.264 439.259 164.82 449.273 161.485 451.905C156.483 462.18 142.91 462.956 136.828 465.905C136.385 466.542 135.995 467.332 136.253 468.06C136.58 468.977 137.704 469.259 138.509 469.803C140.33 471.041 140.277 474.196 138.414 475.382C138.466 479.295 143.572 481.465 147.262 480.133C150.951 478.801 153.379 475.339 155.517 472.047C157.658 468.76 159.974 465.257 163.596 463.747C164.175 463.504 164.825 463.321 165.424 463.508C166.474 463.841 166.856 465.121 166.937 466.221C167.184 469.412 166.247 472.679 164.347 475.263C162.884 477.257 160.907 478.806 158.958 480.332C150.772 486.742 142.585 493.148 134.395 499.56C133.133 500.547 131.8 501.629 131.312 503.157C130.92 504.361 131.118 505.673 131.427 506.899C132.312 510.438 134.295 513.951 137.615 515.472C142.162 517.557 147.724 515.16 151.007 511.378C154.29 507.597 155.908 502.701 157.838 498.081C160.774 491.049 164.599 484.385 169.192 478.293C168.563 487.883 170.442 497.82 167.36 506.925C164.048 516.705 155.629 523.745 147.601 530.261C145.885 531.651 143.981 533.632 144.681 535.719C145.193 537.242 146.993 538.02 148.6 537.882C150.206 537.743 151.661 536.92 153.057 536.105C154.897 538.406 156.948 540.533 159.174 542.456C160.277 543.405 161.651 544.363 163.07 544.022C165.037 543.556 165.603 541.083 165.833 539.074C167.279 526.589 170.576 514.311 175.577 502.767C178.395 515.336 181.722 527.784 185.548 540.078C185.879 541.142 186.379 542.361 187.465 542.62C188.779 542.93 189.895 541.578 190.316 540.298C190.736 539.018 190.895 537.535 191.895 536.628C193.449 535.21 195.911 536.04 197.805 536.934C200.097 529.374 195.262 521.754 191.366 514.902C185.355 504.318 181.142 492.708 178.965 480.727C178.759 479.582 178.837 478.005 179.972 477.756C180.821 477.567 181.547 478.333 182.065 479.023C185.575 483.707 188.626 488.738 191.15 494.021C194.386 500.786 197.03 508.302 202.965 512.895C204.185 513.837 205.806 514.661 207.217 514.032C209.341 513.084 209.026 509.952 208.019 507.862C207.012 505.773 205.648 503.343 206.779 501.314C207.445 500.115 208.822 499.478 209.638 498.372C211.147 496.32 210.303 493.418 209.128 491.166C202.022 477.591 185.797 470.88 178.038 457.663C180.929 457.455 183.424 459.507 185.582 461.431C190.275 465.623 194.962 469.814 199.655 474.007C200.628 474.875 201.854 475.808 203.104 475.426C206.009 474.549 203.553 469.615 205.405 467.217C206.863 465.328 210.336 465.962 211.583 463.926C212.637 462.198 211.22 460.042 209.766 458.639C201.122 450.336 191.645 448.359 182.035 445.987Z" fill="#E67D0A"/>
</g>
<g filter="url(#filter4_d)">
<path d="M95.6299 357.773C91.6309 354.762 86.7914 353.764 82.6661 350.925C79.4666 348.721 76.3001 345.788 72.42 345.847C71.9374 345.855 71.3969 345.944 71.1229 346.339C70.7786 346.836 71.0437 347.506 71.0603 348.11C71.0954 349.479 69.4827 350.596 68.2082 350.085C66.25 351.53 67.0054 354.897 69.0162 356.278C71.0269 357.658 73.6559 357.629 76.0942 357.516C78.5314 357.405 81.1407 357.305 83.2166 358.587C83.5493 358.791 83.8776 359.053 84 359.424C84.2131 360.075 83.7047 360.732 83.1783 361.172C81.6557 362.454 79.6659 363.166 77.6717 363.142C76.1337 363.127 74.6346 362.69 73.1565 362.258C66.9504 360.448 60.7456 358.634 54.5367 356.822C53.5801 356.543 52.5508 356.262 51.6015 356.569C50.851 356.808 50.2605 357.383 49.7526 357.984C48.2861 359.714 47.2304 361.99 47.6662 364.219C48.2617 367.272 51.4897 369.212 54.5904 369.5C57.6911 369.787 60.7507 368.829 63.7843 368.129C68.4016 367.062 73.1547 366.577 77.8979 366.689C72.8254 369.848 68.4867 374.401 62.7695 376.145C56.6282 378.019 50.0189 376.319 43.8162 374.626C42.4921 374.263 40.8009 374.02 40.0002 375.13C39.4165 375.941 39.6764 377.133 40.3288 377.894C40.9812 378.655 41.9245 379.092 42.8426 379.502C42.3471 381.265 42.0164 383.073 41.8526 384.894C41.7729 385.796 41.7871 386.837 42.4741 387.431C43.4228 388.255 44.877 387.644 45.9757 387.032C52.8067 383.235 60.2045 380.449 67.8498 378.789C62.5222 384.77 57.4401 390.964 52.6176 397.356C52.2 397.908 51.7653 398.603 52.0286 399.246C52.3485 400.022 53.436 400.095 54.2351 399.843C55.0343 399.592 55.8409 399.135 56.6618 399.31C57.9416 399.581 58.4148 401.126 58.6502 402.407C63.3004 400.823 65.3961 395.618 67.4452 391.165C70.612 384.291 74.9493 377.953 80.2123 372.508C80.7158 371.989 81.5409 371.456 82.0782 371.94C82.4813 372.3 82.3577 372.944 82.1969 373.457C81.1035 376.928 79.6686 380.294 77.9151 383.485C75.6712 387.572 72.8328 391.633 72.6649 396.297C72.6313 397.255 72.8028 398.373 73.6325 398.857C74.8811 399.586 76.3494 398.291 77.0399 397.025C77.7304 395.759 78.4632 394.188 79.8979 394.024C80.7452 393.926 81.5667 394.39 82.421 394.401C84.0045 394.42 85.1646 392.941 85.8761 391.531C90.1572 383.019 87.6636 372.389 91.5269 363.676C92.6803 365.061 92.5487 367.066 92.3594 368.854C91.9434 372.745 91.5257 376.632 91.1096 380.523C91.0238 381.33 90.997 382.287 91.6433 382.78C93.1397 383.929 94.7416 380.9 96.6246 380.966C98.1073 381.017 99.0463 383.002 100.527 382.894C101.782 382.799 102.358 381.301 102.539 380.058C103.599 372.681 100.547 361.475 95.6299 357.773Z" fill="#5085A7"/>
</g>
<g clip-path="url(#clip0)" filter="url(#filter5_d)">
<path d="M501.639 354.34C501.262 351.672 499.923 348.945 497.493 347.873C495.063 346.801 491.608 348.258 491.335 350.94C491.222 352.012 491.603 353.067 492.02 354.051C495.332 361.912 501.453 368.502 508.996 372.306C511.078 373.361 513.862 374.103 515.54 372.449C517.208 370.808 516.529 367.827 514.913 366.152C513.302 364.474 511.052 363.634 509.12 362.356C508.546 361.974 507.954 361.506 507.774 360.829C507.509 359.857 508.237 358.811 509.161 358.427C510.085 358.043 511.134 358.168 512.109 358.4C518.745 359.968 523.778 365.842 530.451 367.243C532.21 367.614 534.49 367.384 535.195 365.7C536.092 363.571 533.685 361.628 531.652 360.61C528.279 358.915 524.897 357.217 521.525 355.521C520.342 354.93 518.955 353.611 519.746 352.519C519.953 352.237 520.274 352.064 520.59 351.916C524.023 350.361 528.046 351.354 531.407 353.008C534.768 354.662 537.828 356.956 541.374 358.167C544.222 359.143 547.33 359.374 550.299 358.837C550.988 358.709 551.713 358.524 552.207 358.016C552.809 357.407 552.942 356.458 552.811 355.608C552.295 352.25 548.54 350.563 545.229 350.049C541.922 349.542 538.242 349.49 535.75 347.237C539.024 345.15 543.12 344.887 546.934 345.404C550.748 345.921 554.425 347.146 558.214 347.823C560.005 348.146 562.25 348.137 563.193 346.548C563.491 346.049 563.598 345.457 563.572 344.876C563.428 341.867 559.944 340.312 556.989 340.077C554.034 339.841 550.737 340.126 548.453 338.216C550.041 334.371 556.218 333.342 556.472 329.192C556.664 326.01 552.688 324.017 549.653 324.876C546.625 325.732 544.417 328.31 542.224 330.608C538.224 334.795 533.662 338.43 528.696 341.372C527.615 342.013 525.848 342.397 525.447 341.202C525.306 340.772 525.439 340.3 525.621 339.882C526.538 337.844 528.639 336.678 530.131 335.022C531.625 333.373 532.306 330.373 530.472 329.156C529.585 328.568 528.414 328.643 527.401 328.954C524.235 329.909 521.975 332.771 520.379 335.713C518.783 338.656 517.626 341.874 515.582 344.521C514.709 345.654 513.03 346.698 512.019 345.702C511.094 344.789 511.816 343.222 512.521 342.11C513.289 340.904 514.015 339.608 514.126 338.186C514.236 336.764 513.544 335.181 512.219 334.715C511.552 334.48 510.813 334.554 510.141 334.767C506.867 335.838 505.537 339.821 505.259 343.296C504.98 346.771 505.194 350.536 503.235 353.414L501.639 354.34Z" fill="#EA9188"/>
</g>
<g filter="url(#filter6_d)">
<path d="M89.2097 202.264C92.0662 205.049 85.1576 206.476 81.1766 206.538C78.5676 206.577 76.0464 205.642 73.4554 205.315C70.1542 204.89 66.7258 205.483 63.7656 206.995C61.8713 207.961 59.9668 209.792 60.4271 211.864C60.6589 212.925 61.4851 213.744 62.3044 214.461C65.8588 217.539 70.2 219.7 74.7944 220.7C77.3933 221.273 114.365 236.199 121.097 234.029C121.677 233.838 122.3 233.381 122.617 233.055C131.361 224.044 144.734 205.491 148.953 188.514C150.088 183.928 150.666 178.471 147.418 175.025C144.186 171.577 138.422 171.859 134.322 174.202C130.222 176.544 127.32 180.459 124.252 184.039C121.183 187.618 117.559 191.124 112.935 192.102C118.805 178.398 124.684 164.703 130.562 150.991C132.983 145.335 135.445 139.524 135.705 133.376C135.811 130.766 135.427 127.934 133.631 126.044C130.886 123.149 125.86 123.696 122.728 126.186C119.594 128.658 117.908 132.493 116.382 136.181C110.112 151.268 104.463 166.627 99.4536 182.181C98.2426 182.838 97.1767 181.095 96.9257 179.746C93.7825 162.226 101.529 144.743 103.418 127.032C103.971 121.84 103.449 115.532 98.8789 112.996C94.1078 110.363 88.0073 113.865 85.119 118.492C78.4241 129.232 82.6851 143.421 79.387 155.639C73.4398 147.192 70.087 136.96 69.8565 126.631C69.7474 121.814 70.2912 116.868 68.8326 112.285C67.374 107.702 63.0588 103.513 58.2988 104.228C54.7984 104.758 52.1015 107.804 50.9511 111.154C49.8177 114.502 49.9155 118.133 50.0325 121.67C50.1528 125.511 50.2743 129.369 51.0756 133.123C52.1661 138.163 54.479 142.842 57.0328 147.319C58.2235 149.41 59.4807 151.48 61.133 153.243C63.0869 155.335 65.5146 156.903 67.6981 158.75C71.3189 161.807 74.279 165.637 76.3195 169.919C77.1479 171.661 77.8356 173.582 77.4866 175.471C77.1376 177.36 75.3716 179.105 73.4683 178.791C72.3878 178.609 71.5144 177.845 70.6939 177.111C67.5278 174.261 64.3696 171.402 61.2036 168.552C60.0938 167.549 58.9401 166.524 57.5197 166.076C53.3012 164.737 49.2874 169.143 48.3543 173.461C47.0811 179.422 49.385 186.001 54.0942 189.867C63.4112 197.48 80.6039 193.875 89.2097 202.264Z" fill="#F7D29A"/>
</g>
<g filter="url(#filter7_d)">
<path d="M160.398 178.256C172.613 170.241 174.875 149.09 171.644 133.78C170.773 129.651 168.948 125.397 165.343 123.243C161.738 121.092 156.115 122.202 154.772 126.201C154.416 127.266 154.383 128.41 154.231 129.522C153.94 131.711 153.194 133.806 152.457 135.884C150.466 141.477 148.48 147.066 146.489 152.658C145.756 154.719 144.771 157.038 142.705 157.72C139.724 158.705 136.858 155.323 136.769 152.159C136.684 149 138.286 146.081 139.215 143.059C140.611 138.51 140.479 133.646 140.333 128.884C139.95 116.447 139.568 104.009 139.186 91.5718C139.048 87.0558 138.805 82.2237 136.119 78.6092C133.432 74.9947 127.345 73.6521 124.57 77.2002C123.687 78.3291 123.274 79.7546 122.911 81.1509C119.589 93.9402 118.898 107.413 120.896 120.477C121.815 126.487 123.296 132.559 122.395 138.571C122.085 140.648 120.879 143.148 118.798 142.978C117.766 142.895 116.926 142.131 116.248 141.345C112.197 136.639 111.267 130.057 110.505 123.873C109.064 112.17 107.627 100.462 106.186 88.7592C105.532 83.4552 104.855 78.0475 102.622 73.1975C100.388 68.3475 96.309 64.0544 91.1094 62.9727C89.9946 62.7422 88.7744 62.6733 87.7782 63.2236C86.506 63.9197 85.9114 65.4237 85.5873 66.8465C84.6103 71.1363 85.2271 75.6221 86.0088 79.9559C90.8662 106.895 102.048 132.652 118.381 154.528C113.859 153.036 109.26 151.772 104.615 150.747C102.199 150.214 98.4875 150.931 98.9953 153.371C99.145 154.084 99.6773 154.649 100.228 155.123C106.433 160.474 116.356 159.363 122.561 164.713C123.621 165.627 124.584 167.171 123.812 168.341C123.408 168.953 122.656 169.215 121.968 169.466C118.968 170.549 116.155 172.155 113.689 174.194C112.155 175.462 110.634 177.449 111.434 179.275C112.013 180.597 113.545 181.149 114.922 181.552C128.399 185.474 149.286 185.753 160.523 178.207C160.514 178.202 160.368 178.273 160.398 178.256Z" fill="#E5B7A8"/>
</g>
<g filter="url(#filter8_d)">
<path d="M485.068 426.206C485.261 427.132 482.192 424.514 481.674 422.94C481.07 421.15 482.255 419.182 481.948 417.316C481.361 413.745 476.887 412.479 473.267 412.435C469.934 412.396 466.44 412.809 463.679 414.663C459.605 417.398 458.079 422.545 456.055 427.014C453.955 431.68 451.031 435.963 447.473 439.64C444.823 442.365 441.822 444.777 439.478 447.771C437.133 450.766 435.485 454.583 436.145 458.336C437.095 463.76 442.934 467.43 448.429 467.064C453.912 466.687 458.768 462.992 461.765 458.374C464.762 453.757 466.154 448.303 467.204 442.902C469.671 443.8 470.068 447.1 469.851 449.724C468.404 466.403 458.87 481.153 449.372 494.948C445.913 499.978 442.314 506.401 445.216 511.781C448.238 517.365 456.777 517.504 461.873 513.723C466.968 509.943 469.492 503.705 471.886 497.837C474.368 491.761 476.965 485.728 479.69 479.749C480.926 477.022 483.955 473.805 486.273 475.705C487.115 476.399 487.429 477.575 487.466 478.665C487.622 482.499 485.391 485.939 483.362 489.19C476.942 499.388 471.582 510.263 467.405 521.571C465.066 527.873 463.083 534.628 464.267 541.241C465.451 547.855 470.753 554.179 477.467 554.371C484.088 554.566 489.634 548.856 491.813 542.603C493.991 536.35 493.676 529.556 494.009 522.954C494.452 514.144 496.093 505.444 497.734 496.768C497.929 495.764 498.349 494.525 499.37 494.444C499.978 494.396 500.528 494.832 500.951 495.282C505.06 499.634 504.147 506.491 503.892 512.47C503.637 518.45 505.565 525.954 511.45 527.061C515.177 527.769 518.743 525.471 521.841 523.264C524.306 521.508 526.882 519.634 528.141 516.883C530.011 512.739 528.373 507.893 526.34 503.838C521.37 493.922 514.083 485.184 505.201 478.538C502.162 476.264 498.827 474.088 497.119 470.703C495.411 467.318 496.25 462.302 499.817 461.037C503.943 459.565 507.726 463.764 510.085 467.456C512.443 471.148 516.124 475.384 520.298 474.048C523.252 473.096 524.633 469.653 524.735 466.56C524.959 458.709 518.425 451.275 510.629 450.475C506.588 450.073 502.57 451.221 498.507 451.382C494.444 451.543 489.832 450.304 487.969 446.705C485.819 442.56 489.27 436.715 493.932 436.609C497.538 436.527 500.631 439.191 504.193 439.719C507.951 440.277 511.946 438.118 513.556 434.669C515.167 431.221 514.192 426.762 511.333 424.277C507.852 421.243 502.605 421.396 498.164 422.612C493.722 423.827 489.462 425.934 484.875 426.314" fill="#A9BFDE"/>
</g>
<g clip-path="url(#clip1)" filter="url(#filter9_d)">
<path d="M416.344 106.696C425.365 108.646 434.238 106.579 443.337 108.144C450.396 109.362 455.078 115.184 461.528 112.088C462.33 111.702 465.593 109.642 465.746 108.769C467.157 107.799 470.172 108.839 472.04 106.004C472.593 103.93 474.254 97.7068 471.696 94.802C468.731 91.4345 466.485 89.3962 462.052 88.6381C457.62 87.8801 453.241 89.9599 449.247 92.0334C445.252 94.1012 440.962 96.2853 436.496 95.7424C435.781 95.6576 435.029 95.4725 434.538 94.9469C433.678 94.0214 434.022 92.529 434.563 91.3854C436.121 88.0636 438.903 85.3348 442.259 83.8333C444.846 82.6712 447.693 82.2447 450.501 81.825C462.289 80.0615 474.077 78.3035 485.871 76.5398C487.688 76.2692 489.629 75.9441 490.98 74.6965C492.052 73.7166 492.596 72.2969 492.982 70.8989C494.101 66.8696 494.11 62.2439 491.658 58.8495C488.303 54.1987 481.4 53.4441 475.987 55.3589C470.575 57.2736 466.193 61.2409 461.655 64.7567C454.75 70.1095 447.167 74.5932 439.141 78.0709C445.191 68.8628 448.937 57.8897 457.161 50.5522C465.994 42.6718 478.372 40.411 490.063 38.4533C492.56 38.0377 495.579 37.1382 496.062 34.6611C496.413 32.853 495.057 31.0584 493.377 30.2881C491.696 29.5177 489.78 29.5153 487.927 29.5391C487.393 26.2035 486.551 22.9225 485.418 19.7463C484.854 18.175 484.026 16.443 482.418 15.9803C480.193 15.3339 478.23 17.4795 476.864 19.353C468.361 30.9866 458.13 41.3668 446.614 50.0518C450.912 35.9234 454.634 21.6269 457.769 7.20225C458.041 5.95431 458.232 4.45537 457.295 3.58306C456.16 2.53097 454.283 3.24848 453.139 4.28687C451.996 5.32526 450.999 6.71403 449.489 7.05393C447.137 7.589 445.151 5.36893 443.768 3.40623C437.206 9.64977 437.72 19.9835 437.729 29.0201C437.739 42.9752 435.375 56.9365 430.77 70.1166C430.329 71.3755 429.359 72.9042 428.086 72.51C427.133 72.2185 426.842 71.0444 426.715 70.0623C425.864 63.4069 425.666 56.6635 426.136 49.967C426.734 41.3904 428.349 32.399 425.027 24.4626C424.343 22.833 423.192 21.0941 421.429 20.9235C418.775 20.668 417.318 23.9697 417.14 26.6232C416.963 29.2767 416.949 32.4716 414.674 33.855C413.332 34.6742 411.597 34.5309 410.159 35.1728C407.494 36.3655 406.694 39.737 406.592 42.6473C406.002 60.2043 418.389 76.0734 418.652 93.6433C415.651 92.2154 414.323 88.7579 413.259 85.6191C410.949 78.7836 408.645 71.9535 406.335 65.118C405.856 63.7019 405.161 62.0783 403.698 61.752C400.305 60.9841 399.964 67.2935 396.761 68.6382C394.239 69.6969 391.134 67.1003 388.739 68.4255C386.711 69.5534 386.904 72.5052 387.561 74.7271C391.486 87.8957 405.252 104.297 416.344 106.696Z" fill="#5085A7"/>
</g>
<g filter="url(#filter10_d)">
<path d="M111.812 377.123C104.756 377.706 96.823 383.405 89.5785 387.072C87.6371 388.048 85.6018 389.157 84.5255 391.049C82.9264 393.855 84.0729 397.659 86.5233 399.764C88.9737 401.868 92.4164 402.506 95.641 402.294C98.8656 402.083 101.979 401.12 105.119 400.372C107.11 399.901 110.072 400.198 110.116 402.247C110.131 402.876 109.807 403.468 109.437 403.982C107.713 406.395 104.924 407.815 102.139 408.843C92.532 412.403 81.5396 412.599 73.0599 418.334C69.8796 420.492 66.9833 424.057 67.809 427.818C68.4785 430.863 71.484 432.965 74.5575 433.541C77.6309 434.116 80.7767 433.476 83.8279 432.841C86.5781 432.269 89.368 431.681 91.9061 430.484C97.8256 427.68 101.953 421.735 108.156 419.634C109.146 419.304 110.305 419.087 111.185 419.656C112.598 420.563 112.31 422.738 111.535 424.221C109.376 428.356 105.071 430.852 100.906 432.96C94.9509 435.976 88.7949 438.671 83.2832 442.442C77.7714 446.213 72.8577 451.198 70.5432 457.46C70.2562 458.24 70.0073 459.093 70.2032 459.909C70.4236 460.797 71.1391 461.464 71.8746 462.007C77.5488 466.243 85.6754 465.786 91.9971 462.676C98.3188 459.567 103.227 454.243 107.886 448.954C110.219 446.305 112.758 443.484 116.202 442.726C117.197 444.488 116 446.629 114.821 448.262C107.47 458.44 99.3773 468.081 90.6113 477.081C87.9131 479.85 84.9457 483.121 85.3496 486.965C85.759 490.904 89.9231 493.723 93.8766 493.589C97.8301 493.454 101.379 490.985 103.864 487.923C106.349 484.86 107.966 481.2 109.775 477.686C111.584 474.172 113.686 470.689 116.834 468.309C117.515 467.793 118.334 467.323 119.176 467.475C120.367 467.696 120.998 469.132 120.803 470.327C120.607 471.522 119.846 472.53 119.158 473.514C116.75 476.979 114.986 481.046 115.033 485.274C115.08 489.503 117.199 493.859 120.961 495.806C121.785 496.237 122.669 496.542 123.591 496.676C128.268 497.343 132.475 493.146 133.641 488.569C134.806 483.992 133.745 479.188 132.875 474.542C132.639 473.269 132.43 471.878 133.028 470.737C133.626 469.595 135.394 469.014 136.243 470.005C136.722 470.562 136.727 471.36 136.729 472.091C136.759 476.625 137.602 481.157 139.188 485.406C139.564 486.422 140.009 487.448 140.796 488.178C142.828 490.074 146.383 489.121 148.099 486.945C149.809 484.763 150.155 481.834 150.321 479.063C150.6 474.628 150.572 470.019 148.8 465.936C146.047 459.616 139.711 455.774 133.817 452.187C131.775 450.947 129.709 449.648 128.24 447.77C126.771 445.891 126.018 443.27 126.935 441.082C127.125 440.626 127.392 440.199 127.796 439.92C128.703 439.324 129.925 439.74 130.864 440.286C136.692 443.674 139.725 451.421 146.293 452.949C147.666 453.269 149.168 453.257 150.396 452.59C152.531 451.441 153.272 448.559 152.557 446.241C151.841 443.923 149.996 442.104 147.981 440.735C143.963 437.996 139.159 436.639 134.944 434.221C130.728 431.804 126.836 427.718 126.95 422.864C126.97 421.922 127.171 420.937 127.808 420.24C128.79 419.186 130.523 419.176 131.813 419.818C133.103 420.461 134.056 421.609 134.979 422.718C137.395 425.623 140.058 428.61 143.652 429.753C147.246 430.897 151.957 429.341 152.864 425.685C153.38 423.586 152.54 421.349 151.274 419.589C146.503 412.922 137.174 412.021 129.612 408.859C127.342 407.903 124.909 406.339 124.634 403.903C124.338 401.346 126.736 399.128 129.253 398.616C131.776 398.096 134.369 398.806 136.881 399.39C139.702 400.047 142.642 400.541 145.472 399.938C148.295 399.342 151.009 397.432 151.784 394.656C152.609 391.695 150.996 388.381 148.421 386.69C145.838 384.992 142.389 384.247 139.513 385.333C129.122 389.28 119.01 376.526 111.812 377.123Z" fill="#3A5751"/>
</g>
<g filter="url(#filter11_d)">
<path fill-rule="evenodd" clip-rule="evenodd" d="M77.1329 301.463C75.0675 270.199 97.5111 201.555 114.39 175.372C129.738 151.563 165.902 159.067 184.363 137.68C206.176 112.409 206.169 91.3062 237.387 80.3582C268.214 69.5475 304.772 80.4667 332.364 98.1713C358.782 115.123 401.422 75.2477 437.29 80.3583C471.395 89.0315 519.899 126.329 527.055 169.302C534.26 212.565 497.999 257.435 494.454 294.167C491.354 326.298 514.259 359.778 509.58 391.709C504.354 427.373 470.83 482.425 437.29 493.837C397.364 507.422 362.05 454.434 320.163 450.236C294.618 447.675 273.259 479.858 248.062 474.869C222.971 469.9 164.698 477.306 144.605 461.194C124.368 444.965 126.456 396.812 108.824 377.68C87.5574 354.605 79.2203 333.059 77.1329 301.463Z" fill="#F0D9C1"/>
</g>
<defs>
<filter id="filter0_d" x="444.684" y="87.4805" width="154.074" height="190.583" filterUnits="userSpaceOnUse" color-interpolation-filters="sRGB">
<feFlood flood-opacity="0" result="BackgroundImageFix"/>
<feColorMatrix in="SourceAlpha" type="matrix" values="0 0 0 0 0 0 0 0 0 0 0 0 0 0 0 0 0 0 127 0"/>
<feMorphology radius="2" operator="dilate" in="SourceAlpha" result="effect1_dropShadow"/>
<feOffset dy="1"/>
<feGaussianBlur stdDeviation="1"/>
<feColorMatrix type="matrix" values="0 0 0 0 0.203837 0 0 0 0 0.225675 0 0 0 0 0.245833 0 0 0 0.18 0"/>
<feBlend mode="normal" in2="BackgroundImageFix" result="effect1_dropShadow"/>
<feBlend mode="normal" in="SourceGraphic" in2="effect1_dropShadow" result="shape"/>
</filter>
<filter id="filter1_d" x="20.2269" y="192.028" width="116.662" height="128.637" filterUnits="userSpaceOnUse" color-interpolation-filters="sRGB">
<feFlood flood-opacity="0" result="BackgroundImageFix"/>
<feColorMatrix in="SourceAlpha" type="matrix" values="0 0 0 0 0 0 0 0 0 0 0 0 0 0 0 0 0 0 127 0"/>
<feMorphology radius="2" operator="dilate" in="SourceAlpha" result="effect1_dropShadow"/>
<feOffset dy="1"/>
<feGaussianBlur stdDeviation="1"/>
<feColorMatrix type="matrix" values="0 0 0 0 0.203837 0 0 0 0 0.225675 0 0 0 0 0.245833 0 0 0 0.18 0"/>
<feBlend mode="normal" in2="BackgroundImageFix" result="effect1_dropShadow"/>
<feBlend mode="normal" in="SourceGraphic" in2="effect1_dropShadow" result="shape"/>
</filter>
<filter id="filter2_d" x="438.43" y="54.6133" width="126.338" height="109.702" filterUnits="userSpaceOnUse" color-interpolation-filters="sRGB">
<feFlood flood-opacity="0" result="BackgroundImageFix"/>
<feColorMatrix in="SourceAlpha" type="matrix" values="0 0 0 0 0 0 0 0 0 0 0 0 0 0 0 0 0 0 127 0"/>
<feMorphology radius="2" operator="dilate" in="SourceAlpha" result="effect1_dropShadow"/>
<feOffset dy="1"/>
<feGaussianBlur stdDeviation="1"/>
<feColorMatrix type="matrix" values="0 0 0 0 0.203837 0 0 0 0 0.225675 0 0 0 0 0.245833 0 0 0 0.18 0"/>
<feBlend mode="normal" in2="BackgroundImageFix" result="effect1_dropShadow"/>
<feBlend mode="normal" in="SourceGraphic" in2="effect1_dropShadow" result="shape"/>
</filter>
<filter id="filter3_d" x="103" y="421" width="142.583" height="144.237" filterUnits="userSpaceOnUse" color-interpolation-filters="sRGB">
<feFlood flood-opacity="0" result="BackgroundImageFix"/>
<feColorMatrix in="SourceAlpha" type="matrix" values="0 0 0 0 0 0 0 0 0 0 0 0 0 0 0 0 0 0 127 0"/>
<feMorphology radius="2" operator="dilate" in="SourceAlpha" result="effect1_dropShadow"/>
<feOffset dy="1"/>
<feGaussianBlur stdDeviation="1"/>
<feColorMatrix type="matrix" values="0 0 0 0 0.203837 0 0 0 0 0.225675 0 0 0 0 0.245833 0 0 0 0.18 0"/>
<feBlend mode="normal" in2="BackgroundImageFix" result="effect1_dropShadow"/>
<feBlend mode="normal" in="SourceGraphic" in2="effect1_dropShadow" result="shape"/>
</filter>
<filter id="filter4_d" x="35.6754" y="342.846" width="71.0737" height="64.5607" filterUnits="userSpaceOnUse" color-interpolation-filters="sRGB">
<feFlood flood-opacity="0" result="BackgroundImageFix"/>
<feColorMatrix in="SourceAlpha" type="matrix" values="0 0 0 0 0 0 0 0 0 0 0 0 0 0 0 0 0 0 127 0"/>
<feMorphology radius="2" operator="dilate" in="SourceAlpha" result="effect1_dropShadow"/>
<feOffset dy="1"/>
<feGaussianBlur stdDeviation="1"/>
<feColorMatrix type="matrix" values="0 0 0 0 0.203837 0 0 0 0 0.225675 0 0 0 0 0.245833 0 0 0 0.18 0"/>
<feBlend mode="normal" in2="BackgroundImageFix" result="effect1_dropShadow"/>
<feBlend mode="normal" in="SourceGraphic" in2="effect1_dropShadow" result="shape"/>
</filter>
<filter id="filter5_d" x="484" y="312" width="87.1327" height="74.4202" filterUnits="userSpaceOnUse" color-interpolation-filters="sRGB">
<feFlood flood-opacity="0" result="BackgroundImageFix"/>
<feColorMatrix in="SourceAlpha" type="matrix" values="0 0 0 0 0 0 0 0 0 0 0 0 0 0 0 0 0 0 127 0"/>
<feMorphology radius="2" operator="dilate" in="SourceAlpha" result="effect1_dropShadow"/>
<feOffset dy="1"/>
<feGaussianBlur stdDeviation="1"/>
<feColorMatrix type="matrix" values="0 0 0 0 0.203837 0 0 0 0 0.225675 0 0 0 0 0.245833 0 0 0 0.18 0"/>
<feBlend mode="normal" in2="BackgroundImageFix" result="effect1_dropShadow"/>
<feBlend mode="normal" in="SourceGraphic" in2="effect1_dropShadow" result="shape"/>
</filter>
<filter id="filter6_d" x="0" y="75" width="184.523" height="182.484" filterUnits="userSpaceOnUse" color-interpolation-filters="sRGB">
<feFlood flood-opacity="0" result="BackgroundImageFix"/>
<feColorMatrix in="SourceAlpha" type="matrix" values="0 0 0 0 0 0 0 0 0 0 0 0 0 0 0 0 0 0 127 0"/>
<feMorphology radius="2" operator="dilate" in="SourceAlpha" result="effect1_dropShadow"/>
<feOffset dy="1"/>
<feGaussianBlur stdDeviation="1"/>
<feColorMatrix type="matrix" values="0 0 0 0 0.203837 0 0 0 0 0.225675 0 0 0 0 0.245833 0 0 0 0.18 0"/>
<feBlend mode="normal" in2="BackgroundImageFix" result="effect1_dropShadow"/>
<feBlend mode="normal" in="SourceGraphic" in2="effect1_dropShadow" result="shape"/>
</filter>
<filter id="filter7_d" x="81.085" y="59.8013" width="95.887" height="129.457" filterUnits="userSpaceOnUse" color-interpolation-filters="sRGB">
<feFlood flood-opacity="0" result="BackgroundImageFix"/>
<feColorMatrix in="SourceAlpha" type="matrix" values="0 0 0 0 0 0 0 0 0 0 0 0 0 0 0 0 0 0 127 0"/>
<feMorphology radius="2" operator="dilate" in="SourceAlpha" result="effect1_dropShadow"/>
<feOffset dy="1"/>
<feGaussianBlur stdDeviation="1"/>
<feColorMatrix type="matrix" values="0 0 0 0 0.203837 0 0 0 0 0.225675 0 0 0 0 0.245833 0 0 0 0.18 0"/>
<feBlend mode="normal" in2="BackgroundImageFix" result="effect1_dropShadow"/>
<feBlend mode="normal" in="SourceGraphic" in2="effect1_dropShadow" result="shape"/>
</filter>
<filter id="filter8_d" x="394.217" y="392.703" width="176.553" height="176.632" filterUnits="userSpaceOnUse" color-interpolation-filters="sRGB">
<feFlood flood-opacity="0" result="BackgroundImageFix"/>
<feColorMatrix in="SourceAlpha" type="matrix" values="0 0 0 0 0 0 0 0 0 0 0 0 0 0 0 0 0 0 127 0"/>
<feMorphology radius="2" operator="dilate" in="SourceAlpha" result="effect1_dropShadow"/>
<feOffset dy="1"/>
<feGaussianBlur stdDeviation="1"/>
<feColorMatrix type="matrix" values="0 0 0 0 0.203837 0 0 0 0 0.225675 0 0 0 0 0.245833 0 0 0 0.18 0"/>
<feBlend mode="normal" in2="BackgroundImageFix" result="effect1_dropShadow"/>
<feBlend mode="normal" in="SourceGraphic" in2="effect1_dropShadow" result="shape"/>
</filter>
<filter id="filter9_d" x="379.598" y="-2" width="121.708" height="128.13" filterUnits="userSpaceOnUse" color-interpolation-filters="sRGB">
<feFlood flood-opacity="0" result="BackgroundImageFix"/>
<feColorMatrix in="SourceAlpha" type="matrix" values="0 0 0 0 0 0 0 0 0 0 0 0 0 0 0 0 0 0 127 0"/>
<feMorphology radius="2" operator="dilate" in="SourceAlpha" result="effect1_dropShadow"/>
<feOffset dy="1"/>
<feGaussianBlur stdDeviation="1"/>
<feColorMatrix type="matrix" values="0 0 0 0 0.203837 0 0 0 0 0.225675 0 0 0 0 0.245833 0 0 0 0.18 0"/>
<feBlend mode="normal" in2="BackgroundImageFix" result="effect1_dropShadow"/>
<feBlend mode="normal" in="SourceGraphic" in2="effect1_dropShadow" result="shape"/>
</filter>
<filter id="filter10_d" x="63.6666" y="374.103" width="93.3518" height="127.643" filterUnits="userSpaceOnUse" color-interpolation-filters="sRGB">
<feFlood flood-opacity="0" result="BackgroundImageFix"/>
<feColorMatrix in="SourceAlpha" type="matrix" values="0 0 0 0 0 0 0 0 0 0 0 0 0 0 0 0 0 0 127 0"/>
<feMorphology radius="2" operator="dilate" in="SourceAlpha" result="effect1_dropShadow"/>
<feOffset dy="1"/>
<feGaussianBlur stdDeviation="1"/>
<feColorMatrix type="matrix" values="0 0 0 0 0.203837 0 0 0 0 0.225675 0 0 0 0 0.245833 0 0 0 0.18 0"/>
<feBlend mode="normal" in2="BackgroundImageFix" result="effect1_dropShadow"/>
<feBlend mode="normal" in="SourceGraphic" in2="effect1_dropShadow" result="shape"/>
</filter>
<filter id="filter11_d" x="73" y="73.0586" width="459" height="428" filterUnits="userSpaceOnUse" color-interpolation-filters="sRGB">
<feFlood flood-opacity="0" result="BackgroundImageFix"/>
<feColorMatrix in="SourceAlpha" type="matrix" values="0 0 0 0 0 0 0 0 0 0 0 0 0 0 0 0 0 0 127 0"/>
<feMorphology radius="2" operator="dilate" in="SourceAlpha" result="effect1_dropShadow"/>
<feOffset dy="1"/>
<feGaussianBlur stdDeviation="1"/>
<feColorMatrix type="matrix" values="0 0 0 0 0.203837 0 0 0 0 0.225675 0 0 0 0 0.245833 0 0 0 0.18 0"/>
<feBlend mode="normal" in2="BackgroundImageFix" result="effect1_dropShadow"/>
<feBlend mode="normal" in="SourceGraphic" in2="effect1_dropShadow" result="shape"/>
</filter>
<clipPath id="clip0">
<rect width="39.591" height="69.3691" fill="white" transform="matrix(0.426407 0.904531 -0.897386 0.441247 550.251 315)"/>
</clipPath>
<clipPath id="clip1">
<rect width="116.766" height="110.134" fill="white" transform="translate(493.679 1) rotate(88.22)"/>
</clipPath>
</defs>
</svg>
