<?xml version="1.0" encoding="utf-8"?>
<!-- Generator: Adobe Illustrator 25.0.1, SVG Export Plug-In . SVG Version: 6.00 Build 0)  -->
<svg version="1.1" id="Layer_1" xmlns="http://www.w3.org/2000/svg" xmlns:xlink="http://www.w3.org/1999/xlink" x="0px" y="0px"
	 viewBox="0 0 725 681" style="enable-background:new 0 0 725 681;" xml:space="preserve">
<style type="text/css">
	.st0{fill:#A9BFDE;}
	.st1{fill:#A1A59F;}
	.st2{fill:#3A5751;}
	.st3{fill:#E67D0A;}
	.st4{fill:#5085A7;}
	.st5{fill:#F7D29A;}
	.st6{fill:#E5B7A8;}
	.st7{clip-path:url(#SVGID_2_);}
	.st8{clip-path:url(#SVGID_4_);}
	.st9{fill:#EA9188;}
	.st10{fill-rule:evenodd;clip-rule:evenodd;fill:#F0D9C1;}
</style>
<path class="st0" d="M537,170.6c16.7,2.2,51.1-1.8,55.6-17.4c2.1-7.3,1.5-15.1,2.5-22.6c0.9-7.5,3.8-15.6,10.6-19.6
	c4.7-2.8,10.6-3.2,16.1-3c2.8,0.1,5.7,0.4,8.2,1.7c5.9,3.2,6.8,11.4,4.3,17.5c-2.6,6.1-7.7,10.9-11.7,16.2
	c-6.7,8.9-10.7,19.7-11.3,30.6c-0.2,2.8,0.6,6.5,3.5,7c0.8,0.2,1.7,0,2.5-0.2c9.2-2.1,16.3-9,22.7-15.7c6.4-6.7,13.2-13.7,22.3-16.4
	c9.1-2.6,20.9,1.3,22.7,10.2c1.5,7.3-4.2,14.2-10.5,18.6c-17.3,12.1-41.3,13.4-57.5,26.9c19.7,2,39.8,0.4,58.9-4.7
	c6.9-1.8,13.8-4.1,20.9-3.7c7.1,0.4,14.6,4.3,16.3,10.9c0.7,2.7,0.4,5.6,0,8.4c-0.7,5.4-1.9,11.3-6.2,14.8c-6.1,4.9-15.1,3-22.7,1
	c-15.8-4.2-31.8-7.5-48-10c-5.5-0.8-13.2-0.2-14.1,5.1c20.7,9.5,45,8.5,66.8,15.5c9.3,3,19.5,9.7,18.5,19.2
	c-1,9.6-13.7,14.5-23.4,12.2c-9.7-2.3-17.4-9.2-25.6-14.7c-8.9-6.1-19-10.7-29.5-13.7c-1-0.3-2.2-0.6-3.2-0.2
	c-1.9,0.7-2.2,3.5-1,5.1c1.2,1.6,3.3,2.4,5.2,3.1c16.8,6,32.6,14.3,47.1,24.3c6.3,4.3,12.7,9.4,15.3,16.5c2.6,7.1-0.4,16.5-7.9,18.7
	c-7.8,2.3-15.3-3.8-20.8-9.4c-12.4-12.5-24.9-25-37.3-37.5c-2.3,3.5,0.7,7.8,3.4,11c10.6,12.6,18.3,29.2,13.5,44.8
	c-1,3.1-2.8,6.4-6.1,7.1c-4.1,0.9-7.5-2.7-9.7-6c-9.9-15-13.9-32.8-17-50.3c-3.1-17.5-5.1-39-12.2-55.4c-8.7-20.2-23.5-31-39.1-31.2
	c-6.3-0.1-19-2.6-16.4-5.4L537,170.6z"/>
<path class="st1" d="M115.1,352c-1.6,3.4-4.4,6.6-8,6.8c-1.9,0.1-3.8-0.6-5.8-0.9c-6.6-0.8-13.1,5.7-12.2,12.5
	c0.9,6.7,8.8,11.5,15,9c6.1-2.4,9.5-10,16-10.8c8.5-1,16.4,10.5,24,6.5c2.7-1.4,4.1-4.3,5.2-7.1c6.9-17.2,8.2-36.7,3.8-54.8
	c-1.3-5.3-4.1-11.4-9.4-12c-4-0.4-7.6,2.6-9.2,6.4c-1.6,3.7-1.5,7.9-1.5,11.9c0.1,4.3,0.2,8.5,0.2,12.8c-3.4-0.4-5-4.3-5.9-7.6
	c-3.9-14.7-7.2-29.5-9.6-44.5c-0.8-5-1.6-10.3-4.4-14.5c-2.7-4.3-8-7.4-12.8-6c-5.7,1.7-8,8.9-7,14.8c1,5.9,4.4,11.2,6.6,16.8
	c2.2,5.6,3.2,12.4-0.3,17.2c-19.7-18-16.3-53.6-37.4-70c-4.5-3.5-10.9-5.7-15.6-2.7c-4.1,2.6-5.3,8.3-4,13.1c1.3,4.7,4.6,8.6,8,12.2
	c7.4,7.7,16.7,16.3,15,26.9c-4.8,2-10.9,0.5-14.3-3.6c-3.4-4.1-5.2-11.1-10.5-11.1c-1.4,0-2.8,0.5-4,1.1
	c-5.8,2.8-11.1,7.5-12.4,13.9c-1.8,9.1,6.1,18.2,15.1,20.1c5.9,1.3,12,0.1,18,0.5c9.3,0.5,18.2,4.3,26.6,8.4c1.9,0.9,3.9,1.9,5,3.7
	c2.7,4.1-0.8,10.1-5.5,11.4c-4.7,1.3-9.7-0.7-14.1-3c-4-2.1-8.7-4.6-12.9-2.8c-4.4,1.9-5.6,8-3.8,12.5c1.9,4.5,6,7.5,10.1,10
	c4,2.3,8.7,4.4,13,3c2.7-0.8,4.9-2.8,7.1-4.6c6.5-5.1,14.2-8.7,22.2-10.4c2.7-0.6,5.6-0.9,8.1,0.4s4.2,4.6,2.7,7
	C116.6,344.3,116.7,348.6,115.1,352z"/>
<path class="st2" d="M542.2,172.2c4.9,6.8,15.5,11.3,23.6,16.3c2.2,1.4,4.5,2.7,7.1,2.7c3.8-0.1,6.9-3.6,7.6-7.3
	c0.6-3.8-0.8-7.6-3-10.7c-2.2-3.1-5.1-5.7-7.7-8.4c-1.7-1.7-3.2-4.9-1.2-6.2c0.6-0.4,1.4-0.4,2.2-0.4c3.5,0.3,6.6,2.2,9.4,4.4
	c9.5,7.5,16.4,18.5,27.4,23.5c4.1,1.9,9.5,2.6,12.8-0.5c2.7-2.5,2.9-6.9,1.6-10.3s-3.9-6.2-6.4-8.9c-2.3-2.4-4.6-4.9-7.3-6.7
	c-6.5-4.2-15-4.8-20.9-9.7c-0.9-0.8-1.9-1.8-1.8-3.1c0-2,2.4-3,4.4-3.1c5.5-0.4,10.6,2.5,15.3,5.4c6.7,4.2,13.2,8.7,20.4,11.9
	c7.2,3.2,15.2,5.1,22.9,3.6c1-0.2,2-0.5,2.7-1.2c0.8-0.8,1-1.9,1.1-3c0.8-8.3-4.6-16.2-11.6-20.7s-15.4-6.2-23.6-7.6
	c-4.1-0.7-8.5-1.6-11.4-4.6c1.2-2.1,4.1-2.2,6.4-2c14.8,1.2,29.4,3.4,43.9,6.7c4.4,1,9.6,2,13.2-0.8c3.7-2.8,4-8.7,1.5-12.6
	c-2.6-3.9-7.2-6-11.8-6.6c-4.6-0.6-9.3,0-13.9,0.3c-4.7,0.3-9.5,0.3-13.8-1.4c-0.9-0.4-1.9-0.9-2.3-1.8c-0.5-1.3,0.6-2.8,1.9-3.4
	c1.3-0.5,2.8-0.4,4.2-0.3c5,0.3,10.2-0.4,14.4-3c4.2-2.6,7.3-7.4,7-12.4c-0.1-1.1-0.3-2.2-0.7-3.2c-2.2-5.1-9-6.8-14.3-5.2
	c-5.3,1.6-9.5,5.6-13.7,9.4c-1.1,1-2.4,2.1-3.9,2.2c-1.5,0.1-3.2-1.3-2.7-2.8c0.3-0.8,1.1-1.3,1.8-1.8c4.6-2.8,8.6-6.4,11.9-10.6
	c0.8-1,1.6-2.1,1.8-3.3c0.7-3.2-2.5-6.2-5.7-6.6c-3.2-0.4-6.4,1.1-9.3,2.6c-4.6,2.4-9.3,5.3-12.3,9.6c-4.7,6.6-4.7,15.4-4.7,23.5
	c0,2.8,0,5.7-1,8.3c-1,2.6-3.2,5-5.9,5.4c-0.6,0.1-1.2,0.1-1.7-0.2c-1.2-0.5-1.5-2-1.5-3.3c-0.1-7.9,5.8-15.7,3.3-23.3
	c-0.5-1.6-1.4-3.1-2.9-3.9c-2.5-1.4-5.8-0.4-7.7,1.7c-1.9,2.1-2.6,5.1-2.8,8c-0.3,5.7,1.3,11.4,1.4,17.1c0.1,5.7-1.6,12.1-6.6,15
	c-1,0.6-2.1,1-3.2,0.7c-1.7-0.3-2.7-2.1-2.9-3.8c-0.1-1.7,0.4-3.4,1-5c1.5-4.2,2.8-8.7,1.8-13s-5.5-8.1-9.7-6.8
	c-2.4,0.8-4.2,3-5.2,5.3c-3.8,8.9,1,18.8,2.4,28.4c0.4,2.9,0.3,6.3-2,8c-2.4,1.9-6.1,0.8-8.2-1.4c-2.1-2.2-2.9-5.3-3.9-8.2
	c-1.1-3.2-2.4-6.5-4.7-9c-2.3-2.5-5.9-4-9.2-3.1c-3.5,1-5.8,4.6-6,8.3c-0.1,3.6,1.2,7.6,4.1,9.8
	C543.9,147.3,537.2,165.3,542.2,172.2z"/>
<path class="st3" d="M219.6,542.6c-7.7-1.9-17.2-12.2-19.1-9.7c-1.2,1.6-1.7,13.7-5.7,16.8c-6,12.4-22.4,13.3-29.8,16.9
	c-0.5,0.8-1,1.7-0.7,2.6c0.4,1.1,1.8,1.4,2.7,2.1c2.2,1.5,2.1,5.3-0.1,6.7c0.1,4.7,6.2,7.3,10.7,5.7c4.5-1.6,7.4-5.8,10-9.8
	c2.6-4,5.4-8.2,9.8-10c0.7-0.3,1.5-0.5,2.2-0.3c1.3,0.4,1.7,1.9,1.8,3.3c0.3,3.9-0.8,7.8-3.1,10.9c-1.8,2.4-4.2,4.3-6.5,6.1
	c-9.9,7.7-19.8,15.5-29.7,23.2c-1.5,1.2-3.1,2.5-3.7,4.3c-0.5,1.5-0.2,3,0.1,4.5c1.1,4.3,3.5,8.5,7.5,10.4
	c5.5,2.5,12.2-0.4,16.2-4.9c4-4.6,5.9-10.5,8.2-16.1c3.5-8.5,8.2-16.5,13.7-23.9c-0.8,11.6,1.5,23.6-2.2,34.6
	c-4,11.8-14.2,20.3-23.9,28.2c-2.1,1.7-4.4,4.1-3.5,6.6c0.6,1.8,2.8,2.8,4.7,2.6s3.7-1.2,5.4-2.1c2.2,2.8,4.7,5.3,7.4,7.7
	c1.3,1.1,3,2.3,4.7,1.9c2.4-0.6,3.1-3.5,3.3-6c1.7-15.1,5.7-29.9,11.8-43.8c3.4,15.2,7.4,30.2,12,45.1c0.4,1.3,1,2.8,2.3,3.1
	c1.6,0.4,2.9-1.3,3.4-2.8c0.5-1.5,0.7-3.3,1.9-4.4c1.9-1.7,4.9-0.7,7.1,0.4c2.8-9.1-3.1-18.3-7.8-26.6c-7.3-12.8-12.3-26.8-15-41.3
	c-0.2-1.4-0.2-3.3,1.2-3.6c1-0.2,1.9,0.7,2.5,1.5c4.2,5.7,7.9,11.7,11,18.1c3.9,8.2,7.1,17.2,14.3,22.8c1.5,1.1,3.4,2.1,5.1,1.4
	c2.6-1.1,2.2-4.9,1-7.5c-1.2-2.5-2.9-5.5-1.5-7.9c0.8-1.4,2.5-2.2,3.5-3.6c1.8-2.5,0.8-6-0.6-8.7c-8.6-16.4-28.2-24.5-37.5-40.5
	c3.5-0.2,6.5,2.2,9.1,4.6c5.7,5.1,11.3,10.1,17,15.2c1.2,1,2.7,2.2,4.2,1.7c3.5-1.1,0.5-7,2.8-9.9c1.8-2.3,6-1.5,7.5-4
	c1.3-2.1-0.4-4.7-2.2-6.4C242.7,547.8,231.2,545.4,219.6,542.6z"/>
<path class="st4" d="M110.7,430.9c-4.8-3.6-10.7-4.8-15.7-8.3c-3.9-2.7-7.7-6.2-12.4-6.1c-0.6,0-1.2,0.1-1.6,0.6
	c-0.4,0.6-0.1,1.4-0.1,2.1c0,1.7-1.9,3-3.4,2.4c-2.4,1.7-1.5,5.8,1,7.5c2.4,1.7,5.6,1.6,8.5,1.5c2.9-0.1,6.1-0.3,8.6,1.3
	c0.4,0.2,0.8,0.6,0.9,1c0.3,0.8-0.4,1.6-1,2.1c-1.8,1.5-4.2,2.4-6.7,2.4c-1.9,0-3.7-0.5-5.5-1.1c-7.5-2.2-15-4.4-22.5-6.6
	c-1.2-0.3-2.4-0.7-3.5-0.3c-0.9,0.3-1.6,1-2.2,1.7c-1.8,2.1-3,4.8-2.5,7.5c0.7,3.7,4.6,6,8.4,6.4c3.7,0.3,7.4-0.8,11.1-1.7
	c5.6-1.3,11.3-1.9,17-1.7c-6.1,3.8-11.4,9.3-18.3,11.4c-7.4,2.3-15.4,0.2-22.9-1.8c-1.6-0.4-3.6-0.7-4.6,0.6c-0.7,1-0.4,2.4,0.4,3.3
	c0.8,0.9,1.9,1.4,3,1.9c-0.6,2.1-1,4.3-1.2,6.5c-0.1,1.1-0.1,2.3,0.8,3.1c1.1,1,2.9,0.3,4.2-0.5c8.2-4.6,17.2-7.9,26.4-10
	c-6.4,7.2-12.6,14.7-18.4,22.4c-0.5,0.7-1,1.5-0.7,2.3c0.4,0.9,1.7,1,2.7,0.7c1-0.3,1.9-0.9,2.9-0.6c1.5,0.3,2.1,2.2,2.4,3.7
	c5.6-1.9,8.1-8.2,10.6-13.6c3.8-8.3,9.1-16,15.4-22.5c0.6-0.6,1.6-1.3,2.3-0.7c0.5,0.4,0.3,1.2,0.1,1.8c-1.3,4.2-3.1,8.3-5.2,12.1
	c-2.7,4.9-6.1,9.8-6.3,15.5c0,1.2,0.2,2.5,1.2,3.1c1.5,0.9,3.3-0.7,4.1-2.2c0.8-1.5,1.7-3.4,3.5-3.6c1-0.1,2,0.4,3,0.5
	c1.9,0,3.3-1.8,4.2-3.5c5.2-10.3,2.2-23.1,6.8-33.6c1.4,1.7,1.2,4.1,1,6.3c-0.5,4.7-1,9.4-1.5,14.1c-0.1,1-0.1,2.1,0.6,2.7
	c1.8,1.4,3.7-2.3,6-2.2c1.8,0.1,2.9,2.5,4.7,2.3c1.5-0.1,2.2-1.9,2.4-3.4C120.3,448.9,116.6,435.3,110.7,430.9z"/>
<path class="st2" d="M596.1,448.3c-3.4,5.4-3.9,14.4-5.3,21.8c-0.4,2-0.8,4.1-0.1,6c1,2.8,4.1,4.3,6.7,3.8c2.7-0.5,4.9-2.6,6.5-5
	c1.6-2.4,2.6-5.2,3.8-7.9c0.8-1.7,2.5-3.6,3.9-2.4c0.4,0.4,0.6,0.9,0.8,1.5c0.7,2.7,0.1,5.5-0.7,8.1c-2.8,9-8.5,16.9-9.3,26.4
	c-0.3,3.5,0.5,7.7,3.4,9.4c2.3,1.3,5.3,0.5,7.3-1.4c2-1.8,3.3-4.5,4.5-7c1.1-2.3,2.2-4.6,2.8-7.2c1.3-5.9-0.4-12.4,1.6-18
	c0.3-0.9,0.8-1.9,1.6-2.1c1.3-0.5,2.6,1,3.2,2.5c1.5,4,0.9,8.6,0,12.8c-1.2,6-2.7,12-3.2,18.2c-0.5,6.2,0.2,12.6,3,18
	c0.4,0.7,0.8,1.4,1.4,1.7c0.7,0.4,1.5,0.3,2.3,0.1c5.8-1.5,9.8-7.6,11.1-13.9c1.3-6.4,0.5-13-0.5-19.5c-0.5-3.2-1-6.7,0.4-9.6
	c1.7,0.3,2.4,2.5,2.9,4.3c2.7,11.3,4.7,22.8,5.9,34.4c0.4,3.6,0.9,7.6,3.6,9.6c2.8,2.1,6.8,0.8,8.8-2.1c2-2.9,2.3-6.9,1.6-10.5
	c-0.7-3.6-2.2-6.9-3.5-10.3c-1.3-3.4-2.5-7-2.4-10.6c0-0.8,0.2-1.7,0.7-2.2c0.8-0.7,2-0.3,2.7,0.5c0.7,0.9,0.9,2,1.2,3.1
	c1,3.8,2.7,7.5,5.5,10c2.8,2.5,6.7,3.6,10,2.1c0.7-0.3,1.4-0.8,2-1.4c2.9-2.9,2.4-8.4,0.1-12c-2.4-3.6-6.1-5.7-9.5-7.8
	c-1-0.6-2-1.3-2.4-2.4c-0.4-1.1,0.1-2.7,1.2-2.7c0.6,0,1.1,0.5,1.6,0.9c3,2.7,6.4,4.8,10,6.2c0.9,0.3,1.8,0.6,2.7,0.5
	c2.3-0.3,3.6-3.4,3.1-5.9c-0.5-2.5-2.2-4.5-4-6.3c-2.7-2.8-5.8-5.6-9.3-6.8c-5.6-1.8-11.4,0.4-16.9,2.5c-1.9,0.7-3.8,1.4-5.8,1.3
	c-2-0.1-4.1-1.1-5-3.1c-0.2-0.4-0.3-0.9-0.3-1.3c0.1-1,1-1.6,1.9-2c5.3-2.1,11.9,0.3,16.4-3.4c0.9-0.8,1.7-1.9,1.9-3.1
	c0.4-2.2-1.1-4.5-3-5.3c-1.9-0.9-4.1-0.6-6,0c-3.9,1.2-7.3,3.8-11.2,5.4c-3.8,1.6-8.5,1.9-11.6-1.1c-0.6-0.6-1.1-1.3-1.3-2.2
	c-0.2-1.3,0.7-2.6,1.9-3.1c1.1-0.5,2.4-0.5,3.6-0.5c3.2,0,6.5-0.1,9.2-2c2.7-1.9,4.1-6.2,2.2-9c-1.1-1.6-3-2.4-4.8-2.5
	c-6.9-0.6-12.4,5.5-18.5,9c-1.8,1-4.1,1.8-5.9,0.6c-1.8-1.3-2-4.3-1-6.4c1-2.1,2.8-3.5,4.6-5c1.9-1.6,3.8-3.4,4.9-5.8
	c1.1-2.4,1.3-5.4-0.1-7.6c-1.5-2.4-4.5-3.2-7-2.4c-2.5,0.8-4.8,2.8-5.6,5.5C613.2,443.2,599.5,442.8,596.1,448.3z"/>
<path class="st5" d="M102.9,243.1c3.5,3.4-4.9,5.1-9.7,5.2c-3.2,0-6.2-1.1-9.3-1.5c-4-0.5-8.1,0.2-11.7,2c-2.3,1.2-4.6,3.4-4,5.9
	c0.3,1.3,1.3,2.3,2.3,3.1c4.3,3.7,9.5,6.3,15.1,7.5c3.1,0.7,47.8,18.7,55.9,16.1c0.7-0.2,1.5-0.8,1.8-1.2
	c10.6-10.9,26.7-33.3,31.8-53.8c1.4-5.5,2.1-12.1-1.9-16.3c-3.9-4.2-10.9-3.8-15.8-1c-5,2.8-8.5,7.6-12.2,11.9
	c-3.7,4.3-8.1,8.6-13.7,9.7c7.1-16.5,14.2-33.1,21.3-49.6c2.9-6.8,5.9-13.8,6.2-21.3c0.1-3.2-0.3-6.6-2.5-8.9
	c-3.3-3.5-9.4-2.8-13.2,0.2c-3.8,3-5.8,7.6-7.7,12.1c-7.6,18.2-14.4,36.8-20.4,55.6c-1.5,0.8-2.8-1.3-3.1-2.9
	c-3.8-21.2,5.6-42.3,7.8-63.7c0.7-6.3,0-13.9-5.5-17c-5.8-3.2-13.1,1-16.6,6.6c-8.1,13-2.9,30.1-6.9,44.9
	c-7.2-10.2-11.2-22.6-11.5-35c-0.1-5.8,0.5-11.8-1.2-17.3c-1.8-5.5-7-10.6-12.7-9.7c-4.2,0.6-7.5,4.3-8.9,8.4
	c-1.4,4-1.3,8.4-1.1,12.7c0.1,4.6,0.3,9.3,1.3,13.8c1.3,6.1,4.1,11.7,7.2,17.1c1.4,2.5,3,5,5,7.2c2.4,2.5,5.3,4.4,7.9,6.7
	c4.4,3.7,7.9,8.3,10.4,13.5c1,2.1,1.8,4.4,1.4,6.7c-0.4,2.3-2.6,4.4-4.9,4c-1.3-0.2-2.4-1.1-3.4-2c-3.8-3.4-7.6-6.9-11.5-10.3
	c-1.3-1.2-2.7-2.4-4.4-3c-5.1-1.6-9.9,3.7-11.1,8.9c-1.5,7.2,1.2,15.1,6.9,19.8C71.8,237.3,92.5,232.9,102.9,243.1z"/>
<path class="st6" d="M188.9,214.1c14.8-9.7,17.5-35.2,13.6-53.7c-1.1-5-3.3-10.1-7.6-12.7c-4.4-2.6-11.1-1.3-12.8,3.6
	c-0.4,1.3-0.5,2.7-0.7,4c-0.4,2.6-1.3,5.2-2.1,7.7c-2.4,6.8-4.8,13.5-7.2,20.3c-0.9,2.5-2.1,5.3-4.6,6.1c-3.6,1.2-7.1-2.9-7.2-6.7
	c-0.1-3.8,1.8-7.3,3-11c1.7-5.5,1.5-11.4,1.4-17.1c-0.5-15-0.9-30-1.4-45.1c-0.2-5.5-0.5-11.3-3.7-15.7c-3.2-4.4-10.6-6-13.9-1.7
	c-1.1,1.4-1.6,3.1-2,4.8c-4,15.4-4.8,31.7-2.4,47.5c1.1,7.3,2.9,14.6,1.8,21.9c-0.4,2.5-1.8,5.5-4.3,5.3c-1.2-0.1-2.3-1-3.1-2
	c-4.9-5.7-6-13.6-6.9-21.1c-1.7-14.1-3.5-28.3-5.2-42.4c-0.8-6.4-1.6-12.9-4.3-18.8c-2.7-5.9-7.6-11-13.9-12.3
	c-1.3-0.3-2.8-0.4-4,0.3c-1.5,0.8-2.3,2.7-2.6,4.4c-1.2,5.2-0.4,10.6,0.5,15.8c5.9,32.5,19.4,63.6,39.1,90.1
	c-5.5-1.8-11-3.3-16.6-4.6c-2.9-0.6-7.4,0.2-6.8,3.2c0.2,0.9,0.8,1.5,1.5,2.1c7.5,6.5,19.5,5.1,27,11.6c1.3,1.1,2.4,3,1.5,4.4
	c-0.5,0.7-1.4,1.1-2.2,1.4c-3.6,1.3-7,3.2-10,5.7c-1.9,1.5-3.7,3.9-2.7,6.1c0.7,1.6,2.5,2.3,4.2,2.8c16.3,4.7,41.5,5.1,55.1-4
	C189,214,188.8,214.1,188.9,214.1z"/>
<path class="st0" d="M581,513.5c0.2,1.1-3.5-2-4.1-3.9c-0.7-2.2,0.7-4.5,0.3-6.8c-0.7-4.3-6.1-5.8-10.5-5.9c-4,0-8.2,0.5-11.6,2.7
	c-4.9,3.3-6.8,9.5-9.2,14.9c-2.5,5.6-6.1,10.8-10.4,15.2c-3.2,3.3-6.8,6.2-9.7,9.8c-2.8,3.6-4.8,8.2-4,12.8
	c1.1,6.5,8.2,11,14.8,10.5c6.6-0.5,12.5-4.9,16.1-10.5c3.6-5.6,5.3-12.2,6.6-18.7c3,1.1,3.5,5.1,3.2,8.2
	c-1.7,20.1-13.3,38-24.7,54.6c-4.2,6.1-8.5,13.8-5,20.3c3.7,6.7,14,6.9,20.1,2.3c6.2-4.6,9.2-12.1,12.1-19.2
	c3-7.3,6.1-14.6,9.4-21.8c1.5-3.3,5.2-7.2,8-4.9c1,0.8,1.4,2.3,1.4,3.6c0.2,4.6-2.5,8.8-5,12.7c-7.8,12.3-14.2,25.5-19.3,39.1
	c-2.8,7.6-5.2,15.8-3.8,23.8s7.8,15.6,15.9,15.9c8,0.2,14.7-6.7,17.3-14.2c2.6-7.6,2.2-15.8,2.7-23.7c0.5-10.6,2.5-21.1,4.5-31.6
	c0.2-1.2,0.7-2.7,2-2.8c0.7-0.1,1.4,0.5,1.9,1c5,5.3,3.9,13.5,3.6,20.8c-0.3,7.2,2,16.3,9.1,17.6c4.5,0.9,8.8-1.9,12.5-4.6
	c3-2.1,6.1-4.4,7.6-7.7c2.3-5,0.3-10.9-2.2-15.8c-6-12-14.8-22.5-25.5-30.6c-3.7-2.7-7.7-5.4-9.8-9.5c-2.1-4.1-1-10.1,3.3-11.7
	c5-1.8,9.6,3.3,12.4,7.8c2.8,4.5,7.3,9.6,12.3,8c3.6-1.1,5.2-5.3,5.4-9c0.3-9.5-7.6-18.5-17-19.4c-4.9-0.5-9.7,0.9-14.6,1.1
	c-4.9,0.2-10.5-1.3-12.7-5.6c-2.6-5,1.6-12.1,7.2-12.2c4.4-0.1,8.1,3.1,12.4,3.8c4.5,0.7,9.4-1.9,11.3-6.1c1.9-4.2,0.8-9.5-2.7-12.5
	c-4.2-3.7-10.5-3.5-15.9-2c-5.4,1.5-10.5,4-16,4.5"/>
<g>
	<defs>
		
			<rect id="SVGID_1_" x="460.6" y="2" transform="matrix(0.9995 -3.106184e-02 3.106184e-02 0.9995 -1.9989 16.4076)" width="133" height="141"/>
	</defs>
	<clipPath id="SVGID_2_">
		<use xlink:href="#SVGID_1_"  style="overflow:visible;"/>
	</clipPath>
	<g class="st7">
		<path class="st4" d="M498,127.6c10.9,2.4,21.6-0.1,32.6,1.7c8.5,1.5,14.2,8.5,22,4.8c1-0.5,4.9-3,5.1-4c1.7-1.2,5.3,0.1,7.6-3.3
			c0.7-2.5,2.7-10-0.4-13.5c-3.6-4.1-6.3-6.5-11.6-7.4c-5.4-0.9-10.6,1.6-15.5,4.1c-4.8,2.5-10,5.1-15.4,4.5c-0.9-0.1-1.8-0.3-2.4-1
			c-1-1.1-0.6-2.9,0-4.3c1.9-4,5.2-7.3,9.3-9.1c3.1-1.4,6.6-1.9,10-2.4c14.2-2.1,28.5-4.3,42.7-6.4c2.2-0.3,4.5-0.7,6.2-2.2
			c1.3-1.2,2-2.9,2.4-4.6c1.4-4.9,1.4-10.5-1.6-14.6c-4.1-5.6-12.4-6.5-18.9-4.2c-6.5,2.3-11.8,7.1-17.3,11.3
			c-8.3,6.5-17.5,11.9-27.2,16.1c7.3-11.1,11.8-24.4,21.8-33.2c10.7-9.5,25.6-12.2,39.7-14.6c3-0.5,6.7-1.6,7.2-4.6
			c0.4-2.2-1.2-4.4-3.2-5.3c-2-0.9-4.3-0.9-6.6-0.9c-0.6-4-1.7-8-3-11.8c-0.7-1.9-1.7-4-3.6-4.5c-2.7-0.8-5.1,1.8-6.7,4.1
			c-10.3,14-22.6,26.6-36.5,37.1c5.2-17.1,9.7-34.3,13.5-51.7c0.3-1.5,0.6-3.3-0.6-4.4c-1.4-1.3-3.6-0.4-5,0.8
			c-1.4,1.3-2.6,2.9-4.4,3.3c-2.8,0.6-5.2-2-6.9-4.4c-7.9,7.5-7.3,20-7.3,30.9c0,16.9-2.8,33.7-8.4,49.6c-0.5,1.5-1.7,3.4-3.2,2.9
			c-1.2-0.4-1.5-1.8-1.7-3c-1-8-1.3-16.2-0.7-24.3c0.7-10.4,2.7-21.2-1.3-30.8c-0.8-2-2.2-4.1-4.3-4.3c-3.2-0.3-5,3.7-5.2,6.9
			c-0.2,3.2-0.2,7.1-3,8.7c-1.6,1-3.7,0.8-5.5,1.6c-3.2,1.4-4.2,5.5-4.3,9c-0.7,21.2,14.2,40.4,14.6,61.6c-3.6-1.7-5.2-5.9-6.5-9.7
			c-2.8-8.3-5.6-16.5-8.4-24.8c-0.6-1.7-1.4-3.7-3.2-4.1c-4.1-0.9-4.5,6.7-8.4,8.3c-3,1.3-6.8-1.9-9.7-0.3c-2.5,1.4-2.2,4.9-1.4,7.6
			C468,104.9,484.6,124.7,498,127.6z"/>
	</g>
</g>
<path class="st2" d="M130.2,454.2c-8.5,0.7-18.1,7.6-26.9,12c-2.3,1.2-4.8,2.5-6.1,4.8c-1.9,3.4-0.5,8,2.4,10.5
	c3,2.5,7.1,3.3,11,3.1c3.9-0.3,7.7-1.4,11.4-2.3c2.4-0.6,6-0.2,6,2.3c0,0.8-0.4,1.5-0.8,2.1c-2.1,2.9-5.4,4.6-8.8,5.9
	c-11.6,4.3-24.9,4.5-35.1,11.5c-3.8,2.6-7.3,6.9-6.3,11.5c0.8,3.7,4.4,6.2,8.1,6.9c3.7,0.7,7.5-0.1,11.2-0.8
	c3.3-0.7,6.7-1.4,9.8-2.8c7.1-3.4,12.1-10.6,19.6-13.1c1.2-0.4,2.6-0.7,3.7,0c1.7,1.1,1.4,3.7,0.4,5.5c-2.6,5-7.8,8-12.8,10.6
	c-7.2,3.6-14.6,6.9-21.3,11.5c-6.7,4.6-12.6,10.6-15.4,18.1c-0.3,0.9-0.6,2-0.4,3c0.3,1.1,1.1,1.9,2,2.5c6.9,5.1,16.7,4.6,24.3,0.8
	c7.6-3.8,13.6-10.2,19.2-16.6c2.8-3.2,5.9-6.6,10-7.5c1.2,2.1-0.2,4.7-1.7,6.7c-8.9,12.3-18.7,23.9-29.2,34.8
	c-3.3,3.3-6.8,7.3-6.4,11.9c0.5,4.8,5.5,8.2,10.3,8c4.8-0.2,9.1-3.1,12.1-6.8c3-3.7,5-8.1,7.1-12.4c2.2-4.2,4.7-8.4,8.5-11.3
	c0.8-0.6,1.8-1.2,2.8-1c1.4,0.3,2.2,2,2,3.4c-0.2,1.4-1.2,2.7-2,3.8c-2.9,4.2-5,9.1-5,14.2c0.1,5.1,2.6,10.4,7.2,12.7
	c1,0.5,2.1,0.9,3.2,1c5.6,0.8,10.7-4.3,12.1-9.8c1.4-5.5,0.1-11.3-0.9-16.9c-0.3-1.5-0.5-3.2,0.2-4.6c0.7-1.4,2.9-2.1,3.9-0.9
	c0.6,0.7,0.6,1.6,0.6,2.5c0,5.5,1.1,10.9,3,16.1c0.5,1.2,1,2.5,1.9,3.3c2.5,2.3,6.7,1.1,8.8-1.5c2.1-2.6,2.5-6.2,2.7-9.5
	c0.3-5.4,0.3-10.9-1.8-15.9c-3.3-7.6-11-12.3-18.1-16.6c-2.5-1.5-5-3.1-6.7-5.3s-2.7-5.4-1.6-8.1c0.2-0.6,0.6-1.1,1-1.4
	c1.1-0.7,2.6-0.2,3.7,0.4c7,4.1,10.7,13.4,18.6,15.3c1.7,0.4,3.5,0.4,5-0.4c2.6-1.4,3.5-4.9,2.6-7.7c-0.9-2.8-3.1-5-5.5-6.6
	c-4.9-3.3-10.7-4.9-15.7-7.9c-5.1-2.9-9.8-7.9-9.7-13.7c0-1.1,0.3-2.3,1-3.2c1.2-1.3,3.3-1.3,4.8-0.5c1.6,0.8,2.7,2.2,3.8,3.5
	c2.9,3.5,6.1,7.1,10.5,8.5s10-0.5,11.1-4.9c0.6-2.5-0.4-5.2-1.9-7.4c-5.8-8.1-17-9.1-26.2-13c-2.7-1.2-5.7-3-6-6
	c-0.4-3.1,2.5-5.8,5.6-6.4c3-0.6,6.2,0.2,9.2,0.9c3.4,0.8,7,1.4,10.4,0.7c3.4-0.7,6.7-3,7.6-6.4c1-3.6-1-7.6-4.1-9.6
	c-3.1-2.1-7.3-3-10.8-1.6C151.1,468.9,138.9,453.5,130.2,454.2z"/>
<g>
	<defs>
		<polygon id="SVGID_3_" points="659.7,379.2 680.1,422.5 604.9,459.4 584.5,416.2 		"/>
	</defs>
	<clipPath id="SVGID_4_">
		<use xlink:href="#SVGID_3_"  style="overflow:visible;"/>
	</clipPath>
	<g class="st8">
		<path class="st9" d="M601,426.7c-0.5-3.2-2.1-6.5-5-7.8c-2.9-1.3-7.1,0.5-7.4,3.7c-0.1,1.3,0.3,2.6,0.8,3.8
			c4,9.5,11.4,17.5,20.5,22c2.5,1.3,5.9,2.2,7.9,0.2c2-2,1.2-5.6-0.8-7.6c-1.9-2-4.7-3-7-4.6c-0.7-0.5-1.4-1-1.6-1.8
			c-0.3-1.2,0.6-2.4,1.7-2.9c1.1-0.5,2.4-0.3,3.6,0c8,1.9,14.1,9,22.2,10.7c2.1,0.4,4.9,0.2,5.7-1.9c1.1-2.6-1.8-4.9-4.3-6.1
			c-4.1-2-8.2-4.1-12.2-6.1c-1.4-0.7-3.1-2.3-2.1-3.6c0.2-0.3,0.6-0.5,1-0.7c4.1-1.9,9-0.7,13.1,1.3c4.1,2,7.8,4.8,12,6.2
			c3.4,1.2,7.2,1.5,10.8,0.8c0.8-0.2,1.7-0.4,2.3-1c0.7-0.7,0.9-1.9,0.7-2.9c-0.6-4.1-5.2-6.1-9.2-6.7c-4-0.6-8.4-0.7-11.4-3.4
			c4-2.5,8.9-2.8,13.5-2.2c4.6,0.6,9,2.1,13.6,2.9c2.2,0.4,4.9,0.4,6-1.5c0.4-0.6,0.5-1.3,0.5-2c-0.2-3.6-4.4-5.5-7.9-5.8
			c-3.6-0.3-7.6,0.1-10.3-2.2c1.9-4.6,9.4-5.9,9.7-10.9c0.2-3.8-4.6-6.2-8.2-5.2c-3.7,1-6.3,4.1-9,6.9c-4.8,5.1-10.3,9.4-16.3,13
			c-1.3,0.8-3.4,1.2-3.9-0.2c-0.2-0.5,0-1.1,0.2-1.6c1.1-2.5,3.6-3.9,5.4-5.9c1.8-2,2.6-5.6,0.4-7.1c-1.1-0.7-2.5-0.6-3.7-0.2
			c-3.8,1.2-6.6,4.6-8.5,8.2c-1.9,3.6-3.3,7.4-5.8,10.6c-1.1,1.4-3.1,2.6-4.3,1.4c-1.1-1.1-0.2-3,0.6-4.3c0.9-1.5,1.8-3,1.9-4.7
			c0.1-1.7-0.7-3.6-2.3-4.2c-0.8-0.3-1.7-0.2-2.5,0.1c-4,1.3-5.6,6.1-5.9,10.3c-0.3,4.2-0.1,8.7-2.4,12.2L601,426.7z"/>
	</g>
</g>
<path class="st10" d="M88.2,363.2c-2.5-37.7,24.6-120.6,45-152.2c18.5-28.7,62.2-19.7,84.6-45.5c26.4-30.5,26.4-56,64.1-69.2
	c37.3-13.1,81.4,0.1,114.8,21.5c31.9,20.5,83.5-27.7,126.8-21.5c41.2,10.5,99.8,55.5,108.5,107.4c8.7,52.2-35.1,106.4-39.4,150.7
	c-3.7,38.8,23.9,79.2,18.3,117.7c-6.3,43.1-46.8,109.5-87.4,123.3c-48.2,16.4-90.9-47.6-141.5-52.6c-30.9-3.1-56.7,35.8-87.1,29.7
	c-30.3-6-100.7,2.9-125-16.5c-24.5-19.6-21.9-77.7-43.2-100.8C100.8,427.4,90.7,401.4,88.2,363.2z"/>
</svg>
