<?xml version="1.0" encoding="utf-8"?>
<!-- Generator: Adobe Illustrator 25.0.1, SVG Export Plug-In . SVG Version: 6.00 Build 0)  -->
<svg version="1.1" id="Layer_1" xmlns="http://www.w3.org/2000/svg" xmlns:xlink="http://www.w3.org/1999/xlink" x="0px" y="0px"
	 viewBox="0 0 76.8 95.4" style="enable-background:new 0 0 76.8 95.4;" xml:space="preserve">
<style type="text/css">
	.st0{fill:none;stroke:#ED6340;stroke-width:5;stroke-miterlimit:10;}
</style>
<g>
	<g>
		<g id="Group_4_2_" transform="translate(-1526 -319)">
			<path id="Rectangle_2_2_" class="st0" d="M1595.4,364.9L1595.4,364.9c-6.7-27.1-34-43.6-61.1-37l0,0l-1.9,0.5l0,0l0,0
				c6.7,27.1,34,43.6,61.1,37L1595.4,364.9L1595.4,364.9z"/>
		</g>
	</g>
	<g>
		<g id="Group_4_1_" transform="translate(-1526 -319)">
			<path id="Rectangle_2_1_" class="st0" d="M1532.4,405L1532.4,405c6.7-27.1,34-43.6,61.1-37l0,0l1.9,0.5l0,0l0,0
				c-6.7,27.1-34,43.6-61.1,37L1532.4,405L1532.4,405z"/>
		</g>
	</g>
</g>
</svg>
