<svg width="43" height="31" viewBox="0 0 43 31" fill="none" xmlns="http://www.w3.org/2000/svg">
<g clip-path="url(#clip0)">
<path d="M10.403 1.77263C8.88539 0.759705 7.08242 0.266572 5.27944 0.0666535C4.42336 -0.0266418 3.54133 -0.0666255 2.72415 0.226588C0.726617 0.932967 -0.246209 3.39863 0.0521245 5.54442C0.350458 7.69022 1.60865 9.54279 2.89278 11.2488C8.04227 18.006 14.3592 23.7104 20.6371 29.3747C20.9355 29.6413 21.2468 29.9212 21.6359 30.0278C22.2455 30.201 22.8811 29.8945 23.4389 29.6013C31.4809 25.2431 38.0442 18.0593 41.7669 9.52947C42.4933 7.87681 43.1159 6.09087 42.9343 4.2916C42.7527 2.49233 41.5334 0.679737 39.7823 0.413179C38.6668 0.239916 37.5513 0.706393 36.5396 1.21285C30.5989 4.14499 25.4883 8.83641 21.9861 14.5807C21.9991 14.5541 14.4759 4.50485 10.403 1.77263Z" fill="#2B2A2E"/>
</g>
<defs>
<clipPath id="clip0">
<rect width="42.973" height="30.0811" fill="white"/>
</clipPath>
</defs>
</svg>
