<svg width="51" height="39" viewBox="0 0 51 39" fill="none" xmlns="http://www.w3.org/2000/svg">
<g clip-path="url(#clip0)" filter="url(#filter0_d)">
<path d="M14.403 4.77263C12.8854 3.7597 11.0824 3.26657 9.27944 3.06665C8.42336 2.97336 7.54133 2.93337 6.72415 3.22659C4.72662 3.93297 3.75379 6.39863 4.05212 8.54442C4.35046 10.6902 5.60865 12.5428 6.89278 14.2488C12.0423 21.006 18.3592 26.7104 24.6371 32.3747C24.9355 32.6413 25.2468 32.9212 25.6359 33.0278C26.2455 33.201 26.8811 32.8945 27.4389 32.6013C35.4809 28.2431 42.0442 21.0593 45.7669 12.5295C46.4933 10.8768 47.1159 9.09087 46.9343 7.2916C46.7527 5.49233 45.5334 3.67974 43.7823 3.41318C42.6668 3.23992 41.5513 3.70639 40.5396 4.21285C34.5989 7.14499 29.4883 11.8364 25.9861 17.5807C25.9991 17.5541 18.4759 7.50485 14.403 4.77263Z" fill="#2B2A2E"/>
</g>
<defs>
<filter id="filter0_d" x="0" y="0" width="50.973" height="38.0811" filterUnits="userSpaceOnUse" color-interpolation-filters="sRGB">
<feFlood flood-opacity="0" result="BackgroundImageFix"/>
<feColorMatrix in="SourceAlpha" type="matrix" values="0 0 0 0 0 0 0 0 0 0 0 0 0 0 0 0 0 0 127 0"/>
<feMorphology radius="2" operator="dilate" in="SourceAlpha" result="effect1_dropShadow"/>
<feOffset dy="1"/>
<feGaussianBlur stdDeviation="1"/>
<feColorMatrix type="matrix" values="0 0 0 0 0.203837 0 0 0 0 0.225675 0 0 0 0 0.245833 0 0 0 0.18 0"/>
<feBlend mode="normal" in2="BackgroundImageFix" result="effect1_dropShadow"/>
<feBlend mode="normal" in="SourceGraphic" in2="effect1_dropShadow" result="shape"/>
</filter>
<clipPath id="clip0">
<rect width="42.973" height="30.0811" fill="white" transform="translate(4 3)"/>
</clipPath>
</defs>
</svg>
