<?xml version="1.0" encoding="utf-8"?>
<!-- Generator: Adobe Illustrator 25.0.1, SVG Export Plug-In . SVG Version: 6.00 Build 0)  -->
<svg version="1.1" id="Layer_1" xmlns="http://www.w3.org/2000/svg" xmlns:xlink="http://www.w3.org/1999/xlink" x="0px" y="0px"
	 viewBox="0 0 1508.9 1801.9" style="enable-background:new 0 0 1508.9 1801.9;" xml:space="preserve">
<style type="text/css">
	.st0{fill:#3A5751;}
	.st1{fill:#F6AC81;}
	.st2{fill:#EA9188;}
	.st3{fill:#A1A59F;}
	.st4{fill:#5085A7;}
	.st5{fill:#A9C1DD;}
	.st6{fill:#E67D0A;}
	.st7{fill:#A9BFDE;}
	.st8{fill:#FAD2C9;}
	.st9{fill:#E5CBAB;}
	.st10{fill:#F7D29A;}
	.st11{fill:#F0D9C1;}
</style>
<g>
	<path class="st0" d="M135.2,256.5c6.9-12,15.1-39.4,5.2-47.5c-4.6-3.8-10.4-5.7-15.5-8.7c-5.1-3-9.9-7.7-10.6-14
		c-0.5-4.5,1.1-9,3-13.1c0.9-2.1,2.2-4.2,3.9-5.7c4.2-3.6,10.4-1.7,14,2.1s5.4,9.1,7.9,13.8c4.3,7.8,10.8,14.1,18.4,17.8
		c2,0.9,4.8,1.6,6.2-0.5c0.4-0.5,0.5-1.3,0.7-2c1.5-7.7-1.2-15.2-4-22c-2.7-6.9-5.6-14.2-4.7-21.9c0.9-7.7,7.7-15.4,14.5-14.1
		c5.6,1.1,8.9,7.5,9.9,13.6c3.1,16.9-3.6,35.5,0.9,51.8c7.7-14.4,13-30.1,15.5-46.2c0.9-5.8,1.5-11.7,4-17c2.6-5.3,7.8-9.8,13-9.1
		c2.2,0.3,4.2,1.5,6,2.5c3.6,2.1,7.5,4.9,8.6,9.2c1.6,6.1-2.7,12.4-6.6,17.5c-8.1,10.7-15.6,21.9-22.5,33.5c-2.4,4-4.4,10-0.8,12.3
		c13.4-12.8,20.4-31.7,32.5-46c5.1-6.2,13.2-11.9,19.6-8.3c6.6,3.7,6,14.8,1.3,21.5c-4.7,6.7-12.1,10.4-18.7,15
		c-7.3,5-13.7,11.2-19.2,18.3c-0.5,0.7-1.1,1.5-1.2,2.4c-0.1,1.7,1.7,2.8,3.4,2.2c1.6-0.4,2.7-1.8,3.9-3
		c9.7-10.9,20.7-20.4,32.5-28.5c5.1-3.6,10.8-6.9,16.7-6.6c5.9,0.1,11.7,5.3,10.9,11.6c-0.8,6.6-7.7,10.4-13.4,12.9
		c-12.9,5.7-25.9,11.3-38.9,17c1.7,2.8,5.8,1.8,9,0.8c12.4-4.2,26.9-5.1,36.6,3.3c1.9,1.7,3.8,4.1,3.2,6.9c-0.7,3.3-4.3,4.9-7.4,5.5
		c-13.8,3-28,0.7-41.5-2.2c-13.6-2.9-29.7-7.9-43.7-7.5c-17.3,0.5-29.7,8.4-35,20.3c-2.2,4.7-7.7,24-8.9,21.2L135.2,256.5z"/>
	<path class="st1" d="M101.9,1700.9c-0.7-4.2-6.2,1.1-8.6,4.6c-1.6,2.2-2.3,5-3.6,7.5c-1.6,3.2-4.3,5.8-7.4,7.7
		c-2,1.1-4.8,1.7-6.3,0.1c-0.8-0.8-1.1-2-1.2-3.2c-0.5-5,0.1-10,2-14.6c1.1-2.6,10.4-44.1,16.3-48.8c0.5-0.4,1.3-0.7,1.7-0.8
		c13.3-2.5,37.8-3.4,55.4,2.8c4.7,1.7,9.9,4.4,11,9.2s-2.7,9.8-7.3,12c-4.6,2.2-9.8,2.5-14.8,3.2c-5,0.7-10.4,1.7-14,5.3
		c15.7,2.8,31.3,5.7,47.1,8.4c6.5,1.2,13,2.4,18.7,5.8c2.4,1.5,4.7,3.4,5.2,6.1c0.9,4.1-2.7,8.3-6.7,9.5c-4,1.3-8.5,0.5-12.6-0.3
		c-17.1-3.3-34.1-7.3-51-12c-1.3,0.7-0.4,2.6,0.7,3.7c13.6,13.1,33.7,16.5,50.5,25.1c5,2.5,10.2,6.7,9.7,12.3
		c-0.5,5.8-7.4,9.1-13.2,9c-13.6-0.4-23.5-12.4-36.3-16.6c3.9,10.2,10.9,19.1,19.9,25.5c4.2,2.9,8.9,5.3,12.1,9.4
		c3.2,4,4.3,10.3,0.7,14c-2.6,2.8-6.9,3.4-10.6,2.5c-3.6-0.9-6.9-3.2-9.8-5.4c-3.4-2.4-6.7-4.7-9.5-7.7c-3.8-4-6.6-8.7-8.9-13.6
		c-1.1-2.2-2.2-4.6-2.7-7.1c-0.7-2.9-0.5-6.1-0.9-9c-0.5-5-2.2-9.9-4.6-14.1c-1.1-1.7-2.3-3.4-4.2-4.2c-1.9-0.8-4.4-0.3-5.4,1.6
		c-0.5,1.1-0.4,2.2-0.1,3.4c0.5,4.5,1.2,9,1.7,13.5c0.3,1.6,0.4,3.2,0,4.7c-1.3,4.5-7.7,5.5-12.1,3.8c-6-2.4-10.5-8.3-11-14.6
		C90.5,1726.4,104.2,1713.4,101.9,1700.9z"/>
	<path class="st2" d="M1345.3,384.2c7.4,1.5,14.9,5.4,17.6,12.3c2.7,6.9-1.9,16.2-9.5,16.6c-3.1,0.1-5.9-1.1-8.6-2.4
		c-21.6-10.2-39.4-28-49.1-49.3c-2.7-5.9-4.4-13.7,0.5-18.1c4.8-4.4,13.2-2.1,17.6,2.6c4.4,4.6,6.6,10.9,9.9,16.5
		c0.9,1.6,2.3,3.3,4.2,4c2.7,0.9,5.8-1.1,7-3.6s0.9-5.4,0.5-8.2c-3.5-18.6-19.4-33.2-22.3-51.8c-0.8-4.9,0.1-11.2,5-12.9
		c6.2-2.2,11.3,4.7,13.8,10.4c4.3,9.5,8.6,19.1,12.9,28.6c1.5,3.3,5,7.4,8.2,5.3c0.8-0.5,1.3-1.5,1.7-2.2c4.8-9.2,2.6-20.6-1.6-30.1
		c-4.2-9.5-10.2-18.3-13.2-28.2c-2.4-8-2.6-16.6-0.7-24.8c0.4-1.8,1.1-3.8,2.6-5.1c1.7-1.6,4.4-1.8,6.9-1.3
		c9.4,1.8,13.6,12.5,14.7,21.8c0.9,9.2,0.7,19.4,6.6,26.5c6.3-8.7,7.7-20,6.7-30.6c-0.9-10.6-3.9-21-5.2-31.5
		c-0.7-5-0.3-11.2,4.3-13.6c1.5-0.8,3.1-0.9,4.7-0.8c8.5,0.8,12.4,10.7,12.6,18.9c0.3,8.2-0.9,17.3,4,23.9c11-3.8,14.8-20.8,26.5-21
		c9-0.1,14.1,11.2,11.2,19.4c-2.8,8.3-10.4,14-17.2,19.8c-12.4,10.4-23.3,22.6-32.1,35.9c-2,2.9-3.2,7.8,0,9
		c1.2,0.4,2.6,0.1,3.8-0.3c5.9-2.2,9.4-7.9,14.3-11.7c4.8-4,13.4-5.4,16.5-0.1c1.5,2.5,1.2,5.8,0.1,8.6c-3.1,8.6-11.6,14.5-20,18.5
		c-8.5,4-17.7,6.7-25.4,12c-3.4,2.2-6.5,6.7-3.8,9.6c2.4,2.6,7,0.9,10.2-0.9c3.5-2,7.3-3.8,11.3-4c4-0.1,8.3,2,9.5,5.8
		c0.5,1.8,0.3,4-0.4,5.7c-3.5,8.8-14.9,12-24.7,12.4c-9.8,0.3-20.4-0.8-28.8,4.2L1345.3,384.2z"/>
	<path class="st3" d="M800.9,105c-3.2-0.3-6.7-1.5-8.2-4.2c-0.7-1.5-0.8-3.3-1.2-4.9c-1.5-5.5-8.9-8.6-14-5.8
		c-5.1,2.8-6.3,10.7-2.3,14.8c3.9,4.1,11.2,4.5,14,9.4c3.6,6.5-3,16.4,2.7,21.2c2,1.7,4.8,1.8,7.5,1.8c16.1,0.1,32.1-5,45.3-14.2
		c3.8-2.6,7.8-6.9,6.5-11.2c-0.9-3.3-4.7-5.3-8.2-5.4s-6.9,1.3-10.1,2.6c-3.4,1.5-6.9,2.8-10.2,4.2c-0.8-2.8,1.9-5.3,4.2-7.1
		c10.5-7.8,21.4-15,32.5-21.6c3.8-2.2,7.7-4.5,10.2-8c2.6-3.6,3.4-8.7,0.5-12.1c-3.2-4-9.8-3.6-14.3-0.9s-7.5,7-11.3,10.6
		c-3.8,3.6-8.9,6.5-14,5.3c7.9-21.4,37.6-29.8,43.8-51.8c1.3-4.6,0.9-10.4-3-13.3c-3.5-2.4-8.5-1.6-11.8,0.9
		c-3.4,2.5-5.4,6.3-7.1,10.2c-3.6,8.3-7.5,18.5-16.7,20.4c-3.2-3.2-4-8.6-1.9-12.5s7.1-7.7,5.5-11.9c-0.4-1.2-1.3-2-2.3-2.9
		c-4.2-3.7-9.7-6.6-15.3-5.5c-7.9,1.5-12.6,10.6-11.2,18.3c0.9,5.1,3.9,9.6,5.6,14.5c2.7,7.7,2.6,15.8,2,23.9
		c-0.1,1.8-0.3,3.7-1.3,5.1c-2.4,3.4-8.5,2.5-11-0.8c-2.6-3.3-2.7-7.9-2.3-12.1c0.4-3.8,0.8-8.4-2-11.1c-3-2.9-8.3-2-11.3,0.9
		s-4,7.1-4.6,11.2c-0.5,4-0.7,8.3,1.9,11.3c1.6,1.8,3.9,3,6,4.2c6.3,3.6,11.7,8.6,15.7,14.5c1.3,2,2.6,4.2,2.4,6.6
		c-0.1,2.4-2.3,4.7-4.7,4.4C807.6,103.8,804.1,105.2,800.9,105z"/>
	<g>
		<path class="st4" d="M1263.9,1442.3c-8.6,6.5-14,19.4-20.2,29.5c-1.6,2.6-3.4,5.7-3.1,8.6c0.4,4.5,5.1,7.7,10.1,8
			c5,0.3,9.9-1.8,14-4.7c4-2.9,7.1-6.6,10.6-10c2.2-2.2,6.3-4.4,8.1-2.1c0.5,0.7,0.7,1.6,0.7,2.5c-0.1,4.1-2.6,8-5.2,11.5
			c-9.3,12-23.4,21.2-29.3,34.7c-2.3,5-2.8,11.3,1.5,14.9c3.5,2.8,9.3,2.6,13.7,0.8c4.4-2,7.9-5.3,11.4-8.4c3.1-2.9,6.2-5.9,8.3-9.4
			c5.2-8,5.4-18.1,11.6-25.6c0.9-1.2,2.3-2.4,3.9-2.5c2.6-0.1,4.2,2.5,4.4,4.7c0.8,6.3-2.6,12.8-6.2,18.6
			c-5.1,8.3-10.8,16.4-14.5,25.2c-3.9,8.7-5.9,18.3-3.5,27.3c0.3,1.1,0.7,2.2,1.6,3c1.1,0.8,2.6,0.9,4,0.9c11,0,21.1-7.3,26.6-16
			c5.5-8.7,7.1-18.7,8.6-28.5c0.7-4.9,1.5-10.2,5.4-13.8c2.8,1.2,3.1,4.5,3,7.3c-0.7,17.4-2.8,34.8-6.3,52.1
			c-1.1,5.3-2.2,11.5,1.7,15.3c3.9,4.1,11.8,3.7,16.8,0.3c5-3.4,7.4-9.1,7.9-14.6c0.5-5.4-0.5-10.8-1.2-16.2
			c-0.7-5.4-1.1-11.1,0.9-16.2c0.4-1.2,1.1-2.4,2.3-2.9c1.7-0.8,3.8,0.3,4.6,1.8c0.8,1.5,0.7,3.3,0.7,4.9
			c-0.1,5.8,1.1,11.9,4.8,16.5c3.8,4.6,10.2,7.8,16.8,6.7c1.5-0.3,2.8-0.7,4.2-1.2c6.6-3.2,8.5-11.3,5.9-17.4
			c-2.4-6.1-8.1-10.6-13.2-14.9c-1.5-1.2-3-2.6-3.1-4.4c-0.3-1.7,1.6-3.8,3.5-3.4c1.1,0.3,1.7,1.1,2.4,1.8c4,5,9,9.4,14.8,12.7
			c1.3,0.8,2.8,1.6,4.4,1.7c4.3,0.4,8.1-3.6,8.3-7.4c0.3-3.8-1.7-7.4-4-10.6c-3.5-5.1-7.5-10.3-13.3-13.3c-9-4.7-20.6-3.7-31.3-2.8
			c-3.8,0.3-7.5,0.7-11-0.3c-3.5-0.9-6.9-3.2-7.5-6.3c-0.1-0.7-0.1-1.3,0.1-2c0.7-1.5,2.6-2,4.3-2.1c10.5-1.1,21.1,5,30.9,1.2
			c2-0.8,4-2.1,5-3.8c1.7-3,0.3-6.9-2.7-8.8c-3-2-6.9-2.5-10.8-2.2c-7.5,0.3-14.9,2.8-22.6,3.6c-7.5,0.8-16.1-0.5-20.2-5.9
			c-0.8-1.1-1.3-2.4-1.2-3.6c0.4-2,2.6-3.4,4.8-3.8c2.3-0.4,4.4,0.1,6.6,0.5c5.6,1.2,11.7,2.4,17.3,0.5c5.6-1.7,10.4-7.4,8.3-12.1
			c-1.2-2.8-4.2-4.5-7.4-5.4c-12-3.4-24.7,3.3-37.4,6.1c-3.8,0.8-8.3,1.1-10.8-1.3c-2.6-2.6-1.5-7,1.3-9.8c2.8-2.6,6.9-4.1,10.5-5.5
			c4.2-1.6,8.5-3.6,11.6-6.6s5-7.4,3.6-11.1c-1.5-4-6.5-6.3-11.3-6.1c-4.8,0.3-9.9,2.2-12.6,5.9
			C1297,1441.4,1272.8,1435.7,1263.9,1442.3z"/>
	</g>
	<path class="st5" d="M436.5,1696.3c2.3,1.1,4.2,2.9,6.3,4.1c5.6,3.3,12.5,2.9,18.8,2.4c0.8-0.1,1.7-0.1,2.1-0.8
		c0.4-0.5,0.4-1.1,0.3-1.8c-0.4-4.7-1.7-9.8-5.8-12.8c-2.9-2.1-6.7-2.9-10.2-3.9c-6.9-1.9-13.3-5.6-18.6-10.3
		c-1.4-1.3-2.9-2.7-4.7-3.3c-1.3-0.4-2.6-0.3-4-0.1c-5.6,0.7-10.9,3.2-16.5,3.9c-6.4,0.8-13-0.6-19.4,0.3
		c-6.3,0.9-12.8,5.2-12.2,11.3c0.2,2.5,1.5,4.8,2.8,7c3.2,5.5,7.1,11.6,13.4,13.3c5.3,1.4,10.8-1,14.7-4.3c1.8-1.6,3.5-3.3,5.7-4.2
		c2.3-1,5.4-0.7,7.1,1.2c1.8,2.1,1,5.2-0.3,7.5c-3.5,5.9-9.6,10.3-16.7,11.9c-4.5,1-9.3,1-13.9,1.7c-7.5,1.2-14.6,4.6-19.9,9.5
		c-0.5,0.4-0.9,0.9-1.2,1.4c-0.4,1.1,0.2,2.5,0.6,3.7c0.9,2.3,2.1,4.7,4,6.5c4.3,4,11.5,3,16,0c4.6-3,7.6-7.6,11.8-11.2
		c4.1-3.5,10.4-5.7,15.8-3.1c1.9,7-4.4,12.7-10.5,16.3c-5.2,3.1-10.6,5.7-16.5,8c-3.1,1.1-6.5,2.3-8.5,4.7c-2.1,2.5-2.6,6-2.7,9.4
		c0,1.7,0.1,3.5,0.8,5.1c2.1,4.3,8.4,5.9,12.9,4.2c4.4-1.6,7.5-5.4,10.3-9.1c3.4-4.4,6.9-8.8,10.2-13.1c0.7-0.9,1.6-2,2.7-2.5
		c2.9-1.1,6.5,1.5,7.5,4.5c0.9,3.1,0.2,6.1-0.4,9.1c-0.9,5.5-0.5,11.3,0.9,16.8c0.9,3.2,2.5,6.8,5.6,8.3c4.8,2,9.8-2.2,10.3-6.8
		c0.7-4.7-1.7-9.5-3.3-14.1c-1.2-3.2-2.2-6.5-2.8-9.8c-0.8-3.9-0.2-9.2,3.9-9.5c3.3-0.2,5.7,3,7.3,5.9c1.8,3.1,3.6,6.1,5.4,9.2
		c1.2,2.3,2.7,4.6,4.8,6.4c2.1,1.8,4.9,3,7.4,2.2c2.3-0.6,3.7-2.6,4.5-4.6c2.1-5.6-0.3-12.5-4.7-17.4s-10.7-8.1-16.8-10.6
		c-3.4-1.3-6.7-2.4-9.5-4.7c-2.7-2.3-4.3-6.1-2.7-8.8c1.4-2.7,5.5-3.3,8.7-2.4c3.3,0.8,6.1,2.9,9,4.7c3.1,2,6.5,3.8,10.1,4.6
		c3.6,0.8,7.6,0.2,10.1-2.1c2.6-2.4,3.3-6.4,1.6-9.7c-1.9-3.8-6.2-6.1-10.5-7c-4.3-0.9-8.5-0.8-12.8-1.2c-4.2-0.4-8.8-1.7-11.8-4.7
		c-3.1-3.1-3.9-8.3-0.9-10.9C432.1,1696.3,434.2,1695.2,436.5,1696.3z"/>
	<path class="st6" d="M922,1670.2c-7.7-4.4-14.7-18.3-17.5-16.2c-1.7,1.3-6.2,14-11.6,16.1c-10.5,11.3-28.4,7.1-37.4,8.7
		c-0.8,0.7-1.6,1.6-1.6,2.5c0.1,1.3,1.5,2.1,2.3,3c1.9,2.2,0.7,6.3-2.3,7.1c-1.5,5,4.4,9.8,9.7,9.5c5.2-0.3,9.8-3.8,13.8-7.3
		c4-3.4,8.3-7,13.7-7.7c0.8-0.1,1.7-0.1,2.4,0.4c1.2,0.8,1.2,2.6,0.9,4.1c-0.9,4.2-3.4,8-6.9,10.7c-2.7,2-5.8,3.3-9,4.5
		c-13,5.1-26.2,10.3-39.3,15.4c-2,0.8-4.2,1.7-5.4,3.4c-0.9,1.5-1.2,3.2-1.3,4.9c-0.3,4.9,1.1,10.2,4.7,13.3
		c5.1,4.4,13.3,3.4,19-0.1c5.8-3.6,9.7-9.2,14-14.5c6.5-7.9,14-15,22.3-21.1c-4.4,12.1-5.9,25.6-13.3,36.1
		c-8.1,11.3-21.6,17.1-34.7,22.6c-2.8,1.2-6,2.9-5.9,5.9c0.1,2.1,2.2,3.8,4.3,4.2c2.2,0.4,4.3-0.1,6.5-0.7c1.5,3.7,3.4,7.1,5.5,10.4
		c1.1,1.6,2.6,3.4,4.4,3.4c2.7,0.1,4.4-2.8,5.5-5.3c6.7-15.4,15.6-30.1,26.6-43c-1.2,17.1-1.6,34.4-1.3,51.7c0,1.5,0.3,3.3,1.5,4
		c1.6,0.9,3.5-0.4,4.6-1.8c1.1-1.5,1.7-3.3,3.5-4.1c2.6-1.2,5.5,0.8,7.5,2.6c5.9-8.8,2.6-20.4,0-30.7c-3.8-15.8-4.8-32.3-3.1-48.5
		c0.1-1.6,0.9-3.6,2.4-3.4c1.2,0.1,1.9,1.3,2.3,2.4c2.8,7.4,4.8,14.9,6,22.7c1.6,9.9,2.2,20.6,8.2,28.8c1.2,1.7,3,3.3,5.1,3
		c3.1-0.4,3.9-4.6,3.4-7.7c-0.5-3-1.3-6.7,0.9-8.8c1.3-1.3,3.4-1.6,4.8-2.6c2.7-2.1,2.8-6.1,2.2-9.5c-4-20.2-22.6-34.8-27.6-54.7
		c3.9,0.8,6.3,4.4,8.3,7.7c4.4,7.1,9,14.2,13.4,21.5c0.9,1.5,2.2,3.2,3.9,3.2c4.2,0,2.8-7.3,6.2-9.6c2.6-1.8,6.9,0.3,9.3-1.8
		c2-1.8,1.1-5.1-0.4-7.5C945.1,1683,933.5,1676.9,922,1670.2z"/>
	<path class="st7" d="M591.4,222.1c-0.3-0.9,3.6,1.5,4.5,3.2c0.9,1.9-0.4,4.5,0.1,6.5c1,4,6.6,4.7,10.9,4.3c4.1-0.4,8.3-1.4,11.5-4
		c4.9-3.8,6.3-9.8,8.5-15.3c2.2-5.6,5.5-11,9.6-15.7c3.1-3.5,6.5-6.7,9.1-10.5c2.7-3.8,4.4-8.4,3.4-12.6c-1.5-6-8.9-9.4-15.7-8.1
		c-6.7,1.3-12.4,6.3-15.8,12c-3.4,5.7-4.7,12.1-5.5,18.5c-3-0.7-3.8-4.4-3.8-7.3c0.6-19.2,11.2-37.6,21.8-54.8
		c3.9-6.2,7.9-14.2,3.9-19.8c-4.1-6-14.5-4.8-20.5,0.4c-6,5.1-8.7,12.6-11.1,19.7c-2.6,7.3-5.3,14.6-8.3,21.8
		c-1.3,3.3-4.7,7.4-7.8,5.7c-1.1-0.7-1.5-2-1.7-3.2c-0.5-4.3,2.1-8.6,4.3-12.7c7.1-12.6,12.9-25.9,17.2-39.5
		c2.4-7.5,4.4-15.6,2.4-23c-1.9-7.3-8.9-13.7-17-13c-8.1,0.8-14.5,8.2-16.7,15.7c-2.2,7.5-1.4,15.2-1.3,22.7
		c0.1,10.1-1.3,20.3-2.7,30.5c-0.2,1.2-0.6,2.6-1.8,2.8c-0.8,0.2-1.4-0.2-2-0.7c-5.4-4.4-4.8-12.3-4.8-19.2s-3-15.2-10.3-15.5
		c-4.7-0.2-8.7,2.9-12.5,5.9c-2.9,2.4-5.8,4.9-7.3,8.3c-1.9,5,0.4,10.4,3.1,14.6c6.8,10.5,16.3,19.4,27.6,25.6
		c3.9,2.1,8.1,4.1,10.4,7.7c2.3,3.5,1.7,9.4-2.6,11.5c-5,2.3-9.8-1.9-13-5.8c-3.2-3.9-8-8.2-13-6c-3.5,1.6-5,5.7-4.9,9.2
		c0.2,9,8.8,16.5,18.4,16.3c4.9-0.1,9.8-2.2,14.8-2.9c5-0.8,10.7-0.1,13.2,3.7c3,4.4-0.9,11.7-6.5,12.5c-4.4,0.6-8.4-1.9-12.8-1.9
		c-4.6,0-9.4,3-11.1,7.2c-1.7,4.2-0.2,9.1,3.4,11.5c4.5,2.9,10.9,1.9,16.2-0.2s10.4-5.1,16-6.2"/>
	<path class="st2" d="M1104,1639.1c5.1,1.3,11,1.3,15.1-1.7c4-3,4.4-9.5-0.1-12c-1.7-0.9-4-1.2-6.2-1.2
		c-16.8-0.7-33.9,4.1-47.3,13.2c-3.6,2.5-7.4,6.3-5.9,10.2c1.5,3.8,7.4,5,11.7,3.7c4.4-1.3,7.8-4.2,11.8-6.3
		c1.2-0.7,2.6-1.2,3.9-0.9c1.9,0.3,3.2,2.2,3.1,4c-0.1,1.7-1.2,3.3-2.6,4.6c-8.6,9.2-23.4,12.8-31.7,22.3c-2.2,2.5-3.8,6.2-1.3,8.6
		c3,3,8.6,0.7,12.1-1.8c5.9-4.1,12-8,17.9-12.1c2.2-1.5,5.6-2.6,6.9-0.5c0.3,0.5,0.4,1.2,0.3,1.7c-0.3,6.6-5.5,12.1-11.4,16.2
		c-5.9,4.1-12.6,7.1-17.9,11.9c-4.2,3.7-7.4,8.4-9,13.6c-0.4,1.2-0.7,2.5-0.3,3.6c0.5,1.5,2.2,2.2,3.8,2.8c6.5,1.7,12.6-3,16.5-7.8
		c3.8-4.9,7.1-10.6,13.3-12.8c0.8,6.7-2.3,13.3-6.5,18.9c-4.3,5.7-9.7,10.4-14.1,16c-2.2,2.6-4,6.1-2.2,8.7c0.7,0.8,1.6,1.5,2.7,1.8
		c5.5,2,11.3-2.4,14.3-6.7c3-4.5,5.4-9.9,10.8-12c5.5,5.3,1.9,15.8,9,19.3c5.5,2.6,12.5-2.1,13.6-7.5c1.1-5.4-1.5-10.8-3.8-16
		c-3.9-9.4-6.5-19.3-7.3-29.3c-0.1-2.1,0.7-5.3,3.1-5c0.9,0.1,1.6,0.7,2.2,1.2c2.8,2.9,3.1,7.1,4.7,10.7s6.3,6.9,10.1,4.9
		c1.9-0.9,2.7-2.9,3.1-4.6c1.1-5.7-2-11.3-5.9-16.1c-3.9-4.7-8.6-8.8-11.4-14.1c-1.2-2.2-1.6-5.7,1.1-6.5c2.4-0.8,4.6,1.6,5.9,3.4
		c1.5,2.1,3.1,4.2,5.5,5.4c2.4,1.2,5.8,1.3,7.8-0.4c0.9-0.9,1.5-2.1,1.7-3.3c0.9-5.9-5-10.9-10.9-14c-5.9-3-12.8-5.4-16.3-10.7
		L1104,1639.1z"/>
	<path class="st8" d="M427.2,313.7c-4.9-1.1-9.1-4-13.1-6.9c-3.4-2.4-6.8-4.9-9.6-7.9c-3.5-3.8-6.1-8.2-8.2-12.8
		c-0.9-1.8-1.7-4.1-0.6-6c0.8-1.3,2.4-1.9,3.9-1.9c1.5,0.1,3,0.5,4.4,1.1c3.7,1.3,7.4,2.7,11.1,4.1c-0.4-4.7-1.1-9.6-3.1-13.9
		c-4-8.4-13.2-13.7-17-22.3c-0.3-0.8-0.6-1.5-0.8-2.5c-0.2-2.8,2.6-5.2,5.3-5.6c2.8-0.3,5.5,1.1,7.4,2.9c6.8,6.5,6.8,18.5,14.7,23.4
		c0.6-13.9-7.6-26.3-12.9-39.3c-1.2-3-2.2-6.2-1.8-9.3c0.3-2.3,1.8-4.9,4.1-5.1c1.5-0.1,3,0.9,4.1,1.8c2.9,2.3,5.7,5,7.4,8.4
		c1.9,3.6,2.8,7.6,3.7,11.5c1.8,7.1,4.3,14,7.4,20.6c2.4-8.5,2.8-17.4,1.1-26c-0.4-2.1-0.9-4.3-0.3-6.2c0.7-2.2,2.9-4,5.3-4.1
		c2.4-0.2,4.8,1.2,5.7,3.2c1.5,3.4-0.4,7.2-1.6,10.8c-1.2,3.3-1.6,6.9-2.2,10.3c-0.9,6.1-1.8,12.2-2.7,18.3c-0.2,0.8-0.3,1.7,0,2.5
		c0.3,0.8,1.1,1.5,1.9,1.1c0.4-0.2,0.8-0.5,1.1-0.8c2.2-2.4,4.3-5.2,4.1-8.4c-0.1-1.3-0.5-2.6,0-3.7c0.7-1.3,2.4-1.8,3.8-1.2
		c1.4,0.5,2.3,1.6,3.2,2.8c1.7,2.4,3,5.1,3.2,7.9c0.2,2.8-0.8,6-3.2,7.7c-1.6,1.2-3.7,1.7-5.6,2.4c-1.8,0.7-3.7,2.1-4.3,4.1
		c-0.3,0.9-0.2,2.1-1,2.5c-0.9,0.4-1.8-0.2-2.5-0.8c-1.8-1.4-3.5-2.9-5.3-4.3c-2.1,3.6-0.2,7.9,1.6,11.4c0.4,0.7,0.8,1.6,1.5,1.9
		c0.9,0.4,2,0.2,2.8,0c2.2-0.5,4.4-1.1,6.5-0.5c2,0.7,3.7,3,2.7,5c-0.7,1.3-2.1,1.9-3.4,2.5c-8.7,4-15.7,11.5-18.8,20.4L427.2,313.7
		z"/>
	<path class="st9" d="M709.9,1614.6c-2,11.2-11,20-21.1,25.3c-10.1,5.4-21.5,7.8-32.5,11.1c-5.2,1.6-11,3.8-12.9,8.8
		c-2.4,6.2,3.2,13.3,9.9,14.4c6.6,1.1,13.3-2.4,18-7.1c-7.4,10.3-16.9,19-28,25.2c-3.9,2.2-7.9,4.1-12.2,5.1
		c-5.2,1.2-10.9,1.1-15.9,3c-5.1,2-9.5,7-8.1,12.3c0.9,3.6,4.4,5.9,7.8,7.7c3.5,1.8,7.5,3.4,11.2,1.8c0.9-0.4,1.9-0.9,2.8-0.8
		c1.5,0.3,2.2,2.2,1.5,3.7c-0.5,1.5-1.9,2.2-3.2,3.2c-6,4.4-11.3,11.6-8.7,18.6c2.2,5.8,9.3,8.7,15.5,7.7s11.4-5,15.6-9.5
		c9.9-10.4,16.3-23.6,22.9-36.4c1.7-3.6,3.8-7.1,6.9-9.5c1.7-1.3,3.9-2.1,5.9-1.5c1.2,0.4,2.7,1.2,2.8,2.4c0.4,2.8-2.2,6.3-4.2,10.4
		c-2,4.2-2.7,12.4,0.1,16c3.9,4.9,8.1,7.1,13,5.7c5-1.5,7.5-6.6,11-10.4c2.6-2.8,21.5-36.5,19.4-52.2c-2.3-16.5-4-47.9-17.6-55.3"/>
	<path class="st10" d="M1189.1,236.6c-1.9,2.3,3.5,2.8,6.6,2.5c2-0.2,3.8-1.1,5.8-1.6c2.5-0.5,5.1-0.4,7.5,0.5
		c1.6,0.6,3.2,1.8,3,3.4c0,0.8-0.6,1.5-1.2,2.1c-2.4,2.6-5.5,4.6-8.9,5.7c-2,0.6-28.6,14.9-33.9,13.8c-0.4-0.1-1-0.4-1.3-0.7
		c-7.6-6-19.5-18.7-24.4-31.1c-1.2-3.3-2.3-7.3-0.1-10.2c2.1-2.9,6.5-3.1,9.9-1.7c3.3,1.4,6,4.1,8.7,6.5c2.7,2.4,5.8,4.7,9.5,5.1
		c-5.9-9.7-11.6-19.5-17.5-29.3c-2.4-4-4.9-8.1-5.6-12.8c-0.4-2-0.3-4.1,0.9-5.7c1.8-2.5,5.6-2.3,8.3-0.8c2.6,1.6,4.4,4.3,5.8,6.9
		c6.3,10.7,12.1,21.8,17.5,33c1,0.4,1.6-1,1.6-2c0.7-13.4-6.9-25.8-10.1-38.9c-0.9-3.9-1.1-8.6,2.1-10.9c3.3-2.4,8.4-0.2,11.1,2.9
		c6.1,7.4,4.3,18.4,8.1,27.3c3.7-6.8,5.2-14.8,4.3-22.5c-0.3-3.7-1.2-7.3-0.6-10.8c0.6-3.5,3.5-7,7.2-6.9c2.7,0.1,5,2.1,6.3,4.6
		c1.1,2.4,1.5,5.2,1.7,7.8c0.2,2.9,0.6,5.8,0.3,8.6c-0.3,3.9-1.6,7.6-3.1,11.1c-0.7,1.7-1.5,3.3-2.5,4.8c-1.3,1.7-3,3.1-4.4,4.6
		c-2.5,2.5-4.4,5.7-5.4,9.1c-0.5,1.4-0.8,2.9-0.4,4.3c0.5,1.4,2,2.6,3.4,2.2c0.8-0.2,1.4-0.8,2-1.5c2.1-2.4,4.2-4.8,6.4-7.2
		c0.7-0.9,1.5-1.8,2.6-2.1c3.1-1.4,6.6,1.7,7.7,4.7c1.5,4.4,0.4,9.5-2.8,12.8C1208.3,230.9,1194.8,229.6,1189.1,236.6z"/>
	<path class="st8" d="M1007,176.4c6.6-1.8,12.3-6,17.6-10.4c4.5-3.5,9.1-7.1,12.9-11.5c4.6-5.3,7.8-11.7,10.6-18.2
		c1.1-2.7,2.1-5.9,0.4-8.3c-1.2-1.7-3.4-2.4-5.5-2.4c-2,0.1-4,0.9-5.9,1.7c-5,2.1-9.9,4.2-15.1,6.3c0.3-6.6,0.9-13.3,3.6-19.5
		c5.1-12,17.3-19.8,21.9-31.8c0.4-1.2,0.8-2.3,0.8-3.4c0-3.9-3.8-7.1-7.6-7.3c-3.9-0.3-7.5,1.8-10.2,4.5
		c-8.9,9.4-8.2,25.9-18.9,33.2c-1.7-19.3,8.9-36.8,15.3-54.9c1.4-4.1,2.7-8.5,2-13c-0.6-3.2-2.8-6.6-6-6.7c-2.2-0.1-4,1.3-5.6,2.7
		c-4,3.4-7.5,7.4-9.9,12.1c-2.4,5-3.3,10.5-4.4,16.1c-2.1,9.9-5,19.5-8.9,28.7c-3.8-11.5-5-23.8-3.2-35.7c0.4-2.9,1-6,0-8.8
		c-1.1-3.1-4.3-5.3-7.6-5.4c-3.3-0.1-6.5,1.9-7.8,4.9c-1.9,4.7,1,9.9,2.9,14.7c1.9,4.5,2.7,9.5,3.7,14.3c1.6,8.4,3.2,16.8,4.9,25.1
		c0.2,1.2,0.4,2.3,0,3.4c-0.3,1.1-1.5,2-2.6,1.8c-0.6-0.1-1.1-0.6-1.6-1.1c-3.1-3.2-6.3-6.9-6.3-11.3c0-1.7,0.6-3.6-0.2-5.1
		c-1-1.8-3.5-2.3-5.3-1.6c-1.8,0.7-3.1,2.4-4.3,4c-2.2,3.3-3.9,7-4,11s1.6,8.3,5,10.6c2.4,1.6,5.2,2.1,7.9,3.1c2.7,1,5.3,2.7,6,5.4
		c0.3,1.3,0.4,2.9,1.5,3.4c1.1,0.6,2.3-0.3,3.4-1.2c2.2-2.1,4.6-4.2,6.9-6.3c3.1,4.7,0.8,10.8-1.5,15.9c-0.5,1-1,2.1-2,2.7
		c-1.2,0.6-2.6,0.4-3.9,0.1c-2.9-0.7-6.2-1.3-8.9-0.2c-2.8,0.9-5,4.5-3.4,7.1c0.9,1.6,3,2.4,4.7,3.1c12.2,4.7,22.4,14.8,27.3,27
		L1007,176.4z"/>
	<path class="st11" d="M1508.9,1556c-47.1-52.9-121.1-117.8-211.6-114.7c-153.3,5.3-189,200.4-344.7,251.1
		c-168.2,54.7-180.4-156-375.8-120.2c-153.8,28.2-189.9,164.9-330.6,152.2c-106.7-9.6-192-97.7-246.3-168.4c0-408.5,0-817,0-1225.5
		c181.2-148.7,266.5-132,310.6-83c12,13.3,56.9,68.9,119.9,80.6c30.5,5.7,54.8-0.1,64.3-3.9c65.5-26.2,101.6-119.7,247.9-168.8
		c162.9-54.7,313.4,19.4,328.2,27.5c135.7,74.7,151.1,170,264.2,189.1c73,12.3,134-16,173.8-41.6
		C1508.9,739,1508.9,1147.5,1508.9,1556z"/>
</g>
<path class="st11" d="M3616.6,185.8"/>
</svg>
