<svg width="1440" height="832" viewBox="0 0 1440 832" fill="none" xmlns="http://www.w3.org/2000/svg">
<path d="M539.323 167.324C544.46 158.225 550.515 137.449 543.238 131.302C539.818 128.413 535.556 126.956 531.741 124.697C527.926 122.437 524.333 118.923 523.792 114.109C523.414 110.744 524.597 107.288 526.036 104.161C526.772 102.564 527.62 100.944 528.912 99.8431C532.049 97.1637 536.645 98.525 539.304 101.416C541.957 104.305 543.309 108.327 545.206 111.884C548.368 117.808 553.187 122.572 558.898 125.409C560.383 126.149 562.507 126.571 563.487 125.012C563.761 124.577 563.885 124.062 563.976 123.551C565.048 117.768 563.045 112.095 561.005 106.858C558.964 101.622 556.797 96.0812 557.538 90.2612C558.28 84.4349 563.213 78.54 568.373 79.5393C572.603 80.3568 574.975 85.1965 575.821 89.8223C578.165 102.591 573.154 116.702 576.546 129.115C582.295 118.248 586.219 106.3 588.043 94.1203C588.7 89.7371 589.116 85.2042 591.014 81.1941C592.91 77.1903 596.776 73.7861 600.717 74.2999C602.336 74.5139 603.798 75.3523 605.201 76.2008C607.923 77.8447 610.796 79.8559 611.649 83.1757C612.839 87.7998 609.659 92.5713 606.779 96.4889C600.803 104.63 595.207 113.102 590.031 121.854C588.264 124.848 586.776 129.422 589.403 131.156C599.4 121.42 604.639 107.147 613.566 96.2223C617.393 91.5403 623.408 87.2297 628.202 89.9652C633.087 92.7492 632.717 101.17 629.179 106.261C625.647 111.353 620.146 114.182 615.248 117.618C609.883 121.383 605.026 126.091 600.941 131.486C600.537 132.022 600.121 132.617 600.081 133.29C600.006 134.576 601.423 135.358 602.572 135.039C603.723 134.714 604.617 133.689 605.448 132.729C612.64 124.444 620.834 117.221 629.615 111.134C633.442 108.48 637.661 105.958 642.043 106.101C646.426 106.244 650.766 110.116 650.16 114.949C649.533 119.978 644.49 122.86 640.155 124.795C630.522 129.094 620.894 133.395 611.261 137.695C612.572 139.823 615.595 139.075 617.929 138.259C627.16 135.028 637.907 134.385 645.103 140.739C646.531 142.001 647.87 143.851 647.462 145.91C646.962 148.445 644.234 149.618 641.93 150.128C631.582 152.388 621.103 150.649 611.009 148.417C600.915 146.186 588.949 142.447 578.511 142.749C565.621 143.118 556.375 149.177 552.54 158.116C550.981 161.745 546.861 176.355 545.98 174.229L539.323 167.324Z" fill="#3A5751"/>
<path d="M704.542 735.611C704.001 732.458 699.942 736.459 698.104 739.101C696.9 740.834 696.376 742.94 695.421 744.824C694.209 747.226 692.271 749.262 689.94 750.577C688.45 751.419 686.386 751.883 685.231 750.654C684.638 750.028 684.474 749.11 684.372 748.242C683.954 744.492 684.494 740.62 685.911 737.095C686.708 735.097 693.593 703.672 698.06 700.12C698.448 699.816 699.03 699.601 699.388 699.533C709.26 697.669 727.497 696.937 740.563 701.644C744.091 702.919 747.94 704.954 748.738 708.663C749.545 712.361 746.757 716.101 743.365 717.812C739.973 719.522 736.089 719.73 732.35 720.199C728.611 720.668 724.669 721.542 721.938 724.209C733.598 726.356 745.257 728.493 756.926 730.639C761.738 731.526 766.67 732.454 770.829 735.009C772.593 736.097 774.281 737.612 774.712 739.656C775.376 742.782 772.746 745.91 769.695 746.906C766.654 747.91 763.372 747.338 760.257 746.725C747.508 744.232 734.859 741.202 722.371 737.656C721.392 738.177 722.057 739.666 722.83 740.433C732.929 750.32 747.921 752.886 760.418 759.482C764.081 761.417 767.992 764.567 767.595 768.758C767.171 773.127 762.114 775.664 757.768 775.547C747.683 775.27 740.279 766.112 730.758 762.9C733.625 770.639 738.837 777.43 745.523 782.171C748.641 784.383 752.138 786.214 754.492 789.227C756.847 792.24 757.652 796.994 755.032 799.869C753.102 801.982 749.882 802.438 747.16 801.723C744.447 800.996 742.104 799.319 739.832 797.67C737.361 795.884 734.879 794.09 732.774 791.886C729.953 788.916 727.921 785.288 726.132 781.587C725.295 779.86 724.502 778.098 724.088 776.207C723.596 773.968 723.662 771.643 723.433 769.359C723.059 765.573 721.878 761.887 719.985 758.617C719.213 757.288 718.261 755.974 716.861 755.369C715.462 754.765 713.517 755.175 712.864 756.591C712.496 757.396 712.604 758.321 712.716 759.198C713.159 762.586 713.612 765.974 714.056 769.363C714.214 770.553 714.367 771.782 714.02 772.933C712.995 776.357 708.286 777.093 705.025 775.802C700.532 774.009 697.247 769.543 696.832 764.668C696.036 755.039 706.17 745.108 704.542 735.611Z" fill="#F6AC81"/>
<path d="M882.383 152.837C887.932 153.9 893.505 156.986 895.501 162.185C897.497 167.384 894.091 174.473 888.444 174.769C886.188 174.896 884.016 173.988 882 173.014C865.874 165.27 852.7 151.773 845.509 135.584C843.511 131.115 842.244 125.207 845.88 121.862C849.489 118.536 855.662 120.264 859.005 123.822C862.355 127.368 863.883 132.168 866.361 136.345C867.103 137.588 868.021 138.874 869.422 139.321C871.43 139.976 873.695 138.559 874.595 136.663C875.494 134.766 875.339 132.558 874.953 130.492C872.35 116.432 860.565 105.286 858.315 91.165C857.72 87.4431 858.436 82.6918 862.035 81.3869C866.587 79.7264 870.41 84.9686 872.332 89.3311C875.536 96.5693 878.746 103.827 881.95 111.065C883.066 113.604 885.687 116.644 888.057 115.099C888.668 114.694 889.063 114.041 889.406 113.393C893.015 106.363 891.349 97.8355 888.23 90.626C885.111 83.4164 880.62 76.7714 878.447 69.2191C876.696 63.1535 876.531 56.6212 877.962 50.4572C878.301 49.0265 878.761 47.5278 879.878 46.5447C881.214 45.3467 883.214 45.1666 884.982 45.5271C891.962 46.9535 895.109 54.992 895.846 61.9786C896.57 68.9584 896.299 76.6706 900.763 82.1216C905.47 75.4775 906.442 66.9259 905.751 58.8843C905.061 50.8427 902.872 43.0161 901.843 35.0098C901.35 31.2257 901.599 26.5254 905.025 24.7131C906.1 24.1395 907.351 23.9757 908.566 24.0911C914.854 24.7007 917.752 32.1578 917.942 38.3713C918.131 44.5849 917.197 51.4617 920.963 56.4414C929.18 53.5106 931.968 40.6783 940.687 40.5733C947.372 40.4974 951.137 49.0308 949.027 55.2979C946.923 61.5522 941.295 65.9119 936.257 70.2701C927.076 78.2185 918.995 87.4003 912.323 97.4989C910.869 99.6976 909.884 103.358 912.344 104.32C913.232 104.66 914.234 104.43 915.128 104.092C919.49 102.38 922.148 98.0994 925.77 95.1454C929.378 92.1845 935.732 91.0682 938.092 95.0333C939.232 96.9526 938.954 99.3959 938.2 101.486C935.874 108.02 929.647 112.459 923.321 115.5C916.994 118.541 910.133 120.633 904.38 124.643C901.918 126.354 899.557 129.764 901.54 131.983C903.358 134.015 906.713 132.663 909.116 131.302C911.721 129.817 914.509 128.428 917.499 128.344C920.489 128.259 923.733 129.871 924.573 132.694C924.997 134.116 924.767 135.654 924.251 137.04C921.672 143.789 913.191 146.164 905.885 146.39C898.578 146.616 890.715 145.783 884.485 149.589L882.383 152.837Z" fill="#EA9188"/>
<path d="M725.807 134.513C723.41 134.349 720.78 133.455 719.745 131.283C719.204 130.141 719.187 128.819 718.868 127.585C717.729 123.383 712.224 121.054 708.418 123.192C704.613 125.33 703.724 131.252 706.724 134.408C709.66 137.506 715.063 137.781 717.136 141.507C719.856 146.395 714.915 153.927 719.16 157.558C720.647 158.832 722.762 158.99 724.712 159.002C736.683 159.052 748.648 155.235 758.369 148.232C761.2 146.188 764.145 143.048 763.191 139.682C762.475 137.167 759.723 135.699 757.118 135.629C754.513 135.558 752.021 136.587 749.625 137.596C747.09 138.662 744.555 139.729 742.02 140.795C741.439 138.667 743.385 136.765 745.145 135.43C752.933 129.548 761.017 124.051 769.368 118.989C772.174 117.294 775.092 115.553 776.983 112.88C778.874 110.206 779.453 106.271 777.394 103.718C774.962 100.709 770.099 101.01 766.799 103.035C763.499 105.06 761.203 108.339 758.41 111.018C755.617 113.697 751.779 115.914 748.036 114.971C753.935 98.7332 776.073 92.3364 780.657 75.6582C781.624 72.1266 781.401 67.7186 778.426 65.575C775.875 63.7299 772.133 64.35 769.62 66.2669C767.108 68.1838 765.591 71.0984 764.33 73.9901C761.585 80.2973 758.692 87.9822 751.972 89.4634C749.568 87.0354 748.997 82.9944 750.615 79.9789C752.248 76.9509 755.936 74.1711 754.676 70.9589C754.344 70.1008 753.678 69.422 752.994 68.7959C749.904 65.9707 745.758 63.8413 741.642 64.6111C735.742 65.7037 732.281 72.6491 733.357 78.5571C734.062 82.4186 736.224 85.8271 737.518 89.5267C739.533 95.2833 739.415 101.541 739.04 107.619C738.96 108.988 738.835 110.421 738.072 111.542C736.278 114.181 731.819 113.472 729.895 110.915C727.957 108.371 727.899 104.891 728.197 101.704C728.466 98.7581 728.807 95.3319 726.689 93.2603C724.47 91.074 720.508 91.76 718.299 93.9671C716.09 96.1742 715.278 99.393 714.852 102.477C714.434 105.439 714.383 108.751 716.256 111.075C717.408 112.515 719.127 113.36 720.732 114.278C725.404 116.982 729.451 120.762 732.44 125.251C733.441 126.748 734.361 128.455 734.238 130.252C734.115 132.049 732.525 133.854 730.743 133.557C730.793 133.601 728.204 134.677 725.807 134.513Z" fill="#A1A59F"/>
<g filter="url(#filter0_d)">
<path d="M1176.04 661.221C1169.63 666.161 1165.68 675.957 1161.08 683.609C1159.84 685.654 1158.6 687.871 1158.79 690.141C1159.06 693.509 1162.63 695.987 1166.34 696.212C1170.06 696.437 1173.78 694.802 1176.75 692.591C1179.72 690.38 1182.09 687.606 1184.62 684.997C1186.24 683.346 1189.28 681.727 1190.64 683.423C1191.06 683.942 1191.13 684.645 1191.11 685.311C1191.01 688.427 1189.25 691.381 1187.23 694.001C1180.29 703.054 1169.84 710.15 1165.39 720.321C1163.73 724.142 1163.25 728.967 1166.47 731.61C1169.08 733.749 1173.33 733.622 1176.66 732.167C1179.99 730.713 1182.6 728.191 1185.13 725.733C1187.4 723.518 1189.71 721.264 1191.37 718.657C1195.26 712.566 1195.38 704.962 1199.99 699.283C1200.73 698.381 1201.71 697.468 1202.92 697.392C1204.87 697.264 1206 699.275 1206.21 701.011C1206.8 705.851 1204.27 710.664 1201.63 715.065C1197.85 721.356 1193.67 727.505 1190.81 734.152C1187.94 740.8 1186.44 748.091 1188.26 754.818C1188.49 755.655 1188.8 756.529 1189.51 757.092C1190.3 757.7 1191.42 757.81 1192.48 757.803C1200.67 757.787 1208.19 752.279 1212.27 745.677C1216.34 739.075 1217.62 731.503 1218.68 724.115C1219.21 720.417 1219.83 716.442 1222.66 713.633C1224.75 714.487 1224.98 717.044 1224.91 719.161C1224.41 732.357 1222.86 745.569 1220.24 758.667C1219.43 762.698 1218.69 767.32 1221.57 770.299C1224.51 773.353 1230.33 773.099 1234.05 770.493C1237.77 767.887 1239.58 763.572 1240 759.429C1240.41 755.286 1239.6 751.188 1239.07 747.091C1238.54 742.994 1238.31 738.74 1239.8 734.753C1240.12 733.889 1240.6 732.977 1241.51 732.574C1242.8 732.009 1244.33 732.819 1244.92 733.947C1245.5 735.076 1245.42 736.404 1245.4 737.666C1245.32 742.098 1246.25 746.631 1249.03 750.158C1251.81 753.686 1256.66 756.013 1261.54 755.279C1262.61 755.121 1263.65 754.82 1264.63 754.352C1269.56 751.964 1270.89 745.781 1269.06 741.196C1267.22 736.611 1263.09 733.24 1259.26 729.881C1258.21 728.958 1257.11 727.92 1256.94 726.583C1256.78 725.245 1258.11 723.642 1259.56 723.94C1260.38 724.106 1260.9 724.775 1261.38 725.389C1264.34 729.183 1268.08 732.463 1272.35 735.038C1273.37 735.654 1274.46 736.237 1275.69 736.355C1278.87 736.668 1281.67 733.626 1281.92 730.713C1282.15 727.799 1280.59 725.117 1278.96 722.682C1276.36 718.775 1273.36 714.916 1269.01 712.599C1262.28 709.02 1253.7 709.784 1245.71 710.483C1242.95 710.728 1240.12 710.938 1237.5 710.284C1234.87 709.63 1232.45 707.901 1231.92 705.483C1231.81 704.978 1231.79 704.451 1232 703.962C1232.48 702.889 1233.93 702.468 1235.18 702.335C1242.98 701.509 1250.9 706.113 1258.21 703.257C1259.74 702.66 1261.17 701.703 1261.92 700.367C1263.23 698.055 1262.08 695.163 1259.9 693.664C1257.71 692.166 1254.76 691.8 1251.94 691.919C1246.3 692.148 1240.81 694.036 1235.19 694.661C1229.57 695.286 1223.19 694.303 1220.16 690.149C1219.57 689.344 1219.13 688.389 1219.29 687.401C1219.55 685.895 1221.21 684.794 1222.87 684.521C1224.53 684.248 1226.18 684.613 1227.79 684.963C1231.99 685.883 1236.48 686.716 1240.68 685.412C1244.87 684.108 1248.4 679.828 1246.91 676.181C1246.05 674.09 1243.8 672.738 1241.44 672.055C1232.54 669.457 1222.99 674.581 1213.67 676.691C1210.87 677.318 1207.52 677.536 1205.68 675.661C1203.74 673.697 1204.61 670.319 1206.7 668.301C1208.8 666.274 1211.75 665.234 1214.54 664.142C1217.68 662.916 1220.83 661.478 1223.16 659.186C1225.49 656.904 1226.87 653.586 1225.82 650.763C1224.7 647.752 1221.01 645.982 1217.44 646.183C1213.85 646.383 1210.06 647.932 1207.99 650.659C1200.55 660.532 1182.58 656.18 1176.04 661.221Z" fill="#5085A7"/>
</g>
<path d="M0 182.633C118.899 253.8 323.67 97.0584 495.413 121.645C570.287 132.364 731.009 185.162 814.679 159.55C898.349 133.938 1050.48 120.962 1114.13 121.645C1226.98 122.856 1293.34 215.878 1440 182.633V744.962C1440 744.962 1299.21 665.227 1114.13 689.417C929.05 713.608 759.498 756.889 645.517 744.962C531.536 733.034 346.358 668.396 228.991 689.417C111.624 710.439 0 744.962 0 744.962V182.633Z" fill="#F0D9C1"/>
<path d="M1169.29 86.5169C1168.61 84.8328 1168.51 82.9422 1167.99 81.1913C1166.61 76.6515 1162.57 73.6988 1158.79 71.0798C1158.32 70.7501 1157.76 70.409 1157.21 70.5424C1156.74 70.6547 1156.39 71.0592 1156.1 71.46C1153.88 74.3568 1151.94 77.955 1152.58 81.5762C1153.04 84.2012 1154.75 86.3366 1156.15 88.55C1158.9 92.8924 1160.61 97.9643 1161.06 103.183C1161.19 104.614 1161.24 106.123 1161.98 107.318C1162.51 108.164 1163.32 108.751 1164.14 109.261C1167.68 111.438 1171.8 112.447 1175.33 114.666C1179.28 117.142 1182.27 121.023 1186.25 123.458C1190.23 125.894 1196.04 126.374 1198.94 122.556C1200.11 121.027 1200.59 119.062 1201.04 117.169C1202.16 112.508 1203.17 107.148 1200.53 103.273C1198.28 99.9711 1194.01 98.8648 1190.11 98.9906C1188.3 99.0496 1186.44 99.3239 1184.69 98.8288C1182.94 98.3337 1181.3 96.7614 1181.41 94.8545C1181.52 92.728 1183.63 91.3395 1185.55 90.644C1190.6 88.8213 1196.29 89.1298 1201.09 91.48C1204.12 92.9689 1206.77 95.2105 1209.7 96.917C1214.53 99.7243 1220.16 101.007 1225.7 100.577C1226.18 100.544 1226.68 100.481 1227.11 100.253C1227.95 99.7945 1228.35 98.8005 1228.69 97.8753C1229.35 96.0776 1230.03 94.1947 1229.87 92.2847C1229.53 87.9644 1225.11 85.2248 1220.98 84.8665C1216.86 84.5082 1212.75 85.7864 1208.6 85.8781C1204.46 85.9697 1199.78 84.3986 1198.21 80.4053C1200.84 75.5453 1207.31 75.0995 1212.56 75.8229C1217.05 76.4411 1221.5 77.4509 1225.82 78.8625C1228.16 79.6272 1230.61 80.5158 1233.04 80.0676C1235.57 79.609 1237.68 77.7799 1239.47 75.828C1240.36 74.8467 1241.23 73.7744 1241.65 72.485C1242.79 68.9644 1240.01 65.1804 1236.66 64.057C1233.31 62.9335 1229.66 63.7333 1226.2 64.5384C1222.02 65.5084 1217.84 66.4784 1213.65 67.4592C1212.72 67.6729 1211.73 67.8904 1210.81 67.6202C1208.58 66.9485 1208.01 63.6896 1209.06 61.5054C1210.12 59.3211 1212.19 57.9052 1214.03 56.3916C1217.4 53.6092 1220.24 50.1361 1222.37 46.2327C1223.6 43.9614 1224.59 41.1721 1223.52 38.8496C1221.96 35.4652 1216.97 35.584 1214.18 38.0271C1211.39 40.4702 1210.17 44.2777 1208.71 47.7527C1207.68 50.1839 1206.48 52.5367 1205.12 54.7787C1203.53 57.4083 1200.41 60.1923 1197.99 58.4348C1196.09 57.0575 1196.44 54.0471 1197 51.6835C1197.61 49.0842 1198.22 46.4742 1198.83 43.8749C1199.29 41.939 1199.74 39.9476 1199.53 37.9749C1199.31 36.0023 1198.28 34.0163 1196.52 33.2771C1194.96 32.6205 1193.13 33.0644 1191.64 33.9186C1187.51 36.2433 1185.28 41.3473 1185.19 46.2262C1185.11 51.1065 1186.85 55.8072 1189.03 60.0945C1190.19 62.351 1191.49 64.6289 1191.78 67.1863C1192.07 69.7438 1190.98 72.7074 1188.66 73.5916C1186.42 74.4424 1183.9 73.0246 1182.55 71.0054C1181.19 68.9862 1180.69 66.4869 1180.06 64.0927C1179.37 61.469 1178.47 58.8493 1176.83 56.747C1175.2 54.6446 1172.71 53.1212 1170.12 53.2715C1167.45 53.4227 1164.94 55.4744 1164.14 58.1579C1163.24 61.2135 1164.46 64.5402 1166.34 67.0183C1168.22 69.4964 1170.69 71.3939 1172.82 73.6417C1174.95 75.8896 1176.81 78.6956 1176.91 81.8782C1177 85.0609 1174.73 88.4915 1171.69 88.5591C1171.69 88.536 1169.98 88.2011 1169.29 86.5169Z" fill="#A9C1DD"/>
<path d="M205.573 709.397C199.871 706.05 194.676 695.48 192.58 697.052C191.259 698.042 187.979 707.665 184.003 709.273C176.237 717.844 162.882 714.712 156.156 715.84C155.546 716.334 154.944 716.991 154.987 717.774C155.042 718.76 156.049 719.356 156.673 720.117C158.083 721.844 157.134 724.9 154.994 725.521C153.929 729.346 158.253 732.922 162.202 732.682C166.152 732.442 169.486 729.766 172.493 727.174C175.501 724.587 178.739 721.839 182.674 721.407C183.303 721.336 183.984 721.344 184.51 721.698C185.432 722.323 185.437 723.678 185.202 724.773C184.532 727.951 182.696 730.863 180.122 732.834C178.138 734.357 175.785 735.299 173.463 736.226C163.718 740.122 153.971 744.013 144.22 747.911C142.718 748.51 141.121 749.181 140.212 750.529C139.49 751.59 139.309 752.923 139.258 754.206C139.107 757.905 140.026 761.894 142.806 764.326C146.612 767.658 152.677 766.917 156.931 764.176C161.184 761.435 164.144 757.132 167.326 753.187C172.17 747.181 177.768 741.788 183.948 737.172C180.608 746.329 179.597 756.543 174.022 764.525C168.033 773.098 157.882 777.541 148.258 781.585C146.202 782.447 143.796 783.83 143.879 786.063C143.94 787.692 145.461 788.966 147.055 789.291C148.649 789.616 150.291 789.232 151.874 788.838C152.999 791.606 154.378 794.264 155.985 796.774C156.783 798.014 157.839 799.34 159.31 799.415C161.345 799.524 162.597 797.279 163.392 795.389C168.346 783.647 175.032 772.638 183.158 762.83C182.306 775.875 181.981 788.948 182.184 802.014C182.201 803.144 182.338 804.475 183.316 805.038C184.499 805.716 185.963 804.719 186.735 803.594C187.507 802.468 188.082 801.07 189.308 800.473C191.216 799.537 193.361 801.051 194.94 802.464C199.31 795.76 196.801 786.956 194.982 779.168C192.179 767.141 191.407 754.631 192.712 742.342C192.838 741.168 193.363 739.654 194.532 739.738C195.407 739.797 195.891 740.75 196.197 741.571C198.259 747.137 199.78 752.909 200.718 758.776C201.924 766.29 202.342 774.365 206.777 780.537C207.69 781.803 209.024 783.07 210.569 782.862C212.893 782.548 213.48 779.408 213.101 777.085C212.722 774.762 212.093 772.005 213.765 770.354C214.751 769.377 216.266 769.151 217.369 768.308C219.414 766.743 219.423 763.676 218.927 761.147C215.917 745.894 202.126 734.712 198.381 719.62C201.238 720.246 203.068 722.959 204.609 725.45C207.957 730.876 211.299 736.299 214.646 741.726C215.341 742.85 216.261 744.109 217.58 744.096C220.641 744.074 219.669 738.566 222.143 736.762C224.092 735.341 227.272 736.953 229.059 735.328C230.571 733.947 229.814 731.442 228.806 729.659C222.805 719.099 214.197 714.459 205.573 709.397Z" fill="#E67D0A"/>
<path d="M297.823 722.489C298.465 723.035 294.883 722.881 293.659 722.058C292.257 721.13 292.008 719.091 290.773 717.946C288.407 715.754 284.582 717.327 282.024 719.289C279.67 721.097 277.449 723.312 276.532 726.139C275.177 730.308 276.926 734.774 277.955 739.036C279.039 743.479 279.336 748.106 278.858 752.655C278.495 756.034 277.714 759.385 277.712 762.785C277.71 766.185 278.645 769.781 281.161 772.062C284.795 775.359 290.892 774.728 294.538 771.444C298.169 768.159 299.546 762.882 299.117 757.98C298.688 753.077 296.677 748.468 294.456 744.087C296.674 743.36 298.758 745.466 300.043 747.433C308.159 759.979 309.558 775.617 310.46 790.564C310.792 796.012 311.788 802.518 316.764 804.709C321.936 806.977 327.99 802.373 329.487 796.904C330.985 791.435 329.337 785.651 327.802 780.2C326.213 774.554 324.729 768.875 323.364 763.163C322.737 760.561 323.096 756.627 325.759 756.689C326.728 756.713 327.592 757.369 328.214 758.117C330.422 760.731 330.743 764.383 331.102 767.79C332.19 778.508 334.39 789.119 337.655 799.384C339.468 805.111 341.776 810.961 346.225 814.967C350.674 818.973 357.847 820.508 362.652 816.946C367.394 813.436 368.151 806.36 366.253 800.756C364.356 795.152 360.416 790.541 357.036 785.707C352.524 779.258 348.911 772.227 345.31 765.212C344.898 764.398 344.514 763.294 345.184 762.675C345.583 762.306 346.206 762.31 346.749 762.394C352.008 763.197 355.121 768.529 358.216 772.881C361.311 777.233 366.768 781.456 371.493 778.996C374.489 777.442 375.728 773.859 376.688 770.598C377.452 768.004 378.231 765.265 377.606 762.634C376.647 758.686 372.848 756.175 369.205 754.439C360.298 750.191 350.415 748.05 340.56 748.261C337.188 748.332 333.662 748.636 330.613 747.193C327.565 745.75 325.407 741.754 327.212 738.899C329.294 735.59 334.241 736.464 337.912 737.766C341.584 739.067 346.479 740.023 348.67 736.784C350.217 734.487 349.299 731.301 347.678 729.067C343.537 723.413 334.894 721.775 329 725.505C325.95 727.448 323.766 730.469 321.01 732.82C318.254 735.172 314.347 736.839 311.073 735.329C307.299 733.594 306.516 727.576 309.721 724.934C312.2 722.891 315.824 723.064 318.606 721.474C321.542 719.798 323.157 716.077 322.397 712.761C321.637 709.445 318.515 706.842 315.152 706.666C311.055 706.446 307.466 709.444 305.022 712.745C302.578 716.047 300.749 719.878 297.747 722.671" fill="#A9BFDE"/>
<path d="M1028.9 722.332C1032.67 723.381 1037.14 723.317 1040.14 721.026C1043.14 718.734 1043.46 713.802 1040.09 711.97C1038.74 711.234 1037.1 711.096 1035.53 711.041C1022.99 710.571 1010.3 714.16 1000.37 721.007C997.626 722.894 994.836 725.793 995.931 728.719C997.016 731.627 1001.4 732.492 1004.66 731.507C1007.93 730.532 1010.5 728.323 1013.44 726.74C1014.32 726.271 1015.32 725.829 1016.34 725.995C1017.79 726.225 1018.7 727.679 1018.61 728.995C1018.52 730.311 1017.67 731.489 1016.73 732.52C1010.34 739.541 999.31 742.238 993.121 749.397C991.489 751.284 990.311 754.127 992.078 755.913C994.309 758.177 998.442 756.4 1001.11 754.551C1005.54 751.486 1009.98 748.413 1014.41 745.348C1015.96 744.271 1018.61 743.36 1019.54 744.916C1019.78 745.32 1019.8 745.799 1019.79 746.259C1019.61 751.219 1015.68 755.453 1011.31 758.526C1006.94 761.6 1001.92 763.956 998.018 767.499C994.877 770.342 992.553 773.913 991.334 777.75C991.055 778.643 990.828 779.609 991.179 780.484C991.592 781.542 992.76 782.232 993.968 782.554C998.741 783.824 1003.41 780.3 1006.24 776.646C1009.06 772.993 1011.52 768.64 1016.12 766.937C1016.75 772.008 1014.43 777.033 1011.27 781.284C1008.11 785.536 1004.1 789.226 1000.75 793.358C999.155 795.309 997.708 797.987 999.196 800.002C999.661 800.637 1000.37 801.097 1001.16 801.392C1005.23 802.91 1009.55 799.634 1011.78 796.248C1014.01 792.861 1015.78 788.775 1019.79 787.128C1023.84 791.177 1021.18 799.11 1026.5 801.742C1030.58 803.757 1035.8 800.14 1036.64 796.045C1037.47 791.959 1035.5 787.883 1033.89 783.981C1030.95 776.867 1029.12 769.394 1028.45 761.83C1028.31 760.183 1028.95 757.864 1030.79 758.057C1031.45 758.131 1031.99 758.554 1032.42 759.005C1034.52 761.241 1034.69 764.397 1035.91 767.103C1037.12 769.809 1040.65 772.303 1043.45 770.802C1044.8 770.075 1045.46 768.64 1045.71 767.259C1046.5 762.953 1044.19 758.655 1041.34 755.103C1038.49 751.551 1034.98 748.367 1032.81 744.446C1031.88 742.771 1031.6 740.185 1033.57 739.541C1035.38 738.952 1036.98 740.692 1037.99 742.155C1039.09 743.747 1040.33 745.339 1042.13 746.268C1043.94 747.198 1046.48 747.262 1047.96 745.946C1048.7 745.284 1049.09 744.363 1049.24 743.443C1049.95 738.943 1045.55 735.124 1041.14 732.842C1036.73 730.56 1031.62 728.701 1029.08 724.753L1028.9 722.332Z" fill="#EA9188"/>
<path d="M622.097 730.326C624.287 733.388 625.183 737.139 626.025 740.786C626.738 743.853 627.449 746.947 627.559 750.091C627.693 753.948 626.913 757.774 625.898 761.489C625.48 763.01 624.819 764.733 623.295 765.193C622.219 765.511 621.032 765.048 620.199 764.291C619.367 763.534 618.828 762.525 618.31 761.536C616.92 758.918 615.537 756.296 614.147 753.678C612.017 756.604 609.999 759.708 609.051 763.196C607.185 770.042 609.609 777.565 607.536 784.357C607.346 784.979 607.116 785.595 606.723 786.11C605.458 787.77 602.766 787.833 601.044 786.616C599.331 785.396 598.497 783.256 598.325 781.172C597.748 774.108 603.617 767.287 601.598 760.475C594.361 768.109 592.939 779.317 589.495 789.23C588.708 791.503 587.738 793.816 585.938 795.427C584.632 796.59 582.543 797.28 581.141 796.209C580.211 795.501 579.905 794.259 579.71 793.114C579.227 790.297 579.054 787.387 579.667 784.608C580.326 781.628 581.864 778.931 583.234 776.205C585.704 771.289 587.703 766.132 589.189 760.839C583.675 764.427 579.042 769.324 575.783 775.008C574.987 776.398 574.208 777.902 572.836 778.747C571.329 779.675 569.237 779.566 567.816 778.489C566.396 777.412 565.747 775.433 566.253 773.746C567.049 771.094 570.007 769.87 572.421 768.48C574.727 767.149 576.754 765.404 578.765 763.668C582.273 760.643 585.778 757.625 589.286 754.601C589.76 754.192 590.256 753.757 590.469 753.17C590.689 752.584 590.523 751.804 589.944 751.54C589.637 751.399 589.28 751.43 588.942 751.466C586.559 751.725 583.941 752.248 582.531 754.162C581.97 754.918 581.58 755.898 580.71 756.27C579.708 756.693 578.489 756.038 577.961 755.079C577.431 754.126 577.44 752.981 577.535 751.905C577.737 749.736 578.294 747.542 579.595 745.794C580.896 744.046 583.03 742.806 585.222 742.981C586.732 743.101 588.105 743.847 589.541 744.339C590.977 744.83 592.682 745.021 593.896 744.137C594.46 743.724 595.015 743.068 595.704 743.227C596.381 743.381 596.608 744.201 596.711 744.88C596.966 746.568 597.229 748.252 597.484 749.94C600.393 748.988 601.5 745.572 602.2 742.613C602.344 742.009 602.485 741.35 602.254 740.771C601.985 740.099 601.284 739.708 600.639 739.375C599.18 738.621 597.63 737.816 596.784 736.418C595.94 735.013 596.221 732.829 597.746 732.242C598.718 731.87 599.811 732.249 600.809 732.563C607.574 734.709 615.22 733.903 621.341 730.393L622.097 730.326Z" fill="#FAD2C9"/>
<path d="M916.017 692.197C914.535 700.664 907.857 707.394 900.322 711.447C892.786 715.5 884.322 717.364 876.13 719.824C872.261 720.987 867.972 722.716 866.552 726.512C864.795 731.207 869.001 736.609 873.938 737.424C878.874 738.239 883.796 735.588 887.326 732.048C881.869 739.839 874.71 746.419 866.505 751.184C863.651 752.842 860.642 754.292 857.431 755.059C853.516 755.992 849.346 755.892 845.599 757.361C841.848 758.827 838.503 762.711 839.579 766.623C840.323 769.325 842.875 771.08 845.339 772.396C847.891 773.766 850.939 774.95 853.598 773.818C854.272 773.533 854.952 773.095 855.672 773.22C856.796 773.418 857.244 774.942 856.799 775.998C856.354 777.054 855.357 777.744 854.436 778.423C849.98 781.708 846.052 787.259 847.928 792.497C849.506 796.893 854.817 799.084 859.399 798.326C863.98 797.567 867.86 794.527 871.046 791.143C878.457 783.262 883.104 773.227 887.997 763.559C889.341 760.903 890.787 758.177 893.14 756.368C894.403 755.398 896.078 754.72 897.585 755.239C898.476 755.545 899.573 756.112 899.699 757.052C899.963 759.122 898.049 761.802 896.556 764.961C895.064 768.12 894.522 774.323 896.698 777.064C899.641 780.773 902.699 782.451 906.434 781.331C910.169 780.211 912.054 776.364 914.662 773.456C916.522 771.381 930.645 745.775 929.053 733.843C927.386 721.366 926.042 697.504 915.996 691.921" fill="#E5CBAB"/>
<path d="M456.665 730.682C458.296 729.091 454.351 728.276 452.077 728.24C450.587 728.219 449.147 728.752 447.667 728.939C445.782 729.182 443.824 728.843 442.133 727.98C441.051 727.428 439.964 726.382 440.227 725.199C440.359 724.593 440.831 724.125 441.299 723.716C443.329 721.958 445.808 720.723 448.432 720.153C449.916 719.825 471.031 711.3 474.876 712.54C475.208 712.649 475.563 712.91 475.745 713.096C480.738 718.243 488.376 728.839 490.785 738.534C491.434 741.154 491.764 744.27 489.908 746.238C488.063 748.207 484.771 748.046 482.429 746.708C480.087 745.371 478.43 743.135 476.678 741.09C474.926 739.046 472.856 737.044 470.215 736.485C473.567 744.312 476.925 752.133 480.282 759.965C481.665 763.195 483.071 766.514 483.219 770.025C483.28 771.515 483.06 773.133 482.035 774.212C480.467 775.865 477.597 775.553 475.808 774.131C474.018 772.719 473.055 770.529 472.183 768.422C468.603 759.806 465.376 751.034 462.515 742.151C461.824 741.776 461.215 742.772 461.072 743.542C459.276 753.548 463.701 763.533 464.779 773.648C465.095 776.613 464.797 780.216 462.187 781.664C459.462 783.168 455.978 781.168 454.329 778.525C450.505 772.392 452.938 764.288 451.055 757.31C447.658 762.134 445.744 767.978 445.612 773.877C445.55 776.628 445.86 779.452 445.027 782.07C444.194 784.688 441.73 787.08 439.011 786.671C437.012 786.369 435.472 784.629 434.815 782.716C434.167 780.804 434.223 778.73 434.29 776.71C434.359 774.517 434.428 772.313 434.886 770.169C435.509 767.291 436.829 764.618 438.288 762.062C438.968 760.867 439.686 759.685 440.63 758.678C441.746 757.484 443.132 756.588 444.379 755.533C446.447 753.787 448.138 751.6 449.303 749.154C449.776 748.159 450.169 747.062 449.97 745.983C449.77 744.905 448.762 743.908 447.675 744.087C447.058 744.191 446.559 744.628 446.09 745.047C444.282 746.675 442.478 748.307 440.67 749.935C440.036 750.508 439.377 751.093 438.566 751.349C436.157 752.114 433.864 749.598 433.332 747.131C432.604 743.727 433.92 739.97 436.61 737.761C441.931 733.414 451.75 735.473 456.665 730.682Z" fill="#F7D29A"/>
<path d="M1088.45 104.923C1091.48 100.691 1092.72 95.5054 1093.88 90.4649C1094.87 86.2254 1095.85 81.9497 1096 77.6034C1096.19 72.2716 1095.11 66.9835 1093.7 61.8486C1093.13 59.746 1092.21 57.364 1090.11 56.7284C1088.62 56.2888 1086.98 56.9294 1085.83 57.9752C1084.68 59.021 1083.93 60.4161 1083.22 61.7833C1081.29 65.4023 1079.38 69.0268 1077.46 72.6457C1074.52 68.6009 1071.73 64.3106 1070.42 59.4884C1067.84 50.0255 1071.19 39.6272 1068.32 30.2394C1068.06 29.3794 1067.74 28.5277 1067.2 27.8153C1065.45 25.5219 1061.73 25.4348 1059.35 27.116C1056.98 28.8028 1055.83 31.7608 1055.59 34.6415C1054.79 44.4056 1062.91 53.8344 1060.12 63.2506C1050.11 52.6979 1048.15 37.2058 1043.39 23.5034C1042.3 20.362 1040.96 17.1644 1038.47 14.9373C1036.67 13.3306 1033.78 12.3761 1031.84 13.8567C1030.55 14.8353 1030.13 16.5518 1029.86 18.1343C1029.19 22.028 1028.96 26.0504 1029.8 29.8923C1030.71 34.0107 1032.84 37.7393 1034.73 41.5068C1038.15 48.3017 1040.91 55.431 1042.96 62.7467C1035.34 57.7877 1028.94 51.018 1024.43 43.1613C1023.33 41.2398 1022.26 39.1619 1020.36 37.9933C1018.28 36.7101 1015.39 36.8611 1013.42 38.35C1011.46 39.839 1010.56 42.5739 1011.26 44.9055C1012.36 48.5717 1016.45 50.2643 1019.79 52.1851C1022.97 54.0248 1025.78 56.4364 1028.56 58.8368C1033.4 63.0173 1038.25 67.1894 1043.1 71.3699C1043.75 71.9344 1044.44 72.5352 1044.73 73.3478C1045.04 74.1577 1044.81 75.235 1044.01 75.6C1043.58 75.795 1043.09 75.7527 1042.62 75.702C1039.33 75.3445 1035.71 74.6211 1033.76 71.9757C1032.99 70.931 1032.45 69.5766 1031.24 69.0619C1029.86 68.4772 1028.17 69.383 1027.44 70.7083C1026.71 72.0253 1026.72 73.6081 1026.86 75.0961C1027.13 78.0945 1027.9 81.1268 1029.7 83.5431C1031.5 85.9594 1034.45 87.6733 1037.48 87.4303C1039.57 87.2647 1041.47 86.2335 1043.45 85.5542C1045.44 84.8748 1047.79 84.6117 1049.47 85.8331C1050.25 86.4033 1051.02 87.3112 1051.97 87.0915C1052.9 86.8774 1053.22 85.7443 1053.36 84.8065C1053.71 82.4731 1054.08 80.1453 1054.43 77.8118C1058.45 79.1275 1059.98 83.8493 1060.95 87.9398C1061.15 88.7747 1061.34 89.6849 1061.02 90.4858C1060.65 91.4151 1059.68 91.9557 1058.79 92.4156C1056.77 93.4578 1054.63 94.5697 1053.46 96.5032C1052.3 98.4451 1052.68 101.463 1054.79 102.275C1056.14 102.789 1057.65 102.266 1059.03 101.832C1068.38 98.8642 1078.95 99.9792 1087.41 104.83L1088.45 104.923Z" fill="#FAD2C9"/>
<defs>
<filter id="filter0_d" x="1154.77" y="643.168" width="131.168" height="134.351" filterUnits="userSpaceOnUse" color-interpolation-filters="sRGB">
<feFlood flood-opacity="0" result="BackgroundImageFix"/>
<feColorMatrix in="SourceAlpha" type="matrix" values="0 0 0 0 0 0 0 0 0 0 0 0 0 0 0 0 0 0 127 0"/>
<feMorphology radius="2" operator="dilate" in="SourceAlpha" result="effect1_dropShadow"/>
<feOffset dy="1"/>
<feGaussianBlur stdDeviation="1"/>
<feColorMatrix type="matrix" values="0 0 0 0 0.203837 0 0 0 0 0.225675 0 0 0 0 0.245833 0 0 0 0.18 0"/>
<feBlend mode="normal" in2="BackgroundImageFix" result="effect1_dropShadow"/>
<feBlend mode="normal" in="SourceGraphic" in2="effect1_dropShadow" result="shape"/>
</filter>
</defs>
</svg>
