<?xml version="1.0" encoding="utf-8"?>
<!-- Generator: Adobe Illustrator 25.0.1, SVG Export Plug-In . SVG Version: 6.00 Build 0)  -->
<svg version="1.1" id="Layer_1" xmlns="http://www.w3.org/2000/svg" xmlns:xlink="http://www.w3.org/1999/xlink" x="0px" y="0px"
	 viewBox="0 0 439 198" style="enable-background:new 0 0 439 198;" xml:space="preserve">
<style type="text/css">
	.st0{clip-path:url(#SVGID_2_);}
	.st1{fill-rule:evenodd;clip-rule:evenodd;fill:#F0D9C1;}
	.st2{fill:#ED6340;}
	.st3{fill:#F7D29A;}
</style>
<g>
	<defs>
		<rect id="SVGID_1_" width="439" height="152"/>
	</defs>
	<clipPath id="SVGID_2_">
		<use xlink:href="#SVGID_1_"  style="overflow:visible;"/>
	</clipPath>
	<g class="st0">
		<path class="st1" d="M433.9,55.1c9.4-12.5,5.9-28.2-11.7-28.2c22.3-8.7-19.7,7.6,0,0c-89.9,34.9-167.9,8.1-197.1,7
			c-23.6-0.8-26.2,0.1-53.2-2.3c-37.2-3.3-87.8-23.9-142.8,11c-19.3,12.2-39.8,68-14,90c40.8,34.9,79.5,0.4,156.8,7.9
			c71.8,7,109.5,8.9,172.9,0c23.5-3.3,48.8-18.7,59.8-35C410.5,91.5,424.7,67.4,433.9,55.1z"/>
		<path class="st2" d="M15.5,39.4L2.6,31.1L10.5,44L9,45L0,30.2l2.2-1.4l11.3,7.4l-1.4-13.6l2.2-1.4l9,14.8l-1.5,0.9L14,24
			L15.5,39.4z"/>
		<path class="st2" d="M29.3,35l0-1.8l-9.6-9.1l1.8-0.9l7.8,7.6l-0.4-11.1l1.8-0.8l0.4,15.6c0,1.3-0.2,2.3-0.5,3.1
			c-0.4,0.7-1,1.3-1.9,1.8c-0.2,0.1-0.4,0.2-0.6,0.2c-0.2,0.1-0.4,0.1-0.5,0.1l-0.7-1.5c0.2,0,0.3-0.1,0.5-0.1
			c0.2,0,0.3-0.1,0.5-0.2c0.5-0.2,0.9-0.6,1.1-1C29.2,36.3,29.3,35.7,29.3,35z"/>
		<path class="st2" d="M37.9,13.6c-0.3,0.1-0.6,0.1-0.9-0.1c-0.3-0.2-0.5-0.4-0.6-0.7c-0.1-0.3-0.1-0.7,0-1c0.2-0.3,0.4-0.5,0.7-0.6
			c0.3-0.1,0.6-0.1,0.9,0c0.3,0.1,0.5,0.4,0.6,0.7c0.1,0.3,0.1,0.6,0,0.9C38.4,13.2,38.2,13.5,37.9,13.6z M39.5,15.5l4.1,11.7
			l-1.7,0.6l-4.1-11.7L39.5,15.5z"/>
		<path class="st2" d="M55.4,23.4L55,22.2c-0.4,0.6-0.8,1.2-1.4,1.6c-0.6,0.4-1.2,0.8-2,1C50.9,25,50,25.1,49.2,25
			c-0.8-0.1-1.6-0.3-2.2-0.7c-0.7-0.4-1.3-0.9-1.8-1.6c-0.5-0.7-0.9-1.4-1.2-2.3c-0.2-0.9-0.3-1.7-0.2-2.6c0.1-0.8,0.3-1.6,0.7-2.3
			c0.4-0.7,0.9-1.3,1.5-1.9s1.4-0.9,2.2-1.2c0.7-0.2,1.4-0.3,2.1-0.2s1.4,0.2,2.1,0.5l-1.7-5.9l1.6-0.9l4.9,17.1L55.4,23.4z
			 M45.7,19.8c0.2,0.7,0.5,1.2,0.9,1.7c0.4,0.5,0.8,0.9,1.4,1.2c0.5,0.3,1.1,0.5,1.7,0.6c0.6,0.1,1.2,0,1.8-0.2
			c0.7-0.2,1.4-0.6,1.9-1.1c0.5-0.5,0.9-1,1.2-1.7l-1.7-5.9c-0.5-0.4-1.2-0.6-1.9-0.7c-0.7-0.1-1.4,0-2.2,0.2
			c-1.2,0.4-2.1,1.1-2.7,2.2C45.5,17.3,45.3,18.5,45.7,19.8z"/>
		<path class="st2" d="M69.6,18.9c-0.6,0.6-1.2,1.2-1.9,1.6s-1.4,0.7-2.3,0.9c-0.9,0.2-1.7,0.2-2.5,0c-0.8-0.2-1.6-0.5-2.2-0.9
			c-0.7-0.4-1.2-1-1.7-1.7c-0.5-0.7-0.8-1.5-1-2.4c-0.2-0.9-0.2-1.7,0-2.6c0.2-0.8,0.4-1.6,0.9-2.3s0.9-1.3,1.6-1.7
			c0.7-0.5,1.4-0.8,2.2-1c0.8-0.2,1.6-0.2,2.3,0c0.8,0.2,1.4,0.5,2.1,1c0.6,0.5,1.1,1,1.6,1.7c0.4,0.7,0.8,1.5,0.9,2.4l0.1,0.6
			l-9.8,2.1c0.4,1.2,1.1,2.1,2.1,2.7s2.1,0.8,3.3,0.5c0.6-0.1,1.2-0.4,1.8-0.7c0.5-0.3,1-0.7,1.3-1.1L69.6,18.9z M62.9,10.4
			c-1,0.2-1.9,0.8-2.5,1.6c-0.6,0.9-0.9,1.9-0.8,3l8-1.7c-0.4-1-1-1.8-1.9-2.4C64.8,10.3,63.9,10.2,62.9,10.4z"/>
		<path class="st2" d="M76.6,19.3c-1.3,0.2-2.4,0-3.4-0.6c-0.9-0.6-1.4-1.4-1.6-2.5c-0.2-1.1,0.2-2.1,0.9-2.9
			c0.8-0.8,1.9-1.3,3.4-1.5c0.6-0.1,1.3-0.1,1.9,0c0.6,0.1,1.2,0.2,1.8,0.4l-0.2-1.6c-0.1-1-0.5-1.7-1.1-2.1C77.7,8,76.9,7.9,75.9,8
			c-0.6,0.1-1.2,0.2-1.8,0.5c-0.6,0.3-1.2,0.6-1.9,1.1l-0.9-1.3c0.8-0.5,1.6-1,2.3-1.3c0.7-0.3,1.4-0.5,2.2-0.6
			c1.5-0.2,2.8,0,3.7,0.6c0.9,0.6,1.5,1.6,1.7,3l1.1,8.3l-1.7,0.2l-0.2-1.2c-0.5,0.6-1,1-1.7,1.3C78.1,19,77.4,19.2,76.6,19.3z
			 M73.4,16c0.1,0.7,0.5,1.2,1.1,1.6c0.6,0.4,1.4,0.5,2.3,0.4c0.7-0.1,1.4-0.3,1.9-0.6c0.6-0.3,1.1-0.7,1.5-1.3l-0.3-2.3
			c-0.5-0.3-1.1-0.4-1.7-0.5c-0.6-0.1-1.2-0.1-1.9,0c-1,0.1-1.7,0.4-2.2,1C73.5,14.6,73.3,15.2,73.4,16z"/>
		<path class="st2" d="M85.3,0.2L86.9,18l-1.8,0.2L83.6,0.8L85.3,0.2z"/>
		<path class="st2" d="M93.6,14.4l1.2-1.3c0.9,0.9,1.9,1.6,2.9,2.1c1,0.5,2.1,0.7,3.2,0.7c1.3,0,2.4-0.4,3.3-1
			c0.9-0.7,1.3-1.5,1.2-2.5c0-0.9-0.3-1.6-1-2c-0.6-0.5-1.6-0.8-3-1l-2.5-0.3c-1.6-0.2-2.9-0.7-3.7-1.4c-0.8-0.7-1.2-1.7-1.2-2.9
			c0-1.4,0.5-2.6,1.6-3.5c1.1-0.9,2.5-1.4,4.3-1.4c1.2,0,2.4,0.1,3.5,0.5c1.2,0.4,2.3,0.9,3.2,1.6l-1,1.5c-0.9-0.7-1.9-1.2-2.9-1.6
			s-1.9-0.5-2.9-0.5c-1.2,0-2.2,0.3-2.9,0.9s-1.1,1.3-1.1,2.2c0,0.8,0.3,1.4,0.9,1.8c0.5,0.4,1.4,0.7,2.7,0.9l2.5,0.3
			c1.9,0.3,3.2,0.8,4.1,1.5c0.9,0.7,1.3,1.8,1.4,3.1c0,0.8-0.1,1.5-0.4,2.1c-0.3,0.7-0.7,1.2-1.3,1.7c-0.6,0.5-1.2,0.8-2,1.1
			c-0.8,0.3-1.7,0.4-2.6,0.4c-1.4,0-2.7-0.2-3.9-0.7C95.7,16.2,94.5,15.4,93.6,14.4z"/>
		<path class="st2" d="M111.3,4.7l-0.2,7.5c0,1.1,0.3,2,0.9,2.6c0.6,0.7,1.4,1,2.5,1c0.7,0,1.4-0.1,2-0.4c0.6-0.3,1.1-0.8,1.4-1.4
			l0.3-9.1l1.8,0l-0.4,12.4l-1.8,0l0-1.4c-0.5,0.5-1.1,1-1.7,1.2c-0.7,0.3-1.4,0.4-2.2,0.4c-1.4,0-2.5-0.5-3.4-1.4
			c-0.9-0.9-1.3-2.1-1.2-3.5l0.2-7.9L111.3,4.7z"/>
		<path class="st2" d="M122.5,17.6l0.9-12.4l1.8,0.1L125,6.7c0.5-0.5,1.1-0.9,1.8-1.1c0.7-0.2,1.4-0.3,2.2-0.3
			c1.4,0.1,2.5,0.6,3.3,1.6c0.8,1,1.2,2.1,1.1,3.6l-0.5,7.8l-1.8-0.1l0.5-7.5c0.1-1.1-0.2-2-0.7-2.7c-0.6-0.7-1.4-1.1-2.4-1.1
			c-0.7,0-1.4,0.1-2,0.4c-0.6,0.3-1.1,0.7-1.5,1.3l-0.6,9.1L122.5,17.6z"/>
		<path class="st2" d="M145.2,19.6l0.1-1.3c-0.6,0.4-1.2,0.7-1.9,0.9c-0.7,0.2-1.4,0.2-2.2,0.2c-0.9-0.1-1.6-0.3-2.3-0.7
			c-0.7-0.4-1.3-0.9-1.8-1.6c-0.5-0.6-0.9-1.3-1.1-2.2c-0.2-0.8-0.3-1.7-0.2-2.6c0.1-0.9,0.3-1.7,0.7-2.5c0.4-0.7,0.9-1.4,1.5-1.9
			c0.6-0.5,1.3-0.9,2.1-1.1c0.8-0.2,1.6-0.3,2.5-0.2c0.7,0.1,1.4,0.3,2,0.6c0.6,0.3,1.2,0.7,1.7,1.2l0.6-6.1l1.8-0.2L147,19.8
			L145.2,19.6z M137.5,12.5c-0.1,0.7,0,1.3,0.2,1.9c0.2,0.6,0.4,1.2,0.8,1.6c0.4,0.5,0.8,0.9,1.3,1.2c0.5,0.3,1.1,0.5,1.7,0.6
			c0.8,0.1,1.5,0,2.2-0.2c0.7-0.2,1.3-0.6,1.7-1.1l0.6-6.1c-0.4-0.6-0.9-1-1.5-1.4c-0.6-0.4-1.3-0.6-2.1-0.7c-1.2-0.1-2.4,0.2-3.3,1
			C138.2,10,137.7,11.1,137.5,12.5z"/>
		<path class="st2" d="M153.7,20.9c-1.3-0.2-2.3-0.7-3.1-1.5c-0.7-0.8-1-1.8-0.9-2.9c0.2-1.1,0.7-2,1.7-2.6c1-0.6,2.2-0.7,3.7-0.5
			c0.6,0.1,1.3,0.2,1.8,0.5c0.6,0.2,1.1,0.5,1.6,0.8l0.2-1.6c0.1-1,0-1.8-0.5-2.3c-0.5-0.6-1.2-0.9-2.3-1.1c-0.6-0.1-1.2-0.1-1.8,0
			s-1.3,0.3-2.1,0.6l-0.5-1.5c0.9-0.3,1.8-0.5,2.5-0.6c0.8-0.1,1.5-0.1,2.3,0c1.5,0.2,2.7,0.7,3.4,1.6c0.7,0.9,1,2,0.8,3.3l-1.1,8.3
			l-1.7-0.2l0.2-1.2c-0.6,0.4-1.2,0.7-1.9,0.8C155.2,21,154.4,21,153.7,20.9z M151.4,16.8c-0.1,0.7,0.1,1.3,0.6,1.8s1.2,0.8,2.1,0.9
			c0.7,0.1,1.4,0.1,2-0.1c0.6-0.2,1.2-0.4,1.8-0.9l0.3-2.3c-0.5-0.4-1-0.7-1.5-1c-0.5-0.2-1.2-0.4-1.9-0.5c-1-0.1-1.8,0-2.4,0.3
			C151.9,15.5,151.5,16,151.4,16.8z"/>
		<path class="st2" d="M164.6,23.8l0.9-1.5l-3.1-13l2,0.3l2.4,10.7l5.7-9.4l1.9,0.3l-8.1,13.2c-0.7,1.1-1.4,1.9-2.1,2.3
			c-0.7,0.4-1.5,0.6-2.5,0.4c-0.2,0-0.4-0.1-0.6-0.1c-0.2-0.1-0.4-0.1-0.5-0.2l0.2-1.6c0.2,0.1,0.3,0.1,0.5,0.1
			c0.2,0,0.3,0.1,0.5,0.1c0.5,0.1,1,0,1.5-0.2C163.8,24.9,164.2,24.5,164.6,23.8z"/>
		<path class="st2" d="M183.2,25.4c-1.3-0.2-2.3-0.7-3-1.6c-0.7-0.8-1-1.8-0.8-2.9c0.2-1.1,0.8-2,1.7-2.5c1-0.5,2.2-0.7,3.7-0.4
			c0.6,0.1,1.2,0.3,1.8,0.5c0.6,0.2,1.1,0.5,1.6,0.9l0.3-1.6c0.2-1,0-1.8-0.5-2.4c-0.5-0.6-1.2-1-2.3-1.1c-0.6-0.1-1.2-0.1-1.8,0
			c-0.6,0.1-1.3,0.2-2.1,0.5l-0.5-1.5c0.9-0.3,1.8-0.5,2.6-0.5c0.8-0.1,1.5,0,2.3,0.1c1.5,0.2,2.6,0.8,3.4,1.7c0.7,0.9,1,2,0.7,3.4
			l-1.3,8.3l-1.7-0.3l0.2-1.2c-0.6,0.4-1.3,0.6-2,0.8C184.7,25.5,184,25.5,183.2,25.4z M181.1,21.2c-0.1,0.7,0.1,1.3,0.6,1.8
			c0.5,0.5,1.2,0.9,2.1,1c0.7,0.1,1.4,0.1,2,0c0.6-0.1,1.2-0.4,1.8-0.8l0.4-2.3c-0.4-0.4-0.9-0.8-1.5-1c-0.5-0.2-1.2-0.4-1.9-0.5
			c-1-0.2-1.8-0.1-2.4,0.3C181.6,19.9,181.2,20.5,181.1,21.2z"/>
		<path class="st2" d="M192.3,14l2.8,0.5l0.4-2.3c0.2-1.2,0.7-2.1,1.4-2.6c0.7-0.5,1.7-0.7,2.9-0.5c0.3,0,0.6,0.1,0.9,0.2
			c0.2,0.1,0.5,0.2,0.7,0.3l-0.3,1.6c-0.3-0.1-0.5-0.2-0.7-0.3c-0.2-0.1-0.5-0.1-0.7-0.2c-0.7-0.1-1.3,0-1.7,0.3
			c-0.4,0.3-0.7,0.8-0.8,1.6l-0.4,2.3l3.6,0.6l-0.2,1.6l-3.6-0.6l-1.7,10.7l-1.8-0.3l1.7-10.7l-2.8-0.5L192.3,14z"/>
		<path class="st2" d="M202.5,25.5l1.3-8l-2.6-0.4l0.2-1.6L204,16l0.5-3.1l1.8-0.2l-0.6,3.6l3.6,0.6l-0.2,1.6l-3.6-0.6l-1.2,7.5
			c-0.1,0.7,0,1.1,0.2,1.5c0.2,0.3,0.7,0.6,1.4,0.7c0.3,0.1,0.6,0.1,0.9,0.1c0.3,0,0.6,0,0.9-0.1l-0.3,1.6c-0.3,0.1-0.7,0.1-1.1,0.1
			c-0.4,0-0.8,0-1.1-0.1c-1-0.2-1.8-0.6-2.3-1.1C202.6,27.3,202.4,26.5,202.5,25.5z"/>
		<path class="st2" d="M219.4,29.7c-0.7,0.4-1.5,0.7-2.3,0.8c-0.8,0.1-1.6,0.1-2.5,0c-0.9-0.1-1.7-0.4-2.4-0.9
			c-0.7-0.4-1.3-1-1.8-1.7c-0.5-0.7-0.8-1.4-1-2.2c-0.2-0.8-0.2-1.7-0.1-2.6c0.1-0.9,0.4-1.7,0.8-2.4c0.4-0.7,0.9-1.3,1.6-1.8
			c0.6-0.5,1.3-0.8,2.1-1.1c0.8-0.2,1.6-0.2,2.4-0.1c0.8,0.1,1.5,0.4,2.2,0.8c0.7,0.4,1.2,1,1.6,1.6c0.4,0.7,0.7,1.4,0.9,2.2
			c0.2,0.8,0.2,1.7,0.1,2.5l-0.1,0.6l-9.9-1.6c-0.1,1.2,0.3,2.3,1,3.2c0.7,0.9,1.7,1.5,2.9,1.7c0.6,0.1,1.2,0.1,1.9,0
			c0.6-0.1,1.2-0.3,1.6-0.6L219.4,29.7z M216,19.4c-1.1-0.2-2,0.1-2.9,0.7c-0.9,0.6-1.5,1.5-1.8,2.6l8.1,1.3c0-1.1-0.3-2.1-0.9-2.9
			C217.8,20,217,19.5,216,19.4z"/>
		<path class="st2" d="M222.6,31.5l1.8-12.3l1.8,0.3l-0.2,1.7c0.4-0.6,1-1,1.6-1.3s1.3-0.3,2.1-0.2c0.2,0,0.4,0.1,0.6,0.1
			c0.2,0,0.4,0.1,0.5,0.2l-0.2,1.7c-0.2-0.1-0.4-0.2-0.6-0.2c-0.2-0.1-0.4-0.1-0.6-0.2c-0.7-0.1-1.4,0-2,0.4
			c-0.6,0.4-1.1,0.9-1.6,1.7l-1.2,8.4L222.6,31.5z"/>
		<path class="st2" d="M230.9,32.7l1.6-12.3l1.8,0.2l-0.2,1.5c0.5-0.5,1.2-0.8,1.8-1c0.7-0.2,1.4-0.2,2.2-0.1
			c1.4,0.2,2.4,0.8,3.2,1.8c0.7,1,1,2.2,0.9,3.6l-1,7.8l-1.8-0.2l1-7.4c0.1-1.1,0-2-0.6-2.7c-0.5-0.7-1.3-1.2-2.3-1.3
			c-0.7-0.1-1.4,0-2,0.2c-0.6,0.2-1.1,0.7-1.6,1.2l-1.2,9.1L230.9,32.7z"/>
		<path class="st2" d="M244.2,28.3c0.1-0.9,0.4-1.7,0.8-2.5c0.4-0.7,0.9-1.4,1.6-1.9c0.6-0.5,1.3-0.9,2.1-1.1
			c0.8-0.2,1.6-0.3,2.5-0.2c0.9,0.1,1.6,0.4,2.3,0.8c0.7,0.4,1.3,0.9,1.8,1.6c0.5,0.6,0.9,1.4,1.1,2.2c0.2,0.8,0.3,1.7,0.2,2.6
			c-0.1,0.9-0.4,1.7-0.8,2.5c-0.4,0.7-0.9,1.4-1.6,1.9c-0.6,0.5-1.3,0.9-2.1,1.1c-0.8,0.2-1.6,0.3-2.5,0.2c-0.9-0.1-1.6-0.4-2.4-0.8
			c-0.7-0.4-1.3-0.9-1.8-1.6c-0.5-0.7-0.9-1.4-1.1-2.2C244.2,30,244.1,29.2,244.2,28.3z M249.9,33.8c0.6,0.1,1.2,0,1.8-0.2
			c0.6-0.2,1.1-0.5,1.5-0.9c0.4-0.4,0.8-0.9,1.1-1.4c0.3-0.6,0.5-1.2,0.6-1.8c0.1-0.7,0-1.3-0.1-1.9c-0.2-0.6-0.4-1.1-0.8-1.6
			c-0.4-0.5-0.8-0.9-1.3-1.2c-0.5-0.3-1.1-0.5-1.7-0.6c-0.6-0.1-1.2,0-1.8,0.2c-0.6,0.2-1.1,0.5-1.5,0.8c-0.4,0.4-0.8,0.8-1.1,1.4
			c-0.3,0.6-0.5,1.2-0.6,1.8c-0.1,0.7,0,1.3,0.1,1.9c0.2,0.6,0.4,1.2,0.7,1.6c0.4,0.5,0.8,0.9,1.3,1.2
			C248.7,33.6,249.2,33.8,249.9,33.8z"/>
		<path class="st2" d="M258.4,30c0.1-0.9,0.3-1.7,0.7-2.5c0.4-0.8,0.9-1.4,1.5-1.9c0.6-0.5,1.3-0.9,2.1-1.2c0.8-0.2,1.6-0.3,2.5-0.2
			c0.9,0.1,1.6,0.3,2.4,0.7c0.7,0.4,1.3,0.9,1.8,1.6c0.5,0.6,0.9,1.4,1.1,2.2c0.2,0.8,0.3,1.7,0.2,2.6c-0.1,0.9-0.3,1.7-0.7,2.5
			c-0.4,0.8-0.9,1.4-1.5,1.9c-0.6,0.5-1.3,0.9-2.1,1.2c-0.8,0.3-1.6,0.3-2.5,0.2c-0.9-0.1-1.6-0.3-2.4-0.7c-0.7-0.4-1.3-0.9-1.8-1.6
			c-0.5-0.6-0.9-1.4-1.1-2.2C258.4,31.7,258.3,30.9,258.4,30z M264.1,35.4c0.6,0.1,1.2,0,1.8-0.2c0.6-0.2,1.1-0.5,1.5-0.9
			c0.4-0.4,0.8-0.9,1.1-1.4c0.3-0.6,0.5-1.2,0.5-1.9c0.1-0.7,0-1.3-0.2-1.9c-0.2-0.6-0.4-1.1-0.8-1.6c-0.4-0.5-0.8-0.9-1.3-1.1
			c-0.5-0.3-1.1-0.5-1.7-0.5c-0.6-0.1-1.2,0-1.8,0.2c-0.6,0.2-1.1,0.5-1.5,0.9c-0.4,0.4-0.8,0.9-1.1,1.4c-0.3,0.6-0.5,1.2-0.5,1.9
			c-0.1,0.7,0,1.3,0.2,1.9c0.2,0.6,0.4,1.1,0.8,1.6c0.3,0.5,0.8,0.9,1.3,1.2C262.9,35.2,263.5,35.4,264.1,35.4z"/>
		<path class="st2" d="M272.6,37.6l0.9-12.4l1.8,0.1l-0.1,1.5c0.5-0.5,1.1-0.9,1.8-1.1c0.7-0.2,1.4-0.3,2.2-0.3
			c1.4,0.1,2.5,0.7,3.3,1.6c0.8,1,1.2,2.2,1.1,3.6l-0.6,7.8l-1.8-0.1l0.6-7.5c0.1-1.1-0.2-2-0.7-2.7c-0.6-0.7-1.4-1.1-2.4-1.2
			c-0.7-0.1-1.4,0.1-2,0.3s-1.1,0.7-1.5,1.3l-0.7,9.1L272.6,37.6z"/>
		<path class="st2" d="M295,39.1l-1.8-0.1l-3-12.6l1.8,0.1l2.2,10l3.4-9.8l1.6,0.1l2.6,10l3-9.8l1.7,0.1l-3.9,12.3l-1.7-0.1
			l-2.6-10.1L295,39.1z"/>
		<path class="st2" d="M307.2,33.4c0-0.9,0.2-1.7,0.5-2.5c0.3-0.8,0.8-1.5,1.3-2c0.6-0.6,1.2-1,2-1.3c0.8-0.3,1.6-0.5,2.4-0.5
			c0.9,0,1.7,0.2,2.4,0.5c0.8,0.3,1.4,0.8,2,1.4c0.6,0.6,1,1.3,1.3,2.1c0.3,0.8,0.5,1.6,0.5,2.5c0,0.9-0.2,1.8-0.5,2.6
			c-0.3,0.8-0.8,1.5-1.3,2c-0.6,0.6-1.2,1-2,1.3c-0.8,0.3-1.6,0.5-2.4,0.5c-0.9,0-1.7-0.2-2.4-0.5c-0.8-0.3-1.4-0.8-2-1.4
			c-0.6-0.6-1-1.3-1.3-2.1C307.4,35.1,307.2,34.3,307.2,33.4z M313.4,38.2c0.6,0,1.2-0.1,1.8-0.4c0.5-0.2,1-0.6,1.4-1
			c0.4-0.4,0.7-0.9,0.9-1.5c0.2-0.6,0.4-1.2,0.4-1.9s-0.1-1.3-0.3-1.9c-0.2-0.6-0.5-1.1-0.9-1.5c-0.4-0.4-0.9-0.8-1.4-1
			c-0.5-0.2-1.1-0.4-1.7-0.4c-0.6,0-1.2,0.1-1.8,0.4c-0.5,0.2-1,0.6-1.4,1c-0.4,0.4-0.7,0.9-1,1.5c-0.2,0.6-0.4,1.2-0.4,1.9
			s0.1,1.3,0.3,1.9c0.2,0.6,0.5,1.1,0.9,1.6c0.4,0.4,0.9,0.8,1.4,1C312.2,38.1,312.8,38.2,313.4,38.2z"/>
		<path class="st2" d="M323.7,27.2l0.2,7.5c0,1.1,0.4,2,1,2.6c0.6,0.6,1.5,0.9,2.5,0.9c0.7,0,1.4-0.2,2-0.6c0.6-0.4,1-0.8,1.4-1.5
			l-0.2-9.1l1.8,0l0.3,12.4l-1.8,0l0-1.4c-0.5,0.6-1,1-1.6,1.3c-0.6,0.3-1.4,0.5-2.1,0.5c-1.4,0-2.5-0.4-3.4-1.2
			c-0.9-0.9-1.4-2-1.4-3.4l-0.2-7.9L323.7,27.2z"/>
		<path class="st2" d="M336.8,21.3l0.9,17.8l-1.8,0.1l-0.9-17.4L336.8,21.3z"/>
		<path class="st2" d="M350.6,38.2l-0.1-1.3c-0.5,0.5-1.1,1-1.7,1.3c-0.7,0.3-1.4,0.5-2.1,0.5c-0.9,0.1-1.7,0-2.4-0.3
			c-0.8-0.3-1.4-0.7-2-1.2c-0.6-0.5-1.1-1.2-1.4-1.9c-0.4-0.8-0.6-1.6-0.7-2.5c-0.1-0.9,0-1.7,0.3-2.5c0.3-0.8,0.6-1.5,1.2-2.1
			c0.5-0.6,1.1-1.1,1.9-1.5c0.7-0.4,1.5-0.6,2.4-0.7c0.7,0,1.4,0,2.1,0.2c0.7,0.2,1.3,0.5,1.9,0.9l-0.5-6.1l1.8-0.6l1.3,17.7
			L350.6,38.2z M341.8,32.6c0,0.7,0.2,1.3,0.5,1.9c0.3,0.6,0.6,1.1,1.1,1.5c0.4,0.4,0.9,0.7,1.5,0.9c0.6,0.2,1.2,0.3,1.8,0.2
			c0.8-0.1,1.5-0.3,2.1-0.6c0.6-0.4,1.1-0.8,1.5-1.4l-0.4-6.1c-0.5-0.5-1-0.9-1.7-1.1c-0.7-0.2-1.4-0.4-2.1-0.3
			c-1.3,0.1-2.3,0.6-3.1,1.6C342.1,30.1,341.7,31.2,341.8,32.6z"/>
		<path class="st2" d="M372.1,29.5c0.1,0.9,0,1.7-0.2,2.6c-0.2,0.8-0.6,1.6-1.1,2.2c-0.5,0.6-1.1,1.2-1.8,1.6
			c-0.7,0.4-1.5,0.7-2.3,0.8c-0.7,0.1-1.4,0-2.1-0.1c-0.7-0.2-1.4-0.4-2-0.8l0.2,1.2l-1.8,0.2L359,19.9l1.7-0.7l0.8,6.6
			c0.4-0.6,1-1,1.6-1.3c0.6-0.3,1.3-0.6,2.1-0.7c0.9-0.1,1.7,0,2.5,0.2c0.8,0.2,1.5,0.6,2.1,1.1c0.6,0.5,1.1,1.1,1.5,1.9
			C371.7,27.8,372,28.6,372.1,29.5z M365.2,25.6c-0.8,0.1-1.4,0.3-2.1,0.7c-0.6,0.4-1.1,0.9-1.5,1.5l0.7,6.1c0.5,0.5,1.1,0.8,1.8,1
			c0.7,0.2,1.4,0.3,2.2,0.2c1.3-0.2,2.3-0.7,3-1.8c0.7-1,1.1-2.2,0.9-3.6c-0.1-0.7-0.3-1.3-0.6-1.8c-0.3-0.6-0.7-1-1.1-1.4
			c-0.5-0.4-1-0.7-1.6-0.8C366.5,25.5,365.9,25.5,365.2,25.6z"/>
		<path class="st2" d="M385.2,32.5c-0.6,0.6-1.2,1.1-1.9,1.5c-0.7,0.4-1.5,0.6-2.3,0.7c-0.9,0.1-1.7,0.1-2.5-0.1
			c-0.8-0.2-1.5-0.6-2.2-1c-0.6-0.5-1.2-1.1-1.6-1.8c-0.4-0.7-0.7-1.5-0.9-2.4c-0.1-0.9-0.1-1.7,0.1-2.5c0.2-0.8,0.5-1.6,1-2.2
			c0.4-0.7,1-1.2,1.7-1.6c0.7-0.4,1.4-0.7,2.3-0.9c0.8-0.1,1.6-0.1,2.3,0.1c0.7,0.2,1.4,0.6,2,1.1c0.6,0.5,1.1,1.1,1.5,1.8
			c0.4,0.7,0.7,1.5,0.8,2.4l0.1,0.6l-9.9,1.5c0.3,1.2,0.9,2.1,1.9,2.8s2.1,0.9,3.2,0.7c0.6-0.1,1.2-0.3,1.8-0.6
			c0.6-0.3,1-0.6,1.4-1.1L385.2,32.5z M379,23.6c-1.1,0.2-1.9,0.7-2.5,1.5c-0.7,0.8-1,1.8-1,3l8.1-1.2c-0.3-1.1-0.9-1.9-1.8-2.5
			C380.9,23.7,380,23.5,379,23.6z"/>
	</g>
</g>
<path class="st3" d="M38,148.8c9.6-2.5,19.8,6.6,29,2.9c-2.8-3.3-6.7-5.8-10.9-7c-2.7-0.7-5.5-1-8-2.2c-2.5-1.2-4.5-3.9-3.9-6.6
	c0.7-2.9,4.2-4.3,7.1-3.8c2.9,0.5,5.4,2.3,7.9,3.8c3.6,2.2,7.5,4,11.5,5.3c2.3,0.7,5.2,1.2,6.7-0.6c2-2.4-0.1-5.9-1.7-8.6
	c-1.9-3.2-3.2-6.7-3.6-10.4c-0.2-1.5-0.3-3.2,0.5-4.6c1.6-3.1,6.4-3.1,9.1-0.8c2.6,2.3,3.6,6,4.2,9.4c0.5,2.7,0.8,5.5,2.5,7.7
	c1.6,2.2,5.1,3.3,7.1,1.5c3-2.7,0.2-7.7,1.1-11.6c0.8-3.4,4.4-5.4,7.8-5.7c4.7-0.4,9.6,1.7,12.6,5.4c3.1,3.6,4.5,8.6,4,13.4
	c-0.1,0.6-0.2,1.2-0.5,1.7c-0.3,0.4-0.7,0.7-1.1,0.9c-2.3,1.2-5.1,0.6-7.7,0.4c-2.6-0.2-5.8,0.5-6.7,2.9c-0.8,2,0.3,4.2,1.9,5.6
	c1.6,1.4,3.6,2.1,5.4,3.2c5,2.9,8.7,8,9.8,13.7c0.2,1.3,0.3,2.8-0.7,3.6c-1.4,1.3-3.6,0.2-5.1-0.9c-6.4-4.8-12.3-10.4-17.4-16.6
	c-2.1-2.6-5.2-5.7-8.3-4.5c-2.7,1-3.4,4.7-2.3,7.4c1.2,2.6,3.6,4.4,5.9,6.2c2.9,2.2,5.7,4.5,7.8,7.5c2,3,3.2,6.8,2.4,10.3
	c-0.8,3.5-4,6.6-7.6,6.6c-5,0-8.3-5.3-9.7-10.1c-1.4-4.8-2.1-10.3-5.8-13.7c-0.9-0.9-2.3-1.6-3.4-1c-0.4,0.2-0.7,0.5-1,0.9
	c-3,3.8-2.3,9.3-1.1,14c1.3,4.7,2.9,9.7,1.5,14.3c-1.8,5.8-9,9.3-14.6,7c-5.6-2.3-8.5-9.7-5.8-15.2c1.3-2.7,3.7-4.8,5.2-7.4
	c1.4-2.4,2.1-5.3,1.8-8.1c0-0.6-0.1-1.1-0.5-1.5c-0.3-0.3-0.7-0.5-1.1-0.7c-3.7-1.4-7.9-1.6-11.8-0.6c-1.8,0.5-3.6,1.2-5.5,1.4
	c-4,0.5-8.1-1.6-10.2-5c-1.2-2.1-1.7-4.7-0.8-6.9C35.1,149.6,38,148.8,38,148.8z"/>
</svg>
