<svg width="439" height="198" viewBox="0 0 439 198" fill="none" xmlns="http://www.w3.org/2000/svg">
<g clip-path="url(#clip0)">
<path fill-rule="evenodd" clip-rule="evenodd" d="M433.935 55.1353C443.321 42.6728 439.802 26.9712 422.203 26.9712C444.495 18.3106 402.517 34.6193 422.203 26.9712C332.313 61.8944 254.352 35.053 225.096 34.0122C201.464 33.1715 198.898 34.0698 171.895 31.6652C134.716 28.3545 84.1276 7.7834 29.1267 42.6729C9.85968 54.8948 -10.6612 110.661 15.0839 132.71C55.8744 167.645 94.5996 133.082 171.895 140.589C243.688 147.561 281.38 149.525 344.768 140.588C368.233 137.28 393.559 121.856 404.604 105.596C410.47 91.5138 424.707 67.3876 433.935 55.1353Z" fill="#F0D9C1"/>
<path d="M15.4955 39.4068L2.63591 31.1235L10.4674 44.0293L8.97428 44.96L0 30.1928L2.23976 28.7812L13.5604 36.1648L12.1282 22.561L14.368 21.1494L23.327 35.9321L21.8186 36.8784L13.9871 23.957L15.4955 39.4068Z" fill="#ED6340"/>
<path d="M29.2997 34.9702L29.2692 33.1864L19.6246 24.0655L21.4377 23.2123L29.2388 30.7666L28.8883 19.6912L30.6558 18.8535L31.0671 34.4273C31.0824 35.7303 30.9148 36.7541 30.5643 37.5142C30.2139 38.2587 29.5892 38.8482 28.7055 39.267C28.4922 39.3601 28.2941 39.4376 28.1113 39.5152C27.9132 39.5772 27.7608 39.6238 27.6237 39.6548L26.9381 38.1502C27.1057 38.1036 27.258 38.0726 27.3952 38.0105C27.5475 37.964 27.7151 37.8865 27.898 37.7934C28.4008 37.5607 28.7664 37.2194 28.9798 36.7541C29.1931 36.2887 29.315 35.6993 29.2997 34.9702Z" fill="#ED6340"/>
<path d="M37.8626 13.5636C37.5578 13.6721 37.2531 13.6566 36.9332 13.5015C36.6284 13.3464 36.4151 13.1292 36.2932 12.8035C36.1713 12.4777 36.2018 12.152 36.3389 11.8418C36.4913 11.5315 36.7198 11.3299 37.0246 11.2058C37.3445 11.0817 37.6645 11.0972 37.954 11.2523C38.2587 11.3919 38.4568 11.6401 38.5787 11.9659C38.6853 12.2761 38.6701 12.5863 38.533 12.9121C38.4111 13.2378 38.1825 13.455 37.8626 13.5636ZM39.5081 15.5025L43.6372 27.1984L41.946 27.8189L37.8169 16.123L39.5081 15.5025Z" fill="#ED6340"/>
<path d="M55.415 23.445L55.0493 22.1885C54.6836 22.809 54.2266 23.3519 53.6476 23.7862C53.0686 24.2205 52.4134 24.5618 51.6821 24.779C50.8593 25.0271 50.0365 25.1047 49.229 24.9961C48.4215 24.8875 47.6749 24.6549 46.9892 24.2516C46.3036 23.8638 45.6941 23.3364 45.1761 22.6694C44.6581 22.0024 44.2619 21.2423 44.0181 20.3736C43.7743 19.5205 43.6829 18.6673 43.7743 17.8142C43.8658 16.9765 44.0943 16.201 44.46 15.4874C44.8257 14.7739 45.3285 14.1534 45.9684 13.626C46.6083 13.0986 47.3244 12.6953 48.1624 12.4471C48.8328 12.2455 49.5185 12.1679 50.2346 12.1989C50.9507 12.2299 51.6364 12.4006 52.2915 12.6798L50.585 6.78531L52.2001 5.87012L57.1367 22.9486L55.415 23.445ZM45.7094 19.8307C45.8922 20.4822 46.1817 21.0561 46.5778 21.568C46.974 22.0644 47.4159 22.4677 47.9339 22.7624C48.4367 23.0572 49.0004 23.2433 49.5947 23.3209C50.1889 23.3984 50.7983 23.3519 51.4078 23.1657C52.1392 22.9486 52.7791 22.5918 53.3276 22.1109C53.8761 21.6301 54.2723 21.0716 54.5313 20.4202L52.8248 14.5102C52.2763 14.1224 51.6364 13.8742 50.905 13.7811C50.1737 13.6725 49.4575 13.7346 48.7414 13.9517C47.5225 14.3085 46.6236 15.0531 46.0293 16.1854C45.4503 17.3178 45.3437 18.5277 45.7094 19.8307Z" fill="#ED6340"/>
<path d="M69.6154 18.8533C69.0517 19.4893 68.427 20.0167 67.7566 20.42C67.0862 20.8233 66.3243 21.118 65.4559 21.3041C64.6026 21.4903 63.7494 21.4903 62.9418 21.3352C62.1191 21.1645 61.3725 20.8698 60.7173 20.42C60.0469 19.9701 59.4832 19.3962 59.0108 18.6982C58.5385 18.0001 58.2033 17.1935 58.0205 16.3093C57.8376 15.4407 57.8376 14.5875 57.99 13.7499C58.1424 12.9123 58.4318 12.1677 58.8432 11.4852C59.2546 10.8027 59.7879 10.2287 60.4431 9.74787C61.0982 9.267 61.8143 8.94126 62.6219 8.77063C63.4142 8.6 64.1912 8.6 64.9531 8.78614C65.7149 8.97228 66.4005 9.28252 67.01 9.74787C67.6194 10.2132 68.1527 10.7872 68.6098 11.4852C69.0517 12.1832 69.3716 12.9743 69.5545 13.843L69.6611 14.4014L59.8488 16.48C60.2145 17.6589 60.9154 18.543 61.921 19.1635C62.9266 19.784 64.0236 19.9701 65.1968 19.7064C65.8215 19.5823 66.4005 19.3497 66.949 19.0239C67.4975 18.6982 67.9394 18.3259 68.2594 17.8915L69.6154 18.8533ZM62.8961 10.3528C61.86 10.57 61.0373 11.1129 60.4278 11.9971C59.8184 12.8657 59.5441 13.8895 59.6203 15.0374L67.6194 13.3466C67.2385 12.3073 66.6138 11.5007 65.7149 10.9268C64.8159 10.3373 63.8865 10.1512 62.8961 10.3528Z" fill="#ED6340"/>
<path d="M76.6242 19.3347C75.2986 19.5208 74.1864 19.3192 73.2569 18.7452C72.3427 18.1713 71.8095 17.3337 71.6571 16.2323C71.5047 15.0845 71.8247 14.1072 72.6018 13.3161C73.3788 12.525 74.5063 12.0131 75.9995 11.8115C76.6394 11.7184 77.2794 11.7184 77.904 11.7805C78.5287 11.8425 79.1077 11.9666 79.6715 12.1682L79.4582 10.5395C79.321 9.56227 78.9554 8.84873 78.3459 8.42991C77.7364 8.0111 76.8984 7.85598 75.8624 8.0111C75.2377 8.08865 74.6587 8.24377 74.0797 8.50747C73.5007 8.77117 72.876 9.12794 72.1904 9.60881L71.3219 8.30582C72.1294 7.76291 72.9065 7.34409 73.6074 7.03385C74.3235 6.73913 75.0548 6.53748 75.7862 6.42889C77.3098 6.22724 78.544 6.42889 79.4734 7.04937C80.4028 7.66984 80.9513 8.6781 81.1342 10.0586L82.2312 18.3419L80.4942 18.5746L80.3419 17.3647C79.8543 17.9231 79.3058 18.3574 78.6811 18.6832C78.0564 19.0089 77.3708 19.2416 76.6242 19.3347ZM73.3636 15.9531C73.455 16.6356 73.8207 17.163 74.4454 17.5198C75.0701 17.8766 75.8471 18.0007 76.7461 17.8766C77.4774 17.7835 78.1174 17.5663 78.6811 17.2561C79.2449 16.9459 79.7324 16.5115 80.159 15.9531L79.8543 13.6419C79.3058 13.3627 78.7421 13.192 78.1478 13.1145C77.5536 13.0369 76.9137 13.0524 76.228 13.1455C75.2529 13.2696 74.5063 13.5953 74.0035 14.1072C73.4855 14.6191 73.2722 15.2241 73.3636 15.9531Z" fill="#ED6340"/>
<path d="M85.3395 0.239258L86.8784 17.9692L85.0805 18.1243L83.5873 0.813193L85.3395 0.239258Z" fill="#ED6340"/>
<path d="M93.5519 14.4016L94.7708 13.0521C95.6697 13.9673 96.6296 14.6653 97.6353 15.1307C98.6409 15.5961 99.7074 15.8132 100.804 15.7822C102.13 15.7512 103.227 15.3944 104.08 14.7429C104.934 14.0759 105.345 13.2538 105.314 12.261C105.299 11.3613 104.979 10.6943 104.355 10.229C103.73 9.76363 102.724 9.43788 101.322 9.23623L98.8542 8.89497C97.2086 8.66229 95.9897 8.21245 95.1822 7.49891C94.3746 6.80088 93.9633 5.83915 93.9328 4.61372C93.9023 3.17112 94.4204 1.99223 95.5174 1.07703C96.5992 0.161839 98.0314 -0.319026 99.8293 -0.365561C101.018 -0.396585 102.191 -0.225955 103.379 0.146327C104.553 0.51861 105.634 1.06152 106.61 1.77506L105.573 3.29522C104.629 2.6127 103.669 2.0853 102.709 1.74404C101.749 1.40278 100.774 1.24766 99.7988 1.26317C98.5799 1.2942 97.6048 1.60443 96.8582 2.19388C96.1116 2.78333 95.7612 3.52789 95.7764 4.41206C95.7916 5.21868 96.0811 5.83915 96.6296 6.25797C97.1782 6.67678 98.0619 6.97151 99.3113 7.14214L101.764 7.4834C103.623 7.7471 104.994 8.25898 105.863 9.00355C106.731 9.74811 107.189 10.7874 107.219 12.1214C107.234 12.8815 107.097 13.5795 106.792 14.231C106.488 14.8825 106.061 15.4254 105.482 15.9063C104.903 16.3872 104.233 16.7439 103.44 17.0231C102.648 17.3023 101.764 17.442 100.804 17.473C99.4484 17.504 98.1533 17.2558 96.9039 16.7284C95.6545 16.201 94.4965 15.4254 93.5519 14.4016Z" fill="#ED6340"/>
<path d="M111.348 4.73783L111.135 12.23C111.104 13.3158 111.394 14.2 111.988 14.867C112.582 15.534 113.405 15.8753 114.441 15.9063C115.172 15.9218 115.828 15.7822 116.422 15.4565C117.001 15.1307 117.488 14.6809 117.869 14.0759L118.128 4.93948L119.926 4.98602L119.576 17.4109L117.778 17.3644L117.824 15.9218C117.336 16.4647 116.772 16.8835 116.117 17.1317C115.462 17.3954 114.746 17.5195 113.954 17.4885C112.552 17.442 111.424 16.9766 110.586 16.0459C109.733 15.1307 109.322 13.9518 109.367 12.5402L109.581 4.67578L111.348 4.73783Z" fill="#ED6340"/>
<path d="M122.501 17.5657L123.354 5.15625L125.152 5.28034L125.046 6.73845C125.549 6.21105 126.143 5.82326 126.813 5.59058C127.484 5.34239 128.215 5.24932 129.007 5.31137C130.378 5.40444 131.475 5.93184 132.298 6.89357C133.106 7.8553 133.471 9.03419 133.365 10.4458L132.816 18.2947L131.034 18.1706L131.552 10.694C131.628 9.60813 131.384 8.70845 130.805 8.02593C130.226 7.34341 129.434 6.95562 128.398 6.87806C127.666 6.83152 127.011 6.9401 126.402 7.23483C125.808 7.52955 125.305 7.96388 124.909 8.53782L124.269 17.6743L122.501 17.5657Z" fill="#ED6340"/>
<path d="M145.158 19.5822L145.295 18.2793C144.731 18.7136 144.091 19.0238 143.39 19.21C142.689 19.3961 141.958 19.4426 141.212 19.3651C140.358 19.272 139.566 19.0238 138.865 18.6205C138.149 18.2172 137.555 17.6898 137.067 17.0693C136.58 16.4489 136.214 15.7198 135.985 14.8977C135.757 14.0756 135.681 13.2224 135.772 12.3227C135.864 11.4386 136.107 10.6164 136.503 9.87187C136.9 9.12731 137.402 8.49132 138.012 7.99495C138.621 7.49857 139.322 7.11077 140.099 6.86259C140.892 6.6144 141.699 6.53684 142.568 6.62991C143.268 6.70747 143.939 6.89361 144.579 7.20385C145.219 7.51408 145.798 7.9329 146.3 8.44479L146.94 2.31764L148.784 2.08496L146.956 19.7839L145.158 19.5822ZM137.54 12.4778C137.463 13.1604 137.524 13.7963 137.692 14.4168C137.859 15.0373 138.134 15.5802 138.484 16.0456C138.85 16.5109 139.292 16.8987 139.81 17.2089C140.328 17.5192 140.907 17.7053 141.547 17.7674C142.309 17.8449 143.025 17.7674 143.71 17.5347C144.396 17.302 144.975 16.9297 145.447 16.4333L146.087 10.3062C145.722 9.73226 145.219 9.26691 144.594 8.87912C143.969 8.50683 143.268 8.27416 142.537 8.1966C141.288 8.08802 140.175 8.42928 139.2 9.23589C138.24 10.0425 137.677 11.1283 137.54 12.4778Z" fill="#ED6340"/>
<path d="M153.675 20.8853C152.349 20.7146 151.328 20.2183 150.582 19.4117C149.835 18.605 149.546 17.6588 149.683 16.5575C149.835 15.4096 150.384 14.5565 151.344 13.9825C152.304 13.4086 153.523 13.238 155 13.4396C155.64 13.5327 156.265 13.6878 156.844 13.905C157.423 14.1377 157.956 14.4169 158.444 14.7426L158.657 13.1139C158.779 12.1366 158.612 11.3455 158.124 10.7716C157.636 10.1977 156.875 9.84089 155.823 9.70128C155.229 9.62373 154.62 9.62373 153.995 9.7168C153.37 9.80987 152.669 9.99601 151.892 10.2752L151.389 8.78609C152.319 8.47585 153.157 8.2742 153.934 8.18113C154.696 8.08806 155.458 8.08806 156.189 8.18113C157.713 8.38278 158.855 8.91018 159.587 9.76333C160.318 10.6165 160.592 11.7333 160.425 13.0984L159.358 21.3972L157.621 21.1645L157.774 19.9546C157.164 20.3579 156.524 20.6371 155.838 20.7767C155.153 20.9628 154.421 20.9939 153.675 20.8853ZM151.405 16.7591C151.313 17.4417 151.527 18.0466 152.045 18.5585C152.563 19.0704 153.264 19.3806 154.178 19.5047C154.909 19.5978 155.579 19.5823 156.204 19.4272C156.829 19.272 157.423 18.9928 157.956 18.5585L158.261 16.2473C157.804 15.8284 157.301 15.5182 156.753 15.2855C156.204 15.0528 155.579 14.8977 154.879 14.8047C153.919 14.6806 153.111 14.7891 152.486 15.1459C151.862 15.4872 151.496 16.0301 151.405 16.7591Z" fill="#ED6340"/>
<path d="M164.615 23.8324L165.544 22.3122L162.421 9.29785L164.401 9.59258L166.839 20.2802L172.538 10.8335L174.473 11.1282L166.397 24.3598C165.712 25.4611 165.011 26.2212 164.31 26.6555C163.609 27.0899 162.771 27.2295 161.811 27.0743C161.583 27.0433 161.369 26.9968 161.171 26.9347C160.973 26.8727 160.821 26.8262 160.684 26.7796L160.928 25.1354C161.08 25.1974 161.232 25.244 161.385 25.275C161.537 25.306 161.72 25.3525 161.918 25.3836C162.466 25.4611 162.954 25.3836 163.381 25.1354C163.807 24.8872 164.219 24.4529 164.615 23.8324Z" fill="#ED6340"/>
<path d="M183.234 25.3836C181.923 25.1664 180.903 24.6545 180.186 23.8324C179.47 23.0103 179.196 22.0486 179.379 20.9627C179.562 19.8149 180.141 18.9772 181.116 18.4498C182.091 17.9224 183.31 17.7673 184.788 18.0155C185.428 18.1241 186.037 18.2947 186.616 18.5429C187.195 18.7911 187.713 19.0858 188.186 19.4271L188.445 17.8139C188.597 16.8366 188.445 16.0455 187.972 15.4561C187.5 14.8666 186.753 14.4943 185.702 14.3082C185.108 14.2151 184.498 14.1996 183.874 14.2772C183.249 14.3547 182.533 14.5098 181.756 14.7735L181.299 13.2689C182.228 12.9897 183.081 12.8036 183.858 12.7415C184.62 12.6639 185.382 12.695 186.113 12.8191C187.637 13.0673 188.749 13.6257 189.465 14.4943C190.182 15.363 190.425 16.4798 190.197 17.8604L188.886 26.1127L187.149 25.8334L187.332 24.639C186.708 25.0268 186.052 25.275 185.367 25.4146C184.696 25.4922 183.98 25.5077 183.234 25.3836ZM181.085 21.1799C180.979 21.8624 181.177 22.4674 181.68 22.9948C182.182 23.5222 182.883 23.8634 183.782 24.003C184.498 24.1271 185.184 24.1116 185.809 23.9875C186.433 23.8634 187.028 23.5842 187.591 23.1809L187.957 20.8697C187.515 20.4509 187.028 20.1096 186.479 19.8614C185.931 19.6132 185.321 19.4271 184.62 19.3185C183.66 19.1634 182.853 19.2564 182.213 19.5822C181.573 19.9079 181.192 20.4509 181.085 21.1799Z" fill="#ED6340"/>
<path d="M192.254 14.0447L195.088 14.5101L195.453 12.1833C195.651 10.9889 196.109 10.1202 196.855 9.59283C197.602 9.04992 198.577 8.87929 199.781 9.08095C200.101 9.12748 200.39 9.20504 200.634 9.26709C200.878 9.34465 201.121 9.43772 201.35 9.56181L201.091 11.175C200.832 11.0509 200.588 10.9424 200.375 10.8648C200.161 10.7872 199.918 10.7252 199.643 10.6787C198.943 10.5546 198.379 10.6476 197.983 10.9424C197.587 11.2371 197.327 11.7645 197.206 12.509L196.84 14.7893L200.42 15.3787L200.177 16.9299L196.596 16.3405L194.874 27.0746L193.122 26.7799L194.844 16.0457L192.01 15.5804L192.254 14.0447Z" fill="#ED6340"/>
<path d="M202.538 25.5234L203.803 17.5349L201.198 17.1161L201.441 15.5649L204.047 15.9837L204.534 12.8658L206.363 12.6797L205.799 16.2629L209.44 16.8524L209.197 18.4035L205.555 17.8141L204.367 25.3373C204.26 25.9888 204.336 26.4852 204.58 26.8109C204.824 27.1367 205.281 27.3693 205.936 27.4779C206.271 27.54 206.576 27.5555 206.85 27.5555C207.124 27.5555 207.429 27.5089 207.749 27.4469L207.49 29.0446C207.17 29.1067 206.82 29.1377 206.424 29.1222C206.043 29.1067 205.662 29.0756 205.311 29.0136C204.275 28.843 203.498 28.4552 203.026 27.8657C202.554 27.2763 202.386 26.4852 202.538 25.5234Z" fill="#ED6340"/>
<path d="M219.375 29.6963C218.628 30.0996 217.866 30.3633 217.089 30.5029C216.312 30.6425 215.504 30.6425 214.636 30.5029C213.768 30.3633 212.975 30.0841 212.259 29.6343C211.543 29.1844 210.949 28.6415 210.492 27.9745C210.019 27.323 209.684 26.5785 209.486 25.7408C209.288 24.9032 209.242 24.05 209.379 23.1504C209.517 22.2662 209.791 21.4596 210.217 20.746C210.644 20.0325 211.162 19.4275 211.787 18.9312C212.411 18.4348 213.097 18.0935 213.889 17.8764C214.666 17.6592 215.474 17.6282 216.297 17.7523C217.104 17.8764 217.82 18.1556 218.476 18.5899C219.131 19.0242 219.664 19.5671 220.075 20.2186C220.487 20.8701 220.792 21.5992 220.974 22.4213C221.157 23.2434 221.172 24.0811 221.051 24.9652L220.959 25.5237L211.055 23.9725C210.994 25.1979 211.345 26.2837 212.076 27.2144C212.808 28.1452 213.768 28.7036 214.956 28.8897C215.581 28.9828 216.205 28.9828 216.83 28.8897C217.455 28.7811 217.988 28.5795 218.445 28.2848L219.375 29.6963ZM216.007 19.35C214.956 19.1794 214.011 19.412 213.128 20.0015C212.244 20.5909 211.65 21.4596 211.33 22.5609L219.405 23.8174C219.405 22.716 219.085 21.7388 218.46 20.8701C217.82 20.017 216.998 19.5051 216.007 19.35Z" fill="#ED6340"/>
<path d="M222.574 31.4952L224.326 19.1943L226.109 19.458L225.865 21.1954C226.307 20.6059 226.84 20.1871 227.48 19.9079C228.12 19.6287 228.791 19.5666 229.537 19.6752C229.766 19.7062 229.964 19.7528 230.131 19.7993C230.299 19.8458 230.482 19.9234 230.65 20.0165L230.406 21.6917C230.208 21.5987 230.01 21.5056 229.796 21.4435C229.583 21.3815 229.385 21.3194 229.172 21.2884C228.425 21.1798 227.755 21.3039 227.13 21.6452C226.505 22.002 225.987 22.5604 225.561 23.336L224.357 31.7589L222.574 31.4952Z" fill="#ED6340"/>
<path d="M230.863 32.7206L232.493 20.4043L234.276 20.6525L234.078 22.1106C234.626 21.6142 235.236 21.273 235.921 21.0713C236.607 20.8696 237.338 20.8231 238.131 20.9317C239.502 21.1178 240.553 21.7228 241.315 22.7155C242.062 23.7238 242.351 24.9337 242.168 26.3453L241.132 34.1477L239.365 33.8995L240.355 26.4694C240.492 25.3836 240.309 24.4839 239.776 23.7548C239.243 23.0258 238.466 22.5915 237.445 22.4518C236.714 22.3588 236.043 22.4208 235.434 22.6845C234.824 22.9327 234.291 23.336 233.864 23.8944L232.661 32.9688L230.863 32.7206Z" fill="#ED6340"/>
<path d="M244.225 28.2687C244.332 27.3845 244.591 26.5624 245.002 25.8178C245.414 25.0733 245.932 24.4373 246.556 23.9254C247.181 23.4135 247.897 23.0412 248.69 22.8085C249.482 22.5759 250.305 22.4983 251.173 22.6069C252.026 22.7155 252.819 22.9792 253.519 23.398C254.236 23.8168 254.83 24.3442 255.317 24.9957C255.805 25.6317 256.171 26.3763 256.399 27.1984C256.628 28.0205 256.689 28.8892 256.582 29.7733C256.475 30.673 256.216 31.5107 255.805 32.2552C255.394 32.9998 254.876 33.6358 254.251 34.1321C253.626 34.644 252.925 35.0163 252.133 35.249C251.341 35.4817 250.518 35.5592 249.665 35.4506C248.811 35.3421 248.019 35.0784 247.303 34.6595C246.587 34.2407 245.977 33.7133 245.49 33.0618C245.002 32.4103 244.637 31.6813 244.408 30.8592C244.18 30.037 244.119 29.1684 244.225 28.2687ZM249.863 33.8219C250.472 33.8995 251.066 33.8374 251.645 33.6668C252.209 33.4806 252.727 33.2014 253.169 32.8136C253.611 32.4258 253.992 31.9605 254.281 31.4021C254.571 30.8436 254.769 30.2387 254.845 29.5562C254.921 28.8892 254.891 28.2377 254.723 27.6327C254.556 27.0277 254.312 26.4848 253.961 26.004C253.611 25.5231 253.184 25.1353 252.681 24.8251C252.179 24.5148 251.6 24.3132 250.99 24.2511C250.381 24.1891 249.787 24.2356 249.223 24.4063C248.659 24.5924 248.141 24.8716 247.699 25.2439C247.257 25.6162 246.876 26.0815 246.572 26.64C246.267 27.1984 246.084 27.8033 245.993 28.4859C245.916 29.1529 245.947 29.8044 246.115 30.4093C246.282 31.0143 246.526 31.5727 246.861 32.0536C247.212 32.5344 247.638 32.9377 248.156 33.248C248.674 33.5582 249.238 33.7599 249.863 33.8219Z" fill="#ED6340"/>
<path d="M258.365 29.9756C258.456 29.0914 258.7 28.2693 259.096 27.5092C259.492 26.7491 260.01 26.1132 260.62 25.6013C261.229 25.0894 261.945 24.7016 262.722 24.4379C263.515 24.1897 264.337 24.0966 265.191 24.1897C266.044 24.2828 266.836 24.5154 267.552 24.9343C268.268 25.3531 268.878 25.865 269.381 26.4854C269.883 27.1059 270.249 27.8505 270.508 28.6726C270.752 29.4947 270.828 30.3479 270.752 31.2476C270.661 32.1472 270.417 32.9849 270.021 33.7449C269.624 34.505 269.106 35.141 268.497 35.6684C267.887 36.1958 267.187 36.5681 266.394 36.8318C265.602 37.0955 264.794 37.173 263.926 37.08C263.073 36.9869 262.28 36.7542 261.549 36.3354C260.818 35.9321 260.208 35.4047 259.705 34.7842C259.203 34.1483 258.837 33.4192 258.578 32.5971C258.365 31.7439 258.289 30.8753 258.365 29.9756ZM264.109 35.4202C264.718 35.4823 265.313 35.4202 265.876 35.2341C266.44 35.0479 266.943 34.7532 267.385 34.3499C267.827 33.9621 268.177 33.4813 268.466 32.9073C268.756 32.3489 268.924 31.7284 268.985 31.0459C269.045 30.3634 269 29.7274 268.832 29.1224C268.665 28.5175 268.406 27.9746 268.04 27.5092C267.689 27.0439 267.248 26.6561 266.73 26.3613C266.211 26.0511 265.648 25.8805 265.038 25.8184C264.429 25.7564 263.835 25.8184 263.271 26.0046C262.707 26.1907 262.204 26.4854 261.762 26.8732C261.321 27.261 260.955 27.7419 260.665 28.3003C260.376 28.8587 260.193 29.4792 260.132 30.1617C260.071 30.8287 260.117 31.4802 260.284 32.0852C260.452 32.6901 260.711 33.2331 261.062 33.7139C261.412 34.1948 261.854 34.5826 262.387 34.8773C262.92 35.172 263.499 35.3582 264.109 35.4202Z" fill="#ED6340"/>
<path d="M272.58 37.638L273.525 25.2441L275.323 25.3837L275.216 26.8419C275.734 26.3145 276.313 25.9422 276.984 25.694C277.654 25.4613 278.385 25.3682 279.178 25.4303C280.549 25.5389 281.646 26.0818 282.453 27.028C283.261 27.9897 283.611 29.1841 283.505 30.5957L282.911 38.4447L281.143 38.305L281.707 30.8284C281.783 29.7426 281.554 28.8429 280.976 28.1604C280.412 27.4623 279.604 27.0745 278.568 26.997C277.837 26.9349 277.166 27.059 276.572 27.3382C275.978 27.6174 275.475 28.0518 275.064 28.6412L274.363 37.7776L272.58 37.638Z" fill="#ED6340"/>
<path d="M294.963 39.1431L293.21 39.0655L290.255 26.501L292.037 26.5785L294.277 36.5991L297.705 26.7957L299.305 26.8577L301.941 36.8939L304.988 27.0749L306.695 27.137L302.748 39.4223L301.027 39.3602L298.391 29.2931L294.963 39.1431Z" fill="#ED6340"/>
<path d="M307.213 33.3722C307.213 32.4725 307.38 31.6349 307.716 30.8438C308.051 30.0527 308.493 29.3701 309.056 28.7962C309.62 28.2223 310.291 27.7724 311.052 27.4467C311.814 27.1209 312.637 26.9658 313.49 26.9658C314.359 26.9658 315.166 27.1364 315.913 27.4777C316.675 27.819 317.315 28.2688 317.878 28.8583C318.442 29.4477 318.869 30.1302 319.189 30.9213C319.509 31.7124 319.661 32.5656 319.661 33.4497C319.661 34.3649 319.493 35.2026 319.158 36.0092C318.823 36.8003 318.381 37.4828 317.817 38.0567C317.254 38.6307 316.598 39.0805 315.837 39.4063C315.075 39.732 314.267 39.8871 313.414 39.8871C312.546 39.8871 311.738 39.7165 310.976 39.3752C310.214 39.034 309.559 38.5841 308.995 37.9947C308.432 37.4052 308.005 36.7227 307.685 35.9316C307.365 35.125 307.213 34.2719 307.213 33.3722ZM313.429 38.2429C314.054 38.2429 314.633 38.1343 315.181 37.8861C315.73 37.6379 316.202 37.2967 316.598 36.8623C316.995 36.428 317.315 35.9161 317.543 35.3267C317.772 34.7372 317.894 34.1012 317.894 33.4342C317.894 32.7672 317.787 32.1157 317.558 31.5263C317.33 30.9368 317.025 30.4249 316.629 29.9906C316.233 29.5563 315.76 29.215 315.227 28.9668C314.679 28.7186 314.1 28.5946 313.49 28.579C312.881 28.5635 312.287 28.7031 311.738 28.9358C311.189 29.184 310.717 29.5098 310.321 29.9441C309.925 30.3784 309.605 30.8748 309.361 31.4642C309.117 32.0537 308.995 32.6897 308.995 33.3567C308.995 34.0237 309.102 34.6752 309.331 35.2646C309.559 35.8541 309.864 36.366 310.26 36.8158C310.656 37.2501 311.129 37.6069 311.677 37.8551C312.226 38.1188 312.805 38.2429 313.429 38.2429Z" fill="#ED6340"/>
<path d="M323.668 27.1682L323.866 34.6604C323.897 35.7462 324.232 36.6149 324.857 37.2354C325.497 37.8558 326.319 38.1661 327.371 38.135C328.102 38.1195 328.757 37.9334 329.321 37.5766C329.885 37.2198 330.342 36.739 330.677 36.1185L330.433 26.9821L332.231 26.9355L332.566 39.3605L330.768 39.407L330.723 37.9644C330.266 38.5383 329.717 38.9727 329.092 39.2674C328.452 39.5621 327.736 39.7328 326.944 39.7483C325.542 39.7948 324.4 39.376 323.501 38.5073C322.602 37.6387 322.129 36.4908 322.099 35.0637L321.885 27.1992L323.668 27.1682Z" fill="#ED6340"/>
<path d="M336.848 21.3037L337.731 39.0802L335.934 39.1733L335.08 21.8156L336.848 21.3037Z" fill="#ED6340"/>
<path d="M350.591 38.2122L350.5 36.8937C350.012 37.4211 349.448 37.8555 348.793 38.1502C348.138 38.4604 347.437 38.6466 346.675 38.6931C345.822 38.7551 344.999 38.6621 344.237 38.3829C343.46 38.1036 342.79 37.7158 342.196 37.1884C341.601 36.661 341.114 36.0095 340.748 35.2495C340.367 34.4739 340.154 33.6518 340.093 32.7676C340.032 31.8834 340.123 31.0303 340.382 30.2237C340.641 29.417 341.022 28.7035 341.54 28.0985C342.059 27.4936 342.668 26.9817 343.399 26.5939C344.131 26.2061 344.923 25.9734 345.776 25.9114C346.477 25.8649 347.163 25.9269 347.864 26.113C348.549 26.2992 349.189 26.6094 349.783 27.0282L349.326 20.8856L351.094 20.3271L352.389 38.0726L350.591 38.2122ZM341.83 32.597C341.876 33.2795 342.043 33.8999 342.318 34.4739C342.592 35.0478 342.957 35.5442 343.384 35.932C343.826 36.3353 344.329 36.63 344.892 36.8317C345.456 37.0333 346.066 37.1109 346.69 37.0644C347.452 37.0023 348.153 36.8006 348.778 36.4439C349.418 36.0871 349.921 35.6218 350.301 35.0478L349.86 28.9052C349.402 28.4088 348.824 28.0365 348.138 27.7728C347.452 27.5246 346.736 27.416 345.99 27.4781C344.725 27.5711 343.689 28.1141 342.881 29.0913C342.089 30.0841 341.739 31.2474 341.83 32.597Z" fill="#ED6340"/>
<path d="M372.074 29.5257C372.181 30.4099 372.12 31.2631 371.907 32.1007C371.694 32.9228 371.343 33.6674 370.856 34.3034C370.383 34.9394 369.774 35.4668 369.073 35.8856C368.357 36.3044 367.58 36.5681 366.726 36.6767C366.01 36.7697 365.309 36.7232 364.609 36.5681C363.908 36.413 363.253 36.1338 362.658 35.7305L362.811 36.9559L361.043 37.173L358.956 19.924L360.693 19.2725L361.5 25.896C361.942 25.3376 362.475 24.8877 363.115 24.5465C363.755 24.2052 364.456 23.988 365.218 23.895C366.071 23.7864 366.894 23.8484 367.671 24.0811C368.448 24.3138 369.149 24.6861 369.774 25.1824C370.398 25.6788 370.901 26.2993 371.313 27.0439C371.709 27.8194 371.968 28.6416 372.074 29.5257ZM365.233 25.5547C364.471 25.6478 363.786 25.896 363.176 26.2838C362.567 26.6716 362.079 27.168 361.714 27.7574L362.46 33.869C362.948 34.3344 363.542 34.6912 364.228 34.9083C364.929 35.1255 365.645 35.1875 366.391 35.0945C367.671 34.9394 368.677 34.3499 369.439 33.3261C370.185 32.3023 370.49 31.1235 370.322 29.7739C370.246 29.1069 370.048 28.4865 369.743 27.928C369.439 27.3696 369.058 26.9043 368.601 26.532C368.143 26.1597 367.625 25.8805 367.046 25.6943C366.467 25.5237 365.858 25.4772 365.233 25.5547Z" fill="#ED6340"/>
<path d="M385.208 32.4884C384.614 33.0934 383.959 33.5898 383.273 33.9466C382.587 34.3033 381.795 34.567 380.927 34.6911C380.058 34.8152 379.22 34.7842 378.413 34.567C377.605 34.3654 376.874 34.0086 376.234 33.5277C375.594 33.0469 375.061 32.4264 374.619 31.7129C374.177 30.9838 373.903 30.1772 373.766 29.2775C373.628 28.3933 373.674 27.5402 373.872 26.7336C374.07 25.927 374.39 25.1824 374.847 24.5309C375.289 23.8794 375.853 23.3365 376.539 22.8867C377.224 22.4368 377.971 22.1576 378.794 22.0335C379.601 21.9094 380.378 21.9559 381.125 22.1731C381.871 22.3903 382.542 22.7471 383.136 23.2434C383.73 23.7398 384.233 24.3448 384.644 25.0738C385.056 25.8029 385.33 26.594 385.452 27.4781L385.528 28.0366L375.624 29.5567C375.929 30.7511 376.569 31.6818 377.544 32.3488C378.519 33.0158 379.601 33.264 380.79 33.0779C381.414 32.9848 382.008 32.7832 382.572 32.504C383.136 32.2092 383.593 31.868 383.944 31.4336L385.208 32.4884ZM378.976 23.6312C377.925 23.7863 377.087 24.2827 376.432 25.1204C375.777 25.958 375.457 26.9507 375.457 28.0986L383.532 26.8577C383.212 25.8029 382.618 24.9652 381.765 24.3293C380.896 23.7088 379.967 23.4761 378.976 23.6312Z" fill="#ED6340"/>
</g>
<path d="M37.952 148.765C47.52 146.291 57.7514 155.41 66.9027 151.673C64.0786 148.337 60.2428 145.88 56.0404 144.719C53.3845 143.979 50.5538 143.739 48.0847 142.488C45.6156 141.238 43.5394 138.548 44.1915 135.847C44.8826 132.955 48.3707 131.545 51.2805 132.015C54.1902 132.484 56.6969 134.296 59.2082 135.846C62.8227 138.073 66.6937 139.873 70.7274 141.187C73.0155 141.932 75.9021 142.365 77.476 140.54C79.5103 138.161 77.425 134.635 75.7996 131.941C73.8856 128.788 72.6433 125.217 72.1617 121.551C71.9633 120.006 71.9093 118.344 72.6215 116.958C74.2298 113.842 79.0458 113.831 81.6864 116.124C84.3269 118.429 85.283 122.091 85.8628 125.567C86.3138 128.264 86.691 131.115 88.3254 133.295C89.9598 135.475 93.3807 136.563 95.4168 134.758C98.4168 132.097 95.575 127.064 96.4974 123.148C97.2917 119.779 100.897 117.774 104.318 117.476C109.047 117.056 113.872 119.22 116.964 122.848C120.055 126.487 121.427 131.471 120.953 136.232C120.895 136.84 120.789 137.46 120.46 137.968C120.18 138.382 119.771 138.685 119.328 138.916C117.006 140.131 114.217 139.52 111.611 139.331C109.004 139.154 105.85 139.804 104.905 142.262C104.148 144.221 105.235 146.475 106.812 147.853C108.39 149.231 110.393 149.995 112.201 151.031C117.228 153.891 120.91 159.059 121.996 164.779C122.235 166.05 122.28 167.545 121.339 168.413C119.953 169.679 117.765 168.625 116.267 167.511C109.826 162.714 103.97 157.126 98.8713 150.893C96.7227 148.274 93.7159 145.21 90.5517 146.409C87.8771 147.414 87.124 151.142 88.2878 153.78C89.4516 156.418 91.8757 158.205 94.1702 159.942C97.0499 162.132 99.9152 164.465 101.962 167.465C104.009 170.465 105.177 174.25 104.356 177.785C103.535 181.332 100.385 184.409 96.7675 184.405C91.762 184.401 88.4737 179.121 87.0875 174.28C85.7012 169.439 85.0021 163.965 81.301 160.59C80.367 159.737 79.0034 159.032 77.8781 159.622C77.4951 159.818 77.1928 160.148 76.914 160.489C73.9056 164.309 74.5803 169.819 75.8384 174.526C77.0966 179.233 78.777 184.21 77.3317 188.858C75.5219 194.683 68.3328 198.131 62.7025 195.87C57.0722 193.608 54.2139 186.124 56.8837 180.637C58.2122 177.923 60.5612 175.861 62.0896 173.246C63.5079 170.821 64.1513 167.94 63.892 165.126C63.8423 164.576 63.7456 164 63.3851 163.588C63.0943 163.26 62.6822 163.085 62.2697 162.935C58.5339 161.543 54.3743 161.327 50.5142 162.299C48.6913 162.757 46.9112 163.491 45.0451 163.709C41.0749 164.19 36.9237 162.133 34.8607 158.691C33.6157 156.626 33.1403 153.964 34.104 151.758C35.0678 149.552 37.952 148.765 37.952 148.765Z" fill="#F7D29A"/>
<defs>
<clipPath id="clip0">
<rect width="439" height="152" fill="white"/>
</clipPath>
</defs>
</svg>
