<?xml version="1.0" encoding="utf-8"?>
<!-- Generator: Adobe Illustrator 25.0.1, SVG Export Plug-In . SVG Version: 6.00 Build 0)  -->
<svg version="1.1" id="Layer_1" xmlns="http://www.w3.org/2000/svg" xmlns:xlink="http://www.w3.org/1999/xlink" x="0px" y="0px"
	 viewBox="0 0 928 198" style="enable-background:new 0 0 928 198;" xml:space="preserve">
<style type="text/css">
	.st0{fill:#3A5751;}
	.st1{fill:#5085A7;}
	.st2{fill:#A1A59F;}
	.st3{clip-path:url(#SVGID_2_);}
	.st4{fill-rule:evenodd;clip-rule:evenodd;fill:#F0D9C1;}
	.st5{fill:#ED6340;}
	.st6{fill:#F7D29A;}
	.st7{clip-path:url(#SVGID_4_);}
	.st8{fill:#E98F87;}
</style>
<path class="st0" d="M632.3,106.9c-1.3,6.8,1.9,15.8,3.4,23.5c0.4,2.1,0.9,4.3,2.3,5.8c2.2,2.2,6.1,2.2,8.7,0.5
	c2.6-1.7,4.2-4.8,4.8-7.8c0.7-3.1,0.5-6.3,0.7-9.4c0.1-2,1.2-4.7,3.1-4.2c0.6,0.1,1.1,0.7,1.5,1.1c1.8,2.2,2.4,5.3,2.6,8.2
	c0.8,10-2.1,20.3,1.1,29.9c1.1,3.6,3.8,7.3,7.4,7.5c3,0.2,5.8-2.1,7.2-4.8c1.4-2.7,1.6-5.9,1.9-8.9c0.2-2.8,0.4-5.5,0-8.2
	c-1-6.3-5.5-11.8-5.8-18.1c0-1,0.1-2.1,0.8-2.8c1.2-1.1,3.2-0.2,4.4,0.9c3.3,3.1,4.5,7.8,5.3,12.3c1.2,6.4,2.1,12.9,4.2,19.1
	c2.1,6.2,5.4,12.1,10.6,16c0.7,0.5,1.4,0.9,2.2,1c0.9,0,1.7-0.5,2.4-1c5.5-4.1,7.3-11.9,6-18.7c-1.2-6.8-4.9-12.8-8.6-18.5
	c-1.8-2.9-3.8-6.1-3.6-9.5c2-0.4,3.6,1.3,4.8,2.8c7.6,9.7,14.5,19.8,20.5,30.5c1.9,3.2,4.1,6.9,7.9,7.6c3.8,0.7,7.6-2.5,8.5-6.2
	c0.9-3.7-0.4-7.8-2.6-10.9s-5.2-5.7-8-8.3c-2.8-2.6-5.5-5.6-6.9-9.2c-0.3-0.8-0.5-1.7-0.2-2.4c0.5-1.1,2-1.3,3.1-0.8
	c1.1,0.5,1.8,1.5,2.5,2.5c2.6,3.2,5.9,6,9.9,7c4,1.1,8.6,0.3,11.5-2.7c0.6-0.6,1.1-1.5,1.5-2.3c1.8-4.2-0.9-9.3-4.9-11.6
	c-4-2.3-8.8-2.6-13.4-3.1c-1.3-0.1-2.6-0.3-3.5-1.1c-0.9-0.8-1-2.7,0.2-3.3c0.7-0.3,1.4-0.1,2,0.1c4.2,1.2,8.7,1.6,13.2,1.2
	c1.1-0.1,2.2-0.2,3-0.8c2.3-1.4,2.4-5,0.8-7.2c-1.6-2.2-4.3-3.3-6.8-4.2c-4-1.5-8.4-2.7-12.7-2.1c-6.7,0.8-11.9,5.8-17,10.3
	c-1.7,1.5-3.5,3.1-5.7,4s-4.8,0.9-6.7-0.6c-0.4-0.3-0.7-0.7-0.9-1.1c-0.3-1,0.4-2,1.2-2.8c4.8-4.6,12.8-5.3,16-11.1
	c0.7-1.2,1.1-2.6,0.7-4c-0.5-2.3-3-3.8-5.4-3.7c-2.4,0-4.6,1.3-6.4,2.8c-3.6,3-6.3,7.2-9.6,10.5c-3,3.3-7.9,5.8-12.4,4.5
	c-0.9-0.3-1.8-0.7-2.3-1.5c-0.7-1.2-0.3-2.9,0.7-3.9c1-1,2.3-1.6,3.6-2.2c3.4-1.5,6.8-3.2,9-6.2c2.1-3.1,1.8-7.8-1.4-9.7
	c-1.9-1-4.2-0.8-6.2-0.1c-7.5,2.7-10.9,11.1-15.9,17.5c-1.5,1.9-3.6,3.8-5.9,3.3c-2.5-0.4-3.9-3.2-3.7-5.8c0.2-2.5,1.5-4.8,2.8-7
	c1.4-2.4,2.6-5.1,2.8-7.9c0.2-2.8-0.8-5.9-3.3-7.3c-2.5-1.5-6.1-1-8.3,1c-2.3,2-3.9,5-3.7,7.9C648.4,93.9,633.7,100,632.3,106.9z"/>
<path class="st1" d="M565.6,86.7c3.6-7.8,3.5-16.2,6.7-24.1c2.5-6.1,6.3-12.5,4.7-18.9c-0.2-0.8-0.5-1.7-1.3-2c-1-0.4-2,0.3-3,0.5
	c-2.3,0.6-4.7-1.7-4.3-4c-3.1-2.7-8.5-0.3-10,3.6c-1.6,3.9-0.6,8.2,0.5,12.3c1.1,4,2.2,8.3,0.8,12.3c-0.2,0.6-0.5,1.3-1.1,1.6
	c-1,0.6-2.3,0-3.2-0.7c-2.7-2.1-4.6-5.1-5.3-8.5c-0.5-2.6-0.3-5.2-0.2-7.9c0.8-11,1.5-22,2.3-33c0.1-1.7,0.2-3.5-0.6-5
	c-0.7-1.2-1.8-1.9-3-2.6c-3.4-1.8-7.6-2.7-11.1-1.2c-4.9,2.1-6.9,8.2-6.3,13.5c0.6,5.3,3.4,10,5.6,14.8c3.5,7.3,6,15.1,7.5,23
	c-7.1-7.3-16.3-12.9-21.2-21.8c-5.3-9.6-4.9-21.2-4.3-32.2c0.1-2.3-0.1-5.2-2.2-6.2c-1.6-0.7-3.5,0.2-4.5,1.6s-1.4,3.1-1.8,4.8
	c-3.1-0.2-6.3-0.1-9.3,0.3c-1.5,0.2-3.3,0.6-4,2c-1,1.9,0.5,4.1,1.9,5.7c8.8,10,16.1,21.3,21.7,33.5c-11.9-6.7-24.1-12.9-36.5-18.6
	c-1.1-0.5-2.4-1-3.4-0.3c-1.2,0.8-0.9,2.7-0.2,3.9c0.7,1.2,1.8,2.4,1.8,3.9c0,2.2-2.4,3.6-4.4,4.4c4.3,7.2,13.8,8.8,21.9,10.6
	c12.6,2.8,24.7,7.7,35.7,14.5c1,0.6,2.2,1.8,1.6,2.9c-0.5,0.8-1.6,0.8-2.5,0.8c-6.2-0.6-12.3-1.7-18.3-3.5
	c-7.6-2.3-15.4-5.5-23.3-4.1c-1.6,0.3-3.4,1-3.9,2.5c-0.8,2.3,1.9,4.3,4.3,5s5.2,1.3,6,3.7c0.5,1.4,0,2.9,0.3,4.3
	c0.5,2.6,3.4,4,6,4.7c15.7,4,32.6-4,48.5-0.7c-1.9,2.4-5.3,2.9-8.3,3.3c-6.6,0.7-13.3,1.4-19.9,2.2c-1.4,0.2-3,0.5-3.6,1.7
	c-1.4,2.9,4.3,4.5,4.8,7.6c0.5,2.5-2.5,4.8-1.8,7.2c0.6,2.1,3.3,2.5,5.5,2.3C543.7,105.4,561.2,96.2,565.6,86.7z"/>
<path class="st2" d="M672.4,46.8c1.6-2.2,2.8-5.1,1.6-7.6c-0.6-1.3-1.7-2.3-2.7-3.4c-2.9-4-0.9-10.5,3.8-12.2
	c4.7-1.7,10.6,1.7,11.1,6.5c0.6,4.8-3.2,9.7-1.4,14.2c2.3,5.9,12.6,6.9,12.7,13.2c0.1,2.2-1.3,4.2-2.8,5.9
	c-8.7,10.5-20.8,18.3-34.1,21.7c-3.9,1.1-8.8,1.4-11-1.9c-1.7-2.4-1-5.9,0.9-8.2c1.8-2.4,4.6-3.8,7.3-5.2c2.8-1.5,5.6-2.9,8.4-4.4
	c-1.5-2-4.5-1.6-7-1.1c-10.9,2.6-21.6,5.7-32.2,9.4c-3.6,1.2-7.2,2.6-11,2.3c-3.8-0.3-7.6-2.5-8.4-6.2c-0.8-4.2,3-8.3,7.2-9.8
	c4.2-1.5,8.8-1.1,13.2-1.6c4.4-0.6,9.1-2.3,11.1-6.2c-18.6-6.4-40.4,8.3-58.5,0.5c-3.8-1.6-7.5-5-7.2-9.1c0.2-3.6,3.5-6.4,7-7.2
	c3.5-0.9,7.2-0.1,10.7,0.9c7.6,2.1,16.4,5.1,22.7,0.2c-0.3-3.8-3.5-7.2-7.4-7.9s-9,0.5-10.9-2.9c-0.5-0.9-0.7-2-0.7-3
	c-0.3-4.8,0.9-9.8,4.6-12.9c5.3-4.4,14-2.5,18.4,2.7c2.9,3.3,4.3,7.7,6.6,11.4c3.6,5.9,9.2,10.2,14.8,14.3c1.3,0.9,2.6,1.8,4.1,1.9
	c3.7,0.3,6.3-4.1,5.5-7.6s-3.9-6-6.9-8.1c-2.8-1.9-6-4-6.4-7.3c-0.3-3.5,3.2-6.5,6.8-6.9c3.5-0.3,7,1.2,10,3.1
	c2.9,1.8,5.9,4,6.6,7.4c0.5,2-0.1,4.1-0.5,6.2c-1.1,6-0.7,12.2,1.1,18.1c0.6,1.9,1.4,4,3.1,5.2c1.6,1.2,4.4,1.1,5.4-0.7
	C667.9,50.5,670.8,49.1,672.4,46.8z"/>
<g>
	<g>
		<defs>
			<rect id="SVGID_1_" width="846.1" height="152"/>
		</defs>
		<clipPath id="SVGID_2_">
			<use xlink:href="#SVGID_1_"  style="overflow:visible;"/>
		</clipPath>
		<g class="st3">
			<path class="st4" d="M748.7,56.9c16.3-13.2,10.2-29.8-20.2-29.8c38.6-9.2-34.1,8,0,0C572.9,64,465.5,45.6,415,44.5
				c-40.8-0.8-73.5,1.4-120.2-1.1C226,47.7,105.6,3.5,48.2,43.7c-33.4,12.9-68.9,71.8-24.2,95c70.6,36.8,137.6,0.4,271.3,8.3
				c124.2,7.4,189.5,9.4,299.2,0c40.7-3.5,84.4-19.7,103.5-36.9C708.2,95.3,732.8,69.9,748.7,56.9z"/>
			<path class="st5" d="M15.5,39.4L2.6,31.1L10.5,44L9,45L0,30.2l2.2-1.4l11.3,7.4l-1.4-13.6l2.2-1.4l9,14.8l-1.5,0.9L14,24
				L15.5,39.4z"/>
			<path class="st5" d="M29.3,35v-1.8l-9.6-9.1l1.8-0.9l7.8,7.6l-0.4-11.1l1.8-0.8l0.4,15.6c0,1.3-0.2,2.3-0.5,3.1
				c-0.4,0.7-1,1.3-1.9,1.8c-0.2,0.1-0.4,0.2-0.6,0.2c-0.2,0.1-0.4,0.1-0.5,0.1l-0.7-1.5c0.2,0,0.3-0.1,0.5-0.1s0.3-0.1,0.5-0.2
				c0.5-0.2,0.9-0.6,1.1-1C29.2,36.3,29.3,35.7,29.3,35z"/>
			<path class="st5" d="M37.9,13.6c-0.3,0.1-0.6,0.1-0.9-0.1c-0.3-0.2-0.5-0.4-0.6-0.7s-0.1-0.7,0-1c0.2-0.3,0.4-0.5,0.7-0.6
				s0.6-0.1,0.9,0c0.3,0.1,0.5,0.4,0.6,0.7s0.1,0.6,0,0.9C38.4,13.2,38.2,13.5,37.9,13.6z M39.5,15.5l4.1,11.7l-1.7,0.6l-4.1-11.7
				L39.5,15.5z"/>
			<path class="st5" d="M55.4,23.4L55,22.2c-0.4,0.6-0.8,1.2-1.4,1.6c-0.6,0.4-1.2,0.8-2,1C50.9,25,50,25.1,49.2,25
				s-1.6-0.3-2.2-0.7c-0.7-0.4-1.3-0.9-1.8-1.6s-0.9-1.4-1.2-2.3c-0.2-0.9-0.3-1.7-0.2-2.6c0.1-0.8,0.3-1.6,0.7-2.3s0.9-1.3,1.5-1.9
				s1.4-0.9,2.2-1.2c0.7-0.2,1.4-0.3,2.1-0.2s1.4,0.2,2.1,0.5l-1.7-5.9l1.6-0.9L57.2,23L55.4,23.4z M45.7,19.8
				c0.2,0.7,0.5,1.2,0.9,1.7s0.8,0.9,1.4,1.2c0.5,0.3,1.1,0.5,1.7,0.6c0.6,0.1,1.2,0,1.8-0.2c0.7-0.2,1.4-0.6,1.9-1.1s0.9-1,1.2-1.7
				l-1.7-5.9c-0.5-0.4-1.2-0.6-1.9-0.7c-0.7-0.1-1.4,0-2.2,0.2c-1.2,0.4-2.1,1.1-2.7,2.2C45.5,17.3,45.3,18.5,45.7,19.8z"/>
			<path class="st5" d="M69.6,18.9c-0.6,0.6-1.2,1.2-1.9,1.6s-1.4,0.7-2.3,0.9c-0.9,0.2-1.7,0.2-2.5,0s-1.6-0.5-2.2-0.9
				c-0.7-0.4-1.2-1-1.7-1.7s-0.8-1.5-1-2.4s-0.2-1.7,0-2.6c0.2-0.8,0.4-1.6,0.9-2.3s0.9-1.3,1.6-1.7c0.7-0.5,1.4-0.8,2.2-1
				s1.6-0.2,2.3,0c0.8,0.2,1.4,0.5,2.1,1c0.6,0.5,1.1,1,1.6,1.7c0.4,0.7,0.8,1.5,0.9,2.4l0.1,0.6l-9.8,2.1c0.4,1.2,1.1,2.1,2.1,2.7
				s2.1,0.8,3.3,0.5c0.6-0.1,1.2-0.4,1.8-0.7c0.5-0.3,1-0.7,1.3-1.1L69.6,18.9z M62.9,10.4c-1,0.2-1.9,0.8-2.5,1.6
				c-0.6,0.9-0.9,1.9-0.8,3l8-1.7c-0.4-1-1-1.8-1.9-2.4C64.8,10.3,63.9,10.2,62.9,10.4z"/>
			<path class="st5" d="M76.6,19.3c-1.3,0.2-2.4,0-3.4-0.6c-0.9-0.6-1.4-1.4-1.6-2.5s0.2-2.1,0.9-2.9c0.8-0.8,1.9-1.3,3.4-1.5
				c0.6-0.1,1.3-0.1,1.9,0s1.2,0.2,1.8,0.4l-0.2-1.6c-0.1-1-0.5-1.7-1.1-2.1C77.7,8,76.9,7.9,75.9,8c-0.6,0.1-1.2,0.2-1.8,0.5
				c-0.6,0.3-1.2,0.6-1.9,1.1l-0.9-1.3c0.8-0.5,1.6-1,2.3-1.3c0.7-0.3,1.4-0.5,2.2-0.6c1.5-0.2,2.8,0,3.7,0.6c0.9,0.6,1.5,1.6,1.7,3
				l1.1,8.3l-1.7,0.2l-0.2-1.2c-0.5,0.6-1,1-1.7,1.3C78.1,19,77.4,19.2,76.6,19.3z M73.4,16c0.1,0.7,0.5,1.2,1.1,1.6
				s1.4,0.5,2.3,0.4c0.7-0.1,1.4-0.3,1.9-0.6c0.6-0.3,1.1-0.7,1.5-1.3l-0.3-2.3c-0.5-0.3-1.1-0.4-1.7-0.5s-1.2-0.1-1.9,0
				c-1,0.1-1.7,0.4-2.2,1C73.5,14.6,73.3,15.2,73.4,16z"/>
			<path class="st5" d="M85.3,0.2L86.9,18l-1.8,0.2L83.6,0.8L85.3,0.2z"/>
			<path class="st5" d="M93.6,14.4l1.2-1.3c0.9,0.9,1.9,1.6,2.9,2.1c1,0.5,2.1,0.7,3.2,0.7c1.3,0,2.4-0.4,3.3-1
				c0.9-0.7,1.3-1.5,1.2-2.5c0-0.9-0.3-1.6-1-2c-0.6-0.5-1.6-0.8-3-1l-2.5-0.3c-1.6-0.2-2.9-0.7-3.7-1.4C94.4,7,94,6,94,4.8
				c0-1.4,0.5-2.6,1.6-3.5s2.5-1.4,4.3-1.4c1.2,0,2.4,0.1,3.5,0.5c1.2,0.4,2.3,0.9,3.2,1.6l-1,1.5c-0.9-0.7-1.9-1.2-2.9-1.6
				s-1.9-0.5-2.9-0.5c-1.2,0-2.2,0.3-2.9,0.9s-1.1,1.3-1.1,2.2c0,0.8,0.3,1.4,0.9,1.8c0.5,0.4,1.4,0.7,2.7,0.9l2.5,0.3
				c1.9,0.3,3.2,0.8,4.1,1.5s1.3,1.8,1.4,3.1c0,0.8-0.1,1.5-0.4,2.1c-0.3,0.7-0.7,1.2-1.3,1.7c-0.6,0.5-1.2,0.8-2,1.1
				s-1.7,0.4-2.6,0.4c-1.4,0-2.7-0.2-3.9-0.7C95.7,16.2,94.5,15.4,93.6,14.4z"/>
			<path class="st5" d="M111.3,4.7l-0.2,7.5c0,1.1,0.3,2,0.9,2.6c0.6,0.7,1.4,1,2.5,1c0.7,0,1.4-0.1,2-0.4c0.6-0.3,1.1-0.8,1.4-1.4
				l0.3-9.1h1.8l-0.4,12.4h-1.8v-1.4c-0.5,0.5-1.1,1-1.7,1.2c-0.7,0.3-1.4,0.4-2.2,0.4c-1.4,0-2.5-0.5-3.4-1.4s-1.3-2.1-1.2-3.5
				l0.2-7.9L111.3,4.7z"/>
			<path class="st5" d="M122.5,17.6l0.9-12.4l1.8,0.1L125,6.7c0.5-0.5,1.1-0.9,1.8-1.1c0.7-0.2,1.4-0.3,2.2-0.3
				c1.4,0.1,2.5,0.6,3.3,1.6s1.2,2.1,1.1,3.6l-0.5,7.8l-1.8-0.1l0.5-7.5c0.1-1.1-0.2-2-0.7-2.7c-0.6-0.7-1.4-1.1-2.4-1.1
				c-0.7,0-1.4,0.1-2,0.4S125.4,8,125,8.6l-0.6,9.1L122.5,17.6z"/>
			<path class="st5" d="M145.2,19.6l0.1-1.3c-0.6,0.4-1.2,0.7-1.9,0.9c-0.7,0.2-1.4,0.2-2.2,0.2c-0.9-0.1-1.6-0.3-2.3-0.7
				c-0.7-0.4-1.3-0.9-1.8-1.6c-0.5-0.6-0.9-1.3-1.1-2.2c-0.2-0.8-0.3-1.7-0.2-2.6s0.3-1.7,0.7-2.5c0.4-0.7,0.9-1.4,1.5-1.9
				s1.3-0.9,2.1-1.1s1.6-0.3,2.5-0.2c0.7,0.1,1.4,0.3,2,0.6c0.6,0.3,1.2,0.7,1.7,1.2l0.6-6.1l1.8-0.2L147,19.8L145.2,19.6z
				 M137.5,12.5c-0.1,0.7,0,1.3,0.2,1.9c0.2,0.6,0.4,1.2,0.8,1.6c0.4,0.5,0.8,0.9,1.3,1.2c0.5,0.3,1.1,0.5,1.7,0.6
				c0.8,0.1,1.5,0,2.2-0.2s1.3-0.6,1.7-1.1l0.6-6.1c-0.4-0.6-0.9-1-1.5-1.4s-1.3-0.6-2.1-0.7c-1.2-0.1-2.4,0.2-3.3,1
				C138.2,10,137.7,11.1,137.5,12.5z"/>
			<path class="st5" d="M153.7,20.9c-1.3-0.2-2.3-0.7-3.1-1.5c-0.7-0.8-1-1.8-0.9-2.9c0.2-1.1,0.7-2,1.7-2.6s2.2-0.7,3.7-0.5
				c0.6,0.1,1.3,0.2,1.8,0.5c0.6,0.2,1.1,0.5,1.6,0.8l0.2-1.6c0.1-1,0-1.8-0.5-2.3c-0.5-0.6-1.2-0.9-2.3-1.1c-0.6-0.1-1.2-0.1-1.8,0
				s-1.3,0.3-2.1,0.6l-0.5-1.5c0.9-0.3,1.8-0.5,2.5-0.6c0.8-0.1,1.5-0.1,2.3,0c1.5,0.2,2.7,0.7,3.4,1.6c0.7,0.9,1,2,0.8,3.3
				l-1.1,8.3l-1.7-0.2l0.2-1.2c-0.6,0.4-1.2,0.7-1.9,0.8C155.2,21,154.4,21,153.7,20.9z M151.4,16.8c-0.1,0.7,0.1,1.3,0.6,1.8
				s1.2,0.8,2.1,0.9c0.7,0.1,1.4,0.1,2-0.1s1.2-0.4,1.8-0.9l0.3-2.3c-0.5-0.4-1-0.7-1.5-1c-0.5-0.2-1.2-0.4-1.9-0.5
				c-1-0.1-1.8,0-2.4,0.3C151.9,15.5,151.5,16,151.4,16.8z"/>
			<path class="st5" d="M164.6,23.8l0.9-1.5l-3.1-13l2,0.3l2.4,10.7l5.7-9.4l1.9,0.3l-8.1,13.2c-0.7,1.1-1.4,1.9-2.1,2.3
				c-0.7,0.4-1.5,0.6-2.5,0.4c-0.2,0-0.4-0.1-0.6-0.1c-0.2-0.1-0.4-0.1-0.5-0.2l0.2-1.6c0.2,0.1,0.3,0.1,0.5,0.1s0.3,0.1,0.5,0.1
				c0.5,0.1,1,0,1.5-0.2C163.8,24.9,164.2,24.5,164.6,23.8z"/>
			<path class="st5" d="M183.2,25.4c-1.3-0.2-2.3-0.7-3-1.6c-0.7-0.8-1-1.8-0.8-2.9s0.8-2,1.7-2.5c1-0.5,2.2-0.7,3.7-0.4
				c0.6,0.1,1.2,0.3,1.8,0.5s1.1,0.5,1.6,0.9l0.3-1.6c0.2-1,0-1.8-0.5-2.4c-0.5-0.6-1.2-1-2.3-1.1c-0.6-0.1-1.2-0.1-1.8,0
				s-1.3,0.2-2.1,0.5l-0.5-1.5c0.9-0.3,1.8-0.5,2.6-0.5c0.8-0.1,1.5,0,2.3,0.1c1.5,0.2,2.6,0.8,3.4,1.7c0.7,0.9,1,2,0.7,3.4
				l-1.3,8.3l-1.7-0.3l0.2-1.2c-0.6,0.4-1.3,0.6-2,0.8C184.7,25.5,184,25.5,183.2,25.4z M181.1,21.2c-0.1,0.7,0.1,1.3,0.6,1.8
				s1.2,0.9,2.1,1c0.7,0.1,1.4,0.1,2,0s1.2-0.4,1.8-0.8l0.4-2.3c-0.4-0.4-0.9-0.8-1.5-1c-0.5-0.2-1.2-0.4-1.9-0.5
				c-1-0.2-1.8-0.1-2.4,0.3C181.6,19.9,181.2,20.5,181.1,21.2z"/>
			<path class="st5" d="M192.3,14l2.8,0.5l0.4-2.3c0.2-1.2,0.7-2.1,1.4-2.6s1.7-0.7,2.9-0.5c0.3,0,0.6,0.1,0.9,0.2
				c0.2,0.1,0.5,0.2,0.7,0.3l-0.3,1.6c-0.3-0.1-0.5-0.2-0.7-0.3s-0.5-0.1-0.7-0.2c-0.7-0.1-1.3,0-1.7,0.3s-0.7,0.8-0.8,1.6l-0.4,2.3
				l3.6,0.6l-0.2,1.6l-3.6-0.6l-1.7,10.7l-1.8-0.3l1.7-10.7l-2.8-0.5L192.3,14z"/>
			<path class="st5" d="M202.5,25.5l1.3-8l-2.6-0.4l0.2-1.6L204,16l0.5-3.1l1.8-0.2l-0.6,3.6l3.6,0.6l-0.2,1.6l-3.6-0.6l-1.2,7.5
				c-0.1,0.7,0,1.1,0.2,1.5c0.2,0.3,0.7,0.6,1.4,0.7c0.3,0.1,0.6,0.1,0.9,0.1c0.3,0,0.6,0,0.9-0.1l-0.3,1.6
				c-0.3,0.1-0.7,0.1-1.1,0.1c-0.4,0-0.8,0-1.1-0.1c-1-0.2-1.8-0.6-2.3-1.1C202.6,27.3,202.4,26.5,202.5,25.5z"/>
			<path class="st5" d="M219.4,29.7c-0.7,0.4-1.5,0.7-2.3,0.8c-0.8,0.1-1.6,0.1-2.5,0s-1.7-0.4-2.4-0.9c-0.7-0.4-1.3-1-1.8-1.7
				s-0.8-1.4-1-2.2c-0.2-0.8-0.2-1.7-0.1-2.6c0.1-0.9,0.4-1.7,0.8-2.4c0.4-0.7,0.9-1.3,1.6-1.8c0.6-0.5,1.3-0.8,2.1-1.1
				c0.8-0.2,1.6-0.2,2.4-0.1c0.8,0.1,1.5,0.4,2.2,0.8s1.2,1,1.6,1.6c0.4,0.7,0.7,1.4,0.9,2.2c0.2,0.8,0.2,1.7,0.1,2.5l-0.1,0.6
				l-9.9-1.6c-0.1,1.2,0.3,2.3,1,3.2c0.7,0.9,1.7,1.5,2.9,1.7c0.6,0.1,1.2,0.1,1.9,0c0.6-0.1,1.2-0.3,1.6-0.6L219.4,29.7z M216,19.4
				c-1.1-0.2-2,0.1-2.9,0.7s-1.5,1.5-1.8,2.6l8.1,1.3c0-1.1-0.3-2.1-0.9-2.9C217.8,20,217,19.5,216,19.4z"/>
			<path class="st5" d="M222.6,31.5l1.8-12.3l1.8,0.3l-0.2,1.7c0.4-0.6,1-1,1.6-1.3s1.3-0.3,2.1-0.2c0.2,0,0.4,0.1,0.6,0.1
				c0.2,0,0.4,0.1,0.5,0.2l-0.2,1.7c-0.2-0.1-0.4-0.2-0.6-0.2c-0.2-0.1-0.4-0.1-0.6-0.2c-0.7-0.1-1.4,0-2,0.4s-1.1,0.9-1.6,1.7
				l-1.2,8.4L222.6,31.5z"/>
			<path class="st5" d="M230.9,32.7l1.6-12.3l1.8,0.2l-0.2,1.5c0.5-0.5,1.2-0.8,1.8-1c0.7-0.2,1.4-0.2,2.2-0.1
				c1.4,0.2,2.4,0.8,3.2,1.8c0.7,1,1,2.2,0.9,3.6l-1,7.8l-1.8-0.2l1-7.4c0.1-1.1,0-2-0.6-2.7c-0.5-0.7-1.3-1.2-2.3-1.3
				c-0.7-0.1-1.4,0-2,0.2s-1.1,0.7-1.6,1.2l-1.2,9.1L230.9,32.7z"/>
			<path class="st5" d="M244.2,28.3c0.1-0.9,0.4-1.7,0.8-2.5c0.4-0.7,0.9-1.4,1.6-1.9c0.6-0.5,1.3-0.9,2.1-1.1s1.6-0.3,2.5-0.2
				c0.9,0.1,1.6,0.4,2.3,0.8s1.3,0.9,1.8,1.6c0.5,0.6,0.9,1.4,1.1,2.2c0.2,0.8,0.3,1.7,0.2,2.6c-0.1,0.9-0.4,1.7-0.8,2.5
				c-0.4,0.7-0.9,1.4-1.6,1.9c-0.6,0.5-1.3,0.9-2.1,1.1c-0.8,0.2-1.6,0.3-2.5,0.2s-1.6-0.4-2.4-0.8c-0.7-0.4-1.3-0.9-1.8-1.6
				c-0.5-0.7-0.9-1.4-1.1-2.2C244.2,30,244.1,29.2,244.2,28.3z M249.9,33.8c0.6,0.1,1.2,0,1.8-0.2s1.1-0.5,1.5-0.9s0.8-0.9,1.1-1.4
				c0.3-0.6,0.5-1.2,0.6-1.8c0.1-0.7,0-1.3-0.1-1.9c-0.2-0.6-0.4-1.1-0.8-1.6c-0.4-0.5-0.8-0.9-1.3-1.2c-0.5-0.3-1.1-0.5-1.7-0.6
				c-0.6-0.1-1.2,0-1.8,0.2s-1.1,0.5-1.5,0.8c-0.4,0.4-0.8,0.8-1.1,1.4s-0.5,1.2-0.6,1.8c-0.1,0.7,0,1.3,0.1,1.9
				c0.2,0.6,0.4,1.2,0.7,1.6c0.4,0.5,0.8,0.9,1.3,1.2C248.7,33.6,249.2,33.8,249.9,33.8z"/>
			<path class="st5" d="M258.4,30c0.1-0.9,0.3-1.7,0.7-2.5c0.4-0.8,0.9-1.4,1.5-1.9s1.3-0.9,2.1-1.2c0.8-0.2,1.6-0.3,2.5-0.2
				c0.9,0.1,1.6,0.3,2.4,0.7c0.7,0.4,1.3,0.9,1.8,1.6c0.5,0.6,0.9,1.4,1.1,2.2c0.2,0.8,0.3,1.7,0.2,2.6c-0.1,0.9-0.3,1.7-0.7,2.5
				c-0.4,0.8-0.9,1.4-1.5,1.9s-1.3,0.9-2.1,1.2c-0.8,0.3-1.6,0.3-2.5,0.2s-1.6-0.3-2.4-0.7c-0.7-0.4-1.3-0.9-1.8-1.6
				c-0.5-0.6-0.9-1.4-1.1-2.2C258.4,31.7,258.3,30.9,258.4,30z M264.1,35.4c0.6,0.1,1.2,0,1.8-0.2c0.6-0.2,1.1-0.5,1.5-0.9
				s0.8-0.9,1.1-1.4c0.3-0.6,0.5-1.2,0.5-1.9c0.1-0.7,0-1.3-0.2-1.9s-0.4-1.1-0.8-1.6s-0.8-0.9-1.3-1.1c-0.5-0.3-1.1-0.5-1.7-0.5
				c-0.6-0.1-1.2,0-1.8,0.2c-0.6,0.2-1.1,0.5-1.5,0.9s-0.8,0.9-1.1,1.4c-0.3,0.6-0.5,1.2-0.5,1.9c-0.1,0.7,0,1.3,0.2,1.9
				c0.2,0.6,0.4,1.1,0.8,1.6c0.3,0.5,0.8,0.9,1.3,1.2C262.9,35.2,263.5,35.4,264.1,35.4z"/>
			<path class="st5" d="M272.6,37.6l0.9-12.4l1.8,0.1l-0.1,1.5c0.5-0.5,1.1-0.9,1.8-1.1c0.7-0.2,1.4-0.3,2.2-0.3
				c1.4,0.1,2.5,0.7,3.3,1.6c0.8,1,1.2,2.2,1.1,3.6l-0.6,7.8l-1.8-0.1l0.6-7.5c0.1-1.1-0.2-2-0.7-2.7c-0.6-0.7-1.4-1.1-2.4-1.2
				c-0.7-0.1-1.4,0.1-2,0.3s-1.1,0.7-1.5,1.3l-0.7,9.1H272.6z"/>
			<path class="st5" d="M295,39.1l-1.8-0.1l-3-12.6l1.8,0.1l2.2,10l3.4-9.8l1.6,0.1l2.6,10l3-9.8l1.7,0.1l-3.9,12.3l-1.7-0.1
				l-2.6-10.1L295,39.1z"/>
			<path class="st5" d="M307.2,33.4c0-0.9,0.2-1.7,0.5-2.5s0.8-1.5,1.3-2c0.6-0.6,1.2-1,2-1.3s1.6-0.5,2.4-0.5
				c0.9,0,1.7,0.2,2.4,0.5c0.8,0.3,1.4,0.8,2,1.4s1,1.3,1.3,2.1c0.3,0.8,0.5,1.6,0.5,2.5s-0.2,1.8-0.5,2.6s-0.8,1.5-1.3,2
				c-0.6,0.6-1.2,1-2,1.3s-1.6,0.5-2.4,0.5c-0.9,0-1.7-0.2-2.4-0.5c-0.8-0.3-1.4-0.8-2-1.4c-0.6-0.6-1-1.3-1.3-2.1
				C307.4,35.1,307.2,34.3,307.2,33.4z M313.4,38.2c0.6,0,1.2-0.1,1.8-0.4c0.5-0.2,1-0.6,1.4-1s0.7-0.9,0.9-1.5
				c0.2-0.6,0.4-1.2,0.4-1.9s-0.1-1.3-0.3-1.9c-0.2-0.6-0.5-1.1-0.9-1.5s-0.9-0.8-1.4-1s-1.1-0.4-1.7-0.4s-1.2,0.1-1.8,0.4
				c-0.5,0.2-1,0.6-1.4,1s-0.7,0.9-1,1.5c-0.2,0.6-0.4,1.2-0.4,1.9s0.1,1.3,0.3,1.9c0.2,0.6,0.5,1.1,0.9,1.6c0.4,0.4,0.9,0.8,1.4,1
				C312.2,38.1,312.8,38.2,313.4,38.2z"/>
			<path class="st5" d="M323.7,27.2l0.2,7.5c0,1.1,0.4,2,1,2.6s1.5,0.9,2.5,0.9c0.7,0,1.4-0.2,2-0.6c0.6-0.4,1-0.8,1.4-1.5l-0.2-9.1
				h1.8l0.3,12.4h-1.8V38c-0.5,0.6-1,1-1.6,1.3s-1.4,0.5-2.1,0.5c-1.4,0-2.5-0.4-3.4-1.2c-0.9-0.9-1.4-2-1.4-3.4l-0.2-7.9
				L323.7,27.2z"/>
			<path class="st5" d="M336.8,21.3l0.9,17.8l-1.8,0.1L335,21.8L336.8,21.3z"/>
			<path class="st5" d="M350.6,38.2l-0.1-1.3c-0.5,0.5-1.1,1-1.7,1.3c-0.7,0.3-1.4,0.5-2.1,0.5c-0.9,0.1-1.7,0-2.4-0.3
				c-0.8-0.3-1.4-0.7-2-1.2s-1.1-1.2-1.4-1.9c-0.4-0.8-0.6-1.6-0.7-2.5c-0.1-0.9,0-1.7,0.3-2.5s0.6-1.5,1.2-2.1
				c0.5-0.6,1.1-1.1,1.9-1.5c0.7-0.4,1.5-0.6,2.4-0.7c0.7,0,1.4,0,2.1,0.2s1.3,0.5,1.9,0.9l-0.5-6.1l1.8-0.6l1.3,17.7L350.6,38.2z
				 M341.8,32.6c0,0.7,0.2,1.3,0.5,1.9c0.3,0.6,0.6,1.1,1.1,1.5c0.4,0.4,0.9,0.7,1.5,0.9s1.2,0.3,1.8,0.2c0.8-0.1,1.5-0.3,2.1-0.6
				c0.6-0.4,1.1-0.8,1.5-1.4l-0.4-6.1c-0.5-0.5-1-0.9-1.7-1.1s-1.4-0.4-2.1-0.3c-1.3,0.1-2.3,0.6-3.1,1.6
				C342.1,30.1,341.7,31.2,341.8,32.6z"/>
			<path class="st5" d="M372.1,29.5c0.1,0.9,0,1.7-0.2,2.6c-0.2,0.8-0.6,1.6-1.1,2.2c-0.5,0.6-1.1,1.2-1.8,1.6
				c-0.7,0.4-1.5,0.7-2.3,0.8c-0.7,0.1-1.4,0-2.1-0.1c-0.7-0.2-1.4-0.4-2-0.8l0.2,1.2l-1.8,0.2l-2-17.3l1.7-0.7l0.8,6.6
				c0.4-0.6,1-1,1.6-1.3s1.3-0.6,2.1-0.7c0.9-0.1,1.7,0,2.5,0.2s1.5,0.6,2.1,1.1s1.1,1.1,1.5,1.9S372,28.6,372.1,29.5z M365.2,25.6
				c-0.8,0.1-1.4,0.3-2.1,0.7c-0.6,0.4-1.1,0.9-1.5,1.5l0.7,6.1c0.5,0.5,1.1,0.8,1.8,1c0.7,0.2,1.4,0.3,2.2,0.2
				c1.3-0.2,2.3-0.7,3-1.8c0.7-1,1.1-2.2,0.9-3.6c-0.1-0.7-0.3-1.3-0.6-1.8c-0.3-0.6-0.7-1-1.1-1.4c-0.5-0.4-1-0.7-1.6-0.8
				C366.5,25.5,365.9,25.5,365.2,25.6z"/>
			<path class="st5" d="M385.2,32.5c-0.6,0.6-1.2,1.1-1.9,1.5c-0.7,0.4-1.5,0.6-2.3,0.7c-0.9,0.1-1.7,0.1-2.5-0.1
				c-0.8-0.2-1.5-0.6-2.2-1c-0.6-0.5-1.2-1.1-1.6-1.8s-0.7-1.5-0.9-2.4c-0.1-0.9-0.1-1.7,0.1-2.5s0.5-1.6,1-2.2
				c0.4-0.7,1-1.2,1.7-1.6s1.4-0.7,2.3-0.9c0.8-0.1,1.6-0.1,2.3,0.1c0.7,0.2,1.4,0.6,2,1.1s1.1,1.1,1.5,1.8c0.4,0.7,0.7,1.5,0.8,2.4
				l0.1,0.6l-9.9,1.5c0.3,1.2,0.9,2.1,1.9,2.8s2.1,0.9,3.2,0.7c0.6-0.1,1.2-0.3,1.8-0.6c0.6-0.3,1-0.6,1.4-1.1L385.2,32.5z
				 M379,23.6c-1.1,0.2-1.9,0.7-2.5,1.5c-0.7,0.8-1,1.8-1,3l8.1-1.2c-0.3-1.1-0.9-1.9-1.8-2.5C380.9,23.7,380,23.5,379,23.6z"/>
		</g>
	</g>
</g>
<path class="st6" d="M15.5,134.9c9.6-2.5,19.8,6.6,29,2.9c-2.8-3.3-6.7-5.8-10.9-7c-2.7-0.7-5.5-1-8-2.2c-2.5-1.2-4.5-3.9-3.9-6.6
	c0.7-2.9,4.2-4.3,7.1-3.8c2.9,0.5,5.4,2.3,7.9,3.8c3.6,2.2,7.5,4,11.5,5.3c2.3,0.7,5.2,1.2,6.7-0.6c2-2.4-0.1-5.9-1.7-8.6
	c-1.9-3.2-3.2-6.7-3.6-10.4c-0.2-1.5-0.3-3.2,0.5-4.6c1.6-3.1,6.4-3.1,9.1-0.8c2.6,2.3,3.6,6,4.2,9.4c0.5,2.7,0.8,5.5,2.5,7.7
	c1.6,2.2,5.1,3.3,7.1,1.5c3-2.7,0.2-7.7,1.1-11.6c0.8-3.4,4.4-5.4,7.8-5.7c4.7-0.4,9.6,1.7,12.6,5.4c3.1,3.6,4.5,8.6,4,13.4
	c-0.1,0.6-0.2,1.2-0.5,1.7c-0.3,0.4-0.7,0.7-1.1,0.9c-2.3,1.2-5.1,0.6-7.7,0.4c-2.6-0.2-5.8,0.5-6.7,2.9c-0.8,2,0.3,4.2,1.9,5.6
	c1.6,1.4,3.6,2.1,5.4,3.2c5,2.9,8.7,8,9.8,13.7c0.2,1.3,0.3,2.8-0.7,3.6c-1.4,1.3-3.6,0.2-5.1-0.9c-6.4-4.8-12.3-10.4-17.4-16.6
	c-2.1-2.6-5.2-5.7-8.3-4.5c-2.7,1-3.4,4.7-2.3,7.4c1.2,2.6,3.6,4.4,5.9,6.2c2.9,2.2,5.7,4.5,7.8,7.5c2,3,3.2,6.8,2.4,10.3
	c-0.8,3.5-4,6.6-7.6,6.6c-5,0-8.3-5.3-9.7-10.1c-1.4-4.8-2.1-10.3-5.8-13.7c-0.9-0.9-2.3-1.6-3.4-1c-0.4,0.2-0.7,0.5-1,0.9
	c-3,3.8-2.3,9.3-1.1,14c1.3,4.7,2.9,9.7,1.5,14.3c-1.8,5.8-9,9.3-14.6,7s-8.5-9.7-5.8-15.2c1.3-2.7,3.7-4.8,5.2-7.4
	c1.4-2.4,2.1-5.3,1.8-8.1c0-0.6-0.1-1.1-0.5-1.5c-0.3-0.3-0.7-0.5-1.1-0.7c-3.7-1.4-7.9-1.6-11.8-0.6c-1.8,0.5-3.6,1.2-5.5,1.4
	c-4,0.5-8.1-1.6-10.2-5c-1.2-2.1-1.7-4.7-0.8-6.9C12.6,135.7,15.5,134.9,15.5,134.9z"/>
<g>
	<g>
		<defs>
			<rect id="SVGID_3_" x="712.1" y="26.5" width="54.7" height="59.4"/>
		</defs>
		<clipPath id="SVGID_4_">
			<use xlink:href="#SVGID_3_"  style="overflow:visible;"/>
		</clipPath>
		<g class="st7">
			<path class="st8" d="M739.1,71c-1,1.2-1.7,2.7-2.3,4.1c-0.5,1.1-0.9,2.4-0.3,3.5c1,1.6,3.5,1,4.9-0.2c2.2-1.9,3.5-4.5,5.4-6.8
				c1.8-2.2,4.7-4.1,7.5-3.4c0.5,0.1,1,0.4,1.3,0.8c0.3,0.4,0.3,0.9,0.4,1.3c0.3,4.7-2.1,9.3-5.8,12.1c-3.7,2.9-8.6,4-13.3,3.5
				c-4-0.4-8.4-2.7-9.1-6.7c-0.1-0.7-0.1-1.4-0.4-2c-0.3-0.6-1-1.1-1.6-0.9c-0.4,0.1-0.7,0.5-0.9,0.9c-1.4,2-3.7,3.5-6.1,4.1
				c-2.2,0.5-4.9,0.1-6-1.8c-0.6-1-0.6-2.2-0.5-3.4c0.4-2.9,2.3-5.9,5.2-6.4c1.2-0.2,2.3,0,3.5-0.2c1.1-0.3,2.2-1.4,1.9-2.5
				c-1.6-1.3-3.3-2.6-4.9-3.9c-0.6-0.5-1.3-1.1-1.5-1.9c-0.1-0.4,0-0.8,0.1-1.2c0.5-1.5,1.9-2.7,3.5-2.9c1.6-0.2,3.3,0.7,4,2.1
				c0.6,1.1,0.7,2.4,1.3,3.5c0.7,1.1,2.4,1.7,3.1,0.7c0.3-0.3,0.3-0.8,0.4-1.2c0.4-4-0.4-8.1-1.2-12.1s-1.6-8-1-12.1
				c0.5-4,2.6-8.1,6.2-9.9c2.6-1.4,5.7-1.5,8.6-1.5c0.6,0,1.2,0,1.6,0.4c0.2,0.2,0.3,0.6,0.4,0.9c1,4.2-0.4,8.6-1.8,12.7
				c-1.8,5.5-3.7,10.9-5.5,16.4c-0.7,2.2-1.5,4.5-1.7,6.8c0,0.4,0,0.7,0.1,1c0.3,0.6,1.1,0.7,1.7,0.5s1-0.7,1.5-1.2
				c3.7-4,7.3-8.1,9.9-12.9c1.8-3.3,3-6.8,4.8-10.1c1.8-3.2,4.5-6.3,8-7.5c1.2-0.4,2.5-0.6,3.8-0.3c1.2,0.3,2.3,1.3,2.6,2.5
				c0.3,1.4-0.6,2.8-1.4,3.9c-3.6,5.4-7.2,10.7-10.8,16.1c-0.5,0.7-0.9,1.6-0.4,2.3c0.5,0.6,1.4,0.5,2.1,0.1
				c0.7-0.3,1.3-0.8,2.1-0.9c1.2,0,2.2,1.4,1.9,2.6c-0.2,1.2-1.3,2.1-2.4,2.6c-1.2,0.5-2.4,0.5-3.6,0.7c-4.5,0.7-8.8,2.7-12.2,5.7
				L739.1,71z"/>
		</g>
	</g>
</g>
</svg>
